
<svg stroke-miterlimit="10" style={{fillRule:'nonzero', clipRule:'evenodd', strokeLinecap:'round', strokeLinejoin: 'round'}}  viewBox="0 0 1501 309" width="100%"  xmlns="http://www.w3.org/2000/svg">
<g id="Layer-1">
<path d="M178.5 5.5C175.5 7.83333 173.5 9 172.5 9C171.5 9 170.833 9.66667 170.5 11C170.167 12.3333 169.167 13 167.5 13C166.667 13 165.833 13 165 13C165 13.8333 165 14.6667 165 15.5C165 16.3333 165 17.1667 165 18C161.833 18 158.667 18 155.5 18C149.167 18 144.833 18.6667 142.5 20C141.333 20.6667 140.167 21.3333 139 22C138.833 21.5 138.667 21 138.5 20.5C138.167 19.5 136.833 19 134.5 19C133.333 19 132.167 19 131 19C131.167 18.6667 131.333 18.3333 131.5 18C131.667 17.6667 131.833 17.3333 132 17C131.667 16.8333 131.333 16.6667 131 16.5C130.333 16.1667 127.833 16 123.5 16C119.167 16 115.333 17.1667 112 19.5C108.667 21.8333 107 23.8333 107 25.5C107 27.1667 107.667 28.3333 109 29C110.333 29.6667 112.5 29.5 115.5 28.5C118.5 27.5 121.833 27 125.5 27C129.167 27 131.167 27.5 131.5 28.5C131.667 29 131.833 29.5 132 30C130.833 30.3333 129.667 30.6667 128.5 31C127.333 31.3333 126.167 31.6667 125 32C125.667 32.6667 126.333 33.3333 127 34C128.333 35.3333 128.5 36.6667 127.5 38C126.5 39.3333 126 40.3333 126 41C126 41.3333 126 41.6667 126 42C126.5 42 127 42 127.5 42C128 42 128.5 42 129 42C128.833 42.6667 128.667 43.3333 128.5 44C128.333 44.6667 128.167 45.3333 128 46C131.667 45.5 135.333 45 139 44.5C146.333 43.5 151.333 44.3333 154 47C156.667 49.6667 160.5 51.6667 165.5 53C170.5 54.3333 173.5 55.6667 174.5 57C175.5 58.3333 177.667 59.8333 181 61.5C184.333 63.1667 190.5 64.5 199.5 65.5C208.5 66.5 214.333 67.8333 217 69.5C219.667 71.1667 221.833 73.1667 223.5 75.5C225.167 77.8333 226.5 82.3333 227.5 89C228.5 95.6667 228.833 100.667 228.5 104C228.167 107.333 227.333 109.167 226 109.5C224.667 109.833 221.167 109.5 215.5 108.5C209.833 107.5 204.667 105.5 200 102.5C195.333 99.5 193.167 96.5 193.5 93.5C193.833 90.5 195.333 89 198 89C200.667 89 202.167 88.3333 202.5 87C202.833 85.6667 202.333 84.5 201 83.5C199.667 82.5 198.833 81.3333 198.5 80C198.167 78.6667 196.333 78 193 78C189.667 78 187.833 77.1667 187.5 75.5C187.167 73.8333 183 73.3333 175 74C167 74.6667 161.167 76.8333 157.5 80.5C155.667 82.3333 153.833 84.1667 152 86C152.5 86.1667 153 86.3333 153.5 86.5C154 86.6667 154.5 86.8333 155 87C154.667 87.5 154.333 88 154 88.5C153.333 89.5 153.333 90.5 154 91.5C154.667 92.5 156.833 92.8333 160.5 92.5C164.167 92.1667 167.833 93.3333 171.5 96C175.167 98.6667 179.667 100.333 185 101C190.333 101.667 193.833 103 195.5 105C197.167 107 200 109.167 204 111.5C208 113.833 213 115 219 115C225 115 228.333 116.667 229 120C229.667 123.333 230.833 126.5 232.5 129.5C234.167 132.5 238.5 136 245.5 140C252.5 144 257.833 148.667 261.5 154C265.167 159.333 267 166.167 267 174.5C267 182.833 266.167 188.667 264.5 192C262.833 195.333 258.333 200.667 251 208C243.667 215.333 239 221.833 237 227.5C235 233.167 233.667 238.833 233 244.5C232.667 247.333 232.333 250.167 232 253C230 252.167 228 251.333 226 250.5C224 249.667 222 248.833 220 248C220.333 247.833 220.667 247.667 221 247.5C221.667 247.167 222 238.5 222 221.5C222 204.5 224.5 195.5 229.5 194.5C234.5 193.5 239.833 191.833 245.5 189.5C251.167 187.167 255.833 184.667 259.5 182C263.167 179.333 265 177.333 265 176C265 174.667 264.5 173.833 263.5 173.5C262.5 173.167 262.167 172.333 262.5 171C262.667 170.333 262.833 169.667 263 169C262.333 169 261.667 169 261 169C259.667 169 258.667 170 258 172C257.333 174 256.667 175 256 175C255.667 175 255.333 175 255 175C255.167 174.167 255.333 173.333 255.5 172.5C255.667 171.667 255.833 170.833 256 170C255.5 170 255 170 254.5 170C253.5 170 252.833 171 252.5 173C252.167 175 251.5 176 250.5 176C250 176 249.5 176 249 176C249.167 175.333 249.333 174.667 249.5 174C249.667 173.333 249.833 172.667 250 172C249.333 172 248.667 172 248 172C246.667 172 245.833 172.833 245.5 174.5C245.167 176.167 244.5 177.167 243.5 177.5C242.5 177.833 239.5 178 234.5 178C229.5 178 226 177 224 175C222 173 220.167 169.5 218.5 164.5C216.833 159.5 217.667 156.333 221 155C224.333 153.667 227.167 152 229.5 150C231.833 148 233 146.5 233 145.5C233 145 233 144.5 233 144C232.333 144.167 231.667 144.333 231 144.5C230.333 144.667 229.667 144.833 229 145C229.167 144.333 229.333 143.667 229.5 143C229.667 142.333 229.833 141.667 230 141C229.667 141 229.333 141 229 141C228.333 141 227.667 142 227 144C226.667 145 226.333 146 226 147C225.667 146.333 225.333 145.667 225 145C224.667 144.333 224.333 143.667 224 143C223.667 143.833 223.333 144.667 223 145.5C222.667 146.333 222.333 147.167 222 148C221.5 147.5 221 147 220.5 146.5C220 146 219.5 145.5 219 145C218.833 145.833 218.667 146.667 218.5 147.5C218.167 149.167 216.167 150.333 212.5 151C208.833 151.667 206.167 151.833 204.5 151.5C202.833 151.167 201.167 149.833 199.5 147.5C197.833 145.167 197.167 141.667 197.5 137C197.667 134.667 197.833 132.333 198 130C197.167 130.333 196.333 130.667 195.5 131C194.667 131.333 193.833 131.667 193 132C193.167 131.5 193.333 131 193.5 130.5C193.667 130 193.833 129.5 194 129C193.5 129 193 129 192.5 129C192 129 191.5 129 191 129C191 130 191 131 191 132C191 133 191 134 191 135C182.833 135 174.667 135 166.5 135C158.333 135 150.167 135 142 135C142 134 142 133 142 132C142 130 141.333 128.833 140 128.5C138.667 128.167 137.333 128.5 136 129.5C134.667 130.5 134.5 133 135.5 137C136.5 141 136 144.5 134 147.5C132 150.5 128.833 151.833 124.5 151.5C120.167 151.167 117.5 150.667 116.5 150C115.5 149.333 114.833 148.167 114.5 146.5C114.167 144.833 113.667 144 113 144C112.667 144 112.333 144 112 144C112.167 144.667 112.333 145.333 112.5 146C112.667 146.667 112.833 147.333 113 148C112.667 148 112.333 148 112 148C111.333 148 110.833 147.167 110.5 145.5C110.167 143.833 109.667 142.833 109 142.5C108.667 142.333 108.333 142.167 108 142C107.833 142.667 107.667 143.333 107.5 144C107.333 144.667 107.167 145.333 107 146C106.667 145 106.333 144 106 143C105.667 142 105.333 141 105 140C104.667 140.167 104.333 140.333 104 140.5C103.333 140.833 103.167 141.5 103.5 142.5C103.667 143 103.833 143.5 104 144C103.333 144 102.667 144 102 144C101.333 144 100.667 144 100 144C100.667 145 101.333 146 102 147C103.333 149 106.167 151.167 110.5 153.5C114.833 155.833 116 159.667 114 165C112 170.333 110 174 108 176C106 178 103.167 179 99.5 179C97.6667 179 95.8333 179 94 179C94 178.167 94 177.333 94 176.5C94 175.667 94 174.833 94 174C93.3333 174 92.6667 174 92 174C91.3333 174 90.6667 174 90 174C90.1667 174.667 90.3333 175.333 90.5 176C90.8333 177.333 90.6667 178.167 90 178.5C89.3333 178.833 88.6667 178.833 88 178.5C87.3333 178.167 87 177 87 175C87 174 87 173 87 172C86.3333 172 85.6667 172 85 172C84.3333 172 83.6667 172 83 172C83.1667 172.833 83.3333 173.667 83.5 174.5C83.6667 175.333 83.8333 176.167 84 177C83.5 177 83 177 82.5 177C81.5 177 80.6667 175.833 80 173.5C79.6667 172.333 79.3333 171.167 79 170C78.5 170.167 78 170.333 77.5 170.5C76.5 170.833 76.1667 171.667 76.5 173C76.6667 173.667 76.8333 174.333 77 175C76 175.167 75 175.333 74 175.5C72 175.833 71 176.5 71 177.5C71 178.5 71.8333 179.833 73.5 181.5C75.1667 183.167 77.8333 185 81.5 187C85.1667 189 89.6667 190.833 95 192.5C100.333 194.167 105 195.167 109 195.5C113 195.833 115 204.333 115 221C115 237.667 112.5 247.167 107.5 249.5C102.5 251.833 95.8333 257 87.5 265C79.1667 273 71.6667 279.167 65 283.5C58.3333 287.833 48.8333 293.167 36.5 299.5C24.1667 305.833 15.3333 309.167 10 309.5C7.33333 309.667 4.66667 309.833 2 310C252 310 502 310 752 310C1002 310 1252 310 1502 310C1491 309.833 1480 309.667 1469 309.5C1447 309.167 1432.83 307.167 1426.5 303.5C1420.17 299.833 1412.83 296.667 1404.5 294C1396.17 291.333 1391.5 285.167 1390.5 275.5C1389.5 265.833 1389 255.667 1389 245C1389 239.667 1389 234.333 1389 229C1390.5 229 1392 229 1393.5 229C1395 229 1396.5 229 1398 229C1398 228.5 1398 228 1398 227.5C1398 227 1398 226.5 1398 226C1396.5 226 1395 226 1393.5 226C1392 226 1390.5 226 1389 226C1389 224.5 1389 223 1389 221.5C1389 218.5 1389.17 216.5 1389.5 215.5C1389.83 214.5 1392.17 214 1396.5 214C1400.83 214 1403.17 213.167 1403.5 211.5C1403.83 209.833 1404.67 208.333 1406 207C1407.33 205.667 1408 204 1408 202C1408 201 1408 200 1408 199C1400.33 200.167 1392.67 201.333 1385 202.5C1369.67 204.833 1357.17 205.667 1347.5 205C1337.83 204.333 1329 203.167 1321 201.5C1317 200.667 1313 199.833 1309 199C1309.17 200 1309.33 201 1309.5 202C1309.83 204 1311 205.833 1313 207.5C1315 209.167 1316.17 210.667 1316.5 212C1316.83 213.333 1319 214 1323 214C1325 214 1327 214 1329 214C1329 216 1329 218 1329 220C1329 222 1329 224 1329 226C1327.83 226 1326.67 226 1325.5 226C1324.33 226 1323.17 226 1322 226C1322 226.5 1322 227 1322 227.5C1322 228 1322 228.5 1322 229C1323.17 229 1324.33 229 1325.5 229C1327.83 229 1329.17 229.833 1329.5 231.5C1329.83 233.167 1329.33 244.167 1328 264.5C1326.67 284.833 1317 296.333 1299 299C1290 300.333 1281 301.667 1272 303C1272 300 1272 297 1272 294C1272 288 1271.17 281.833 1269.5 275.5C1267.83 269.167 1265.83 264 1263.5 260C1261.17 256 1257.33 251.833 1252 247.5C1246.67 243.167 1242.83 238.833 1240.5 234.5C1238.17 230.167 1236.83 225 1236.5 219C1236.17 213 1236.5 208.333 1237.5 205C1238.5 201.667 1240.83 197.833 1244.5 193.5C1248.17 189.167 1253.17 185.333 1259.5 182C1265.83 178.667 1270 175.333 1272 172C1274 168.667 1275.33 165.333 1276 162C1276.67 158.667 1279.5 157.167 1284.5 157.5C1289.5 157.833 1293.33 157.5 1296 156.5C1298.67 155.5 1302.17 153.167 1306.5 149.5C1310.83 145.833 1316 143.5 1322 142.5C1328 141.5 1332.5 139.833 1335.5 137.5C1338.5 135.167 1341.83 134.167 1345.5 134.5C1349.17 134.833 1351.33 134.667 1352 134C1352.33 133.667 1352.67 133.333 1353 133C1352.67 132.667 1352.33 132.333 1352 132C1351.33 131.333 1351.33 130.167 1352 128.5C1352.33 127.667 1352.67 126.833 1353 126C1352.33 125.833 1351.67 125.667 1351 125.5C1350.33 125.333 1349.67 125.167 1349 125C1349.17 124.667 1349.33 124.333 1349.5 124C1349.83 123.333 1349 122.167 1347 120.5C1345 118.833 1339.67 117.5 1331 116.5C1326.67 116 1322.33 115.5 1318 115C1318 115.833 1318 116.667 1318 117.5C1318 118.333 1318 119.167 1318 120C1316.17 120 1314.33 120 1312.5 120C1308.83 120 1306.83 120.667 1306.5 122C1306.17 123.333 1305.33 124.5 1304 125.5C1302.67 126.5 1302.17 127.667 1302.5 129C1302.83 130.333 1304.33 131.167 1307 131.5C1309.67 131.833 1311.33 133.167 1312 135.5C1312.67 137.833 1312.5 139.5 1311.5 140.5C1310.5 141.5 1307.67 143.333 1303 146C1298.33 148.667 1293.33 150.333 1288 151C1282.67 151.667 1279.5 151.833 1278.5 151.5C1277.5 151.167 1276.83 149.5 1276.5 146.5C1276.17 143.5 1276 140.167 1276 136.5C1276 132.833 1276.5 129.333 1277.5 126C1278.5 122.667 1281.17 119 1285.5 115C1289.83 111 1297 108.333 1307 107C1317 105.667 1323.83 103.667 1327.5 101C1331.17 98.3333 1335.5 96.3333 1340.5 95C1345.5 93.6667 1349.33 91.6667 1352 89C1354.67 86.3333 1359.83 85.5 1367.5 86.5C1371.33 87 1375.17 87.5 1379 88C1378.67 87.3333 1378.33 86.6667 1378 86C1377.67 85.3333 1377.33 84.6667 1377 84C1377.5 84 1378 84 1378.5 84C1379 84 1379.5 84 1380 84C1379.67 83 1379.33 82 1379 81C1378.33 79 1378.5 77.6667 1379.5 77C1380.5 76.3333 1381 75.5 1381 74.5C1381 73.5 1379.83 72.8333 1377.5 72.5C1376.33 72.3333 1375.17 72.1667 1374 72C1374.17 71.5 1374.33 71 1374.5 70.5C1374.83 69.5 1379 69.5 1387 70.5C1395 71.5 1399.17 71.1667 1399.5 69.5C1399.83 67.8333 1399 65.8333 1397 63.5C1395 61.1667 1393.17 59.6667 1391.5 59C1389.83 58.3333 1386.83 58 1382.5 58C1378.17 58 1375.83 58.5 1375.5 59.5C1375.17 60.5 1373.83 61 1371.5 61C1369.17 61 1367.83 61.5 1367.5 62.5C1367.33 63 1367.17 63.5 1367 64C1365.67 63.3333 1364.33 62.6667 1363 62C1360.33 60.6667 1356 60 1350 60C1347 60 1344 60 1341 60C1341 59.1667 1341 58.3333 1341 57.5C1341 56.6667 1341 55.8333 1341 55C1340.17 55 1339.33 55 1338.5 55C1337.67 55 1336.83 55 1336 55C1336 54.5 1336 54 1336 53.5C1336 52.5 1333.67 50.6667 1329 48C1324.33 45.3333 1317 44.1667 1307 44.5C1302 44.6667 1297 44.8333 1292 45C1292.17 45.5 1292.33 46 1292.5 46.5C1292.67 47 1292.83 47.5 1293 48C1292.5 48 1292 48 1291.5 48C1291 48 1290.5 48 1290 48C1290.33 48.5 1290.67 49 1291 49.5C1291.33 50 1291.67 50.5 1292 51C1290.17 51.1667 1288.33 51.3333 1286.5 51.5C1282.83 51.8333 1280 52.6667 1278 54C1276 55.3333 1275.17 56.5 1275.5 57.5C1275.83 58.5 1275.17 59.8333 1273.5 61.5C1271.83 63.1667 1271.33 64.8333 1272 66.5C1272.67 68.1667 1277.33 68.5 1286 67.5C1294.67 66.5 1303 66.1667 1311 66.5C1315 66.6667 1319 66.8333 1323 67C1321 67.3333 1319 67.6667 1317 68C1313 68.6667 1310.5 69.5 1309.5 70.5C1309 71 1308.5 71.5 1308 72C1308.33 72.3333 1308.67 72.6667 1309 73C1309.33 73.3333 1309.67 73.6667 1310 74C1309 75 1308 76 1307 77C1305 79 1304 80.6667 1304 82C1304 83.3333 1304.33 84.3333 1305 85C1305.67 85.6667 1308 86 1312 86C1316 86 1319.17 88 1321.5 92C1322.67 94 1323.83 96 1325 98C1323.83 98.5 1322.67 99 1321.5 99.5C1319.17 100.5 1313.33 101.667 1304 103C1294.67 104.333 1288.33 105.833 1285 107.5C1281.67 109.167 1278.33 112.333 1275 117C1271.67 121.667 1269.83 127.333 1269.5 134C1269.33 137.333 1269.17 140.667 1269 144C1266.17 143.833 1263.33 143.667 1260.5 143.5C1254.83 143.167 1250 142.167 1246 140.5C1242 138.833 1239.17 137.167 1237.5 135.5C1235.83 133.833 1235.67 131.833 1237 129.5C1238.33 127.167 1239.33 123.667 1240 119C1240.67 114.333 1242.83 112.167 1246.5 112.5C1248.33 112.667 1250.17 112.833 1252 113C1251.83 112.5 1251.67 112 1251.5 111.5C1251.33 111 1251.17 110.5 1251 110C1251.5 109.833 1252 109.667 1252.5 109.5C1253 109.333 1253.5 109.167 1254 109C1253.5 108.5 1253 108 1252.5 107.5C1252 107 1251.5 106.5 1251 106C1251.5 105.667 1252 105.333 1252.5 105C1253.5 104.333 1254 103.333 1254 102C1254 100.667 1253.17 99.8333 1251.5 99.5C1249.83 99.1667 1249 98.5 1249 97.5C1249 96.5 1248.17 95.6667 1246.5 95C1245.67 94.6667 1244.83 94.3333 1244 94C1249 94.8333 1254 95.6667 1259 96.5C1264 97.3333 1269 98.1667 1274 99C1273.83 98.5 1273.67 98 1273.5 97.5C1273.33 97 1273.17 96.5 1273 96C1273.33 96 1273.67 96 1274 96C1274.33 96 1274.67 96 1275 96C1274.83 95.3333 1274.67 94.6667 1274.5 94C1274.17 92.6667 1274.33 91.5 1275 90.5C1275.33 90 1275.67 89.5 1276 89C1275.33 88.8333 1274.67 88.6667 1274 88.5C1272.67 88.1667 1270.67 86.6667 1268 84C1265.33 81.3333 1260.5 79.5 1253.5 78.5C1246.5 77.5 1243 76.5 1243 75.5C1243 74.5 1240.67 72.5 1236 69.5C1231.33 66.5 1225.17 65 1217.5 65C1209.83 65 1205 64.6667 1203 64C1202 63.6667 1201 63.3333 1200 63C1200.17 63.5 1200.33 64 1200.5 64.5C1200.67 65 1200.83 65.5 1201 66C1200.5 66 1200 66 1199.5 66C1199 66 1198.5 66 1198 66C1198.17 66.6667 1198.33 67.3333 1198.5 68C1198.67 68.6667 1198.83 69.3333 1199 70C1196.5 70.1667 1194 70.3333 1191.5 70.5C1186.5 70.8333 1183 72.8333 1181 76.5C1179 80.1667 1177.5 82 1176.5 82C1175.5 82 1174.83 82.8333 1174.5 84.5C1174.17 86.1667 1172.33 87 1169 87C1165.67 87 1163.83 87.6667 1163.5 89C1163.17 90.3333 1162.5 91.1667 1161.5 91.5C1160.5 91.8333 1159.83 92.8333 1159.5 94.5C1159.17 96.1667 1159.67 97.3333 1161 98C1162.33 98.6667 1167.67 99 1177 99C1186.33 99 1191.17 99.5 1191.5 100.5C1191.83 101.5 1191.17 102.667 1189.5 104C1187.83 105.333 1187.17 106.833 1187.5 108.5C1187.83 110.167 1190.33 111 1195 111C1199.67 111 1204.17 113.167 1208.5 117.5C1212.83 121.833 1216.83 124.333 1220.5 125C1224.17 125.667 1226.67 127.833 1228 131.5C1229.33 135.167 1231.5 138.333 1234.5 141C1237.5 143.667 1241.17 145.667 1245.5 147C1249.83 148.333 1254.83 149.167 1260.5 149.5C1263.33 149.667 1266.17 149.833 1269 150C1268.67 151.5 1268.33 153 1268 154.5C1267.33 157.5 1265.83 160.833 1263.5 164.5C1261.17 168.167 1255.17 172.5 1245.5 177.5C1235.83 182.5 1229.83 186.5 1227.5 189.5C1225.17 192.5 1223.5 195.833 1222.5 199.5C1222 201.333 1221.5 203.167 1221 205C1217.33 203 1213.67 201 1210 199C1202.67 195 1198.67 190 1198 184C1197.67 181 1197.33 178 1197 175C1201.17 176 1205.33 177 1209.5 178C1213.67 179 1217.83 180 1222 181C1221.83 180.333 1221.67 179.667 1221.5 179C1221.33 178.333 1221.17 177.667 1221 177C1221.5 177 1222 177 1222.5 177C1223 177 1223.5 177 1224 177C1223.67 176.167 1223.33 175.333 1223 174.5C1222.33 172.833 1222.67 171.667 1224 171C1225.33 170.333 1226 169.5 1226 168.5C1226 167.5 1225 166.667 1223 166C1222 165.667 1221 165.333 1220 165C1220.17 164.5 1220.33 164 1220.5 163.5C1220.67 163 1220.83 162.5 1221 162C1220.33 161.833 1219.67 161.667 1219 161.5C1217.67 161.167 1215.83 159.667 1213.5 157C1211.17 154.333 1207.5 152.333 1202.5 151C1197.5 149.667 1192.83 149.167 1188.5 149.5C1184.17 149.833 1180.67 149.667 1178 149C1176.67 148.667 1175.33 148.333 1174 148C1173.83 149 1173.67 150 1173.5 151C1173.17 153 1170.17 154.167 1164.5 154.5C1158.83 154.833 1155.67 155.333 1155 156C1154.67 156.333 1154.33 156.667 1154 157C1154.33 157.333 1154.67 157.667 1155 158C1155.33 158.333 1155.67 158.667 1156 159C1154.83 160.167 1153.67 161.333 1152.5 162.5C1150.17 164.833 1147.5 166 1144.5 166C1141.5 166 1139.33 166.5 1138 167.5C1136.67 168.5 1134.17 168.5 1130.5 167.5C1128.67 167 1126.83 166.5 1125 166C1125.17 166.667 1125.33 167.333 1125.5 168C1125.67 168.667 1125.83 169.333 1126 170C1125.33 170 1124.67 170 1124 170C1123.33 170 1122.67 170 1122 170C1122.5 170.667 1123 171.333 1123.5 172C1124 172.667 1124.5 173.333 1125 174C1121.67 174.5 1118.33 175 1115 175.5C1108.33 176.5 1104.67 177.333 1104 178C1103.33 178.667 1103.33 179.5 1104 180.5C1104.67 181.5 1103.83 183.167 1101.5 185.5C1099.17 187.833 1098 189.667 1098 191C1098 192.333 1098.67 193.5 1100 194.5C1101.33 195.5 1105.33 195.667 1112 195C1118.67 194.333 1123.67 196 1127 200C1130.33 204 1133.83 206.167 1137.5 206.5C1141.17 206.833 1144 207.5 1146 208.5C1148 209.5 1149.83 211 1151.5 213C1153.17 215 1157.17 218 1163.5 222C1169.83 226 1176.33 229 1183 231C1189.67 233 1195.67 234.167 1201 234.5C1206.33 234.833 1212.17 236.167 1218.5 238.5C1224.83 240.833 1230.83 245.5 1236.5 252.5C1242.17 259.5 1244.83 263.5 1244.5 264.5C1244.17 265.5 1241.5 267.5 1236.5 270.5C1231.5 273.5 1227.33 275.833 1224 277.5C1220.67 279.167 1217.67 280.167 1215 280.5C1212.33 280.833 1209.17 279.833 1205.5 277.5C1203.67 276.333 1201.83 275.167 1200 274C1204 274.167 1208 274.333 1212 274.5C1216 274.667 1220 274.833 1224 275C1223.83 274.5 1223.67 274 1223.5 273.5C1223.17 272.5 1223.33 271.833 1224 271.5C1224.33 271.333 1224.67 271.167 1225 271C1224.67 270.667 1224.33 270.333 1224 270C1223.33 269.333 1223.33 268.333 1224 267C1224.33 266.333 1224.67 265.667 1225 265C1224.33 265 1223.67 265 1223 265C1222.33 265 1221.67 265 1221 265C1221 264.5 1221 264 1221 263.5C1221 262.5 1219.5 261.167 1216.5 259.5C1213.5 257.833 1208.17 257.167 1200.5 257.5C1192.83 257.833 1188.83 258.833 1188.5 260.5C1188.17 262.167 1186.17 263.333 1182.5 264C1180.67 264.333 1178.83 264.667 1177 265C1177.17 265.5 1177.33 266 1177.5 266.5C1177.83 267.5 1177.33 269 1176 271C1175.33 272 1174.67 273 1174 274C1175.83 274.167 1177.67 274.333 1179.5 274.5C1183.17 274.833 1186.17 276.333 1188.5 279C1190.83 281.667 1194 283 1198 283C1202 283 1205.5 283.5 1208.5 284.5C1211.5 285.5 1219 283.333 1231 278C1237 275.333 1243 272.667 1249 270C1250 273 1251 276 1252 279C1254 285 1254.83 290.667 1254.5 296C1254.33 298.667 1254.17 301.333 1254 304C1249.33 303.667 1244.67 303.333 1240 303C1230.67 302.333 1218.83 300 1204.5 296C1190.17 292 1166.33 282.333 1133 267C1099.67 251.667 1077.33 242.167 1066 238.5C1054.67 234.833 1047.67 223.167 1045 203.5C1042.33 183.833 1040.83 173.667 1040.5 173C1040.17 172.333 1039.17 172 1037.5 172C1036.67 172 1035.83 172 1035 172C1035 170 1035 168 1035 166C1035 164 1035 162 1035 160C1036 160 1037 160 1038 160C1040 160 1041.17 158.833 1041.5 156.5C1041.83 154.167 1040.83 152.667 1038.5 152C1036.17 151.333 1033.5 149.833 1030.5 147.5C1027.5 145.167 1025.17 141.833 1023.5 137.5C1021.83 133.167 1019.67 131 1017 131C1015.67 131 1014.33 131 1013 131C1013 128.5 1013 126 1013 123.5C1013 121 1013 118.5 1013 116C1014 116 1015 116 1016 116C1017 116 1018 116 1019 116C1019 115.167 1019 114.333 1019 113.5C1019 111.833 1016.83 110.333 1012.5 109C1008.17 107.667 1004.83 105.667 1002.5 103C1000.17 100.333 998.833 97.8333 998.5 95.5C998.167 93.1667 988.167 92 968.5 92C948.833 92 938 94.1667 936 98.5C934 102.833 931.667 105.833 929 107.5C926.333 109.167 923.833 110.167 921.5 110.5C919.167 110.833 918 111.833 918 113.5C918 114.333 918 115.167 918 116C919.167 116 920.333 116 921.5 116C922.667 116 923.833 116 925 116C924.667 118.5 924.333 121 924 123.5C923.333 128.5 921.333 131 918 131C914.667 131 912.5 132.833 911.5 136.5C910.5 140.167 908.833 143.167 906.5 145.5C904.167 147.833 901.333 149.667 898 151C894.667 152.333 893.167 154.167 893.5 156.5C893.833 158.833 895.333 160 898 160C899.333 160 900.667 160 902 160C902 160.833 902 161.667 902 162.5C902 164.167 901.833 166 901.5 168C901.167 170 899.833 171.167 897.5 171.5C895.167 171.833 893.833 172.5 893.5 173.5C893.167 174.5 891.5 185.333 888.5 206C885.5 226.667 877.5 239 864.5 243C858 245 851.5 247 845 249C845 244.333 845 239.667 845 235C845 225.667 846.167 220.833 848.5 220.5C849.667 220.333 850.833 220.167 852 220C851.833 218.833 851.667 217.667 851.5 216.5C851.167 214.167 852.5 212.5 855.5 211.5C858.5 210.5 860.667 209.333 862 208C863.333 206.667 864.333 204.667 865 202C865.333 200.667 865.667 199.333 866 198C865.5 198 865 198 864.5 198C863.5 198 862.333 199.167 861 201.5C859.667 203.833 857.167 205.333 853.5 206C851.667 206.333 849.833 206.667 848 207C848.667 205 849.333 203 850 201C850.667 199 851.333 197 852 195C850.167 196.5 848.333 198 846.5 199.5C842.833 202.5 839.167 202.833 835.5 200.5C831.833 198.167 830 194 830 188C830 182 830.667 178.833 832 178.5C833.333 178.167 834 177.167 834 175.5C834 173.833 835.167 172.5 837.5 171.5C839.833 170.5 841.167 169.167 841.5 167.5C841.667 166.667 841.833 165.833 842 165C841.167 165.833 840.333 166.667 839.5 167.5C837.833 169.167 836.167 170 834.5 170C833.667 170 832.833 170 832 170C832.333 168.833 832.667 167.667 833 166.5C833.333 165.333 833.667 164.167 834 163C833.333 163.833 832.667 164.667 832 165.5C830.667 167.167 829.167 167.833 827.5 167.5C825.833 167.167 823.167 165.5 819.5 162.5C815.833 159.5 813.833 156.333 813.5 153C813.333 151.333 813.167 149.667 813 148C812.333 148.333 811.667 148.667 811 149C809.667 149.667 809.167 151 809.5 153C809.833 155 808 157.833 804 161.5C800 165.167 797.167 167.167 795.5 167.5C793.833 167.833 792.333 167.333 791 166C790.333 165.333 789.667 164.667 789 164C789.333 165 789.667 166 790 167C790.333 168 790.667 169 791 170C790.333 170 789.667 170 789 170C787.667 170 786 169.167 784 167.5C783 166.667 782 165.833 781 165C781.833 166.333 782.667 167.667 783.5 169C785.167 171.667 786.833 173.167 788.5 173.5C789.333 173.667 790.167 173.833 791 174C790.833 174.667 790.667 175.333 790.5 176C790.333 176.667 790.167 177.333 790 178C790.667 178 791.333 178 792 178C792.667 178 793.333 178 794 178C794 180.833 794 183.667 794 186.5C794 192.167 792.167 196.5 788.5 199.5C784.833 202.5 782 203.667 780 203C778 202.333 776.5 200.833 775.5 198.5C774.5 196.167 773.667 195 773 195C772.667 195 772.333 195 772 195C772 196.167 772 197.333 772 198.5C772 200.833 772.5 202.833 773.5 204.5C774 205.333 774.5 206.167 775 207C773.833 207 772.667 207 771.5 207C769.167 207 766.667 205.5 764 202.5C761.333 199.5 759.5 198.167 758.5 198.5C758 198.667 757.5 198.833 757 199C757.333 200 757.667 201 758 202C758.667 204 760 206 762 208C764 210 766.5 211.5 769.5 212.5C772.5 213.5 773.833 215 773.5 217C773.333 218 773.167 219 773 220C774 220.167 775 220.333 776 220.5C778 220.833 779 229 779 245C779 261 778.667 269.667 778 271C777.333 272.333 775.833 273.667 773.5 275C771.167 276.333 769.667 277.833 769 279.5C768.333 281.167 760.833 284.167 746.5 288.5C732.167 292.833 722 295.5 716 296.5C710 297.5 704.5 297.167 699.5 295.5C694.5 293.833 692 290.333 692 285C692 282.333 692 279.667 692 277C699.167 278.833 706.333 280.667 713.5 282.5C727.833 286.167 736.333 288 739 288C740.333 288 741.667 288 743 288C742.833 287.5 742.667 287 742.5 286.5C742.167 285.5 737.167 284.167 727.5 282.5C717.833 280.833 707.333 278.167 696 274.5C684.667 270.833 678.333 268.167 677 266.5C675.667 264.833 673.833 264.167 671.5 264.5C669.167 264.833 667.167 264.667 665.5 264C663.833 263.333 656.333 260 643 254C629.667 248 622.667 244.167 622 242.5C621.333 240.833 620 240.167 618 240.5C616 240.833 610.333 238.333 601 233C591.667 227.667 583.833 223.667 577.5 221C571.167 218.333 567.667 216.333 567 215C566.333 213.667 564.833 213.167 562.5 213.5C560.167 213.833 555 212.667 547 210C539 207.333 528.667 205.167 516 203.5C503.333 201.833 492.333 201.167 483 201.5C473.667 201.833 465.667 202.5 459 203.5C452.333 204.5 445.833 206 439.5 208C433.167 210 428.667 210.833 426 210.5C423.333 210.167 421.667 210.667 421 212C420.333 213.333 415 216.167 405 220.5C395 224.833 387.167 228.833 381.5 232.5C375.833 236.167 372 237.833 370 237.5C368 237.167 366.667 237.833 366 239.5C365.333 241.167 360.167 244.333 350.5 249C340.833 253.667 332.833 257.333 326.5 260C320.167 262.667 316 263.833 314 263.5C312 263.167 310.333 263.833 309 265.5C307.667 267.167 305.667 268.5 303 269.5C300.333 270.5 294.333 272.333 285 275C275.667 277.667 267.667 276.833 261 272.5C254.333 268.167 250.833 262.167 250.5 254.5C250.167 246.833 251 240.5 253 235.5C254 233 255 230.5 256 228C262 230.667 268 233.333 274 236C286 241.333 293.167 243.5 295.5 242.5C297.833 241.5 301.167 241 305.5 241C309.833 241 313.167 239.667 315.5 237C317.833 234.333 320.667 232.833 324 232.5C325.667 232.333 327.333 232.167 329 232C328.333 230.333 327.667 228.667 327 227C325.667 223.667 323.667 221.833 321 221.5C318.333 221.167 316.5 220.167 315.5 218.5C314.5 216.833 312.833 215.833 310.5 215.5C308.167 215.167 304.5 215 299.5 215C294.5 215 290.5 215.833 287.5 217.5C284.5 219.167 283 220.5 283 221.5C283 222 283 222.5 283 223C282.333 223 281.667 223 281 223C280.333 223 279.667 223 279 223C279 223.5 279 224 279 224.5C279 225 279 225.5 279 226C279.333 226 279.667 226 280 226C280.333 226 280.667 226 281 226C280.667 226.5 280.333 227 280 227.5C279.667 228 279.333 228.5 279 229C279.333 229.167 279.667 229.333 280 229.5C280.667 229.833 280.833 230.5 280.5 231.5C280.333 232 280.167 232.5 280 233C284 232.667 288 232.333 292 232C296 231.667 300 231.333 304 231C302.667 232.167 301.333 233.333 300 234.5C297.333 236.833 294.667 238.167 292 238.5C289.333 238.833 285.333 237.667 280 235C274.667 232.333 269.833 229.5 265.5 226.5C263.333 225 261.167 223.5 259 222C261.833 218.333 264.667 214.667 267.5 211C273.167 203.667 278.5 199 283.5 197C288.5 195 294.167 193.667 300.5 193C306.833 192.333 313 191.167 319 189.5C325 187.833 330.667 185.5 336 182.5C341.333 179.5 346 176.167 350 172.5C354 168.833 358.5 166.5 363.5 165.5C368.5 164.5 372.667 162 376 158C379.333 154 384.167 152.333 390.5 153C396.833 153.667 400.833 153.5 402.5 152.5C404.167 151.5 405 150.5 405 149.5C405 148.5 403.833 146.667 401.5 144C399.167 141.333 398.167 139.333 398.5 138C398.833 136.667 398.5 135.667 397.5 135C396.5 134.333 393 133.667 387 133C384 132.667 381 132.333 378 132C378.5 131.5 379 131 379.5 130.5C380 130 380.5 129.5 381 129C380.333 128.833 379.667 128.667 379 128.5C378.333 128.333 377.667 128.167 377 128C377.167 127.333 377.333 126.667 377.5 126C377.667 125.333 377.833 124.667 378 124C376.667 124.333 375.333 124.667 374 125C371.333 125.667 367.333 125.667 362 125C356.667 124.333 353 122.833 351 120.5C349 118.167 348 116.333 348 115C348 113.667 345 112.833 339 112.5C336 112.333 333 112.167 330 112C330.333 111.333 330.667 110.667 331 110C331.333 109.333 331.667 108.667 332 108C331.5 108 331 108 330.5 108C330 108 329.5 108 329 108C329 107.5 329 107 329 106.5C329 106 329 105.5 329 105C327.833 105.5 326.667 106 325.5 106.5C323.167 107.5 319.833 107.833 315.5 107.5C311.167 107.167 306.5 107.667 301.5 109C296.5 110.333 292.333 112.5 289 115.5C285.667 118.5 284 120.5 284 121.5C284 122.5 283 123.333 281 124C279 124.667 278.167 125.667 278.5 127C278.833 128.333 279.5 129.167 280.5 129.5C281 129.667 281.5 129.833 282 130C281.667 130.5 281.333 131 281 131.5C280.333 132.5 280 133.333 280 134C280 134.333 280 134.667 280 135C280.5 135 281 135 281.5 135C282 135 282.5 135 283 135C282.833 135.667 282.667 136.333 282.5 137C282.333 137.667 282.167 138.333 282 139C286.167 138 290.333 137 294.5 136C298.667 135 302.833 134 307 133C307 135.167 307 137.333 307 139.5C307 143.833 306.5 147 305.5 149C304.5 151 300.5 153.667 293.5 157C290 158.667 286.5 160.333 283 162C282.333 160 281.667 158 281 156C279.667 152 277.667 148.5 275 145.5C272.333 142.5 267.5 139.5 260.5 136.5C253.5 133.5 248.833 131 246.5 129C244.167 127 242 124.167 240 120.5C238 116.833 236.833 113.833 236.5 111.5C236.333 110.333 236.167 109.167 236 108C238.667 107.833 241.333 107.667 244 107.5C249.333 107.167 254.5 106.167 259.5 104.5C264.5 102.833 268 101.167 270 99.5C272 97.8333 274 94.8333 276 90.5C278 86.1667 280.667 83.6667 284 83C287.333 82.3333 291.167 79.8333 295.5 75.5C299.833 71.1667 304.333 69 309 69C313.667 69 316.167 68.3333 316.5 67C316.833 65.6667 316.167 64.1667 314.5 62.5C312.833 60.8333 312.167 59.5 312.5 58.5C312.833 57.5 318.167 56.8333 328.5 56.5C338.833 56.1667 344.167 55.5 344.5 54.5C344.833 53.5 344.333 51.8333 343 49.5C341.667 47.1667 339.167 45.8333 335.5 45.5C331.833 45.1667 329.833 44.1667 329.5 42.5C329.167 40.8333 328.5 40 327.5 40C326.5 40 325.667 39.1667 325 37.5C324.333 35.8333 323.333 34.6667 322 34C320.667 33.3333 320 32.3333 320 31C320 29.6667 317.5 28.8333 312.5 28.5C310 28.3333 307.5 28.1667 305 28C305.167 27.3333 305.333 26.6667 305.5 26C305.667 25.3333 305.833 24.6667 306 24C305.5 24 305 24 304.5 24C304 24 303.5 24 303 24C303.167 23.5 303.333 23 303.5 22.5C303.667 22 303.833 21.5 304 21C303 21.3333 302 21.6667 301 22C299 22.6667 294.167 23 286.5 23C278.833 23 272.667 24.5 268 27.5C263.333 30.5 261.167 32.5 261.5 33.5C261.667 34 261.833 34.5 262 35C258.333 35.5 254.667 36 251 36.5C243.667 37.5 238.833 39.3333 236.5 42C234.167 44.6667 232.333 46.1667 231 46.5C230.333 46.6667 229.667 46.8333 229 47C229.333 47.5 229.667 48 230 48.5C230.667 49.5 230.833 50.6667 230.5 52C230.333 52.6667 230.167 53.3333 230 54C230.333 54 230.667 54 231 54C231.333 54 231.667 54 232 54C231.833 54.5 231.667 55 231.5 55.5C231.333 56 231.167 56.5 231 57C235.833 56.1667 240.667 55.3333 245.5 54.5C250.333 53.6667 255.167 52.8333 260 52C259.333 52.3333 258.667 52.6667 258 53C256.667 53.6667 256 54.5 256 55.5C256 56.5 255 57.3333 253 58C252 58.3333 251 58.6667 250 59C250.5 59.6667 251 60.3333 251.5 61C252.5 62.3333 252.667 63.6667 252 65C251.667 65.6667 251.333 66.3333 251 67C251.333 67.1667 251.667 67.3333 252 67.5C252.667 67.8333 252.833 68.5 252.5 69.5C252.333 70 252.167 70.5 252 71C254 70.8333 256 70.6667 258 70.5C260 70.3333 262 70.1667 264 70C264 71.3333 264 72.6667 264 74C264 76.6667 264.833 80.1667 266.5 84.5C268.167 88.8333 266.833 92.5 262.5 95.5C258.167 98.5 252.5 100.333 245.5 101C242 101.333 238.5 101.667 235 102C235 98.8333 235 95.6667 235 92.5C235 86.1667 234.667 82 234 80C233.333 78 231.667 75.5 229 72.5C226.333 69.5 223.333 67.1667 220 65.5C216.667 63.8333 210.5 62.3333 201.5 61C192.5 59.6667 186.667 58.3333 184 57C182.667 56.3333 181.333 55.6667 180 55C181.333 53.1667 182.667 51.3333 184 49.5C186.667 45.8333 189.833 44 193.5 44C197.167 44 199.333 43.6667 200 43C200.667 42.3333 200.833 41 200.5 39C200.167 37 199.167 35.3333 197.5 34C196.667 33.3333 195.833 32.6667 195 32C195.333 31.8333 195.667 31.6667 196 31.5C196.667 31.1667 196.833 30.5 196.5 29.5C196.167 28.5 194 27.5 190 26.5C188 26 186 25.5 184 25C187.833 24.8333 191.667 24.6667 195.5 24.5C203.167 24.1667 211 24.5 219 25.5C227 26.5 231.5 26.3333 232.5 25C233.5 23.6667 233 21.8333 231 19.5C229 17.1667 228.333 15.6667 229 15C229.333 14.6667 229.667 14.3333 230 14C229 13.3333 228 12.6667 227 12C225 10.6667 222.167 9.83333 218.5 9.5C216.667 9.33333 214.833 9.16667 213 9C213.333 8.66667 213.667 8.33333 214 8C214.333 7.66667 214.667 7.33333 215 7C214.5 6.66667 214 6.33333 213.5 6C212.5 5.33333 212.167 4.66667 212.5 4C212.667 3.66667 212.833 3.33333 213 3C208 2.83333 203 2.66667 198 2.5C188 2.16667 181.5 3.16667 178.5 5.5ZM152 42C153.833 42 155.667 42 157.5 42C161.167 42 163.833 43.5 165.5 46.5C166.333 48 167.167 49.5 168 51C166.5 50.6667 165 50.3333 163.5 50C160.5 49.3333 157.833 47.8333 155.5 45.5C154.333 44.3333 153.167 43.1667 152 42ZM169 42C171 42 173 42 175 42C179 42 181.5 42.3333 182.5 43C183 43.3333 183.5 43.6667 184 44C182.667 45.3333 181.333 46.6667 180 48C178.667 49.3333 177.333 50.6667 176 52C174.833 50.3333 173.667 48.6667 172.5 47C171.333 45.3333 170.167 43.6667 169 42ZM300.5 43C301.333 43 302.167 43 303 43C303 43.3333 303 43.6667 303 44C303 44.6667 302.167 45.8333 300.5 47.5C298.833 49.1667 297.667 50 297 50C296.667 50 296.333 50 296 50C296.167 49.5 296.333 49 296.5 48.5C296.667 48 296.833 47.5 297 47C293.833 47 290.667 47 287.5 47C284.333 47 281.167 47 278 47C278 46.6667 278 46.3333 278 46C278 45.3333 281.333 44.6667 288 44C294.667 43.3333 298.833 43 300.5 43ZM274 68C275.667 68 277.333 68 279 68C277.667 71.3333 276.333 74.6667 275 78C273.667 81.3333 272.333 84.6667 271 88C270.333 87 269.667 86 269 85C267.667 83 267 79.8333 267 75.5C267 71.1667 267.333 68.8333 268 68.5C268.667 68.1667 270.667 68 274 68ZM292 68.5C293.667 68.6667 295.333 68.8333 297 69C295.667 70.3333 294.333 71.6667 293 73C290.333 75.6667 287.667 77.5 285 78.5C283.667 79 282.333 79.5 281 80C282 78 283 76 284 74C286 70 288.667 68.1667 292 68.5ZM1331 84.5C1333 84.6667 1335 84.8333 1337 85C1335.5 86.5 1334 88 1332.5 89.5C1331 91 1329.5 92.5 1328 94C1326.83 92.6667 1325.67 91.3333 1324.5 90C1323.33 88.6667 1322.17 87.3333 1321 86C1321.67 85.6667 1322.33 85.3333 1323 85C1324.33 84.3333 1327 84.1667 1331 84.5ZM1348.5 84.5C1350.33 84.6667 1352.17 84.8333 1354 85C1352.83 86 1351.67 87 1350.5 88C1348.17 90 1345.33 91.3333 1342 92C1340.33 92.3333 1338.67 92.6667 1337 93C1338 91.5 1339 90 1340 88.5C1342 85.5 1344.83 84.1667 1348.5 84.5ZM1201 85C1205.17 85.3333 1209.33 85.6667 1213.5 86C1221.83 86.6667 1226 87.3333 1226 88C1226 88.3333 1226 88.6667 1226 89C1222.83 89 1219.67 89 1216.5 89C1213.33 89 1210.17 89 1207 89C1207.17 89.5 1207.33 90 1207.5 90.5C1207.67 91 1207.83 91.5 1208 92C1207.67 92 1207.33 92 1207 92C1206.33 92 1205.17 90.8333 1203.5 88.5C1202.67 87.3333 1201.83 86.1667 1201 85ZM179 89C181 89 183 90.5 185 93.5C186 95 187 96.5 188 98C185.833 97.6667 183.667 97.3333 181.5 97C177.167 96.3333 173.667 95.3333 171 94C169.667 93.3333 168.333 92.6667 167 92C167.167 91.6667 167.333 91.3333 167.5 91C167.833 90.3333 169.333 89.8333 172 89.5C174.667 89.1667 177 89 179 89ZM185 89C186.333 89 187.667 89 189 89C190.333 89 191.667 89 193 89C193 89.3333 193 89.6667 193 90C193 90.6667 192.333 91.5 191 92.5C189.667 93.5 188.333 93.1667 187 91.5C186.333 90.6667 185.667 89.8333 185 89ZM1207 110C1208.67 110 1210.33 110 1212 110C1215.33 110 1218.17 112 1220.5 116C1221.67 118 1222.83 120 1224 122C1222.5 121.5 1221 121 1219.5 120.5C1216.5 119.5 1213.67 117.5 1211 114.5C1209.67 113 1208.33 111.5 1207 110ZM1225 110C1227.17 110.167 1229.33 110.333 1231.5 110.5C1233.67 110.667 1235.83 110.833 1238 111C1237.5 114.167 1237 117.333 1236.5 120.5C1236 123.667 1235.5 126.833 1235 130C1234.5 129.833 1234 129.667 1233.5 129.5C1232.5 129.167 1230.83 125.833 1228.5 119.5C1227.33 116.333 1226.17 113.167 1225 110ZM928 122C930 122 932 122 934 122C936 122 938 122 940 122C939.833 123.5 939.667 125 939.5 126.5C939.167 129.5 937.167 131 933.5 131C931.667 131 929.833 131 928 131C928 129.5 928 128 928 126.5C928 125 928 123.5 928 122ZM943 122C945.167 122 947.333 122 949.5 122C951.667 122 953.833 122 956 122C955.833 123.5 955.667 125 955.5 126.5C955.167 129.5 953 131 949 131C947 131 945 131 943 131C943 129.5 943 128 943 126.5C943 125 943 123.5 943 122ZM962 122C964.5 122 967 122 969.5 122C972 122 974.5 122 977 122C976.833 123.5 976.667 125 976.5 126.5C976.167 129.5 973.667 131 969 131C966.667 131 964.333 131 962 131C962 129.5 962 128 962 126.5C962 125 962 123.5 962 122ZM981 122C983 122 985 122 987 122C989 122 991 122 993 122C992.833 123.5 992.667 125 992.5 126.5C992.167 129.5 990.167 131 986.5 131C984.667 131 982.833 131 981 131C981 129.5 981 128 981 126.5C981 125 981 123.5 981 122ZM996 122C998.167 122 1000.33 122 1002.5 122C1004.67 122 1006.83 122 1009 122C1008.83 123.5 1008.67 125 1008.5 126.5C1008.17 129.5 1006 131 1002 131C1000 131 998 131 996 131C996 129.5 996 128 996 126.5C996 125 996 123.5 996 122ZM330.5 129.5C331.333 129.667 332.167 129.833 333 130C332.333 130.667 331.667 131.333 331 132C329.667 133.333 328.167 134.167 326.5 134.5C325.667 134.667 324.833 134.833 324 135C324.167 135.667 324.333 136.333 324.5 137C324.667 137.667 324.833 138.333 325 139C323.667 139.333 322.333 139.667 321 140C319.667 140.333 318.333 140.667 317 141C317.167 141.667 317.333 142.333 317.5 143C317.833 144.333 318.5 145.167 319.5 145.5C320 145.667 320.5 145.833 321 146C320.5 146.833 320 147.667 319.5 148.5C319 149.333 318.5 150.167 318 151C318.667 151.167 319.333 151.333 320 151.5C320.667 151.667 321.333 151.833 322 152C321.667 152.833 321.333 153.667 321 154.5C320.667 155.333 320.333 156.167 320 157C322.5 156.667 325 156.333 327.5 156C330 155.667 332.5 155.333 335 155C334.5 157.5 334 160 333.5 162.5C332.5 167.5 331.167 171.5 329.5 174.5C327.833 177.5 325.333 179.5 322 180.5C318.667 181.5 313 181.833 305 181.5C297 181.167 291.5 181.667 288.5 183C287 183.667 285.5 184.333 284 185C284.167 182 284.333 179 284.5 176C284.833 170 288 165.5 294 162.5C300 159.5 303.667 157.333 305 156C306.333 154.667 307.333 152.833 308 150.5C308.667 148.167 310.167 146.333 312.5 145C314.833 143.667 316.667 140.833 318 136.5C319.333 132.167 321.333 129.833 324 129.5C326.667 129.167 328.833 129.167 330.5 129.5ZM314.5 131.5C315.333 131.667 316.167 131.833 317 132C316.167 133.667 315.333 135.333 314.5 137C312.833 140.333 311.667 142 311 142C310.333 142 309.833 140.333 309.5 137C309.167 133.667 309.5 131.833 310.5 131.5C311.5 131.167 312.833 131.167 314.5 131.5ZM1313 131C1314.17 131.167 1315.33 131.333 1316.5 131.5C1317.67 131.667 1318.83 131.833 1320 132C1319 132.667 1318 133.333 1317 134C1316 134.667 1315 135.333 1314 136C1313.83 135.167 1313.67 134.333 1313.5 133.5C1313.33 132.667 1313.17 131.833 1313 131ZM1330.5 131.5C1334.83 131.833 1337.17 132.333 1337.5 133C1337.67 133.333 1337.83 133.667 1338 134C1336.17 134.833 1334.33 135.667 1332.5 136.5C1328.83 138.167 1325.33 139.167 1322 139.5C1320.33 139.667 1318.67 139.833 1317 140C1318.17 138.5 1319.33 137 1320.5 135.5C1322.83 132.5 1326.17 131.167 1330.5 131.5ZM351 152C353.667 152 355.333 153.333 356 156C356.667 158.667 355.167 161.667 351.5 165C347.833 168.333 344 171 340 173C338 174 336 175 334 176C334.5 174.167 335 172.333 335.5 170.5C336.5 166.833 338 164.5 340 163.5C342 162.5 343.667 160.333 345 157C346.333 153.667 348.333 152 351 152ZM356 152C357.333 152.167 358.667 152.333 360 152.5C361.333 152.667 362.667 152.833 364 153C363 153.833 362 154.667 361 155.5C360 156.333 359 157.167 358 158C357.667 157 357.333 156 357 155C356.667 154 356.333 153 356 152ZM373 152C374.667 152 376.333 152 378 152C377.833 152.5 377.667 153 377.5 153.5C377.167 154.5 375.833 156.167 373.5 158.5C371.167 160.833 368.333 162.167 365 162.5C363.333 162.667 361.667 162.833 360 163C361.333 161.167 362.667 159.333 364 157.5C366.667 153.833 369.667 152 373 152ZM342 153C342.667 153 343.333 153 344 153C344 153.5 344 154 344 154.5C344 155.5 343 157 341 159C340 160 339 161 338 162C338 160.667 338 159.333 338 158C338 155.333 338.333 153.833 339 153.5C339.667 153.167 340.667 153 342 153ZM908 162C909.5 162 911 162 912.5 162C914 162 915.5 162 917 162C916.833 163.667 916.667 165.333 916.5 167C916.167 170.333 914.667 172 912 172C910.667 172 909.333 172 908 172C908 170.333 908 168.667 908 167C908 165.333 908 163.667 908 162ZM923 162C924.667 162 926.333 162 928 162C929.667 162 931.333 162 933 162C932.833 163.667 932.667 165.333 932.5 167C932.167 170.333 930.5 172 927.5 172C926 172 924.5 172 923 172C923 170.333 923 168.667 923 167C923 165.333 923 163.667 923 162ZM938 162C939.833 162 941.667 162 943.5 162C945.333 162 947.167 162 949 162C948.833 163.667 948.667 165.333 948.5 167C948.167 170.333 946.333 172 943 172C941.333 172 939.667 172 938 172C938 170.333 938 168.667 938 167C938 165.333 938 163.667 938 162ZM951 162C956.5 162 962 162 967.5 162C973 162 978.5 162 984 162C983.833 163.667 983.667 165.333 983.5 167C983.167 170.333 977.667 172 967 172C961.667 172 956.333 172 951 172C951 170.333 951 168.667 951 167C951 165.333 951 163.667 951 162ZM988 162C989.833 162 991.667 162 993.5 162C995.333 162 997.167 162 999 162C998.833 163.667 998.667 165.333 998.5 167C998.167 170.333 996.333 172 993 172C991.333 172 989.667 172 988 172C988 170.333 988 168.667 988 167C988 165.333 988 163.667 988 162ZM1002 162C1004.17 162 1006.33 162 1008.5 162C1010.67 162 1012.83 162 1015 162C1014.83 163.667 1014.67 165.333 1014.5 167C1014.17 170.333 1012 172 1008 172C1006 172 1004 172 1002 172C1002 170.333 1002 168.667 1002 167C1002 165.333 1002 163.667 1002 162ZM1019 162C1020.83 162 1022.67 162 1024.5 162C1026.33 162 1028.17 162 1030 162C1029.83 163.667 1029.67 165.333 1029.5 167C1029.17 170.333 1027.33 172 1024 172C1022.33 172 1020.67 172 1019 172C1019 170.333 1019 168.667 1019 167C1019 165.333 1019 163.667 1019 162ZM1171 171C1173 171.167 1175 171.333 1177 171.5C1181 171.833 1183.67 174 1185 178C1186.33 182 1188.33 185 1191 187C1193.67 189 1195.17 190.833 1195.5 192.5C1195.83 194.167 1196.83 195.833 1198.5 197.5C1200.17 199.167 1203.17 200.833 1207.5 202.5C1211.83 204.167 1215 205.833 1217 207.5C1219 209.167 1219.83 211.5 1219.5 214.5C1219.17 217.5 1219.33 220.333 1220 223C1220.33 224.333 1220.67 225.667 1221 227C1219.17 226.333 1217.33 225.667 1215.5 225C1211.83 223.667 1206 223.167 1198 223.5C1190 223.833 1184.17 223.167 1180.5 221.5C1176.83 219.833 1174.17 217 1172.5 213C1170.83 209 1169.83 205.333 1169.5 202C1169.33 200.333 1169.17 198.667 1169 197C1171.5 197.333 1174 197.667 1176.5 198C1179 198.333 1181.5 198.667 1184 199C1183.67 198.167 1183.33 197.333 1183 196.5C1182.67 195.667 1182.33 194.833 1182 194C1182.5 194 1183 194 1183.5 194C1184 194 1184.5 194 1185 194C1185 193.667 1185 193.333 1185 193C1185 192.333 1184.5 191.333 1183.5 190C1183 189.333 1182.5 188.667 1182 188C1182.67 187.667 1183.33 187.333 1184 187C1185.33 186.333 1186 185.333 1186 184C1186 182.667 1184.83 181.833 1182.5 181.5C1180.17 181.167 1179 180.333 1179 179C1179 177.667 1178 176.667 1176 176C1174 175.333 1172.67 174.333 1172 173C1171.67 172.333 1171.33 171.667 1171 171ZM1187 173C1188.33 173.167 1189.67 173.333 1191 173.5C1193.67 173.833 1194.83 175.833 1194.5 179.5C1194.33 181.333 1194.17 183.167 1194 185C1193.17 184.167 1192.33 183.333 1191.5 182.5C1189.83 180.833 1188.67 178.833 1188 176.5C1187.67 175.333 1187.33 174.167 1187 173ZM964.5 193.5C967.5 193.833 970 194.667 972 196C974 197.333 976 200 978 204C980 208 981.333 212 982 216C982.333 218 982.667 220 983 222C976.167 222.333 969.333 222.667 962.5 223C955.667 223.333 948.833 223.667 942 224C943 220.5 944 217 945 213.5C947 206.5 949.167 201.667 951.5 199C953.833 196.333 955.833 194.667 957.5 194C959.167 193.333 961.5 193.167 964.5 193.5ZM1125 194C1126.67 194 1128.33 194 1130 194C1133.33 194 1136.33 195.833 1139 199.5C1140.33 201.333 1141.67 203.167 1143 205C1141.33 204.833 1139.67 204.667 1138 204.5C1134.67 204.167 1131.67 202.333 1129 199C1127.67 197.333 1126.33 195.667 1125 194ZM1140 194C1141.17 194 1142.33 194 1143.5 194C1144.67 194 1145.83 194 1147 194C1147 194.667 1147 195.333 1147 196C1147 196.667 1147 197.333 1147 198C1147.33 197.333 1147.67 196.667 1148 196C1148.67 194.667 1150.33 194.167 1153 194.5C1155.67 194.833 1157.5 196.333 1158.5 199C1159.5 201.667 1161 203.667 1163 205C1165 206.333 1166.67 209 1168 213C1168.67 215 1169.33 217 1170 219C1166.83 217 1163.67 215 1160.5 213C1154.17 209 1149.17 204.833 1145.5 200.5C1143.67 198.333 1141.83 196.167 1140 194ZM1159 195C1160 195.167 1161 195.333 1162 195.5C1164 195.833 1165.17 197.5 1165.5 200.5C1165.67 202 1165.83 203.5 1166 205C1165.17 204.333 1164.33 203.667 1163.5 203C1161.83 201.667 1160.67 200 1160 198C1159.67 197 1159.33 196 1159 195ZM124.5 196C126.167 196 127.167 196.833 127.5 198.5C127.667 199.333 127.833 200.167 128 201C126.833 201 125.667 201 124.5 201C123.333 201 122.167 201 121 201C121.167 200.167 121.333 199.333 121.5 198.5C121.833 196.833 122.833 196 124.5 196ZM133 196C144.833 196 156.667 196 168.5 196C180.333 196 192.167 196 204 196C204 196.833 204 197.667 204 198.5C204 199.333 204 200.167 204 201C192.167 201 180.333 201 168.5 201C156.667 201 144.833 201 133 201C133 200.167 133 199.333 133 198.5C133 197.667 133 196.833 133 196ZM487.5 204C488 204 488.5 204 489 204C489 206.833 489 209.667 489 212.5C489 215.333 489 218.167 489 221C485.833 221 482.667 221 479.5 221C476.333 221 473.167 221 470 221C470 218.333 470 215.667 470 213C470 207.667 472.667 204.833 478 204.5C483.333 204.167 486.5 204 487.5 204ZM492 204C492.333 204 492.667 204 493 204C493.333 204 493.667 204 494 204C494 206.833 494 209.667 494 212.5C494 215.333 494 218.167 494 221C493.667 221 493.333 221 493 221C492.667 221 492.333 221 492 221C492 218.167 492 215.333 492 212.5C492 209.667 492 206.833 492 204ZM498 205C501.167 205.167 504.333 205.333 507.5 205.5C513.833 205.833 517 208.833 517 214.5C517 217.333 517 220.167 517 223C513.833 222.667 510.667 222.333 507.5 222C501.167 221.333 498 218.333 498 213C498 210.333 498 207.667 498 205ZM465 206C465.333 206 465.667 206 466 206C466.333 206 466.667 206 467 206C467 208.667 467 211.333 467 214C467 216.667 467 219.333 467 222C466.667 222 466.333 222 466 222C465.667 222 465.333 222 465 222C465 219.333 465 216.667 465 214C465 211.333 465 208.667 465 206ZM459 207C460.333 207 461.667 207 463 207C463 209.5 463 212 463 214.5C463 219.5 459.667 222.667 453 224C449.667 224.667 446.333 225.333 443 226C443 223.333 443 220.667 443 218C443 212.667 445 209.5 449 208.5C453 207.5 456.333 207 459 207ZM520 207C520.333 207 520.667 207 521 207C521.333 207 521.667 207 522 207C522 209.667 522 212.333 522 215C522 217.667 522 220.333 522 223C521.667 223 521.333 223 521 223C520.667 223 520.333 223 520 223C520 220.333 520 217.667 520 215C520 212.333 520 209.667 520 207ZM526 208C529 208.667 532 209.333 535 210C541 211.333 544 214.667 544 220C544 222.667 544 225.333 544 228C541 227.333 538 226.667 535 226C529 224.667 526 221.333 526 216C526 213.333 526 210.667 526 208ZM133 209C144.833 209 156.667 209 168.5 209C180.333 209 192.167 209 204 209C204 214.667 204 220.333 204 226C204 231.667 204 237.333 204 243C201.833 242.5 199.667 242 197.5 241.5C193.167 240.5 181.333 240.333 162 241C152.333 241.333 142.667 241.667 133 242C133 236.5 133 231 133 225.5C133 220 133 214.5 133 209ZM439.5 211C440 211 440.5 211 441 211C440.833 213.667 440.667 216.333 440.5 219C440.167 224.333 439.5 227 438.5 227C438 227 437.5 227 437 227C437.167 224.333 437.333 221.667 437.5 219C437.833 213.667 438.5 211 439.5 211ZM434 212C434.167 214.667 434.333 217.333 434.5 220C434.833 225.333 431.833 229 425.5 231C422.333 232 419.167 233 416 234C416 231.5 416 229 416 226.5C416 221.5 416.5 218.667 417.5 218C418.5 217.333 420 217.167 422 217.5C424 217.833 425.5 217.333 426.5 216C427.5 214.667 429 213.667 431 213C432 212.667 433 212.333 434 212ZM121 213C122.167 213.167 123.333 213.333 124.5 213.5C126.833 213.833 128 218.833 128 228.5C128 238.167 127.5 243.167 126.5 243.5C125.5 243.833 124.333 244 123 244C122.333 244 121.667 244 121 244C121 238.833 121 233.667 121 228.5C121 223.333 121 218.167 121 213ZM548 213C548.5 213.167 549 213.333 549.5 213.5C550.5 213.833 551 216.667 551 222C551 224.667 551 227.333 551 230C550.5 230 550 230 549.5 230C549 230 548.5 230 548 230C548 227.167 548 224.333 548 221.5C548 218.667 548 215.833 548 213ZM213.5 214C214 214 214.5 214 215 214C215 219.333 215 224.667 215 230C215 235.333 215 240.667 215 246C214.167 245.667 213.333 245.333 212.5 245C210.833 244.333 210 239.167 210 229.5C210 219.833 210.333 214.833 211 214.5C211.667 214.167 212.5 214 213.5 214ZM1336 214C1338.33 214 1340.67 214 1343 214C1347.67 214 1350.33 216 1351 220C1351.33 222 1351.67 224 1352 226C1349.83 226 1347.67 226 1345.5 226C1341.17 226 1338.5 224 1337.5 220C1337 218 1336.5 216 1336 214ZM1354 214C1355.67 214 1357.33 214 1359 214C1360.67 214 1362.33 214 1364 214C1363.67 216 1363.33 218 1363 220C1362.33 224 1360.83 226 1358.5 226C1356.17 226 1354.83 224 1354.5 220C1354.33 218 1354.17 216 1354 214ZM1375 214C1377.33 214 1379.67 214 1382 214C1381.5 216 1381 218 1380.5 220C1379.5 224 1376.83 226 1372.5 226C1370.33 226 1368.17 226 1366 226C1366.33 224 1366.67 222 1367 220C1367.67 216 1370.33 214 1375 214ZM553 215C553.833 215.167 554.667 215.333 555.5 215.5C557.167 215.833 558.667 216.833 560 218.5C561.333 220.167 563.167 220.833 565.5 220.5C567.833 220.167 569.5 220.333 570.5 221C571.5 221.667 572 224.667 572 230C572 232.667 572 235.333 572 238C568.833 236.833 565.667 235.667 562.5 234.5C556.167 232.167 553 228.333 553 223C553 220.333 553 217.667 553 215ZM412 220C412.167 222.5 412.333 225 412.5 227.5C412.833 232.5 412.333 235.167 411 235.5C410.333 235.667 409.667 235.833 409 236C409 233.5 409 231 409 228.5C409 223.5 409.5 220.833 410.5 220.5C411 220.333 411.5 220.167 412 220ZM787 220C788.5 220 790 220 791.5 220C793 220 794.5 220 796 220C796 225.333 796 230.667 796 236C796 241.333 796 246.667 796 252C794.5 252 793 252 791.5 252C790 252 788.5 252 787 252C787 246.667 787 241.333 787 236C787 230.667 787 225.333 787 220ZM827 220C828.667 220 830.333 220 832 220C833.667 220 835.333 220 837 220C837 225.5 837 231 837 236.5C837 242 837 247.5 837 253C835.333 252.833 833.667 252.667 832 252.5C828.667 252.167 827 246.667 827 236C827 230.667 827 225.333 827 220ZM405 223C405.333 223 405.667 223 406 223C406 225.5 406 228 406 230.5C406 235.5 402.833 239.5 396.5 242.5C393.333 244 390.167 245.5 387 247C387 244.667 387 242.333 387 240C387 235.333 389.833 231.333 395.5 228C401.167 224.667 404.333 223 405 223ZM576 224C576.333 224 576.667 224 577 224C577.333 224 577.667 224 578 224C578 226.833 578 229.667 578 232.5C578 235.333 578 238.167 578 241C577.667 240.833 577.333 240.667 577 240.5C576.333 240.167 576 237.333 576 232C576 229.333 576 226.667 576 224ZM581 226C584.167 227.667 587.333 229.333 590.5 231C596.833 234.333 600 238.667 600 244C600 246.667 600 249.333 600 252C596.833 250.5 593.667 249 590.5 247.5C584.167 244.5 581 240.167 581 234.5C581 231.667 581 228.833 581 226ZM1339 229C1345.67 229.167 1352.33 229.333 1359 229.5C1365.67 229.667 1372.33 229.833 1379 230C1378.5 233.667 1378 237.333 1377.5 241C1376.5 248.333 1376.17 258 1376.5 270C1376.67 276 1376.83 282 1377 288C1373.83 288 1370.67 288 1367.5 288C1361.17 288 1355 288.667 1349 290C1346 290.667 1343 291.333 1340 292C1340.33 286 1340.67 280 1341 274C1341.67 262 1341.5 251.5 1340.5 242.5C1340 238 1339.5 233.5 1339 229ZM313 231.5C314.333 231.667 315.667 231.833 317 232C316.667 232.667 316.333 233.333 316 234C315.333 235.333 314.333 236.5 313 237.5C311.667 238.5 309.667 239 307 239C305.667 239 304.333 239 303 239C304 237.667 305 236.333 306 235C308 232.333 310.333 231.167 313 231.5ZM383 235C383.167 237.5 383.333 240 383.5 242.5C383.833 247.5 383.667 250.167 383 250.5C382.667 250.667 382.333 250.833 382 251C382.167 248.333 382.333 245.667 382.5 243C382.667 240.333 382.833 237.667 383 235ZM377 238C377.167 240.5 377.333 243 377.5 245.5C377.833 250.5 374.833 254.5 368.5 257.5C365.333 259 362.167 260.5 359 262C359 259.667 359 257.333 359 255C359 250.333 360.167 247.333 362.5 246C364.833 244.667 366.833 244.167 368.5 244.5C370.167 244.833 371.333 244.167 372 242.5C372.667 240.833 373.667 239.667 375 239C375.667 238.667 376.333 238.333 377 238ZM603 238C603.333 238.167 603.667 238.333 604 238.5C604.667 238.833 605 241.667 605 247C605 249.667 605 252.333 605 255C604.667 255 604.333 255 604 255C603.667 255 603.333 255 603 255C603 252.167 603 249.333 603 246.5C603 243.667 603 240.833 603 238ZM609 241C610.5 242.167 612 243.333 613.5 244.5C616.5 246.833 618.833 247.833 620.5 247.5C622.167 247.167 623.833 247.5 625.5 248.5C627.167 249.5 628 252.667 628 258C628 260.667 628 263.333 628 266C624.833 264.667 621.667 263.333 618.5 262C612.167 259.333 609 255.167 609 249.5C609 246.667 609 243.833 609 241ZM499 244C505.667 244.667 510.667 246 514 248C517.333 250 520.5 252.667 523.5 256C526.5 259.333 529.5 264.667 532.5 272C535.5 279.333 537 287.333 537 296C537 300.333 537 304.667 537 309C523.167 309 509.333 309 495.5 309C481.667 309 467.833 309 454 309C454 304.833 454 300.667 454 296.5C454 288.167 455.333 280.5 458 273.5C460.667 266.5 464.167 260.667 468.5 256C472.833 251.333 477.333 248 482 246C486.667 244 492.333 243.333 499 244ZM354 250C354.333 250 354.667 250 355 250C355.333 250 355.667 250 356 250C356 252.5 356 255 356 257.5C356 260 356 262.5 356 265C355.667 265 355.333 265 355 265C354.667 265 354.333 265 354 265C354 262.5 354 260 354 257.5C354 255 354 252.5 354 250ZM351 252C351.333 252 351.667 252 352 252C352 254.5 352 257 352 259.5C352 264.5 348.667 268.333 342 271C338.667 272.333 335.333 273.667 332 275C332 272.667 332 270.333 332 268C332 263.333 335 259.5 341 256.5C347 253.5 350.333 252 351 252ZM631 252C631.5 252.167 632 252.333 632.5 252.5C633.5 252.833 634 255.667 634 261C634 263.667 634 266.333 634 269C633.5 268.833 633 268.667 632.5 268.5C631.5 268.167 631 265.333 631 260C631 257.333 631 254.667 631 252ZM794.5 253C795 253 795.5 253 796 253C796 253.333 796 253.667 796 254C796 254.333 796 254.667 796 255C794.5 255 793 255 791.5 255C790 255 788.5 255 787 255C788 254.667 789 254.333 790 254C792 253.333 793.5 253 794.5 253ZM636 254C639.167 255.333 642.333 256.667 645.5 258C651.833 260.667 655 264.833 655 270.5C655 273.333 655 276.167 655 279C651.833 277.667 648.667 276.333 645.5 275C639.167 272.333 636 268.167 636 262.5C636 259.667 636 256.833 636 254ZM792 257C793.333 257 794.667 257 796 257C796 258.833 796 260.667 796 262.5C796 264.333 796 266.167 796 268C794.833 268 793.667 268 792.5 268C790.167 268 788.667 267.333 788 266C787.333 264.667 787.167 262.833 787.5 260.5C787.833 258.167 789.333 257 792 257ZM327 262C327.5 262 328 262 328.5 262C329 262 329.5 262 330 262C330 264.5 330 267 330 269.5C330 274.5 329.667 277.167 329 277.5C328.667 277.667 328.333 277.833 328 278C327.833 275.333 327.667 272.667 327.5 270C327.333 267.333 327.167 264.667 327 262ZM584.5 263C589.5 263.667 594.167 265.833 598.5 269.5C602.833 273.167 606.167 277.833 608.5 283.5C610.833 289.167 612 294.833 612 300.5C612 303.333 612 306.167 612 309C601.667 309 591.333 309 581 309C570.667 309 560.333 309 550 309C550 306.667 550 304.333 550 302C550 297.333 550.833 292.333 552.5 287C554.167 281.667 556.5 277.167 559.5 273.5C562.5 269.833 566.167 267 570.5 265C574.833 263 579.5 262.333 584.5 263ZM413 264C418.333 264.667 423 266.667 427 270C431 273.333 434.333 278.167 437 284.5C439.667 290.833 441 296.5 441 301.5C441 304 441 306.5 441 309C430.667 309 420.333 309 410 309C399.667 309 389.333 309 379 309C379.167 305.667 379.333 302.333 379.5 299C379.833 292.333 381 286.833 383 282.5C385 278.167 387.333 274.667 390 272C392.667 269.333 395.833 267.167 399.5 265.5C403.167 263.833 407.667 263.333 413 264ZM322 264C322.167 266.667 322.333 269.333 322.5 272C322.833 277.333 320.167 281 314.5 283C311.667 284 308.833 285 306 286C306 283.5 306 281 306 278.5C306 276 306 273.5 306 271C307.333 271 308.667 271 310 271C312.667 271 314.333 270.333 315 269C315.667 267.667 317 266.5 319 265.5C320 265 321 264.5 322 264ZM659 264C659.333 264 659.667 264 660 264C660.333 264 660.667 264 661 264C661 266.833 661 269.667 661 272.5C661 275.333 661 278.167 661 281C660.667 281 660.333 281 660 281C659.667 281 659.333 281 659 281C659 278.167 659 275.333 659 272.5C659 269.667 659 266.833 659 264ZM664 266C665 266.333 666 266.667 667 267C669 267.667 670.333 268.667 671 270C671.667 271.333 673 271.833 675 271.5C677 271.167 678.833 271.333 680.5 272C682.167 272.667 683 275.833 683 281.5C683 284.333 683 287.167 683 290C679.833 288.833 676.667 287.667 673.5 286.5C667.167 284.167 664 280.167 664 274.5C664 271.667 664 268.833 664 266ZM301 273C301.333 273 301.667 273 302 273C302 275.5 302 278 302 280.5C302 285.5 301.5 288.167 300.5 288.5C300 288.667 299.5 288.833 299 289C299.167 286.333 299.333 283.667 299.5 281C299.833 275.667 300.333 273 301 273ZM1193.5 273C1194.5 273 1196 274.333 1198 277C1199 278.333 1200 279.667 1201 281C1199.33 280.833 1197.67 280.667 1196 280.5C1192.67 280.167 1190.33 279 1189 277C1188.33 276 1187.67 275 1187 274C1187.83 273.833 1188.67 273.667 1189.5 273.5C1191.17 273.167 1192.5 273 1193.5 273ZM686 274C686.333 274.167 686.667 274.333 687 274.5C687.667 274.833 688 277.833 688 283.5C688 286.333 688 289.167 688 292C687.667 291.833 687.333 291.667 687 291.5C686.333 291.167 686 288.167 686 282.5C686 279.667 686 276.833 686 274ZM294.5 275C295 275 295.5 275 296 275C295.833 277.667 295.667 280.333 295.5 283C295.167 288.333 294.333 291 293 291C291.667 291 288.333 289.5 283 286.5C280.333 285 277.667 283.5 275 282C278 280.833 281 279.667 284 278.5C290 276.167 293.5 275 294.5 275ZM351.5 283.5C354.5 283.833 357.333 285.167 360 287.5C362.667 289.833 364.667 292.667 366 296C367.333 299.333 368 302.333 368 305C368 306.333 368 307.667 368 309C362.833 309 357.667 309 352.5 309C342.167 309 336.167 308.667 334.5 308C332.833 307.333 332 305.667 332 303C332 300.333 332.5 297.833 333.5 295.5C334.5 293.167 335.667 291.167 337 289.5C338.333 287.833 340.333 286.333 343 285C345.667 283.667 348.5 283.167 351.5 283.5ZM642 284C645.333 284 648.667 285.333 652 288C655.333 290.667 657.5 293.167 658.5 295.5C659.5 297.833 660 300.667 660 304C660 305.667 660 307.333 660 309C654 309 648 309 642 309C636 309 630 309 624 309C624.5 306.333 625 303.667 625.5 301C626.5 295.667 628.667 291.5 632 288.5C635.333 285.5 638.667 284 642 284Z" fill="#000000" fill-rule="nonzero" opacity="1" stroke="none"/>
</g>
</svg>
