
<svg height="100%" stroke-miterlimit="10" style="fill-rule:nonzero;clip-rule:evenodd;stroke-linecap:round;stroke-linejoin:round;" version="1.1" viewBox="0 0 800 400" width="100%" xml:space="preserve" xmlns="http://www.w3.org/2000/svg" xmlns:xlink="http://www.w3.org/1999/xlink">
<defs/>
<clipPath id="ArtboardFrame">
<rect height="400" width="800" x="0" y="0"/>
</clipPath>
<g clip-path="url(#ArtboardFrame)" id="Layer-1">
<path d="M0.390625 374.609C0.195313 387.109 0.195313 387.109 0 399.609C399.805 399.609 399.805 399.609 799.609 399.609C799.609 387.109 799.609 387.109 799.609 374.609C792.614 374.609 782.614 375.896 776.953 376.172C767.458 376.635 757.911 375.773 748.438 376.563C747.67 376.627 745.69 378.061 744.922 378.125C741.709 378.393 732.945 379.116 729.688 379.297C703.426 380.756 678.816 380.622 652.344 381.641C647.523 381.826 642.715 382.393 637.891 382.422C620.443 382.525 602.995 382.813 585.547 382.813C585 382.813 583.384 382.955 582.813 382.813C580.667 382.276 577.347 381.685 575.781 381.641C566.8 381.388 557.812 381.713 548.828 381.641C531.477 381.502 513.285 380.544 495.703 378.516C428.423 370.753 357.803 370.08 288.281 371.484C276.982 371.713 264.715 373.543 253.906 374.219C239.59 375.114 225.924 374.49 211.719 375.781C208.961 376.032 202.645 377.996 199.609 378.125C133.324 380.946 64.9063 383.826 0.390625 374.609Z" fill="#d0e5eb" fill-rule="nonzero" opacity="1" stroke="none"/>
<path d="M0.390625 357.422C0.195313 366.211 0.195313 366.211 0 375C64.5002 384.214 133.325 383.049 199.609 378.906C202.786 378.708 208.847 376.742 211.719 376.563C248.856 374.241 285.821 371.875 323.438 371.875C343.194 371.875 366.108 372.427 385.938 373.047C395.828 373.356 414.695 372.646 425.781 373.438C427.13 373.534 430.294 374.907 431.641 375C456.335 376.703 480.35 378.512 504.688 379.297C511.639 379.521 520.099 381.728 526.172 382.031C563.467 383.896 599.91 383.594 637.5 383.594C659.103 383.594 681.33 381.605 702.344 380.469C711.446 379.977 720.602 380.815 729.688 380.078C740.303 379.217 750.369 377.494 761.328 377.344C772.406 377.192 784.667 376.632 795.703 376.172C796.084 376.156 799.561 375.457 799.609 374.609C799.855 370.32 799.609 366.016 799.609 361.719C785.675 361.113 771.866 362.735 758.594 364.063C732.898 366.632 705.133 365.625 679.688 365.625C636.307 365.625 593.248 363.152 550.391 361.328C531.631 360.53 512.905 359.927 494.141 359.375C492.171 359.317 490.193 359.072 488.281 358.594C479.944 356.509 471.094 358.644 462.5 358.594C448.567 358.512 434.634 358.459 420.703 358.203C368.349 357.243 316.24 360.714 264.063 361.328C236.11 361.657 207.438 361.678 179.688 364.453C162.326 366.189 144.792 364.453 127.344 364.453C107.585 364.453 87.8189 364.842 67.9688 364.453C50.1152 364.103 31.4353 362.987 13.6719 360.938C13.1696 360.88 11.8305 359.434 11.3281 359.375C6.52697 358.81 4.55162 359.086 0.390625 357.422Z" fill="#89c2e5" fill-rule="nonzero" opacity="1" stroke="none"/>
<path d="M0.390625 347.656C0.260417 351.042-0.12092 354.427 0 357.813C0.0573199 359.417 6.65476 359.664 11.3281 360.156C11.7938 360.205 13.2078 361.682 13.6719 361.719C23.2591 362.486 32.955 362.479 42.5781 363.281C70.7454 365.629 99.229 365.234 127.344 365.234C144.531 365.234 161.719 365.234 178.906 365.234C180.337 365.234 181.774 365.294 183.203 365.234C276.597 361.343 368.781 357.899 462.109 358.984C497.616 359.397 533.203 360.579 568.75 362.5C571.021 362.623 573.118 363.993 575.391 364.063C587.755 364.441 600.131 363.953 612.5 364.063C652.418 364.416 692.648 368.004 732.422 366.016C755.221 364.876 776.439 363.1 799.219 362.109C799.414 355.859 799.414 355.859 799.609 349.609C788.35 348.984 776.185 351.696 765.625 351.953C719.262 353.084 670.158 354.78 623.828 353.125C541.227 350.175 457.026 342.379 373.438 346.094C356.55 346.844 339.548 345.797 322.656 346.875C318.37 347.149 310.489 348.938 305.859 349.219C278.526 350.875 251.817 349.891 224.219 350.781C178.467 352.257 128.117 352.551 82.8125 352.734C55.4434 352.845 27.9231 350.715 0.390625 347.656Z" fill="#d0e5eb" fill-rule="nonzero" opacity="1" stroke="none"/>
<path d="M0.390625 338.281C0.195313 343.164 0.195313 343.164 0 348.047C59.3692 354.643 117.016 353.516 178.125 353.516C188.412 353.516 198.704 353.506 208.984 353.125C211.576 353.029 221.034 351.632 224.219 351.563C251.587 350.968 278.722 352.394 305.859 350C310.617 349.58 318.093 347.855 322.656 347.656C339.544 346.922 356.547 347.977 373.438 346.875C416.988 344.035 462.582 345.337 506.641 347.656C517.673 348.237 525.158 347.266 536.719 347.266C541.34 347.266 548.947 346.524 553.516 348.047C552.734 348.828 552.734 348.828 551.953 349.609C554.399 352.055 564.812 351.057 567.578 351.172C581.567 351.755 589.744 351.849 605.078 352.344C657.776 354.044 712.4 354.658 765.625 352.734C775.979 352.36 788.27 350.608 799.219 350C799.414 344.336 799.414 344.336 799.609 338.672C782.902 337.558 765.828 340.625 749.219 340.625C723.915 340.625 699.082 341.16 673.438 341.016C666.532 340.977 659.434 341.909 652.734 340.234C645.281 338.371 637.344 340.859 629.688 340.234C628.953 340.174 628.861 338.7 628.125 338.672C614.853 338.171 601.562 338.731 588.281 338.672C572.526 338.601 556.763 338.789 541.016 338.281C540.463 338.263 541.702 338.331 541.208 338.084C537.149 336.054 528.788 336.839 524.219 336.719C519.533 336.595 514.844 336.761 510.156 336.719C488.95 336.529 468.784 336.18 448.047 335.938C429.298 335.718 410.547 335.675 391.797 335.547C390.625 335.539 389.453 335.526 388.281 335.547C359.007 336.06 329.868 337.109 300.781 337.109C259.716 337.109 217.707 336.224 176.563 338.281C159.453 339.137 142.242 337.891 125.391 337.891C86.48 337.891 41.34 337.599 0.390625 338.281Z" fill="#89c2e5" fill-rule="nonzero" opacity="1" stroke="none"/>
<path d="M0.390625 310.156C0.195313 312.5 0.195313 312.5 0 314.844C121.629 318.529 243.533 314.453 364.844 314.453C409.871 314.453 453.273 314.844 498.047 314.844C511.215 314.844 523.604 315.234 537.5 315.234C539.479 315.234 537.034 315.118 539.063 315.625C545.758 317.299 552.865 315.547 559.766 315.625C576.692 315.816 593.62 315.887 610.547 316.016C630.993 316.171 651.43 316.406 671.875 316.406C682.297 316.406 693.135 315.665 703.516 316.406C703.883 316.432 704.036 316.927 704.297 317.188C702.168 319.317 695.593 317.969 692.578 317.969C681.333 317.969 670.184 318.057 658.984 318.359C639.441 318.888 620.55 318.181 601.114 318.244C582.326 318.304 562.993 319.141 544.141 319.141C502.212 319.141 460.288 320.152 418.359 320.313C350.521 320.572 282.682 320.572 214.844 320.313C214.475 320.311 214.431 319.533 214.063 319.531C164.063 319.272 114.062 319.643 64.0625 319.531C42.8659 319.484 21.5683 319.116 0.390625 318.359C0.195313 321.875 0.195313 321.875 0 325.391C7.627 325.899 14.6536 325.926 21.4844 324.219C25.5345 323.206 29.8096 325 33.9844 325C43.3594 325 52.7425 324.61 62.1094 325C69.3075 325.3 79.661 325.76 86.7188 325.781C124.609 325.894 162.5 326.043 200.391 326.172C250.301 326.342 301.179 327.734 351.172 327.734C367.709 327.734 384.245 327.997 400.781 328.125C406.769 328.171 415.081 329.127 421.094 328.125C438.91 325.156 458.336 327.344 475.781 327.344C499.225 327.344 522.088 325.781 545.313 325.781C555.466 325.781 566.45 326.036 576.563 325.391C577.114 325.355 577.261 324.503 577.734 324.219C579.413 323.212 581.636 324.585 583.594 324.609C592.839 324.726 602.083 325.127 611.328 325C611.941 324.992 612.862 322.675 612.891 322.656C613.855 322.013 622.444 322.604 624.219 322.656C636.219 323.009 649.472 324.018 660.156 323.047C664.862 322.619 668.193 321.094 673.438 321.094C679.949 321.094 686.462 321.243 692.969 321.484C696.682 321.622 704.264 323.47 707.031 320.703C709.328 323 724.587 321.73 728.516 321.484C744.37 320.493 759.604 323.604 775 322.266C775.862 322.191 778.281 320.401 779.297 320.313C782.292 320.052 786.156 321.657 788.281 319.531C788.086 319.141 788.086 319.141 787.891 318.75C788.281 318.359 788.281 318.359 788.672 317.969C788.411 317.708 788.259 317.198 787.891 317.188C779.04 316.935 770.181 317.312 761.328 317.188C760.916 317.182 760.547 316.927 760.156 316.797C762.201 314.753 765.859 315.676 768.75 315.625C778.697 315.451 789.294 315.48 799.219 314.063C799.414 312.5 799.414 312.5 799.609 310.938C775.105 309.648 750.146 311.253 725.781 311.328C683.724 311.458 641.667 311.719 599.609 311.719C595.628 311.719 590.035 310.587 586.328 310.547C529.931 309.937 473.766 308.984 417.188 308.984C350.62 308.984 282.853 311.328 216.797 311.328C175.684 311.328 135.603 312.196 94.5313 311.719C81.3805 311.566 67.8371 314.518 55.0781 311.328C45.0988 308.833 34.5046 311.442 24.2188 311.328C16.646 311.244 7.948 311.668 0.390625 310.156Z" fill="#d0e5eb" fill-rule="nonzero" opacity="1" stroke="none"/>
<path d="M759.375 316.406C764.123 325.902 780.081 311.721 787.109 318.75C784.586 321.273 778.836 319.373 775.391 320.313C764.154 323.377 748.89 321.591 736.719 321.094C715.637 320.233 694.168 320.313 673.047 320.313C663.168 320.313 656.008 322.266 646.484 322.266C637.69 322.266 627.463 320.748 618.359 322.266C616.191 322.627 614.834 321.601 612.986 322.441C611.98 322.898 608.913 324.12 607.813 324.219C599.901 324.927 591.926 324.332 583.984 324.219C575.562 324.098 567.249 322.446 558.594 324.609C547.363 327.417 532.531 325 521.484 325C495.13 325 470.143 326.172 444.141 326.172C408.518 326.172 371.957 328.729 335.938 327.344C253.785 324.184 170.712 325.64 87.1094 325.391C57.5719 325.302 28.8872 323.1 0.390625 325C0.195313 327.93 0.195313 327.93 0 330.859C186.402 331.62 372.881 330.617 559.375 332.422C608.399 332.896 716.237 333.698 766.016 332.422C777.08 332.138 788.218 333.254 799.219 332.031C799.414 322.852 799.414 322.852 799.609 313.672C790.346 312.349 778.204 314.141 769.141 314.453C766.535 314.543 763.925 314.608 761.328 314.844C760.627 314.908 759.664 316.117 759.375 316.406Z" fill="#89c2e5" fill-rule="nonzero" opacity="1" stroke="none"/>
<path d="M0.390625 302.344C0.195313 303.711 0.195313 303.711 0 305.078C28.0564 305.303 56.112 305.738 84.1693 305.754C97.6583 305.761 114.913 308.216 127.734 303.516C115.506 301.433 102.699 302.182 90.5265 302.158C60.4812 302.099 30.4359 302.282 0.390625 302.344Z" fill="#89c2e5" fill-rule="nonzero" opacity="1" stroke="none"/>
<path d="M0.390625 330.469C0.195313 334.57 0.195313 334.57 0 338.672C149.575 341.165 297.979 335.448 447.656 336.328C468.426 336.45 488.526 336.92 509.766 337.109C514.585 337.152 519.406 337.253 524.219 337.5C524.755 337.528 525.244 337.891 525.781 337.891C530.339 337.891 528.918 336.033 532.825 338.378C533.299 338.662 540.073 339.049 540.625 339.063C569.263 339.755 597.95 338.064 626.563 339.453C627.298 339.489 627.391 340.96 628.125 341.016C641.546 342.029 659.635 341.331 673.047 341.406C715.46 341.645 756.992 341.878 799.219 339.063C799.414 335.352 799.414 335.352 799.609 331.641C788.48 330.404 777.205 331.216 766.016 331.641C765.648 331.655 765.603 332.42 765.234 332.422C696.876 332.681 628.515 332.681 560.156 332.422C373.98 331.715 186.967 329.707 0.390625 330.469Z" fill="#d0e5eb" fill-rule="nonzero" opacity="1" stroke="none"/>
<path d="M0.390625 314.453C0.195313 316.602 0.195313 316.602 0 318.75C71.2135 321.293 143.053 319.762 214.063 320.313C337.296 321.268 460.872 322.367 584.375 319.922C595.079 319.71 607.799 317.446 617.969 319.141C631.198 321.345 644.792 319.271 658.203 319.141C682.673 318.903 707.543 317.715 732.031 318.359C736.706 318.482 741.534 320.576 744.922 317.188C742.825 312.994 722.546 315.625 717.188 315.625C681.644 315.625 646.032 315.234 610.547 315.234C593.75 315.234 576.953 315.33 560.156 315.234C489.02 314.83 417.961 312.668 346.875 313.281C231.489 314.276 115.864 317.952 0.390625 314.453Z" fill="#89c2e5" fill-rule="nonzero" opacity="1" stroke="none"/>
<path d="M568.75 305.859C570.106 305.859 571.731 305.716 572.656 306.641C571.351 307.946 571.333 307.031 569.922 307.031C564.061 307.031 558.203 307.297 552.344 307.422C546.667 307.543 540.735 307.071 534.766 307.422C519.1 308.343 502.902 306.641 487.5 306.641C464.441 306.641 440.804 307.031 417.578 307.031C278.129 307.031 139.076 307.422 0.390625 307.422C0.195313 308.984 0.195313 308.984 0 310.547C16.1418 313.775 39.2917 311.922 54.2969 312.109C67.1558 312.27 82.7455 312.363 94.5313 312.5C156.341 313.219 217.88 313.982 279.688 312.109C296.934 311.587 314.608 310.547 331.641 310.547C416.483 310.547 501.599 309.962 586.328 311.328C654.443 312.427 729.304 315.008 799.219 311.328C799.414 309.57 799.414 309.57 799.609 307.813C795.704 307.65 791.386 305.674 787.891 307.422C787.5 307.031 787.5 307.031 787.109 306.641C787.5 306.25 787.5 306.25 787.891 305.859C791.268 307.548 795.443 305.859 799.219 305.859C799.414 304.297 799.414 304.297 799.609 302.734C722.656 302.604 645.703 302.214 568.75 302.344C566.979 302.347 568.596 305.399 568.75 305.859Z" fill="#89c2e5" fill-rule="nonzero" opacity="1" stroke="none"/>
<path d="M219.908 304.633C110.149 304.66 110.149 304.66 0.390625 304.688C0.195313 306.25 0.195313 306.25 0 307.813C266.405 308.577 532.901 315.085 799.219 308.203C799.414 306.836 799.414 306.836 799.609 305.469C723.316 305.39 647.019 305.931 570.728 305.233C569.916 305.226 569.686 303.986 569.165 303.363C684.261 302.849 684.261 302.849 799.357 302.335C726.655 302.077 653.857 305.287 581.25 301.563C576.238 301.305 574.914 293.646 570.914 290.616C566.219 287.059 558.931 286.797 555.469 282.031C552.995 278.626 556.51 273.491 555.504 269.404C554.371 264.799 553.01 259.49 549.219 256.641C544.721 253.26 538.503 252.608 532.88 252.401C528.619 252.244 524.082 253.286 520.488 255.581C515.757 258.602 513.773 265.059 508.846 267.748C497.24 274.081 496.685 256.026 485.547 255.469C473.998 254.891 479.311 261.999 471.484 266.406C469.511 267.517 466.848 265.248 464.705 265.98C461.248 267.16 459.12 271.766 455.469 271.875C449.297 272.06 443.821 266.452 437.655 266.791C433.822 267.002 430.359 270.197 428.205 273.375C426.092 276.491 428.476 281.826 425.721 284.392C421.267 288.542 414.933 291.034 408.857 291.399C405.394 291.607 403.433 286.43 400 285.938C395.677 285.318 391.406 287.5 387.109 288.281C383.578 278.158 376.785 260.746 361.328 265.625C356.059 267.288 351.164 277.928 347.121 274.162C341.48 268.908 338.551 260.513 331.75 256.881C325.96 253.79 317.68 258.941 312.109 255.469C307.577 252.644 309.154 244.91 305.833 240.728C297.471 230.2 275.209 225.278 266.016 238.281C262.165 243.727 264.593 252.462 260.107 257.396C256.645 261.204 249.854 259.139 245.152 261.229C241.77 262.733 238.281 264.825 236.328 267.969C234.062 271.617 235.578 276.89 233.203 280.469C230.312 284.826 223.794 286.073 221.273 290.655C219.016 294.757 220.363 299.974 219.908 304.633Z" fill="#d0e5eb" fill-rule="nonzero" opacity="1" stroke="none"/>
<path d="M518.75 347.656C521.243 350.149 525.781 348.177 529.297 348.438C537.21 349.024 548.224 352.797 555.078 347.656C553.747 346.325 537.621 346.484 536.328 346.484C531.248 346.484 526.174 346.094 521.094 346.094C519.963 346.094 519.455 346.952 518.75 347.656Z" fill="#68b1de" fill-rule="nonzero" opacity="1" stroke="none"/>
<path d="M221.124 303.978C215.223 299.941 170.879 303.168 164.453 303.125C153.773 303.053 143.101 302.187 132.422 302.344C130.773 302.368 130.713 303.064 129.826 304.261C133.123 308.115 139.216 305.421 143.359 305.469C151.146 305.559 216.614 308.865 221.124 303.978Z" fill="#89c2e5" fill-rule="nonzero" opacity="1" stroke="none"/>
<g opacity="1">
<path d="M72.6278 182.542C69.0453 182.936 66.0289 185.596 62.5 186.328C58.6753 187.122 54.6803 186.091 50.7813 186.328C48.7979 186.449 45.6441 189.527 44.7721 190.213C89.6345 190.482 134.496 191.143 179.359 191.021C179.899 191.02 180.099 190.236 180.469 189.844C174.073 185.846 168.293 186.673 160.547 186.328C158.752 172.571 155.479 168.15 141.797 167.578C138.844 156.08 120.57 149.214 112.11 161.213C106.96 168.518 111.719 180.859 111.719 180.859L103.125 184.375C103.125 184.375 72.8238 165.567 72.6278 182.542Z" fill="#89c2e5" fill-rule="nonzero" opacity="1" stroke="none"/>
<path d="M25 158.984C25 158.984 15.4207 153.292 11.3281 161.328C11.0212 161.931 8.75942 159.514 8.20313 159.375C6.1612 158.865 2.38693 158.487 0.78125 158.594C0.413781 158.618 0.0262392 159.008 0 159.375C-0.241201 162.752 0 166.146 0 169.531C35.4167 169.661 70.8333 170.051 106.25 169.922C106.618 169.921 106.771 169.401 107.031 169.141C101.787 162.149 82.8125 165.625 82.8125 165.625C82.8125 165.625 81.3964 160.95 77.8209 160.767C74.0071 160.571 68.75 162.5 68.75 162.5C68.75 162.5 66.9966 156.417 62.8625 156.708C59.605 156.938 54.2969 160.156 54.2969 160.156C54.2969 160.156 51.3104 145.001 37.1094 146.094C31.1075 146.555 25 158.984 25 158.984Z" fill="#89c2e5" fill-rule="nonzero" opacity="1" stroke="none"/>
</g>
<g opacity="1">
<path d="M720.703 110.156C718.709 109.159 711.362 111.454 715.625 113.281C716.104 113.486 716.667 113.285 717.188 113.281C736.068 113.155 754.947 112.891 773.828 112.891C774.119 112.891 774.349 113.151 774.609 113.281C775.195 112.695 775.195 112.695 775.781 112.109C775.595 111.861 757.24 104.948 755.469 105.469C751.539 106.625 749.745 111.073 745.703 107.031C749.16 100.117 742.063 96.0938 736.328 96.0938C733.679 96.0938 731.99 100.982 730.469 101.172C726.245 101.7 724.076 100.41 721.484 104.297C720.343 106.008 722.552 108.308 720.703 110.156Z" fill="#89c2e5" fill-rule="nonzero" opacity="1" stroke="none"/>
<path d="M650 64.8438C650.34 65.3884 650.523 66.2109 650.795 66.8754C651.044 67.4817 651.367 67.9565 651.953 67.9688C701.031 68.9966 750.13 67.9688 799.219 67.9688C799.308 48.9156 793.251 36.0149 771.875 47.2656C769.547 44.8648 769.002 41.9069 766.133 40.1875C762.529 38.0273 757.422 40.2344 757.422 40.2344C757.422 40.2344 748.938 26.4978 742.638 21.7478C736.221 16.9101 726.601 18.3304 719.615 20.6127C707.125 24.6931 705.643 37.7608 703.906 48.8281C687.854 39.9102 675.162 56.5914 675.162 56.5914C675.162 56.5914 667.048 55.9582 663.119 56.7842C658.619 57.7302 653.588 62.0946 650 64.8438Z" fill="#89c2e5" fill-rule="nonzero" opacity="1" stroke="none"/>
<path d="M610.938 65.5264C611.602 66.1749 611.759 67.6344 612.698 67.6748C622.37 68.0915 632.07 68.0855 641.742 67.6748C642.363 67.6484 642.622 66.8155 643.062 66.3858C640.977 64.3501 634.261 65.5264 634.261 65.5264C634.261 65.5264 628.27 60.6345 624.2 60.7142C619.589 60.8045 613.839 62.6934 610.938 65.5264Z" fill="#89c2e5" fill-rule="nonzero" opacity="1" stroke="none"/>
</g>
<g opacity="1">
<path d="M128.906 116.797C131.393 118.04 137.578 112.734 139.453 111.328C139.063 110.938 139.063 110.938 138.672 110.547C140.635 106.62 144.802 103.959 147.656 100.391C150.75 96.523 151.205 91.3405 153.125 87.5C155.979 81.7922 153.385 74.7396 153.516 68.3594C153.602 64.1386 152.344 61.4029 152.344 56.6406C152.344 54.0194 149.763 50.6278 151.953 48.4375C144.504 40.9879 137.36 30.1139 126.172 28.5156C118.514 27.4216 111.021 25.0313 102.344 26.5625C99.9517 26.9846 96.9991 28.8033 94.5313 29.2969C87.6733 30.6685 79.8176 38.9324 75.3906 43.3594C65.1744 53.5756 65.2344 68.667 65.2344 82.0313C65.2344 96.9756 83.3732 112.412 95.3125 117.188C103.246 120.361 122.165 123.538 128.906 116.797Z" fill="#fe8e86" fill-rule="nonzero" opacity="1" stroke="none"/>
<path d="M151.563 48.0469C150.679 48.9309 151.174 61.7273 151.563 63.6719C152.854 70.1282 155.565 88.185 150 93.75C151.367 95.1172 151.367 95.1172 152.734 96.4844C154.727 94.492 155.448 90.6862 156.25 88.2813C160.691 74.9591 159.439 59.8616 151.563 48.0469Z" fill="#f93628" fill-rule="nonzero" opacity="1" stroke="none"/>
<path d="M150.781 93.75C145.99 98.5409 144.258 104.739 137.891 108.984C138.411 110.026 138.411 109.505 137.891 110.547C138.477 111.133 138.477 111.133 139.063 111.719C145.841 108.33 148.394 100.825 153.125 96.0938C151.953 94.9219 151.953 94.9219 150.781 93.75Z" fill="#f45956" fill-rule="nonzero" opacity="1" stroke="none"/>
</g>
<g opacity="1">
<path d="M297.656 271.875C290.333 268.214 281.809 271.316 276.563 276.563C275.456 277.669 274.167 281.942 273.047 282.422C272.68 282.579 266.757 284.531 266.406 284.375C260.676 281.828 259.312 278.516 251.953 278.516C247.512 278.516 243.3 281.794 240.625 284.766C238.98 286.593 239.598 288.624 237.109 289.453C237.109 295.876 235.948 294.426 231.641 297.656C231.43 297.814 225.497 302.695 228.906 302.734C250.91 302.992 272.917 302.734 294.922 302.734C325 302.734 355.078 302.734 385.156 302.734C387.127 302.734 390.518 303.93 391.406 301.563C392.139 299.608 390.908 299.004 390.234 297.656C388.291 293.768 383.957 290.234 379.297 290.234C377.713 290.234 376.163 291.326 374.609 291.016C373.013 290.696 368.339 282.566 366.797 281.641C364.119 280.034 359.138 279.356 356.25 280.078C354.813 280.437 351.582 282.898 350.391 282.422C348.841 281.802 346.803 279.011 344.922 278.906C341.564 278.72 338.607 278.581 336.328 280.859C334.062 279.349 335.035 273.937 333.984 271.484C329.969 262.114 315.097 256.158 306.641 262.5C302.999 265.231 300.434 268.403 297.656 271.875Z" fill="#f5f0ea" fill-rule="nonzero" opacity="1" stroke="none"/>
<path d="M291.016 231.25C295.408 235.642 301.273 235.966 306.25 242.188C308.467 244.958 309.814 255.493 311.328 256.25C312.849 257.01 322.781 254.078 326.953 255.469C332.331 257.261 336.186 260.795 340.234 264.844C342.847 267.456 342.441 271.347 344.922 273.828C347.142 271.608 349.413 272.135 351.953 273.828C357.295 268.486 361.669 268.7 355.469 262.5C354.955 261.986 353.013 260.815 352.344 260.547C351.162 260.074 347.266 258.594 347.266 258.594C347.266 258.594 347.921 256.272 348.047 255.078C348.434 251.397 347.984 247.732 347.266 244.141C344.283 229.227 326.397 220.459 312.5 223.438C307.472 224.515 298.937 233.605 298.937 233.605C298.937 233.605 294.303 227.963 291.016 231.25Z" fill="#68b1de" fill-rule="nonzero" opacity="1" stroke="none"/>
<path d="M485.156 278.125C477.313 278.173 471.64 282.665 466.406 289.063C465.355 290.347 461.543 302.323 464.063 302.344C495.702 302.602 527.345 302.602 558.984 302.344C565 302.295 552.867 297.49 552.344 297.266C550.362 296.416 547.185 299.073 545.703 298.438C544.006 297.71 541.759 293.712 540.625 292.578C538.057 290.01 537.779 291.332 535.547 289.844C528.897 285.411 524.076 289.653 518.359 291.797C517.645 292.065 508.574 290.365 508.203 290.234C505.602 289.316 503.078 284.208 500.781 282.422C496.142 278.814 490.843 278.09 485.156 278.125Z" fill="#f5f0ea" fill-rule="nonzero" opacity="1" stroke="none"/>
<path d="M446.094 233.594C435.144 233.594 432.221 234.1 424.609 242.188C421.82 245.151 419.922 253.516 419.922 253.516C419.922 253.516 412.447 252.874 407.422 255.469C403.241 257.977 394.487 265 394.487 265C394.487 265 387.171 260.727 384.375 260.547C374.093 259.884 368.478 260.989 360.938 266.016C363.549 268.627 371.867 266.009 376.953 270.313C379.336 272.329 383.418 276.345 383.594 279.688C383.725 282.172 382.616 285.35 384.375 287.109C386.062 285.422 384.25 283.328 385.938 281.641C392.216 287.919 399.286 284.431 406.25 290.234C408.194 288.777 411.166 289.291 412.891 291.016C415.178 289.491 417.03 285.349 420.313 285.156C422.537 285.025 426.677 286.587 426.953 284.375C427.824 277.408 428.91 269.096 437.5 267.188C446.52 265.183 451.104 269.761 459.375 265.625C461.326 264.65 463.335 265.962 465.234 264.063C466.239 264.565 470.793 262.8 471.484 262.109C472.463 263.088 472.068 263.475 473.047 264.453C475.513 262.809 476.651 258.564 480.078 257.422C488.411 254.644 493.702 258.717 498.047 265.234C500.339 262.942 508.583 262.489 511.328 265.234C523.052 253.51 532.792 247.934 548.047 259.375C552.377 255.044 544.25 246.593 541.406 243.75C535.108 237.452 516.406 243.75 516.406 243.75C516.406 243.75 509.737 240.876 508.984 240.625C508.635 240.509 508.292 240.201 508.203 239.844C506.599 233.425 505.688 228.735 500.391 223.438C496.381 219.428 484.817 219.72 484.817 219.72C484.817 219.72 478.697 208.792 471.275 208.89C463.853 208.988 459.392 219.763 459.392 219.763C459.392 219.763 451.286 219.643 448.746 223.159C446.207 226.674 447.032 230.779 446.094 233.594Z" fill="#89c2e5" fill-rule="nonzero" opacity="1" stroke="none"/>
<path d="M241.406 262.5C241.797 263.086 241.797 263.086 242.188 263.672C247.32 261.105 259.323 263.057 261.328 256.641C262.485 252.94 261.443 249.379 263.281 245.703C263.899 244.468 267.578 239.453 267.578 239.453C265.662 233.703 250.17 245.924 248.438 247.656C244.317 251.777 244.924 258.982 241.406 262.5Z" fill="#68b1de" fill-rule="nonzero" opacity="1" stroke="none"/>
<path d="M552.734 262.109C552.148 262.695 552.148 262.695 551.563 263.281C554.679 267.955 557.451 276.504 554.688 282.031C556.771 284.115 558.009 287.956 560.938 288.281C563.459 288.561 567.216 288.888 569.531 290.625C573.897 293.899 575.59 297.856 578.906 301.172C584.668 297.331 572.724 281.827 567.969 280.469C565.529 279.772 562.786 279.973 560.938 278.125C563.487 273.027 557.222 264.353 552.734 262.109Z" fill="#68b1de" fill-rule="nonzero" opacity="1" stroke="none"/>
<path d="M471.875 260.938C469.088 263.725 457.964 265.184 454.297 266.406C448.072 268.481 448.99 267.438 455.078 272.656C458.98 269.312 463.039 266.406 468.359 266.406C470.807 266.406 469.219 267.568 472.266 267.188C474.551 266.902 472.996 261.685 471.875 260.938Z" fill="#409dd3" fill-rule="nonzero" opacity="1" stroke="none"/>
<path d="M510.156 265.234C510.547 265.625 510.547 265.625 510.938 266.016C511.523 265.625 511.523 265.625 512.109 265.234C511.39 264.515 511.066 263.345 510.156 262.891C507.797 261.711 503.965 263.625 501.563 263.281C499.713 263.017 502.14 261.248 499.219 262.5C497.496 263.239 496.392 267.157 498.828 267.969C500.669 268.582 503.26 267.188 505.078 267.188C507.436 267.188 507.955 266.335 510.156 265.234Z" fill="#1b85ce" fill-rule="nonzero" opacity="1" stroke="none"/>
<path d="M393.75 286.328C391.171 283.749 387.348 283.527 386.328 280.469C381.591 280.469 384.911 295.167 393.75 286.328Z" fill="#1b85ce" fill-rule="nonzero" opacity="1" stroke="none"/>
<path d="M336.719 280.859C339.397 279.52 342.977 281.632 345.313 279.297C343.919 277.904 341.352 279.043 339.453 278.516C339.045 278.402 331.561 274.764 334.375 278.516C335.038 279.4 335.938 280.078 336.719 280.859Z" fill="#abc5c5" fill-rule="nonzero" opacity="1" stroke="none"/>
<path d="M345.313 274.219C348.252 274.219 349.678 276.494 352.344 273.828C350.847 271.833 343.641 269.205 345.313 274.219Z" fill="#427cc8" fill-rule="nonzero" opacity="1" stroke="none"/>
<path d="M561.328 271.094C559.736 272.686 559.746 278.496 561.328 280.078C563.631 277.775 563.751 273.517 561.328 271.094Z" fill="#ded7b8" fill-rule="nonzero" opacity="1" stroke="none"/>
<path d="M406.25 289.844C408.123 292.091 410.787 293.12 413.281 290.625C411.08 288.424 408.578 287.516 406.25 289.844Z" fill="#409dd3" fill-rule="nonzero" opacity="1" stroke="none"/>
<path d="M510.156 264.453C508.744 265.159 506.448 266.208 505.469 267.188C507.687 269.406 513.613 267.91 510.156 264.453Z" fill="#68b1de" fill-rule="nonzero" opacity="1" stroke="none"/>
<path d="M284.125 227.938C280.917 227.687 277.624 228.042 274.375 229.125C272.415 229.778 268.656 234.344 268.656 234.344C268.656 234.344 266.318 237.479 265.156 238.781C263.995 240.083 264.171 239.434 262.281 244.188C260.392 248.941 259.031 257 259.031 257L255.031 259.469C255.031 259.469 250.697 259.625 249.031 259.625C242.981 259.625 239.886 263.246 236.344 267.969C233.515 271.741 233.219 280.469 233.219 280.469C233.219 280.469 223.418 287.001 221.875 289.469C219.487 293.29 219.021 294.327 219 298.094C218.979 301.86 221.781 304.531 221.781 304.531C221.781 304.531 582.346 302.233 581.969 301.75C581.989 301.69 582.008 301.656 582.031 301.594C582.035 301.585 582.028 301.571 582.031 301.562C581.771 301.563 581.51 301.564 581.25 301.562C580.513 301.558 580.208 300.521 579.688 300C579.297 300.195 579.297 300.211 578.906 300.406C576.364 297.864 574.984 294.515 571.875 291.406C568.857 288.389 563.847 289.44 560.938 287.5C558.792 286.07 557.292 283.854 555.469 282.031C557.869 277.23 556.19 267.534 552.344 263.688C552.93 262.906 552.945 262.906 553.531 262.125C551.506 260.1 551.041 259.39 549.219 256.656C548.437 257.438 548.438 257.437 547.656 258.219C540.044 250.607 525.762 250.619 517.969 257.438C515.461 259.632 512.745 261.952 510.938 264.844C510.361 265.766 509.781 267.594 509.781 267.594C509.781 267.594 506.33 265.684 505.094 265.375C502.769 264.794 499.219 267.188 499.219 267.188C499.219 267.188 497.627 263.076 497.281 262.5C495.084 258.838 489.975 255.469 485.562 255.469C480.79 255.469 477.416 258.522 474.219 261.719C472.903 263.035 472.062 267.281 472.062 267.281C472.062 267.281 468.759 265.625 467.594 265.625C462.494 265.625 457.182 264.862 453.594 267.938C444.592 260.221 430.99 263.685 426.562 276.969C425.861 279.072 426.344 284.406 426.344 284.406C426.344 284.406 421.435 283.829 419.531 284.781C415.651 286.722 409.25 291.875 409.25 291.875C409.25 291.875 402.06 280.511 398.969 280.125C397.155 279.898 396.015 281.094 394.188 281.094C391.484 281.094 386.656 286.844 386.656 286.844C386.656 286.844 384.54 280.525 383.219 276.562C382.581 274.649 377.776 269.964 377.344 269.531C373.154 265.342 364.204 263.055 360.562 265.719C359.202 267.079 355.875 269.531 355.875 269.531L350.531 275.531C350.531 275.531 340.753 264.191 337.906 261.344C331.267 254.705 324.184 254.313 314.844 254.312C312.992 254.312 312.125 255.469 312.125 255.469C312.125 255.469 310.246 247.534 308.219 244.156C302.723 234.997 293.749 228.69 284.125 227.938Z" fill="#afd4e7" fill-rule="nonzero" opacity="1" stroke="none"/>
<path d="M221.789 304.52C221.789 304.52 221.475 304.532 220.974 304.549" fill="#afd4e7" fill-rule="nonzero" opacity="1" stroke="none"/>
</g>
</g>
</svg>
