<?xml version="1.0" encoding="UTF-8" standalone="no"?>
<!DOCTYPE svg PUBLIC "-//W3C//DTD SVG 1.1//EN" "http://www.w3.org/Graphics/SVG/1.1/DTD/svg11.dtd">
<!-- Created with Vectornator (http://vectornator.io/) -->
<svg height="100%" stroke-miterlimit="10" style="fill-rule:nonzero;clip-rule:evenodd;stroke-linecap:round;stroke-linejoin:round;" version="1.1" viewBox="0 0 3000 1600" width="100%" xml:space="preserve" xmlns="http://www.w3.org/2000/svg" xmlns:xlink="http://www.w3.org/1999/xlink">
<defs>
<path d="M1.5 1525.5C20.8281 1515.69 39.7562 1504.99 58.8843 1494.74C78.0125 1484.48 97.3406 1474.67 117.469 1466.62C141.216 1457.13 165.157 1447.46 189.489 1439.24C213.822 1431.03 238.546 1424.28 263.859 1420.64C321.223 1412.4 378.967 1407.03 436.851 1403.3C494.735 1399.57 552.76 1397.47 610.688 1395.75C649.637 1394.6 688.675 1394.52 727.665 1395.73C766.656 1396.94 805.599 1399.43 844.359 1403.44C863.976 1405.46 883.125 1410.18 902.156 1415.57C921.187 1420.97 940.102 1427.03 959.25 1431.75L908.625 1417.88L858 1404C921.519 1411.94 982.77 1431.23 1043.92 1451.19C1105.07 1471.15 1166.13 1491.79 1229.25 1502.44C1277.4 1510.56 1326.19 1514.46 1375.13 1515.87C1424.08 1517.29 1473.19 1516.22 1521.98 1514.39C1555.61 1513.13 1589.19 1509.66 1622.53 1504.45C1655.86 1499.23 1688.94 1492.27 1721.57 1484.03C1796.12 1465.19 1869.37 1441.6 1942.63 1418.04C2015.89 1394.48 2089.16 1370.95 2163.75 1352.25C2186.05 1346.66 2208.87 1343.06 2231.86 1340.97C2254.85 1338.87 2278.02 1338.29 2301 1338.75C2327.1 1339.27 2353.53 1340.11 2379.65 1342.82C2405.77 1345.52 2431.58 1350.09 2456.44 1358.06C2507.47 1374.42 2556.08 1397.28 2604.63 1420.29C2653.18 1443.31 2701.68 1466.49 2752.5 1483.5C2792.87 1497.01 2834.37 1506.51 2876.15 1515.01C2917.94 1523.51 2960 1531 3001.5 1540.5L3001.5 1531.5L3001.5 1522.5L2923.5 1505.25L2845.5 1488L2923.5 1503.75L3001.5 1519.5L3001.5 760.5L3001.5 1.5L1501.5 1.5L1.5 1.5L1.5 763.5L1.5 1525.5ZM2351.19 1319.78C2353.91 1319.18 2354.06 1318.74 2354.06 1318.74C2366.56 1324.14 2382.73 1326.59 2398.05 1328.75C2413.38 1330.91 2448 1342.5 2448 1342.5C2444.81 1341.84 2442.17 1340.73 2439.78 1340.34C2437.38 1339.95 2426.31 1339.29 2422.72 1339.41C2419.14 1339.52 2415.05 1340.02 2414.07 1336.35C2411.14 1336.26 2409.12 1334.86 2406.18 1334.79C2403.25 1334.72 2400.31 1334.62 2397.38 1334.44C2395.55 1334.32 2394.01 1333.53 2392.46 1332.72C2390.9 1331.91 2389.33 1331.08 2387.44 1330.88C2382.64 1330.36 2377.83 1329.96 2373.02 1329.55C2368.21 1329.15 2363.4 1328.74 2358.61 1328.2C2357.88 1328.12 2357.22 1328.01 2356.94 1327.62C2356.67 1327.22 2355.7 1326.66 2354.92 1326.35C2354.14 1326.04 2354.64 1326.28 2353.82 1326.38C2353 1326.47 2351.64 1326.73 2351.64 1326.73L2350.33 1326.45L2349 1326L2347.7 1325.33L2346.62 1324.98L2345.5 1324.73L2344.5 1324.5C2343.14 1324.47 2339.33 1325.1 2335.52 1325.05C2331.71 1325.01 2327.89 1324.27 2326.5 1321.5L2340 1321.5L2348.78 1320.02C2348.78 1320.02 2349.86 1320.07 2351.19 1319.78ZM436.491 1385.77C439.222 1386.15 442.08 1386.11 444.75 1386C456.387 1385.51 468.007 1384.69 479.626 1383.86C491.245 1383.04 502.864 1382.2 514.5 1381.69C552.104 1380.03 589.749 1379.41 627.4 1379.4C665.052 1379.4 702.71 1379.99 740.344 1380.75C747.711 1380.9 755.088 1381.87 762.455 1382.6C769.821 1383.33 777.176 1383.81 784.5 1383L784.5 1385.25L784.5 1387.5C742.922 1387.23 701.343 1386.61 659.765 1386.16C618.186 1385.72 576.608 1385.45 535.031 1385.86C513.685 1386.07 492.349 1386.81 471.021 1387.79C449.693 1388.78 428.374 1390.02 407.062 1391.25C398.085 1391.77 388.908 1392.4 379.743 1393.24C370.579 1394.08 361.427 1395.13 352.5 1396.5C353.303 1394.78 353.512 1393.85 354.119 1393.3C354.726 1392.76 355.731 1392.59 358.125 1392.38C363.177 1391.92 368.239 1391.61 373.305 1391.33C378.37 1391.05 383.438 1390.81 388.5 1390.5L387.75 1389L387 1387.5C387.299 1387.4 397.144 1386.97 407.242 1386.79C417.34 1386.6 427.69 1386.65 429 1387.5L429 1385.25L429 1383C431.158 1384.58 433.761 1385.38 436.491 1385.77ZM2542.5 1380C2546.44 1381.16 2550.39 1382.26 2554.34 1383.39C2558.28 1384.52 2610.33 1405.97 2610.33 1405.97L2665.5 1434L2701.5 1443C2703.29 1446.25 2715.86 1452.4 2728.27 1457.67C2740.67 1462.93 2785.5 1488 2785.5 1488C2782.46 1487.23 2779.11 1486.34 2776.13 1484.97C2773.15 1483.59 2764.5 1483.5 2764.5 1483.5C2764.5 1483.5 2743.22 1474.16 2741.66 1473.74C2740.1 1473.32 2642.53 1435.39 2639.62 1432.69C2639.21 1432.3 2563.5 1395 2563.5 1395L2557.5 1392L2542.5 1380ZM1336.41 1494.39C1349.38 1495.01 1362.35 1495.68 1375.31 1496.48C1381.59 1496.87 1387.83 1497.78 1394.06 1498.7C1400.3 1499.61 1406.53 1500.53 1412.81 1500.94C1414.24 1501.03 1417.75 1500.23 1421.24 1500.06C1424.73 1499.9 1428.18 1500.36 1429.5 1503C1418.87 1502.79 1408.25 1502.65 1397.62 1502.47C1387 1502.3 1376.37 1502.08 1365.75 1501.73C1360.49 1501.56 1355.23 1501.37 1349.98 1501.09C1344.73 1500.8 1339.48 1500.42 1334.25 1499.86C1328.59 1499.25 1322.96 1498.45 1317.34 1497.56C1311.72 1496.67 1306.11 1495.69 1300.5 1494.75C1299.36 1494.56 1298.83 1494.38 1298.48 1494.06C1298.12 1493.74 1297.94 1493.28 1297.5 1492.5C1310.47 1493.16 1323.44 1493.76 1336.41 1494.39Z" id="Fill"/>
</defs>
<clipPath id="ArtboardFrame">
<rect height="1600" width="3000" x="0" y="0"/>
</clipPath>
<g clip-path="url(#ArtboardFrame)" id="Layer-2">
<use fill="#000000" fill-rule="nonzero" opacity="1" stroke="none" xlink:href="#Fill"/>
<clipPath id="ClipPath">
<use xlink:href="#Fill"/>
</clipPath>
<g clip-path="url(#ClipPath)">
<g opacity="1">
<path d="M-1.65584 0L124.276 0L124.276 1594.04L-1.65584 1594.04L-1.65584 0Z" fill="#65c069" fill-rule="nonzero" opacity="1" stroke="none"/>
<path d="M123.126 0L249.057 0L249.057 1594.04L123.126 1594.04L123.126 0Z" fill="#76c068" fill-rule="nonzero" opacity="1" stroke="none"/>
<path d="M248.264 0L415.364 0L415.364 1594.04L248.264 1594.04L248.264 0Z" fill="#87c067" fill-rule="nonzero" opacity="1" stroke="none"/>
<path d="M374.196 0L544.041 0L544.041 1594.04L374.196 1594.04L374.196 0Z" fill="#99c066" fill-rule="nonzero" opacity="1" stroke="none"/>
<path d="M498.541 0L624.472 0L624.472 1594.04L498.541 1594.04L498.541 0Z" fill="#aac066" fill-rule="nonzero" opacity="1" stroke="none"/>
<path d="M622.872 0L748.803 0L748.803 1594.04L622.872 1594.04L622.872 0Z" fill="#bcc065" fill-rule="nonzero" opacity="1" stroke="none"/>
<path d="M748.803 0L920.021 0L920.021 1594.04L748.803 1594.04L748.803 0Z" fill="#c0b565" fill-rule="nonzero" opacity="1" stroke="none"/>
<path d="M1502.38 0L1628.31 0L1628.31 1594.04L1502.38 1594.04L1502.38 0Z" fill="#65c0aa" fill-rule="nonzero" opacity="1" stroke="none"/>
<path d="M874.735 0L1002.3 0L1002.3 1594.04L874.735 1594.04L874.735 0Z" fill="#ae9e66" fill-rule="nonzero" opacity="1" stroke="none"/>
<path d="M1628.31 0L1755.87 0L1755.87 1594.04L1628.31 1594.04L1628.31 0Z" fill="#66adae" fill-rule="nonzero" opacity="1" stroke="none"/>
<path d="M1001.99 0L1137.93 0L1137.93 1594.04L1001.99 1594.04L1001.99 0Z" fill="#9c9a7c" fill-rule="nonzero" opacity="1" stroke="none"/>
<path d="M1755.57 0L1892.81 0L1892.81 1594.04L1755.57 1594.04L1755.57 0Z" fill="#669bb3" fill-rule="nonzero" opacity="1" stroke="none"/>
<path d="M1127.93 0L1253.86 0L1253.86 1594.04L1127.93 1594.04L1127.93 0Z" fill="#89a692" fill-rule="nonzero" opacity="1" stroke="none"/>
<path d="M1881.5 0L2007.43 0L2007.43 1594.04L1881.5 1594.04L1881.5 0Z" fill="#6789b7" fill-rule="nonzero" opacity="1" stroke="none"/>
<path d="M1252.83 0L1378.76 0L1378.76 1594.04L1252.83 1594.04L1252.83 0Z" fill="#77b3a8" fill-rule="nonzero" opacity="1" stroke="none"/>
<path d="M2006.41 0L2132.34 0L2132.34 1594.04L2006.41 1594.04L2006.41 0Z" fill="#6877bb" fill-rule="nonzero" opacity="1" stroke="none"/>
<path d="M1377.74 0L1503.67 0L1503.67 1594.04L1377.74 1594.04L1377.74 0Z" fill="#65c0be" fill-rule="nonzero" opacity="1" stroke="none"/>
<path d="M2131.32 0L2257.25 0L2257.25 1594.04L2131.32 1594.04L2131.32 0Z" fill="#6965c0" fill-rule="nonzero" opacity="1" stroke="none"/>
<path d="M2256.34 0L2387.46 0L2387.46 1594.04L2256.34 1594.04L2256.34 0Z" fill="#7765c0" fill-rule="nonzero" opacity="1" stroke="none"/>
<path d="M2382.27 0L2517.59 0L2517.59 1594.04L2382.27 1594.04L2382.27 0Z" fill="#7b61ae" fill-rule="nonzero" opacity="1" stroke="none"/>
<path d="M2508.2 0L2636.38 0L2636.38 1594.04L2508.2 1594.04L2508.2 0Z" fill="#8c5d9d" fill-rule="nonzero" opacity="1" stroke="none"/>
<path d="M2634.13 1.67797e-13L2760.06 1.67797e-13L2760.06 1594.04L2634.13 1594.04L2634.13 1.67797e-13Z" fill="#9e598b" fill-rule="nonzero" opacity="1" stroke="none"/>
<path d="M2756.05 3.35595e-13L2888.26 3.35595e-13L2888.26 1594.04L2756.05 1594.04L2756.05 3.35595e-13Z" fill="#b05579" fill-rule="nonzero" opacity="1" stroke="none"/>
<path d="M2886.59 0L3011.6 0L3011.6 1594.04L2886.59 1594.04L2886.59 0Z" fill="#b95371" fill-rule="nonzero" opacity="1" stroke="none"/>
</g>
</g>
</g>
</svg>
