
<svg stroke-miterlimit="10" style={{fillRule: 'nonzero', clipRule: 'evenodd', strokeLinecap: 'round', strokeLinejoin: 'round'}} viewBox="0 0 800 600" width="100%" xmlns="http://www.w3.org/2000/svg">

<g id="Layer-1">
<g opacity="1">
<path d="M419.406 48.3438C418.133 55.0695 416.092 61.5236 413.156 67.7188C408.062 78.4698 400.884 88.0427 394.312 97.9062C389.148 105.658 384.057 113.491 378.125 120.688C372.266 127.796 365.579 134.259 357.312 138.5C348.367 143.09 338.377 145.102 328.469 146.281C306.303 148.919 284.073 146.038 263.688 136.781C254.391 132.56 245.716 127.149 237.625 120.938C214.193 102.949 193.375 79.1843 164.188 70.5C153.193 67.2288 141.719 66.7266 130.344 67.625C127.072 67.8834 123.803 68.1493 120.562 68.6875C109.848 70.4671 99.1489 73.9803 89.75 79.4688C78.2374 86.1915 68.6992 96.2467 65.6875 109.562C65.0196 112.515 64.696 115.536 64.6875 118.562C64.6738 123.44 65.5386 128.199 66.875 132.875C68.2261 137.616 73.1649 140.351 77.9062 139C82.6476 137.649 85.3823 132.71 84.0312 127.969C83.0795 124.617 82.4497 121.217 82.5938 117.719C83.0854 105.781 92.691 97.7894 102.625 92.8125C109.317 89.4596 116.523 87.297 123.812 85.6875C133.96 83.4468 144.586 82.3967 154.938 83.8125C159.177 84.3923 163.344 85.4823 167.375 86.9062C186.379 93.6201 202.31 107.306 218.062 119.438C223.563 123.673 229.091 127.889 234.906 131.688C244.013 137.636 253.677 142.727 263.906 146.469C284.929 154.159 307.246 155.785 329.281 152.188C339.149 150.577 349.039 148.156 357.938 143.469C376.716 133.578 387.255 113.891 397.938 96.4688C403.619 87.2031 409.677 78.1068 413.938 68.0625C416.629 61.7174 418.407 55.1529 419.406 48.3438Z" fill="#5a525c" stroke="none"/>
</g>
<g opacity="1">
<path d="M168.125 171.125C162.377 171.407 156.588 172.419 151.094 174.125C144.409 176.201 137.966 179.403 132.875 184.281C124.042 192.744 120.654 204.687 117.562 216.125C116.266 220.882 119.087 225.798 123.844 227.094C128.6 228.39 133.516 225.569 134.812 220.812C136.14 215.978 137.402 211.089 139.375 206.469C140.826 203.071 142.638 199.817 145.312 197.219C150.14 192.53 157.661 190.364 164.094 189.125C172.489 187.508 181.061 187.185 189.531 188.438C196.402 189.454 202.719 191.512 208.344 195.656C215.986 201.287 222.256 208.481 228.469 215.594C230.887 218.362 233.274 221.158 235.75 223.875C237.302 225.578 238.938 227.211 240.531 228.875C241.527 229.915 242.489 231.038 243.531 232.031C244.899 233.335 246.405 234.494 247.844 235.719C249.259 236.924 250.647 238.177 252.094 239.344C253.978 240.863 256.085 242.153 258.188 243.344C266.995 248.33 276.943 251.266 286.875 252.969C303.524 255.822 321.383 255.499 337.719 251C349.336 247.8 361.023 242.183 368.5 232.406C373.423 225.97 376.35 218.193 378.438 210.438C380.525 202.681 381.784 194.733 383.562 186.906C384.229 183.972 385.031 181.084 385.844 178.188C384.875 181.041 383.918 183.882 383.094 186.781C380.906 194.475 379.211 202.299 376.719 209.906C374.323 217.221 371.17 224.591 366.125 230.5C358.68 239.221 347.49 243.824 336.531 246.219C320.068 249.816 302.115 248.941 285.844 244.75C277.559 242.616 269.317 239.555 262.188 234.75C260.9 233.882 259.585 232.957 258.438 231.906C257.477 231.026 256.563 230.091 255.625 229.188C254.069 227.689 252.4 226.245 250.938 224.656C249.47 223.062 248.117 221.313 246.719 219.656C239.046 210.562 232.42 200.621 224.25 191.938C220.561 188.017 216.598 184.169 212.094 181.188C206.646 177.581 200.432 175.199 194.125 173.594C187.902 172.01 181.596 171.309 175.188 171.125C172.836 171.058 170.477 171.01 168.125 171.125Z" fill="#5a525c" stroke="none"/>
</g>
<g opacity="1">
<path d="M413.562 125.562C410.013 125.862 406.519 126.48 403.031 127.188C395.433 128.729 387.908 131.423 381.312 135.531C374.802 139.587 369.31 144.986 364.375 150.812C356.063 160.626 349.505 171.737 346.562 184.344C345.436 189.144 348.419 193.936 353.219 195.062C358.019 196.189 362.811 193.237 363.938 188.438C366.164 179.007 371.161 170.806 377.25 163.375C381.214 158.538 385.541 153.931 390.812 150.5C394.495 148.103 398.507 146.506 402.625 145.031C405.21 144.105 407.785 143.206 410.469 142.594C416.694 141.175 423.274 140.659 429.594 141.719C433.955 142.45 438.171 143.906 442.125 145.875C453.413 151.497 462.432 160.807 470.938 169.906C482.422 182.193 493.419 195.144 507.125 205.062C515.217 210.919 524.391 215.641 534.188 217.812C545.774 220.381 557.793 219.545 569.562 220.25C581.005 220.936 593.713 222.106 603.875 215.719C608.917 212.55 612.999 208.063 616.312 203.156C621.405 195.615 624.855 187.019 627.375 178.312C631.086 165.491 633.032 151.979 632.812 138.625C632.452 149.934 630.483 161.208 627.312 172.062C624.964 180.101 621.901 188.043 617.656 195.281C613.084 203.077 606.683 210.883 597.906 214.031C592.459 215.985 586.415 215.939 580.719 215.594C576.167 215.318 571.659 214.717 567.125 214.25C564.085 213.937 561.048 213.745 558 213.531C551.096 213.047 544.113 212.59 537.375 210.906C533.465 209.929 529.727 208.523 526.125 206.719C503.478 195.378 489.442 172.772 473.031 154.438C467.035 147.739 460.572 141.338 453.125 136.25C447.4 132.339 441.106 129.261 434.406 127.438C427.647 125.598 420.543 124.973 413.562 125.562Z" fill="#5a525c" stroke="none"/>
</g>
<g opacity="1">
<path d="M671.594 39.4062C673.146 43.3449 674.198 47.412 674.438 51.6562C674.995 61.5484 671.259 71.051 667.344 79.9375C662.001 92.0633 654.173 103.886 641.969 109.906C637.075 112.321 631.715 113.711 626.281 114.156C623.557 114.38 620.825 114.337 618.094 114.312C614.353 114.28 610.598 114.158 606.875 113.781C599.28 113.013 591.74 111.212 585.031 107.469C577.733 103.397 571.631 97.5095 565.812 91.5938C558.068 83.7197 550.604 75.384 541.594 68.9062C529.782 60.414 514.464 55.1367 500.031 59.4688C496.376 60.5659 492.888 62.2072 489.688 64.2812C484.832 67.428 480.636 71.4866 477 75.9688C471.33 82.957 467.146 90.97 463.5 99.1562C461.483 103.655 463.501 108.952 468 110.969C472.499 112.986 477.764 110.967 479.781 106.469C482.519 100.402 485.555 94.4559 489.531 89.0938C492.139 85.5776 495.108 82.2777 498.656 79.6875C500.717 78.183 502.973 76.9624 505.375 76.0938C507.497 75.3264 509.81 74.7665 512.062 74.5938C514.88 74.3777 517.847 74.7728 520.594 75.375C529.361 77.2976 536.999 82.398 543.875 87.9688C545.576 89.347 547.225 90.7795 548.875 92.2188C551.002 94.0739 553.106 95.942 555.219 97.8125C557.808 100.105 560.416 102.405 563.094 104.594C566.704 107.545 570.451 110.353 574.438 112.781C577.992 114.946 581.727 116.802 585.656 118.188C593.94 121.109 602.765 121.913 611.5 121.781C614.87 121.73 618.265 121.537 621.625 121.281C624.719 121.046 627.75 120.717 630.781 120.031C636.187 118.809 641.4 116.701 646.094 113.75C659.166 105.532 666.287 91.5388 671.156 77.375C673.996 69.116 676.319 60.3982 675.25 51.5938C674.732 47.3275 673.417 43.2789 671.594 39.4062Z" fill="#5a525c" stroke="none"/>
</g>
<g opacity="1">
<path d="M518.562 241.906C514.732 241.957 510.908 242.208 507.125 242.719C504.768 243.037 502.448 243.495 500.125 244C497.814 244.503 495.496 245.03 493.25 245.781C485.16 248.485 477.577 253.187 472 259.688C470.066 261.942 468.379 264.386 466.969 267C464.991 270.667 463.588 274.616 462.719 278.688C461.383 284.949 461.359 291.343 462 297.688C462.487 302.594 466.875 306.174 471.781 305.688C476.687 305.201 480.268 300.844 479.781 295.938C479.345 291.447 479.281 286.9 480.25 282.469C480.783 280.034 481.614 277.672 482.781 275.469C486.265 268.894 492.569 264.821 499.25 262C500.91 261.299 502.562 260.576 504.281 260.031C506.463 259.34 508.728 258.862 510.969 258.406C512.952 258.003 514.962 257.671 516.969 257.406C519.448 257.079 521.909 256.848 524.406 256.719C527.798 256.543 531.2 256.538 534.594 256.656C538.765 256.802 542.927 257.152 547.062 257.719C551.979 258.392 556.861 259.314 561.656 260.594C565.028 261.493 568.158 263.2 571.125 265C574.857 267.264 578.419 269.816 581.906 272.438C586.357 275.782 590.704 279.264 595.094 282.688C598.456 285.31 601.843 287.916 605.281 290.438C607.853 292.324 610.436 294.174 613.094 295.938C615.258 297.374 617.475 298.754 619.719 300.062C631.49 306.927 646.101 312.566 659.25 305.938C661.838 304.633 664.209 302.925 666.344 300.969C669.246 298.31 671.708 295.205 673.844 291.906C677.721 285.917 680.55 279.251 683.062 272.594C686.563 263.32 689.5 253.768 690.25 243.844C688.901 253.634 685.411 262.928 681.375 271.906C678.534 278.226 675.378 284.535 671.25 290.125C669.092 293.047 666.673 295.774 663.844 298.062C661.883 299.648 659.727 301.005 657.406 302C646.066 306.862 634.085 301.336 624.531 295.094C612.119 286.983 601.454 276.453 590.344 266.719C583.898 261.072 577.233 255.201 569.531 251.312C565.194 249.123 560.403 247.818 555.719 246.594C550.952 245.348 546.116 244.362 541.25 243.594C537.533 243.007 533.784 242.563 530.031 242.281C526.231 241.996 522.393 241.856 518.562 241.906Z" fill="#5a525c" stroke="none"/>
</g>
<g opacity="1">
<path d="M301.781 281.062C293.721 281.315 286.2 284.161 279.219 288.031C270.613 292.802 263.205 299.612 257.625 307.719C250.422 318.185 246.189 331.458 249.906 344C250.761 346.884 252.041 349.586 253.594 352.156C256.14 356.378 261.622 357.734 265.844 355.188C270.065 352.641 271.422 347.159 268.875 342.938C264.73 336.053 266.476 328.415 270.094 321.625C273.542 315.153 278.611 309.741 284.25 305.125C289.012 301.227 294.399 297.91 300.469 296.531C308.198 294.775 316.571 297.731 323.75 300.406C327.144 301.671 330.559 302.939 333.844 304.469C340.844 307.728 347.03 312.406 350.969 319.156C353.913 324.202 355.485 329.867 357.094 335.438C358.97 341.934 360.963 348.412 364.344 354.312C373.22 369.803 391.77 381.345 409.938 377.188C413.424 376.39 416.774 375.059 419.875 373.281C425.153 370.256 429.687 365.96 433.188 361C437.924 354.288 440.806 346.408 441.875 338.281C443.386 326.79 443.566 315.101 443.281 303.531C442.901 314.724 442.014 325.931 440.062 336.969C438.653 344.94 435.502 352.584 430.438 358.938C426.684 363.647 421.872 367.595 416.344 370.031C413.484 371.292 410.503 372.074 407.406 372.469C391.935 374.44 376.905 362.605 370.844 349.094C367.239 341.058 366.303 332.219 363.906 323.812C361.911 316.813 358.815 310.207 353.969 304.719C348 297.959 340.431 293.704 332.375 289.906C328.662 288.156 324.961 286.406 321.125 284.938C314.97 282.582 308.421 280.855 301.781 281.062Z" fill="#5a525c" stroke="none"/>
</g>
<g opacity="1">
<path d="M552.188 320.656C549.717 320.737 547.246 320.906 544.781 321.188C540.2 321.71 535.766 322.522 531.469 324.25C527.343 325.909 523.552 328.426 519.969 331.031C515.696 334.138 511.726 337.665 508.062 341.469C502.066 347.694 496.897 354.614 491.531 361.375C488.458 365.23 489.083 370.864 492.938 373.938C496.792 377.011 502.395 376.355 505.469 372.5C512.628 363.564 519.543 354.253 528.5 347C530.135 345.676 531.828 344.407 533.562 343.219C535.093 342.17 536.594 341.157 538.281 340.375C543.35 338.026 548.93 337.129 554.438 336.562C562.793 335.703 571.228 335.9 579.594 336.5C597.37 337.776 615.108 341.007 632.375 345.375C638.971 347.043 645.509 348.892 651.969 351.031C656.517 352.537 661.051 354.151 665.406 356.156C679.44 362.618 689.12 375.956 703.938 381.156C719.971 386.783 738.825 383.811 751.438 372.156C754.08 369.715 756.417 366.956 758.375 363.938C761.623 358.931 763.668 353.383 764.875 347.562C762.938 354.703 759.658 361.334 754.625 366.812C743.783 378.613 727.445 382.737 712.062 378.906C709.261 378.209 706.509 377.287 703.906 376.031C697.204 372.798 691.654 367.672 686.188 362.719C680.517 357.58 674.759 352.48 667.938 348.906C662.905 346.27 657.632 344.067 652.344 342C645.635 339.378 638.837 337.04 631.969 334.875C613.225 328.968 593.936 324.247 574.406 321.875C567.037 320.98 559.599 320.415 552.188 320.656Z" fill="#5a525c" stroke="none"/>
</g>
<g opacity="1">
<path d="M144.188 343.094C137.312 343.415 130.534 345.099 124.438 348.375C121.375 350.021 118.369 351.953 115.75 354.25C111.596 357.893 108.204 362.488 105.719 367.406C103.879 371.048 102.61 374.894 101.406 378.781C99.187 385.946 97.6968 393.36 99.1562 400.844C99.8054 404.172 101.011 407.294 102.469 410.344C104.59 414.794 109.893 416.684 114.344 414.562C118.794 412.441 120.684 407.107 118.562 402.656C117.655 400.746 116.889 398.795 116.594 396.688C115.938 391.998 117.571 387.196 118.938 382.781C120.463 377.855 122.172 373.419 125.375 369.312C126.923 367.328 128.754 365.387 130.75 363.844C132.202 362.721 133.836 361.798 135.469 360.969C145.835 355.703 158.546 356.744 168.969 361.281C171.678 362.461 174.287 363.96 176.594 365.812C184.95 372.525 188.417 382.987 193.062 392.25C196.321 398.748 200.26 404.993 205.625 409.969C219.983 423.284 242.535 424.172 260.594 419.562C263.881 418.723 267.124 417.678 270.281 416.438C274.521 414.772 278.609 412.732 282.469 410.312C291.763 404.487 299.671 396.228 303 385.594C296.365 402.681 278.069 412.238 260.969 415.656C257.781 416.293 254.586 416.726 251.344 416.969C247.39 417.264 243.417 417.247 239.469 416.875C229.357 415.923 218.912 412.633 211.594 405.281C201.359 394.999 199.381 379.989 192.469 367.75C190.256 363.832 187.525 360.219 184.25 357.125C178.697 351.88 171.752 348.298 164.531 345.938C158.051 343.819 151.063 342.772 144.188 343.094Z" fill="#5a525c" stroke="none"/>
</g>
<g opacity="1">
<path d="M387.5 413.938C378.54 413.998 369.531 414.857 361.125 418.062C358.729 418.976 356.432 420.14 354.188 421.375C352 422.579 349.888 423.907 347.938 425.469C341.072 430.965 335.829 438.071 330.906 445.281C326.322 451.996 321.938 458.875 317.312 465.562C314.498 469.61 315.515 475.185 319.562 478C323.61 480.815 329.154 479.798 331.969 475.75C337.699 467.554 343.037 459.068 348.812 450.906C352.133 446.214 355.692 441.73 360.031 437.938C361.29 436.837 362.553 435.773 363.969 434.875C373.245 428.992 384.847 427.802 395.562 427.281C399.271 427.101 402.972 426.874 406.688 426.906C407.768 426.916 408.832 426.972 409.906 427.031C410.102 427.042 409.678 426.915 409.75 426.938C411.672 427.552 413.475 428.661 415.094 429.844C418.16 432.085 420.814 434.835 423.375 437.625C429.492 444.29 434.978 451.766 442.562 456.875C448.811 461.084 455.906 464.129 463.031 466.5C472.192 469.548 481.908 471.576 491.594 471.562C499.583 471.551 508.165 470.037 514.531 464.875C516.33 463.417 517.853 461.664 519.312 459.875C521.352 457.375 523.174 454.696 524.844 451.938C530.485 442.617 534.207 432.31 538.031 422.156C533.314 432.504 528.698 443.084 521.906 452.281C520.068 454.771 518.097 457.156 515.906 459.344C514.85 460.398 513.754 461.39 512.531 462.25C506.116 466.764 497.69 467.301 490.125 466.594C479.997 465.647 470.036 462.438 460.875 458.094C455.889 455.729 450.858 452.985 446.625 449.406C443.053 446.386 440.148 442.696 437.312 439C433.18 433.614 429.274 428.045 424.469 423.219C421.995 420.735 419.19 418.501 416.094 416.844C415.159 416.344 414.202 415.878 413.188 415.562C410.734 414.799 408.039 414.643 405.5 414.469C402.474 414.262 399.437 414.196 396.406 414.094C393.453 413.994 390.487 413.917 387.5 413.938Z" fill="#5a525c" stroke="none"/>
</g>
<g opacity="1">
<path d="M619.062 421.594C610.625 421.332 602.334 424.093 594.938 427.969C590.78 430.148 586.766 432.708 583.062 435.594C581.482 436.825 579.975 438.181 578.469 439.5C576.95 440.83 575.413 442.148 574 443.594C568.187 449.54 563.324 456.573 559.844 464.125C555.553 473.437 553.484 483.928 556.312 493.969C557.646 498.715 562.566 501.49 567.312 500.156C572.059 498.823 574.834 493.871 573.5 489.125C571.54 482.123 574.423 474.573 577.688 468.438C580.219 463.68 583.384 459.331 586.812 455.188C587.862 453.919 588.884 452.62 590 451.406C591.331 449.959 592.778 448.647 594.219 447.312C597.434 444.334 600.911 441.637 604.688 439.406C609.96 436.291 615.952 433.998 622.156 434.469C627.27 434.857 632.268 436.223 637.094 437.906C642.804 439.898 648.318 442.415 653.75 445.062C667.894 451.956 681.597 459.955 696.5 465.156C708.439 469.323 721.85 471.423 733.812 466.188C736.588 464.973 739.207 463.418 741.625 461.594C745.286 458.831 748.455 455.471 751.25 451.844C753.131 449.402 754.837 446.849 756.281 444.125C758.754 439.46 760.578 434.482 762.625 429.625C760.25 434.298 758.097 439.11 755.312 443.562C753.403 446.617 751.161 449.415 748.688 452.031C745.762 455.126 742.481 457.946 738.812 460.125C736.453 461.526 733.936 462.657 731.312 463.469C719.387 467.158 706.882 463.423 695.969 458.344C679.852 450.843 665.433 440.206 649.781 431.844C642.908 428.172 635.748 424.846 628.156 422.969C625.181 422.233 622.131 421.689 619.062 421.594Z" fill="#5a525c" stroke="none"/>
</g>
<g opacity="1">
<path d="M186.219 487.281C172.983 486.724 160.061 490.91 149.406 498.719C145.73 501.413 142.472 504.513 139.406 507.875C138.09 509.318 136.775 510.787 135.594 512.344C130.425 519.156 126.793 527.102 124.312 535.25C122.4 541.531 120.248 547.969 120.594 554.625C120.891 560.335 123.089 565.555 126.188 570.281C128.884 574.409 134.404 575.571 138.531 572.875C142.659 570.179 143.821 564.659 141.125 560.531C139.99 558.786 138.927 556.93 138.594 554.844C138.097 551.738 139.128 548.48 139.969 545.531C140.89 542.301 141.785 539.063 142.938 535.906C144.691 531.102 147.027 526.601 149.75 522.281C150.549 521.013 151.334 519.743 152.219 518.531C153.667 516.55 155.34 514.712 157.062 512.969C161.501 508.477 166.807 504.907 172.719 502.656C175.52 501.59 178.442 500.814 181.406 500.375C185.154 499.819 188.985 499.782 192.75 500.188C197.758 500.727 202.718 501.967 207.469 503.625C212.999 505.555 218.335 508.094 223.094 511.531C225.272 513.105 227.356 514.875 229.156 516.875C234.224 522.506 237.606 529.414 242.062 535.5C245.207 539.794 248.909 543.663 253.375 546.594C256.026 548.333 258.913 549.738 261.844 550.938C277.788 557.462 297.022 556.656 310.438 544.969C312.267 543.374 313.944 541.632 315.438 539.719C317.347 537.273 318.955 534.584 320.219 531.75C323.037 525.432 324.063 518.566 323.906 511.688C323.469 522.055 320.185 532.197 312.781 539.75C300.487 552.292 281.402 553.579 265.906 546.688C262.313 545.089 258.711 543.143 255.719 540.562C247.552 533.522 243.985 523.129 238.156 514.344C234.055 508.162 228.544 503.255 222.312 499.281C211.74 492.54 198.81 487.811 186.219 487.281Z" fill="#5a525c" stroke="none"/>
</g>
<g opacity="1">
<path d="M639.5 510.938C638.761 516.772 637.859 522.58 636.531 528.312C635.465 532.914 634.064 537.444 632.719 541.969C630.927 547.996 629.127 554.085 626.219 559.688C624.647 562.716 622.726 565.628 620.156 567.906C613.006 574.246 603.171 572.41 594.438 572.375C588.701 572.352 582.94 572.707 577.219 572.125C574.144 571.812 571.02 571.251 568.188 569.969C564.388 568.248 560.802 565.907 557.344 563.594C551.829 559.905 546.648 555.771 541.5 551.594C535.763 546.938 530.125 542.153 524.188 537.75C514.869 530.84 504.701 524.769 493.5 521.5C488.454 520.027 483.273 519.048 478.062 518.375C473.972 517.847 469.842 517.527 465.719 517.406C462.307 517.307 458.903 517.367 455.5 517.625C452.504 517.852 449.498 518.039 446.531 518.531C431.599 521.01 415.966 528.247 409.188 542.594C408.019 545.066 407.124 547.7 406.562 550.375C405.666 554.643 405.611 558.954 406.031 563.281C406.502 568.189 410.874 571.784 415.781 571.312C420.689 570.841 424.284 566.47 423.812 561.562C423.575 559.048 423.559 556.544 424.094 554.062C426.059 544.938 434.859 540.13 443.031 537.406C453.494 533.919 464.69 532.626 475.688 533C483.768 533.275 491.787 534.468 499.375 537.344C515.89 543.601 529.649 555.28 544.125 565.062C548.961 568.33 553.967 571.353 559.188 573.969C561.216 574.985 563.278 576.019 565.406 576.812C574.718 580.286 584.928 578.495 594.562 577.938C604.073 577.387 614.117 578.422 621.812 571.594C625.045 568.725 627.294 564.949 629.031 561.031C631.661 555.101 633.167 548.765 634.625 542.469C635.696 537.844 636.839 533.216 637.625 528.531C638.602 522.707 639.12 516.827 639.5 510.938Z" fill="#5a525c" stroke="none"/>
</g>
<g opacity="1">
<path d="M692.344 184.906C686.005 184.705 679.666 185.924 673.594 187.656C669.791 188.741 666.083 190.094 662.438 191.625C659.901 192.69 657.38 193.828 654.938 195.094C653.076 196.059 651.32 197.158 649.531 198.25C647.733 199.348 645.942 200.396 644.25 201.656C634.123 209.198 625.331 220.548 624.875 233.625C624.786 236.164 625.021 238.672 625.531 241.156C626.518 245.987 631.232 249.08 636.062 248.094C640.893 247.107 644.018 242.393 643.031 237.562C641.419 229.593 647.38 222.5 652.75 217.375C654.731 215.484 656.797 213.553 658.938 211.844C660.283 210.77 661.714 209.798 663.125 208.812C667.794 205.552 672.807 202.79 678.062 200.594C683.027 198.519 688.307 196.866 693.719 196.656C696.175 196.561 698.634 196.756 701.031 197.312C707.598 198.836 712.843 203.146 717.594 207.719C722.489 212.43 727.102 217.46 732.469 221.656C736.766 225.017 741.487 227.792 746.5 229.938C764.404 237.599 786.574 238.31 803.656 228.156C788.56 235.394 770.622 234.471 755.312 228.312C748.493 225.569 742.122 221.696 736.781 216.625C727.322 207.644 720.917 195.449 709.062 189.156C707.064 188.095 704.945 187.224 702.781 186.562C699.402 185.53 695.872 185.018 692.344 184.906Z" fill="#5a525c" stroke="none"/>
</g>
<g opacity="1">
<path d="M655.719 463.219C650.179 462.949 644.562 463.611 639.25 465.125C637.113 465.734 635.047 466.517 633 467.375C630.942 468.237 628.927 469.149 627 470.281C617.207 476.033 609.529 485.442 605.938 496.219C603.877 502.403 603.227 508.893 603.75 515.375C604.137 520.29 608.429 523.949 613.344 523.562C618.259 523.176 621.949 518.884 621.562 513.969C621.288 510.371 621.51 506.794 622.5 503.312C624.521 496.205 629.209 490.2 635.062 485.781C636.668 484.569 638.368 483.327 640.125 482.344C642.793 480.851 645.77 479.726 648.719 478.938C657.572 476.569 667.493 477.788 675.188 482.906C681.539 487.131 685.666 493.92 689.031 500.594C693.934 510.317 697.616 520.844 704.25 529.594C716.153 545.293 737.292 552.066 756.375 548.688C766.35 546.922 775.921 542.243 782.656 534.562C785.148 531.721 787.148 528.541 788.75 525.125C784.471 532.704 777.996 538.536 770 542.031C764.051 544.632 757.514 545.873 751.031 545.906C745.448 545.935 739.847 545.079 734.531 543.375C724.743 540.237 715.855 534.117 710.281 525.375C706.952 520.155 704.72 514.285 702.594 508.5C698.386 497.056 694.461 484.826 685.656 475.969C683.132 473.429 680.281 471.296 677.188 469.5C672.274 466.647 666.827 464.691 661.219 463.781C659.401 463.487 657.565 463.309 655.719 463.219Z" fill="#5a525c" stroke="none"/>
</g>
<g opacity="1">
<path d="M212 239.375C210.979 245.25 209.887 251.129 207.938 256.781C206.379 261.3 204.185 265.53 201.906 269.719C198.385 276.192 193.719 282.093 186.844 285.188C182.186 287.284 177.118 287.789 172.062 287.844C167.65 287.891 163.229 287.49 158.938 286.438C153.326 285.061 148.118 282.525 143.438 279.156C139.013 275.971 135.091 272.162 131.375 268.188C128.65 265.273 125.951 262.288 123.438 259.188C118.993 253.706 114.85 247.82 108.562 244.281C107.103 243.46 105.53 242.71 103.906 242.281C100.532 241.39 96.9056 241.735 93.5 242.188C87.1483 243.031 80.9722 245.02 75.1875 247.75C67.5151 251.371 60.7529 256.203 54.9062 262.344C53.5782 263.739 52.2622 265.147 51.0625 266.656C44.2021 275.289 40.1639 286.291 39.375 297.25C38.8776 304.159 39.711 310.998 41.4375 317.688C42.6603 322.464 47.5052 325.348 52.2812 324.125C57.0573 322.902 59.9416 318.026 58.7188 313.25C57.4961 308.429 56.9066 303.538 57.2812 298.562C57.8851 290.544 60.7682 283.486 65.0312 276.75C65.7919 275.548 66.5368 274.317 67.4062 273.188C71.6164 267.72 77.2439 263.047 83.25 259.688C87.5947 257.257 92.1731 255.433 97.0625 254.469C97.4842 254.386 97.9185 254.313 98.3438 254.25C98.756 254.189 99.1796 254.14 99.5938 254.094C100.02 254.046 100.762 253.899 101.156 254C103.902 254.704 106.274 256.407 108.375 258.25C111.565 261.048 114.297 264.337 117.281 267.344C124.562 274.678 132.317 281.966 141.438 286.969C146.91 289.971 152.872 292.003 159.062 292.844C164.525 293.586 170.071 293.446 175.531 292.75C179.719 292.217 183.823 291.254 187.625 289.375C193.313 286.563 197.845 281.969 201.094 276.562C202.395 274.398 203.446 272.119 204.469 269.812C206.297 265.687 208.031 261.528 209.188 257.156C210.728 251.332 211.409 245.355 212 239.375Z" fill="#5a525c" stroke="none"/>
</g>
<g opacity="1">
<path d="M182.875 426.625C181.503 434.151 179.362 441.553 176.281 448.562C174.134 453.448 171.537 458.18 168.219 462.375C165.814 465.415 163.011 468.181 159.719 470.25C157.621 471.569 155.316 472.6 152.906 473.188C150.887 473.68 148.826 473.878 146.75 473.781C143.13 473.612 139.426 472.662 136.219 470.969C133.609 469.591 131.28 467.794 129 465.938C123.708 461.629 118.9 456.724 113.312 452.781C108.893 449.663 103.837 447.129 98.3438 446.844C92.8947 446.56 87.6252 448.432 82.8125 450.812C77.4473 453.466 72.3847 456.849 67.4062 460.156C58.1332 466.316 49.2576 473.221 41.9062 481.625C40.6449 483.067 39.3517 484.477 38.1875 486C33.4503 492.199 29.9704 499.529 28.0938 507.094C27.2705 510.412 26.7612 513.804 26.5938 517.219C26.347 522.25 26.8929 527.202 27.9062 532.125C28.8905 536.956 33.6066 540.078 38.4375 539.094C43.2684 538.11 46.3905 533.394 45.4062 528.562C44.7119 525.112 44.3071 521.68 44.5 518.156C44.9516 509.904 48.2173 502.786 52.4062 495.812C53.1989 494.493 53.955 493.166 54.8438 491.906C61.1347 482.987 69.2446 475.387 77.7812 468.656C81.9838 465.343 86.2012 461.825 90.9688 459.344C93.4213 458.067 96.1325 457.003 98.9375 457.031C102.015 457.062 105.018 458.443 107.656 459.906C111.896 462.258 115.731 465.29 119.625 468.156C124.268 471.573 129.015 475.079 134.438 477.156C143.698 480.705 154.103 479.665 162.094 473.688C165.546 471.105 168.427 467.826 170.812 464.25C173.903 459.618 176.214 454.502 178.031 449.25C180.56 441.943 182.109 434.313 182.875 426.625Z" fill="#5a525c" stroke="none"/>
</g>
<g opacity="1">
<path d="M403.75 11.0625C390.986 13.4471 378.516 16.6515 368.531 25.4375C363.953 29.4656 360.15 34.3038 356.938 39.4688C353.345 45.2454 350.827 51.4554 348.469 57.8125C345.765 65.1024 343.074 74.5515 335.094 77.625C332.271 78.7121 329.043 78.8031 326.062 78.625C321.877 78.3749 317.638 77.589 313.719 76.0938C303.942 72.3636 297.926 64.2635 292.688 55.625C288.992 49.5305 285.63 43.1625 281.406 37.4062C280.422 36.0649 279.376 34.8095 278.312 33.5312C277.213 32.2092 276.107 30.8586 274.906 29.625C273.008 27.6749 270.893 25.9688 268.625 24.4688C257.365 17.0205 240.577 13.49 229.188 22.625C227.104 24.2958 225.407 26.2811 223.938 28.5C221.219 32.6127 222.356 38.1562 226.469 40.875C230.581 43.5938 236.125 42.4564 238.844 38.3438C239.34 37.5908 239.849 36.9288 240.594 36.4062C242.007 35.4143 243.842 35.1376 245.531 35.125C248.726 35.1011 251.876 35.9538 254.812 37.1562C255.882 37.5941 256.953 38.1048 257.969 38.6562C259.114 39.2784 260.224 39.9553 261.281 40.7188C262.615 41.6814 263.919 42.7606 265.156 43.8438C267.137 45.5786 268.884 47.5962 270.594 49.5938C274.721 54.417 278.301 59.6751 282.188 64.6875C286.059 69.6811 290.224 74.5289 295.219 78.4375C300.247 82.3719 306.025 85.2095 312.25 86.6562C316.701 87.6906 321.399 88.1222 325.969 88C329.03 87.9181 332.093 87.5402 335.031 86.6562C337.111 86.0305 339.108 85.1442 340.938 83.9688C350.789 77.64 352.54 64.8544 355.688 54.5312C357.04 50.0957 358.683 45.8111 360.812 41.6875C363.439 36.6012 366.601 31.7476 370.594 27.625C379.505 18.4233 391.68 14.3302 403.75 11.0625Z" fill="#5a525c" stroke="none"/>
</g>
<g opacity="1">
<path d="M680.719 7.625C679.423 7.60077 678.132 7.65792 676.844 7.8125C674.908 8.04464 672.996 8.51173 671.156 9.15625C659.166 13.358 652.544 24.9738 642.938 32.5C639.401 35.2706 635.356 37.4265 631.469 39.6562C625.771 42.9242 620.096 46.2072 614.812 50.125C610.845 53.0517 610.011 58.6263 612.938 62.5938C615.864 66.5612 621.439 67.4267 625.406 64.5C631.175 60.2699 637.515 56.9496 643.656 53.3125C647.684 50.9273 651.687 48.4662 655.219 45.375C657.938 42.9953 660.493 40.323 662.75 37.5C663.743 36.2576 664.627 34.9498 665.594 33.6875C666.672 32.2803 667.84 30.9283 668.969 29.5625C671.384 26.641 674.048 23.5695 677.719 22.25C680.909 21.1032 684.465 21.3674 687.719 22.0938C692.885 23.247 698.025 25.0813 702.75 27.4688C706.419 29.3226 709.884 31.6583 712.75 34.625C719.502 41.6153 721.542 51.4107 723.062 60.6875C724.53 69.6414 725.768 78.6334 728.5 87.3125C729.669 91.0261 730.936 94.8452 732.969 98.1875C739.417 108.788 753.841 115.572 765.688 110C767.108 109.332 768.516 108.516 769.719 107.5C771.888 105.667 773.428 103.116 774.781 100.656C776.924 96.762 778.558 92.6333 780.531 88.6562C777.618 93.5546 775.276 98.8355 771.656 103.281C770.64 104.53 769.505 105.743 768.125 106.594C758.242 112.685 745.744 108.073 739.188 99.3125C736.224 95.3527 734.92 90.5952 733.812 85.8438C731.25 74.8531 731.395 63.5164 729.938 52.375C729.133 46.2252 727.706 40.1358 724.844 34.5938C718.888 23.0617 707.636 15.9497 695.906 11.25C692.245 9.78318 688.513 8.49785 684.594 7.9375C683.31 7.75394 682.015 7.64923 680.719 7.625Z" fill="#5a525c" stroke="none"/>
</g>
</g>
</svg>
