<?xml version="1.0" encoding="UTF-8" standalone="no"?>
<!DOCTYPE svg PUBLIC "-//W3C//DTD SVG 1.1//EN" "http://www.w3.org/Graphics/SVG/1.1/DTD/svg11.dtd">
<!-- Created with Vectornator (http://vectornator.io/) -->
<svg height="100%" stroke-miterlimit="10" style="fill-rule:nonzero;clip-rule:evenodd;stroke-linecap:round;stroke-linejoin:round;" version="1.1" viewBox="0 0 800 600" width="100%" xml:space="preserve" xmlns="http://www.w3.org/2000/svg" xmlns:xlink="http://www.w3.org/1999/xlink">
<defs/>
<clipPath id="ArtboardFrame">
<rect height="600" width="800" x="0" y="0"/>
</clipPath>
<g clip-path="url(#ArtboardFrame)" id="Layer-1">
<path d="M3.9786 2.00014C3.57858 300.021 3.57858 300.021 3.17855 598.042C401.806 597.641 401.806 597.641 800.434 597.241C800.434 299.221 800.434 299.221 800.434 1.20008C402.206 1.60011 402.206 1.60011 3.9786 2.00014ZM328.401 22.0015C327.801 28.302 327.801 28.302 327.201 34.6024C320.817 33.6398 314.487 32.1999 308.05 31.7147C298.973 31.0306 294.468 35.5244 285.498 38.4027C276.843 41.18 259.024 40.99 253.796 52.6037C247.364 66.8935 243.538 83.6265 248.596 98.4068C253.298 112.148 263.546 123.571 273.46 134.184C270.064 139.201 268.254 145.789 263.272 149.235C258.843 152.298 252.439 150.327 247.396 152.211C231.585 158.117 215.733 179.294 221.094 197.014C224.337 207.735 232.134 217.516 232.232 228.716C216.813 229.278 219.018 220.204 206.143 218.915C198.764 218.176 191.27 220.298 183.904 219.453C181.4 219.165 179.779 216.419 177.391 215.615C164.929 211.419 151.843 209.148 139.538 204.514C133.557 202.262 122.912 192.848 131.487 185.938C137.69 180.94 144.622 176.921 151.189 172.412C148.989 167.812 148.989 167.812 146.789 163.211C150.155 163.645 153.582 165.276 156.889 164.511C157.744 164.314 170.4 156.357 170.694 155.147C172.103 149.354 170.858 142.88 173.34 137.46C175.328 133.12 180.538 131.098 183.441 127.309C189.714 119.123 192.043 102.091 189.792 92.4564C188.381 86.423 186.013 80.4326 182.391 75.4052C166.012 52.6693 148.936 54.5243 123.987 56.0039C123.254 51.3869 124.273 46.1118 121.787 42.1529C117.104 34.6965 109.519 29.5187 103.386 23.2016C215.893 22.6016 215.893 22.6016 328.401 22.0015ZM334.002 22.0015C345.002 22.2015 345.002 22.2015 356.003 22.4016C349.36 34.0268 338.388 36.0394 334.002 22.0015ZM350.203 85.6059C351.426 76.8257 346.172 68.0302 347.002 59.2041C347.313 55.9001 352.6 54.7985 353.403 51.5786C354.066 48.9204 350.032 46.3792 350.853 43.7655C353.102 36.6044 354.509 24.6273 362.003 24.2017C485.815 17.1693 610.021 22.7349 734.029 22.0015C726.429 33.4023 726.429 33.4023 718.828 44.8031C725.501 42.8259 732.816 41.5851 739.63 43.003C729.229 52.5036 729.229 52.5036 718.828 62.0043C725.447 60.7162 731.987 57.3522 738.684 58.14C742.058 58.537 743.581 62.8497 746.03 65.2045C737.029 67.4047 737.029 67.4047 728.029 69.6048C733.879 72.5159 739.47 76.021 745.58 78.3379C758.189 83.1197 758.215 79.9433 770.832 74.4052C762.306 71.9925 762.306 71.9925 753.781 69.5798C756.906 65.392 756.906 65.392 760.031 61.2042C751.831 58.4041 751.831 58.4041 743.63 55.6039C751.624 42.3836 762.881 60.3955 773.072 62.4603C776.209 63.096 778.246 58.6894 780.833 56.8039C780.833 73.4051 780.833 73.4051 780.833 90.0062C760.198 85.7538 738.665 88.4544 717.628 89.6062C720.902 94.5222 727.45 96.79 733.229 98.0068C715.655 115.176 721.406 117.935 741.63 114.808C740.517 117.446 740.862 121.459 738.292 122.721C732.641 125.495 725.85 124.646 719.628 125.609C721.528 127.659 722.635 131.011 725.329 131.759C730.436 133.178 735.929 131.659 741.23 131.609C733.539 147.826 712.115 131.393 702.227 129.809C694.247 128.531 685.746 128.416 678 130.722C670.628 132.916 664.126 137.753 658.374 142.86C648.715 151.436 638.925 160.4 632.172 171.412C627.821 178.507 628.072 187.546 626.022 195.614C627.422 193.013 627.422 193.013 628.822 190.413C631.022 191.413 631.022 191.413 633.222 192.413C633.922 189.413 633.922 189.413 634.622 186.413C639.323 197.714 639.323 197.714 644.023 209.015C641.823 210.115 641.823 210.115 639.623 211.215C649.444 219.462 653.275 233.097 661.924 242.567C672.035 253.637 684.926 261.802 696.427 271.419C684.926 283.12 684.926 283.12 673.425 294.82C667.534 284.688 660.716 285.715 659.224 274.419C663.424 272.819 667.344 269.974 671.825 269.619C675.387 269.337 679.273 272.901 682.426 271.219C673.125 266.218 673.125 266.218 663.824 261.218C651.537 274.107 654.309 264.557 638.423 266.018C637.956 260.768 638.611 255.293 637.023 250.267C634.321 241.72 624.108 251.208 621.621 251.217C616.554 251.238 612.135 246.639 607.07 246.817C593.314 247.302 579.453 249.217 566.268 253.168C555.501 256.393 546.728 265.529 535.616 267.219C539.864 246.904 547.593 223.175 536.816 203.014C527.904 186.343 514.714 170.987 511.214 152.411C512.093 152.574 526.006 157.539 528.578 152.011C531.421 145.897 529.968 138.183 533.365 132.359C536.859 126.372 543.399 122.792 548.416 118.008C545.2 118.242 541.699 120.05 538.766 118.708C536.612 117.723 536.799 114.4 535.816 112.245C538.916 109.526 538.916 109.526 542.016 106.807C537.697 107.164 537.697 107.164 533.378 107.52C533.897 104.964 533.897 104.964 534.415 102.407C529.615 107.007 529.615 107.007 524.815 111.608C523.865 104.891 524.131 97.8851 521.965 91.4563C506.959 46.9316 448.239 40.1866 417.657 71.405C413.641 75.5048 409.654 80.6843 409.207 86.406C408.289 98.1518 413.158 109.691 413.745 121.458C414.229 131.174 412.853 140.893 412.407 150.61C431.684 153.489 419.222 159.227 433.608 162.011C432.408 165.011 432.408 165.011 431.208 168.012C446.601 176.949 436.505 184.259 457.21 187.613C457.923 191.997 461.401 196.826 459.348 200.764C455.899 207.378 448.671 211.269 442.609 215.615C431.229 223.774 429.677 210.993 417.007 207.114C413.312 205.983 409.407 208.514 405.606 209.215C407.007 200.414 407.007 200.414 408.407 191.613C401.259 191.613 403.569 193.241 400.406 188.813C396.414 195.989 393.941 204.252 388.43 210.34C387.027 211.89 372.108 213.367 370.704 209.965C366.692 200.243 369.718 188.533 365.704 178.812C361.176 167.848 351.849 159.524 345.69 149.385C345.637 149.299 339.221 137.629 342.402 134.459C345.05 131.821 348.936 130.826 352.203 129.009C348.303 127.009 348.303 127.009 344.402 125.009C348.364 120.076 352.375 114.614 353.603 108.408C346.402 111.808 346.402 111.808 339.202 115.208C342.869 105.341 348.75 96.032 350.203 85.6059ZM746.83 22.0015C752.703 22.0404 758.776 21.218 764.431 22.8016C757.68 24.2708 751.727 27.5981 746.83 22.0015ZM769.632 22.0015C775.232 22.0015 775.232 22.0015 780.833 22.0015C780.833 36.0025 780.833 36.0025 780.833 50.0035C773.172 49.6809 763.717 48.0596 757.431 43.403C764.536 39.9732 772.192 37.8241 779.632 35.2024C776.184 31.6101 770.3 27.3464 769.632 22.0015ZM23.58 22.4016C40.1978 22.4349 56.8238 21.9792 73.4334 22.5016C85.8889 22.8932 89.5602 23.6625 98.0851 33.2023C100.664 36.0884 103.562 39.3557 103.986 43.203C104.656 49.2882 104.508 56.2125 101.185 61.3543C94.8753 71.1187 80.2758 75.6298 77.4462 86.906C71.5418 110.435 88.713 135.373 81.8965 158.423C75.0862 181.453 52.1966 194.392 45.5315 216.915C42.5404 227.023 39.9698 237.327 38.706 247.792C36.6863 264.517 40.81 282.274 35.3808 298.221C32.2827 307.32 27.6469 315.822 23.78 324.623C23.5135 223.883 23.4465 123.142 23.58 22.4016ZM760.031 31.6022C753.228 38.1214 748.685 41.707 742.63 32.8023C748.143 31.5492 754.446 30.5868 760.031 31.6022ZM340.402 44.4031C340.402 46.6032 340.402 46.6032 340.402 48.8034C338.402 48.8034 338.402 48.8034 336.402 48.8034C336.602 46.7032 336.602 46.7032 336.802 44.6031C339.333 44.35 338.132 44.4031 340.402 44.4031ZM324.001 46.8032C324.001 48.0033 324.001 48.0033 324.001 49.2034C318.846 48.9341 316.711 49.8914 313.925 46.0407C317.291 46.3501 320.625 46.8032 324.001 46.8032ZM269.197 58.4041C269.643 56.3986 269.969 55.2935 271.397 53.8037C280.619 54.313 273.185 58.2711 269.197 58.4041ZM323.201 54.8038C322.406 61.3238 312.746 57.5959 309 56.0039C316.1 55.4038 316.1 55.4038 323.201 54.8038ZM451.91 60.8042C463.062 58.8647 486.246 58.0548 492.413 70.8049C485.266 69.849 479.492 65.5135 472.561 63.8044C461.208 61.005 448.597 66.1722 438.009 69.2048C438.009 62.8536 446.768 61.6984 451.91 60.8042ZM174.378 79.368C172.475 82.1357 155.372 85.6418 151.929 82.0277C146.575 76.4081 143.389 69.0559 138.788 62.8044C139.588 62.3043 139.588 62.3043 140.388 61.8043C148.309 61.5712 180.767 70.0745 174.378 79.368ZM127.187 69.6048C139.646 76.2044 149.317 86.4447 131.587 91.6064C116.385 96.0325 107.146 95.3114 114.186 77.6054C115.675 73.8616 116.448 68.7628 120.187 67.2047C123.555 65.801 122.574 67.1611 127.187 69.6048ZM477.499 71.6425C497.602 79.7299 510.513 90.569 511.614 113.208C503.556 109.957 505.812 101.184 500.626 95.3316C484.562 77.205 476.768 75.0237 453.21 76.0053C455.106 67.606 471.62 69.2775 477.499 71.6425ZM109.586 71.605C109.025 74.1093 106.491 86.4166 104.948 90.9813C96.7451 115.244 71.4799 95.6546 86.3843 81.9557C90.778 77.9174 95.5422 75.7043 100.985 73.4051C107.761 71.705 107.761 71.705 109.586 71.605ZM277.598 73.4051C278.198 77.3054 278.198 77.3054 278.798 81.2056C280.198 77.8054 280.198 77.8054 281.598 74.4052C284.724 77.4333 282.965 75.2502 285.198 82.0057C286.581 76.9599 285.675 79.5034 287.998 74.4052C290.222 77.1117 289.047 75.2099 289.998 80.8056C292.851 74.6065 290.997 76.4712 293.999 74.0051C294.599 77.4054 294.599 77.4054 295.199 80.8056C296.599 77.8054 296.599 77.8054 297.999 74.8052C300.342 77.8515 299.321 75.9548 300.399 80.8056C301.899 78.0054 301.899 78.0054 303.399 75.2052C304.299 78.4054 304.299 78.4054 305.2 81.6057C307.803 77.1082 306.067 78.4111 309.6 76.8053C309.6 79.2055 309.6 79.2055 309.6 81.6057C311.6 80.0056 311.6 80.0056 313.6 78.4054C313.4 80.8056 313.4 80.8056 313.2 83.2058C315.2 82.2057 315.2 82.2057 317.2 81.2056C316.717 88.9402 290.433 94.3288 282.748 93.244C274.752 92.1153 266.78 90.8188 258.796 89.6062C261.196 83.0058 261.196 83.0058 263.597 76.4053C266.197 78.6055 266.197 78.6055 268.797 80.8056C270.197 77.6054 270.197 77.6054 271.597 74.4052C271.997 77.8054 271.997 77.8054 272.397 81.2056C275.607 75.8563 273.875 78.4571 277.598 73.4051ZM334.802 81.2056C339.839 83.5144 343.635 97.2743 336.127 94.5441C332.828 93.3446 333.668 86.4477 337.202 86.006C336.002 83.6058 336.002 83.6058 334.802 81.2056ZM492.413 94.2065C487.46 93.897 473.842 91.3023 470.411 88.6062C476.045 84.2245 487.082 91.4761 492.413 94.2065ZM171.84 99.6069C154.453 105.696 134.938 108.379 117.086 113.008C110.932 114.603 99.8452 117.419 91.9847 117.608C88.7524 117.686 76.7866 112.964 85.7343 110.908C92.2814 109.403 98.9645 108.554 105.536 107.157C113.402 105.486 121.257 103.743 129.037 101.707C141.607 98.4182 154.007 94.331 166.79 92.0064C188.12 88.1275 180.87 96.4448 171.84 99.6069ZM780.833 95.2066C780.633 119.208 780.633 119.208 780.433 143.21C773.582 133.419 757.556 142.648 752.831 132.409C760.355 130.685 768.504 131.577 775.632 128.409C769.43 120.034 764.449 121.632 753.231 119.958C753.789 106.194 765.507 119.867 769.307 117.171C771.103 115.896 776.011 108.879 777.232 107.207C770.207 104.214 762.815 101.797 756.431 97.6068C764.554 96.7042 772.691 95.925 780.833 95.2066ZM306.4 104.407C306.4 101.682 306.133 99.2564 307.4 96.8067C321.922 96.9409 314.515 104.407 306.4 104.407ZM267.197 97.2067C266.597 102.207 266.597 102.207 265.997 107.207C254.918 104.544 257.542 99.4349 267.197 97.2067ZM476.811 99.6069C486.192 100.71 495.529 105.74 496.813 116.008C488.717 111.685 486.048 104.302 476.411 104.007C476.611 101.807 476.611 101.807 476.811 99.6069ZM271.997 110.008C272.897 107.507 272.897 107.507 273.797 105.007C278.972 95.3988 286.642 107.739 271.997 110.008ZM759.231 108.408C747.43 108.308 747.43 108.308 735.629 108.208C744.676 101.649 750.701 101.19 759.231 108.408ZM440.409 103.607C436.882 108.738 432.052 112.848 427.608 117.208C426.653 109.568 433.749 104.717 440.409 103.607ZM291.999 115.608C290.547 124.318 279.275 120.503 282.598 111.008C286.637 114.048 287.49 115.232 291.999 115.608ZM156.789 113.208C161.308 114.281 165.648 114.065 167.19 118.808C162.513 118.808 157.406 118.761 156.789 113.208ZM478.412 138.81C478.371 134.074 479.445 129.122 478.012 124.609C476.51 119.882 470.394 120.355 472.411 114.808C485.721 116.61 488.434 135.051 478.412 138.81ZM329.601 131.009C325.334 135.845 323.734 123.969 327.201 121.408C332.849 117.238 331.964 128.331 329.601 131.009ZM455.36 130.559C448.516 138.715 440.14 128.684 445.209 122.008C448.724 117.379 460.261 124.718 455.36 130.559ZM121.187 125.609C108.914 126.331 114.205 132.911 109.186 141.61C99.5072 135.432 110.78 113.901 121.187 125.609ZM143.588 122.809C146.388 122.809 146.388 122.809 149.189 122.809C148.567 127.33 148.792 127.317 144.788 128.409C144.188 125.609 144.188 125.609 143.588 122.809ZM298.799 123.609C297.604 129.585 291.604 129.506 286.198 128.809C285.631 123.706 295.825 124.046 298.799 123.609ZM432.808 129.209C432.914 126.801 432.273 126.261 434.208 125.809C446.75 122.881 432.272 141.413 432.808 129.209ZM152.789 135.634C153.089 134.022 153.089 134.022 153.389 132.409C162.676 127.341 161.815 140.147 152.789 135.634ZM315.513 142.21C306.671 148.092 287.815 154.66 283.198 140.81C291.838 141.037 298.014 140.837 305.8 137.01C317.698 131.688 320.071 139.177 315.513 142.21ZM141.188 135.609C145.682 136.059 148.075 137.942 149.989 142.01C142.709 141.891 142.123 142.153 141.188 135.609ZM689.026 144.81C706.61 143.422 721.877 145.423 730.829 162.811C722.977 161.058 717.863 153.879 710.628 150.41C699.897 145.266 683.283 148.671 672.425 149.61C677.073 144.963 682.512 145.324 689.026 144.81ZM337.052 147.36C337.327 152.486 337.327 152.486 337.602 157.611C329.634 157.611 330.079 148.91 337.052 147.36ZM780.833 147.21C780.633 224.816 780.633 224.816 780.433 302.421C777.844 297.49 780.384 291.997 776.982 287.27C774.701 284.101 772.35 280.966 769.732 278.069C763.891 271.606 757.432 265.717 751.631 259.218C749.115 256.4 745.153 251.314 745.43 246.817C745.902 239.141 754.72 235.667 755.681 227.916C756.489 221.396 753.254 214.97 752.831 208.414C752.761 207.336 754.036 206.596 754.831 205.864C759.982 201.118 765.724 197.01 770.632 192.013C774.05 188.533 769.431 182.285 768.032 177.612C758.231 184.413 758.231 184.413 748.43 191.213C748.206 173.806 746.937 162.571 737.23 148.01C751.588 145.743 766.296 147.283 780.833 147.21ZM456.01 157.611C451.828 156.217 447.747 154.818 446.409 150.21C454.133 148.601 456.01 149.958 456.01 157.611ZM142.388 151.21C140.349 155.698 136.193 156.902 131.587 157.611C133.865 151.586 136.227 151.21 142.388 151.21ZM90.7846 152.811C102.624 159.539 117.343 169.872 119.987 184.413C109.633 179.535 89.943 165.436 90.7846 152.811ZM464.511 179.612C471.72 169.375 489.521 158.86 502.013 156.411C501.521 169.711 495.145 167.342 485.262 175.012C478.896 179.953 474.57 187.057 467.611 191.213C466.164 187.481 462.206 182.885 464.511 179.612ZM300.799 165.611C301.421 161.829 307.739 159.213 311.4 157.811C321.72 164.992 302.726 165.555 300.799 165.611ZM724.429 178.412C713.635 173.375 710.056 165.703 697.414 165.311C690.554 165.099 683.688 165.245 676.825 165.211C681.635 151.127 723.136 161.089 724.429 178.412ZM234.795 178.812C235.397 174.797 235.56 171.67 238.795 169.012C248.586 172.628 239.476 177.809 234.795 178.812ZM320.551 177.412C315.522 181.827 315.47 170.472 319.801 168.412C325.544 165.68 323.07 175.2 320.551 177.412ZM263.997 168.812C268.899 170.497 268.397 172.429 268.397 177.212C276.097 175.512 276.097 175.512 283.798 173.812C281.698 177.382 277.939 179.818 274.797 182.413C279.856 185.818 281.346 185.681 279.848 191.151C276.525 190.696 273.892 188.009 271.197 186.013C269.193 189.432 268.503 192.361 265.197 194.013C262.823 186.722 265.289 176.89 263.997 168.812ZM328.001 171.212C335.033 174.408 335.897 184.275 327.201 185.613C327.601 178.412 327.601 178.412 328.001 171.212ZM714.828 188.413C697.778 180.835 704.303 180.012 682.426 180.012C687.697 168.151 717.391 176.189 714.828 188.413ZM246.795 179.212C246.524 182.354 244.56 181.854 241.995 181.213C243.464 178.642 242.264 179.892 246.795 179.212ZM359.203 179.812C359.739 184.098 359.796 185.995 355.203 186.413C355.356 181.245 354.56 180.586 359.203 179.812ZM643.623 180.012C643.823 186.813 643.823 186.813 644.023 193.613C639.277 189.659 639.686 184.386 643.623 180.012ZM653.624 182.013C653.899 186.538 654.615 191.19 653.624 195.614C648.829 191.884 646.555 184.133 653.624 182.013ZM341.602 184.813C347.087 185.978 347.007 185.95 347.202 191.613C341.695 191.387 341.956 189.774 341.602 184.813ZM496.813 198.014C486.783 203.609 489.181 195.18 497.813 189.813C516.498 178.197 501.553 195.369 496.813 198.014ZM665.225 197.614C660.886 196.65 659.981 194.794 659.824 190.413C665.277 185.534 664.95 195.232 665.225 197.614ZM248.146 190.051C251.956 193.29 244.406 196.27 242.395 191.013C241.223 187.949 246.51 188.661 248.146 190.051ZM316.55 202.514C306.857 207.571 311.741 194.31 316.8 191.613C322.552 188.548 320.143 200.64 316.55 202.514ZM709.628 201.214C704.412 200.643 688.047 197.265 686.426 193.213C695.137 190.31 706.196 190.919 709.628 201.214ZM98.7852 191.613C103.036 192.299 107.633 192.597 111.586 194.413C108.13 199.943 101.41 195.55 98.7852 191.613ZM327.101 194.313C328.169 202.586 328.236 209.056 319.601 211.215C319.842 205.282 322.585 198.298 327.101 194.313ZM239.995 198.014C243.53 199.621 244.081 201.591 245.195 205.214C240.584 204.15 239.352 202.838 239.995 198.014ZM359.603 208.127C355.742 212.835 354.555 203.971 355.203 202.214C358.006 194.617 362.015 205.186 359.603 208.127ZM228.794 202.414C232.388 202.85 232.515 205.34 232.794 208.414C229.582 206.254 229.443 205.984 228.794 202.414ZM126.787 225.216C113.191 222.666 110.939 208.392 93.5848 206.814C101.003 194.946 122.759 217.119 126.787 225.216ZM474.011 224.416C478.676 215.863 486.711 210.048 495.813 207.014C524.053 203.876 478.088 223.161 474.011 224.416ZM732.067 207.127C727.686 216.574 727.329 219.187 727.629 229.616C718.901 224.855 721.897 203.57 732.067 207.127ZM249.796 220.265C252.15 215.426 252.952 208.399 258.396 207.614C291.838 202.795 239.008 242.441 249.796 220.265ZM688.376 209.202C687.427 213.365 682.511 217.713 678.025 217.215C677.455 211.224 682.004 206.016 688.376 209.202ZM297.599 226.816C289.169 229.26 272.865 219.22 286.198 214.615C298.431 210.389 326.474 218.444 297.599 226.816ZM692.826 214.615C694.58 219.73 695.186 229.29 689.226 231.616C691.112 226.587 686.815 216.418 692.826 214.615ZM702.427 216.815C707.214 217.613 710.968 218.376 710.028 224.016C704.972 222.826 703.181 222.094 702.427 216.815ZM350.803 218.815C350.803 223.202 348.637 225.757 344.402 226.816C344.402 221.465 345.772 220.492 350.803 218.815ZM419.607 220.415C417.947 227.886 415.529 236.452 408.107 239.854C405.607 233.86 413.324 220.713 419.607 220.415ZM465.611 222.815C464.811 229.016 463.873 235.2 463.21 241.417C461.866 254.037 467.714 250.645 471.611 259.218C452.297 256.614 451.659 224.529 465.611 222.815ZM304.199 262.418C308.843 266.332 324.882 257.585 329.801 256.468C350.267 251.821 354.947 215.545 378.205 224.941C382.414 226.641 380.061 233.48 377.004 235.216C358.339 245.821 356.676 259.216 340.86 274.163C339.185 275.746 330.256 276.778 328.464 276.919C318.851 277.678 309.221 278.186 299.599 278.819C299.951 276.209 303.175 269.195 301.812 266.844C299.812 263.396 295.863 260.908 294.999 257.018C302.371 253.577 298.312 257.457 304.199 262.418ZM173.59 239.817C165.61 247.652 170.237 228.615 173.19 226.016C182.055 218.214 177.051 236.419 173.59 239.817ZM196.542 240.717C178.42 246.021 183.325 229.536 197.992 225.816C222.98 219.477 210.12 236.743 196.542 240.717ZM430.008 227.416C428.395 235.023 423.686 242.184 416.407 245.217C418.36 239.079 421.741 226.825 430.008 227.416ZM332.851 246.267C326.018 249.075 314.538 232.276 319 228.616C325.041 223.661 336.969 244.575 332.851 246.267ZM284.723 253.38C278.754 254.05 272.787 254.769 266.797 255.218C254.37 256.149 241.938 257.125 229.482 257.518C225.74 257.636 219.017 253.463 217.381 250.255C210.851 237.447 258.512 240.198 263.403 236.236C276.914 225.293 276.629 237.377 292.199 240.217C286.957 243.961 280.255 245.394 275.935 250.267C279.472 252.929 284.811 250.202 289.198 249.617C286.791 252.541 287.539 253.064 284.723 253.38ZM715.315 235.966C712.737 241.302 707.185 240.801 705.227 235.416C711.826 234.042 708.459 233.956 715.315 235.966ZM517.614 240.417C526.085 252.63 512.584 271.527 499.213 272.419C508.414 256.418 508.414 256.418 517.614 240.417ZM731.729 251.067C726.843 254.843 711.696 262.442 706.127 265.118C699.489 268.308 701.681 259.026 703.827 256.418C708.837 250.331 716.161 246.62 723.229 243.617C730.833 240.386 741.77 243.309 731.729 251.067ZM380.405 254.018C375.395 254.018 372.517 252.401 368.004 250.817C372.175 240.512 380.132 243.04 380.405 254.018ZM404.806 253.018C401.92 256.36 390.377 255.519 388.405 255.618C388.995 251.009 389.548 247.364 393.806 244.617C400.184 243.286 409.679 247.376 404.806 253.018ZM694.027 251.217C688.907 250.882 688.573 249.113 689.226 244.217C694.918 244.139 693.916 245.567 694.027 251.217ZM66.983 258.618C62.373 252.91 55.5822 254.846 55.5822 244.817C65.6385 245.535 73.1402 255 72.3834 265.218C67.9161 264.226 69.4875 261.719 66.983 258.618ZM162.965 250.43C158.104 254.712 150.007 252.236 145.788 248.017C151.57 248.017 157.875 247.686 162.965 250.43ZM424.408 276.119C418.228 285.52 419.569 271.416 421.208 267.869C423.766 262.33 424.691 255.72 428.808 251.217C437.221 242.018 425.881 273.878 424.408 276.119ZM47.9817 251.617C52.2362 252.272 54.7012 254.26 52.232 258.618C48.4068 257.007 47.4628 255.768 47.9817 251.617ZM441.796 256.83C445.508 264.116 440.132 280.573 432.008 283.62C434.214 275.288 435.329 263.298 441.796 256.83ZM619.721 276.069C613.109 286.06 608.988 269.873 607.27 267.469C604.423 263.482 599.965 261.637 596.82 258.018C594.465 255.309 631.882 257.693 619.721 276.069ZM173.59 281.62C164.386 292.418 164.289 264.701 170.19 260.218C180.52 252.37 177.404 277.146 173.59 281.62ZM454.81 259.218C460.363 259.835 464.322 262.888 460.873 268.206C457.284 266.199 456.483 262.898 454.81 259.218ZM588.019 281.62C579.394 294.078 551.201 271.646 568.418 262.218C581.5 261.098 564.912 278.343 588.019 281.62ZM249.196 262.268C251.86 267.877 243.404 277.089 238.145 273.369C241.746 269.896 243.619 263.113 249.196 262.268ZM359.203 278.819C347.981 293.355 341.949 287.252 353.403 272.219C367.523 253.686 367.498 268.075 359.203 278.819ZM280.398 274.419C280.398 270.091 279.954 268.476 283.198 265.618C295.711 264.256 287.281 274.419 280.398 274.419ZM220.794 266.018C226.342 268.068 241.637 281.289 234.37 285.407C231.697 286.922 228.266 286.23 225.194 286.27C212.309 286.437 198.79 289.598 186.541 285.595C184.385 284.89 185.248 279.544 185.991 278.569C189.31 274.213 196.162 280.955 199.78 279.069C203.925 276.909 207.177 271.643 211.843 271.919C219.967 272.4 216.448 283.286 225.594 280.019C223.194 273.019 223.194 273.019 220.794 266.018ZM269.597 266.418C262.926 283.573 251.527 271.94 264.197 266.819C268.047 266.318 268.047 266.318 269.597 266.418ZM740.83 266.018C737.297 282.169 699.405 281.988 728.829 270.219C738.955 266.544 738.955 266.544 740.83 266.018ZM411.207 274.419C408.63 285.916 407.973 284.339 416.407 291.82C404.836 299.148 392.466 305.132 380.405 311.622C381.338 298.795 381.014 285.172 382.405 272.419C397.441 269.734 397.279 270.779 411.207 274.419ZM103.923 276.057C102.037 280.045 95.4509 278.555 91.1347 279.469C79.0642 282.026 54.2821 290.99 48.5817 275.219C60.2909 273.268 72.2059 272.764 83.9842 271.219C93.6977 270.026 106.746 270.089 103.923 276.057ZM636.022 274.819C635.263 280.137 631.418 284.437 631.222 289.82C631.103 293.095 634.705 296.398 633.372 299.521C632.576 301.387 630.733 301.092 629.222 301.221C630.402 315.089 627.61 310.22 614.821 308.821C615.187 303.417 631.075 277.602 636.022 274.819ZM353.953 296.821C360.195 291.306 362.607 283.965 369.804 279.419C374.159 303.615 356.258 327.004 333.601 334.823C334.552 313.264 338.031 310.888 353.953 296.821ZM576.818 303.709C583.341 306.922 591.349 304.511 598.62 304.421C591.876 312.392 587.473 318.072 578.819 325.223C563.038 338.26 546.762 350.69 530.465 363.075C525.087 367.163 519.477 370.944 513.814 374.626C508.147 378.31 502.436 381.953 496.488 385.164C492.616 387.255 487.502 389.784 482.812 388.277C482.248 388.096 479.59 385.197 481.287 384.089C490.085 378.347 500.423 375.603 505.301 364.475C508.152 357.973 509.449 350.854 512.376 344.385C514.896 338.814 524.562 341.985 528.703 336.583C531.06 333.509 531.816 325.276 531.923 322.782C532.278 314.536 531.985 306.275 532.015 298.021C537.032 298.587 542.025 299.438 547.066 299.721C550.333 299.904 558.16 295.145 558.817 294.82C548.316 291.02 548.316 291.02 537.816 287.22C558.093 265.099 561.946 296.382 576.818 303.709ZM88.7845 288.57C92.0613 292.71 95.6642 296.587 98.8852 300.771C110.236 315.513 76.9178 297.741 84.9842 286.02C86.8632 283.29 85.992 285.042 88.7845 288.57ZM487.462 286.47C489.923 286.993 488.598 291.406 488.662 293.92C489.215 315.566 483.648 333.853 461.16 341.324C445.442 346.546 394.379 333.476 398.143 311.397C398.235 310.862 398.764 310.45 399.244 310.197C407.348 305.909 415.4 301.477 423.808 297.821C437.596 291.824 457.028 294.482 472.211 290.42C477.284 289.063 482.326 285.377 487.462 286.47ZM522.815 292.42C512.737 292.897 505.69 291.111 496.013 290.42C496.756 281.501 520.961 283.472 522.815 292.42ZM340.802 286.42C340.611 297.555 331.349 297.453 321.451 298.221C299.75 299.905 277.95 299.852 256.196 300.571C227.834 301.508 199.187 305.424 170.94 301.321C170.965 299.909 170.965 299.909 170.991 298.497C224.086 286.978 288.162 289.116 340.802 286.42ZM143.588 288.02C177.502 292.259 150.484 324.975 140.388 299.421C137.094 291.083 135.087 293.719 136.988 288.22C138.032 285.2 138.785 287.42 143.588 288.02ZM659.624 297.221C657.849 306.276 649.009 304.621 641.023 304.621C643.354 297.11 653.182 297.221 659.624 297.221ZM73.5834 303.621C73.6799 302.367 76.1346 304.544 76.7837 305.621C80.2613 311.395 82.1821 319.843 90.3846 319.022C103.653 317.694 135.4 305.785 135.988 315.622C136.313 321.07 125.25 322.068 121.987 322.622C116.27 323.594 110.547 324.565 104.786 325.223C89.1369 327.009 77.8955 331.624 74.7835 315.422C74.0377 311.539 73.2802 307.563 73.5834 303.621ZM733.429 329.823C727.278 345.2 711.173 352.622 696.027 353.225C706.644 334.504 728.589 333.135 727.629 307.221C736.73 308.285 736.205 322.883 733.429 329.823ZM498.013 310.022C502.684 309.226 499.569 309.667 507.414 309.221C537.606 309.931 507.505 323.31 498.013 310.022ZM304.799 314.272C315.975 318.721 327.111 345.55 309.092 346.764C288.347 348.162 271.691 348.705 250.996 348.224C237.26 347.905 222.8 349.836 209.893 345.124C201.455 342.043 201.744 332.912 206.193 326.023C213.814 314.222 231.819 312.419 243.795 311.222C263.328 309.269 286.031 306.799 304.799 314.272ZM674.425 313.222C680.815 313.222 681.946 316.042 682.826 322.022C678.825 319.822 678.825 319.822 674.825 317.622C674.996 323.468 675.253 327.08 669.225 329.223C669.425 321.622 669.425 321.622 669.625 314.022C672.025 314.822 672.025 314.822 674.425 315.622C674.425 314.422 674.425 314.422 674.425 313.222ZM617.221 316.822C614.167 325.22 606.046 326.329 607.621 315.622C612.852 315.397 610.091 315.05 617.221 316.822ZM616.021 345.024C614.176 349.52 610.662 341.207 610.621 340.024C610.35 332.244 624.15 315.586 632.222 316.022C636.535 316.255 635.568 326.739 637.285 330.135C639.508 334.533 641.56 336.995 642.023 341.624C620.332 341.624 629.94 343.287 620.021 332.423C617.268 335.864 617.694 340.947 616.021 345.024ZM62.1076 329.76C62.0972 329.791 31.034 336.533 38.581 321.422C42.4098 313.756 66.4688 317.064 62.1076 329.76ZM180.591 388.977C175.357 389.399 170.09 389.166 164.84 389.127C130.191 388.872 162.111 368.866 169.99 362.025C174.418 358.18 176.268 352.078 178.716 346.749C183.598 336.117 177.44 331.57 176.391 320.022C195.128 327.404 189.913 372.015 188.391 387.227C185.791 387.81 183.247 388.763 180.591 388.977ZM600.42 330.823C597.155 330.823 593.3 331.343 590.219 330.023C592.947 321.158 600.04 314.105 600.42 330.823ZM521.615 323.222C520.995 337.47 500.287 334.034 490.012 330.823C497.811 318.225 505.826 323.136 521.615 323.222ZM389.605 369.626C393.917 377.969 398.682 378.873 405.406 384.127C405.908 384.519 405.739 385.404 405.606 386.027C404.284 392.24 388.209 389.367 384.805 389.227C361.792 388.283 319.008 389.733 338.289 351.999C341.236 346.234 349.834 339.531 352.853 336.373C359.402 329.524 360.675 324.684 369.604 324.022C369.873 328.861 366.837 337.549 371.604 338.423C378.294 339.651 385.205 338.69 392.006 338.824C391.412 348.618 384.731 360.192 389.605 369.626ZM23.58 328.423C31.513 335.789 26.9022 348.43 29.9804 358.425C34.2839 372.398 69.4406 384.231 35.3808 386.527C31.3218 386.8 27.2469 386.727 23.1799 386.827C23.38 357.625 23.38 357.625 23.58 328.423ZM779.832 346.624C779.332 343.924 779.332 343.924 778.832 341.224C776.132 346.024 776.132 346.024 773.432 350.824C761.379 338.511 785.736 316.369 779.832 346.624ZM109.586 335.823C126.476 334.941 148.674 339.386 149.589 360.425C141.688 357.333 136.885 349.392 128.712 346.612C118.801 343.239 107.657 342.827 98.5852 337.623C101.247 335.031 105.875 336.017 109.586 335.823ZM582.019 346.824C581.635 338.816 580.579 341.703 582.619 337.623C597.679 338.689 589.24 344.685 582.019 346.824ZM748.605 350.662C746.288 330.503 774.556 340.125 765.631 352.024C758.9 347.756 755.631 347.245 755.631 356.025C752.452 355.021 749.053 354.558 748.605 350.662ZM573.468 342.574C580.674 354.019 565.727 354.245 559.655 353.025C562.195 347.779 567.825 343.805 573.468 342.574ZM531.015 446.031C528.398 446.105 522.552 445.697 521.815 442.431C514.783 411.29 529.078 398.748 552.917 380.326C566.448 369.869 580.064 359.508 594.02 349.624C600.61 344.957 599.386 345.247 604.02 347.224C590.918 358.829 597.512 365.764 602.82 380.626C605.197 387.282 570.32 407.862 565.218 410.428C573.061 425.854 593.75 429.11 603.22 443.631C579.152 444.431 555.087 445.347 531.015 446.031ZM629.547 363.038C619.197 364.763 618.809 350.844 627.622 349.424C640.779 347.304 642.281 360.915 629.547 363.038ZM433.608 350.824C437.718 353.76 440.471 360.341 437.859 365.075C433.467 361.759 434.19 356.055 433.608 350.824ZM651.574 371.176C648.645 367.094 647.677 353.484 654.074 352.474C659.704 351.585 664.832 356.861 670.375 357.262C675.046 357.601 679.744 357.1 684.426 357.225C683.32 367.174 679.193 376.325 676.825 386.027C668.64 382.346 657.091 378.867 651.574 371.176ZM445.609 352.824C453.261 355.179 454.197 357.68 454.41 365.625C448.754 364.817 447.415 357.256 445.609 352.824ZM612.521 364.975C606.729 366.423 594.54 358.354 604.22 355.825C610.092 354.29 624.176 362.062 612.521 364.975ZM566.043 361.825C566.348 363.462 547.484 384.273 554.017 361.625C554.821 358.836 564.945 355.943 566.043 361.825ZM255.996 361.625C268.87 361.294 281.72 360.096 294.599 360.025C301.372 359.988 308.435 359.909 314.8 362.225C321.755 364.756 317.757 378.958 313.2 381.787C308.136 384.93 299.764 386.102 294.599 386.487C283.438 387.319 272.237 387.532 261.046 387.727C242.698 388.046 224.344 387.927 205.993 388.027C206.16 374.4 201.26 363.333 214.793 359.825C228.039 360.178 246.665 361.865 255.996 361.625ZM694.427 362.825C701.294 363.225 708.164 363.578 715.028 364.025C720.182 364.361 725.334 364.726 730.479 365.175C734.835 365.556 733.731 364.734 735.379 367.376C728.172 375.64 704.357 369.865 694.989 368.751C694.238 364.843 694.427 366.818 694.427 362.825ZM545.616 365.625C545.471 376.941 541.817 376.642 532.015 373.626C536.489 369.334 539.654 367.613 545.616 365.625ZM765.181 375.639C766.793 382.757 761 387.363 756.368 391.927C749.453 385.181 757.9 377.089 765.181 375.639ZM119.587 375.626C119.217 380.057 118.437 382.355 113.986 383.627C114.344 378.254 114.068 377.006 119.587 375.626ZM731.229 400.028C731.709 393.09 731.611 384.753 736.229 379.026C743.356 385.592 740.958 399.101 731.229 400.028ZM639.223 378.026C637.474 390.267 625.929 389.711 617.621 384.027C624.092 380.432 632.114 379.539 639.223 378.026ZM537.616 382.827C535.479 386.816 530.378 389.857 526.015 390.827C527.02 384.045 529.573 375.789 537.616 382.827ZM68.1831 388.727C65.2432 387.395 60.0396 385.683 59.5825 382.027C72.8153 384.263 87.5442 382.718 89.1845 398.028C82.184 394.927 75.1568 391.887 68.1831 388.727ZM659.824 390.827C656.127 393.647 642.453 392.055 647.423 386.027C650.034 382.86 665.67 386.369 659.824 390.827ZM127.187 386.427C126.344 392.332 125.274 394.32 119.187 394.827C119.965 389.375 121.321 386.427 127.187 386.427ZM514.814 400.828C506.291 397.703 498.292 395.331 508.814 388.827C517.908 386.951 515.57 397.103 514.814 400.828ZM446.409 391.027C444.078 396.767 438.176 397.116 432.808 397.628C432.219 387.488 436.834 389.731 446.409 391.027ZM54.9821 398.828C57.6128 401.932 61.9826 404.759 61.9826 408.828C61.9826 414.223 55.1374 417.172 51.5819 421.229C43.1626 412.81 36.0941 401.968 29.1804 392.827C42.2902 390.642 45.7081 387.883 54.9821 398.828ZM622.384 392.965C620.629 394.897 617.874 398.779 615.021 399.428C610.74 400.401 604.651 397.25 608.421 393.027C615.483 391.451 617.713 391.983 622.384 392.965ZM283.198 395.227C290.603 395.227 315.375 390.069 303.799 402.628C301.238 405.406 297.725 410.282 293.574 411.779C289.991 406.809 283.198 401.653 283.198 395.227ZM324.401 395.227C333.352 395.227 341.077 395.541 349.603 398.028C338.384 415.855 328.612 419.091 324.401 395.227ZM372.404 395.227C382.605 395.827 382.605 395.827 392.806 396.428C390.919 419.071 376.848 413.004 372.404 395.227ZM99.9853 407.628C99.9853 404.42 99.9219 401.522 100.785 398.428C109.468 396.882 104.208 406.093 99.9853 407.628ZM163.34 397.428C164.634 397.627 166.618 398.082 166.79 399.828C167.075 402.729 162.56 406.025 161.44 408.978C155.769 423.925 157.144 425.477 140.788 425.63C143.388 418.429 143.388 418.429 145.988 411.229C151.47 399.779 154.424 396.056 163.34 397.428ZM203.592 396.828C206.461 396.836 209.329 396.93 212.193 397.078C222.665 397.615 208.149 415.352 202.742 412.766C198.474 410.725 189.728 401.494 192.192 397.628C195.086 393.086 195.357 396.803 203.592 396.828ZM252.346 412.879C245.51 417.539 236.453 401.868 235.995 396.828C248.196 397.128 248.196 397.128 260.396 397.428C258.539 402.302 256.86 409.801 252.346 412.879ZM424.658 400.378C426.763 403.235 420.76 411.258 425.858 412.229C434.565 413.887 442.136 404.99 450.41 406.828C451.923 420.448 435.069 425.294 424.92 423.317C416.475 421.672 409.166 406.501 408.207 398.828C414.281 397.636 421.509 396.104 424.658 400.378ZM474.011 397.628C475.829 396.459 486.649 397.557 488.112 401.678C490.04 407.106 485.035 422.957 480.412 413.629C478.866 410.51 478.204 407.017 476.811 403.828C475.904 401.75 472.104 398.854 474.011 397.628ZM283.348 419.729C281.284 422.27 261.749 421.08 260.352 416.973C258.786 412.366 264.263 405.394 266.797 402.428C275.054 392.764 288.405 413.506 283.348 419.729ZM651.424 404.428C651.983 411.138 639.777 406.799 639.223 401.228C638.784 396.811 651.069 400.179 651.424 404.428ZM195.392 420.829C192.865 426.036 169.53 427.401 167.19 421.679C165.198 416.811 172.839 405.033 176.191 401.628C181.654 396.077 198.22 415.001 195.392 420.829ZM23.1799 401.228C30.8505 406.342 36.8567 415.437 39.9811 424.029C31.5805 424.029 31.5805 424.029 23.1799 424.029C23.1799 412.629 23.1799 412.629 23.1799 401.228ZM232.594 408.628C235.389 412.529 238.169 414.711 238.039 419.123C230.345 420.838 222.017 419.03 214.393 418.429C220.461 407.797 223.146 395.439 232.594 408.628ZM326.801 418.829C310.353 418.678 291.886 420.754 312.8 402.828C322.128 401.959 325.547 413.523 326.801 418.829ZM367.604 418.829C349.855 419.664 336.708 418.015 356.803 401.828C366.488 403.544 367.263 412.7 367.604 418.829ZM508.064 414.429C499.269 421.835 492.675 411.299 498.613 404.628C501.386 401.513 512.333 410.833 508.064 414.429ZM404.006 420.354C399.863 419.782 395.739 419.071 391.606 418.429C393.506 414.829 393.506 414.829 395.406 411.229C404.461 397.348 417.871 422.27 404.006 420.354ZM473.086 417.817C467.14 426.496 443.356 417.747 463.21 404.628C466.398 402.522 475.711 413.985 473.086 417.817ZM590.019 404.428C596.63 405.372 601.014 405.912 603.62 412.429C596.746 413.486 590.019 412.372 590.019 404.428ZM722.428 422.429C724.129 418.229 724.129 418.229 725.829 414.029C733.146 399.655 740.6 421.42 722.428 422.429ZM634.222 412.929C638.411 422.437 620.744 420.522 618.021 409.228C616.538 403.076 632.371 408.725 634.222 412.929ZM94.7849 424.504C91.0839 428.206 53.581 429.047 70.3832 411.229C78.5218 402.598 108.396 410.893 94.7849 424.504ZM669.675 412.929C671.601 422.286 664.045 436.621 663.224 446.031C642.223 445.031 642.223 445.031 621.221 444.031C625.441 434.302 661.26 411.768 669.675 412.929ZM624.022 433.63C620.872 433.543 591.826 429.381 609.421 422.029C621.549 420.563 623.901 426.543 624.022 433.63ZM773.232 454.432C773.232 444.805 771.965 433.752 774.232 424.229C782.276 423.858 780.809 450.643 773.232 454.432ZM501.213 445.631C501.26 438.795 498.084 425.942 506.613 423.029C521.226 421.667 515.152 444.324 501.213 445.631ZM737.68 454.032C743.947 444.467 744.79 424.686 757.631 423.629C753.168 452.298 735.059 468.137 719.428 491.634C710.545 504.988 708.286 531.562 697.227 540.838C700.625 498.924 715.333 488.136 737.68 454.032ZM185.579 439.949C194.302 425.621 249.074 425.693 261.596 426.43C261.358 431.441 262.63 436.896 260.504 441.441C254.996 453.217 232.301 452.68 222.594 453.231C210.002 453.946 197.392 454.298 184.791 454.832C184.825 449.864 182.995 444.192 185.579 439.949ZM271.535 427.592C275.349 424.839 280.896 426.55 285.598 426.43C291.03 426.291 296.466 426.29 301.899 426.38C326.081 426.778 343.875 421.422 344.402 448.831C338.202 448.831 338.202 448.831 332.001 448.831C331.279 453.891 328.051 452.649 322.451 452.431C304.156 451.719 285.882 450.565 267.597 449.631C267.813 446.316 265.368 432.043 271.535 427.592ZM721.378 427.93C723.472 435.182 717.683 448.513 708.578 441.131C711.374 436.301 716.058 429.896 721.378 427.93ZM386.805 428.43C391.432 428.471 396.059 428.595 400.681 428.817C402.116 428.886 417.708 428.531 419.207 432.23C420.95 436.532 420.862 451.245 415.807 453.431C407.36 457.084 395.297 455.726 386.555 455.332C361.918 454.22 341.291 453.831 353.803 429.43C358.45 420.367 378.399 428.355 386.805 428.43ZM447.847 428.93C461.768 428.821 475.691 428.863 489.612 428.83C489.571 436.175 494.348 446.557 488.375 450.831C482.121 455.307 473 451.291 465.311 451.431C452.874 451.658 440.442 452.098 428.008 452.431C428.25 429.93 425.091 429.108 447.847 428.93ZM57.9323 433.83C64.1218 436.869 61.7853 455.927 53.9921 456.652C46.8414 457.317 36.0588 458.889 29.3679 456.132C21.4978 452.888 19.2575 432.397 27.1802 430.63C36.3795 428.578 48.9939 429.442 57.9323 433.83ZM717.378 452.731C721.474 448.824 726.579 445.957 730.229 441.631C735.388 435.514 730.714 433.668 736.829 431.63C734.488 460.899 703.749 476.895 696.827 505.035C694.29 515.345 692.724 525.872 690.426 536.237C689.977 538.262 688.176 539.487 686.826 540.838C688.592 509.056 692.926 476.055 717.378 452.731ZM176.991 432.63C177.103 438.011 178.705 447.566 175.991 452.831C175.047 454.663 171.836 455.484 169.99 455.582C160.153 456.099 146.709 458.048 137.038 454.532C125.05 450.172 134.421 436.82 142.738 434.38C146.218 433.359 150.895 433.145 154.389 432.83C174.89 432.33 174.89 432.33 176.991 432.63ZM67.983 433.63C73.1161 430.573 79.9246 434.108 85.8843 434.53C91.8078 434.95 97.6442 436.636 97.5851 443.431C97.4153 462.964 67.7834 464.633 67.583 445.431C67.5419 441.495 64.6016 435.644 67.983 433.63ZM123.587 441.631C117.777 441.563 110.934 443.346 110.586 436.03C118.798 433.656 122.888 435.344 123.587 441.631ZM764.431 434.03C764.12 451.486 763.222 466.859 758.381 483.634C756.558 489.949 753.28 495.917 752.431 502.435C750.615 516.369 757.855 533.666 748.83 544.438C748.392 506.138 753.396 470.815 764.431 434.03ZM699.027 455.082C689.557 457.694 691.917 449.44 698.827 446.231C715.368 438.55 702.175 454.213 699.027 455.082ZM130.387 467.632C119.161 465.349 104.977 466.033 105.186 452.031C115.874 447.015 128.413 458.672 130.387 467.632ZM678.675 450.631C679.85 450.469 681.041 450.453 682.226 450.431C699.466 450.113 666.175 462.756 676.425 451.231C676.941 450.651 677.906 450.737 678.675 450.631ZM599.82 451.431C604.674 451.6 609.528 451.821 614.371 452.181C622.997 452.823 634.75 451.801 634.022 462.832C633.866 465.205 633.587 469.658 631.258 471.451C625.456 475.918 592.116 474.758 584.419 471.833C580.125 470.201 580.238 453.031 582.419 451.831C587.503 449.036 594.022 451.23 599.82 451.431ZM663.274 461.132C664.035 464.494 663.246 467.214 660.424 469.233C655.994 472.402 645.269 470.833 640.823 470.833C640.863 464.564 640.619 458.271 641.223 452.031C654.051 451.231 660.861 450.462 663.274 461.132ZM514.814 451.231C514.814 454.565 514.866 457.899 514.814 461.232C514.638 472.604 500.541 485.241 501.013 467.032C501.175 460.792 500.728 455.158 506.613 452.031C512.678 451.157 510.661 451.231 514.814 451.231ZM550.217 451.631C557.843 451.788 567.486 448.33 573.018 453.581C577.207 457.557 577.537 467.741 571.49 470.289C560.239 475.029 544.124 473.059 532.765 472.383C518.236 471.518 516.667 454.346 528.815 451.831C535.801 450.385 543.084 451.485 550.217 451.631ZM489.825 460.669C493.642 462.916 492.738 482.551 487.812 483.234C483.018 483.898 472.908 484.731 469.411 481.233C465.738 477.56 466.612 459.509 470.011 459.032C475.614 458.245 484.557 457.57 489.825 460.669ZM323.701 489.584C319.174 493.124 303.913 490.562 300.64 486.784C298.579 484.406 299.011 477.111 298.999 474.433C298.935 459.779 300.342 458.955 314.2 460.632C322.145 461.593 325.736 462.021 331.201 467.632C323.688 467.123 318.579 463.479 314.4 472.433C322.001 472.433 322.001 472.433 329.601 472.433C326.431 476.136 325.288 488.343 323.701 489.584ZM371.393 462.659C369.923 471.583 357.958 463.362 353.003 460.232C359.079 460.364 365.83 459.728 371.393 462.659ZM289.598 461.232C298.776 496.011 284.656 491.233 255.596 491.434C245.859 491.501 235.28 494.617 226.394 490.634C224.42 489.749 221.741 464.149 229.794 460.432C269.868 460.392 279.758 460.432 289.598 461.232ZM433.558 502.685C445.186 496.722 454.965 505.509 450.61 517.236C448.847 521.981 440.527 518.501 435.659 519.886C422.113 523.741 413.992 533.161 400.006 523.836C390.388 517.424 387.39 499.683 391.756 489.696C393.827 484.958 396.797 482.207 397.206 477.233C397.577 472.712 392.742 467.466 394.568 463.245C394.955 462.351 396.035 461.712 397.006 461.632C405.98 460.897 415.01 461.183 424.008 460.832C439.083 460.244 472.543 454.024 454.01 478.033C450.21 476.033 450.21 476.033 446.409 474.033C446.209 476.033 446.209 476.033 446.009 478.033C437.637 473.86 432.785 474.27 423.608 472.833C426.808 476.233 426.808 476.233 430.008 479.633C426.346 480.937 422.294 480.766 418.407 480.833C419.407 483.034 419.407 483.034 420.408 485.234C416.807 485.634 416.807 485.634 413.207 486.034C414.607 487.634 414.607 487.634 416.007 489.234C412.607 492.234 412.607 492.234 409.207 495.234C413.407 494.434 413.407 494.434 417.607 493.634C415.607 497.635 415.607 497.635 413.607 501.635C416.407 501.435 416.407 501.435 419.207 501.235C419.007 504.235 419.007 504.235 418.807 507.235C420.808 507.035 420.808 507.035 422.808 506.835C422.208 510.435 422.208 510.435 421.608 514.036C426.221 510.837 428.594 505.231 433.558 502.685ZM755.931 554.138C757.076 541.461 762.376 529.503 762.431 516.736C762.459 510.176 760.063 502.995 762.856 497.06C768.442 485.19 774.039 473.24 779.632 461.432C780.229 468.206 780.194 466.81 780.232 476.733C780.368 511.435 780.366 546.138 780.433 580.84C768.032 580.84 768.032 580.84 755.631 580.84C759.861 572.379 755.067 563.697 755.931 554.138ZM166.19 462.432C178.19 462.269 190.191 462.071 202.192 462.032C207.204 462.016 212.817 460.591 217.193 463.032C218.394 463.702 219.593 464.948 219.681 466.32C220.334 476.491 219.826 484.247 210.465 488.562C187.168 499.299 149.506 495.331 126.787 496.034C126.944 492.651 125.481 483.795 131.087 483.484C135.739 483.225 142.839 486.167 144.988 482.033C147.672 476.872 143.734 468.063 143.188 462.832C150.855 462.699 158.522 462.536 166.19 462.432ZM698.427 464.632C693.167 479.411 686.895 491.363 683.426 506.835C682.379 511.502 681.139 527.976 678.025 532.037C678.39 519.483 679.574 461.525 698.427 464.632ZM23.1799 464.432C23.5988 464.477 35.1138 464.92 38.181 466.882C41.9362 469.285 39.2018 475.781 38.981 480.233C38.2557 494.86 36.6668 496.034 23.1799 496.034C23.1799 480.233 23.1799 480.233 23.1799 464.432ZM57.1448 465.47C63.9752 465.47 70.8053 465.617 77.6337 465.782C86.0171 465.986 89.5953 469.34 96.9351 472.833C99.9574 474.271 130.11 482.947 116.186 494.634C112.892 497.4 107.662 495.991 103.361 496.059C90.8362 496.26 78.3078 496.192 65.7829 496.034C60.2162 495.964 49.1675 496.692 45.3815 491.434C41.7583 486.402 44.0264 472.301 46.9816 467.232C48.7123 464.264 53.796 465.47 57.1448 465.47ZM681.226 468.233C679.244 477.899 674.22 495.307 672.425 507.635C671.4 514.671 672.143 521.867 670.825 528.837C669.217 526.586 669.482 527.447 669.425 523.436C669.244 510.687 669.058 497.934 669.225 485.184C669.309 478.759 670.18 470.9 673.825 465.432C678.102 465.89 681.691 465.962 681.226 468.233ZM362.003 476.033C360.921 493.388 353.951 483.023 357.403 477.433C360.924 475.916 359.874 476.033 362.003 476.033ZM746.03 476.433C743.3 496.711 740.903 517.099 737.23 537.237C727.545 527.552 733.106 482.464 746.03 476.433ZM657.824 479.433C658.052 479.457 658.392 480.187 658.424 492.634C658.452 503.782 660.362 507.366 648.623 508.235C640.698 508.822 630.014 509.147 622.854 504.843C605.154 494.203 626.643 481.643 637.223 480.633C644.07 479.98 650.982 478.718 657.824 479.433ZM546.891 484.221C549.951 487.791 550.159 506.14 545.416 508.835C542.574 510.451 538.885 509.259 535.616 509.235C520.518 509.126 516.143 496.526 523.015 484.034C525.767 479.029 542.79 479.436 546.891 484.221ZM607.821 507.835C605.518 510.67 598.113 506.644 594.42 506.835C564.062 508.407 555.617 516.181 555.617 482.834C582.419 482.834 582.419 482.834 609.221 482.834C609.175 491.18 613.084 501.357 607.821 507.835ZM514.814 483.234C514.559 498.271 516.986 508.61 501.613 514.036C497.709 498.42 501.454 489.914 514.814 483.234ZM491.012 504.235C491.063 506.512 492.173 514.808 489.262 517.136C483.621 521.649 471.371 518.959 465.211 518.836C470.621 507.996 464.992 503.449 467.211 493.834C481.752 486.164 490.709 490.439 491.012 504.235ZM317.213 496.884C346.064 497.334 335.95 503.538 334.802 526.837C325.64 525.902 329.21 510.697 322.801 509.935C315.646 509.085 309.909 516.295 305.387 519.899C301.076 523.334 268.248 522.629 265.797 521.236C260.4 518.169 262.427 500.196 269.197 497.235C291.836 496.751 304.526 496.687 317.213 496.884ZM365.204 496.434C363.475 502.052 361.861 503.547 356.003 504.035C356.925 497.579 358.488 496.434 365.204 496.434ZM728.429 496.834C727.004 512.815 724.706 524.781 727.629 540.438C717.76 536.694 717.689 502.204 728.429 496.834ZM254.796 522.036C240.113 528.152 222.993 522.732 207.093 523.136C195.249 523.438 183.424 524.27 171.59 524.836C171.624 524.112 171.475 510.503 173.19 506.235C174.159 503.824 182.343 503.551 184.041 503.385C188.256 502.973 192.477 502.618 196.704 502.372C202.529 502.034 208.364 501.881 214.193 501.635C259.983 504.488 260.571 519.631 254.796 522.036ZM85.5843 505.235C96.0037 497.342 116.237 501.245 128.637 501.035C140.82 500.828 153.006 500.901 165.19 500.835C164.951 506.399 166.366 512.432 164.07 517.506C158.254 530.357 133.834 529.423 123.387 529.837C109.859 530.372 96.3183 530.503 82.7841 530.837C82.9026 522.253 78.7414 510.419 85.5843 505.235ZM23.1799 502.035C34.6862 502.192 58.5042 499.168 70.4312 505.963C80.3622 511.621 78.0063 532.44 65.8829 532.637C51.7836 532.866 37.6809 532.77 23.58 532.837C23.38 517.436 23.38 517.436 23.1799 502.035ZM625.622 515.836C628.099 515.962 631.629 516.364 634.072 517.736C635.77 518.689 636.869 520.028 637.023 522.236C638.658 545.731 634.917 543.208 614.021 543.238C605.095 543.251 594.181 546.406 587.369 540.638C586.233 539.675 585.477 535.006 585.369 534.237C583.004 517.343 587.056 515.864 603.42 515.436C610.819 515.242 618.23 515.46 625.622 515.836ZM661.024 538.237C658.343 542.488 647.371 540.044 644.411 537.262C640.812 533.881 642.28 519.662 645.823 517.236C656.573 509.874 667.371 528.175 661.024 538.237ZM577.218 542.838C568.114 543.242 559.016 544.251 549.904 544.05C530.841 543.63 510.256 540.827 526.215 517.236C564.278 516.845 575.249 511.026 577.218 542.838ZM516.414 521.236C514.412 538.991 514.936 543.115 498.413 549.238C499.382 536.372 499.992 521.236 516.414 521.236ZM490.025 529.249C493.391 534.329 490.766 552.298 483.812 553.088C477.793 553.772 466.593 557.138 461.735 552.201C459.599 550.029 458.993 527.648 464.211 526.837C469.833 525.962 486.216 523.502 490.025 529.249ZM284.051 529.568C284.824 530.031 285.306 534.788 285.323 535.125C285.86 545.629 288.918 558.508 275.797 559.389C268.87 559.854 261.935 560.199 254.996 560.439C244.132 560.815 233.263 561.046 222.394 561.239C222.267 561.241 217.424 561.32 216.393 560.639C213.05 558.428 213.436 534.631 218.744 531.837C229.001 526.438 243.879 530.467 255.396 529.637C258.852 529.388 278.731 526.387 284.051 529.568ZM331.201 558.439C306.459 558.308 281.35 564.668 295.599 531.637C311.091 528.035 328.516 546.354 331.201 558.439ZM204.719 560.903C197.634 564.265 189.179 563.146 181.353 563.652C161.304 564.948 141.242 566.043 121.187 567.239C121.259 557.847 116.149 540.496 129.437 539.337C138.506 538.547 147.619 538.352 156.689 537.587C169.063 536.544 181.404 535.1 193.792 534.237C211.168 535.268 210.968 557.938 204.719 560.903ZM714.978 534.537C718.968 537.53 719.428 543.469 721.428 548.038C729.068 565.488 717.463 579.699 699.627 580.04C699.627 569.44 699.627 569.44 699.627 558.839C707.259 557.885 710.633 531.278 714.978 534.537ZM426.808 537.837C426.275 538.454 425.798 539.125 425.208 539.687C411.592 552.646 412.807 548.37 412.807 565.639C402.538 556.145 411.275 533.954 426.808 537.837ZM23.1799 538.437C36.9603 539.434 42.7255 537.171 42.9813 551.238C43.0177 553.24 43.9144 560.697 41.1312 562.639C36.8799 565.605 23.859 563.654 22.7799 563.639C22.9799 551.038 22.9799 551.038 23.1799 538.437ZM112.924 540.313C114.169 541.314 115.068 564.66 110.986 567.039C102.459 572.009 91.2524 567.778 81.384 567.639C71.2687 567.497 61.1659 566.873 51.0569 566.489C47.2219 547.57 51.3755 541.165 69.1831 539.437C100.873 538.491 109.548 537.599 112.924 540.313ZM396.806 548.038C396.806 551.838 396.806 551.838 396.806 555.639C394.606 554.839 394.606 554.839 392.406 554.038C392.406 556.039 392.406 556.039 392.406 558.039C393.206 557.839 393.206 557.839 394.006 557.639C393.013 563.454 386.415 573.194 379.805 570.44C382.502 564.938 388.528 548.038 396.806 548.038ZM500.413 560.926C507.82 560.689 512.128 551.954 519.239 551.863C569.278 551.222 619.565 549.533 669.625 551.638C667.059 562.401 664.764 577.809 651.311 578.765C634.37 579.97 617.39 580.741 600.408 580.965C571.241 581.35 542.06 581.381 512.901 580.59C499.397 580.224 485.913 579.028 472.491 577.496C456.021 575.616 456.307 574.706 455.21 560.439C470.278 560.601 485.352 561.409 500.413 560.926ZM689.026 579.24C682.472 583.419 668.853 580.378 663.624 580.04C665.348 572.715 670.438 564.545 676.825 560.439C687.126 560.7 701.1 571.541 689.026 579.24ZM748.23 579.04C741.254 583.691 729.116 581.665 721.828 580.84C724.334 573.95 728.517 567.65 733.829 562.639C747.508 555.95 759.366 571.616 748.23 579.04ZM104.136 577.34C173.793 574.912 243.378 570.732 313 567.439C321.088 567.057 329.173 566.003 337.264 566.314C340.446 566.437 347.128 575.555 347.202 575.64C343.176 579.506 336.908 580.944 331.326 580.965C228.478 581.352 125.629 581.415 22.7799 581.64C22.7799 577.24 22.7799 577.24 22.7799 572.84C49.7697 575.876 76.992 578.286 104.136 577.34ZM377.205 581.04C375.004 580.64 375.004 580.64 372.804 580.24C376.117 579.731 374.675 579.354 377.205 581.04Z" fill="#000000" fill-rule="nonzero" opacity="1" stroke="none"/>
</g>
</svg>
