<?xml version="1.0" encoding="UTF-8" standalone="no"?>
<!DOCTYPE svg PUBLIC "-//W3C//DTD SVG 1.1//EN" "http://www.w3.org/Graphics/SVG/1.1/DTD/svg11.dtd">
<!-- Created with Vectornator (http://vectornator.io/) -->
<svg height="100%" stroke-miterlimit="10" style="fill-rule:nonzero;clip-rule:evenodd;stroke-linecap:round;stroke-linejoin:round;" version="1.1" viewBox="0 0 800 600" width="100%" xml:space="preserve" xmlns="http://www.w3.org/2000/svg" xmlns:xlink="http://www.w3.org/1999/xlink">
<defs/>
<g id="Layer-1">
<path d="M3.5915 3.19244C2.99291 297.895 2.99291 297.895 2.39433 592.597C399.255 591.699 399.255 591.699 796.115 590.801C796.315 296.398 796.315 296.398 796.514 1.99528C400.053 2.59386 400.053 2.59386 3.5915 3.19244ZM677.596 22.9457C673.355 35.6695 656.625 31.046 650.261 22.9457C663.928 22.9457 663.928 22.9457 677.596 22.9457ZM744.238 46.2904C741.313 43.4057 738.111 37.3311 734.012 35.9649C731.103 34.995 729.061 37.1845 726.38 37.7606C721.525 38.804 715.36 26.657 713.86 22.6713C740.226 20.0347 741.944 18.7588 744.238 46.2904ZM777.36 22.3471C777.36 39.5065 777.36 39.5065 777.36 56.6658C772.415 54.1509 763.653 51.3917 760.35 45.5921C755.119 36.4058 765.015 26.3987 750.224 23.5443C756.591 17.1068 768.306 22.2893 777.36 22.3471ZM683.183 44.2951C688.273 38.9086 683.518 29.9301 687.772 24.5419C691.872 19.3479 705.663 21.8885 707.338 28.6322C710.89 42.9362 698.191 56.6974 692.361 70.2337C711.538 68.2499 716.253 82.9952 700.45 93.8598C690.819 85.1415 685.387 71.9196 674.553 63.5496C669.63 59.7463 663.123 57.0884 660.237 51.5779C666.093 46.0386 677.358 50.4584 683.183 44.2951ZM23.1452 22.7462C23.2075 22.084 24.4863 22.6264 25.1405 22.7462C27.406 23.161 36.0022 43.5288 37.4613 45.5921C44.322 55.2935 57.863 62.9407 57.863 74.8229C57.863 87.4495 25.9424 70.9404 24.6247 69.1987C19.9651 63.0399 23.0215 53.8134 22.9457 46.0909C22.8693 38.3094 22.4168 30.4938 23.1452 22.7462ZM102.607 23.0454C115.947 23.2031 135.913 22.4149 130.441 41.1526C119.209 39.9293 111.542 27.2571 100.113 28.8317C85.3619 30.8641 91.3717 51.3207 96.1723 58.0625C105.231 70.7839 115.67 85.0733 128.845 94.5761C138.113 101.26 150.919 104.918 156.43 114.928C160.695 122.675 162.404 131.593 166.007 139.669C157.022 138.738 142.448 137.526 135.916 134.108C131.908 132.01 130.791 126.635 127.897 123.158C123.351 117.696 118.319 114.758 111.686 111.785C99.1241 106.156 76.9018 102.867 65.9938 113.93C58.6511 121.377 61.9822 124.709 52.2762 127.049C38.5215 130.366 23.3015 118.875 22.8459 105.475C22.7796 103.525 22.0278 87.9464 25.0527 84.7409C26.6543 83.0436 29.5916 83.3433 31.9244 83.4026C46.3454 83.7687 41.2306 91.559 51.0292 96.0726C61.7968 101.032 72.5024 98.2761 74.2742 85.0985C75.4828 76.1092 73.4225 67.6381 68.4879 60.1576C60.2041 47.6 50.8962 35.7487 42.1003 23.5443C62.2692 23.378 82.4389 22.8071 102.607 23.0454ZM134.881 22.7462C152.168 21.1684 169.6 22.7135 186.957 22.9457C197.954 23.0928 198.607 31.5381 209.604 32.7724C215.412 33.4244 221.089 30.1942 226.414 27.7842C228.053 27.0426 229.859 26.6372 231.652 26.4873C252.486 24.7448 250.045 30.4375 244.421 43.8961C242.03 49.6199 243.549 56.3167 244.022 62.502C244.575 69.7331 250.04 84.1576 244.222 90.7851C235.97 100.185 220.31 99.47 210.252 93.7281C203.567 89.9114 201.114 81.3355 196.435 75.2219C189.083 65.6156 163.105 60.6795 152.589 66.7919C147.351 69.8365 150.449 84.586 153.437 88.1413C162.066 98.4115 171.982 107.545 180.722 117.721C184.64 122.284 189.951 131.114 185.685 137.487C180.795 144.794 169.707 136.855 167.329 131.988C164.367 125.925 164.999 117.957 160.495 112.933C157.086 109.129 153.419 105.507 149.359 102.408C136.78 92.8059 116.872 85.1808 114.18 66.9415C110.854 44.4122 153.825 63.9642 146.541 47.0386C143.66 40.3466 139.829 34.1029 136.676 27.5348C135.939 25.9979 133.183 22.9011 134.881 22.7462ZM225.653 23.7188C218.423 28.312 208.593 29.5042 201.523 23.7438C213.588 23.7313 213.588 23.7313 225.653 23.7188ZM254.597 23.1452C249.068 25.7474 245.273 27.0385 240.032 23.5443C247.315 23.3447 247.315 23.3447 254.597 23.1452ZM455.506 23.5542C456.063 23.6894 456.423 24.4701 456.37 25.0407C455.399 35.3587 456.952 46.8751 451.631 55.768C445.742 65.6087 432.538 70.0619 430.83 82.2553C429.807 89.555 437.257 95.5923 439.36 102.657C442.954 114.733 450.565 159.71 444.947 169.199C441.008 175.852 431.302 171.015 425.505 173.701C422.126 168.144 418.542 162.705 415.367 157.028C413.131 153.032 406.981 147.705 410.092 144.346C418 135.807 437.109 125.935 434.721 111.199C433.411 103.12 426.421 97.0238 423.348 89.4383C421.985 86.0755 423.935 81.8005 422.2 78.6139C413.813 63.2089 401.694 52.5572 387.483 65.046C388.369 59.1589 391.824 53.8642 392.77 47.9864C394.068 39.9232 392.485 31.4674 394.466 23.5443C414.812 23.3355 435.733 18.7573 455.506 23.5542ZM294.154 197.632C284.156 180.354 271.139 176.913 256.181 164.423C250.109 159.354 255.199 148.575 253.537 140.842C252.357 135.35 247.246 130.916 247.015 125.303C246.71 117.872 250.035 110.727 252.003 103.555C252.393 102.136 255.8 90.3632 259.186 87.9917C272.832 78.4351 289.695 83.5143 301.55 71.3032C303.508 69.2867 305.406 48.547 305.078 44.2951C304.176 32.618 294.519 20.501 312.361 23.7937C313.636 24.0291 315 24.8927 315.503 26.0882C317.996 32.0131 318.098 38.8555 321.09 44.5445C324.59 51.201 330.171 56.5758 333.997 63.0507C335.028 64.7967 338.678 68.1372 340.918 68.6624C349.309 70.6301 357.861 71.8383 366.333 73.4262C357.876 82.5335 344.753 84.4233 335.805 93.4787C334.396 94.9045 329.216 116.421 329.221 119.916C329.223 122.023 332.079 124.283 330.879 126.014C324.477 135.251 314.314 141.498 308.071 150.843C323.51 150.901 338.978 150.561 354.361 149.247C351.268 158.242 349.011 167.569 345.083 176.233C338.496 190.763 329.678 195.448 327.562 211.624C325.887 224.431 325.34 237.491 326.477 250.357C327.571 262.738 333.771 274.736 332.712 287.12C318.49 285.379 304.47 282.176 290.512 278.94C298.892 265.771 298.892 265.771 307.273 252.602C301.287 248.811 301.287 248.811 295.301 245.02C297.995 244.621 297.995 244.621 300.688 244.222C301.217 226.246 303.234 213.325 294.154 197.632ZM527.551 23.9433C523.203 33.1833 515.041 30.9949 508.795 23.9433C515.043 23.7076 521.307 23.6387 527.551 23.9433ZM637.241 44.6942C650.405 54.6455 641.23 63.3935 629.31 58.8607C622.229 56.168 618.873 45.4606 613.834 40.3545C608.34 34.7868 599.264 29.4599 594.193 23.5443C605.433 23.6274 616.677 23.5141 627.913 23.7937C636.651 24.011 645.585 30.5219 646.869 39.5065C637.366 38.4506 628.059 26.0775 618.336 30.1287C623.85 35.863 630.896 39.8968 637.241 44.6942ZM275.348 24.3424C269.21 33.1813 278.401 39.7206 279.862 36.738C282.343 31.674 280.285 27.8887 286.272 26.5871C296.868 24.2837 303.175 36.4742 297.496 44.9935C287.062 60.6445 257.05 42.4268 258.588 26.7367C265.673 24.1321 270.539 24.4034 275.348 24.3424ZM383.293 25.7391C394.618 32.2287 381.865 67.8248 368.128 68.438C351.554 69.1779 339.4 55.7628 326.988 45.9163C321.926 41.9004 321.293 31.2901 326.976 27.6845C335.25 22.4345 354.994 24.865 362.542 24.7414C366.821 24.6714 378.519 23.0035 383.293 25.7391ZM478.767 27.0859C497.971 32.5211 487.786 41.2815 479.864 53.0744C470.445 67.0961 475.493 78.5381 458.914 88.0915C456.8 89.3096 448.99 94.3411 444.573 93.566C437.407 92.3086 438.164 79.068 441.156 75.0224C442.94 72.6101 455.006 65.8953 455.571 64.1731C459.293 52.8422 455.421 33.5748 466.097 27.1358C469.819 24.8905 474.487 25.8746 478.767 27.0859ZM545.995 41.2025C539.989 42.4188 524.815 30.5286 532.539 28.5325C544.12 25.5396 565.132 37.3265 545.995 41.2025ZM597.785 49.6824C588.535 60.4664 563.937 50.5379 581.823 32.9221C590.513 24.363 606.606 39.3977 597.785 49.6824ZM524.758 44.4947C519.75 48.575 511.492 46.7683 507.598 41.9008C511.906 36.1565 521.349 39.7227 524.758 44.4947ZM263.426 59.4592C265.342 64.1409 269.861 66.9101 271.757 71.4309C249.207 89.471 239.455 55.2849 253.6 46.0909C269.366 44.1487 260.59 52.5262 263.426 59.4592ZM562.992 54.895C560.258 59.3477 542.879 51.7058 548.501 46.4899C551.251 43.9392 566.844 48.6218 562.992 54.895ZM122.709 49.4829C120.207 54.4868 105.934 56.2511 101.759 52.0767C106.828 46.3746 116.126 46.6258 122.709 49.4829ZM728.675 51.8772C724.684 60.2573 724.684 60.2573 720.694 68.6375C709.85 56.1257 710.625 46.8231 728.675 51.8772ZM534.335 55.8677C531.731 57.4838 500.7 79.2781 495.228 77.2172C493.829 76.6906 493.556 74.8508 493.581 73.6631C493.647 70.6452 491.697 65.9296 494.429 64.647C503.336 60.4661 504.316 56.9614 513.385 54.2715C524.752 52.6903 532.626 51.3393 534.335 55.8677ZM298.493 58.2621C304.655 64.215 291.979 71.0651 287.519 71.0318C278.98 70.9681 256.063 57.5351 279.538 56.2668C284.338 56.0075 294.389 54.2972 298.493 58.2621ZM741.445 59.0602C743.24 72.229 743.24 72.229 745.036 85.3978C723.99 76.6287 728.052 74.3662 741.445 59.0602ZM759.402 61.4545C764.261 65.6194 767.567 72.001 770.975 77.0177C772.843 73.1471 774.995 69.2746 775.763 65.046C776.562 65.046 776.562 65.046 777.36 65.046C777.36 78.4144 777.36 78.4144 777.36 91.7827C767.287 91.2382 760.531 90.3601 751.82 85.1983C756.774 78.2066 757.283 69.668 759.402 61.4545ZM646.07 84.0011C643.771 85.0422 641.37 85.9433 638.887 86.3955C631.295 87.7783 623.565 88.2817 615.942 89.4881C607.2 90.8718 604.209 97.4202 598.583 104.153C607.114 106.328 616.479 103.684 624.871 106.697C645.093 113.959 615.196 129.678 608.26 129.992C598.663 130.427 593.129 119.907 583.02 118.918C558.421 116.514 575.22 137.31 553.39 115.127C547.612 109.256 540.4 104.79 535.195 98.4045C531.067 93.3384 528.525 87.1399 525.755 81.2202C525.095 79.8083 520.654 71.0446 523.96 67.8394C525.37 66.4714 527.477 66.0485 529.347 65.4451C552.189 58.0743 540.087 71.6602 550.858 79.2C555.745 82.6207 560.908 85.7198 566.359 88.1413C571.139 90.2644 572.949 79.992 576.66 76.3068C580.793 72.2017 585.464 68.5514 590.527 65.6695C595.707 62.721 602.21 68.9918 608.16 68.6375C618.737 68.0077 628.908 63.8453 639.486 63.2503C648.218 64.6933 653.695 80.5486 646.07 84.0011ZM405.839 70.2337C400.252 71.0318 400.252 71.0318 394.666 71.8299C396.51 65.0686 402.036 63.8196 405.839 70.2337ZM558.041 67.8394C559.257 67.2408 559.257 67.2408 560.473 66.6422C590.2 64.5103 568.058 83.7429 558.041 67.8394ZM670.612 75.2219C672.464 76.148 677.655 78.881 679.965 80.6466C684.24 83.9143 693.066 93.8131 687.772 94.7756C685.811 95.1322 682.497 95.4169 680.589 94.5761C675.892 92.5065 672.973 86.5694 668.019 84.1009C665.184 82.6885 646.077 75.2495 657.045 71.2314C661.988 69.4204 665.791 72.8111 670.612 75.2219ZM393.618 110.738C391.6 124.018 371.386 135.775 359.15 136.627C337.809 138.111 346.103 124.178 346.779 109.341C347.034 103.735 334.844 100.355 342.888 93.9775C346.894 90.8018 350.854 88.2647 355.957 87.7922C350.711 99.9333 357.168 93.9319 364.188 99.0156C366.338 100.573 368.263 105.592 369.114 106.548C372.185 109.996 382.751 94.0374 381.434 88.2411C380.501 84.1301 376.655 81.0407 375.112 77.0177C399.764 72.3221 396.568 91.3269 393.618 110.738ZM192.345 84.2007C180.972 84.4002 180.972 84.4002 169.598 84.5997C172.071 75.3295 187.946 77.1628 192.345 84.2007ZM405.839 79.0129C408.951 79.2204 411.308 78.9694 413.022 81.8063C410.201 81.6496 406.285 82.4535 405.839 79.0129ZM366.732 83.4026C374.146 84.0204 378.578 91.906 370.922 96.3718C368.262 92.9019 367.728 87.5116 366.732 83.4026ZM485.95 94.5761C492.651 92.5572 506.566 83.4822 513.185 87.7922C522.898 94.1167 527.591 105.876 536.492 113.307C545.451 120.785 555.094 127.416 564.065 134.881C568.77 138.796 568.302 138.884 569.614 143.298C547.541 151.976 549.6 144.295 529.596 142.064C525.675 141.626 514.518 145.257 511.315 143.697C501.586 138.962 492.033 133.872 482.458 128.832C481.495 128.326 480.9 127.247 480.463 126.251C479.578 124.239 477.994 112.092 475.848 109.703C472.746 106.248 468.494 103.87 465.697 100.163C472.448 98.3006 479.244 96.5962 485.95 94.5761ZM743.889 127.349C738.326 127.661 732.796 128.49 727.228 128.695C719.701 128.973 712.164 128.849 704.632 128.795C694.576 128.724 692.401 115.989 697.213 107.98C699.681 103.874 710.501 98.5832 714.309 95.5737C717.567 92.9989 721.055 87.3831 724.884 88.9893C732.855 92.3329 739.966 97.4485 747.672 101.365C759.809 107.532 766.775 102.248 776.961 94.9752C777.16 128.296 777.16 128.296 777.36 161.617C763.358 150.775 768.834 142.871 773.369 126.101C763.542 126.517 753.709 126.796 743.889 127.349ZM205.314 97.2198C208.058 103.258 208.662 107.041 214.093 111.536C221.458 117.631 224.916 117.398 235.243 123.508C241.038 126.936 217.925 140.215 217.834 140.218C196.471 141.009 196.66 132.587 186.259 116.162C182.5 110.227 163.222 93.681 178.178 90.9846C185.269 89.7062 201.273 88.3265 205.314 97.2198ZM650.061 102.158C643.414 104.374 636.38 95.7339 642.479 91.7827C650.731 86.437 660.04 98.832 650.061 102.158ZM624.921 99.7638C621.005 103.68 608.01 98.9962 614.146 94.177C616.998 91.9374 630.784 93.9002 624.921 99.7638ZM238.436 103.555C233.347 108.943 224.782 106.091 219.48 102.557C225.135 100.201 233.048 100.616 238.436 103.555ZM405.839 101.36C406.838 105.354 408.738 125.036 401.849 125.702C402.191 118.922 400.471 107.495 405.839 101.36ZM421.402 101.36C428.36 104.342 426.502 113.035 424.595 118.519C422.401 113.279 422.176 106.904 421.402 101.36ZM415.417 119.318C414.779 115.175 414.695 111.026 413.82 106.947C419.143 108.277 416.353 115.26 415.417 119.318ZM468.491 112.933C462.306 113.031 455.76 115.013 449.935 112.933C445.378 111.305 449.545 107.349 451.93 106.348C460.631 106.526 465.749 106.922 468.491 112.933ZM637.84 108.094C638.799 108.136 639.745 108.34 640.683 108.543C654.906 111.618 629.562 116.387 636.094 108.344C636.465 107.887 637.253 108.069 637.84 108.094ZM670.962 120.016C666.371 123.076 652.838 115.262 657.843 110.738C659.913 108.866 677.58 115.603 670.962 120.016ZM110.139 123.707C100.173 123.07 90.8999 122.609 81.0082 122.909C88.0451 115.331 104.009 114.512 110.139 123.707ZM471.284 123.508C465.317 125.383 456.174 125.975 450.334 123.208C452.396 115.302 467.538 118.512 471.284 123.508ZM593.183 128.009C593.912 129.613 589.477 139.694 588.607 139.919C580.932 141.897 565.23 132.289 574.241 125.503C577.115 123.338 591.002 123.212 593.183 128.009ZM638.887 133.284C632.068 135.179 613.911 130.609 628.712 126.301C635.171 124.421 655.104 128.78 638.887 133.284ZM393.468 127.299C392.759 137.937 387.185 141.061 379.103 133.484C383.413 130.568 388.64 129.078 393.468 127.299ZM31.7748 160.37C29.9955 152.689 24.1482 144.614 26.8988 137.225C27.4461 135.755 30.4818 137.573 30.5901 137.687C33.7844 141.025 36.1103 145.166 39.5065 148.299C48.2815 156.393 53.6473 157.189 64.9961 155.881C94.0144 152.536 63.1454 125.1 87.0439 128.396C93.3593 129.267 99.711 129.975 105.949 131.289C111.383 132.434 117.163 133.492 121.712 136.676C116.736 139.037 107.3 142.197 103.355 147.251C93.8928 159.376 98.348 173.585 82.2692 184.348C77.6189 187.46 66.1243 184.666 63.9611 184.887C54.9009 185.813 46.1654 188.959 37.1121 189.95C36.4123 180.415 33.9128 169.6 31.7748 160.37ZM476.821 135.978C485.633 138.926 495.219 139.458 503.009 145.057C507.782 148.487 501.603 151.042 503.059 154.484C503.685 155.964 509.219 161.307 507.299 164.835C504.031 170.838 489.316 161.104 485.052 160.021C475.767 157.664 469.758 160.448 460.422 161.692C451.981 162.817 445.46 136.764 452.329 131.489C460.752 125.02 466.536 132.537 476.821 135.978ZM39.7684 135.342C43.4198 131.394 49.9669 133.382 55.0696 132.686C75.3388 131.351 51.1181 146.692 39.7684 135.342ZM753.815 133.284C753.815 136.078 753.815 136.078 753.815 138.871C744.699 138.838 735.583 138.88 726.468 138.771C721.527 138.713 715.984 139.369 712.713 135.28C725.427 132.346 740.817 133.284 753.815 133.284ZM515.38 175.385C521.899 166.453 545.051 168.603 552.317 174.674C559.028 180.28 555.032 193.508 563.528 196.497C575.45 200.692 588.981 208.545 600.72 203.863C605.548 201.938 605.359 191.897 604.519 189.003C602.323 181.437 598.93 174.242 595.39 167.204C592.542 161.541 582.847 154.191 587.509 149.895C589.994 147.606 593.694 147.058 596.987 146.304C620.791 140.85 603.267 182.906 633.899 178.777C655.012 175.931 641.768 155.973 645.671 144.059C646.648 141.078 650.834 140.449 653.653 139.071C669.356 131.39 680.851 136.451 695.952 142.862C696.75 141.066 696.75 141.066 697.549 139.27C701.864 153.606 703.726 154.717 718.699 154.833C712.056 159.634 702.901 159.523 694.755 160.42C701.211 166.721 709.081 164.627 715.506 170.796C702.936 172.392 702.936 172.392 690.366 173.988C695.325 177.841 701.41 180.338 707.525 181.77C698.945 191.247 698.945 191.247 690.366 200.725C694.169 200.176 698.427 197.195 701.776 199.079C706.029 201.471 706.939 207.359 709.52 211.499C696.564 209.363 681.298 205.023 668.63 211.487C663.107 214.304 658.48 218.798 652.755 221.176C646.163 223.915 636.684 222.681 630.856 228.135C623.057 235.433 615.154 242.683 608.16 250.756C605.979 253.275 606.478 258.008 603.571 259.635C596.242 263.738 584.906 264.958 576.884 261.232C567.53 256.886 563.753 245.247 556.233 238.186C552.168 234.369 546.1 233.11 542.117 229.207C537.012 224.206 535.21 215.96 529.197 212.098C509.942 199.729 509.367 208.074 490.838 206.711C489.232 206.593 488.145 204.501 487.845 202.92C484.915 187.459 504.667 170.918 513.185 187.955C513.917 183.765 512.872 178.821 515.38 175.385ZM248.212 156.031C240.751 151.412 233.67 146.148 225.067 144.059C233.467 130.584 254.359 141.687 248.212 156.031ZM379.103 145.256C374.267 145.77 369.382 144.873 364.537 144.458C370.752 137.395 373.294 138.215 379.103 145.256ZM753.815 147.251C733.464 148.449 733.464 148.449 713.112 149.646C716.415 141.718 751.027 140.979 753.815 147.251ZM636.344 160.67C628.852 163.367 606.711 156.327 618.935 147.65C628.511 140.854 651.373 155.259 636.344 160.67ZM148.848 155.033C143.54 157.01 137.964 158.179 132.486 159.622C137.189 161.292 142.174 162.442 146.453 165.009C142.238 167.558 145.141 166.237 137.075 166.905C138.782 171.247 144.914 169.626 146.852 173.988C131.525 173.772 121.111 175.174 104.752 176.981C108.218 173.851 112.282 171.453 116.125 168.8C113.332 167.603 113.332 167.603 110.538 166.406C113.381 164.431 118.162 162.933 118.27 159.472C114.604 158.55 114.604 158.55 110.937 157.627C118.11 140.743 138.436 147.995 148.848 155.033ZM393.069 150.843C385.992 161.645 365.46 169.116 353.563 172.392C355.091 152.533 377.436 151.338 393.069 150.843ZM574.64 151.641C580.231 154.996 593.714 169.139 580.625 171.344C568.313 173.419 537.62 157.824 557.68 152.838C561.365 151.922 570.75 149.307 574.64 151.641ZM165.658 180.223C166.956 171.337 164.458 153.187 177.181 152.838C176.403 163.368 174.62 208.307 161.617 208.307C162.426 198.884 164.291 189.582 165.658 180.223ZM730.67 153.237C736.15 153.237 757.827 150.581 760.998 156.13C753.999 161.346 737.85 160.417 730.67 153.237ZM237.238 169.598C233.918 172.698 228.467 173.514 224.269 174.786C229.856 180.972 229.856 180.972 235.443 187.157C222.975 184.99 208.932 183.822 196.734 179.176C197.492 176.48 202.446 175.259 204.715 172.99C201.124 171.793 201.124 171.793 197.532 170.596C200.924 168.701 200.924 168.701 204.316 166.805C186.444 151.997 231.437 163.383 237.238 169.598ZM540.321 164.012C531.668 165.374 522.717 169.33 514.233 167.154C516.884 158.14 535.22 156.915 540.321 164.012ZM23.5443 162.815C25.8206 169.644 34.559 191.756 22.7462 194.34C23.1452 178.577 23.1452 178.577 23.5443 162.815ZM365.335 207.309C366.08 194.351 380.616 149.564 401.649 164.411C399.5 167.942 383.324 177.847 379.901 182.568C368.762 197.929 369.528 222.58 370.722 240.231C371.967 258.633 373.775 276.994 375.561 295.351C376.169 301.605 377.709 307.776 377.905 314.056C377.975 316.292 372.537 318.502 371.92 318.845C368.392 281.769 363.199 244.491 365.335 207.309ZM777.36 173.988C770.733 169.713 764.465 170.356 756.21 169.998C768.354 162.407 777.36 157.662 777.36 173.988ZM625.669 170.347C623.427 169.361 620.839 168.343 622.177 166.481C628.449 157.754 639.639 176.493 625.669 170.347ZM745.834 166.406C739.96 170.445 737.346 170.651 729.872 170.796C733.828 164.861 739.11 166.196 745.834 166.406ZM499.218 176.382C495.004 178.035 487.152 182.804 482.258 183.166C474.138 183.768 483.796 174.411 487.047 173.39C494.874 173.699 497.353 173.754 499.218 176.382ZM244.92 211.599C246.631 206.737 248.179 201.813 249.509 196.834C250.509 193.091 251.289 189.286 251.904 185.461C253.875 173.183 260.769 171.32 258.638 184.962C256.23 200.371 253.182 214.797 247.015 229.058C243.224 227.262 243.224 227.262 239.433 225.466C241.262 220.844 243.27 216.288 244.92 211.599ZM383.392 194.34C387.909 170.84 413.303 172.005 424.595 188.753C427.871 193.613 430.572 198.886 432.775 204.316C441.035 224.669 449.918 244.955 455.222 266.27C457.241 274.381 462.396 309.581 442.951 300.09C445.346 295.899 445.346 295.899 447.74 291.709C439.697 282.662 443.064 296.123 428.984 290.512C429.916 287.968 431.173 285.521 431.778 282.88C433.935 273.469 412.458 291.489 411.825 278.94C411.223 267.004 418.461 255.972 422.2 244.621C417.097 248.727 412.4 253.319 407.66 257.84C396.601 241.515 379.399 215.118 383.392 194.34ZM569.602 180.074C574.032 178.269 571.341 179.148 577.832 177.979C596.036 186.755 576.552 187.559 569.602 180.074ZM777.36 177.181C777.322 208.839 777.742 240.507 776.961 272.156C770.425 272.156 771.059 252.757 766.535 246.965C763.154 242.637 758.63 238.463 753.017 237.238C747.924 236.127 740.405 239.259 737.554 234.894C734.835 230.731 733.871 225.629 731.468 221.276C727.143 213.441 719.464 213.117 711.516 211.3C713.012 211.034 714.492 210.65 716.005 210.502C722.836 209.831 729.671 209.083 736.531 208.843C766.81 207.782 760.721 216.178 773.369 182.767C748.229 182.568 748.229 182.568 723.088 182.368C740.45 176.671 759.294 177.724 777.36 177.181ZM450.284 178.527C450.934 178.736 451.724 178.93 452.08 179.513C460.585 193.436 465.886 201.474 477.669 213.096C473.842 217.158 475.287 215.217 473.03 218.682C466.711 217 463.249 209.997 458.265 205.763C448.872 197.781 436.43 191.62 430.182 180.373C435.438 180.413 445.643 177.04 450.284 178.527ZM274.151 186.359C292.891 193.386 292.595 212.101 292.508 228.659C285.078 222.271 277.121 216.382 270.559 209.105C273.524 209.261 275.982 210.14 278.94 209.903C273.429 202.225 275.58 206.015 272.156 198.73C275.77 199.14 278.349 200.505 282.132 200.725C278.142 193.542 278.142 193.542 274.151 186.359ZM112.135 187.756C108.064 191.108 96.3055 200.844 91.3837 202.321C93.1414 194.411 103.946 185.079 112.135 187.756ZM752.618 189.152C749.566 197 725.202 195.67 718.299 190.549C729.443 188.36 741.311 189.152 752.618 189.152ZM76.2196 192.744C72.7814 198.76 62.823 197.306 59.5964 192.195C64.3249 189.788 71.3294 191.166 76.2196 192.744ZM213.495 198.33C207.106 197.209 200.279 197.14 194.465 194.265C200.427 192.534 210.639 191.014 213.495 198.33ZM142.862 200.725C136.819 200.462 126.774 201.871 121.712 197.532C128.906 197.045 138.305 192.751 142.862 200.725ZM749.426 202.321C744.946 202.321 720.832 205.59 717.9 199.727C723.833 198.808 748.387 194.008 749.426 202.321ZM42.2999 199.528C50.8408 201.186 59.5725 202.202 67.8394 204.915C59.9028 207.32 47.5678 206.903 42.2999 199.528ZM441.754 206.312C457.087 211.627 476.215 231.177 454.374 243.174C449.321 231.582 445.767 218.35 441.754 206.312ZM37.5112 207.908C42.4057 209.043 61.6289 210.54 65.046 215.889C54.9861 215.889 43.8851 217.013 37.5112 207.908ZM208.706 209.105C216.079 209.235 221.476 209.106 225.067 216.288C222.961 215.744 209.389 214.568 208.706 209.105ZM510.791 209.504C508.398 215.611 502.338 218.283 495.627 218.283C498.327 212.414 504.685 210.361 510.791 209.504ZM495.427 211.699C491.231 217.253 485.812 221.77 480.862 226.663C481.004 216.424 484.34 212.282 495.427 211.699ZM138.871 217.884C128.807 216.874 118.783 215.297 108.743 217.286C101.963 218.628 95.9145 222.096 88.9893 222.673C97.8224 211.316 128.747 206.073 138.871 217.884ZM518.173 213.096C519.498 213.354 518.06 215.793 517.924 217.136C517.271 223.566 517.473 241.366 509.793 245.369C505.948 247.374 500.982 237.205 501.812 233.647C503.351 227.053 509.011 220.899 513.584 216.288C514.896 214.965 516.344 212.738 518.173 213.096ZM693.159 213.495C697.055 213.773 699.811 213.338 702.936 215.29C700.68 219.661 696.767 223.801 692.76 226.663C692.959 220.079 692.959 220.079 693.159 213.495ZM689.168 214.293C688.071 221.575 688.071 221.575 686.974 228.858C683.053 225.428 682.274 214.293 689.168 214.293ZM521.166 215.49C525.903 216.437 537.161 226.78 531.791 231.951C529.316 234.334 523.968 235.337 521.166 236.241C521.166 225.865 521.166 225.865 521.166 215.49ZM678.793 215.49C678.592 221.383 678.362 226.05 672.009 227.462C672.009 220.532 671.383 217.342 678.793 215.49ZM215.091 227.861C204.554 224.354 193.858 221.255 183.565 217.086C194.062 216.43 210.687 215.751 215.091 227.861ZM711.915 217.086C710.573 225.362 699.914 239.016 691.164 240.231C691.348 229.436 701.144 219.48 711.915 217.086ZM722.44 223.471C719.42 227.689 712.143 230.004 707.525 231.851C710.518 228.659 710.518 228.659 713.511 225.466C718.137 221.009 726.325 218.043 722.44 223.471ZM666.422 220.279C666.176 236.206 655.76 244.943 642.878 253.799C645.992 243.211 653.498 222.702 666.422 220.279ZM64.2479 224.269C55.8087 227.283 46.6882 226.23 38.9079 221.476C51.5779 222.872 51.5779 222.872 64.2479 224.269ZM476.023 223.072C480.852 226.742 477.833 236.957 472.88 239.433C472.624 233.637 470.552 226.823 476.023 223.072ZM501.612 224.868C499.529 230.7 495.775 233.132 490.04 235.044C492.869 225.613 492.351 223.66 501.612 224.868ZM681.586 224.668C683.376 230.484 678.285 241.758 677.197 247.414C671.163 237.76 674.002 231.563 681.586 224.668ZM135.28 231.452C129.833 230.265 120.67 231.872 119.318 226.464C126.354 225.506 131.638 224.573 135.28 231.452ZM712.164 235.293C716.775 232.767 721.18 229.535 726.281 228.26C722.222 234.347 717.85 240.244 713.112 245.818C713.38 242.599 713.396 244.22 713.049 240.955C712.183 240.792 712.183 240.792 711.316 240.63C705.462 251.39 702.475 265.902 692.76 274.151C694.908 249.5 691.747 246.476 712.164 235.293ZM143.423 286.222C145.582 276.582 146.801 266.755 148.598 257.041C150.11 248.871 149.185 239.242 154.447 232.811C158.901 227.368 162.922 231.509 161.717 237.139C160.327 243.633 158.36 249.996 156.978 256.493C150.873 285.21 149.345 316.395 135.03 342.439C131.863 341.018 131.863 341.018 128.695 339.596C134.333 322.022 139.39 304.232 143.423 286.222ZM647.268 230.654C642.323 239.762 644.86 235.38 639.686 243.823C640.162 236.441 638.906 231.414 647.268 230.654ZM38.3093 231.053C45.2482 231.756 52.7226 231.078 59.0103 234.096C53.4679 239.638 43.1027 235.846 38.3093 231.053ZM709.121 261.381C716.032 251.981 723.201 242.756 729.673 233.048C743.845 242.372 713.908 259.121 709.121 261.381ZM634.498 235.044C635.555 243.768 635.391 252.598 635.695 261.381C625.709 256.943 622.898 238.91 634.498 235.044ZM687.572 235.044C687.196 243.034 688.952 259.363 684.779 267.367C679.529 260.748 677.791 238.304 687.572 235.044ZM484.453 235.443C484.453 242.361 482.717 243.407 476.472 246.217C478.882 242.602 481.091 238.28 484.453 235.443ZM498.171 258.638C492.147 260.646 489.448 245.198 489.753 242.239C489.98 240.031 493.92 238.791 495.427 237.637C500.847 233.489 506.841 255.748 498.171 258.638ZM555.684 244.022C551.895 247.18 544.074 239.683 541.518 237.039C546.088 233.774 553.031 240.705 555.684 244.022ZM100.961 237.039C110.807 237.712 122.733 236.698 129.693 245.02C121.993 247.815 124.811 245.823 120.515 249.809C124.066 253.878 127.606 252.994 129.693 258.588C122.51 258.987 122.51 258.987 115.327 259.386C118.519 263.576 118.519 263.576 121.712 267.766C105.757 267.628 94.315 266.957 79.8111 270.959C84.3925 264.791 90.6719 261.818 98.1676 260.184C79.9878 250.211 96.7992 254.545 100.163 246.616C95.9104 245.893 95.9104 245.893 91.658 245.17C92.9898 240.312 100.961 244.158 100.961 237.039ZM670.014 237.438C668.173 247.019 666.34 256.603 664.427 266.17C652.238 258.044 657.882 242.06 670.014 237.438ZM265.771 238.236C274.368 239.936 279.368 245.921 281.733 254.198C273.752 246.217 273.752 246.217 265.771 238.236ZM544.81 245.668C537.167 248.914 529.761 255.828 521.316 256.842C512.471 257.903 521.026 241.928 526.952 239.234C536.371 239.238 543.703 240.13 544.81 245.668ZM729.473 256.992C732.458 251.2 734.766 245.225 739.649 240.83C769.022 242.03 735.954 253.967 729.473 256.992ZM49.8819 245.818C42.887 245.678 38.8174 246.197 34.1192 241.029C37.1302 241.667 47.8198 242.261 49.8819 245.818ZM470.087 241.428C471.509 246.627 468.455 248.865 466.097 253.4C464.49 247.23 465.798 246.004 470.087 241.428ZM242.476 251.554C243.882 271.312 240.115 291.47 233.647 310.066C226.597 330.337 220.712 351.139 211.499 370.523C210.55 372.52 207.058 370.906 204.865 370.623C197.36 369.654 208.779 354.712 210.053 351.069C222.506 315.455 226.167 284.44 232.849 247.414C234.02 240.922 242.029 245.27 242.476 251.554ZM175.634 248.761C172.697 246.651 182.169 244.888 185.785 244.933C194.608 245.041 205.851 245.344 211.499 253.001C206.058 254.109 202.733 253.583 199.528 257.59C202.765 260.108 207.103 259.515 210.502 261.78C207.609 262.778 207.609 262.778 204.715 263.776C208.057 265.81 211.711 267.62 214.293 270.559C194.739 269.362 194.739 269.362 175.185 268.165C179.176 264.175 179.176 264.175 183.166 260.184C179.287 258.587 182.082 259.494 174.387 259.386C179.661 254.903 177.163 257.248 181.894 252.365C180.468 250.425 177.59 250.166 175.634 248.761ZM75.0224 245.419C72.0096 251.445 68.3227 257.115 63.4498 261.78C64.0939 254.373 66.3552 246.575 75.0224 245.419ZM254.597 245.818C263.11 248.701 269.497 254.89 270.16 264.175C264.628 258.391 259.688 251.981 254.597 245.818ZM756.958 246.467C762.983 254.569 754.533 258.717 747.031 262.179C749.574 257.44 752.224 249.549 756.958 246.467ZM484.054 248.611C486.027 248.952 485.513 252.355 486.498 254.098C491.284 262.568 493.595 273.108 481.909 279.139C471.211 284.661 461.936 270.657 465.697 260.583C467.258 256.404 473.336 254.171 476.672 252.402C479.116 251.107 481.328 248.141 484.054 248.611ZM553.49 248.611C551.159 255.345 552.512 252.162 549.499 258.189C545.262 253.245 547.629 249.228 553.49 248.611ZM621.329 249.41C619.104 253.366 614.653 265.466 609.357 267.367C609.357 259.121 611.942 250.312 621.329 249.41ZM50.68 252.602C46.0987 255.874 37.8942 256.346 33.9197 251.804C39.5128 251.784 45.345 250.922 50.68 252.602ZM558.677 250.607C558.677 260.187 557.319 273.928 548.302 279.339C548.912 269.275 549.741 257.106 558.677 250.607ZM660.037 270.16C649.536 270.464 646.357 269.962 638.089 264.175C641.91 260.354 650.745 256.848 651.857 252.402C653.955 253.335 657.585 266.37 660.037 270.16ZM510.791 253.001C509.161 261.115 507.543 269.232 505.902 277.343C503.956 286.966 499.553 286.605 490.04 291.709C492.059 279.855 496.956 256.69 510.791 253.001ZM560.274 268.165C560.619 263.632 560.674 259.033 561.67 254.597C568.787 258.08 565.445 264.983 560.274 268.165ZM540.246 284.763C537.98 272.303 520.727 264.356 534.734 255.994C546.685 257.368 546.531 279.59 540.246 284.763ZM670.612 254.398C676.705 261.651 680.941 274.541 684.38 282.132C671.617 273.242 669.926 269.844 670.612 254.398ZM386.286 254.597C391.473 265.172 391.473 265.172 396.661 275.747C386.804 271.804 386.286 264.455 386.286 254.597ZM338.798 256.593C342.88 261.045 345.708 265.392 349.173 270.559C342.412 269.207 338.798 263.41 338.798 256.593ZM623.723 256.593C625.222 255.435 624.773 260.261 625.669 261.93C626.965 264.345 630.905 268.744 628.911 272.106C626.61 275.984 610.433 279.198 620.132 262.578C621.305 260.569 621.882 258.015 623.723 256.593ZM32.3235 258.189C38.1875 258.747 43.0336 259.415 48.2857 262.179C42.3837 262.949 36.4093 263.092 32.3235 258.189ZM743.44 258.189C740.535 271.262 735.48 278.142 721.492 278.142C725.42 266.357 731.27 261.448 743.44 258.189ZM722.889 259.186C718.009 271.897 717.51 278.987 703.534 275.348C706.171 267.437 715.693 262.27 722.889 259.186ZM766.436 268.265C765.612 272.164 750.611 270.959 748.229 270.959C749.996 265.656 753.229 263.3 758.005 260.783C764.728 259.029 767.125 264.998 766.436 268.265ZM527.95 272.954C519.57 276.146 519.57 276.146 511.19 279.339C512.608 273.723 513.608 267.949 515.779 262.578C521.322 263.964 524.017 268.757 527.95 272.954ZM256.193 263.376C262.566 266.917 265.973 271.095 267.367 278.142C262.414 274.289 259.501 268.598 256.193 263.376ZM573.043 263.776C571.414 275.908 568.47 278.505 556.682 279.339C559.643 272.628 565.36 265.087 573.043 263.776ZM604.968 266.768C601.043 270.574 596.257 273.38 591.799 276.545C591.799 267.722 596.448 264.639 604.968 266.768ZM44.8314 270.921C40.2627 271.661 36.7466 272.389 33.3211 268.963C37.0305 268.963 41.8815 268.15 44.8314 270.921ZM586.212 280.735C580.444 282.138 569.628 275.957 576.635 271.557C586.823 265.159 591.387 279.477 586.212 280.735ZM611.007 274.827C609.325 282.397 598.776 284.411 592.198 288.517C592.7 280.994 597.035 278.205 602.973 273.752C608.041 271.278 611.79 271.307 611.007 274.827ZM666.622 274.75C671.546 278.295 670.59 287.949 667.994 292.32C664.692 286.426 665.025 281.365 666.622 274.75ZM770.53 277.116C763.496 281.611 754.466 282.547 746.632 284.526C750.148 278.374 765.266 271.112 770.53 277.116ZM660.037 301.087C651.387 311.215 641.477 301.326 636.481 294.141C634.169 290.817 635.695 278.698 635.695 275.348C643.475 275.823 650.507 277.165 658.441 277.343C658.441 283.45 664.166 296.254 660.037 301.087ZM627.315 275.747C626.816 280.336 626.816 280.336 626.317 284.925C623.424 282.132 623.424 282.132 620.531 279.339C623.923 277.543 623.923 277.543 627.315 275.747ZM115.327 283.728C105.822 283.449 96.9576 283.858 87.3931 284.526C94.2246 276.841 108.585 274.29 115.327 283.728ZM534.784 292.133C529.188 302.04 523.551 306.393 516.028 316.65C508.622 326.749 506.304 338.372 495.627 343.188C493.037 332.165 493.577 333.446 497.522 322.237C501.253 311.638 504.69 300.937 508.421 290.338C509.938 286.031 517.236 284.426 519.969 283.13C534.042 280.02 537.007 288.198 534.784 292.133ZM359.549 286.921C353.148 287.212 347.548 287.802 344.983 281.134C350.308 281.544 356.688 281.849 359.549 286.921ZM207.908 288.118C199.034 287.108 188.128 289.974 181.421 284.077C187.278 278.22 205.069 279.364 207.908 288.118ZM38.8081 281.284C53.3811 283.603 49.0762 291.295 47.1883 303.232C46.5187 307.466 46.9434 316.083 43.497 320.391C40.0476 324.703 27.6182 321.122 26.5621 315.665C24.7555 306.331 26.284 289.566 31.7249 282.132C33.378 279.873 35.9991 280.837 38.8081 281.284ZM384.49 281.733C386.679 284.885 387.944 288.591 389.478 292.108C383.738 290.342 383.675 287.167 384.49 281.733ZM607.761 297.296C607.895 291.479 608.8 286.48 612.151 281.533C625.472 289.016 614.394 293.59 607.761 297.296ZM691.164 306.474C690.866 293.957 690.191 290.623 697.748 281.933C722.375 285.305 702.092 301.01 691.164 306.474ZM776.399 282.83C776.806 289.278 770.901 290.181 765.388 293.306C766.838 287.99 771.659 284.86 776.399 282.83ZM256.193 282.93C262.101 284.618 262.61 285.822 262.179 291.709C259.762 289.098 258.06 285.945 256.193 282.93ZM723.886 283.329C721.303 286.487 718.889 287.86 715.107 289.315C716.005 286.222 716.005 286.222 716.903 283.13C721.765 282.874 719.438 282.773 723.886 283.329ZM737.853 282.93C729.204 295.479 717.029 312.534 706.328 323.235C703.2 303.423 719.878 289.92 737.853 282.93ZM575.039 283.329C568.677 300.211 553.864 300.151 537.527 299.291C545.578 284.801 560.319 283.524 575.039 283.329ZM764.59 283.728C760.293 288.416 755.559 291.855 749.426 293.705C751.462 285.967 756.426 283.306 764.59 283.728ZM484.254 284.925C482.233 298.562 475.931 308.246 460.51 305.676C466.885 293.6 470.232 287.522 484.254 284.925ZM587.808 285.325C585.459 291.002 581.304 292.638 575.438 293.705C576.605 287.284 581.446 283.856 587.808 285.325ZM604.369 286.921C607.546 294.333 598.963 303.479 592.198 304.878C592.855 294.69 594.514 290.753 604.369 286.921ZM410.628 288.118C416.2 289.953 420.504 294.453 425.393 297.695C431.157 301.518 443.748 304.365 441.417 310.877C435.048 328.673 404.132 303.423 408.433 292.108C408.972 290.689 409.186 287.643 410.628 288.118ZM677.995 288.118C688.166 288.43 685.127 298.196 684.779 306.075C677.701 304.306 677.995 294.13 677.995 288.118ZM745.435 288.118C744.739 295.08 741.554 304.985 732.915 305.04C730.28 296.101 735.899 288.118 745.435 288.118ZM310.066 295.899C307.184 299.604 303.566 300.327 299.466 302.983C287.341 310.835 286.27 315.713 271.358 314.056C273.058 306.453 274.414 298.745 276.745 291.31C287.778 291.31 299.384 293.164 310.066 295.899ZM185.162 298.493C174.188 297.296 174.188 297.296 163.214 296.099C168.277 290.855 182.506 289.562 185.162 298.493ZM631.305 303.681C629.206 312.78 616.943 299.425 620.331 294.503C623.243 290.273 632.479 298.594 631.305 303.681ZM777.36 292.508C776.769 307.477 772.586 308.098 758.604 313.657C759.282 302.134 766.718 297.197 777.36 292.508ZM588.207 293.306C587.596 296.907 586.453 296.784 583.02 296.498C584.744 292.476 583.209 293.805 588.207 293.306ZM343.587 294.104C347.724 294.428 352.046 294.113 355.957 295.5C353.056 300.962 345.298 300.378 343.587 294.104ZM500.415 294.104C498.677 299.61 495.863 314.387 491.499 318.222C485.107 309.443 491.199 297.79 500.415 294.104ZM123.308 300.09C116.535 299.166 110.744 299.159 103.754 299.291C109.14 292.682 118.111 293.705 123.308 300.09ZM757.606 295.5C753.176 310.514 747.219 323.83 732.266 330.019C737.38 318.087 744.634 300.689 757.606 295.5ZM674.004 296.099C673.792 306.068 673.807 315.522 671.011 325.13C668.347 324.864 666.648 323.261 664.028 322.836C664.39 314.875 664.309 298.523 674.004 296.099ZM587.808 305.277C585.414 303.98 585.414 303.98 583.02 302.683C584.864 306.488 587.182 310.155 588.207 314.256C580.497 314.834 565.664 311.579 562.119 303.382C566.838 301.294 587.808 291.839 587.808 305.277ZM80.0106 299.89C69.7349 303.382 69.7349 303.382 59.4592 306.874C60.6451 296.201 72.5142 297.97 80.0106 299.89ZM619.384 305.277C620.729 306.977 624.128 311.068 623.412 313.583C619.636 326.839 606.575 335.141 594.193 338.399C595.441 325.237 605.353 331.304 613.947 324.033C607.325 322.141 601.259 323.905 594.592 321.639C599.339 318.517 605.668 319.986 609.956 316.251C604.898 313.276 598.501 317.167 594.193 312.859C599.349 306.629 612.574 296.675 619.384 305.277ZM553.49 305.676C545.667 316.106 531.481 333.481 517.575 334.408C517.575 312.092 535.473 306.214 553.49 305.676ZM727.278 305.277C732.984 310.032 723.012 316.108 719.098 317.648C721.136 312.116 722.736 308.911 727.278 305.277ZM634.498 306.075C637.223 308.314 641.027 310.171 641.968 313.57C636.906 316.657 631.424 318.995 626.118 321.639C630.308 313.857 630.308 313.857 634.498 306.075ZM408.084 309.916C413.844 313.797 441.349 327.097 424.919 337.351C421.005 339.794 410.028 328.094 404.443 323.833C395.743 317.198 392.62 318.616 399.454 311.662C403.295 307.754 403.165 306.602 408.084 309.916ZM204.316 312.859C201.298 315.878 198.856 316.089 194.34 317.648C196.724 320.1 200.518 321.091 201.523 324.432C196.264 324.793 193.061 324.034 189.152 326.826C191.982 329.53 195.768 330.365 197.931 333.61C185.139 331.554 172.192 330.168 159.622 327.026C162.444 324.792 165.957 323.601 169.199 322.038C166.026 320.342 166.026 320.342 162.852 318.646C166.054 314.499 172.549 316.936 174.786 311.662C168.568 309.956 169.956 311.889 168.401 308.47C181.132 307.175 192.369 308.877 204.316 312.859ZM483.655 326.427C480.297 323.489 465.782 312.67 473.479 309.667C483.833 308.788 482.913 320.983 483.655 326.427ZM737.853 308.869C736.242 312.552 737.465 311.485 735.06 312.859C736.466 309.11 735.24 310.175 737.853 308.869ZM568.267 313.707C565.217 324.719 543.697 332.781 533.936 334.408C541.95 325.809 555.11 306.329 568.267 313.707ZM658.042 309.667C657.643 312.061 657.643 312.061 657.244 314.456C654.65 312.66 654.65 312.66 652.056 310.864C653.989 309.484 655.73 309.667 658.042 309.667ZM258.987 310.066C256.167 315.941 252.099 316.649 246.417 314.256C250.656 312.439 254.446 310.809 258.987 310.066ZM681.661 311.45C682.889 318.988 689.773 332.452 685.178 338.798C677.837 331.457 677.553 321.119 681.661 311.45ZM468.092 324.831C463.05 326.041 446.605 324.926 451.531 315.254C460.161 313.252 465.74 319.343 468.092 324.831ZM698.746 312.859C700.04 325.799 700.077 332.536 695.354 344.185C693.486 334.33 689.184 320.296 698.746 312.859ZM352.503 323.085C338.882 325.68 320.722 321.016 308.071 315.852C322.521 317.545 338.69 317.957 352.503 323.085ZM731.867 315.653C730.055 328.73 716.744 339.478 704.931 343.587C709.708 329.853 718.776 321.946 731.867 315.653ZM773.968 318.247C765.986 320.196 758.95 324.831 750.623 324.831C757.816 316.439 763.883 317.238 773.968 318.247ZM648.066 317.848C643.033 325.785 636.772 332.592 627.315 330.418C631.125 326.131 642.254 315.668 648.066 317.848ZM561.471 329.819C569.561 326.187 577.344 320.042 586.212 320.042C586.092 322.252 587.033 325.504 583.968 326.34C574.599 328.896 567.478 329.532 558.827 334.708C549.944 340.022 543.937 346.409 533.936 347.178C538.377 337.353 552.771 333.725 561.471 329.819ZM78.8134 321.639C79.3878 326.234 67.1279 325.354 63.0507 326.427C66.5123 320.196 72.366 320.206 78.8134 321.639ZM659.239 328.822C649.862 330.418 649.862 330.418 640.484 332.014C648.453 324.329 651.03 320.612 659.239 328.822ZM410.229 357.204C403.3 362.834 380.069 355.897 375.598 349.261C369.304 339.917 379.073 327.38 386.485 324.232C397.449 319.577 424.118 345.919 410.229 357.204ZM776.611 323.285C776.986 324.856 776.986 324.856 777.36 326.427C773.17 326.427 773.17 326.427 768.98 326.427C769.299 322.091 772.903 323.249 776.611 323.285ZM444.947 324.432C448.139 327.824 448.139 327.824 451.332 331.216C445.146 333.61 445.146 333.61 438.961 336.005C440.549 331.694 442.071 328.026 444.947 324.432ZM253.799 326.427C253.58 332.228 247.086 336.803 241.428 336.803C245.218 333.013 249.638 329.783 253.799 326.427ZM294.253 359.499C294.177 360.443 293.215 378.061 290.113 379.103C288.454 379.66 286.613 378.959 284.876 378.753C258.403 375.622 251.894 378.142 255.395 351.169C265.662 352.973 271.672 356.9 274.7 346.081C276.337 340.23 276.736 333.786 279.937 328.622C301.168 331.562 295.2 347.848 294.253 359.499ZM116.923 336.803C110.226 335.495 104.728 334.009 98.1676 334.009C102.259 325.997 114.145 329.526 116.923 336.803ZM484.852 345.981C477.27 343.453 465.516 340.068 463.303 331.216C474.993 328.518 479.861 335.999 484.852 345.981ZM776.961 330.418C776.961 339.702 772.813 338.928 764.191 339.197C767.371 332.382 769.283 330.418 776.961 330.418ZM762.994 330.817C760.735 339.503 752.453 349.62 744.637 353.962C745.61 346.181 755.058 332.609 762.994 330.817ZM263.776 331.615C262.044 338.216 257.657 341.386 251.006 341.99C252.822 338.465 260.069 333.525 263.776 331.615ZM752.618 332.413C749.945 336.274 746.932 338.598 743.041 341.192C743.786 335.977 747.203 331.58 752.618 332.413ZM355.159 337.401C353.005 343.862 337.322 337.201 333.81 334.209C340.95 335.101 348.267 335.334 355.159 337.401ZM575.837 334.807C567.593 340.946 560.952 348.998 550.297 347.577C553.186 340.356 568.552 333.168 575.837 334.807ZM586.212 334.408C586.826 347.906 576.637 351.61 565.062 349.173C571.619 343.491 578.887 339.035 586.212 334.408ZM626.118 334.408C631.94 336.476 630.082 335.007 632.577 337.364C630.71 340.055 631.971 338.866 628.5 340.594C626.647 336.589 627.443 338.65 626.118 334.408ZM674.653 342.988C669.451 352.611 655.991 339.794 661.235 335.206C667.716 336.339 671.197 340.498 674.653 342.988ZM42.25 341.716C42.9971 354.912 39.1814 368.1 39.9055 381.297C40.8822 399.097 47.7853 417.255 58.6611 431.379C72.6376 449.529 91.4963 466.356 113.132 475.075C168.568 497.416 229.26 463.713 247.414 409.83C250.723 415.865 254.892 421.504 257.341 427.937C260.503 436.244 260.485 445.616 264.125 453.726C266.934 459.985 272.272 464.766 276.346 470.287C278.042 469.588 278.042 469.588 279.738 468.89C272.487 476.067 259.675 482.245 260.184 492.434C263.376 491.237 263.376 491.237 266.569 490.04C263.576 494.529 263.576 494.529 260.583 499.019C258.205 493.116 257.447 486.262 253.45 481.311C251.109 478.411 246.5 478.617 243.025 477.27C245.752 485.359 251.359 493.003 251.205 501.538C251.13 505.741 244.634 507.014 242.426 510.591C240.723 513.351 240.697 516.843 239.832 519.969C269.966 525.935 296.653 525.492 327.06 522.032C327.402 510.624 325.858 499.001 328.086 487.808C329.491 480.749 340.901 472.804 337.9 463.503C331.392 443.332 322.536 423.996 314.855 404.243C326.578 400.335 336.815 392.818 347.178 386.086C356.551 403.32 361.509 422.784 371.408 439.721C378.897 452.535 390.486 462.575 398.407 475.125C408.934 491.804 417.196 509.81 426.59 527.152C419.091 531.725 412.06 537.171 404.093 540.87C397.053 544.138 389.088 544.983 381.896 547.903C375.176 550.631 371.885 558.986 368.565 564.239C374.033 568.641 374.033 568.641 379.502 573.043C200.924 573.043 200.924 573.043 22.3471 573.043C22.5466 454.324 22.5466 454.324 22.7462 335.605C29.4613 336.755 41.8649 334.914 42.25 341.716ZM621.566 335.668C622.67 341.039 620.612 344.286 616.141 347.178C617.364 343.51 618.099 337.902 621.566 335.668ZM460.111 340.793C452.728 339.796 452.728 339.796 445.346 338.798C450.335 334.208 457.079 334.73 460.111 340.793ZM314.256 336.404C317.845 338.603 320.272 342.293 323.235 345.283C347.082 369.344 341.048 367.578 310.066 377.905C311.116 364.253 311.284 349.841 314.256 336.404ZM725.083 353.962C727.079 349.572 727.079 349.572 729.074 345.183C740.059 326.638 740.796 348.724 725.083 353.962ZM183.565 346.38C173.551 344.291 163.341 342.831 153.636 339.596C160.906 334.563 180.772 335.905 183.565 346.38ZM647.268 338.798C642.09 346.047 639.405 349.463 631.505 344.821C633.468 337.46 641.361 338.558 647.268 338.798ZM657.643 348.375C645.359 348.219 647.682 348.498 651.059 339.596C657.049 340.534 657.469 344.248 657.643 348.375ZM611.752 338.798C609.918 348.388 602.296 360.286 593.395 364.737C597.206 344.424 585.687 347.139 611.752 338.798ZM531.342 340.793C529.344 351.78 509.196 358.062 500.016 361.544C503.974 345.712 514.192 335.814 531.342 340.793ZM725.482 341.192C723.886 349.467 720.38 358.676 712.314 362.342C714.617 356.583 717.148 342.96 725.482 341.192ZM776.961 341.591C776.053 354.302 761.588 358.337 751.022 363.14C755.658 345.985 759.302 344.221 776.961 341.591ZM73.0271 353.962C66.4789 353.962 62.9401 352.37 58.8607 347.178C63.7065 349.16 69.0985 350.501 73.0271 353.962ZM625.332 347.54C627.875 359.463 621.364 364.236 612.35 372.319C607.017 377.101 601.777 382.002 596.189 386.485C595.66 386.909 594.841 387.085 594.193 386.884C585.886 384.306 601.943 366.596 602.973 365.535C610.049 358.239 609.613 358.917 617.139 352.565C623.954 348.032 623.954 348.032 625.332 347.54ZM469.688 348.375C478.814 350.614 477.081 368.28 466.895 359.549C469.994 356.006 469.688 352.92 469.688 348.375ZM710.318 349.61C711.64 357.415 703.567 367.542 697.549 371.92C696.655 360.301 698.284 353.496 710.318 349.61ZM741.445 349.173C739.677 358.013 733.555 367.755 725.083 371.52C728.442 365.334 733.251 352.132 741.445 349.173ZM586.212 349.572C585.041 353.672 583.302 354.068 579.428 355.558C581.553 353.434 583.519 350.965 586.212 349.572ZM630.108 349.572C634.163 351 633.152 349.671 634.298 352.316C631.655 354.729 630.682 352.153 630.108 349.572ZM652.854 351.967C652.59 355.406 652.91 353.732 651.907 356.992C648.731 356.687 644.118 355.331 643.277 351.967C646.296 350.926 649.746 351.696 652.854 351.967ZM667.619 351.967C670.114 351.767 670.114 351.767 672.608 351.568C695.077 358.317 675.32 368.467 667.619 351.967ZM541.518 352.366C540.341 355.373 541.298 354.197 538.725 355.957C537.927 354.162 537.927 354.162 537.128 352.366C539.921 352.087 538.458 352.111 541.518 352.366ZM486.448 367.53C479.438 365.685 476.852 362.911 478.068 355.159C486.613 353.571 486.335 362.475 486.448 367.53ZM657.643 353.164C663.636 353.779 660.935 362.242 656.596 358.801C657.866 356.895 657.643 355.447 657.643 353.164ZM85.9964 358.152C88.8499 357.107 95.1438 360.658 99.1154 359.898C111.732 357.482 122.657 346.774 130.89 364.337C113.318 368.667 99.646 373.135 82.2054 372.718C82.9296 367.753 81.2854 359.877 85.9964 358.152ZM566.858 355.758C558.664 361.22 549.501 365.068 540.72 369.525C545.033 354.121 550.911 351.202 566.858 355.758ZM438.562 356.556C435.176 359.634 432.717 359.157 429.383 356.157C433.973 356.356 433.973 356.356 438.562 356.556ZM534.734 356.356C536.481 373.825 478.371 398.095 502.411 371.121C504.724 368.525 507.431 366.471 510.23 364.387C514.536 361.181 519.435 358.994 524.359 356.955C532.622 355.69 530.494 355.561 534.734 356.356ZM644.474 374.725C644.09 375.185 643.232 374.893 642.679 374.663C637.154 372.368 631.538 360.858 636.693 357.753C647.783 351.074 650.893 367.036 644.474 374.725ZM243.623 359.15C245.607 368.407 236.715 370.394 229.457 372.319C233.894 367.881 238.312 362.608 243.623 359.15ZM746.632 359.549C745.941 367.849 744.382 370.094 737.454 374.713C738.758 368.455 739.563 361.316 746.632 359.549ZM585.015 359.948C584.673 369.868 589.272 394.438 574.241 395.065C574.15 385.517 570.381 362.997 585.015 359.948ZM725.882 360.347C725.305 363.423 724.505 363.567 721.891 365.136C722.796 362.241 723.319 361.885 725.882 360.347ZM768.181 362.741C765.064 368.827 757.644 369.613 751.421 369.924C757.183 363.522 759.587 362.025 768.181 362.741ZM178.178 368.528C171.641 372.041 161.546 371.905 158.824 363.739C165.351 364.991 172.687 364.784 178.178 368.528ZM466.895 374.713C466.734 377.345 467.962 380.853 465.959 382.569C462.06 385.912 448.383 367.432 455.921 363.34C463.316 359.324 467.394 366.546 466.895 374.713ZM630.507 363.14C632.493 366.615 633.517 370.558 634.897 374.314C629.909 371.92 629.909 371.92 624.921 369.525C628.434 365.201 626.577 367.333 630.507 363.14ZM655.648 363.14C660.578 370.418 658.387 380.43 648.864 379.901C652.256 371.52 652.256 371.52 655.648 363.14ZM537.378 364.487C535.198 370.155 534.538 374.605 527.95 375.112C530.569 371.779 533.517 366.593 537.378 364.487ZM702.188 445.695C701.84 437.754 700.487 428.625 704.881 422.001C710.853 412.998 717.656 403.894 726.779 398.108C735.048 392.864 746.04 393.979 755.062 390.176C766.041 385.548 770.733 374.218 776.961 365.136C776.525 466.62 776.525 466.62 776.09 568.104C743.796 571.069 711.31 571.865 678.88 572.071C595.982 572.596 513.081 572.453 430.182 572.644C443.712 569.909 462.881 573.386 470.1 561.62C475.369 553.032 466.436 541.805 464.608 531.896C460.724 510.85 478.863 502.738 495.627 502.411C493.884 474.731 492.835 446.78 495.826 419.208C496.26 415.206 507.693 402.651 511.389 405.141C517.05 408.954 521.08 415.092 527.152 418.21C527.278 417.637 528.111 401.951 534.734 402.547C545.864 403.548 556.549 407.402 567.457 409.83C560.872 406.837 560.872 406.837 554.288 403.844C563.567 400.874 573.678 401.259 583.419 401.45C581.144 435.191 579.218 469.09 573.442 502.411C584.815 502.411 584.815 502.411 596.189 502.411C594.284 475.984 590.175 456.194 595.997 430.892C596.519 428.622 598.595 426.895 600.491 425.543C608.975 419.49 617.8 413.883 626.916 408.832C631.309 406.398 648.339 398.543 651.059 400.951C661.679 410.353 670.397 421.772 678.968 433.075C693.862 452.719 685.447 480.888 681.985 502.411C694.556 502.211 694.556 502.211 707.126 502.012C703.637 483.493 703.011 464.521 702.188 445.695ZM717.9 365.535C715.444 378.798 711.123 385.211 698.746 391.074C697.478 380.936 709.01 368.922 717.9 365.535ZM564.663 366.333C564.038 369.371 562.378 369.903 559.525 371.72C553.887 375.312 548.242 378.895 542.516 382.345C535.333 386.671 528.577 384.834 519.969 384.689C534.61 378.022 549.744 372.327 564.663 366.333ZM667.619 366.333C671.747 366.849 670.59 370.253 670.014 373.516C668.089 371.271 667.883 369.23 667.619 366.333ZM676.997 368.328C687.632 372.316 685.491 378.921 686.375 391.074C675.877 388.741 676.492 376.912 676.997 368.328ZM672.009 387.084C661.977 384.217 659.212 380.832 661.035 370.124C666.568 373.961 668.847 381.139 672.009 387.084ZM61.0555 373.316C59.4592 372.917 59.4592 372.917 57.863 372.518C58.4616 371.62 58.4616 371.62 59.0602 370.722C60.0578 372.019 60.0578 372.019 61.0555 373.316ZM472.481 370.323C477.502 371.439 484.189 376.02 484.254 381.896C484.271 383.482 481.579 384.302 481.66 385.886C481.902 390.628 483.522 395.198 484.453 399.853C468.106 395.395 469.242 384.207 472.481 370.323ZM91.5333 410.179C76.4786 381.814 77.3879 383.734 107.545 376.908C117.241 374.713 127.032 372.905 136.876 371.52C129.03 385.905 109.898 406.074 96.7709 417.013C94.0413 414.088 93.4878 413.861 91.5333 410.179ZM733.464 372.319C733.464 380.583 706.907 408.421 701.639 409.381C696.96 401.193 725.482 375.454 733.464 372.319ZM344.784 373.516C342.174 377.692 317.849 401.251 312.061 397.659C309.215 395.892 309.401 384.545 310.864 383.891C316.183 381.515 321.905 380.167 327.425 378.304C342.24 373.99 342.24 373.99 344.784 373.516ZM759.003 373.915C753.86 381.629 741.396 387.395 732.266 387.882C741.305 378.552 745.637 373.915 759.003 373.915ZM634.049 392.521C630.912 394.28 626.666 394.001 623.474 394.616C609.615 397.286 606.955 401.376 592.996 399.055C596.747 389.054 610.095 381.642 618.735 376.509C629.844 375.217 648.96 384.156 634.049 392.521ZM150.843 379.901C152.588 382.327 152.782 385.897 152.003 388.655C148.318 401.691 143.771 414.471 140.019 427.488C138.534 432.637 140.785 441.143 135.754 442.989C128.153 445.778 104.487 430.965 104.952 424.794C105.168 421.916 107.944 419.831 109.79 417.611C114.82 411.563 119.865 405.523 125.104 399.654C134.185 389.481 145.036 371.828 150.843 379.901ZM559.875 378.304C558.051 384.831 554.402 387.397 547.903 387.084C551.105 383.348 555.992 381.41 559.875 378.304ZM568.853 379.103C572.616 396.037 562.309 397.897 547.903 399.454C554.622 392.603 561.2 384.97 568.853 379.103ZM355.957 381.098C356.903 380.955 372.382 381.048 375.636 384.727C380.061 389.729 382.468 396.279 386.784 401.375C395.287 411.412 404.441 420.914 413.97 429.982C422.512 438.111 431.383 446.164 441.555 452.13C454.733 459.858 470.245 464.028 469.688 481.859C469.521 487.204 469.207 494.491 465.199 498.919C464.133 500.096 461.306 499.096 460.31 498.42C448.725 490.554 437.455 482.227 425.792 474.477C414.531 466.993 400.721 462.323 392.072 451.93C375.439 431.942 365.501 408.558 357.554 384.091C357.204 383.015 354.839 381.267 355.957 381.098ZM383.492 382.295C400.188 385.295 403.784 397.212 416.077 408.82C431.171 423.071 453.78 428.611 458.515 450.932C436.21 445.664 389.712 407.175 383.492 382.295ZM427.361 385.05C439.255 386.411 439.199 393.475 439.958 403.495C440.127 405.72 442.207 413.18 440.208 416.614C438.029 420.356 431.78 413.916 428.386 411.226C419.377 404.088 402.481 394.743 405.64 383.492C407.602 376.503 420.149 384.225 427.361 385.05ZM217.485 385.487C217.17 391.163 216.724 399.018 212.497 403.245C206.661 398.195 201.881 392.037 196.734 386.286C204.726 386.398 210.246 386.935 217.485 385.487ZM463.303 393.468C457.273 393.993 453.248 395.623 447.74 398.257C447.74 386.377 456.963 382.506 463.303 393.468ZM527.152 392.67C523.027 395.97 517.788 399.17 514.183 393.668C512.553 391.182 510.434 389.14 512.187 386.685C519.574 391.135 520.959 391.609 527.152 392.67ZM186.159 386.685C187.128 386.667 188.236 386.831 188.953 387.483C196.678 394.503 217.79 409.253 206.81 421.402C202.946 425.678 198.552 430.249 192.943 432.177C184.26 418.712 177.056 403.818 170.796 389.079C175.504 388.137 181.387 386.77 186.159 386.685ZM509.594 399.055C503.317 399.592 500.799 400.795 495.627 404.243C496.47 391.594 501.518 381.005 509.594 399.055ZM262.179 389.079C288.789 396.006 291.872 394.041 291.709 421.402C277.269 416.729 269.686 401.155 262.179 389.079ZM160.021 390.875C165.228 398.329 169.028 406.674 173.539 414.569C178.204 422.732 184.882 430.089 187.356 439.16C172.866 445.629 160.643 446.356 145.256 444.149C149.443 426.696 152.688 407.427 160.021 390.875ZM549.1 391.074C541.986 399.83 528.938 395.502 525.955 407.435C522.688 406.074 524.23 406.985 521.366 404.642C528.44 395.209 537.875 391.329 549.1 391.074ZM668.218 409.83C662.806 406.447 662.984 397.914 663.629 392.271C671.909 392.907 669.863 403.4 668.218 409.83ZM231.963 395.339C232.184 398.962 232.794 397.61 231.103 399.704C228.511 397.672 229.463 399.011 228.509 395.514C230.846 394.67 229.693 394.69 231.963 395.339ZM673.805 394.666C684.304 404.357 686.994 412.69 685.377 426.59C674.918 419.751 672.926 406.092 673.805 394.666ZM645.671 395.065C643.03 398.201 638.58 399.938 634.498 400.252C637.684 395.494 640.084 395.709 645.671 395.065ZM69.0366 399.853C65.7243 399.357 63.0965 399.501 65.2455 396.062C69.1249 398.71 68.7295 397.397 69.0366 399.853ZM657.244 396.062C657.045 398.556 657.045 398.556 656.845 401.051C654.923 398.579 655.551 400.006 655.099 396.711C656.172 396.387 656.172 396.387 657.244 396.062ZM470.087 401.45C459.512 403.844 459.512 403.844 448.937 406.238C453.587 401.845 465.211 393.648 470.087 401.45ZM628.911 399.454C625.12 404.163 622.114 403.605 616.141 403.844C619.951 399.762 623.347 399.107 628.911 399.454ZM258.189 400.651C264.349 406.812 269.211 414.03 275.348 420.205C279.715 424.599 286.705 427.386 289.948 432.676C293.829 439.005 289.825 447.555 288.916 454.923C276.869 447.936 258.189 414.305 258.189 400.651ZM592.996 404.642C597.105 404.948 597.969 404.141 599.381 407.435C596.189 407.834 596.189 407.834 592.996 408.234C592.996 406.438 592.996 406.438 592.996 404.642ZM456.719 408.832C463.088 407.354 469.609 404.656 476.073 405.64C480.872 406.37 484.136 417.96 484.653 420.804C487.778 438.026 479.839 458.125 478.866 475.275C478.068 475.275 478.068 475.275 477.27 475.275C474.903 464.062 470.514 450.692 465.685 440.033C461.124 429.965 453.491 422.052 449.536 411.626C452.562 409.714 451.765 409.982 456.719 408.832ZM617.738 407.834C614.21 415.304 601.718 417.728 594.592 419.806C596.232 408.876 608.865 408.7 617.738 407.834ZM221.476 417.013C223.999 417.644 224.973 418.344 226.264 420.604C222.345 420.114 222.244 420.471 221.476 417.013ZM308.071 420.604C317.049 424.378 319.504 433.642 320.84 442.552C308.696 435.373 307.657 434.267 308.071 420.604ZM80.0106 422.45C79.818 425.146 78.8357 426.489 75.9701 426.041C75.8095 423.47 77.488 422.056 80.0106 422.45ZM210.701 444.548C208.712 443.961 208.712 443.961 206.723 443.375C206.717 442.166 206.717 442.166 206.711 440.956C211.038 441.489 209.704 440.295 210.701 444.548ZM267.168 442.153C271.513 446.74 274.843 452.194 278.541 457.317C272.444 455.793 266.528 448.552 267.168 442.153ZM308.869 444.149C312.713 441.361 316.993 449.068 320.99 451.631C326.354 455.069 331.61 460.153 330.867 467.094C330.029 474.915 316.76 482.58 310.817 475.41C307.971 471.976 308.462 464.37 308.47 460.709C308.482 455.187 304.398 447.39 308.869 444.149ZM99.0655 446.443C98.6352 448.426 98.6352 448.426 98.205 450.409C93.4596 449.194 94.7691 446.591 99.0655 446.443ZM187.157 450.932C190.296 452.673 190.225 452.89 190.349 456.519C187.137 456.208 187.401 453.62 187.157 450.932ZM160.769 461.857C161.211 464.768 161.385 464.986 158.425 466.097C158.425 463.26 158.215 464.732 159.223 461.707C159.996 461.782 159.996 461.782 160.769 461.857ZM131.289 462.904C131.123 466.552 131.366 467.448 127.698 467.693C127.698 464.106 127.547 463.766 131.289 462.904ZM408.633 472.481C423.414 482.441 438.228 492.354 452.978 502.361C458.058 505.807 456.741 504.355 459.051 507.711C428.56 530.07 415.692 498.366 408.633 472.481ZM282.731 474.427C281.847 481.003 270.139 483.718 265.97 485.65C268.689 481.644 277.179 471.651 282.731 474.427ZM281.334 504.406C281.533 508.197 281.533 508.197 281.733 511.988C282.83 508.995 282.83 508.995 283.928 506.002C284.427 508.596 284.427 508.596 284.925 511.19C286.818 508.936 285.952 510.485 286.123 506.002C289.061 508.157 287.516 506.49 288.517 512.387C288.916 508.795 288.916 508.795 289.315 505.204C291.787 507.367 290.387 505.736 291.709 511.19C292.408 508.396 292.408 508.396 293.106 505.603C294.004 509.594 294.004 509.594 294.902 513.584C295.401 509.195 295.401 509.195 295.899 504.805C296.598 507.997 296.598 507.997 297.296 511.19C298.094 507.997 298.094 507.997 298.892 504.805C299.491 507.798 299.491 507.798 300.09 510.791C301.492 507.518 300.794 509.164 302.185 505.852C302.933 509.718 302.933 509.718 303.681 513.584C304.18 509.793 304.18 509.793 304.679 506.002C305.577 509.195 305.577 509.195 306.474 512.387C306.874 509.993 306.874 509.993 307.273 507.598C309.94 509.999 308.641 508.286 309.667 513.584C310.964 510.591 310.964 510.591 312.261 507.598C312.959 510.192 312.959 510.192 313.657 512.786C314.456 510.192 314.456 510.192 315.254 507.598C316.226 509.419 316.226 509.419 317.199 511.24C318.022 509.619 318.022 509.619 318.845 507.997C319.244 510.591 319.244 510.591 319.643 513.185C320.541 511.09 320.541 511.09 321.439 508.995C321.838 511.888 321.838 511.888 322.237 514.781C302.452 516.396 282.674 515.814 262.977 513.584C263.576 509.594 263.576 509.594 264.175 505.603C266.048 507.395 265.173 506.193 266.17 509.594C266.369 507.399 266.369 507.399 266.569 505.204C268.89 507.222 267.624 505.703 268.564 510.791C269.163 507.798 269.163 507.798 269.761 504.805C270.16 507.199 270.16 507.199 270.559 509.594C271.222 505.617 270.335 507.101 272.555 504.805C272.555 508.396 272.555 508.396 272.555 511.988C273.353 508.396 273.353 508.396 274.151 504.805C276.123 507.046 275.179 505.503 275.747 509.993C276.745 507.598 276.745 507.598 277.742 505.204C278.341 507.997 278.341 507.997 278.94 510.791C280.284 506.49 279.49 508.62 281.334 504.406ZM452.13 530.744C446.101 544.307 422.027 545.081 410.229 546.706C425.037 533.964 433.048 530.048 452.13 530.744ZM444.947 556.682C434.602 564.577 400.25 569.389 389.677 562.069C408.034 564.477 429.668 553.669 444.947 556.682Z" fill="#000000" fill-rule="nonzero" opacity="1" stroke="none"/>
</g>
</svg>
