<?xml version="1.0" encoding="UTF-8" standalone="no"?>
<!DOCTYPE svg PUBLIC "-//W3C//DTD SVG 1.1//EN" "http://www.w3.org/Graphics/SVG/1.1/DTD/svg11.dtd">
<!-- Created with Vectornator (http://vectornator.io/) -->
<svg height="100%" stroke-miterlimit="10" style="fill-rule:nonzero;clip-rule:evenodd;stroke-linecap:round;stroke-linejoin:round;" version="1.1" viewBox="0 0 800 600" width="100%" xml:space="preserve" xmlns="http://www.w3.org/2000/svg" xmlns:xlink="http://www.w3.org/1999/xlink">
<defs/>
<clipPath id="ArtboardFrame">
<rect height="600" width="800" x="0" y="0"/>
</clipPath>
<g clip-path="url(#ArtboardFrame)" id="Layer-1">
<path d="M1.20005 600.425C400.017 600.425 400.017 600.425 798.834 600.425C799.634 300.413 799.634 300.413 800.434 0.400017C401.017 0.400017 401.017 0.400017 1.60007 0.400017C1.40006 300.413 1.40006 300.413 1.20005 600.425ZM22.4009 21.2009C300.213 21.4009 300.213 21.4009 578.024 21.6009C512.76 84.2616 512.76 84.2616 447.495 146.922C426.922 115.453 406.89 102.31 367.116 110.855C355.608 113.327 344.442 117.333 333.514 121.705C327.534 124.098 319.843 125.494 316.608 131.064C312.833 137.563 317.243 146.378 315.013 153.556C311.952 163.411 303.996 171.757 302.813 182.008C300.813 180.291 298.22 179.086 296.813 176.857C288.792 164.154 280.465 151.45 274.749 137.556C271.45 129.535 272.805 120.198 270.111 111.955C265.738 98.5728 262.456 79.3606 244.36 80.9534C232.996 81.9538 220.783 82.8879 211.059 88.8538C196.266 97.9294 185.257 112.115 173.207 124.605C167.881 130.126 163.104 136.239 159.057 142.756C122.294 201.947 100.724 263.766 141.318 325.901C132.147 328.539 123.273 335.004 113.805 333.814C98.9909 331.952 86.9064 319.808 72.2031 317.213C60.1531 315.087 47.6073 317.65 35.6015 320.014C32.8276 320.56 31.3847 323.78 29.2762 325.664C33.2389 334.439 33.2389 334.439 37.2016 343.215C30.8013 343.415 30.8013 343.415 24.401 343.615C29.6013 352.415 29.6013 352.415 34.8015 361.215C28.6012 360.815 28.6012 360.815 22.4009 360.415C22.4009 190.808 22.4009 190.808 22.4009 21.2009ZM715.43 22.651C705.33 24.126 705.33 24.126 695.229 25.6011C703.062 35.8467 709.798 32.8244 724.831 34.8015C719.892 42.9862 710.858 38.8527 701.23 38.8016C702.78 47.8687 703.957 57.0073 705.88 66.0028C706.817 70.3902 709.129 70.8008 712.642 73.1351C702.736 83.9696 702.736 83.9696 692.829 94.804C702.081 92.3184 711.651 90.3216 721.231 90.4038C709.23 99.4042 709.23 99.4042 697.23 108.405C711.868 104.306 720.358 100.429 734.381 100.104C759.894 99.5142 755.25 113.403 779.633 96.4041C779.633 111.405 779.633 111.405 779.633 126.405C759.691 106.468 719.351 117.848 695.629 119.605C697.409 122.376 698.091 126.314 700.967 127.918C705.569 130.485 711.276 130.11 716.43 131.206C707.73 138.606 707.73 138.606 699.03 146.006C640.727 84.0036 640.727 84.0036 582.425 22.0009C626.755 21.2821 671.098 22.0737 715.43 22.651ZM779.633 21.6009C779.633 25.0011 779.633 25.0011 779.633 28.4012C777.64 26.894 776.909 23.3403 774.433 23.001C765.714 21.806 756.832 22.8676 748.032 22.801C763.832 22.2009 763.832 22.2009 779.633 21.6009ZM758.832 31.6013C765.762 31.2606 772.699 31.068 779.633 30.8013C779.633 62.2026 779.633 62.2026 779.633 93.604C769.917 93.3987 760.193 92.348 750.632 90.6038C762.332 86.9037 762.332 86.9037 774.033 83.2035C770.036 80.0548 766.28 76.3023 761.16 75.0592C751.142 72.6267 736.643 79.7954 730.031 70.803C737.265 70.653 744.497 70.298 751.732 70.353C768.801 70.4826 764.565 74.4171 769.533 58.4525C771.67 51.5828 774.133 44.8186 776.433 38.0016C758.032 38.0016 758.032 38.0016 739.631 38.0016C743.516 32.0602 752.478 31.9138 758.832 31.6013ZM756.632 44.8019C753.369 49.4629 718.309 51.5109 717.53 44.5019C730.545 43.7845 743.607 44.3085 756.632 44.8019ZM755.632 51.2022C755.632 54.1429 755.781 52.6839 755.182 55.5774C742.72 56.1087 729.896 57.3285 717.43 56.0024C717.43 50.5204 753.454 51.2022 755.632 51.2022ZM756.432 64.4027C736.631 64.1027 736.631 64.1027 716.83 63.8027C720.046 59.7826 752.37 56.9548 756.432 64.4027ZM579.725 127.705C558.338 121.798 579.981 99.9288 581.825 91.0039C583.48 82.9929 571.077 69.9974 583.225 63.4027C590.319 59.5514 608.57 76.1863 602.425 84.2036C595.726 92.9457 588.293 101.244 582.825 110.805C597.13 111.836 626.826 86.8948 613.426 115.405C612.064 118.302 609.891 120.76 607.826 123.205C604.975 126.581 601.75 129.622 598.713 132.831C601.608 135.654 606.582 134.85 610.288 136.468C616.301 139.093 604.207 143.778 600.175 146.356C586.828 154.891 576.039 161.309 569.624 175.207C576.567 171.302 583.465 166.622 591.288 165.119C594.385 172.091 601.478 190.693 612.626 185.708C617.987 183.311 618.987 168.719 613.188 165.932C605.91 162.434 597.565 171.533 595.025 162.007C597.509 160.44 599.778 158.466 602.475 157.307C606.964 155.377 611.648 153.827 616.426 152.806C618.143 152.44 620.061 152.521 621.676 153.206C644.217 162.769 626.476 181.836 626.427 198.008C626.413 202.481 630.077 206.175 631.902 210.259C627.022 211.479 624.858 206.772 620.076 207.909C613.421 209.491 607.179 217.228 602.275 219.609C593.31 223.964 573.276 228.572 568.474 215.209C571.952 213.238 576.315 213.645 580.225 212.809C583.769 212.051 606.977 202.296 601.425 198.608C587.451 189.325 575.414 219.558 559.624 208.209C574.208 203.855 586.17 194.76 586.825 177.608C581.601 178.618 569.401 183.853 565.986 187.658C564.289 189.549 565.722 192.912 564.486 195.133C563.026 197.757 560.587 199.756 558.224 201.609C553.334 205.441 550.861 187.147 553.498 182.895C555.485 179.692 559.529 178.277 561.974 175.407C568.614 167.615 575.608 159.93 580.625 151.006C581.988 148.582 580.837 145.337 581.875 142.756C584.687 135.762 596.173 130.977 593.125 121.905C588.114 121.905 584.793 129.106 579.725 127.705ZM525.722 151.356C516.839 154.541 509.357 142.677 508.884 135.031C508.45 128.012 519.683 127.453 522.772 121.555C527.452 112.62 531.832 101.196 533.698 91.4164C534.865 85.2958 533.168 78.6117 535.423 72.8031C537.242 68.1178 563.008 73.8015 558.924 83.6035C555.437 91.9711 543.019 94.2706 537.373 101.654C530.864 110.166 529.281 116.063 525.222 126.005C532.99 124.654 531.657 118.009 537.223 114.805C539.775 113.335 543.078 114.027 546.023 114.005C561.634 113.889 554.662 118.16 551.286 129.368C549.058 136.763 547.789 144.753 548.823 152.406C555.02 151.718 557.797 144.597 564.024 142.806C552.857 156.27 545.614 166.326 543.173 184.47C542.265 191.22 544.496 199.501 542.773 206.459C541.503 211.587 532.659 223.999 530.985 209.721C530.064 201.868 530.61 193.912 530.422 186.008C523.195 186.61 516.129 192.419 514.822 179.808C514.446 176.182 514.319 172.095 516.172 168.957C520.166 162.194 528.568 158.748 532.448 151.919C535.165 147.136 535.359 140.234 536.023 135.206C530.784 139.28 530.899 149.501 525.722 151.356ZM749.632 82.0035C740.837 88.5994 735.581 88.7231 726.831 82.4035C734.199 81.204 742.35 81.9009 749.632 82.0035ZM228.672 92.6789C236.58 91.3826 240.726 83.5531 249.661 89.2538C250.935 90.0668 251.96 91.3149 252.661 92.6539C256.234 99.4779 260.312 106.193 262.411 113.605C264.536 121.11 263.056 129.335 265.174 136.843C267.817 146.218 276.417 155.237 276.812 165.807C277.523 184.836 238.176 211.444 226.21 218.409C213.617 207.916 216.387 158.23 225.01 144.406C227.713 140.073 231.901 136.658 234.01 132.006C235.371 129.004 240.435 109.548 233.41 108.405C228.604 107.622 223.676 108.138 218.809 108.005C218.809 106.805 218.809 106.805 218.809 105.604C216.409 106.204 216.409 106.204 214.009 106.805C214.009 105.604 214.009 105.604 214.009 104.404C211.759 103.948 211.759 103.948 209.509 103.492C214.624 92.2432 218.267 94.3847 228.672 92.6789ZM374.016 119.205C382.216 119.205 382.216 119.205 390.417 119.205C390.317 123.005 390.317 123.005 390.217 126.805C382.131 127.96 374.488 128.649 374.016 119.205ZM407.217 121.605C420.98 130.539 432.165 134.701 435.218 152.006C424.345 152.837 420.377 159.794 410.417 162.007C410.321 148.299 407.217 135.116 407.217 121.605ZM779.633 127.205C779.633 159.007 779.633 159.007 779.633 190.808C777.36 188.832 777.424 185.521 774.205 184.498C763.768 181.182 748.705 187.282 743.031 176.407C752.882 174.355 762.889 173.144 772.833 171.607C764.109 156.288 746.095 167.471 741.831 155.007C752.671 149.742 754.738 155.89 764.745 156.157C770.215 156.302 771.645 147.654 774.833 143.206C765.545 139.062 754.885 136.902 747.232 130.206C757.795 128.148 768.952 127.959 779.633 127.205ZM174.907 318.913C119.348 293.956 124.251 228.698 152.606 184.408C162.898 168.333 183.756 133.559 202.809 127.605C195.075 136.406 186.755 144.724 179.608 154.007C147.796 195.32 105.139 278.55 170.807 312.413C186.898 320.711 204.009 324.161 221.609 327.614C204.841 327.262 190.482 325.91 174.907 318.913ZM334.414 143.806C324.259 148.118 317.935 138.541 328.414 134.406C340.019 129.826 343.954 139.756 334.414 143.806ZM750.832 144.806C734.031 145.006 734.031 145.006 717.23 145.206C730.344 139.284 738.905 131.795 750.832 144.806ZM391.617 170.607C381.157 171.325 372.495 168.482 368.716 159.257C364.445 148.832 356.122 141.578 368.766 138.206C370.8 141.567 369.843 139.369 370.416 145.206C373.416 142.006 373.416 142.006 376.416 138.806C376.416 142.606 376.416 142.606 376.416 146.406C380.216 143.006 380.216 143.006 384.016 139.606C384.216 144.206 384.216 144.206 384.416 148.806C389.274 143.01 386.678 144.358 390.817 142.806C390.817 147.606 390.817 147.606 390.817 152.406C409.027 131.571 399.915 170.038 391.617 170.607ZM348.015 152.806C354.263 158.534 355.872 167.851 360.415 175.007C364.94 182.135 391.933 174.413 390.217 187.408C378.716 188.108 378.716 188.108 367.216 188.808C370.67 199.015 383.657 199.458 388 209.361C395.002 225.325 382.483 246.783 364.415 234.26C352.055 225.692 357.299 219.673 352.215 209.209C343.563 191.401 332.319 173.251 322.014 197.608C303.296 191.002 320.64 161.024 331.714 156.057C340.299 152.206 344.273 170.928 350.015 173.607C349.015 163.207 349.015 163.207 348.015 152.806ZM703.405 160.344C709.803 154.231 719.164 154.853 727.431 153.406C726.128 157.4 726.327 160.547 721.581 161.907C713.997 164.079 706.147 165.174 698.43 166.807C700.178 169.755 701.376 173.991 705.58 174.457C712.625 175.24 719.747 174.957 726.831 175.207C723.295 187.152 702.048 187.335 693.229 189.208C699.237 194.913 699.737 197.333 709.23 197.446C732.568 197.724 755.899 196.487 779.233 196.008C779.033 291.812 779.033 291.812 778.833 387.616C774.773 378.054 768.365 369.661 763.532 360.465C759.577 352.939 758.345 344.037 753.644 336.952C746.975 326.899 735.308 320.443 729.843 309.688C721.278 292.831 719.06 274.246 716.43 256.011C704.365 268.033 690.4 278.301 675.604 286.737C671.612 282.695 668.331 277.799 663.628 274.612C649.367 264.947 637.114 280.889 624.026 281.612C617.204 281.989 611.178 276.66 604.426 275.612C594.675 274.097 589.068 276.403 580.425 278.812C621.418 239.323 662.251 199.667 703.405 160.344ZM459.344 335.489C459.655 324.56 464.025 313.887 463.57 302.963C463.083 291.299 454.241 280.886 454.219 269.211C454.174 244.686 461.22 220.53 461.62 196.008C461.86 181.228 454.599 167.261 450.019 153.206C510.322 217.709 510.322 217.709 570.624 282.212C556.25 287.508 541.146 288.835 526.822 294.412C549.023 294.812 549.023 294.812 571.224 295.212C546.023 313.613 546.023 313.613 520.822 332.014C534.039 326.46 547.619 321.477 561.624 318.413C546.53 330.097 530.953 341.353 517.422 354.815C526.885 349.958 536.708 345.704 546.823 342.414C543.685 354.969 529.507 360.87 524.822 373.616C530.451 366.878 536.541 363.346 544.823 360.815C541.449 366.382 535.866 378.809 528.38 377.124C525.445 376.463 522.744 372.864 519.935 373.941C510.448 377.579 504.181 388.466 494.177 390.241C486.175 391.66 478.882 384.674 471.02 382.616C467.843 381.785 464.486 381.949 461.22 381.616C460.594 366.241 458.907 350.871 459.344 335.489ZM211.609 159.207C214.876 164.483 210.847 171.602 210.809 177.808C210.693 196.67 216.704 215.054 222.559 232.16C225.071 239.497 233.069 237.324 237.06 242.548C246.009 254.261 244.29 267.669 250.461 280.512C254.269 288.438 262.893 293.168 267.474 300.675C268.325 302.07 266.948 307.59 264.911 308.863C257.441 313.532 239.884 305.102 233.26 302.263C171.943 275.984 182.48 219.747 205.609 169.407C207.256 165.823 209.533 155.853 211.609 159.207ZM438.019 176.807C436.418 174.807 436.418 174.807 434.818 172.807C431.812 178.45 429.916 176.142 428.018 171.207C426.818 173.207 426.818 173.207 425.618 175.207C413.239 161.06 455.183 158.322 438.019 176.807ZM417.968 182.82C414.59 183.863 416.307 183.608 412.817 183.608C417.906 186.801 415.588 188.741 410.817 189.608C414.377 191.091 412.634 189.967 415.755 193.396C395.609 208.593 408.141 155.069 417.968 182.82ZM438.169 193.008C440.883 190.988 439.429 191.493 442.419 191.208C440.819 189.008 440.819 189.008 439.219 186.808C440.819 186.008 440.819 186.008 442.419 185.208C440.619 183.408 440.619 183.408 438.819 181.608C460.349 167.254 447.598 216.189 438.169 193.008ZM257.861 206.159C266.152 197.29 272.353 185.437 283.212 180.008C280.335 195.833 259.452 212.534 245.21 217.609C246.506 213.722 254.771 209.464 257.861 206.159ZM274.412 205.609C280.064 200.269 283.815 192.977 289.612 188.008C288.132 206.365 271.862 217.999 254.811 221.409C260.845 215.553 268.271 211.409 274.412 205.609ZM171.207 216.384C171.546 207.948 172.745 193.298 181.608 189.208C174.09 216.17 172.891 243.681 185.108 269.711C190.81 281.862 198.758 291.398 204.409 303.213C179.358 296.95 170.454 235.119 171.207 216.384ZM157.957 232.16C157.543 221.594 154.372 196.584 167.607 190.408C166.141 199.375 161.772 207.614 161.457 216.759C160.185 253.646 170.922 270.524 188.008 300.813C166.724 290.364 158.757 252.627 157.957 232.16ZM333.214 197.608C339.194 199.103 342.815 204.829 342.815 210.809C336.563 209.963 335.442 202.859 333.214 197.608ZM434.018 198.808C446.64 219.003 404.554 209.282 421.705 199.371C422.262 201.89 422.262 201.89 422.818 204.409C424.824 200.683 423.464 202.441 427.156 199.346C429.859 202.05 428.646 200.622 430.818 203.609C432.418 201.209 432.418 201.209 434.018 198.808ZM401.217 203.609C411.467 207.294 411.813 218.409 421.218 222.209C437.18 228.66 451.166 194.647 448.419 220.009C447.383 229.575 447.289 239.049 444.019 248.01C441.33 244.487 442.64 246.904 442.019 240.01C439.331 244.685 440.839 242.956 438.019 245.61C437.619 241.81 437.619 241.81 437.219 238.01C435.718 240.31 435.718 240.31 434.218 242.61C431.78 240.315 432.646 241.778 432.018 238.01C430.718 239.81 430.718 239.81 429.418 241.61C427.918 238.81 427.918 238.81 426.418 236.01C424.575 239.696 425.953 238.844 423.268 239.71C421.509 236.512 422.196 238.47 422.018 233.61C418.828 238.347 417.405 235.757 417.218 231.21C415.618 232.61 415.618 232.61 414.018 234.01C413.417 230.21 413.417 230.21 412.817 226.41C410.617 228.61 410.617 228.61 408.417 230.81C408.417 228.61 408.417 228.61 408.417 226.41C405.318 227.78 406.627 227.068 404.417 228.41C404.217 226.61 404.217 226.61 404.017 224.81C402.417 226.51 402.417 226.51 400.817 228.21C400.817 220.008 400.948 211.806 401.217 203.609ZM325.414 204.409C332.469 206.974 335.724 215.347 340.414 221.209C327.474 220.085 323.178 218.273 325.414 204.409ZM294.812 209.609C301.427 213.151 303.999 211.836 310.813 212.809C307.266 221.442 311.422 219.631 312.413 227.21C304.562 227.923 305.514 229.45 299.55 233.197C295.62 228.284 294.444 227.415 288.412 226.41C293.37 219.428 292.09 216.869 294.812 209.609ZM360.015 248.01C343.148 247.55 340.952 258.735 335.614 235.01C345.565 232.687 356.624 237.836 360.015 248.01ZM442.419 263.211C435.962 262 433.24 256.816 427.768 253.411C418.858 247.866 408.245 246.657 400.817 238.61C415.26 241.428 442.419 245.034 442.419 263.211ZM272.562 253.061C271.978 252.654 273.47 240.707 273.212 238.81C279.14 240.615 294.69 235.962 289.612 245.21C295.055 250.502 295.974 254.35 286.812 254.011C286.453 258.678 285.936 260.58 281.212 261.611C280.178 255.705 276.799 256.013 272.562 253.061ZM324.814 249.211C325.387 250.161 333.1 269.406 332.414 270.011C330.298 271.881 326.707 270.616 324.126 271.762C321.366 272.986 321.613 277.695 316.813 276.012C311.551 274.166 321.584 253.074 322.814 251.411C323.403 250.614 324.302 248.362 324.814 249.211ZM314.213 252.811C312.523 258.189 308.841 262.474 307.413 268.011C304.552 279.106 305.981 290.997 306.813 302.213C298.324 291.177 299.092 257.851 314.213 252.811ZM382.966 253.211C384.928 251.893 386.386 256.524 387.704 258.486C389.449 261.084 396.026 262.237 394.667 266.211C393.823 268.677 390.471 267.108 389.741 269.736C388.405 274.553 384.134 281.457 382.416 272.012C377.816 273.212 377.816 273.212 373.216 274.412C373.47 267.812 372.416 264.549 372.416 258.811C380.42 258.811 377.725 256.732 382.966 253.211ZM258.811 264.011C267.941 271.386 269.013 274.729 268.011 286.412C259.123 283.449 258.811 271.942 258.811 264.011ZM420.88 290.225C420.43 290.031 416.556 290.206 416.018 288.612C415.912 288.3 417.706 276.786 417.218 273.612C424.592 276.838 427.56 276.37 435.618 274.412C433.84 283.22 434.715 283.094 438.419 290.412C434.218 290.412 434.218 290.412 430.018 290.412C430.018 305.052 421.892 290.66 420.88 290.225ZM709.63 273.612C708.83 281.61 701.759 294.012 694.029 296.813C696.31 288.233 701.245 277.804 709.63 273.612ZM323.864 297.363C322.378 296.887 320.011 297.761 318.763 296.2C316.034 292.784 323.447 290.828 323.914 288.025C324.09 286.964 323.77 280.325 325.914 279.312C327.934 278.357 331.286 282.678 331.489 282.837C334.056 284.852 337.84 284.412 340.814 284.412C339.517 290.102 344.325 302.791 333.614 298.813C331.154 308.651 326.212 298.113 323.864 297.363ZM645.427 281.012C642.159 288.924 634.787 300.478 626.427 303.613C627.533 298.079 638.89 275.642 645.427 281.012ZM615.026 284.862C605.414 291.871 587.478 290.237 576.024 289.212C585.123 283.413 605.109 276.532 615.026 284.862ZM643.627 304.813C645.556 296.617 648.851 288.895 655.028 283.012C674.915 277.768 648.901 302.835 643.627 304.813ZM287.612 284.012C294.576 286.499 291.354 300.177 284.812 302.013C287.151 295.606 287.612 290.88 287.612 284.012ZM390.017 284.012C395.502 287.538 398.454 286.995 404.817 285.612C403.537 292.757 403.7 293.128 407.03 299.475C402.025 303.238 397.921 304.015 393.017 308.613C389.902 303.006 390.196 300.824 383.616 300.413C386.422 295.081 387.104 289.108 390.017 284.012ZM690.829 286.412C688.742 296.977 686.114 312.496 676.829 319.214C677.887 310.479 678.413 288.373 690.829 286.412ZM716.83 289.212C723.659 294.465 729.499 322.001 723.831 328.614C716.248 319.135 714.73 301.116 716.83 289.212ZM622.026 290.012C621.694 299.872 619.597 310.675 615.426 319.614C606.965 312.362 613.314 294.369 622.026 290.012ZM710.43 292.812C715.176 298.507 710.063 327.981 704.03 334.014C702.946 323.798 699.188 299.557 710.43 292.812ZM672.266 297.55C674.32 307.272 667.425 322.49 658.028 326.014C661.811 314.43 663.796 306.063 672.266 297.55ZM594.825 298.813C581.975 305.666 572.572 310.867 558.024 313.213C562.552 307.93 587.547 290.841 594.825 298.813ZM603.626 304.413C605.355 311.329 601.906 330.854 595.025 336.014C594.663 325.952 593.309 310.603 603.626 304.413ZM656.828 304.413C655.666 312.354 651.04 331.29 641.227 333.614C642.651 324.599 646.2 307.07 656.828 304.413ZM698.43 304.413C698.43 314.765 696.135 329.249 689.629 337.614C688.392 328.407 685.945 308.158 698.43 304.413ZM635.627 306.013C633.377 316.222 627.637 328.337 619.226 334.814C620.013 326.6 625.879 307.863 635.627 306.013ZM437.219 309.813C439.643 310.547 438.191 313.303 441.181 314.251C441.243 314.27 446.815 314.612 447.419 316.613C447.813 317.919 443.813 323.294 445.619 329.614C439.282 329.063 436.089 329.877 430.418 332.014C429.338 324.995 424.152 324.75 423.568 319.826C427.143 318.279 435.143 309.185 437.219 309.813ZM590.825 308.813C584.231 320.682 567.799 329.842 554.823 332.414C559.161 322.718 580.198 309.565 590.825 308.813ZM378.616 348.165C378.637 354.53 380.199 366.029 372.016 368.416C371.672 340.455 363.843 324.283 337.214 312.013C352.353 297.273 378.571 334.198 378.616 348.165ZM379.616 329.264C375.26 323.746 369.958 318.886 366.416 312.813C382.195 320.322 395.744 327.525 404.417 343.415C409.769 353.219 409.651 358.079 399.567 364.015C394.689 366.887 390.111 370.765 384.416 369.816C386.666 354.619 389.584 341.891 379.616 329.264ZM278.412 316.813C291.663 323.653 298.96 337.077 311.613 344.815C308.48 339.214 304.748 333.909 302.213 328.014C300.705 324.508 320.57 320.876 323.614 320.814C340.368 320.468 354.23 327.768 361.94 342.84C365.218 349.246 367.878 364.079 364.415 371.016C362.068 375.718 353.951 372.606 348.702 372.328C335.925 371.653 323.176 370.52 310.413 369.616C313.213 365.615 313.213 365.615 316.013 361.615C292.892 366.024 274.247 364.441 257.611 344.815C265.705 346.273 273.515 349.116 281.212 352.015C271.606 341.875 258.848 339.495 251.211 326.814C262.001 328.792 268.947 333.735 278.412 339.614C273.358 332.726 267.456 326.264 263.861 318.513C272.436 317.988 280.043 325.523 286.412 329.614C282.412 323.214 282.412 323.214 278.412 316.813ZM637.627 321.614C636.139 330.544 630.485 353.402 618.826 354.815C620.53 345.929 627.943 324.842 637.627 321.614ZM670.028 323.214C670.028 332.131 667.739 353.783 658.428 358.015C658.428 346.025 660.268 331.579 670.028 323.214ZM732.031 323.214C743.231 329.893 750.7 342.918 755.232 354.815C742.868 347.995 733.52 337.36 732.031 323.214ZM97.6041 336.014C78.9883 335.113 63.5105 333.567 46.402 326.214C55.4168 322.157 93.4953 323.056 97.6041 336.014ZM609.626 325.614C609.626 337.778 613.837 349.454 611.626 361.615C605.824 356.808 598.515 330.375 609.626 325.614ZM581.225 329.501C578.117 339.408 561.639 352.038 551.223 352.815C554.488 345.197 572.127 329.004 581.225 329.501ZM681.629 330.214C688.395 338.745 684.815 356.627 683.229 365.615C675.184 358.465 676.007 338.43 681.629 330.214ZM174.407 341.414C161.225 348.184 138.855 347.471 127.205 337.614C138.206 329.547 165.119 329.804 174.407 341.414ZM97.6041 343.015C82.4793 354.106 57.1091 347.203 44.0019 336.014C70.803 339.514 70.803 339.514 97.6041 343.015ZM713.78 335.789C717.969 346.26 717.803 370.385 712.23 380.416C702.521 376.255 706.555 342.594 713.78 335.789ZM651.628 336.414C650.322 344.25 645.908 359.264 637.227 361.615C637.227 352.278 640.96 338.354 651.628 336.414ZM588.025 337.214C589.764 347.4 594.223 373.566 585.225 382.416C583.061 366.207 578.864 351.611 588.025 337.214ZM697.83 339.214C701.938 344.966 699.345 372.215 693.629 377.216C690.127 365.593 689.571 349.125 697.83 339.214ZM748.432 369.616C739.094 365.097 726.385 350.632 723.831 340.414C735.499 344.752 745.105 357.821 748.432 369.616ZM113.005 341.214C114.947 344.076 115.115 347.801 116.105 351.115C120.915 367.219 120.248 373.216 102.404 373.216C104.804 369.616 104.804 369.616 107.205 366.015C104.004 365.515 104.004 365.515 100.804 365.015C103.713 359.197 113.454 353.077 106.004 348.615C107.607 345.73 109.88 342.465 113.005 341.214ZM188.808 342.414C198.869 344.016 208.877 346.451 219.059 346.765C237.517 347.334 242.495 342.334 247.61 359.215C236.21 362.615 236.21 362.615 224.81 366.015C226.41 369.416 226.41 369.416 228.01 372.816C213.209 372.816 213.209 372.816 198.408 372.816C200.214 364.111 195.599 363.844 188.008 360.415C190.644 354.695 189.318 348.529 188.808 342.414ZM599.225 347.415C605.59 359.348 605.39 372.322 601.225 384.816C596.855 379.616 593.638 354.244 599.225 347.415ZM175.007 359.215C168.524 375.692 166.614 370.747 152.006 367.216C134.967 363.096 123.605 367.294 123.605 348.015C143.067 351.528 156.552 352.424 176.407 352.015C176.407 354.565 175.957 356.801 175.007 359.215ZM448.206 367.228C447.953 370.512 447.718 378.186 444.156 380.716C436.177 386.384 411.351 376.822 403.417 374.016C409.074 365.6 416.276 355.279 425.418 350.615C439.437 349.225 449.257 353.635 448.206 367.228ZM573.474 350.565C567.63 361.864 558.83 369.404 546.423 372.016C550.01 363.945 564.422 350.263 573.474 350.565ZM94.004 357.615C75.4253 367.393 56.3872 364.624 40.6517 351.665C57.7288 347.99 76.6743 355.305 94.004 357.615ZM671.178 352.402C677.038 355.998 673.768 374.946 669.628 380.416C666.86 370.764 666.765 361.485 671.178 352.402ZM631.627 354.015C632.244 364.514 627.111 379.221 618.426 385.616C618.781 374.524 622.053 360.978 631.627 354.015ZM722.431 354.815C733.423 359.665 735.869 387.207 733.231 396.817C725.232 384.246 721.727 369.591 722.431 354.815ZM650.828 358.015C649.58 368.618 644.698 383.732 633.627 387.616C635.089 379.82 641.573 359.815 650.828 358.015ZM22.4009 361.215C23.801 363.015 29.4012 370.216 30.8013 372.016C29.4012 372.016 23.801 372.016 22.4009 372.016C22.4009 370.216 22.4009 363.015 22.4009 361.215ZM753.232 363.215C763.859 368.031 772.337 382.838 774.433 394.017C763.957 388.571 754.895 374.858 753.232 363.215ZM573.624 364.415C572.124 373.041 564.495 389.223 553.423 388.216C557.69 379.417 566.087 370.414 573.624 364.415ZM260.011 381.616C253.9 377.096 247.267 373.106 242.01 367.616C251.765 366.57 266.234 365.613 260.011 381.616ZM266.411 365.215C271.538 366.355 278.433 366.592 282.412 370.416C273.916 373.891 272.144 372.222 266.411 365.215ZM91.6039 372.216C85.0931 382.633 47.4989 378.52 39.8017 367.616C57.0043 367.616 74.4697 370.16 91.6039 372.216ZM694.629 415.618C683.749 410.667 671.36 409.59 660.513 404.566C654.399 401.734 657.779 378.308 659.028 370.816C664.128 384.016 664.128 384.016 669.228 397.217C676.429 386.616 676.429 386.616 683.629 376.016C689.229 387.616 689.229 387.616 694.829 399.217C696.778 391.378 698.429 383.055 703.03 376.416C707.73 392.217 707.73 392.217 712.43 408.017C714.432 400.086 714.436 390.383 720.43 384.816C730.631 409.617 730.631 409.617 740.831 434.418C740.076 421.373 739.367 408.202 740.831 395.217C748.432 406.617 748.432 406.617 756.032 418.018C757.032 402.617 757.032 402.617 758.032 387.216C764.699 394.283 777.035 398.753 778.033 408.417C783.938 465.582 778.033 523.355 778.033 580.825C671.428 580.625 671.428 580.625 564.824 580.425C568.273 558.019 573.231 535.636 581.225 514.422C586.207 522.172 587.787 523.423 590.025 533.823C592.148 543.687 592.677 553.852 594.825 563.711C596.632 572.004 598.405 569.609 605.626 569.424C606.495 560.385 606.495 560.385 607.364 551.345C612.203 550.153 617.043 548.423 622.026 548.423C622.476 558.736 622.476 558.736 622.926 569.049C641.665 569.87 630.46 547.515 639.077 549.073C659.121 552.698 643.346 567.737 660.828 568.024C661.999 534.843 672.72 542.72 673.629 569.224C679.86 569.055 679.86 569.055 686.092 568.887C693.831 520.679 699.974 500.78 748.032 482.42C733.939 479.753 719.571 477.865 705.23 478.02C713.487 460.545 722.88 456.991 740.431 447.819C724.362 434.289 714.955 424.866 694.629 415.618ZM739.831 370.816C748.78 376.185 753.117 388.318 751.632 398.217C746.599 394.302 736.233 377.112 739.831 370.816ZM143.406 372.416C149.585 373.057 168.517 377.919 160.682 382.354C152.657 386.896 135.086 377.906 129.768 372.728C130.987 372.372 130.987 372.372 132.206 372.016C138.673 372.082 141.046 372.171 143.406 372.416ZM301.813 375.016C342.136 378.295 382.353 382.805 422.568 387.216C436.294 388.722 449.968 390.69 463.62 392.767C473.882 394.328 479.943 395.091 488.421 400.817C490.803 402.426 492.002 407.771 489.821 410.017C485.746 414.213 478.267 412.15 472.42 412.267C460.039 412.517 447.642 412.618 435.268 412.117C424.574 411.684 413.897 410.72 403.267 409.467C361.202 404.511 314.581 400.819 273.612 388.016C276.512 384.616 276.512 384.616 279.412 381.216C290.131 375.359 291.622 374.187 301.813 375.016ZM22.801 374.816C25.8614 379.188 26.7529 384.029 28.4012 389.216C25.4011 389.216 25.4011 389.216 22.4009 389.216C22.601 382.016 22.601 382.016 22.801 374.816ZM175.407 379.016C178.601 375.997 181.865 376.316 185.408 379.416C182.946 383.401 179.373 386.611 175.957 389.816C163.986 401.05 145.068 428.311 136.206 415.018C149.273 403.017 162.516 391.205 175.407 379.016ZM227.872 380.016C224.401 388.869 205.872 385.602 200.989 380.605C208.245 377.06 220.69 375.837 227.872 380.016ZM552.023 378.416C544.284 389 537.972 398.648 529.622 409.217C540.799 403.154 552.537 396.503 564.824 392.817C563.324 401.566 565.848 418.291 555.948 422.89C551.921 424.76 546.974 424.754 543.423 427.418C558.669 442.085 575.273 455.807 580.825 477.22C574.197 475.011 569.9 470.344 562.524 469.607C554.393 468.796 544.528 465.474 538.023 470.42C549.419 476.072 559.409 484.018 566.824 494.421C561.924 493.221 557.077 491.778 552.123 490.821C547.227 489.874 540.017 491.735 537.56 487.396C532.782 478.957 530.673 469.036 525.072 461.12C520.205 454.241 507.8 455.365 507.034 446.481C506.105 435.709 514.541 423.197 508.422 414.018C518.405 407.38 528.689 401.172 538.373 394.104C542.006 391.452 536.204 385.81 535.56 384.741C540.828 380.987 545.626 379.101 552.023 378.416ZM74.3656 394.967C56.3352 394.354 36.0015 400.163 36.0015 378.416C59.4783 383.316 70.2209 385.793 93.604 387.616C90.1362 396.633 83.896 395.29 74.3656 394.967ZM610.826 380.816C610.339 390.346 609.323 399.88 609.626 409.417C616.798 406.344 617.82 395.514 625.226 391.617C623.848 405.521 616.819 414.296 601.525 410.217C601.525 402.666 605.732 385.91 610.826 380.816ZM239.21 383.216C241.682 383.976 254.022 386.534 258.488 390.232C270.022 399.781 277.381 427.615 280.812 441.619C283.408 452.217 286.566 447.482 290.637 459.457C294.522 470.883 283.948 481.092 285.762 492.221C286.557 497.093 292.19 499.347 294.4 502.996C299.686 511.725 287.658 523.549 286.762 529.672C285.095 541.059 294.216 544.327 287.4 553.298C277.65 544.489 280.391 545.131 270.811 553.623C269.02 535.739 268.827 517.205 262.661 500.321C258.218 488.153 239.611 493.63 238.81 485.621C245.771 484.675 254.485 484.992 259.011 479.62C272.755 463.307 267.343 430.711 242.41 441.619C247.176 422.261 255.701 409.606 236.41 400.817C238.993 394.662 239.456 389.857 239.21 383.216ZM523.722 386.116C522.356 390.32 523.501 387.562 518.822 393.617C523.292 391.458 524.457 389.251 527.622 392.417C515.902 399.77 513.198 404.902 503.084 396.029C507.762 389.873 516.027 381.841 523.722 386.116ZM124.405 384.016C134.046 386.848 140.558 389.61 150.006 389.216C140.773 409.814 131.285 393.877 124.405 384.016ZM649.577 385.379C651.599 404.417 645.601 405.667 628.427 406.017C629.618 397.082 642.573 389.558 649.577 385.379ZM198.408 388.016C212.334 390.066 220.235 390.081 233.21 389.216C232.017 409.199 197.102 412.837 198.408 388.016ZM588.487 413.417C582.14 413.204 591.344 392.265 591.825 389.816C592.055 388.648 606.176 414.013 588.487 413.417ZM576.824 390.017C583.782 408.47 585.924 414.929 566.424 417.218C567.596 409.601 570.685 394.314 576.824 390.017ZM23.551 399.517C26.5433 406.307 31.2404 411.814 33.6014 419.018C34.6184 422.121 28.5191 420.575 27.2012 423.718C24.2313 430.8 24.9976 438.794 22.4009 446.019C22.976 422.768 22.976 422.768 23.551 399.517ZM89.4038 403.367C84.5048 416.227 77.5172 416.995 64.4027 416.818C59.7529 416.755 47.0174 417.641 40.8017 414.618C34.5719 411.587 33.4544 401.233 40.6017 399.217C68.6529 401.392 68.6529 401.392 89.4038 403.367ZM176.807 412.017C174.574 415.309 171.788 418.191 169.207 421.218C168.007 416.818 168.007 416.818 166.807 412.417C170.435 411.813 172.992 411.795 176.807 412.017ZM201.096 412.405C212.172 412.823 223.243 413.364 234.31 413.968C248.493 414.741 235.277 425.754 227.93 426.37C210.347 427.845 192.816 426.634 175.207 426.018C177.087 420.908 179.217 417.153 183.208 413.417C192.404 412.342 193.938 412.135 201.096 412.405ZM688.829 426.218C683.542 437.549 675.26 422.147 670.228 428.418C664.653 435.366 667.518 438.13 658.828 437.619C659.228 431.018 659.228 431.018 659.628 424.418C653.279 424.159 647.2 422.89 640.827 422.418C638.695 405.363 680.298 417.687 688.829 426.218ZM621.676 430.368C623.452 428.363 624.141 411.775 631.827 419.618C634.052 421.888 632.206 427.336 633.227 430.618C633.59 430.596 658.638 428.694 650.028 436.418C649.124 437.229 615.016 440.997 609.626 441.619C610.383 430.265 614.89 438.03 621.676 430.368ZM611.026 419.618C614.153 419.593 617.161 421.81 615.476 425.368C613.482 429.577 606.543 425.419 603.626 429.618C601.215 433.088 604.636 443.603 598.625 444.619C591.212 445.872 593.714 430.296 586.225 431.618C574.893 433.619 566.173 443.476 558.824 430.818C571.995 423.16 588.169 423.353 602.626 420.618C608.092 419.784 609.557 419.629 611.026 419.618ZM126.805 425.618C117.812 430.614 109.811 432.516 99.4542 430.818C88.4706 429.018 92.2722 421.44 101.804 420.218C116.27 420.196 123.438 419.726 126.805 425.618ZM47.202 425.218C53.5442 423.715 64.7325 420.99 66.6528 427.218C70.7052 440.362 48.9144 436.943 47.202 429.218C46.9134 427.916 45.9045 425.525 47.202 425.218ZM303.1 425.393C312.467 426.714 321.714 428.784 331.064 430.218C336.112 430.993 347.275 429.325 348.865 436.518C349.653 440.087 351.451 446.332 349.815 450.419C348.63 453.378 336.388 450.598 335.914 450.569C312.522 449.161 300.936 453.351 296.213 426.818C295.802 424.51 300.779 425.066 303.1 425.393ZM694.879 429.168C702.867 422.404 695.627 442.384 695.629 442.419C695.921 446.941 708.751 449.674 706.93 455.669C705.71 459.686 683.544 445.932 679.779 444.169C678.703 443.665 673.787 441.961 674.079 439.181C674.509 435.074 686.763 439.375 690.829 434.418C692.231 432.71 693.193 430.596 694.879 429.168ZM367.216 434.418C373.616 434.618 373.616 434.618 380.016 434.818C378.935 441.302 378.798 450.496 374.966 456.157C373.954 450.842 374.279 453.554 374.016 448.019C371.416 451.619 371.416 451.619 368.816 455.219C367.638 448.415 367.612 441.289 367.216 434.418ZM726.031 446.819C719.962 447.922 703.185 446.944 706.63 437.219C715.905 436.837 724.338 440.568 726.031 446.819ZM130.406 435.618C123.959 459.256 97.1801 460.282 88.8038 437.219C104.153 438.173 115.457 437.833 130.406 435.618ZM384.516 439.419C384.469 434.232 386.911 435.895 391.617 436.618C390.77 441.334 389.739 456.196 384.816 458.419C384.716 452.086 384.574 445.753 384.516 439.419ZM404.23 437.919C403.172 443.047 399.82 454.98 394.817 458.419C395.755 450.312 392.767 434.251 404.23 437.919ZM428.118 438.919C425.33 445.239 418.112 461.306 411.017 460.419C411.127 456.703 410.941 459.272 412.417 452.819C406.284 457.338 408.908 456.143 405.217 457.619C411.034 441.624 411.504 437.446 428.118 438.919ZM479.62 463.42C474.611 465.807 461.742 463.999 457.069 463.77C447.247 463.288 437.435 462.603 427.618 462.02C428.394 459.69 428.316 459.548 430.018 457.019C444.995 434.777 444.81 444.132 472.02 441.819C492.266 442.959 486.355 460.21 479.62 463.42ZM578.074 451.669C576.587 450.094 573.749 444.904 573.224 444.019C575.924 443.119 575.924 443.119 578.624 442.219C591.516 440.51 585.697 459.74 578.074 451.669ZM166.807 442.819C170.307 449.119 167.872 457.277 166.607 463.92C162.014 463.224 163.04 445.51 166.807 442.819ZM677.629 454.019C658.326 470.844 663.513 446.175 641.477 448.819C635.571 449.528 630.657 453.291 627.577 458.219C626.296 460.269 625.633 464.238 623.226 464.02C621.209 463.836 611.198 454.041 609.826 452.019C622.179 440.518 665.46 441.851 677.629 454.019ZM252.711 465.32C243.549 475.026 206.737 469.558 201.609 458.019C213.826 458.179 233.771 463.462 244.01 453.819C256.696 448.667 260.48 457.088 252.711 465.32ZM178.408 453.219C183.283 456.998 182.579 462.707 182.808 468.42C178.949 464.053 179.087 458.883 178.408 453.219ZM649.427 456.519C648.836 459.38 648.972 460.347 646.427 461.62C646.427 458.381 646.284 460.007 646.877 456.744C648.152 456.632 648.152 456.632 649.427 456.519ZM699.63 478.82C698.513 481.762 693.237 484.388 690.879 485.821C689.865 478.434 688.861 474.59 682.629 470.02C681.123 468.915 674.506 467.578 674.329 466.07C673.942 462.788 677.415 460.577 679.429 458.819C688.501 454.186 702.174 472.118 699.63 478.82ZM639.827 457.019C640.222 460.776 640.861 459.258 638.027 461.62C637.776 459.112 637.147 457.791 639.827 457.019ZM612.426 462.82C610.894 465.83 604.304 464.595 601.625 467.02C597.012 471.196 594.54 476.133 592.025 481.62C587.452 474.27 582.115 463.353 591.425 458.619C597.728 457.511 615.008 457.744 612.426 462.82ZM526.822 486.021C518.946 486.304 511.631 490.811 509.897 481.27C508.921 475.903 505.633 466.197 508.622 460.219C521.014 457.82 525.7 478.163 526.822 486.021ZM657.228 460.82C656.847 463.944 655.654 464.817 652.828 466.02C653.573 462.791 653.683 461.066 657.228 460.82ZM632.827 462.02C632.627 464.82 632.627 464.82 632.427 467.62C630.093 464.313 628.654 463.158 632.827 462.02ZM501.221 462.42C501.504 480.238 502.284 493.994 481.62 499.221C481.285 482.317 486.128 472.23 501.221 462.42ZM613.226 475.62C608.72 472.691 609.401 474.601 609.026 471.22C611.993 471.22 612.567 472.985 613.226 475.62ZM353.877 470.645C357.89 475.277 355.93 487.212 351.015 490.021C348.478 484.102 349.425 475.44 353.877 470.645ZM637.627 495.621C630.623 489.891 625.235 481.06 623.226 472.22C632.232 473.642 637.627 487.516 637.627 495.621ZM381.616 472.82C383.027 475.742 382.86 479.196 383.216 482.42C387.716 475.31 385.315 477.622 389.216 474.42C389.676 478.173 389.527 482.145 391.017 485.621C393.339 482.068 392.247 476.186 396.817 475.22C397.017 478.52 397.017 478.52 397.217 481.82C399.925 479.737 400.494 477.156 403.617 476.02C403.617 479.62 403.617 479.62 403.617 483.22C405.682 480.645 407.482 477.53 410.417 476.02C409.271 482.239 411.276 491.867 405.451 494.329C400.566 496.394 395.05 492.231 389.816 491.371C377.012 489.266 353.609 490.809 372.416 472.82C373.467 480.528 372.323 477.434 374.816 482.42C376.703 479.275 378.517 475.001 381.616 472.82ZM665.628 472.82C661.969 481.493 656.413 493.832 646.427 495.621C648.515 485.88 654.94 474.508 665.628 472.82ZM670.828 474.02C672.028 474.22 672.028 474.22 673.228 474.42C672.327 476.847 673.197 476.098 670.428 476.42C670.628 475.22 670.628 475.22 670.828 474.02ZM679.379 476.92C678.534 479.454 679.338 478.162 676.029 480.02C676.729 478.12 676.729 478.12 677.429 476.22C678.404 476.57 678.404 476.57 679.379 476.92ZM608.026 480.42C605.493 480.574 604.351 478.961 602.425 477.42C605.285 476.348 606.381 478.227 608.026 480.42ZM420.818 477.22C420.394 482.517 422.709 491.604 416.818 494.021C416.924 486.738 416.629 482.932 420.818 477.22ZM22.801 477.62C37.1016 478.42 37.1016 478.42 51.4022 479.22C55.8039 503.342 54.5345 528.444 50.9772 552.698C50.2456 557.686 47.702 577.958 38.9256 580.325C33.4762 581.794 27.6425 580.658 22.0009 580.825C22.4009 529.222 22.4009 529.222 22.801 477.62ZM143.644 481.07C146.392 477.014 153.324 479.476 158.207 479.07C171.286 477.985 185.596 478.026 194.408 489.621C168.207 490.021 168.207 490.021 142.006 490.421C142.128 487.044 141.644 484.022 143.644 481.07ZM130.406 480.82C134.205 481.714 131.75 488.526 132.006 492.421C120.542 492.975 105.782 490.975 105.604 506.221C105.505 514.805 111.844 528.511 103.967 531.923C101.66 532.922 98.9805 532.678 96.4666 532.723C89.5125 532.845 82.4612 533.581 75.6032 532.423C70.5141 531.563 73.9086 522.182 74.0031 517.022C74.151 508.949 74.6698 500.888 75.0032 492.821C83.7363 476.644 120.069 478.388 130.406 480.82ZM586.475 503.171C580.428 495.051 572.245 489.138 566.024 481.22C587.562 484.871 594.503 503.24 597.625 522.422C592.005 516.358 591.303 509.654 586.475 503.171ZM684.229 485.221C682.161 488.098 683.726 486.709 678.429 487.621C680.484 485.565 681.403 483.646 684.229 485.221ZM703.08 489.471C706.365 487.468 716.726 482.401 719.03 487.471C715.278 491.105 709.642 492.414 706.23 496.221C700.157 502.997 693.481 516.002 686.429 522.022C688.285 510.024 691.913 496.277 703.08 489.471ZM603.626 491.221C601.494 490.383 601.494 490.383 599.363 489.546C599.494 488.183 599.494 488.183 599.625 486.821C602.428 487.755 602.513 488.36 603.626 491.221ZM303.613 486.821C307.719 486.016 311.899 488.017 316.063 488.421C322.552 489.05 329.069 489.355 335.564 489.921C339.693 490.281 341.68 495.565 336.852 496.521C329.046 498.067 308.095 498.898 303.813 490.821C303.188 489.641 302.303 487.077 303.613 486.821ZM508.422 496.021C509.975 501.071 510.381 506.406 511.222 511.622C492.415 509.741 489.071 503.343 508.422 496.021ZM518.422 496.021C519.677 495.325 564.986 498.305 565.074 507.821C565.129 513.75 562.509 512.91 556.874 513.022C542.605 513.304 521.406 519.501 519.022 501.821C518.762 499.895 516.722 496.963 518.422 496.021ZM681.629 498.421C676.379 507.871 660.518 511.411 652.828 502.621C657.476 501.398 676.543 497.447 681.629 498.421ZM426.818 498.421C437.309 499.044 460.987 493.232 461.62 508.422C452.88 506.237 422.884 514.159 426.818 498.421ZM630.027 503.221C624.273 508.336 611.216 509.932 606.426 502.621C614.209 501.723 622.195 502.732 630.027 503.221ZM396.617 506.821C388.649 510.154 374.899 509.476 368.616 502.621C377.51 501.848 388.474 503.564 396.617 506.821ZM644.077 509.672C639.634 510.373 634.886 504.504 640.227 502.821C645.861 501.046 651.008 508.577 644.077 509.672ZM678.429 512.822C677.185 525.258 656.924 521.106 648.427 521.222C650.951 508.604 669.737 512.879 678.429 512.822ZM477.483 551.661C480.656 535.502 468.458 528.542 480.02 513.422C494.153 526.672 498.541 558.992 492.821 576.424C495.545 577.433 502.366 578.633 504.421 581.225C487.221 580.825 487.221 580.825 470.02 580.425C472.125 570.746 475.574 561.381 477.483 551.661ZM636.602 522.397C629.5 524.133 617.07 526.093 610.026 524.272C609.358 524.1 608.555 523.939 608.163 523.372C602.372 514.995 615.503 514.547 620.226 514.022C633.972 514.543 633.781 518.114 636.602 522.397ZM554.823 524.022C544.001 533.674 520.17 531.783 509.022 523.422C526.019 524.911 538.629 526.603 554.823 524.022ZM637.627 528.022C639.212 528.032 640.798 528.088 642.377 528.222C644.132 528.372 648.976 528.993 650.828 529.672C666.55 535.438 632.077 547.524 633.627 532.023C631.237 531.704 632.258 532.31 631.427 529.222C634.659 527.808 633.432 527.998 637.627 528.022ZM669.628 539.223C665.36 538.986 661.095 538.689 656.828 538.423C657.828 536.123 657.828 536.123 658.828 533.823C674.97 521.021 700.949 540.962 669.628 539.223ZM314.963 531.222C320.855 532.101 326.66 533.529 332.564 534.323C340.936 535.447 349.339 536.386 357.765 536.973C386.435 538.969 415.232 538.6 443.915 540.393C448.555 540.683 456.685 540.625 456.985 545.265C457.386 551.446 439.31 549.634 438.969 549.623C425.761 549.206 412.552 548.702 399.367 547.823C384.278 546.818 369.215 545.448 354.165 543.973C344.48 543.024 307.338 541.111 306.413 533.423C306.061 530.501 312.053 530.788 314.963 531.222ZM619.426 538.823C615.797 539.676 590.47 537.714 606.026 532.223C613.894 529.445 638.47 534.345 619.426 538.823ZM72.9531 567.774C72.3451 546.618 68.5312 544.616 89.4038 544.423C98.8766 544.336 97.6037 544.328 104.204 544.823C105.71 556.744 105.543 568.818 106.004 580.825C89.4038 580.625 89.4038 580.625 72.8031 580.425C73.0188 575.009 73.0863 572.41 72.9531 567.774ZM548.023 556.424C540.302 559.987 524.033 563.002 517.222 555.624C532.623 556.024 532.623 556.024 548.023 556.424ZM280.812 580.825C275.012 580.825 275.012 580.825 269.211 580.825C271.818 573.005 277.232 573.975 280.812 580.825ZM291.262 575.512C294.866 576.97 294.966 577.482 297.213 580.825C292.212 580.825 292.212 580.825 287.212 580.825C289.62 577.079 288.272 578.851 291.262 575.512Z" fill="#000000" fill-rule="nonzero" opacity="1" stroke="none"/>
</g>
</svg>
