<?xml version="1.0" encoding="UTF-8" standalone="no"?>
<!DOCTYPE svg PUBLIC "-//W3C//DTD SVG 1.1//EN" "http://www.w3.org/Graphics/SVG/1.1/DTD/svg11.dtd">
<!-- Created with Vectornator (http://vectornator.io/) -->
<svg height="100%" stroke-miterlimit="10" style="fill-rule:nonzero;clip-rule:evenodd;stroke-linecap:round;stroke-linejoin:round;" version="1.1" viewBox="0 0 800 600" width="100%" xml:space="preserve" xmlns="http://www.w3.org/2000/svg" xmlns:xlink="http://www.w3.org/1999/xlink">
<defs/>
<g id="Layer-1">
<path d="M4.8002 2.80012C4.8002 300.613 4.8002 300.613 4.8002 598.425C399.617 597.225 399.617 597.225 794.434 596.025C792.534 298.413 792.534 298.413 790.633 0.800034C528.689 1.33109 266.744 1.99661 4.8002 2.80012ZM553.823 22.2009C582.727 22.1923 612.067 18.3574 640.527 23.401C635.596 46.6588 626.396 57.7375 602.826 67.2028C607.726 66.8028 607.726 66.8028 612.626 66.4028C611.126 68.9029 611.126 68.9029 609.626 71.403C614.026 68.5029 614.026 68.5029 618.426 65.6028C617.926 69.2029 617.926 69.2029 617.426 72.8031C622.843 68.825 619.889 71.5516 625.226 63.6027C629.82 70.8814 626.447 68.7395 636.027 68.8029C629.973 85.8304 604.967 84.6222 595.625 99.6042C598.225 98.0041 598.225 98.0041 600.825 96.4041C599.757 99.0667 599.757 99.0667 598.688 101.729C603.957 98.6667 603.957 98.6667 609.226 95.604C607.626 99.4042 607.626 99.4042 606.026 103.204C612.019 99.9964 608.664 102.289 615.226 95.204C617.151 98.5522 616.632 96.4788 614.826 101.604C622.632 97.0102 619.062 96.9682 625.076 98.5042C622.396 103.321 622.106 106.278 617.126 108.405C611.05 110.999 604.9 113.518 598.525 115.255C594.91 116.24 589.475 114.746 587.625 118.005C589.3 118.874 589.3 118.874 590.975 119.743C587.06 123.172 583.282 127.018 580.825 131.606C586.41 129.371 583.928 131.127 588.025 126.005C588.525 127.405 588.525 127.405 589.025 128.805C592.125 125.605 592.125 125.605 595.225 122.405C594.825 126.305 594.825 126.305 594.425 130.206C597.125 126.305 597.125 126.305 599.825 122.405C600.325 126.005 600.325 126.005 600.825 129.605C602.225 126.005 602.225 126.005 603.626 122.405C605.001 124.305 605.001 124.305 606.376 126.205C608.962 118.76 610.928 117.459 614.826 124.805C616.856 122.238 618.954 118.355 622.226 118.355C622.624 119.5 616.796 128.851 615.126 129.755C607.485 133.896 598.815 135.811 590.925 139.456C582.237 143.47 577.559 150.581 572.824 158.407C576.818 157.448 579.741 153.92 582.825 151.206C581.825 155.207 581.825 155.207 580.825 159.207C583.357 155.092 585.852 150.441 590.025 148.006C589.825 152.406 589.825 152.406 589.625 156.807C592.345 152.281 595.912 147.538 600.825 145.606C595.859 159.017 580.751 161.816 574.024 172.407C575.024 172.807 575.024 172.807 576.024 173.207C572.224 177.808 572.224 177.808 568.424 182.408C555.901 167.73 544.024 157.816 526.622 148.806C514.385 142.47 495.032 140.157 491.621 126.805C494.475 129.576 496.981 133.37 500.821 134.406C501.221 133.006 501.221 133.006 501.621 131.606C503.621 133.206 503.621 133.206 505.621 134.806C502.431 128.531 503.669 127.455 502.021 121.205C506.696 124.88 506.696 124.88 511.372 128.555C511.497 127.48 511.497 127.48 511.622 126.405C513.822 127.605 513.822 127.605 516.022 128.805C513.684 125.529 513.375 120.941 510.622 118.005C503.141 110.028 489.475 111.804 488.421 99.6042C490.621 101.204 490.621 101.204 492.821 102.804C492.821 101.404 492.821 101.404 492.821 100.004C495.021 101.004 495.021 101.004 497.221 102.004C497.521 101.204 497.521 101.204 497.821 100.404C504.741 105.176 501.318 103.944 507.621 105.204C500.127 100.32 487.02 96.8387 482.42 89.6038C485.621 90.4038 485.621 90.4038 488.821 91.2039C481.931 87.3283 474.356 84.3005 473.22 75.6032C474.02 77.8033 474.02 77.8033 474.82 80.0034C475.42 78.4033 475.42 78.4033 476.02 76.8033C477.22 78.6033 477.22 78.6033 478.42 80.4034C478.708 76.3228 477.666 77.4853 480.02 76.0032C482.02 80.8034 482.02 80.8034 484.02 85.6036C484.02 84.4036 484.02 84.4036 484.02 83.2035C484.821 83.2035 484.821 83.2035 485.621 83.2035C485.621 81.6035 485.621 81.6035 485.621 80.0034C487.621 82.8035 487.621 82.8035 489.621 85.6036C489.421 83.6035 489.421 83.6035 489.221 81.6035C494.852 84.5501 492.624 82.5075 496.021 87.6037C496.221 86.4037 496.221 86.4037 496.421 85.2036C501.925 89.3865 499.435 89.6658 503.221 88.4037C497.65 83.6669 480.724 71.9145 479.908 64.3277C485.096 67.7867 485.016 64.9677 488.821 70.403C489.121 69.2029 489.121 69.2029 489.421 68.0029C491.721 70.003 491.721 70.003 494.021 72.003C493.021 69.803 493.021 69.803 492.021 67.6029C496.169 70.4884 494.07 70.003 498.021 70.003C489.196 59.6527 477.449 57.2521 472.42 43.6018C480.029 49.4598 476.166 48.6867 483.22 48.402C482.22 46.402 482.22 46.402 481.22 44.4019C484.421 45.0019 484.421 45.0019 487.621 45.6019C479.983 39.2267 469.626 33.1093 468.02 22.4009C496.621 22.3343 525.222 22.2095 553.823 22.2009ZM723.631 22.0009C717.949 48.9365 713.457 46.7685 686.429 51.6022C694.074 63.472 699.359 63.0971 713.63 64.8027C703.83 83.6035 703.83 83.6035 694.029 102.404C678.672 92.4353 656.056 85.1462 653.228 64.4027C662.139 69.3536 658.731 73.1328 670.028 72.003C668.028 68.8029 668.028 68.8029 666.028 65.6028C669.908 66.2578 673.321 68.0826 677.229 68.0029C661.585 57.0239 645.656 43.0638 643.427 23.001C670.091 21.0307 696.894 22.0964 723.631 22.0009ZM774.833 22.4009C774.833 56.0024 774.833 56.0024 774.833 89.6038C756.218 82.7287 748.478 75.9424 734.431 61.6026C747.261 59.0366 760.558 60.1082 773.633 59.6025C759.788 36.9844 762.273 46.4941 739.431 45.8019C738.437 33.8651 740.047 29.7202 731.031 23.001C752.932 22.701 752.932 22.701 774.833 22.4009ZM464.02 22.801C459.169 32.5023 449.565 39.3722 440.419 45.2019C443.619 44.8019 443.619 44.8019 446.819 44.4019C445.819 46.102 445.819 46.102 444.819 47.802C447.619 45.9019 447.619 45.9019 450.419 44.0019C450.219 46.402 450.219 46.402 450.019 48.8021C452.419 45.8019 452.419 45.8019 454.819 42.8018C458.044 45.4457 458.044 45.4457 461.27 48.0895C448.044 56.8462 448.044 56.8462 434.818 65.6028C436.818 65.2028 436.818 65.2028 438.819 64.8027C438.219 66.4028 438.219 66.4028 437.619 68.0029C441.019 65.8028 441.019 65.8028 444.419 63.6027C443.819 66.0028 443.819 66.0028 443.219 68.4029C445.769 66.0528 445.769 66.0528 448.319 63.7027C448.369 65.4528 448.369 65.4528 448.419 67.2028C450.719 66.0028 450.719 66.0028 453.019 64.8027C453.644 65.5778 453.644 65.5778 454.269 66.3528C447.383 71.5264 439.152 75.0291 430.818 77.2033C431.818 78.0033 431.818 78.0033 432.818 78.8033C429.618 82.8035 429.618 82.8035 426.418 86.8037C430.918 84.0036 430.918 84.0036 435.418 81.2034C435.318 83.4035 435.318 83.4035 435.218 85.6036C436.718 83.2035 436.718 83.2035 438.219 80.8034C438.519 82.4035 438.519 82.4035 438.819 84.0036C439.919 82.4035 439.919 82.4035 441.019 80.8034C441.919 82.0035 441.919 82.0035 442.819 83.2035C443.969 81.1034 443.969 81.1034 445.119 79.0033C446.569 80.7034 446.569 80.7034 448.019 82.4035C449.119 80.5034 449.119 80.5034 450.219 78.6033C451.8 78.9221 451.8 78.9221 453.382 79.2409C444.191 90.6535 428.348 90.0013 421.218 104.004C424.218 101.604 424.218 101.604 427.218 99.2042C426.818 101.604 426.818 101.604 426.418 104.004C429.418 100.604 429.418 100.604 432.418 97.2041C432.218 99.8042 432.218 99.8042 432.018 102.404C435.839 95.6579 433.157 97.4127 438.819 95.604C436.547 102.55 427.77 105.269 423.118 110.905C419.654 115.102 418.384 120.705 416.018 125.605C418.018 123.605 418.018 123.605 420.018 121.605C420.968 123.018 420.968 123.018 421.918 124.43C425.268 120.418 425.268 120.418 428.618 116.405C429.118 119.505 429.118 119.505 429.618 122.605C431.049 117.418 431.789 113.749 438.019 112.805C437.819 114.805 437.819 114.805 437.619 116.805C439.482 114.067 440.869 110.229 444.019 109.205C444.219 111.405 444.219 111.405 444.419 113.605C447.099 110.435 450.819 106.172 454.907 106.892C452.611 110.263 450.992 114.213 448.019 117.005C443.614 121.142 420.668 132.666 421.618 142.406C424.074 139.737 426.795 136.184 430.418 136.006C427.818 140.006 427.818 140.006 425.218 144.006C430.218 139.806 430.218 139.806 435.218 135.606C434.018 139.206 434.018 139.206 432.818 142.806C434.418 141.206 434.418 141.206 436.018 139.606C436.418 141.606 436.418 141.606 436.818 143.606C437.419 140.406 437.419 140.406 438.019 137.206C439.819 139.806 439.819 139.806 441.619 142.406C444.019 138.206 444.019 138.206 446.419 134.006C445.819 142.206 445.819 142.206 445.219 150.406C446.419 148.406 446.419 148.406 447.619 146.406C447.619 149.006 447.619 149.006 447.619 151.606C449.619 145.606 449.619 145.606 451.619 139.606C451.619 142.406 451.619 142.406 451.619 145.206C453.169 142.131 453.169 142.131 454.719 139.056C455.569 140.331 455.569 140.331 456.419 141.606C456.838 139.668 456.838 139.668 457.257 137.731C458.638 139.468 458.638 139.468 460.019 141.206C462.076 136.031 462.076 136.031 464.132 130.856C464.976 146.231 464.976 146.231 465.82 161.607C459.778 162.622 456.596 161.052 454.974 167.693C453.431 174.009 453.63 180.685 451.919 186.958C448.334 200.104 436.968 214.828 443.269 226.91C449.824 239.479 461.296 248.871 468.995 260.774C470.672 263.366 470.897 266.727 471.02 269.811C471.24 275.337 466.801 281.871 470.016 286.371C477.404 296.713 488.976 303.527 499.829 310.141C511.903 317.499 522.686 310.431 523.747 326.176C523.878 328.111 522.63 330.313 520.947 331.277C509.058 338.085 495.701 342.105 483.87 349.015C465.409 359.798 448.583 373.21 430.268 384.241C418.662 391.232 405.671 395.779 394.217 403.017C387.874 407.025 383.404 413.525 377.216 417.768C371.247 421.86 364.399 424.493 357.99 427.856C348.305 416.968 354.077 398.969 352.665 384.466C352.292 380.63 346.236 379.738 344.465 376.316C341.924 371.407 343.077 362.06 337.614 361.215C337.294 365.927 338.484 370.998 336.654 375.352C335.639 377.768 331.57 377.396 329.949 379.455C328.196 381.68 327.308 384.64 327.114 387.466C325.721 407.746 325.847 428.101 325.214 448.419C316.36 440.81 315.608 442.982 314.588 430.443C311.664 394.477 307.613 358.498 307.613 322.414C308.813 323.014 308.813 323.014 310.013 323.614C309.813 315.013 309.813 315.013 309.613 306.413C317.594 312.986 318.344 325.206 321.614 335.014C320.614 326.314 320.614 326.314 319.614 317.613C323.16 321.497 328.043 324.492 330.251 329.264C333.612 336.525 333.96 344.831 335.814 352.615C335.114 340.514 335.114 340.514 334.414 328.414C338.414 338.281 341.71 348.464 346.415 358.015C346.789 358.774 348.106 357.957 348.952 357.928C349.784 352.971 349.784 352.971 350.615 348.015C353.915 354.015 353.915 354.015 357.215 360.015C354.859 344.699 348.303 330.305 342.815 315.813C351.757 309.852 342.692 298.608 339.214 292.412C344.265 295.246 350.284 296.804 354.365 300.913C358.127 304.7 359.299 310.38 361.765 315.113C366.069 311.795 362.995 304.158 362.015 298.813C371.516 309.013 371.516 309.013 381.016 319.214C386.076 316.582 383.877 318.732 385.616 311.213C391.842 319.209 388.047 317.033 396.017 319.214C391.359 308.528 383.035 299.803 375.616 290.812C378.416 289.212 378.416 289.212 381.216 287.612C384.441 295.062 384.441 295.062 387.666 302.513C391.85 298.74 388.604 291.158 387.616 285.612C393.945 293.017 401.037 305.998 410.517 303.763C410.867 300.288 410.867 300.288 411.217 296.813C416.398 305.62 412.808 302.559 421.618 306.413C414.418 295.112 414.418 295.112 407.217 283.812C408.461 282.537 408.461 282.537 409.705 281.262C402.483 270.813 390.782 263.876 379.516 258.011C362.186 248.989 357.265 259.724 353.215 234.41C359.115 238.11 359.115 238.11 365.015 241.81C363.715 237.31 363.715 237.31 362.415 232.81C369.016 236.21 369.016 236.21 375.616 239.61C375.816 236.81 375.816 236.81 376.016 234.01C384.235 239.974 392.95 245.537 402.417 249.211C384.77 226.521 354.68 230.097 338.414 208.409C348.215 211.409 348.215 211.409 358.015 214.409C338.591 202.759 316.869 197.36 316.413 173.207C318.013 179.008 318.013 179.008 319.614 184.808C322.014 179.408 322.014 179.408 324.414 174.007C324.136 178.597 326.19 183.184 328.414 187.208C328.914 180.808 328.914 180.808 329.414 174.407C335.308 186.577 335.308 186.577 341.202 198.746C342.408 194.977 342.408 194.977 343.615 191.208C345.415 193.671 345.415 193.671 347.215 196.133C346.415 190.071 346.415 190.071 345.615 184.008C351.615 191.808 351.615 191.808 357.615 199.608C356.615 193.608 356.615 193.608 355.615 187.608C362.79 192.656 369.17 198.894 374.816 205.609C372.816 200.408 372.816 200.408 370.816 195.208C376.463 199.795 383.424 206.815 390.417 204.809C374.298 192.027 360.849 176.199 346.09 161.869C341.024 156.951 333.854 153.102 331.614 146.406C334.848 148.456 337.659 151.417 341.314 152.556C343.02 153.088 344.995 149.999 346.452 151.031C350.357 153.799 352.294 158.615 355.215 162.407C355.515 158.407 355.515 158.407 355.815 154.407C361.915 159.607 361.915 159.607 368.016 164.807C364.815 158.607 364.815 158.607 361.615 152.406C365.812 156.126 370.811 160.22 376.416 160.407C374.533 156.773 373.996 152.019 370.766 149.506C362.406 143.003 351.232 140.799 342.865 134.306C332.857 126.54 323.612 117.492 316.238 107.192C313.643 103.567 314.755 98.4 314.013 94.004C329.683 103.907 320.853 108.56 341.214 106.405C338.014 101.004 338.014 101.004 334.814 95.604C344.215 98.0041 344.215 98.0041 353.615 100.404C318.846 76.8838 307.258 62.1643 297.213 23.201C352.814 22.8787 408.417 22.801 464.02 22.801ZM295.212 23.201C293.612 31.8347 292.704 40.6258 290.412 49.1021C285.109 68.7149 272.827 73.9521 257.211 84.0036C249.592 88.9079 242.687 95.1161 234.41 98.8042C239.486 99.2418 244.638 98.3149 249.611 97.2041C246.81 101.704 246.81 101.704 244.01 106.204C251.811 100.904 251.811 100.904 259.611 95.604C258.311 101.604 258.311 101.604 257.011 107.605C263.038 104.997 266.197 98.1487 270.011 92.8039C274.987 103.5 274.535 102.272 286.412 101.204C284.744 106.993 285.739 105.754 278.612 111.205C259.514 125.811 235.589 129.468 221.209 148.806C224.924 150.278 228.825 146.02 232.01 143.606C229.01 148.406 229.01 148.406 226.01 153.206C230.387 154.053 239.035 145.938 244.41 144.006C241.61 150.206 241.61 150.206 238.81 156.407C244.442 153.017 249.175 148.266 253.811 143.606C256.899 149.465 256.323 146.03 252.811 154.007C257.86 150.443 264.038 147.884 270.211 147.606C266.248 152.627 264.015 160.574 258.048 163.169C247.768 167.642 237.528 172.388 226.76 175.507C221.373 177.068 212.798 171.844 210.409 179.458C212.697 180.833 212.697 180.833 214.984 182.208C208.96 186.738 203.397 192.029 198.808 198.008C198.336 186.626 202.953 172.498 195.358 164.007C188.51 156.35 153.915 134.136 153.607 130.006C155.807 131.206 155.807 131.206 158.007 132.406C155.838 129.265 155.466 124.943 152.806 122.205C145.334 114.513 132.87 116.158 130.806 104.804C133.206 106.204 133.206 106.204 135.606 107.605C135.206 105.804 135.206 105.804 134.806 104.004C137.006 105.204 137.006 105.204 139.206 106.405C139.606 105.404 139.606 105.404 140.006 104.404C143.12 106.617 146.199 109.687 150.006 110.005C143.231 105.521 129.47 101.128 125.205 94.804C127.805 95.204 127.805 95.204 130.406 95.604C123.687 91.8933 117.601 89.642 116.005 81.6035C118.153 82.6774 117.363 81.7834 117.605 84.8036C118.305 83.4035 118.305 83.4035 119.005 82.0035C120.305 83.8035 120.305 83.8035 121.605 85.6036C121.605 83.4035 121.605 83.4035 121.605 81.2034C123.761 85.9411 123.761 85.9411 125.918 90.6788C127.062 87.9412 127.062 87.9412 128.205 85.2036C130.306 88.0037 130.306 88.0037 132.406 90.8038C132.206 88.8038 132.206 88.8038 132.006 86.8037C136.462 88.5177 134.014 87.0878 138.406 92.4039C138.206 91.2039 138.206 91.2039 138.006 90.0038C141.606 92.0039 141.606 92.0039 145.206 94.004C137.258 86.3397 122.805 80.6443 122.805 69.6029C126.914 73.1761 124.772 72.9521 128.805 72.003C130.006 74.0031 130.006 74.0031 131.206 76.0032C131.706 74.8032 131.706 74.8032 132.206 73.6031C134.106 75.2032 134.106 75.2032 136.006 76.8033C135.206 74.8032 135.206 74.8032 134.406 72.8031C137.206 74.4031 137.206 74.4031 140.006 76.0032C133.53 64.0474 119.163 64.4367 115.605 49.2021C118.633 51.7188 122.07 54.6733 126.005 54.8023C124.805 52.6022 124.805 52.6022 123.605 50.4021C127.305 51.4022 127.305 51.4022 131.006 52.4022C119.524 44.4817 113.263 37.1681 109.605 23.601C171.473 23.3078 233.343 23.2873 295.212 23.201ZM22.4009 23.601C65.0028 23.601 65.0028 23.601 107.605 23.601C105.335 39.2922 100.1 42.1517 86.8037 50.8022C88.6038 50.8022 88.6038 50.8022 90.4038 50.8022C89.4038 52.5022 89.4038 52.5022 88.4037 54.2023C91.2039 52.3022 91.2039 52.3022 94.004 50.4021C94.304 52.4022 94.304 52.4022 94.604 54.4023C97.003 50.281 95.468 51.7521 98.8042 49.6021C100.805 53.6778 99.1745 52.0641 104.404 53.6023C96.2959 60.5012 86.1589 63.3723 79.2034 71.203C81.0034 70.603 81.0034 70.603 82.8035 70.003C82.3472 71.4405 82.3472 71.4405 81.891 72.8781C85.1474 71.0405 85.1474 71.0405 88.4037 69.2029C87.4037 71.503 87.4037 71.503 86.4037 73.8031C89.6788 72.003 89.6788 72.003 92.9539 70.203C92.4789 71.303 92.4789 71.303 92.0039 72.4031C95.316 70.2686 93.3711 71.0825 98.0041 70.403C94.4562 79.8642 83.5961 81.2785 74.8032 82.6035C75.3782 83.7535 75.3782 83.7535 75.9532 84.9036C70.9793 89.3382 72.5868 86.9243 70.403 91.6039C72.5031 90.0038 72.5031 90.0038 74.6032 88.4037C75.1032 89.0038 75.1032 89.0038 75.6032 89.6038C77.6033 88.2037 77.6033 88.2037 79.6034 86.8037C79.4034 88.8038 79.4034 88.8038 79.2034 90.8038C80.8034 88.2037 80.8034 88.2037 82.4035 85.6036C82.6035 87.4037 82.6035 87.4037 82.8035 89.2038C83.7035 87.6037 83.7035 87.6037 84.6036 86.0036C85.3036 87.4037 85.3036 87.4037 86.0036 88.8038C87.4037 86.5287 87.4037 86.5287 88.8038 84.2536C90.0038 85.5286 90.0038 85.5286 91.2039 86.8037C95.0817 83.1574 93.1254 83.098 96.5791 84.4411C87.5859 95.4499 72.352 94.5061 65.6028 108.005C68.4029 106.004 68.4029 106.004 71.203 104.004C71.003 106.004 71.003 106.004 70.803 108.005C73.7777 102.723 71.826 104.511 76.0032 102.004C76.2032 104.604 76.2032 104.604 76.4032 107.205C80.162 100.568 77.5664 102.286 82.8035 100.404C80.401 108.213 72.1344 109.964 67.3028 114.955C64.7362 117.606 62.0266 125.122 60.4026 129.205C62.0026 127.605 62.0026 127.605 63.6027 126.005C64.8652 127.28 64.8652 127.28 66.1278 128.555C69.2654 124.68 69.2654 124.68 72.4031 120.805C72.6031 123.805 72.6031 123.805 72.8031 126.805C76.4962 118.792 73.7169 122.255 81.6035 116.805C81.4034 119.005 81.4034 119.005 81.2034 121.205C84.1786 117.655 84.1786 117.655 87.1537 114.105C87.5787 116.055 87.5787 116.055 88.0037 118.005C90.5995 114.783 94.1171 110.937 98.2542 111.005C99.7196 117.844 68.5517 136.756 65.2028 145.606C67.6044 143.142 70.1645 139.736 73.6031 139.606C71.403 143.406 71.403 143.406 69.2029 147.206C74.2031 143.006 74.2031 143.006 79.2034 138.806C78.0033 142.606 78.0033 142.606 76.8033 146.406C78.4033 144.606 78.4033 144.606 80.0034 142.806C80.4034 144.806 80.4034 144.806 80.8034 146.806C81.8035 143.606 81.8035 143.606 82.8035 140.406C84.0036 143.206 84.0036 143.206 85.2036 146.006C88.1561 138.876 86.1496 141.164 89.6038 138.006C90.7308 147.937 90.8389 142.731 88.8038 153.607C89.6038 152.006 89.6038 152.006 90.4038 150.406C91.0039 152.406 91.0039 152.406 91.6039 154.407C93.504 148.606 93.504 148.606 95.404 142.806C95.304 145.606 95.304 145.606 95.204 148.406C97.6212 142.473 95.49 143.344 99.1042 142.706C99.3542 143.756 99.3542 143.756 99.6042 144.806C100.16 142.869 100.16 142.869 100.717 140.931C101.961 142.669 101.961 142.669 103.204 144.406C104.904 138.806 104.904 138.806 106.605 133.206C107.071 136.872 107.777 140.517 108.005 144.206C108.378 150.263 111.844 157.407 108.405 162.407C102.193 171.437 91.0795 175.863 82.0035 182.008C69.3639 190.565 75.5451 168.884 76.0032 166.807C59.578 162.535 42.96 157.867 26.0011 157.207C34.2898 173.784 29.888 182.863 22.4009 199.208C22.4009 111.405 22.4009 111.405 22.4009 23.601ZM692.429 105.554C704.372 96.3445 715.321 85.9071 727.031 76.4032C736.572 85.0768 742.788 96.8204 750.432 107.205C758.314 101.44 765.834 95.0337 774.433 90.4038C774.433 108.405 774.433 108.405 774.433 126.405C762.71 128.685 750.731 129.399 738.831 130.406C742.231 125.605 742.231 125.605 745.632 120.805C729.831 118.805 729.831 118.805 714.03 116.805C718.13 121.805 718.13 121.805 722.231 126.805C687.91 127.697 695.999 128.809 674.804 108.342C669.131 102.865 664.993 104.513 664.028 96.4041C668.946 99.8423 669.481 102.131 674.029 99.6042C676.611 105.508 674.823 103.244 678.829 106.805C679.229 104.604 679.229 104.604 679.629 102.404C685.079 107.967 682.37 106.412 686.829 108.405C683.54 102.258 683.425 104.83 684.029 101.204C685.336 102.511 689.438 107.862 692.429 105.554ZM654.028 114.405C657.041 116.715 655.429 114.933 656.428 121.205C657.628 118.405 657.628 118.405 658.828 115.605C660.114 119.72 659.197 117.258 662.028 122.805C664.292 119.032 663.253 121.582 663.028 114.605C667.147 119.238 666.409 125.986 670.828 130.406C671.528 128.005 671.528 128.005 672.228 125.605C673.328 127.205 673.328 127.205 674.429 128.805C673.629 125.005 673.629 125.005 672.828 121.205C677.204 123.081 677.737 127.104 680.429 130.806C679.829 127.005 679.829 127.005 679.229 123.205C690.441 129.466 686.427 143.438 693.354 147.594C697.621 150.154 704.19 151.767 707.63 155.207C700.616 155.646 671.838 144.311 668.428 136.406C671.832 137.547 675.239 139.124 678.829 139.206C667.954 132.979 654.944 128.148 654.028 114.405ZM500.021 122.168C501.622 125.419 500.955 123.74 502.021 127.205C499.691 125.955 499.065 125.374 498.034 122.968C499.027 122.568 499.027 122.568 500.021 122.168ZM482.82 123.605C488.459 126.233 490.862 127.134 491.621 133.206C490.421 133.006 490.421 133.006 489.221 132.806C489.121 139.506 489.121 139.506 489.021 146.206C484.362 138.807 486.61 131.184 482.82 123.605ZM144.806 125.205C148.106 127.547 145.997 125.784 150.006 131.606C145.724 129.437 145.526 129.525 144.806 125.205ZM131.206 130.406C129.605 131.606 129.605 131.606 128.005 132.806C127.432 130.512 126.886 129.579 125.405 127.605C129.351 129.447 127.418 128.512 131.206 130.406ZM750.632 152.806C750.787 148.913 763.826 148.274 766.77 144.694C770.589 140.049 771.219 133.585 774.833 128.805C774.718 148.743 778.816 169.355 773.633 188.608C766.311 187.517 757.115 184.034 752.632 177.808C759.169 175.834 766.078 175.408 772.833 174.407C767.223 163.187 758.603 171.278 749.032 165.057C753.694 162.338 758.127 161.97 763.632 160.807C761.319 157.639 750.512 155.804 750.632 152.806ZM472.92 162.932C467.555 153.543 471.384 139.351 470.82 129.205C474.398 131.808 473.77 133.148 474.82 138.006C475.02 136.006 475.02 136.006 475.22 134.006C479.88 138.665 478.891 143.069 482.02 148.406C480.995 139.983 480.305 143.111 481.62 138.806C482.941 142.504 483.951 146.863 486.421 150.006C487.021 148.406 487.021 148.406 487.621 146.806C495.164 160.384 477.172 170.373 472.92 162.932ZM145.006 140.006C144.718 141.829 132.843 135.351 136.406 131.406C138.992 128.542 145.65 135.927 145.006 140.006ZM114.405 132.806C117.87 137.311 121.564 155.472 114.805 158.007C112.582 148.894 112.465 141.534 114.405 132.806ZM713.63 136.806C709.295 144.295 708.736 145.222 700.03 146.406C701.693 136.136 703.574 136.806 713.63 136.806ZM759.232 143.606C751.939 143.346 748.008 143.768 744.031 137.406C751.921 136.666 756.445 135.71 759.232 143.606ZM139.206 150.406C135.022 157.952 124.763 144.485 128.805 139.206C131.981 135.059 141.764 145.793 139.206 150.406ZM737.231 138.006C733.42 146.899 724.742 146.318 719.493 139.043C724.102 136.557 732.878 137.927 737.231 138.006ZM734.431 151.206C733.861 159.181 723.791 158.469 721.831 151.606C725.969 150.876 730.229 151.245 734.431 151.206ZM683.629 151.606C686.761 152.538 688.984 154.89 692.029 156.007C692.029 154.407 692.029 154.407 692.029 152.806C694.429 154.407 694.429 154.407 696.829 156.007C695.429 156.607 695.429 156.607 694.029 157.207C697.392 163.185 707.059 162.296 707.63 168.007C699.709 168.751 672.396 167.071 679.429 153.006C681.868 154.016 683.194 156.125 685.629 157.207C685.374 154.658 684.951 153.721 683.629 151.606ZM540.623 169.407C537.004 173.738 526.547 167.008 532.023 162.607C535.718 159.637 545.059 164.099 540.623 169.407ZM618.826 162.307C619.688 161.814 621.052 161.539 622.026 161.807C630.393 164.106 620.489 173.058 616.976 177.32C614.083 180.83 607.993 182.35 604.776 185.508C603.172 187.082 602.35 190.88 599.675 191.808C597.098 192.702 594.049 192.603 591.9 194.633C588.572 197.776 584.028 205.478 578.424 207.609C576.423 195.322 572.478 186.432 585.225 178.008C585.125 183.008 585.125 183.008 585.025 188.008C585.358 187.625 585.853 187.336 586.025 186.858C590.402 174.699 586.878 178.556 598.825 172.407C597.593 177.582 597.73 175.172 598.025 179.608C603.717 169.571 600.516 173.691 607.026 166.807C607.926 170.307 607.926 170.307 608.826 173.807C612.891 170.758 614.71 164.659 618.826 162.307ZM736.394 163.357C737.25 166.379 736.966 164.83 737.231 168.007C729.031 168.407 729.031 168.407 720.831 168.807C723.817 162.112 729.479 163.585 736.394 163.357ZM70.053 166.932C73.2342 171.35 70.4651 179.629 65.2028 181.208C64.7701 173.84 63.0115 169.996 70.053 166.932ZM500.021 166.807C502.567 169.838 504.357 173.431 506.421 176.807C498.112 178.649 484.776 183.608 476.42 183.608C476.597 175.821 479.924 171.577 487.621 175.207C488.621 172.007 488.621 172.007 489.621 168.807C493.621 171.207 493.621 171.207 497.621 173.607C497.621 170.589 497.849 168.979 500.021 166.807ZM560.824 186.808C556.629 195.589 541.859 183.985 549.023 176.407C555.137 169.941 564.483 179.149 560.824 186.808ZM741.631 183.208C734.128 183.785 722.56 183.103 716.78 178.608C726.88 174.119 735.328 174.179 741.631 183.208ZM534.46 184.645C527.947 187.064 521.84 178.648 530.022 176.807C534.477 175.806 542.244 181.754 534.46 184.645ZM692.029 177.208C697.03 178.208 697.03 178.208 702.03 179.208C699.531 183.14 697.405 187.398 694.229 190.808C691.47 188.508 692.788 181.383 692.029 177.208ZM257.661 182.708C258.962 180.775 265.026 176.493 265.774 181.633C266.083 183.756 258.869 188.007 257.661 189.808C256.161 192.044 257.066 196.099 254.661 197.308C245.967 201.681 236.145 203.372 227.16 207.109C217.3 211.209 209.772 217.804 200.408 222.409C199.608 211.609 199.608 211.609 198.808 200.808C203.642 200.118 207.356 195.861 210.809 192.408C210.809 194.408 210.809 194.408 210.809 196.408C215.81 194.957 219.022 189.982 222.809 186.408C221.409 193.008 221.409 193.008 220.009 199.608C225.306 196.077 225.248 189.504 230.01 185.608C230.049 189.75 229.344 194.134 230.81 198.008C232.174 194.084 232.345 188.706 235.96 186.658C237.28 191.874 235.75 190.138 239.923 192.358C243.689 187.373 242.302 184.283 248.211 180.808C250.45 183.637 251.644 187.158 253.211 190.408C254.694 187.841 256.005 185.167 257.661 182.708ZM707.43 189.208C719.019 181.893 717.338 182.64 727.231 191.208C717.63 192.408 717.63 192.408 708.03 193.608C716.23 198.342 723.209 206.876 732.631 207.809C738.87 208.426 743.165 201.009 748.432 197.608C740.831 195.308 740.831 195.308 733.231 193.008C737.467 189.247 738.755 185.036 744.382 188.933C750.012 192.833 754.949 197.65 760.232 202.009C767.532 195.608 767.532 195.608 774.833 189.208C774.833 296.213 774.833 296.213 774.833 403.217C766.894 387.85 762.264 377.978 747.144 369.853C748.254 363.303 763.739 356.708 760.096 347.497C759.205 345.242 757.512 343.385 756.032 341.464C740.255 320.984 726.153 298.643 706.692 281.624C699.438 275.281 692.007 268.995 683.729 264.061C675.184 258.968 665.123 256.781 656.548 251.739C650.116 247.957 651.162 237.634 650.428 230.21C649.382 219.644 648.936 208.503 652.228 198.408C654.928 206.809 654.928 206.809 657.628 215.209C657.228 210.209 657.228 210.209 656.828 205.209C662.013 211.374 664.855 219.399 666.828 227.21C670.322 223.716 666.747 217.297 666.028 212.409C670.293 217.612 672.515 224.212 675.304 230.335C675.666 227.372 675.666 227.372 676.029 224.409C678.229 228.01 678.229 228.01 680.429 231.61C678.47 222.219 673.971 213.512 671.628 204.209C671.412 203.35 673.266 203.087 673.379 202.209C674.319 194.845 672.727 194.666 668.828 189.208C672.412 191.079 676.7 191.983 679.579 194.821C682.091 197.297 681.732 202.32 684.829 204.009C684.029 198.808 684.029 198.808 683.229 193.608C688.681 198.773 687.942 195.928 688.029 201.009C694.496 197.075 701.029 193.248 707.43 189.208ZM487.621 202.809C488.398 195.039 493.089 192.153 485.333 186.583C490.892 174.444 516.277 201.3 487.621 202.809ZM459.219 187.208C467.955 197.135 460.084 204.409 450.419 204.409C452.951 198.679 455.074 192.026 459.219 187.208ZM538.623 200.408C532.741 206.031 526.757 194.737 535.423 190.408C542.789 186.729 542.768 196.446 538.623 200.408ZM158.207 193.208C166.683 199.263 151.006 218.885 144.806 221.209C144.981 209.08 150.915 203.151 158.207 193.208ZM166.807 205.209C166.951 201.464 166.583 197.568 168.407 194.208C182.142 194.617 173.235 203.066 166.807 205.209ZM572.624 206.809C568.237 211.051 563.262 200.905 566.024 197.808C570.677 192.592 576.51 203.051 572.624 206.809ZM542.823 208.409C542.823 203.84 542.556 199.602 547.023 197.208C549.793 204.187 548.366 207.793 542.823 208.409ZM560.224 207.809C556.445 213.598 553.977 203.674 556.624 200.208C561.608 193.682 562.522 204.289 560.224 207.809ZM639.227 198.808C641.968 215.257 642.281 231.781 642.027 248.411C636.107 247.498 619.304 247.747 612.113 246.073C606.681 244.808 604.811 237.639 601.175 233.41C596.068 227.468 590.224 222.093 585.825 215.609C588.956 211.434 590.546 209.457 595.225 207.209C593.659 211.26 591.866 215.314 591.225 219.609C594.409 216.425 592.883 218.239 595.688 214.072C596.431 216.965 596.431 216.965 597.175 219.859C597.984 216.605 598.213 212.738 600.625 210.409C603.845 212.421 603.42 214.313 604.426 218.409C607.429 215.406 608.308 210.286 609.626 206.609C613.126 207.025 613.467 211.911 613.126 215.109C612.548 220.52 611.326 225.843 610.426 231.21C613.073 226.798 611.801 229.296 614.026 223.609C613.804 231.155 612.812 228.381 614.826 232.41C617.356 225.527 617.726 217.262 621.626 211.209C620.462 220.233 620.491 216.358 620.826 222.809C623.049 219.771 622.832 216.17 625.176 213.209C628.765 214.525 626.633 213.228 627.227 220.409C628.427 215.409 628.427 215.409 629.627 210.409C631.219 211.928 632.689 214.706 633.227 216.809C634.954 210.725 635.344 203.801 639.227 198.808ZM144.406 200.008C143.163 211.386 139.816 224.992 128.005 229.21C129.31 219.557 133.221 203.256 144.406 200.008ZM179.608 204.009C178.824 211.061 167.615 219.307 172.495 227.81C181.79 244.006 202.717 225.241 197.258 249.111C195.717 255.85 194.506 259.754 190.708 265.461C189.367 267.476 182.177 277.187 178.408 276.012C176.796 275.509 174.518 272.151 172.307 274.712C165.16 282.99 169.571 282.184 162.007 286.012C141.065 296.609 105.399 284.341 110.405 256.811C116.493 256.05 123.43 263.09 130.693 263.061C154.675 262.964 161.524 247.901 143.206 231.61C155.482 220.454 166.317 213.976 179.608 204.009ZM509.022 215.409C502.142 214.46 495.742 211.501 488.821 210.809C489.656 204.125 511.795 207.782 509.022 215.409ZM194.408 208.009C192.659 215.443 184.875 220.591 178.408 223.609C178.049 213.031 183.818 209.475 194.408 208.009ZM586.825 208.409C585.225 211.009 585.225 211.009 583.625 213.609C582.225 212.109 582.225 212.109 580.825 210.609C582.343 208.18 584.109 208.137 586.825 208.409ZM500.821 222.809C496.843 222.478 480.916 219.452 483.42 213.609C492.864 214.316 498.63 216.968 500.821 222.809ZM469.62 213.609C474.527 216.979 472.155 216.002 476.42 217.209C476.42 216.009 476.42 216.009 476.42 214.809C491.226 226.109 454.552 233.405 451.919 230.96C449.135 228.375 450.069 219.699 450.019 217.609C453.219 219.409 453.219 219.409 456.419 221.209C456.619 219.409 456.619 219.409 456.819 217.609C459.819 218.209 459.819 218.209 462.82 218.809C462.92 217.009 462.92 217.009 463.02 215.209C465.855 217.264 466.521 218.022 469.62 218.409C469.62 216.009 469.62 216.009 469.62 213.609ZM120.98 221.522C127.744 228.784 119.203 245.011 111.205 248.01C110.815 239.041 111.714 226.155 120.98 221.522ZM22.4009 222.809C25.7511 225.202 22.1204 222.162 25.2011 229.01C33.1152 246.602 40.8724 256.928 37.2016 276.812C35.6281 285.335 31.6245 293.385 30.8013 302.013C29.3883 316.821 30.8741 331.768 30.5388 346.64C30.3839 353.508 30.9758 369.97 22.4009 374.416C22.4009 298.613 22.4009 298.613 22.4009 222.809ZM230.41 222.809C228.948 231.579 225.187 232.441 218.609 238.41C215.438 229.954 224.039 224.848 230.41 222.809ZM213.609 226.81C213.609 237.654 211.306 244.807 202.809 252.011C202.907 241.545 203.318 231.955 213.609 226.81ZM517.222 229.21C522.361 242.058 506.159 238.356 506.821 230.41C508.622 230.01 508.622 230.01 510.422 229.61C510.822 231.21 510.822 231.21 511.222 232.81C513.222 231.61 515.222 230.41 517.222 229.21ZM92.6664 255.911C108.494 273.38 109.41 290.841 84.3036 301.463C78.9705 303.719 79.0502 296.797 77.8033 292.612C74.3148 280.906 77.7405 274.53 77.0033 263.011C76.4968 255.098 68.1917 245.817 65.2028 239.61C60.6964 230.253 88.7165 251.551 92.6664 255.911ZM143.206 242.61C137.15 251.694 111.523 248.107 127.405 241.01C133.637 240.35 138.882 240.776 143.206 242.61ZM534.023 240.01C533.423 242.61 533.423 242.61 532.823 245.21C539.654 244.783 545.063 246.654 545.223 253.611C549.909 253.907 549.719 253.785 550.423 258.011C555.911 255.61 556.719 257.735 556.424 262.811C563.374 262.554 562.091 266.682 569.624 266.011C569.624 268.811 569.624 268.811 569.624 271.611C557.077 268.266 530.084 252.968 526.822 241.01C530.59 239.64 528.243 240.241 534.023 240.01ZM265.674 247.673C268.831 244.335 278.634 241.636 279.812 248.811C280.361 252.152 272.854 253.317 271.261 256.398C264.664 269.158 256.307 271.56 245.56 281.112C242.535 283.801 241.089 287.567 238.01 290.412C236.511 281.316 232.834 275.752 237.51 267.861C239.871 263.877 243.048 254.709 248.411 252.411C250.865 255.848 249.102 260.314 251.811 263.611C257.953 259.517 260.712 252.918 265.674 247.673ZM501.471 244.71C497.988 247.144 494.551 249.646 491.021 252.011C487.533 254.347 484.09 256.772 480.42 258.811C471.726 263.641 486.739 247.36 491.421 245.21C499.823 243.046 497.925 242.703 501.471 244.71ZM479.22 244.01C480.331 254.01 462.72 251.698 470.62 244.81C477.223 243.499 475.323 243.491 479.22 244.01ZM490.883 277.112C498.277 281.284 512.635 254.845 514.422 248.411C525.299 253.031 532.812 260.636 541.71 268.174C550.67 275.763 574.596 277.24 558.424 293.412C550.742 301.094 550.578 300.525 542.823 303.613C544.579 297.174 551.705 291.203 548.823 284.812C536.761 290.843 520.597 316.842 504.571 304.313C498.397 299.485 492.15 294.737 486.221 289.612C477.964 282.476 478.216 279.729 477.62 268.811C482.295 271.123 486.341 274.549 490.883 277.112ZM603.626 291.612C601.052 287.839 592.768 270.422 601.388 269.874C605.251 281.922 608.561 290.4 618.876 298.213C625.564 303.278 635.777 307.146 638.027 316.013C623.683 314.147 611.63 303.348 603.626 291.612ZM615.139 287.4C610.396 286.53 606.71 275.72 606.201 271.211C619.365 265.193 620.387 277.485 615.139 287.4ZM192.008 279.012C197.463 265.033 219.052 274.413 224.81 283.812C227.838 288.757 222.865 300.629 216.409 298.413C217.609 293.612 217.609 293.612 218.809 288.812C213.561 288.774 211.69 290.173 209.609 286.012C207.342 287.412 205.189 289.015 202.809 290.212C199.253 292 201.3 286.777 197.346 287.762C195.065 288.331 194.55 291.616 192.408 292.812C192.06 288.223 190.335 283.299 192.008 279.012ZM581.025 283.412C577.954 291.16 573.584 300.146 565.624 303.613C564.208 289.708 565.742 280.16 581.025 283.412ZM118.005 291.212C131.71 294.49 147.423 293.685 160.407 298.013C151.663 311.128 115.453 311.625 118.005 291.212ZM119.205 307.613C122.44 309.996 128.531 310.958 130.206 314.813C131.78 318.439 122.364 319.426 120.905 319.114C112.7 317.355 106.253 307.666 110.405 301.813C112.922 298.264 115.929 305.199 119.205 307.613ZM238.46 307.813C242.608 313.584 245.207 320.264 240.81 326.614C239.36 328.708 230.456 338.904 227.46 332.814C226.529 330.923 230.401 328.739 230.71 328.364C232.027 326.764 231.01 322.069 231.81 319.839C232.983 316.565 229.944 312.928 231.21 308.813C226.761 307.947 224.725 306.753 227.81 302.613C233.394 302.862 236.099 304.528 238.46 307.813ZM291.912 308.563C298.483 352.587 296.703 396.769 290.212 440.594C289.498 445.417 282.963 448.367 281.212 453.619C277.388 445.454 266.228 428.404 268.124 417.818C270.098 406.792 272.296 409.378 272.612 400.917C272.876 393.821 273.578 386.675 272.812 379.616C271.64 368.83 265.475 368.602 261.211 358.465C257.139 348.785 259.594 337.653 263.611 328.614C261.806 339.845 262.212 334.179 262.411 345.615C267.862 340.659 264.321 332.36 272.012 329.614C271.897 333.615 271.638 337.688 272.412 341.614C274.062 334.064 274.062 334.064 275.712 326.514C276.462 326.489 276.462 326.489 277.212 326.464C278.012 329.439 278.012 329.439 278.812 332.414C279.612 332.214 279.612 332.214 280.412 332.014C280.531 335.519 279.862 334.226 281.612 336.214C284.822 327.033 287.468 317.652 289.812 308.213C290.862 308.388 290.862 308.388 291.912 308.563ZM538.223 311.413C541.162 308.964 538.917 310.536 546.023 308.813C566.23 308.013 547.452 327.354 538.223 311.413ZM722.831 307.613C725.933 311.011 732.677 314.549 730.918 318.801C729.976 321.08 722.879 329.223 721.181 331.014C710.905 341.853 703.861 350.536 698.83 333.214C703.83 334.214 703.83 334.214 708.83 335.214C707.43 329.414 707.43 329.414 706.03 323.614C718.425 325.92 716.214 326.811 714.43 315.213C723.075 318.377 719.387 317.671 725.231 318.413C724.031 313.013 724.031 313.013 722.831 307.613ZM599.425 327.114C598.56 337.503 589.663 319.267 589.625 315.013C589.539 305.324 599.994 320.289 599.425 327.114ZM613.601 311.751C615.857 322.314 616.154 332.346 607.226 339.214C602.823 330.936 604.706 316.132 613.601 311.751ZM528.822 317.213C534.095 319.701 537.113 332.42 540.473 337.814C544.811 344.778 552.741 348.924 556.424 356.015C537.835 352.877 530.956 333.749 528.822 317.213ZM671.628 333.614C669.061 332.191 666.534 330.694 664.028 329.164C660.403 326.95 650.423 322.249 654.428 320.814C669.627 315.365 700.306 349.514 671.628 333.614ZM176.807 332.764C173.201 340.428 165.973 332.505 169.607 326.614C172.748 321.522 178.868 328.385 176.807 332.764ZM190.908 325.014C198.856 327.994 185.076 341.446 183.208 332.214C182.765 330.025 184.07 326.48 185.808 325.414C188.002 324.067 188.715 324.191 190.908 325.014ZM714.318 349.84C713.446 347.906 723.972 336.612 724.631 335.864C726.57 333.663 732.287 326.093 736.231 326.214C745.147 326.486 756.768 341.376 752.432 349.615C751.032 348.615 751.032 348.615 749.632 347.615C747.097 350.15 747.751 351.719 747.632 355.615C744.432 355.215 744.432 355.215 741.231 354.815C741.431 357.815 741.431 357.815 741.631 360.815C738.431 360.415 738.431 360.415 735.231 360.015C734.431 362.115 734.431 362.115 733.631 364.215C725.66 362.887 717.704 357.354 714.318 349.84ZM163.407 340.814C160.063 345.83 153.046 334.334 156.607 330.814C161.909 325.572 166.552 336.097 163.407 340.814ZM571.224 329.614C574.253 330.406 593.744 332.159 595.225 339.614C586.074 339.919 574.48 340.468 571.224 329.614ZM640.027 340.014C633.007 342.404 604.327 343.179 624.826 333.214C634.977 330.962 637.573 334.698 640.027 340.014ZM529.972 350.865C521.28 359.557 512.488 342.379 519.222 336.014C525.182 330.381 533.744 347.093 529.972 350.865ZM201.609 344.015C195.693 348.962 189.996 343.619 195.208 338.214C200.205 333.034 207.663 338.951 201.609 344.015ZM245.21 339.814C251.903 344.661 257.396 368.842 243.61 365.815C244.81 362.315 244.81 362.315 246.01 358.815C242.21 358.615 242.21 358.615 238.41 358.415C242.185 352.214 241.45 354.861 242.235 351.115C233.563 346.756 236.71 333.659 245.21 339.814ZM156.207 353.415C151.082 359.203 143.399 347.969 148.006 344.015C152.504 340.155 160.815 348.209 156.207 353.415ZM581.425 358.515C581.425 352.548 587.701 348.999 592.225 346.215C608.705 343.737 593.531 362.24 581.425 358.515ZM624.626 358.415C617.721 357.264 610.155 352.727 608.826 345.415C614.637 342.773 626.355 352.078 624.626 358.415ZM181.258 355.165C173.676 362.747 161.92 355.979 171.407 347.815C175.075 344.658 185.968 350.455 181.258 355.165ZM633.289 363.665C651.047 358.819 667.271 349.255 685.629 347.215C677.665 364.783 644.424 369.46 627.927 372.466C615.513 374.728 595.699 378.042 589.625 363.615C604.229 363.615 618.519 367.697 633.289 363.665ZM100.054 366.466C100.625 368.912 102.265 375.641 100.404 378.816C97.7227 383.39 85.8879 387.554 82.5035 388.916C67.9864 394.761 70.6445 388.325 66.5528 378.216C60.337 362.859 50.4439 362.027 70.603 353.415C82.0884 348.508 96.7154 352.152 100.054 366.466ZM543.073 363.465C539.795 371.169 527.922 361.991 531.823 355.215C534.855 349.947 544.842 359.309 543.073 363.465ZM686.929 374.216C682.874 375.875 673.259 371.878 674.629 366.216C675.522 362.523 683.809 359.036 686.829 357.815C697.48 353.51 692.353 371.997 686.929 374.216ZM148.856 358.865C165.321 364.793 130.687 376.419 143.206 359.015C144.713 356.921 146.472 358.007 148.856 358.865ZM192.971 359.29C199.247 364.727 191.072 367.203 186.808 368.016C188.35 364.314 189.685 361.689 192.971 359.29ZM177.208 373.616C177.808 371.116 177.808 371.116 178.408 368.616C188.026 363.866 183.619 373.033 177.208 373.616ZM561.424 374.216C557.629 377.946 544.053 371.407 547.023 367.016C548.598 364.686 567.784 367.964 561.424 374.216ZM174.107 375.366C172.316 381.04 165.939 375.381 167.207 370.416C168.892 363.816 175.32 371.525 174.107 375.366ZM665.628 368.416C665.431 373.922 667.719 381.151 663.61 384.822C657.359 390.407 638.35 389.469 643.227 376.666C644.645 372.944 654.017 371.337 656.828 370.416C663.903 368.666 663.903 368.666 665.628 368.416ZM257.811 369.416C275.972 374.757 264.465 401.211 250.011 402.817C252.011 397.817 252.011 397.817 254.011 392.817C250.811 393.017 250.811 393.017 247.61 393.217C249.211 389.416 249.211 389.416 250.811 385.616C246.753 383.813 249.079 385.252 244.81 380.016C249.907 378.261 248.222 366.595 257.811 369.416ZM581.225 378.766C577.644 383.421 571.219 374.012 574.024 371.216C576.979 368.271 584.981 373.883 581.225 378.766ZM539.623 380.416C534.094 385.166 528.716 381.122 534.623 375.616C539.132 371.412 544.618 376.124 539.623 380.416ZM162.007 380.016C156.612 380.556 159.345 380.48 153.807 380.216C156.976 373.525 160.63 370.224 162.007 380.016ZM749.032 383.416C744.649 386.582 736.658 379.98 740.231 376.416C742.392 374.261 754.864 379.204 749.032 383.416ZM145.144 377.016C152.464 378.039 147.157 382.835 142.806 383.216C143.879 378.926 143.105 380.995 145.144 377.016ZM550.648 388.391C547.707 386.323 546.704 379.349 549.423 378.016C558.435 373.598 553.419 390.34 550.648 388.391ZM633.627 376.816C635.381 394.947 609.18 398.43 606.826 378.416C615.809 378.416 624.88 379.148 633.627 376.816ZM572.024 388.816C564.889 388.511 565.347 385.388 565.624 379.016C571.736 377.658 571.879 384.654 572.024 388.816ZM721.043 388.979C721.483 385.835 722.42 385.447 724.831 383.416C737.362 375.393 731.287 393.878 721.043 388.979ZM138.481 380.691C140.15 388.594 127.578 384.124 125.005 380.816C134.027 379.755 129.535 379.786 138.481 380.691ZM449.082 416.68C444.87 414.29 443.193 408.986 440.419 405.017C433.684 395.383 429.802 391.84 440.019 384.816C439.819 388.416 439.819 388.416 439.619 392.017C444.019 392.017 444.019 392.017 448.419 392.017C446.019 396.417 446.019 396.417 443.619 400.817C447.938 401.042 447.938 401.042 452.257 401.267C452.947 405.464 452.693 402.537 451.219 410.017C455.079 410.924 459.657 411.174 462.42 414.018C459.284 415.105 453.286 419.066 449.082 416.68ZM701.955 395.817C700.68 393.873 700.68 393.873 699.405 391.929C708.684 383.047 710.476 393.519 701.955 395.817ZM103.654 389.616C101.879 394.942 93.4743 392.621 100.404 400.417C97.4041 401.217 97.4041 401.217 94.404 402.017C99.4764 405.982 97.6499 403.945 100.404 407.617C78.2575 411.469 91.3736 382.141 103.654 389.616ZM362.252 431.233C381.453 418.732 392.636 444.445 413.017 440.869C419.088 439.804 423.14 433.664 428.818 431.268C431.547 430.117 434.896 431.511 437.669 430.468C448.888 426.247 459.785 421.148 470.42 415.618C485.357 407.849 498.997 397.565 514.422 390.817C517.553 407.953 521.632 426.009 518.118 443.427C516.329 452.291 478.688 470.037 495.471 480.57C502.393 484.915 509.502 490.783 517.672 490.971C541.346 491.516 565.823 490.364 588.231 482.706C593.95 480.752 593.202 471.261 593.025 465.22C592.851 459.298 589.158 454.019 587.225 448.419C591.442 447.269 597.604 448.703 599.875 444.969C604.31 437.68 601.261 427.658 604.626 419.818C607.109 414.031 611.491 408.721 616.851 405.417C622.599 401.875 629.774 401.367 636.427 400.217C661.058 395.959 682.505 401.998 698.917 421.73C703.303 427.004 704.456 434.696 709.43 439.419C713.012 442.82 718.63 443.019 723.231 444.819C720.96 447.927 717.305 450.398 716.418 454.144C715.903 456.316 718.56 458.061 719.63 460.019C718.43 460.82 718.43 460.82 717.23 461.62C719.23 464.02 719.23 464.02 721.231 466.42C719.03 467.62 719.03 467.62 716.83 468.82C717.964 473.537 717.842 478.748 720.23 482.97C724.445 490.42 736.482 490.019 745.032 489.621C755.236 489.145 765.166 486.154 775.233 484.421C775.233 529.822 775.233 529.822 775.233 575.224C523.422 576.224 523.422 576.224 271.611 577.224C279.612 571.291 288.667 566.563 295.613 559.424C301.664 553.204 293.071 542.105 289.912 534.023C296.163 530.222 296.163 530.222 302.413 526.422C293.412 494.021 293.412 494.021 284.412 461.62C300.536 468.559 311.678 470.033 325.614 458.419C325.614 462.02 325.614 462.02 325.614 465.62C339.814 465.62 339.814 465.62 354.015 465.62C354.332 455.275 350.7 438.753 362.252 431.233ZM743.081 391.867C756.143 396.679 731.718 408.686 738.231 392.617C739.301 389.977 740.608 390.955 743.081 391.867ZM717.03 403.217C710.007 409.131 708.71 399.185 714.23 396.017C720.316 392.524 721.229 399.682 717.03 403.217ZM730.431 408.017C728.631 408.017 728.631 408.017 726.831 408.017C725.233 391.642 732.007 392.26 730.431 408.017ZM414.605 400.417C419.118 401.421 418.931 408.597 420.818 412.817C415.393 412.947 409.965 413.005 404.542 413.205C394.868 413.562 392.045 420.057 383.616 423.218C385.416 410.918 401.376 397.473 414.605 400.417ZM33.1389 408.855C32.823 417.806 22.7831 418.117 22.4009 409.217C21.8801 397.087 33.3129 403.925 33.1389 408.855ZM259.661 421.668C258.205 435.741 231.564 450.47 226.01 432.418C233.979 431.966 234.319 432.956 234.21 426.218C238.166 426.412 238.166 426.412 242.123 426.606C243.218 422.761 242.944 425.307 240.01 419.218C244.61 419.618 244.61 419.618 249.211 420.018C243.432 401.894 260.728 411.35 259.661 421.668ZM92.1539 415.568C94.7537 414.123 97.4969 412.999 100.404 412.417C99.8042 414.618 99.8042 414.618 99.2042 416.818C101.604 417.918 101.604 417.918 104.004 419.018C102.404 419.718 102.404 419.718 100.804 420.418C102.404 423.818 102.404 423.818 104.004 427.218C103.004 427.418 103.004 427.418 102.004 427.618C111.886 447.035 71.2219 427.196 92.1539 415.568ZM424.23 422.98C427.548 428.35 416.23 433.883 412.855 433.668C412.531 430.016 412.578 432.618 414.418 426.018C407.344 424.196 399.988 423.836 392.417 424.418C396.761 414.799 418.391 413.532 424.23 422.98ZM769.633 423.618C759.855 435.84 739.486 434.811 725.231 435.218C729.205 426.703 759.691 423.211 769.633 423.618ZM591.925 426.518C591.465 437.219 534.342 438.048 531.422 430.018C549.792 424.366 573.009 423.755 591.925 426.518ZM22.801 429.218C26.4178 431.802 28.7284 437.15 33.8514 435.343C37.2617 434.141 40.9224 431.834 44.4019 432.818C33.6607 447.936 22.2189 451.918 22.801 429.218ZM103.104 445.119C104.641 441.085 107.833 437.461 112.005 436.418C112.005 439.019 112.005 439.019 112.005 441.619C114.605 441.219 114.605 441.219 117.205 440.819C115.605 445.019 115.605 445.019 114.005 449.219C121.75 447.773 128.235 442.131 124.405 453.619C128.405 452.819 128.405 452.819 132.406 452.019C134.192 479.536 94.7987 466.921 103.104 445.119ZM211.609 437.419C234.832 455.398 188.961 473.26 184.008 450.419C189.408 452.819 189.408 452.819 194.808 455.219C197.603 446.757 202.379 453.082 203.209 443.219C206.94 443.685 208.567 446.351 212.409 446.419C212.009 441.919 212.009 441.919 211.609 437.419ZM774.433 439.619C774.833 444.019 774.833 444.019 775.233 448.419C773.033 448.419 773.033 448.419 770.833 448.419C771.23 443.455 771.017 442.693 774.433 439.619ZM541.798 447.644C546.117 453.527 541.876 483.49 530.972 477.683C524.116 474.031 540.783 473.805 530.435 467.945C531.674 463.034 533.753 462.862 538.423 459.219C534.823 459.019 534.823 459.019 531.222 458.819C532.223 455.819 532.223 455.819 533.223 452.819C531.623 452.819 531.623 452.819 530.022 452.819C530.022 445.368 535.751 439.406 541.798 447.644ZM174.307 464.67C161.432 478.26 136.923 473.935 138.806 453.219C142.793 453.374 142.564 459.642 146.006 459.219C149.382 458.805 146.639 452.537 149.231 450.694C152.757 448.187 153.253 455.889 155.132 456.507C159.215 457.85 155.993 443.349 167.607 456.019C169.371 449.515 168.34 451.963 170.007 448.419C175.689 450.249 178.82 459.906 174.307 464.67ZM745.632 451.619C752.318 455.782 752.2 464.582 742.831 462.42C744.231 457.019 744.231 457.019 745.632 451.619ZM317.213 452.419C317.482 463.713 295.669 459.308 290.012 455.419C297.059 455.199 309.933 457.273 317.213 452.419ZM756.032 466.02C756.49 462.126 756.728 459.743 759.832 457.219C772.285 458.935 761.252 465.851 756.032 466.02ZM734.981 461.42C736.938 468.465 727.303 465.747 726.431 460.419C725.362 453.89 733.888 457.484 734.981 461.42ZM506.421 473.52C498.944 474.095 501.721 465.335 506.621 464.22C516.097 462.063 514.741 472.88 506.421 473.52ZM105.11 475.16C105.233 485.325 92.7164 512.05 86.4037 519.222C79.8726 526.642 65.0509 534.095 55.2023 531.222C51.0079 529.999 55.1473 523.19 56.4024 522.022C58.8451 519.75 63.0669 521.663 66.4028 521.622C60.6026 505.621 60.6026 505.621 54.8023 489.621C62.71 491.927 76.104 502.29 81.616 499.534C94.9823 492.85 82.2448 481.58 76.4032 478.02C83.1544 472.022 84.0599 470.842 92.0039 474.02C94.4404 466.223 105.009 466.721 105.11 475.16ZM100.004 562.824C101.927 563.336 104.017 562.701 105.967 563.099C117.795 565.511 129.41 568.911 141.256 571.237C142.508 571.483 144.147 571.669 145.056 570.774C150.333 565.582 152.659 552.889 155.207 547.623C157.9 542.057 166.789 549.487 171.734 537.405C180.646 515.629 182.067 491.653 191.408 470.02C203.311 487.781 216.645 506.521 219.909 528.122C221.045 535.638 223.694 543.023 223.609 550.623C223.499 560.568 218.831 567.137 222.809 576.824C187.775 576.858 152.737 577.378 117.705 576.924C109.497 576.818 101.268 576.318 93.1439 575.146C82.7588 573.649 86.2053 567.762 76.2032 561.574C65.4533 554.923 62.8311 562.09 58.0025 550.823C72.4477 552.654 85.9336 559.077 100.004 562.824ZM27.7512 479.745C26.1301 482.302 24.933 484.359 22.4009 486.021C22.7928 479.247 21.516 478.285 27.7512 479.745ZM113.205 487.621C125.176 491.621 137.199 495.47 149.119 499.621C151.706 500.522 158.677 503.301 161.419 505.421C164.695 507.954 162.023 512.127 158.407 510.822C142.788 505.185 126.889 500.162 111.805 493.221C112.56 489.192 112.062 491.05 113.205 487.621ZM275.662 497.709C277.766 500.429 274.545 502.371 272.437 503.046C264.923 505.453 230.493 507.342 223.209 506.821C226.454 499.792 236.723 500.127 243.41 499.021C259.083 497.097 273.736 495.219 275.662 497.709ZM112.005 501.621C110.128 507.896 108.473 510.446 102.004 511.622C104.486 504.005 104.045 502.285 112.005 501.621ZM123.605 508.022C133.717 509.053 137.507 514.564 125.405 518.022C123.544 515.284 123.858 511.183 123.605 508.022ZM274.812 517.822C276.344 515.743 276.905 513.787 278.612 511.822C288.525 515.234 282.932 525.04 274.812 517.822ZM109.605 514.022C112.554 513.46 111.073 513.951 114.005 512.422C123.772 516.741 112.904 527.218 109.605 514.022ZM264.411 510.822C268.136 511.298 269.613 511.245 272.412 513.422C269.748 516.7 271.05 514.975 268.524 518.609C266.349 516.574 265.548 513.522 264.411 510.822ZM261.611 521.622C252.124 521.503 247.762 519.59 255.611 512.022C261.825 515.635 261.125 516.225 261.611 521.622ZM248.411 514.022C247.285 520.774 240.159 525.374 238.61 515.822C243.749 513.64 240.972 514.143 248.411 514.022ZM140.606 514.822C142.452 518.731 143.247 523.057 144.406 527.222C138.006 525.422 138.006 525.422 131.606 523.622C134.303 520.668 137.055 516.834 140.606 514.822ZM238.61 526.822C238.222 528.374 236.716 528.473 235.41 528.622C229.407 529.31 229.639 525.233 229.61 520.422C229.53 507.386 239.904 521.645 238.61 526.822ZM22.651 539.873C23.0154 528.345 22.5049 523.857 31.2013 518.422C31.1577 528.426 31.3897 538.468 30.4013 548.423C43.3301 549.845 45.6476 565.35 54.9383 573.112C58.7348 576.284 65.7049 575.172 69.6029 575.224C67.1343 580.436 68.8374 579.613 61.5026 579.775C48.4716 580.062 35.4348 579.941 22.4009 580.025C22.4843 566.641 22.2281 553.25 22.651 539.873ZM79.4534 541.173C74.063 542.658 65.1447 537.898 73.4031 534.423C77.451 532.719 85.6257 539.472 79.4534 541.173ZM270.411 547.223C270.085 541.997 270.833 538.951 275.212 535.823C282.273 544.275 277.232 546.768 270.411 547.223ZM253.211 548.423C253.211 545.15 253.198 542.784 254.611 539.823C264.034 539.701 258.629 547.972 253.211 548.423ZM245.61 557.424C239.868 559.841 234.496 548.511 236.81 546.223C241.568 541.519 252.041 554.716 245.61 557.424ZM274.612 566.224C265.97 569.055 244.306 576.408 234.922 571.349C232.302 569.936 234.189 566.075 236.81 566.199C243.444 566.513 248.739 567.351 255.611 565.824C263.741 564.017 266.173 562.766 274.412 559.624C297.835 550.688 287.709 561.933 274.612 566.224Z" fill="#000000" fill-rule="nonzero" opacity="1" stroke="none"/>
</g>
</svg>
