<?xml version="1.0" encoding="UTF-8" standalone="no"?>
<!DOCTYPE svg PUBLIC "-//W3C//DTD SVG 1.1//EN" "http://www.w3.org/Graphics/SVG/1.1/DTD/svg11.dtd">
<!-- Created with Vectornator (http://vectornator.io/) -->
<svg height="100%" stroke-miterlimit="10" style="fill-rule:nonzero;clip-rule:evenodd;stroke-linecap:round;stroke-linejoin:round;" version="1.1" viewBox="0 0 800 600" width="100%" xml:space="preserve" xmlns="http://www.w3.org/2000/svg" xmlns:xlink="http://www.w3.org/1999/xlink">
<defs/>
<clipPath id="ArtboardFrame">
<rect height="600" width="800" x="0" y="0"/>
</clipPath>
<g clip-path="url(#ArtboardFrame)" id="Layer-1">
<path d="M2.16409 12.8365C1.28205 306.631 1.28205 306.631 0.400017 600.425C398.017 600.425 398.017 600.425 795.634 600.425C795.634 301.413 795.634 301.413 795.634 2.4001C561.84 2.86816 328.014 0.0492137 94.253 4.00117C63.4201 4.52243 32.8604 9.89142 2.16409 12.8365ZM726.831 22.801C724.993 29.4637 726.897 38.7099 721.318 42.7893C712.573 49.1834 700.192 47.5978 689.629 50.0021C692.879 53.1189 695.272 57.5071 699.38 59.3525C704.886 61.8264 711.28 61.3859 717.23 62.4026C706.83 83.0035 706.83 83.0035 696.429 103.604C713.63 89.1038 713.63 89.1038 730.831 74.6032C743.131 90.1038 743.131 90.1038 755.432 105.604C765.732 98.8042 765.732 98.8042 776.033 92.0039C776.033 119.405 776.033 119.405 776.033 146.806C773.398 145.848 767.208 145.443 767.864 140.566C769.108 131.328 771.71 122.325 773.633 113.205C747.01 114.89 720.118 118.358 693.629 115.205C696.813 123.305 699.11 131.812 703.18 139.506C705.825 144.506 716.658 143.724 719.63 144.006C712.905 148.898 703.504 148.379 695.229 149.206C701.827 154.85 709.58 154.01 716.43 159.207C703.43 160.607 703.43 160.607 690.429 162.007C695.173 166.587 701.981 168.833 708.43 170.207C699.63 178.408 699.63 178.408 690.829 186.608C669.228 174.607 647.305 163.17 626.026 150.606C621.491 147.929 614.447 146.142 613.514 140.958C612.003 132.562 615.434 123.469 619.826 116.155C622.172 112.249 629.501 113.834 632.064 110.067C635.3 105.312 635.978 98.8835 635.477 93.1539C634.99 87.5886 632.771 81.9212 629.227 77.6033C623.491 70.6163 616.231 64.7635 608.426 60.2025C600.019 55.2897 590.52 52.4524 581.225 49.5521C576.31 48.0187 570.443 49.5629 565.999 46.9645C561.601 44.393 560.115 38.5624 556.424 35.0515C545.297 24.4704 523.082 29.7465 511.722 36.4515C502.385 41.962 507.173 55.0056 503.221 63.2027C499.13 71.6894 492.145 78.4808 485.921 85.5536C485.07 86.5202 483.539 87.3701 482.32 86.9537C445.91 74.5086 424.718 41.7787 393.217 23.201C560.024 23.001 560.024 23.001 726.831 22.801ZM776.033 22.801C776.033 36.2015 776.033 36.2015 776.033 49.6021C772.504 47.6823 771.874 43.9619 768.72 42.3393C761.726 38.7413 751.952 43.5427 744.779 44.1904C742.107 37.4444 745.428 28.7973 740.031 23.401C758.032 23.101 758.032 23.101 776.033 22.801ZM20.8009 23.201C188.608 23.201 188.608 23.201 356.415 23.201C342.615 36.6015 342.615 36.6015 328.814 50.0021C331.072 50.6635 344.313 51.7962 343.365 59.0045C341.869 70.3664 336.475 80.965 334.814 92.3039C332.991 104.753 333.155 117.425 332.964 130.006C332.948 131.069 333.395 132.25 334.196 132.95C335.008 133.659 336.244 133.681 337.314 133.806C351.264 135.434 365.249 136.739 379.216 138.206C370.544 150.886 362.339 163.898 353.199 176.245C349.333 181.468 343.343 181.953 337.214 181.808C327.45 181.576 317.696 180.679 308.013 179.408C288.745 176.877 269.611 173.407 250.411 170.407C260.254 161.056 276.991 162.105 287.437 153.431C293.138 148.698 294.123 139.957 295.312 132.643C295.897 129.05 292.497 125.72 292.537 122.08C292.579 118.297 300.994 114.982 302.413 114.205C299.394 106.758 291.16 102.481 287.262 95.454C283.457 88.5935 283.64 80.0803 280.362 72.9531C277.164 66.0012 272.128 60.0525 268.011 53.6023C276.756 55.5454 281.107 65.8971 286.812 72.8031C292.262 68.6779 292.262 68.6779 297.713 64.5527C286.539 54.7359 274.835 42.7123 260.524 37.1641C239.837 29.1442 216.271 40.7973 194.089 41.2637C184.509 41.4652 178.086 30.633 170.807 24.401C172.007 31.8013 173.68 39.1404 174.407 46.602C175.229 55.0338 161.408 57.5278 155.594 63.6902C149.874 69.7541 146.719 77.933 141.006 84.0036C136.345 88.9558 130.206 92.2706 124.805 96.4041C131.806 96.2041 131.806 96.2041 138.806 96.0041C136.54 113.408 139.247 135.105 126.535 147.206C123.95 149.666 120.155 150.846 116.605 151.206C105.527 152.331 94.2876 152.666 83.2035 151.606C66.4474 150.005 50.1573 144.86 33.4014 143.256C26.218 142.568 22.5399 154.461 20.8009 157.607C20.8009 90.4038 20.8009 90.4038 20.8009 23.201ZM386.816 23.601C382.82 26.0985 378.319 27.6803 374.016 29.6013C372.758 25.5617 373.562 27.493 371.616 23.801C376.648 22.7477 381.723 23.3257 386.816 23.601ZM363.215 48.8021C371.267 40.4664 384.211 28.9546 394.817 39.0017C382.627 50.1759 365.155 57.3569 357.453 73.0281C350.159 87.8688 352.929 108.649 342.414 120.005C343.158 93.6752 343.827 68.8748 363.215 48.8021ZM610.826 79.4034C616.631 86.0314 618.449 108.985 605.626 109.805C605.093 109.839 604.498 109.764 604.063 109.455C594.995 103.005 586.493 95.7615 577.224 89.6038C573.058 86.8359 568.392 84.8986 563.874 82.7535C556.838 79.4134 549.582 76.549 542.573 73.1531C532.656 68.3482 499.008 49.4058 529.622 40.4017C535.496 38.6743 555.162 41.1384 550.173 52.0022C547.163 58.558 542.185 51.1211 537.923 53.2523C532.662 55.8825 537.892 62.8284 541.223 64.0027C545.732 65.5924 550.217 67.3186 554.873 68.4029C559.982 69.5925 565.241 70.003 570.424 70.803C569.224 66.2028 569.224 66.2028 568.024 61.6026C583.391 63.0744 600.25 67.3274 610.826 79.4034ZM198.008 60.4026C193.376 58.8827 193.835 58.3732 193.208 53.4023C192.433 53.571 192.433 53.571 191.658 53.7398C191.054 58.9269 191.208 56.3061 191.208 61.6026C173.557 45.7163 196.829 35.6412 198.008 60.4026ZM213.809 52.2022C216.363 51.7096 220.998 49.8742 221.609 52.4022C223.306 59.4139 211.039 69.0029 205.609 69.0029C207.318 66.2254 209.803 64.0051 212.009 61.6026C207.409 62.6026 207.409 62.6026 202.809 63.6027C205.506 58.5937 207.667 53.3868 213.809 52.2022ZM271.611 93.604C261.641 92.9808 253.69 85.9773 243.86 85.1036C233.456 84.1788 224.912 89.5641 215.209 92.4039C215.351 85.6743 214.82 77.7759 217.409 71.403C220.93 72.8701 221.022 73.1705 222.009 77.0033C227.81 76.9033 227.81 76.9033 233.61 76.8033C233.41 74.0031 233.41 74.0031 233.21 71.203C240.149 74.817 236.214 73.5285 245.21 74.4031C242.21 67.8029 242.21 67.8029 239.21 61.2026C239.319 61.145 259.218 71.598 254.961 62.9277C253.792 60.5474 251.927 58.5775 250.411 56.4024C266.757 60.2111 270.023 79.461 271.611 93.604ZM776.033 57.2024C776.033 72.2031 776.033 72.2031 776.033 87.2037C760.684 80.0411 751.025 72.2055 739.481 59.6525C751.645 58.5738 763.837 57.8062 776.033 57.2024ZM178.408 67.4029C181.14 66.3676 183.172 68.5284 185.283 69.5154C192.908 73.0813 196.357 66.8169 196.808 78.4033C187.427 75.8894 181.289 76.4389 185.608 86.8037C169.758 91.4426 170.256 70.4912 178.408 67.4029ZM501.021 83.8535C509.354 68.1001 518.47 76.5472 531.698 81.8285C531.522 82.4202 531.597 83.1562 531.172 83.6035C526.648 88.3661 518.491 85.1108 512.747 86.8287C505.458 89.0085 503.421 95.7041 495.621 96.8041C496.218 92.0245 498.743 88.1599 501.021 83.8535ZM160.007 90.4038C165.855 90.4038 171.311 89.0036 173.607 95.204C164.12 94.6842 154.108 94.7465 144.735 92.8994C144.905 80.2584 176.242 80.2566 160.007 90.4038ZM195.808 91.8039C190.018 95.3473 188.752 88.5656 194.008 85.6036C203.52 80.2441 199.951 89.2686 195.808 91.8039ZM456.544 172.47C431.216 175.067 450.242 154.83 444.019 148.606C435.49 140.078 415.069 154.412 412.367 151.506C410.019 148.981 406.8 136.058 406.817 135.406C406.878 133.112 411.456 132.009 410.817 129.805C406.123 113.618 401.048 100.564 398.417 84.4036C405.35 88.1371 411.5 94.0401 419.218 95.604C422.066 96.1812 422.966 89.8119 425.868 89.9663C430.477 90.2114 434.136 94.1096 438.019 96.6041C449.554 104.014 460.537 112.536 473.02 118.205C471.628 122.634 467.015 125.577 465.62 130.006C463.254 137.512 485.327 137.689 472.02 146.006C477.12 157.507 477.12 157.507 482.22 169.007C473.662 170.161 465.135 171.589 456.544 172.47ZM539.86 94.8665C531.909 101.839 520.118 102.56 510.022 103.604C512.04 95.1624 534.201 90.9779 539.86 94.8665ZM252.411 99.2042C237.61 99.2042 237.61 99.2042 222.809 99.2042C224.977 95.1405 251.153 89.1426 252.411 99.2042ZM171.607 100.404C174.253 98.1991 176.365 96.793 179.608 95.604C194.37 93.8077 179.056 100.977 171.607 100.404ZM223.334 121.53C225.197 113.911 238.762 118.597 246.56 117.755C251.918 117.176 257.302 116.597 262.549 115.367C267.062 114.309 276.485 90.052 281.612 110.805C278.453 110.955 275.252 110.717 272.137 111.255C260.249 113.308 290.694 118.313 278.824 126.993C276.934 128.375 273.505 127.96 271.611 128.005C271.611 131.406 271.611 131.406 271.611 134.806C276.612 134.806 276.612 134.806 281.612 134.806C279.541 168.634 233.076 149.421 218.772 164.494C224.391 166.851 224.391 166.851 230.01 169.207C217.681 182.029 199.218 163.214 191.608 155.207C205.315 156.359 203.768 153.592 208.009 140.006C221.609 147.406 221.609 147.406 235.21 154.807C232.333 144.739 220.575 132.817 223.334 121.53ZM541.96 103.992C544.237 117.977 514.451 113.241 526.322 108.655C528.402 107.851 530.522 107.155 532.623 106.405C540.467 104.173 540.467 104.173 541.96 103.992ZM221.209 106.004C228.61 106.004 228.61 106.004 236.01 106.004C236.01 110.205 236.01 110.205 236.01 114.405C227.15 114.264 221.209 115.687 221.209 106.004ZM583.225 111.405C598.966 120.302 589.13 148.299 574.824 154.607C571.042 156.274 566.557 154.89 562.424 154.807C565.79 136.518 562.887 152.907 571.824 143.406C577.182 137.71 578.879 130.276 580.025 122.805C558.462 127.4 574.27 106.343 583.225 111.405ZM488.171 120.205C495.378 106.321 498.913 127.898 505.821 127.005C521.15 125.025 535.924 114.655 550.423 113.205C546.488 130.7 542.423 133.532 560.111 130.068C553.814 156.343 538.013 165.011 512.422 165.207C510.895 165.219 499.157 166.087 494.821 163.757C492.255 162.378 487.973 158.51 489.933 154.894C491.294 152.383 505.482 149.584 496.921 143.306C494.538 141.558 490.004 142.623 487.621 142.806C488.851 135.632 490.679 136.014 498.021 135.606C496.272 126.069 494.845 126.405 485.621 126.405C486.471 124.339 487.141 122.189 488.171 120.205ZM192.008 132.806C193.504 137.199 205.095 140.912 201.046 144.831C192.372 153.225 167.152 129.357 184.608 119.405C193.899 114.108 189.785 126.275 192.008 132.806ZM754.832 126.805C745.236 126.755 735.638 126.819 726.043 126.655C721.312 126.575 714.966 127.35 713.63 122.005C716.348 121.905 754.105 117.349 754.832 126.805ZM753.632 135.606C733.631 136.406 733.631 136.406 713.63 137.206C718.031 128.405 750.604 128.973 753.632 135.606ZM396.804 152.319C392.517 159.166 383.173 151.137 388.816 144.606C393.415 139.284 400.657 146.166 396.804 152.319ZM754.032 149.206C751.4 149.74 750.622 146.095 748.032 145.706C739.592 144.44 737.254 148.029 730.831 141.606C741.505 141.704 752.181 142.094 762.832 142.806C759.998 145.069 757.587 148.486 754.032 149.206ZM775.633 150.806C776.355 163.083 766.96 158.393 757.232 157.207C766.432 154.007 766.432 154.007 775.633 150.806ZM746.432 155.207C739.368 159.091 737.743 159.444 729.631 159.607C733.699 153.504 739.585 155.005 746.432 155.207ZM432.668 169.107C433.36 180.452 435.467 197.794 423.418 205.209C419.23 207.786 408.455 195.515 407.517 192.858C403.897 182.6 415.77 178.122 422.818 176.407C420.665 168.873 415.343 162.611 423.418 156.607C433.176 154.258 432.343 163.772 432.668 169.107ZM20.8009 160.407C32.7246 165.341 31.1047 176.14 31.6063 188.743C32.5275 211.886 32.2205 243.479 31.8013 265.761C31.5302 280.176 30.8314 305.74 20.4009 317.213C20.6009 238.81 20.6009 238.81 20.8009 160.407ZM586.425 160.807C582.825 181.608 582.825 181.608 579.225 202.409C582.025 201.809 582.025 201.809 584.825 201.209C584.708 206.925 584.862 212.654 584.475 218.359C583.903 226.766 568.671 228.744 562.624 226.21C552.354 221.906 556.708 210.329 551.673 202.759C548.296 197.681 541.856 195.744 538.023 191.008C541.07 189.716 544.632 190.606 547.923 190.258C578.36 187.043 528.357 182.276 524.422 174.407C547.5 173.358 563.926 161.829 586.425 160.807ZM383.166 167.507C379.68 165.903 377.435 166.099 374.691 163.157C375.853 162.482 375.853 162.482 377.016 161.807C399.333 160.77 410.166 179.932 383.166 167.507ZM50.8022 164.807C80.8034 167.007 80.8034 167.007 110.805 169.207C104.292 180.176 89.4064 181.013 81.2034 190.408C68.8497 204.557 65.8367 224.839 52.4022 238.41C51.6022 201.609 51.6022 201.609 50.8022 164.807ZM776.033 165.607C776.033 193.608 776.033 193.608 776.033 221.609C767.018 212.963 759.319 206.855 747.132 202.959C741.581 201.184 729.751 201.296 725.231 198.008C763.81 199.273 759.941 209.528 773.633 170.407C748.432 170.607 748.432 170.607 723.231 170.807C740.355 164.016 757.496 165.861 776.033 165.607ZM614.226 182.208C614.202 184.975 611.854 189.95 611.226 191.608C599.344 185.002 595.78 185.431 600.425 173.007C607.656 159.654 614.279 176.066 614.226 182.208ZM166.007 186.858C166.57 189.351 175.891 207.572 166.532 208.496C163.594 208.786 157.037 209.88 154.207 207.209C146.638 200.065 140.266 170.867 154.207 169.007C166.721 167.337 163.291 174.837 166.007 186.858ZM393.617 184.808C384.252 183.283 375.63 181.726 368.678 174.67C379.899 170.502 389.229 172.741 393.617 184.808ZM208.359 193.808C201.505 196.192 179.256 181.057 188.208 176.207C198.01 170.897 216.166 191.093 208.359 193.808ZM752.832 176.807C751.468 184.992 722.313 184.38 718.83 178.808C730.037 177.333 741.579 177.286 752.832 176.807ZM239.21 186.608C239.639 183.031 238.93 179.335 242.41 178.808C267.376 175.024 237.154 203.77 239.21 186.608ZM528.322 200.909C511.892 204.368 509.935 200.187 496.171 190.958C490.923 187.439 485.569 186.262 490.021 180.208C503.261 177.783 526.588 188.768 528.322 200.909ZM230.322 196.233C223.803 201.41 209.975 194.863 217.209 187.008C223.074 180.64 240.741 187.96 230.322 196.233ZM750.032 186.408C748.833 192.194 728.783 189.295 718.43 189.208C722.505 182.766 743.384 186.408 750.032 186.408ZM387.216 194.408C382.688 193.276 371.677 193.685 370.416 188.008C378.071 187.279 386.779 184.498 387.216 194.408ZM706.03 195.208C702.495 193.383 698.291 192.181 695.779 189.096C701.676 186.246 704.806 188.782 706.03 195.208ZM308.013 189.208C308.013 200.008 308.013 200.008 308.013 210.809C299.926 209.252 299.346 189.208 308.013 189.208ZM431.006 236.835C430.004 229.938 432.085 216.321 433.968 209.709C437.014 199.017 462.389 191.126 471.82 191.808C487.048 192.909 494.762 212.401 508.222 219.609C511.027 221.112 513.685 216.327 516.547 214.934C530.988 207.905 534.637 215.76 540.423 228.01C528.253 228.269 521.389 225.147 520.422 237.61C526.122 237.327 531.816 236.712 537.523 236.76C542.752 236.804 543.607 242.423 541.423 246.41C538.995 250.843 531.358 247.524 526.422 248.611C521.349 249.728 527.985 256.775 531.447 256.698C535.778 256.603 540.098 256.24 544.423 256.011C545.035 267.859 541.043 266.105 529.222 267.611C529.854 272.538 527.842 275.854 532.573 276.062C537.851 276.294 543.14 276.162 548.423 276.212C549.223 282.312 549.223 282.312 550.023 288.412C532.621 287.404 473.865 286.251 473.483 257.423C473.361 248.253 479.501 233.656 481.42 227.61C457.756 215.022 457.531 238.56 437.219 247.61C440.619 243.01 440.619 243.01 444.019 238.41C439.65 238.326 431.634 241.159 431.006 236.835ZM686.079 218.109C682.558 223.87 680.225 222.886 675.579 218.659C666.609 210.5 657.74 202.23 648.827 194.008C658.631 194.786 679.186 210.105 686.079 218.109ZM255.611 196.008C265.476 194.842 282.348 194.205 291.212 202.209C295.315 205.913 297.537 211.459 299.513 216.409C304.321 228.457 312.923 249.899 317.563 264.711C320.403 273.775 302.18 274.62 297.613 269.611C279.401 249.637 265.69 224.116 256.211 199.008C255.851 198.054 254.598 196.128 255.611 196.008ZM370.416 198.008C378.516 200.529 408.384 202.074 409.617 214.409C393.156 214.801 373.258 217.904 370.416 198.008ZM634.027 218.409C621.818 218.344 604.492 221.45 611.626 204.409C634.356 201.888 633.795 199.682 634.027 218.409ZM36.0015 203.209C42.0887 203.209 41.4743 225.001 41.6768 227.51C43.3465 248.203 44.8269 268.911 46.402 289.612C33.1308 276.657 36.2148 220.485 36.0015 203.209ZM138.406 203.209C140.006 203.209 140.006 203.209 141.606 203.209C141.835 211.323 145.005 224.098 138.006 230.81C137.083 221.276 138.406 212.67 138.406 203.209ZM333.327 264.536C316.753 242.313 306.203 204.214 344.415 203.209C343.898 214.659 343.189 226.103 342.865 237.56C342.533 249.281 348.381 259.235 351.215 270.411C347.849 269.69 336.928 269.366 333.327 264.536ZM157.207 345.565C159.4 332.802 168.927 316.281 172.207 305.813C176.676 291.552 179.929 276.925 183.058 262.311C184.602 255.099 185.559 247.757 186.208 240.41C187.119 230.105 181.321 215.226 190.008 209.609C192.971 207.693 196.41 206.556 199.808 205.609C207.738 203.397 227.498 201.848 228.41 214.609C229.388 228.31 230.262 247.294 226.16 261.561C220.054 282.79 213.016 294.766 203.209 314.813C211.209 312.013 211.209 312.013 219.209 309.213C223.875 329.149 236.017 346.275 238.01 366.816C220.413 367.997 150.166 386.528 157.207 345.565ZM722.031 216.609C720.825 219.212 717.037 222.987 717.23 226.76C717.414 230.335 720.944 234.755 721.431 237.21C723.038 245.322 713.502 251.73 709.23 258.811C715.672 254.877 721.726 250.224 728.556 247.01C732.472 245.168 743.597 253.536 741.681 258.311C736.696 270.74 720.336 274.757 708.217 275.812C680.053 278.262 690.936 260.876 695.029 243.01C699.341 224.193 698.188 218.486 714.63 208.409C721.3 211.6 724.026 212.299 722.031 216.609ZM739.231 228.41C730.084 234.924 727.137 214.982 732.631 211.009C742.313 204.007 746.882 222.962 739.231 228.41ZM756.42 214.997C767.792 246.587 731.188 229.631 752.232 216.409C755.551 215.103 755.551 215.103 756.42 214.997ZM367.216 217.609C376.439 222.37 382.943 224.814 393.217 225.61C384.846 230.761 369.631 228.481 367.216 217.609ZM84.7536 220.609C91.9789 240.51 91.9789 240.51 99.2042 260.411C82.0793 260.411 66.275 229.305 84.7536 220.609ZM769.833 235.41C765.864 243.724 756.53 232.466 764.232 224.61C769.235 219.507 771.876 231.128 769.833 235.41ZM621.376 241.998C615.566 244.177 605.009 235.608 611.226 231.41C620.726 224.993 629.878 238.809 621.376 241.998ZM270.011 245.61C255.011 242.21 255.011 242.21 240.01 238.81C247.97 225.545 265.006 236.315 270.011 245.61ZM408.017 244.81C405.075 257.889 382.176 256.691 373.003 253.173C365.608 250.337 358.489 243.081 354.415 236.61C375.636 243.762 386.675 247.975 408.017 244.81ZM176.807 236.81C176.807 242.367 177.62 246.008 171.607 247.21C172.725 243.626 172.61 237.859 176.807 236.81ZM562.661 266.024C553.006 234.319 568.698 247.335 590.025 239.21C590.908 254.227 583.264 277.595 568.424 284.012C566.503 278.016 564.496 272.047 562.661 266.024ZM143.856 268.611C140.983 290.992 135.878 312.975 129.605 334.614C125.438 329.984 110.94 280.266 114.805 275.412C123.93 263.951 133.584 259.713 140.606 248.01C145.793 254.433 144.644 262.475 143.856 268.611ZM151.606 250.011C153.607 253.811 153.607 253.811 155.607 257.611C151.18 257.27 151.606 253.831 151.606 250.011ZM611.138 261.636C607.57 261.825 603.996 261.886 600.425 262.011C601.825 259.011 601.825 259.011 603.226 256.011C613.042 244.4 624.96 260.906 611.138 261.636ZM265.349 251.086C265.02 254.326 259.82 256.316 257.386 257.686C249.756 261.979 242.069 266.17 234.41 270.411C234.997 254.371 251.392 247.789 265.349 251.086ZM62.4026 252.011C70.5742 252.828 85.8414 262.083 88.0037 270.011C74.9559 272.458 63.2265 265.192 62.4026 252.011ZM700.83 297.613C682.064 306.179 660.337 298.322 660.028 276.412C659.944 270.488 660.003 263.628 665.428 260.011C676.601 269.587 668.042 291.162 687.479 291.162C695 291.162 702.513 290.662 710.03 290.412C708.431 294.409 704.626 295.879 700.83 297.613ZM276.412 262.411C273.971 271.187 258.731 283.644 251.611 288.812C252.939 272.204 258.975 262.411 276.412 262.411ZM718.28 293.912C728.823 284.679 738.186 274.174 748.432 264.611C749.46 263.652 750.691 261.987 752.032 262.411C759.026 264.623 766.429 267.051 771.833 272.012C774.389 274.358 773.506 278.795 773.658 282.262C774.783 307.98 775.487 333.723 775.658 359.465C776.145 432.717 775.641 505.971 775.633 579.225C694.229 579.625 694.229 579.625 612.826 580.025C630.977 576.708 649.276 574.12 667.278 570.074C687.732 565.477 712.146 555.193 723.956 536.635C728.583 529.364 740.927 510.731 732.831 500.821C716.045 480.276 679.517 520.549 659.028 485.621C637.591 449.077 627.281 407.823 610.426 369.216C618.426 367.416 618.426 367.416 626.427 365.615C628.353 349.237 614.365 340.393 606.726 324.814C602.287 315.762 612.761 292.29 624.201 295.363C629.149 296.691 631.035 303.602 635.827 305.413C646.845 309.577 658.957 309.937 670.378 312.813C677.649 314.644 677.688 316.682 682.429 322.414C694.379 312.913 706.795 303.971 718.28 293.912ZM170.807 264.411C170.108 271.869 170.335 287.14 161.207 289.612C162.03 285.085 166.897 264.411 170.807 264.411ZM625.426 283.212C624.405 277.675 623.392 267.059 631.577 267.861C632.824 281.581 641.311 287.948 644.427 300.413C635.086 299.375 627.147 292.544 625.426 283.212ZM606.826 272.012C603.907 283.685 593.389 285.837 583.225 286.012C590.898 274.359 592.99 269.417 606.826 272.012ZM155.607 302.013C144.932 298.455 144.877 278.706 150.006 271.011C158.677 276.935 154.321 291.591 155.607 302.013ZM441.219 279.612C441.219 291.424 429.634 304.445 425.768 312.213C422.623 318.531 420.092 325.138 417.068 331.514C413.235 339.592 413.715 337.402 421.218 344.815C393.017 345.215 393.017 345.215 364.815 345.615C369.13 331.043 378.396 322.446 376.516 306.463C375.156 294.907 364.851 286.737 365.615 274.812C389.724 288.421 414.418 280.013 441.219 279.612ZM356.065 285.262C371.848 297.586 355.524 297.726 346.765 294.662C343.634 293.568 341.632 290.704 338.539 289.425C334.203 295.696 328.233 303.415 320.214 305.213C301.882 309.322 294.535 296.359 311.613 286.412C317.293 283.104 317.056 283.436 323.214 280.812C338.603 277.973 348.707 279.517 356.065 285.262ZM60.8026 278.812C72.0568 279.003 83.5193 277.918 94.5415 280.199C84.3341 290.765 70.6063 287.861 60.8026 278.812ZM269.811 295.813C270.837 290.683 277.708 279.472 284.012 283.412C282.855 288.158 279.979 292.639 280.012 297.613C280.074 306.95 284.412 315.71 284.412 325.214C274.258 320.137 267.549 307.122 269.811 295.813ZM498.421 306.013C489.289 306.013 480.958 302.559 473.02 298.213C471.302 297.272 455.156 290.581 461.42 285.212C476.263 282.976 492.326 295.652 498.421 306.013ZM451.619 298.013C461.225 299.863 503.355 311.582 505.021 322.414C484.109 326.895 458.468 319.929 451.619 298.013ZM596.225 298.813C594.344 313.391 561.988 316.493 560.224 300.613C572.033 298.698 584.273 297.879 596.225 298.813ZM561.824 318.413C564.31 325.481 564.23 340.484 554.623 330.164C545.517 320.381 523.164 312.1 528.422 299.813C533.624 287.658 557.94 307.375 561.824 318.413ZM347.915 301.75C349.345 301.644 350.781 301.605 352.215 301.613C354.733 301.626 357.25 301.695 359.765 301.813C374.061 302.48 339.129 320.599 342.214 303.813C342.869 300.254 344.229 302.024 347.915 301.75ZM518.822 305.163C528.736 309.548 536.382 316.719 539.973 327.014C542.092 333.089 532.656 334.427 528.872 332.014C519.98 326.344 511.132 314.428 508.822 304.213C507.52 298.46 515.989 303.91 518.822 305.163ZM142.806 303.613C142.493 311.123 143.332 317.845 144.806 325.214C136.292 324.212 136.905 305.137 142.806 303.613ZM163.207 303.613C162.685 311.186 163.387 320.541 154.807 323.214C155.368 318.16 158.566 305.031 163.207 303.613ZM103.804 314.613C101.442 328.62 100.83 343.054 96.6041 356.615C95.8117 359.158 90.4739 356.743 90.2038 355.015C89.6377 351.392 90.0038 347.682 90.0038 344.015C90.0038 333.098 88.8019 315.173 97.6041 307.413C102.861 302.778 104.729 309.129 103.804 314.613ZM74.2031 318.013C74.6585 325.898 60.1152 322.767 59.6025 311.813C59.191 303.021 73.9534 313.688 74.2031 318.013ZM37.8516 311.513C45.1685 309.345 69.7571 330.91 67.4029 336.614C64.1461 344.506 48.8982 325.611 45.8269 329.176C38.9652 337.142 56.9419 338.461 56.4024 346.015C56.092 350.361 51.0827 348.612 49.1021 346.915C43.4416 342.063 47.5121 344.282 40.0017 341.614C43.2018 347.415 43.2018 347.415 46.402 353.215C26.1682 351.602 20.0676 316.783 37.8516 311.513ZM329.214 328.814C316.22 328.814 305.192 327.612 306.013 312.013C317.349 312.013 329.214 316.692 329.214 328.814ZM348.915 314.213C351.501 314.266 354.078 314.613 356.665 314.613C357.707 314.613 358.723 314.193 359.765 314.213C363.669 314.288 363.902 319.851 360.615 321.214C356.274 323.014 336.031 321.558 346.815 314.413C347.401 314.025 348.212 314.199 348.915 314.213ZM572.424 315.213C578.859 313.342 591.849 312.766 592.075 319.464C592.426 329.878 573.166 332.3 572.424 319.814C572.333 318.283 570.952 315.641 572.424 315.213ZM463.22 331.414C459.063 334.691 454.102 342.145 448.606 342.202C440.935 342.281 433.639 330.532 436.818 324.014C444.905 313.851 457.855 326.049 463.22 331.414ZM237.61 323.214C238.608 318.717 246.728 324.665 251.161 325.914C267.714 330.578 274.72 334.378 289.412 337.614C301.628 340.305 318.344 336.898 325.751 346.977C326.818 348.429 327.015 355.513 324.414 355.815C302.444 358.365 280.521 362.057 258.411 362.615C257.279 362.644 249.486 346.907 247.41 342.815C244.106 336.3 236.028 330.345 237.61 323.214ZM346.415 327.614C352.615 327.814 352.615 327.814 358.815 328.014C356.419 332.807 351.092 331.614 346.415 331.614C346.415 329.614 346.415 329.614 346.415 327.614ZM487.221 348.615C481.155 353.908 473.59 359.979 465.82 362.615C465.002 362.893 464.133 363.045 463.27 363.065C443.481 363.524 452.612 356.953 460.669 349.915C467.007 344.379 472.221 337.369 479.42 333.014C494.31 324.007 500.138 337.341 487.221 348.615ZM515.572 338.802C512.526 356.513 501.088 368.569 485.671 375.966C481.03 378.192 472.437 383.414 467.52 380.666C460.477 376.731 466.242 369.636 470.07 367.366C484.767 358.646 500.114 352.46 506.421 335.614C508.681 329.58 516.173 335.306 515.572 338.802ZM607.926 356.715C600.034 356.987 585.492 345.747 597.825 341.014C606.075 340.172 609.352 352.234 607.926 356.715ZM526.022 347.615C548.623 347.615 548.623 347.615 571.224 347.615C571.124 356.586 572.976 361.794 563.174 362.115C550.058 362.545 539.363 362.415 526.022 362.415C526.022 355.015 526.022 355.015 526.022 347.615ZM358.415 352.415C361.86 358.208 376.386 390.017 360.415 390.017C360.415 380.08 348.012 360.217 358.415 352.415ZM340.864 366.165C341.082 361.106 341.482 357.364 344.815 353.615C347.328 364.925 357.133 387.326 340.014 392.817C340.298 383.933 340.483 375.046 340.864 366.165ZM129.605 355.615C129.179 358.709 123.094 397.62 119.405 402.817C113.78 391.311 117.893 363.289 129.605 355.615ZM98.0041 386.416C88.4409 382.591 77.7926 368.424 75.6032 358.415C84.8585 354.381 95.6519 380.536 98.0041 386.416ZM446.019 396.817C436.088 394.748 441.504 384.025 433.818 381.416C408.729 372.9 398.791 394.976 387.416 358.415C416.258 353.92 444.19 365.299 446.019 396.817ZM30.4013 360.015C30.4013 367.919 29.1685 387.363 20.4009 390.817C20.4945 381.267 19.723 365.354 30.4013 360.015ZM55.2023 362.815C65.286 365.918 63.922 387.809 64.4027 394.817C53.0208 394.817 55.406 370.757 55.2023 362.815ZM385.416 377.966C386.117 380.185 386.521 394.257 380.866 391.617C376.045 389.365 376.283 381.998 374.416 377.016C364.987 351.85 383.073 370.542 385.416 377.966ZM148.93 366.075C155.466 372.689 145.298 389.863 138.406 392.817C141.506 384.034 144.068 374.179 148.93 366.075ZM280.312 373.616C291.029 371.598 301.792 369.771 312.613 368.416C316.267 367.958 322.728 367.947 326.651 369.578C333.541 372.443 325.453 391.131 319.214 392.767C312.724 394.468 310.108 393.785 304.213 396.017C295.53 399.303 287.257 411.976 282.012 412.417C282.012 406.417 282.012 406.417 282.012 400.417C278.719 404.177 275.417 407.977 271.611 411.217C272.412 402.417 272.412 402.417 273.212 393.617C267.411 398.817 267.411 398.817 261.611 404.017C261.611 398.856 264.184 395.037 264.811 390.017C259.011 393.417 259.011 393.417 253.211 396.817C255.467 381.144 265.156 376.469 280.312 373.616ZM68.0029 380.016C85.3647 380.33 85.2428 380.887 92.4039 396.817C79.4034 398.417 79.4034 398.417 66.4028 400.017C72.4153 394.004 69.6528 387.853 68.0029 380.016ZM60.0025 399.617C52.2538 415.889 13.8831 397.494 34.0014 383.216C59.3704 380.849 43.121 398.411 60.0025 399.617ZM191.608 402.017C188.035 398.954 185.633 397.01 184.408 392.417C189.783 393.244 190.349 397.234 191.608 402.017ZM202.359 393.817C203.999 398.621 203.155 404.302 198.008 406.017C197.874 401.927 197.259 395.399 202.359 393.817ZM459.819 396.217C469.008 401.704 497.703 416.958 503.221 426.418C493.487 424.151 455.304 409.765 459.819 396.217ZM429.218 399.617C449.874 403.748 433.105 430.33 424.818 437.619C426.334 424.547 429.218 412.966 429.218 399.617ZM217.209 400.817C214.208 404.364 211.395 407.867 206.409 407.617C209.234 403.732 212.184 400.817 217.209 400.817ZM184.008 406.417C179.43 406.195 174.279 407.906 172.007 403.817C178.096 402.993 180.34 401.832 184.008 406.417ZM393.217 405.617C397.605 405.617 402.844 404.925 407.017 406.617C406.031 410.563 400.096 409.277 396.817 409.617C400.943 410.855 405.288 411.947 408.817 414.418C404.924 415.53 400.863 416.257 397.217 418.018C401.979 419.434 406.938 420.08 411.817 421.018C407.768 423.101 403.187 423.936 398.817 425.218C403.36 425.943 408.629 425.501 412.267 428.318C407.221 429.689 402.536 429.491 399.417 433.418C403.586 436.348 407.867 434.914 413.217 434.818C394.815 456.287 393.217 414.338 393.217 405.617ZM70.203 408.817C79.3707 407.937 88.5071 406.642 97.7041 406.155C100.139 406.026 100.962 410.186 101.404 411.217C83.9372 419.304 61.9787 419.627 43.1018 420.268C27.3373 420.803 20.7626 425.193 20.4009 410.417C37.4513 412.628 52.9228 410.477 70.203 408.817ZM374.416 409.217C371.616 411.177 368.075 411.791 364.815 412.817C368.416 414.518 368.416 414.518 372.016 416.218C366.762 418.094 369.145 417.053 364.815 419.218C370.016 421.418 370.016 421.418 375.216 423.618C371.016 424.618 371.016 424.618 366.816 425.618C370.206 427.878 367.647 426.364 375.216 428.618C371.116 430.518 371.116 430.518 367.016 432.418C370.901 433.949 375 434.874 379.016 436.018C375.629 437.303 371.967 437.701 368.416 438.419C374.504 442.006 372.996 439.807 374.816 443.219C361 442.991 363.649 434.955 362.715 422.818C362.296 417.368 359.485 411.724 360.015 406.417C364.9 406.655 369.639 408.173 374.416 409.217ZM343.815 412.217C340.428 414.024 336.516 414.604 332.814 415.618C336.614 417.418 336.614 417.418 340.414 419.218C336.914 420.618 336.914 420.618 333.414 422.018C336.678 423.767 340.194 424.999 343.615 426.418C339.214 427.618 339.214 427.618 334.814 428.818C341.21 430.93 338.342 430.004 343.415 431.618C340.842 433.573 337.472 434.173 334.414 435.218C338.637 436.141 345.601 435.143 346.715 439.319C342.164 440.469 342.164 440.469 337.614 441.619C343.059 445.303 341.396 443.355 343.615 446.419C326.566 446.172 329.797 423.938 328.614 410.217C333.607 410.764 338.892 410.987 343.815 412.217ZM578.875 424.468C582.662 420.192 584.141 412.467 588.825 410.417C583.52 431.169 570.81 445.792 549.623 450.019C558.368 440.315 570.223 434.236 578.875 424.468ZM306.013 448.819C298.018 449.209 293.764 416.512 293.612 411.217C299.813 412.617 299.813 412.617 306.013 414.018C302.61 414.834 298.64 414.905 296.013 417.218C299.78 419.766 305.26 419.778 309.613 420.418C306.68 422.551 302.773 422.923 299.213 423.618C303.613 425.018 303.613 425.018 308.013 426.418C305.206 427.661 301.153 428.639 300.413 431.618C305.813 432.218 305.813 432.218 311.213 432.818C308.705 435.248 305.592 434.528 302.813 436.418C307.613 437.219 307.613 437.219 312.413 438.019C308.102 441.521 311.018 439.738 302.813 441.619C307.837 442.865 313.618 442.927 317.663 446.156C314.458 447.049 309.257 448.661 306.013 448.819ZM223.809 415.018C218.394 417.502 209.724 419.606 206.234 413.355C211.704 411.836 219.221 411.003 223.809 415.018ZM185.208 416.018C181.537 416.996 159.978 416.784 171.607 413.417C178.468 412.815 183.542 411.575 185.208 416.018ZM106.405 426.418C103.021 424.336 98.9358 422.387 96.2041 419.418C104.262 415.389 106.405 418.366 106.405 426.418ZM212.809 430.018C206.955 427.487 203.212 425.635 202.009 419.018C208.587 420.398 210.533 423.948 212.809 430.018ZM185.608 419.618C186.167 424.792 182.964 426.316 178.408 427.618C178.96 423.04 181.663 421.59 185.608 419.618ZM191.608 420.418C196.99 422.256 196.378 427.867 196.808 432.818C190.144 431.337 191.608 426.24 191.608 420.418ZM86.8037 423.618C82.6393 436.111 73.9671 427.479 77.2033 424.418C84.1347 423.54 81.668 423.618 86.8037 423.618ZM185.658 451.269C175.876 445.381 166.327 439.115 156.707 432.968C152.541 430.307 148.132 427.713 145.206 423.618C170.268 430.385 206.068 447.123 221.209 470.02C208.687 466.761 195.015 456.902 185.658 451.269ZM40.4017 426.418C36.5446 433.03 30.5004 431.646 26.4011 425.618C31.7887 424.998 35.117 425.786 40.4017 426.418ZM48.002 426.018C55.2023 426.218 55.2023 426.218 62.4026 426.418C56.0839 434.542 53.4597 434.594 48.002 426.018ZM262.411 426.418C267.62 428.444 268.411 431.919 268.411 437.219C263.835 434.473 262.882 431.594 262.411 426.418ZM93.0039 428.818C95.9789 431.235 99.5513 432.62 102.004 435.618C96.0041 436.018 96.0041 436.018 90.0038 436.418C91.626 431.282 90.6352 433.819 93.0039 428.818ZM69.6029 431.618C72.6636 433.996 76.0644 436.128 78.4033 439.219C74.0235 439.219 70.0515 439.019 66.0028 440.819C66.0028 436.711 68.1538 435.241 69.6029 431.618ZM20.4009 432.418C23.77 434.425 28.1502 435.761 30.0013 439.219C22.0859 440.868 20.4009 440.182 20.4009 432.418ZM262.411 440.819C257.381 439.339 254.756 438.236 251.811 433.818C256.528 430.87 261.326 436.48 262.411 440.819ZM52.0022 440.819C46.802 440.819 46.802 440.819 41.6018 440.819C43.0639 433.508 50.0615 434.549 52.0022 440.819ZM575.462 448.419C582.604 445.988 588.03 441.192 594.825 438.419C593.356 463.39 567.314 460.51 549.623 460.019C556.094 452.45 566.2 451.571 575.462 448.419ZM465.42 440.419C469.372 440.535 473.323 440.699 477.27 440.919C484.425 441.317 478.384 446.143 475.17 447.469C470.184 449.525 442.259 446.12 449.019 440.419C454.803 435.541 454.236 440.09 465.42 440.419ZM106.405 440.419C102.089 451.926 98.2769 449.719 86.0536 451.269C69.3633 453.386 71.3274 454.44 54.5398 454.694C44.8982 454.84 35.2539 454.582 25.6136 454.369C21.5788 454.28 23.6925 447.636 23.801 445.819C52.1058 447.604 78.1812 444.042 106.405 440.419ZM260.411 447.619C254.622 447.74 250.601 448.832 245.81 446.219C250.199 443.711 257.356 442.323 260.411 447.619ZM344.49 459.344C373.006 456.449 401.272 451.464 429.618 447.219C422.699 465.352 406.025 476.745 394.817 491.821C392.735 494.621 399.419 497.091 402.017 499.421C398.407 505 389.71 521.26 382.266 521.472C375.377 521.668 369.063 515.635 362.215 516.422C351.054 517.704 340.046 520.14 328.889 521.46C326.479 521.744 322.803 523.337 321.614 521.222C313.771 507.271 309.342 491.652 303.713 476.67C301.023 469.51 301.849 466.852 302.013 459.219C316.223 457.469 330.1 460.805 344.49 459.344ZM439.619 449.619C446.193 451.497 467.909 468.145 472.02 472.82C455.152 472.82 445.469 464.245 439.619 449.619ZM261.074 453.769C259.496 459.127 251.7 460.242 246.81 461.22C250.082 456.58 254.867 451.512 261.074 453.769ZM174.607 458.019C173.77 462.906 171.877 469.489 166.807 471.22C166.894 464.333 166.171 458.019 174.607 458.019ZM161.607 468.82C156.353 467.069 153.144 463.631 151.406 458.419C158.265 456.837 162.435 462.192 161.607 468.82ZM94.9165 471.607C78.815 473.448 32.9162 480.901 27.4012 460.219C39.536 458.062 59.4789 459.397 71.603 459.019C107.209 464.833 102.173 470.778 94.9165 471.607ZM267.686 458.782C265.161 464.797 262.591 467.318 256.411 469.22C258.562 462.766 260.353 458.871 267.686 458.782ZM272.999 476.733C268.552 481.316 270.299 464.579 272.812 462.82C277.247 459.714 275.505 474.149 272.999 476.733ZM523.072 571.237C513.655 561.061 503.539 551.548 494.121 541.373C489.052 535.896 477.751 527.746 482.67 522.135C500.494 501.806 518.632 481.62 538.623 463.42C547.023 505.421 547.023 505.421 555.424 547.423C572.924 541.723 572.924 541.723 590.425 536.023C590.873 551.527 588.454 568.623 600.425 580.025C563.024 579.725 563.024 579.725 525.622 579.425C526.74 575.025 527.355 575.865 523.072 571.237ZM429.218 462.82C431.466 463.569 456.83 492.579 457.619 494.421C437.633 491.608 429.814 482.472 429.218 462.82ZM153.206 473.22C147.388 471.787 141.332 471.269 139.006 465.22C147.095 464.941 150.279 465.693 153.206 473.22ZM171.207 558.824C163.4 549.398 154.984 540.49 147.106 531.122C146.028 529.841 144.563 528.573 144.369 526.91C144.216 525.605 145.347 524.417 146.206 523.422C162.027 505.101 175.946 486.293 191.608 468.02C223.794 499.151 224.371 516.894 226.81 560.424C250.307 559.198 249.778 559.217 260.011 580.425C216.409 580.425 216.409 580.425 172.807 580.425C181.983 569.97 180.949 570.584 171.207 558.824ZM21.0009 472.02C22.8047 475.387 23.4595 481.077 27.2387 481.633C39.6904 483.465 52.3364 483.6 64.8527 484.921C65.1626 484.953 72.6847 485.559 74.2531 487.721C76.281 490.516 72.7388 494.528 71.203 497.621C64.4001 511.321 54.6582 523.79 50.2021 538.423C49.2345 541.6 54.072 543.856 56.4024 546.223C64.6371 554.586 79.6004 567.814 89.6038 574.224C93.745 576.878 99.3437 576.198 102.404 580.425C61.2026 580.425 61.2026 580.425 20.0008 580.425C20.5009 526.222 20.5009 526.222 21.0009 472.02ZM573.224 472.82C579.239 472.937 585.844 471.442 591.225 474.133C595.737 476.388 582.082 483.595 580.625 484.02C570.041 487.111 553.744 483.486 554.223 473.02C554.513 466.693 566.892 472.697 573.224 472.82ZM149.606 478.82C146.455 485.573 138.727 485.436 132.006 486.021C134.014 479.133 143.469 478.82 149.606 478.82ZM240.01 492.621C240.211 500.797 233.731 497.65 233.61 490.821C233.417 479.957 239.883 487.45 240.01 492.621ZM253.611 485.221C252.731 492.963 251.65 496.33 244.41 499.621C245.233 492.768 245.557 485.97 253.611 485.221ZM155.207 486.821C154.217 494.735 149.532 497.087 142.406 500.021C142.722 492.645 147.897 488.15 155.207 486.821ZM81.2034 495.621C95.604 503.821 110.184 511.715 124.405 520.222C125.183 520.688 125.472 521.689 126.005 522.422C108.216 518.794 89.881 512.976 81.2034 495.621ZM268.011 498.021C263.405 504.162 259.118 506.614 251.611 506.821C255.609 501.49 261.161 497.758 268.011 498.021ZM298.413 500.421C296.419 519.609 274.872 534.802 257.611 539.623C258.323 538.341 297.096 500.933 298.413 500.421ZM628.627 504.421C624.944 513.014 605.138 522.897 596.263 522.772C607.229 516.95 617.845 510.582 628.627 504.421ZM717.63 508.022C717.001 524.483 707.536 537.097 693.179 545.223C685.848 549.373 670.588 558.06 671.191 549.111C671.283 547.739 689.347 532.847 691.679 528.222C696.053 519.551 696.719 514.397 703.63 509.022C712.13 508.147 712.13 508.147 717.63 508.022ZM410.817 531.11C407.278 526.038 407.646 510.51 416.818 511.622C422.21 512.275 435.26 538.512 444.019 540.223C461.954 543.725 470.708 523.999 480.82 546.423C460.761 539.841 462.82 541.874 455.044 561.286C437.908 552.718 422.2 547.418 410.817 531.11ZM621.026 522.622C650.602 511.242 653.997 514.823 683.629 517.622C676.06 541.686 633.466 543.722 612.826 545.623C613.1 534.917 610.42 526.703 621.026 522.622ZM89.1038 518.872C94.9127 522.759 100.421 527.095 106.342 530.81C118.018 538.135 129.336 527.905 137.831 540.06C138.579 541.13 142.343 545.325 140.956 547.973C139.043 551.625 133.335 553.981 130.006 555.624C125.566 557.814 121.173 560.116 116.605 562.024C113.143 563.47 110.004 559.373 107.905 557.724C102.464 553.449 97.1149 549.058 91.8039 544.623C80.8773 535.499 68.0245 528.783 77.0033 515.822C80.5394 510.717 83.2407 514.949 89.1038 518.872ZM245.21 513.622C252.627 513.89 255.386 517.596 258.011 524.422C250.515 523.887 246.599 521.259 245.21 513.622ZM232.81 530.022C232.699 525.69 232.477 521.343 232.81 517.022C242.488 515.924 239.373 527.835 232.81 530.022ZM368.816 560.474C354.204 574.523 327.808 579.14 308.813 580.425C316.862 573.964 326.21 569.999 333.789 562.799C344.107 552.996 351.858 540.38 362.415 531.022C387.119 524.907 380.411 549.325 368.816 560.474ZM298.565 535.959C307.304 533.361 316.42 537.25 325.364 536.248C332.167 535.485 340.923 532.734 347.615 530.822C345.999 539.513 334.928 545.509 327.764 549.423C321.197 553.012 314.516 556.398 307.763 559.624C304.459 561.202 301.052 562.568 297.613 563.824C277.836 571.046 281.079 568.739 267.211 552.823C278.893 545.828 286.437 539.564 298.565 535.959ZM70.403 544.823C85.3407 556.125 98.792 568.78 117.205 573.224C102.229 573.703 75.1392 560.61 70.403 544.823ZM356.115 576.474C368.993 570.973 382.11 563.09 388.816 550.423C399.256 560.108 410.478 569.105 419.618 580.025C383.816 580.225 383.816 580.225 348.015 580.425C349.753 577.975 353.352 577.654 356.115 576.474ZM406.417 554.823C417.091 562.874 427.571 571.205 437.619 580.025C423.84 580.025 412.84 565.527 406.417 554.823ZM476.42 555.223C486.237 561.99 496.536 568.107 505.871 575.524C506.631 576.128 505.705 577.458 505.621 578.424C492.94 574.973 482.797 566.915 476.42 555.223ZM471.02 560.624C474.046 566.797 475.8 573.518 478.02 580.025C473.72 579.825 473.72 579.825 469.42 579.625C467.358 572.064 467.935 567.916 471.02 560.624ZM164.207 572.424C159.116 579.551 155.622 581.169 146.906 579.375C152.968 577.48 157.947 573.815 164.207 572.424Z" fill="#000000" fill-rule="nonzero" opacity="1" stroke="none"/>
</g>
</svg>
