<?xml version="1.0" encoding="UTF-8" standalone="no"?>
<!DOCTYPE svg PUBLIC "-//W3C//DTD SVG 1.1//EN" "http://www.w3.org/Graphics/SVG/1.1/DTD/svg11.dtd">
<!-- Created with Vectornator (http://vectornator.io/) -->
<svg height="100%" stroke-miterlimit="10" style="fill-rule:nonzero;clip-rule:evenodd;stroke-linecap:round;stroke-linejoin:round;" version="1.1" viewBox="0 0 800 600" width="100%" xml:space="preserve" xmlns="http://www.w3.org/2000/svg" xmlns:xlink="http://www.w3.org/1999/xlink">
<defs/>
<clipPath id="ArtboardFrame">
<rect height="600" width="800" x="0" y="0"/>
</clipPath>
<g clip-path="url(#ArtboardFrame)" id="Layer-1">
<path d="M1.60007 2.80012C1.40006 102.404 0.600025 500.821 0.400017 600.425C133.072 600.425 663.761 600.425 796.434 600.425C796.5 500.621 796.767 101.404 796.834 1.60007C772.766 1.60007 110.071 2.60011 1.60007 2.80012ZM555.223 20.8009C554.947 23.8409 555.256 22.3023 554.223 25.4011C554.023 23.401 554.023 23.401 553.823 21.4009C554.523 21.1009 554.523 21.1009 555.223 20.8009ZM501.221 22.0009C503.721 22.601 503.721 22.601 506.221 23.201C504.855 27.0737 505.934 24.3881 502.021 30.8013C501.223 24.9463 501.488 27.8799 501.221 22.0009ZM506.821 22.0009C507.755 22.0009 511.488 22.0009 512.422 22.0009C512.422 23.0676 512.422 27.3345 512.422 28.4012C511.488 27.3345 507.755 23.0676 506.821 22.0009ZM514.022 22.0009C522.607 22.0009 522.979 24.0402 523.622 32.4014C519.1 31.1682 516.702 25.627 514.022 22.0009ZM523.622 22.0009C537.823 22.0009 537.823 22.0009 552.023 22.0009C551.468 25.056 551.398 26.6459 553.223 29.2012C551.223 28.8012 551.223 28.8012 549.223 28.4012C549.419 31.7224 550.389 32.2103 552.823 34.4015C549.251 33.8519 551.037 33.6745 547.486 35.1015C551.075 37.4308 552.383 38.2008 554.423 41.6018C552.223 40.8017 552.223 40.8017 550.023 40.0017C548.838 42.7976 546.159 44.8324 544.423 41.2017C542.71 45.4072 543.582 42.9653 542.023 48.6021C538.53 43.9867 537.045 38.1458 534.823 32.8014C534.423 35.8015 534.423 35.8015 534.023 38.8016C528.822 30.4013 528.822 30.4013 523.622 22.0009ZM776.033 22.0009C776.233 39.4017 776.233 39.4017 776.433 56.8024C769.342 50.9968 768.444 39.4615 756.806 41.6558C751.729 42.6128 746.689 43.7532 741.631 44.8019C740.853 36.4084 742.424 27.8454 735.431 22.601C755.732 22.3009 755.732 22.3009 776.033 22.0009ZM141.806 28.2012C141.006 27.2012 141.006 27.2012 140.206 26.2011C140.106 27.9012 140.106 27.9012 140.006 29.6013C138.006 29.8013 138.006 29.8013 136.006 30.0013C135.706 28.3012 135.706 28.3012 135.406 26.6011C134.556 27.4262 134.556 27.4262 133.706 28.2512C132.422 20.55 143.619 20.9502 141.806 28.2012ZM500.021 22.4009C498.021 27.0011 498.021 27.0011 496.021 31.6013C494.821 30.0013 494.821 30.0013 493.621 28.4012C485.95 33.375 489.46 33.7552 483.22 30.4013C481.62 32.8014 481.62 32.8014 480.02 35.2015C478.72 31.8013 478.72 31.8013 477.42 28.4012C474.945 29.77 474.945 29.77 472.47 31.1388C472.245 28.37 472.245 28.37 472.02 25.6011C466.22 29.4012 466.22 29.4012 460.419 33.2014C459.719 31.6013 459.719 31.6013 459.019 30.0013C455.219 32.4014 455.219 32.4014 451.419 34.8015C450.919 31.2013 450.919 31.2013 450.419 27.6012C442.016 34.2622 439.056 33.8663 430.018 39.2017C429.218 37.8016 429.218 37.8016 428.418 36.4015C424.218 38.6016 424.218 38.6016 420.018 40.8017C419.418 37.6016 419.418 37.6016 418.818 34.4015C415.118 38.6016 415.118 38.6016 411.417 42.8018C410.455 41.0642 410.455 41.0642 409.492 39.3267C406.255 43.8644 406.255 43.8644 403.017 48.402C401.417 47.002 401.417 47.002 399.817 45.6019C398.317 48.402 398.317 48.402 396.817 51.2022C393.417 49.7021 393.417 49.7021 390.017 48.202C389.441 54.0487 390.256 60.5755 387.216 65.6028C383.412 64.2711 381.585 59.824 378.566 57.1524C375.652 54.5735 371.179 54.5598 367.816 52.6022C367.616 55.5023 367.616 55.5023 367.416 58.4025C363.615 56.3024 363.615 56.3024 359.815 54.2023C359.215 55.1023 359.215 55.1023 358.615 56.0024C353.715 54.2023 353.715 54.2023 348.815 52.4022C348.615 53.4023 348.615 53.4023 348.415 54.4023C343.415 52.8022 343.415 52.8022 338.414 51.2022C338.414 52.8022 338.414 52.8022 338.414 54.4023C334.214 53.4023 334.214 53.4023 330.014 52.4022C330.814 55.6024 330.814 55.6024 331.614 58.8025C326.814 57.8024 326.814 57.8024 322.014 56.8024C322.814 59.2025 322.814 59.2025 323.614 61.6026C319.014 61.0026 319.014 61.0026 314.413 60.4026C315.413 63.4027 315.413 63.4027 316.413 66.4028C312.413 66.4028 312.413 66.4028 308.413 66.4028C309.213 68.6029 309.213 68.6029 310.013 70.803C299.144 71.4636 293.349 67.0354 284.012 69.6029C286.012 65.6026 286.027 67.4303 285.212 64.2527C282.351 64.3435 279.83 66.2991 277.012 66.8028C272.48 67.6129 269.277 58.1845 280.212 55.2023C278.312 53.0022 278.312 53.0022 276.412 50.8022C279.162 50.2771 279.162 50.2771 281.912 49.7521C281.36 45.9642 282.17 47.8853 278.399 44.5769C294.736 30.9505 280.385 20.6388 274.412 41.6018C271.812 40.4017 271.812 40.4017 269.211 39.2017C269.411 42.6018 269.411 42.6018 269.611 46.0019C267.811 44.6019 267.811 44.6019 266.011 43.2018C265.411 46.202 265.411 46.202 264.811 49.2021C258.224 46.732 261.842 46.9148 254.011 50.4021C255.826 46.1231 260.332 44.399 261.211 40.0017C257.943 38.424 260.271 39.1333 254.011 41.2017C256.179 37.5552 254.504 39.735 260.411 36.0015C257.813 33.1223 259.481 33.9377 255.211 34.0014C257.651 25.7039 258.018 29.4217 255.611 22.801C377.816 22.601 377.816 22.601 500.021 22.4009ZM569.84 23.6685C581.952 22.9406 594.092 22.6879 606.226 22.5885C645.626 22.2654 685.029 22.4635 724.431 22.4009C721.623 33.8139 720.829 41.0065 708.638 44.8059C701.751 46.9523 694.632 48.27 687.629 50.0021C690.002 53.4632 692.589 59.0661 697.38 60.3526C702.798 61.8074 708.48 61.986 714.03 62.8027C703.23 84.0036 703.23 84.0036 692.429 105.204C709.561 91.2826 709.561 91.2826 726.692 77.3608C736.126 83.6448 747.537 91.4766 748.432 104.004C732.32 110.19 714.207 108.535 697.03 110.205C704.021 120.961 718.611 111.969 722.031 123.205C704.83 123.205 704.83 123.205 687.629 123.205C687.679 134.916 684.549 131.756 680.029 142.806C678.229 141.706 678.229 141.706 676.429 140.606C676.429 143.306 676.429 143.306 676.429 146.006C674.729 145.306 674.729 145.306 673.028 144.606C672.928 146.906 672.928 146.906 672.828 149.206C666.924 147.114 670.147 147.222 663.228 150.406C666.228 145.606 666.228 145.606 669.228 140.806C666.428 141.406 666.428 141.406 663.628 142.006C665.953 139.656 665.953 139.656 668.278 137.306C666.353 136.656 666.353 136.656 664.428 136.006C664.923 114.716 656.531 125.132 657.628 136.006C656.028 136.006 656.028 136.006 654.428 136.006C655.428 138.406 655.428 138.406 656.428 140.806C653.127 140.547 654.274 139.851 652.828 142.606C655.628 145.106 655.628 145.106 658.428 147.606C655.683 147.665 650.186 149.833 648.827 152.006C646.627 150.206 646.627 150.206 644.427 148.406C641.967 151.405 643.654 150.511 638.827 149.606C638.627 151.206 638.627 151.206 638.427 152.806C629.438 149.495 633.321 148.972 626.727 151.706C630.037 158.364 627.358 155.908 635.627 158.007C634.627 160.807 634.627 160.807 633.627 163.607C637.227 162.407 637.227 162.407 640.827 161.207C640.227 163.207 640.227 163.207 639.627 165.207C642.827 164.207 642.827 164.207 646.027 163.207C645.458 168.899 646.557 171.983 651.628 174.807C648.676 177.065 650.637 176.183 645.227 175.607C646.164 179.487 645.105 177.948 648.427 180.208C645.271 181.176 645.271 181.176 642.115 182.145C642.646 184.377 642.646 184.377 643.177 186.608C634.577 185.387 633.709 181.033 625.626 181.208C626.827 178.408 626.827 178.408 628.027 175.607C619.702 174.636 620.816 170.249 612.426 169.607C612.626 167.807 612.626 167.807 612.826 166.007C603.889 165.284 602.432 162.189 593.225 164.007C593.225 161.207 593.225 161.207 593.225 158.407C589.325 161.957 589.325 161.957 585.425 165.507C585.125 163.757 585.125 163.757 584.825 162.007C582.446 164.446 579.294 168.165 576.024 167.207C573.886 172.246 571.889 178.733 566.824 180.808C567.466 177.049 567.205 173.018 568.749 169.532C569.507 167.821 587.656 150.415 577.624 147.606C581.225 137.206 581.225 137.206 584.825 126.805C581.825 128.205 581.825 128.205 578.824 129.605C580.425 121.605 580.425 121.605 582.025 113.605C579.625 115.005 579.625 115.005 577.224 116.405C577.624 110.005 577.624 110.005 578.024 103.604C575.824 105.004 575.824 105.004 573.624 106.405C573.889 93.389 580.145 86.9428 568.824 76.0032C570.124 74.5282 570.124 74.5282 571.424 73.0531C570.024 72.028 570.024 72.028 568.624 71.003C572.524 66.7028 572.524 66.7028 576.424 62.4026C579.205 66.573 579.667 69.2134 584.025 66.4028C585.025 67.7029 585.025 67.7029 586.025 69.0029C587.425 67.5029 587.425 67.5029 588.825 66.0028C595.204 70.3132 595.625 70.0029 601.225 64.4027C597.897 57.6264 589.518 57.8206 583.625 59.2025C585.156 55.6689 585.425 57.1709 584.125 54.6523C574.304 58.6272 569.694 50.8987 580.025 46.802C578.424 45.0019 578.424 45.0019 576.824 43.2018C579.125 43.0018 579.125 43.0018 581.425 42.8018C581.038 39.0887 581.814 40.8892 578.024 38.0016C592.369 27.2076 581.654 16.4189 574.824 35.2015C572.624 34.0014 572.624 34.0014 570.424 32.8014C570.624 35.8015 570.624 35.8015 570.824 38.8016C569.024 37.8016 569.024 37.8016 567.224 36.8016C567.224 39.2017 567.224 39.2017 567.224 41.6018C561.09 38.535 564.557 38.935 556.824 42.8018C560.224 38.2016 560.224 38.2016 563.624 33.6014C560.624 34.0014 560.624 34.0014 557.624 34.4015C560.224 32.4014 560.224 32.4014 562.824 30.4013C560.88 27.9713 562.167 28.7227 558.824 28.4012C559.607 24.4821 565.851 23.9083 569.84 23.6685ZM21.2009 22.801C46.9937 22.8301 72.7886 22.5548 98.5792 22.8885C108.863 23.0215 119.159 23.3166 129.405 24.201C130.781 24.3198 128.7 26.9937 127.755 28.0012C129.28 28.8012 129.28 28.8012 130.806 29.6013C129.487 33.1681 129.623 31.1548 131.606 35.6015C127.432 37.6885 129.515 37.6398 125.368 36.0015C123.793 38.9454 123.793 38.9454 122.218 41.8893C125.708 45.0154 124.597 43.1 125.605 47.602C126.805 46.402 126.805 46.402 128.005 45.2019C129.76 47.3557 128.527 46.5053 132.206 46.802C132.442 54.3805 134.186 52.0252 129.455 55.1523C132.257 58.8871 131.355 56.6703 131.606 62.0026C134.783 58.825 132.908 59.3281 137.206 60.4026C136.806 58.2025 136.806 58.2025 136.406 56.0024C139.321 55.2737 137.955 56.1175 139.606 52.4022C141.281 55.7521 139.987 54.976 142.806 55.6024C142.831 57.7524 142.831 57.7524 142.856 59.9025C144.131 59.3525 144.131 59.3525 145.406 58.8025C146.984 61.1039 145.901 60.6055 148.606 60.4026C146.961 53.1619 149.092 57.9482 149.606 52.8022C148.206 52.4022 148.206 52.4022 146.806 52.0022C147.423 47.9615 147.707 49.9388 145.756 46.102C149.183 45.9726 147.951 46.76 149.606 44.0019C150.806 44.8769 150.806 44.8769 152.006 45.7519C152.206 43.6768 152.206 43.6768 152.406 41.6018C156.084 41.1048 155.408 38.3108 152.006 38.0016C152.006 36.2015 152.006 36.2015 152.006 34.4015C147.176 36.5484 149.54 36.664 144.919 33.9639C146.132 30.7015 148.031 26.5655 146.206 23.601C196.908 23.201 196.908 23.201 247.61 22.801C247.41 28.2012 247.41 28.2012 247.21 33.6014C245.61 33.4014 245.61 33.4014 244.01 33.2014C244.398 38.1122 243.512 36.0131 246.41 39.6017C242.335 39.2929 243.577 38.3523 242.123 41.4643C245.667 44.5331 245.667 44.5331 249.211 47.602C246.357 47.3922 238.227 49.6969 237.21 52.0022C234.41 50.3021 234.41 50.3021 231.61 48.6021C231.41 50.3021 231.41 50.3021 231.21 52.0022C228.21 50.8022 228.21 50.8022 225.21 49.6021C225.21 52.2022 225.21 52.2022 225.21 54.8023C214.559 44.1522 200.561 55.4515 221.609 60.0025C220.009 63.0027 220.009 63.0027 218.409 66.0028C223.009 64.6027 223.009 64.6027 227.61 63.2027C226.81 65.6028 226.81 65.6028 226.01 68.0029C230.422 68.3579 227.555 68.5425 234.01 64.8027C233.498 71.5475 233.261 76.6773 240.41 79.2034C237.628 82.2637 239.651 80.9119 233.21 80.4034C233.77 85.0269 232.792 82.9554 236.56 86.4037C232.922 87.2599 232.922 87.2599 229.285 88.1162C229.177 90.9832 228.607 89.8276 231.61 91.2039C230.51 93.0539 230.51 93.0539 229.41 94.904C221.684 91.1705 214.655 85.3459 206.234 83.7035C190.133 80.5635 173.5 81.402 157.107 80.8034C141.293 80.226 135.482 86.5594 121.005 91.4039C112.095 94.3854 102.686 95.6413 93.679 98.3167C89.2869 99.6213 88.4471 107.482 83.8911 107.967C78.7305 108.516 74.339 103.548 69.2029 102.804C66.6464 102.434 64.2697 104.466 61.7026 104.754C57.8801 105.184 53.605 103.222 50.1646 104.942C46.7572 106.646 45.5228 110.984 43.2018 114.005C26.5736 106.495 33.8524 134.855 20.8009 139.206C21.0009 81.0034 21.0009 81.0034 21.2009 22.801ZM251.423 25.2511C251.675 28.6757 251.74 26.9588 251.211 30.4013C249.21 27.7342 248.698 27.2812 251.423 25.2511ZM582.062 27.6137C581.999 30.9565 581.793 31.014 578.424 32.0014C579.256 29.3163 579.514 28.8486 582.062 27.6137ZM283.062 32.5014C281.883 37.4413 282.4 38.0073 277.612 37.6016C280.575 33.5613 278.77 35.2745 283.062 32.5014ZM515.622 39.0017C511.273 42.6255 506.085 45.1067 501.221 48.002C503.193 42.7445 509.609 36.747 515.622 39.0017ZM471.62 39.2017C468.9 46.8668 455.707 49.5622 448.819 51.2022C451.951 40.7633 461.997 39.7848 471.62 39.2017ZM563.024 42.8018C563.977 47.1599 562.875 48.4827 558.824 50.0021C559.013 45.7685 559.581 45.1851 563.024 42.8018ZM485.021 44.6019C480.555 51.1761 474.852 56.8205 469.62 62.8027C468.821 49.5922 471.411 46.303 485.021 44.6019ZM522.822 44.4019C521.218 51.9392 515.367 59.2752 508.822 63.2027C509.429 54.7044 514.079 46.8306 522.822 44.4019ZM446.019 44.8019C444.561 53.5475 439.029 61.1464 433.218 67.6029C425.646 61.2266 441.576 47.6764 446.019 44.8019ZM545.623 45.6019C549.264 47.8083 549.455 48.1279 550.423 52.0022C546.878 52.3346 546.466 48.3405 545.623 45.6019ZM496.021 47.202C494.284 55.8892 492.502 58.348 485.221 63.2027C485.221 54.7776 488.154 50.4413 496.021 47.202ZM526.347 47.3645C534.034 51.2081 525.27 65.8163 520.022 68.0029C520.493 60.4701 524.774 54.6703 526.347 47.3645ZM572.024 50.2021C569.755 52.4717 568.799 52.8907 565.624 53.6023C567.206 50.213 568.252 49.0706 572.024 50.2021ZM260.411 50.0021C262.778 54.5667 260.696 57.2312 256.011 58.4025C255.525 54.5121 257.779 52.6341 260.411 50.0021ZM214.409 53.2023C217.174 53.5094 218.219 53.9692 219.609 56.4024C216.103 56.0226 215.132 56.5499 214.409 53.2023ZM241.61 53.8023C245.49 55.9186 244.971 57.2029 246.41 62.0026C242.701 59.3532 241.893 58.3241 241.61 53.8023ZM503.421 53.6023C503.951 66.5307 505.315 74.9889 493.221 82.0035C496.734 72.4678 494.06 59.5596 503.421 53.6023ZM560.374 54.2523C569.011 56.7928 553.737 65.9416 555.123 55.2773C555.396 53.1831 558.232 53.6223 560.374 54.2523ZM412.417 54.8023C411.321 63.0271 400.706 72.6222 394.017 76.8033C395.54 66.9009 401.807 56.8654 412.417 54.8023ZM534.623 57.0024C539.794 64.3898 536.326 75.1104 528.822 79.2034C529.99 70.0828 532.857 65.2413 534.623 57.0024ZM776.433 57.2024C776.233 72.6031 776.233 72.6031 776.033 88.0037C760.005 81.2721 748.022 73.4497 736.431 60.2025C749.516 57.9721 763.262 57.908 776.433 57.2024ZM271.211 58.8025C269.025 61.262 267.138 62.2646 264.011 63.2027C265.057 59.0189 267.232 58.0066 271.211 58.8025ZM566.024 58.8025C569.953 60.2196 570.625 60.3528 572.424 64.0027C567.619 63.4021 565.398 63.8114 566.024 58.8025ZM451.619 59.6025C449.644 68.6962 440.781 79.4863 434.818 86.8037C435.361 77.0405 440.101 61.7242 451.619 59.6025ZM464.02 62.4026C463.717 73.3674 458.897 92.6641 448.019 98.0041C448.754 84.5286 451.108 69.9979 464.02 62.4026ZM480.22 62.4026C479.719 75.9392 472.552 93.1583 460.82 100.804C464.869 82.7302 468.11 76.2434 480.22 62.4026ZM258.811 70.953C254.141 73.2881 247.315 67.0257 253.011 64.2027C257.153 62.1497 266.409 67.154 258.811 70.953ZM597.625 64.0027C594.238 65.566 595.906 65.5699 592.625 64.2027C595.125 64.1027 595.125 64.1027 597.625 64.0027ZM558.824 63.6027C561.744 66.817 561.353 67.5362 560.824 72.003C557.722 69.2889 557.984 67.522 558.824 63.6027ZM245.21 64.4027C243.81 68.6913 240.494 70.8016 236.41 68.2029C238.319 64.5212 241.389 64.4027 245.21 64.4027ZM414.018 65.2028C411.905 78.5837 405.389 87.0211 404.417 101.204C391.374 92.0741 399.642 68.6878 414.018 65.2028ZM541.623 65.2028C546.411 69.739 546.942 82.1768 540.423 85.2036C539.652 77.174 541.623 72.6285 541.623 65.2028ZM515.222 66.2028C516.738 75.301 514.761 87.1188 504.821 89.6038C505.712 86.8734 508.704 68.9962 515.222 66.2028ZM359.615 77.6033C351.9 71.4311 349.07 72.1036 338.414 72.003C338.414 62.0916 355.969 70.3112 359.615 77.6033ZM425.218 68.0029C421.624 81.5812 418.3 95.2819 413.818 108.605C399.466 107.01 417.115 68.4637 425.218 68.0029ZM264.411 69.2029C268.281 70.5446 269.687 71.0324 271.211 74.8032C265.245 73.9658 263.868 74.6317 264.411 69.2029ZM247.61 71.603C246.141 76.3046 243.233 78.1325 238.41 76.2032C241.482 72.8526 243.104 71.8847 247.61 71.603ZM472.82 113.605C472.304 101.052 479.295 81.6702 487.821 72.4031C490.264 83.7042 485.962 109.925 472.82 113.605ZM276.012 73.2031C278.531 76.2216 281.928 83.2393 283.612 77.2033C286.271 81.1579 284.447 79.7672 289.212 81.2034C289.612 79.2034 289.612 79.2034 290.012 77.2033C297.827 81.8696 294.595 80.0582 299.613 82.8035C296.456 83.0848 296.456 83.0848 293.3 83.366C293.856 85.8849 293.856 85.8849 294.412 88.4037C291.412 89.4038 291.412 89.4038 288.412 90.4038C291.412 93.804 291.412 93.804 294.412 97.2041C292.312 98.7042 292.312 98.7042 290.212 100.204C295.375 104.731 292.871 105.882 299.613 109.805C297.413 112.505 297.413 112.505 295.212 115.205C300.413 116.405 300.413 116.405 305.613 117.605C304.713 119.661 304.713 119.661 303.813 121.718C308.713 122.661 308.713 122.661 313.613 123.605C312.613 126.805 312.613 126.805 311.613 130.006C316.813 129.805 316.813 129.805 322.014 129.605C320.814 132.206 320.814 132.206 319.614 134.806C324.614 135.406 324.614 135.406 329.614 136.006C328.625 140.867 329.666 138.193 325.214 143.406C331.014 143.906 331.014 143.906 336.814 144.406C334.814 147.006 334.814 147.006 332.814 149.606C336.614 151.206 336.614 151.206 340.414 152.806C338.589 158.209 338.379 155.468 342.414 160.807C340.714 161.007 340.714 161.007 339.014 161.207C344.759 166.951 348.808 168.441 341.014 170.207C351.609 178.688 361.997 183.824 363.615 198.008C364.107 202.314 365.924 207.222 363.815 211.009C360.384 217.173 351.239 217.858 346.315 222.909C332.685 236.889 319.681 251.47 306.013 265.411C297.275 274.324 286.567 270.236 275.412 273.812C257.418 279.578 249.835 290.287 229.81 283.612C234.489 277.027 240.148 268.993 244.06 262.111C245.223 260.066 244.323 257.123 245.76 255.261C247.063 253.573 250.119 254.075 251.511 252.461C254.043 249.524 254.197 244.879 257.011 242.21C260.081 239.298 267.486 240.404 268.211 236.235C269.544 228.572 264.221 221.004 262.261 214.409C259.518 205.18 262.365 193.79 263.211 185.208C266.211 186.608 266.211 186.608 269.211 188.008C267.611 179.408 267.611 179.408 266.011 170.807C273.174 174.388 270.039 183.172 277.212 184.808C277.078 176.874 277.498 168.912 276.812 161.007C276.687 159.566 274.734 158.601 274.812 157.157C275.015 153.395 277.995 149.954 277.612 146.206C276.843 138.679 275.342 130.851 271.461 124.355C268.698 119.729 262.352 118.406 258.661 114.48C257.368 113.104 257.259 106.732 254.111 105.754C248.963 104.155 243.327 104.5 238.21 102.804C235.515 101.912 238.651 97.0758 239.61 94.404C243.092 97.2365 241.358 97.205 244.51 96.1541C243.06 92.0789 243.06 92.0789 241.61 88.0037C245.01 90.2038 245.01 90.2038 248.411 92.4039C248.273 84.3802 250.116 83.6106 257.211 87.2037C254.204 91.6513 254.811 89.3254 254.811 94.004C258.011 92.6039 258.011 92.6039 261.211 91.2039C260.011 95.004 260.011 95.004 258.811 98.8042C268.587 99.992 263.895 110.099 274.412 109.967C277.287 98.8812 269.928 101.585 272.899 93.854C269.855 91.3289 269.855 91.3289 266.811 88.8038C268.811 86.8037 268.811 86.8037 270.811 84.8036C268.811 84.2036 268.811 84.2036 266.811 83.6035C272.88 76.479 269.81 79.9437 276.012 73.2031ZM522.622 73.2031C529.223 80.3657 524.826 93.6587 517.622 98.8042C518.775 90.6068 519.015 80.899 522.622 73.2031ZM300.413 74.8032C298.236 77.8165 296.352 76.6484 294.212 74.2031C298.446 73.9386 296.38 73.7277 300.413 74.8032ZM330.014 80.4034C324.439 78.5587 322.015 78.2148 316.413 79.2034C320.91 72.2086 325.516 74.1149 330.014 80.4034ZM549.623 73.6031C558.273 75.7657 554.632 84.8753 552.823 91.2039C547.62 88.0931 549.623 78.696 549.623 73.6031ZM255.611 74.4031C259.144 76.8761 258.211 79.9926 258.011 84.0036C254.019 80.8667 255.002 79.2767 255.611 74.4031ZM387.616 86.8037C382.495 85.0966 377.724 78.3249 373.216 75.0032C382.712 74.3448 386.741 76.2949 387.616 86.8037ZM355.215 82.4035C349.332 81.8114 343.285 81.8787 337.614 80.2034C342.193 73.7938 352.839 75.2752 355.215 82.4035ZM428.818 79.2034C437.228 93.9815 427.113 107.658 424.418 123.605C411.512 111.286 426.777 92.4721 428.818 79.2034ZM368.016 80.0034C376.103 82.9443 378.311 89.131 378.816 97.2041C372.961 94.0624 370.726 85.5944 368.016 80.0034ZM328.414 92.8039C322.603 90.7287 318.348 86.4037 312.013 86.4037C318.337 80.0801 326.52 84.6859 328.414 92.8039ZM533.085 84.2536C544.665 88.7362 535.767 105.461 530.422 110.805C530.422 101.672 529.741 92.8288 533.085 84.2536ZM330.414 85.6036C337.912 85.8881 346.474 84.2403 350.015 92.0039C343.725 91.2411 333.432 92.5851 330.414 85.6036ZM500.421 86.4037C506.737 100.615 494.11 117.37 482.82 124.005C488.202 111.349 492.628 97.8639 500.421 86.4037ZM570.824 86.4037C574.536 87.8885 574.242 88.7679 574.024 92.8039C570.378 91.3456 570.192 90.1976 570.824 86.4037ZM442.419 88.8038C442.954 104.045 437.384 117.388 435.181 132.543C424.073 127.728 436.585 95.0139 442.419 88.8038ZM756.782 102.704C762.998 97.6646 769.339 92.5424 776.433 88.8038C775.64 126.037 772.846 123.036 736.431 124.405C742.705 115.222 752.377 116.87 763.232 115.605C760.81 112.907 751.624 106.886 756.782 102.704ZM309.213 89.6038C316.964 89.6038 324.75 97.3231 327.614 104.004C320.264 101.41 312.138 97.4023 309.213 89.6038ZM105.854 214.009C105.762 207.55 105.602 201.058 106.279 194.633C106.785 189.84 112.508 186.66 113.667 181.658C115.46 173.922 116.476 166.022 118.193 158.269C119.52 152.271 126.282 149.692 129.368 144.956C130.961 142.512 130.216 139.05 131.643 136.506C137.97 125.224 145.911 118.977 155.769 110.855C158.831 108.332 158.004 105.283 159.807 102.004C162.877 96.422 172.211 93.9819 177.858 90.9538C175.848 101.807 170.781 101.013 163.557 106.054C156.766 110.794 162.576 112.141 156.807 118.405C155.925 119.362 149.902 120.077 148.644 122.243C142.982 131.983 138.072 142.044 132.706 151.956C131.129 154.869 126.646 155.54 125.28 158.557C123.437 162.628 124.256 167.519 122.73 171.72C119.446 180.763 113.005 190.299 110.817 199.796C109.786 204.271 114.103 216.277 106.605 217.409C106.355 216.276 105.871 215.17 105.854 214.009ZM206.809 90.0038C207.381 98.7296 220.216 96.8908 219.609 107.205C208.851 104.543 186.131 92.6718 206.809 90.0038ZM373.616 108.405C367.035 105.584 363.172 97.4529 360.615 91.2039C368.146 88.6937 371.985 104.264 373.616 108.405ZM380.416 91.2039C389.871 92.2544 390.017 101.491 390.017 109.205C384.866 104.72 383.014 97.3167 380.416 91.2039ZM547.223 92.4039C547.241 102.536 550.045 115.892 539.223 121.205C539.736 111.965 540.8 99.63 547.223 92.4039ZM193.408 114.055C191.286 112.652 189.223 111.158 187.208 109.605C170.097 96.4136 190.307 91.6022 194.608 100.204C192.387 101.932 193.568 101.604 191.208 101.604C193.126 110.235 204.743 110.176 202.809 119.205C199.068 117.335 196.999 116.427 193.408 114.055ZM235.21 96.4041C234.217 100.26 234.26 100.864 230.41 101.604C232.581 96.0544 230.595 97.327 235.21 96.4041ZM346.815 105.604C340.443 104.048 332.534 103.772 328.414 98.0041C338.247 95.5459 342.663 96.4705 346.815 105.604ZM349.615 97.2041C358.042 98.3745 364.71 109.349 362.615 117.205C356.537 111.971 351.209 105.177 349.615 97.2041ZM511.622 98.0041C511.91 110.424 510.019 129.778 496.421 135.606C499.236 122.937 502.662 107.86 511.622 98.0041ZM124.805 98.4042C122.927 107.609 110.433 112.539 104.404 116.805C106.274 117.828 127.471 121.524 115.105 128.305C110.569 130.793 105.838 132.906 101.204 135.206C117.108 145.587 113.245 149.548 96.0041 154.007C100.927 164.72 107.86 171.78 92.8039 173.607C94.3032 184.152 105.202 186.129 96.8541 196.458C91.4667 193.606 94.8099 191.936 92.5039 187.158C88.1809 178.2 82.1427 171.398 94.804 169.607C91.7027 153.836 86.9813 147.4 104.404 147.206C101.455 141.307 104.41 145.964 97.2416 140.056C88.7246 133.037 103.043 128.445 106.805 124.405C102.496 122.493 97.9626 120.697 94.404 117.605C100.604 112.405 100.604 112.405 106.805 107.205C105.004 105.404 105.004 105.404 103.204 103.604C110.372 101.741 117.579 100.024 124.805 98.4042ZM309.013 101.404C314.11 104.217 318.031 109.265 319.614 114.805C315.411 112.237 306.948 107.601 309.013 101.404ZM270.011 101.604C272.775 103.216 273.209 104.027 272.812 107.205C268.839 106.426 269.309 105.116 270.011 101.604ZM451.219 102.804C457.009 104.252 449.397 144.228 448.269 146.156C430.192 130.725 451.219 119.766 451.219 102.804ZM378.616 104.004C388.03 110.851 385.782 113.816 384.416 123.605C377.777 122.966 378.871 108.091 378.616 104.004ZM554.023 106.004C562.484 112.35 559.005 125.931 552.423 132.006C553.649 123.427 553.346 114.647 554.023 106.004ZM320.014 106.405C331.913 108.283 339.474 109.234 343.215 121.205C335.296 118.83 323.65 114.196 320.014 106.405ZM181.508 129.455C181.495 129.445 170.931 122.125 168.557 119.818C158.996 110.521 193.196 100.599 177.608 119.205C182.2 123.951 190.269 124.779 187.933 131.868C184.994 131.789 183.906 131.376 181.508 129.455ZM236.835 113.517C239.433 113.866 241.789 111.392 244.41 111.405C258.471 111.471 267.687 132.763 270.761 144.056C273.454 153.947 253.661 149.634 250.148 144.919C248.752 147.115 248.424 150.669 245.96 151.506C242.173 152.794 237.993 150.773 234.01 150.406C232.221 159.678 225.67 156.575 220.909 162.457C219.172 164.604 220.397 168.028 219.409 170.607C216.557 178.055 215.166 170.349 210.159 177.808C203.733 187.379 210.275 188.594 197.608 191.208C198.084 194.381 200.163 202.668 197.683 206.071C195.545 209.006 190.608 209.4 189.008 212.659C187.225 216.29 190.231 221.13 188.495 224.785C186.923 228.094 181.469 228.372 179.958 231.71C177.569 236.985 180.833 245.245 176.157 248.661C173.73 250.434 168.615 251.324 165.77 250.336C155.989 246.937 146.185 243.401 137.006 238.61C135.686 237.921 135.509 235.941 135.356 234.46C134.043 221.786 138.352 229.217 142.556 220.809C144.096 217.729 143.289 213.929 144.206 210.609C144.947 207.926 152.386 206.882 152.519 206.734C154.059 205.018 152.684 201.931 153.857 199.946C155.51 197.148 158.998 195.753 160.657 192.958C162.13 190.475 161.332 186.994 162.957 184.608C164.507 182.332 168.256 182.136 169.645 179.758C171.079 177.302 169.809 173.985 170.732 171.295C171.716 168.429 176.276 168.773 179.208 168.007C175.853 157.439 176.369 154.111 187.608 152.806C187.608 142.382 188.89 136.961 199.608 140.406C199.608 133.206 199.608 133.206 199.608 126.005C202.659 125.739 206.138 126.788 208.759 125.205C216.858 120.316 205.282 112.952 222.809 118.405C227.534 99.5059 225.372 111.98 236.835 113.517ZM467.22 109.405C464.328 122.4 465.293 141.644 457.619 152.806C451.5 140.999 454.549 116.585 467.22 109.405ZM523.822 109.205C524.56 124.695 521.94 131.075 510.022 141.206C511.39 135.956 519.188 112.515 523.822 109.205ZM346.415 112.005C354.565 116.08 359.86 123.701 357.015 132.806C350.363 127.816 347.412 119.983 346.415 112.005ZM407.53 134.393C403.933 130.331 394.6 127.499 394.617 121.805C394.643 112.944 403.978 113.466 407.667 119.205C415.837 131.913 416.173 141.271 416.418 156.407C414.818 156.407 414.818 156.407 413.217 156.407C413.121 147.586 413.536 141.177 407.53 134.393ZM40.2767 142.856C39.8488 142.063 35.2176 140.454 36.2515 138.006C36.4505 137.535 41.402 123.056 43.4018 122.205C56.4775 116.639 66.7982 115.842 80.8034 114.805C73.9586 123.568 72.2563 121.155 61.2026 122.005C63.2027 124.405 63.2027 124.405 65.2028 126.805C62.6428 127.864 58.5423 129.086 58.6025 131.856C62.1026 132.531 62.1026 132.531 65.6028 133.206C63.1148 138.255 65.0296 136.044 59.2025 139.206C67.2555 142.678 64.3069 140.435 68.8029 144.806C65.4784 147.823 67.674 146.477 61.6026 147.606C66.1152 150.792 63.9967 149.051 67.9654 152.819C64.9282 158.409 59.2195 156.44 68.4029 161.407C64.6149 162.922 66.1644 161.845 63.6027 164.407C69.2429 166.978 75.7773 170.74 71.453 178.108C66.8145 175.521 69.5403 177.373 64.0027 171.607C61.5026 174.707 61.5026 174.707 59.0025 177.808C55.6747 175.76 52.9508 173.002 52.0022 169.207C43.5589 170.774 42.9077 167.083 44.8019 159.207C28.3912 160.574 41.3932 144.925 40.2767 142.856ZM368.416 114.805C375.153 117.331 383.204 129.766 376.044 135.227C371.961 129.351 370.466 121.468 368.416 114.805ZM479.62 116.805C479.468 127.7 482.41 155.929 466.02 159.207C468.65 149.016 466.256 120.685 479.62 116.805ZM534.423 123.205C534.851 130.286 537.143 134.832 532.548 140.193C529.36 143.912 526.064 147.535 522.822 151.206C524.519 141.028 529.537 132.162 534.423 123.205ZM166.007 137.506C163.545 135.957 161.25 134.159 158.857 132.506C148.162 125.117 167.765 118.942 172.007 128.005C169.007 129.205 169.007 129.205 166.007 130.406C170.195 134.594 174.788 138.086 180.008 140.806C179.208 142.806 179.208 142.806 178.408 144.806C174.274 142.373 170.067 140.06 166.007 137.506ZM337.614 124.405C347.732 127.778 352.331 138.931 351.415 149.006C343.714 144.157 340.853 132.017 337.614 124.405ZM362.415 127.205C368.266 130.397 378.033 146.798 368.816 151.406C363.749 145.496 363.078 135.161 362.415 127.205ZM659.628 133.206C659.628 131.206 659.628 131.206 659.628 129.205C662.108 130.445 661.523 131.581 659.628 133.206ZM490.421 128.805C490.994 140.843 492.555 158.047 478.02 162.007C480.335 152.892 481.402 136.021 490.421 128.805ZM547.223 130.406C548.848 143 545.409 152.822 533.223 156.407C540.223 143.406 540.223 143.406 547.223 130.406ZM775.633 130.806C775.633 310.013 775.633 310.013 775.633 489.221C770.298 485.22 762.081 487.924 755.632 489.621C757.632 484.821 757.632 484.821 759.632 480.02C744.68 473.327 743.176 464.486 751.632 450.419C748.832 447.219 748.832 447.219 746.032 444.019C751.365 443.352 757.194 444.361 762.032 442.019C772.082 437.152 760.46 413.631 750.782 422.918C746.27 427.247 745.276 434.421 740.831 438.819C738.958 427.355 723.791 428.666 720.631 414.818C717.584 401.47 718.229 387.369 714.43 374.216C707.342 349.673 688.818 316.73 671.316 298.513C660.86 287.63 648.068 279.156 635.427 270.911C630.501 267.699 623.802 267.842 619.026 264.411C617.379 263.228 618.36 260.411 618.026 258.411C621.426 259.011 621.426 259.011 624.826 259.611C625.026 257.011 625.026 257.011 625.226 254.411C629.027 255.011 629.027 255.011 632.827 255.611C631.027 252.811 631.027 252.811 629.227 250.011C634.652 248.486 634.652 248.486 640.077 246.96C638.252 244.485 638.252 244.485 636.427 242.01C639.751 239.003 644.892 234.571 643.227 230.41C647.827 229.21 647.827 229.21 652.428 228.01C650.128 225.61 650.128 225.61 647.827 223.209C651.528 221.009 651.528 221.009 655.228 218.809C652.828 217.109 652.828 217.109 650.428 215.409C652.428 212.909 652.428 212.909 654.428 210.409C651.028 209.209 651.028 209.209 647.627 208.009C652.228 204.809 652.228 204.809 656.828 201.609C652.328 200.108 652.328 200.108 647.827 198.608C649.327 193.308 649.327 193.308 650.828 188.008C654.057 189.757 652.456 189.79 655.628 187.808C654.228 185.108 654.228 185.108 652.828 182.408C655.828 184.208 655.828 184.208 658.828 186.008C658.728 183.008 658.728 183.008 658.628 180.008C662.128 180.608 662.128 180.608 665.628 181.208C664.628 184.208 664.628 184.208 663.628 187.208C666.428 186.008 666.428 186.008 669.228 184.808C668.228 187.808 668.228 187.808 667.228 190.808C674.908 192.326 671.169 199.169 678.879 200.984C687.427 202.995 678.148 185.859 674.429 182.808C682.179 175.61 668.755 182.857 682.429 170.407C684.829 173.207 684.829 173.207 687.229 176.007C688.229 174.807 688.229 174.807 689.229 173.607C690.529 175.007 690.529 175.007 691.829 176.407C693.029 175.007 693.029 175.007 694.229 173.607C708.302 181.113 738.681 168.261 747.232 180.808C721.631 181.608 721.631 181.608 696.029 182.408C704.066 192.085 700.882 192.261 714.368 192.083C722.607 191.974 730.803 189.974 739.031 190.408C745.625 190.756 751.965 193.075 758.432 194.408C760.965 181.708 764.743 169.199 769.633 157.207C752.232 156.207 752.232 156.207 734.831 155.207C741.42 150.15 751.335 152.442 759.632 152.806C758.717 150.62 759.129 147.019 756.888 146.246C750.426 144.018 743.25 145.286 736.431 144.806C736.531 144.006 736.531 144.006 736.631 143.206C744.251 142.843 752.362 142.922 759.232 139.606C762.575 148.9 759.781 145.766 766.032 150.206C771.697 145.547 773.119 137.51 775.633 130.806ZM759.632 131.206C756.309 139.783 744.084 136.284 736.431 136.006C741.504 129.083 751.801 131.206 759.632 131.206ZM408.817 149.606C402.558 145.225 396.723 138.361 392.217 132.406C402.897 130.982 406.393 141.031 408.817 149.606ZM420.618 160.407C423.958 151.782 421.87 141.712 421.218 132.806C424.942 134.154 426.902 138.326 429.818 141.006C439.307 149.727 456.022 154.288 446.419 167.207C459.609 167.517 471.825 167.034 479.295 179.208C473.335 181.001 466.914 177.914 460.719 177.308C447.012 175.965 434.715 182.894 429.856 196.033C441.047 201.043 452.209 213.171 465.82 208.609C472.12 206.497 482.445 197.005 484.12 200.658C489.669 212.759 492.787 226.335 500.871 236.91C506.547 244.335 509.918 240.201 509.022 247.61C508.069 255.481 497.747 246.41 494.146 249.186C490.346 252.114 487.8 256.532 483.82 259.211C480.421 261.499 476.438 263.006 472.42 263.811C438.429 270.621 422.858 248.012 403.292 223.184C407.101 221.293 410.801 219.167 414.718 217.509C423.402 213.834 427.213 212.622 416.818 210.434C408.845 208.755 403.302 203.055 398.817 196.808C397.217 207.409 397.217 207.409 395.617 218.009C390.901 216.119 369.743 211.66 370.016 200.808C370.202 193.389 370.449 185.853 372.266 178.658C375.399 166.248 377.149 152.036 386.016 142.806C390.089 148.507 386.499 156.197 389.917 162.457C393.798 169.567 406.587 165.018 408.08 175.207C409.803 186.976 393.493 196.348 413.467 200.859C416.64 201.575 419.968 201.092 423.218 201.209C423.618 198.608 423.618 198.608 424.018 196.008C395.646 195.576 412.109 182.379 420.618 160.407ZM720.618 133.856C722.778 141.29 721.903 137.507 723.231 145.206C716.265 145.864 709.16 146.094 702.43 148.006C707.786 155.322 719.125 147.124 722.431 152.806C713.466 154.371 704.298 155.237 695.629 158.007C698.503 165.32 708.652 164.481 714.868 164.332C726.064 164.063 737.244 163.315 748.432 162.807C740.231 176.993 703.176 164.857 689.229 166.407C689.794 164.974 691.185 162.135 689.679 161.807C685.307 160.854 677.75 168.619 679.529 157.607C679.9 155.306 684.015 154.009 685.179 153.406C683.804 152.106 683.804 152.106 682.429 150.806C684.56 150.219 684.56 150.219 686.692 149.631C686.26 146.549 686.912 148.162 683.629 145.406C688.346 142.262 685.939 143.651 690.829 141.206C692.129 146.206 692.129 146.206 693.429 151.206C697.627 149.339 701.185 144.341 705.13 143.256C710.29 141.838 715.764 143.815 721.031 142.806C716.878 134.474 706.002 141.543 702.83 134.406C714.078 133.281 708.151 133.537 720.618 133.856ZM687.229 134.806C687.458 138.234 687.358 139.067 684.029 140.006C684.727 137.051 684.901 136.552 687.229 134.806ZM504.821 135.606C503.207 149.629 502.3 163.009 488.021 168.007C491.266 160.963 495.729 138.428 504.821 135.606ZM163.207 154.607C161.723 153.889 160.259 153.122 158.857 152.256C157.122 151.186 155.453 150.008 153.807 148.806C136.32 136.046 161.082 131.63 161.607 141.606C160.207 141.606 160.207 141.606 158.807 141.606C159.685 148.581 168.92 147.882 170.407 156.807C167.822 156.483 165.584 155.757 163.207 154.607ZM355.215 138.806C364.291 143.066 363.664 159.993 365.215 168.007C354.486 163.238 355.775 148.6 355.215 138.806ZM556.424 140.006C560.64 151.504 556.393 164.533 545.623 170.407C548.518 161.268 551.064 148.939 556.424 140.006ZM518.822 141.206C517.888 154.469 512.121 172.201 496.821 173.207C502.04 165.052 510.665 143.925 518.822 141.206ZM391.217 146.806C396.143 147.791 397.332 152.124 391.217 152.406C391.217 149.606 391.217 149.606 391.217 146.806ZM153.206 152.406C151.006 156.007 151.006 156.007 148.806 159.607C156.318 163.056 158.721 164.794 161.607 172.407C149.807 167.491 120.887 145.72 153.206 152.406ZM668.366 150.369C670.571 154.277 668.987 156.479 664.428 155.807C665.15 153.24 666.35 152.102 668.366 150.369ZM630.027 152.806C632.696 152.96 633.758 152.83 634.027 155.607C631.896 155.133 630.636 155.033 630.027 152.806ZM651.628 152.806C655.994 154.844 655.378 155.042 656.828 160.007C653.159 158.243 652.65 156.554 651.628 152.806ZM20.4009 155.207C24.2844 158.29 28.8498 160.67 32.0514 164.457C34.5554 167.419 34.3167 172.233 37.0891 174.945C49.414 187.002 65.399 184.613 80.4534 182.508C83.4154 190.542 89.5631 197.058 93.2039 204.809C96.2884 211.375 97.4708 218.676 99.6042 225.61C86.7783 227.795 81.6026 226.869 71.2405 235.86C57.6367 247.664 41.3666 259.71 36.1515 276.949C32.2993 289.684 29.9973 302.845 27.5012 315.913C24.1106 333.664 32.1442 332.267 48.222 334.906C47.7487 337.609 46.6374 340.275 46.802 343.015C46.9728 345.858 50.6022 348.735 49.2021 351.215C45.3781 357.989 38.2683 362.282 32.8014 367.816C41.0684 377.883 51.2349 386.653 57.6024 398.017C59.9081 402.132 57.1877 407.474 57.6524 412.167C60.171 437.605 46.1604 431.159 32.6514 445.519C25.527 453.092 29.1157 459.643 20.0008 468.42C20.2009 311.813 20.2009 311.813 20.4009 155.207ZM511.622 174.407C516.72 168.952 519.082 157.854 526.822 155.607C524.452 171.605 518.918 184.592 501.221 182.808C504.388 179.641 508.56 177.683 511.622 174.407ZM408.417 166.807C403.754 165.053 397.63 163.413 402.217 157.807C407.861 159.215 407.544 162.72 408.417 166.807ZM678.029 157.607C675.968 160.011 674.975 159.97 671.628 160.807C673.293 157.478 674.32 156.595 678.029 157.607ZM542.023 161.607C539.017 173.629 536.432 188.368 522.172 190.208C518.292 190.709 516.597 190.274 514.822 186.808C526.495 181.805 529.388 161.607 542.023 161.607ZM665.228 161.407C678.3 162.512 656.078 173.835 661.503 162.182C662.405 160.244 663.169 161.233 665.228 161.407ZM154.007 186.808C149.197 185.09 121.493 170.964 133.006 165.207C141.61 165.167 155.027 181.364 154.007 186.808ZM560.824 164.007C558.514 180.175 552.412 184.9 536.823 188.408C540.14 179.563 553.122 168.885 560.824 164.007ZM254.711 173.807C261.92 192.551 241.961 210.626 244.96 190.908C246.141 183.146 244.746 174.551 248.411 167.607C250.025 164.548 253.529 170.734 254.711 173.807ZM678.029 170.807C675.099 171.042 672.362 171.109 671.628 167.807C675.159 166.63 676.284 167.67 678.029 170.807ZM242.41 187.608C230.413 187.708 225.461 189.583 214.809 191.208C220.595 168.064 234.791 159.193 242.41 187.608ZM658.028 168.407C656.87 172.514 653.749 172.159 650.028 172.407C652.278 169.068 654.07 168.675 658.028 168.407ZM697.23 170.007C700.935 170.761 699.55 169.826 701.63 172.407C699.401 172.184 697.895 172.346 697.23 170.007ZM665.028 170.807C667.798 174.145 667.381 174.501 665.428 178.408C663.532 175.601 664.217 174.054 665.028 170.807ZM609.226 178.408C606.517 186.309 599.229 187.123 592.025 188.408C588.575 180.645 604.713 178.558 609.226 178.408ZM148.006 200.008C147.139 199.623 110.345 182.966 129.005 179.008C133.495 179.129 148.241 196.484 148.006 200.008ZM481.22 191.208C470.638 188.827 459.422 187.034 449.219 183.208C454.766 178.354 480.417 182.375 481.22 191.208ZM490.821 186.408C501.613 190.905 504.14 211.454 505.421 220.609C492.96 215.478 492.754 197.236 490.821 186.408ZM583.225 186.808C578.41 199.327 566.332 202.239 553.623 198.608C557.494 194.184 576.732 187.19 583.225 186.808ZM626.026 187.608C621.345 195.188 612.26 198.059 604.026 199.208C610.246 190.443 615.335 188.345 626.026 187.608ZM448.019 188.008C452.134 188.419 452.019 190.165 452.019 194.008C447.952 194.008 448.257 191.578 448.019 188.008ZM500.821 188.008C504.594 189.266 518.022 194.933 518.022 198.808C508.57 198.641 502.557 198.421 500.821 188.008ZM647.227 189.208C646.605 192.206 646.366 193.286 643.227 193.608C644.757 189.273 643.295 190.612 647.227 189.208ZM239.01 196.208C229.45 200.234 217.228 204.972 207.209 207.609C211.431 202.922 235.697 179.641 239.01 196.208ZM138.406 211.209C132.144 210.07 112.331 199.626 123.605 192.208C128.615 191.848 138.406 207.493 138.406 211.209ZM603.226 190.808C599.512 199.473 588.199 204.922 579.625 207.209C587.474 197.84 591.044 192.241 603.226 190.808ZM459.219 204.409C461.02 201.709 461.02 201.709 462.82 199.008C472.172 189.612 473.955 200.941 459.219 204.409ZM632.827 193.608C630.203 202.005 623.419 208.859 614.426 209.609C616.945 202.052 625.359 195.658 632.827 193.608ZM676.829 193.608C679.378 195.446 679.33 195.821 679.629 198.808C676.385 196.98 676.487 197.028 676.829 193.608ZM638.427 201.209C637.599 209.074 634.317 215.54 625.626 216.409C628.684 210.654 631.102 202.07 638.427 201.209ZM543.623 204.009C526.63 216.753 493.99 205.439 528.022 201.809C537.718 202.26 540.557 203.374 543.623 204.009ZM234.41 202.009C239.969 203.398 242.078 207.137 235.91 209.484C234.705 204.563 235.207 207.055 234.41 202.009ZM252.461 205.359C255.878 213.647 262.475 221.772 261.511 230.685C261.147 234.049 252.611 236.727 252.423 236.86C245.691 241.632 249.225 251.616 236.41 246.41C236.527 251.145 237.912 255.785 239.223 260.336C231.779 264.903 231.535 274.862 223.009 277.662C219.01 278.975 214.125 276.698 210.809 274.812C201.619 269.582 192.373 264.423 183.508 258.661C180.42 256.654 186.276 251.832 187.508 248.361C191.072 238.319 193.315 227.209 198.621 217.872C200.076 215.311 207.278 216.627 208.659 217.259C227.608 225.935 221.877 223.508 241.61 221.209C236.805 212.199 242.859 206.151 252.461 205.359ZM608.426 204.409C605.307 211.893 594.774 216.163 587.225 216.409C592.084 207.575 598.651 204.633 608.426 204.409ZM582.425 212.409C573.042 220.939 556.277 214.5 545.623 212.809C554.657 201.864 571.361 208.475 582.425 212.409ZM229.21 219.409C223.341 223.811 217.059 216.957 212.409 213.609C231.624 208.805 217.198 203.243 229.21 219.409ZM131.293 222.009C123.937 223.939 115.263 216.958 118.805 209.209C125.142 208.401 129.406 217.157 131.293 222.009ZM400.017 210.409C404.908 212.542 407.617 211.996 407.617 216.809C402.435 216.562 400.524 215.481 400.017 210.409ZM640.427 213.209C641.074 219.678 636.622 228.361 630.027 230.01C632.751 223.217 634.079 217.018 640.427 213.209ZM510.022 213.609C515.336 215.523 520.701 217.973 526.397 218.647C533.676 219.507 546.528 212.367 550.823 221.209C537.636 221.209 516.037 233.66 510.022 213.609ZM608.688 215.209C607.682 222.874 595.076 229.464 588.225 226.61C592.485 219.593 600.992 216.405 608.688 215.209ZM579.625 223.209C576.448 230.197 554.681 230.811 550.823 225.41C558.504 218.689 570.809 220.004 579.625 223.209ZM619.826 221.409C615.478 229.339 606.651 235.52 598.425 238.81C602.392 229.886 609.292 221.409 619.826 221.409ZM114.005 222.809C120.812 223.566 127.605 230.909 127.605 237.61C119.826 236.054 113.202 231.641 114.005 222.809ZM502.021 225.61C514.981 227.23 519.397 244.083 533.223 244.81C529.853 263.904 503.239 227.588 502.021 225.61ZM623.226 225.81C629.097 234.196 617.94 239.085 611.626 241.61C615.193 236.326 618.556 230.241 623.226 225.81ZM552.423 238.81C543.471 238.77 518.263 243.279 515.822 227.41C523.448 227.305 550.386 226.589 552.423 238.81ZM557.624 232.81C574.424 233.01 574.424 233.01 591.225 233.21C582.745 245.93 566.815 242.708 557.624 232.81ZM608.176 241.76C601.749 250.645 593.588 250.955 583.225 251.211C588.069 245.192 600.924 241.497 608.176 241.76ZM576.424 247.21C567.883 254.329 550.83 251.462 541.223 249.811C549.347 239.365 566.049 244.933 576.424 247.21ZM78.7033 258.011C87.4604 249.835 103.794 242.718 116.005 245.21C106.128 252.266 92.6599 250.859 83.2035 259.473C77.8815 264.322 63.5626 281.449 58.0025 280.512C53.1848 279.7 53.2314 275.387 54.8023 271.712C59.9979 259.554 67.3583 249.954 80.8034 247.61C79.5125 252.774 74.6551 252.447 70.803 255.811C65.2173 260.689 61.994 266.607 60.0025 273.612C67.9125 272.376 74.5444 261.894 78.7033 258.011ZM578.024 257.611C575.219 260.229 572.053 261.831 573.424 265.811C566.644 262.919 559.6 260.509 553.223 256.811C565.624 257.211 565.624 257.211 578.024 257.611ZM528.022 260.011C535.154 266.46 539.244 266.251 545.623 274.012C546.523 271.812 546.523 271.812 547.423 269.611C552.323 272.012 552.323 272.012 557.224 274.412C557.924 273.012 557.924 273.012 558.624 271.611C563.924 274.012 563.924 274.012 569.224 276.412C569.324 274.612 569.324 274.612 569.424 272.812C574.224 275.012 574.224 275.012 579.025 277.212C578.925 274.812 578.925 274.812 578.824 272.412C582.225 273.212 582.225 273.212 585.625 274.012C585.625 271.812 585.625 271.812 585.625 269.611C589.625 270.411 589.625 270.411 593.625 271.211C593.825 268.811 593.825 268.811 594.025 266.411C600.65 268.078 607.766 268.406 613.901 271.411C627.659 278.151 640.422 286.802 653.128 295.363C658.375 298.898 663.975 302.447 667.628 307.613C680.06 325.194 691.806 343.461 700.93 362.965C705.034 371.738 705.574 381.813 706.83 391.417C711.326 425.795 705.519 455.037 692.029 486.821C681.903 510.679 668.083 536.829 645.852 551.723C635.445 558.697 624.654 565.364 613.026 570.024C603.239 573.947 592.681 578.577 582.225 577.224C576.606 576.498 575.755 567.451 570.874 564.574C562.725 559.77 553.681 554.66 544.223 554.823C535.903 554.967 529.632 563.17 521.622 565.424C512.887 567.882 503.677 569.104 494.608 568.787C490.574 568.645 486.015 567.2 483.445 564.086C479.019 558.722 484.59 550.087 483.47 543.223C482.83 539.297 479.57 536.289 477.62 532.823C481.62 533.623 481.62 533.623 485.621 534.423C482.261 520.25 468.27 519.641 490.271 511.022C493.846 515.922 493.846 515.922 497.421 520.822C499.621 516.422 499.621 516.422 501.821 512.022C502.915 515.346 504.032 519.626 507.246 521.01C509.534 516.916 509.534 516.916 511.822 512.822C516.259 516.289 519.948 521.028 525.135 523.222C535.661 527.676 541.143 509.461 528.822 506.421C524.16 505.271 519.222 506.155 514.422 506.021C516.022 501.621 516.022 501.621 517.622 497.221C511.622 499.421 511.622 499.421 505.621 501.621C507.821 498.021 507.821 498.021 510.022 494.421C504.821 495.021 504.821 495.021 499.621 495.621C500.45 489.478 497.344 482.976 493.621 478.02C503.621 481.82 503.621 481.82 513.622 485.621C510.622 480.22 510.622 480.22 507.621 474.82C513.147 478.295 513.147 478.295 518.672 481.77C520.943 476.944 520.762 479.523 518.422 474.02C522.222 474.02 526.549 475.951 529.822 474.02C534.015 471.547 535.556 466.153 538.423 462.22C532.942 455.265 522.284 458.09 516.022 462.82C516.022 459.619 516.022 459.619 516.022 456.419C508.337 458.488 511.752 456.284 506.821 464.42C505.993 456.845 508.173 458.648 502.734 456.982C499.577 463.501 499.577 463.501 496.421 470.02C496.148 465.058 488.292 455.16 483.62 454.019C485.521 448.619 485.521 448.619 487.421 443.219C481.72 445.419 481.72 445.419 476.02 447.619C483.853 440.408 481.704 444.606 483.67 435.718C479.845 436.068 479.845 436.068 476.02 436.418C477.22 432.752 479.693 429.276 479.62 425.418C479.543 421.31 476.937 417.651 475.595 413.768C464.61 414.888 467.179 424.563 466.82 433.618C462.128 432.243 462.128 432.243 457.435 430.868C461.328 437.244 461.328 437.244 465.22 443.619C461.02 443.219 461.02 443.219 456.819 442.819C457.565 447.346 461.497 450.856 464.82 454.019C455.096 455.163 446.449 459.438 444.819 470.42C441.488 468.114 440.681 463.358 439.544 459.469C436.342 460.192 434.954 464.474 434.018 467.62C429.871 460.252 426.666 450.123 423.618 461.22C393.382 452.905 413.08 411.665 415.418 391.417C416.103 385.479 414.901 379.474 414.643 373.503C430.636 374.713 433.314 394.792 449.369 396.017C458.023 396.677 466.971 397.943 475.408 395.904C480.936 394.569 483.955 387.488 489.521 386.316C500.807 383.94 512.725 387.987 524.122 386.216C518.679 377.078 503.411 381.008 492.821 380.016C512.851 366.225 536.241 352.859 546.823 330.964C550.356 323.653 555.708 316.101 554.986 308.013C553.995 296.918 548.816 286.04 542.023 277.212C539.262 273.623 532.882 276.017 528.822 274.012C526.898 273.061 527.112 269.304 525.022 268.811C521.913 268.078 518.216 268.98 515.672 270.911C508.771 276.15 503.638 283.379 497.621 289.612C503.865 272.703 512.624 268.593 528.022 260.011ZM104.404 262.811C102.089 265.127 102.672 264.7 98.7042 267.261C83.4742 277.093 68.2054 286.865 52.8897 296.563C46.4867 300.617 44.3488 288.985 43.6018 285.612C67.5453 301.175 81.1049 262.811 104.404 262.811ZM434.418 271.611C423.396 272.897 412.936 273.932 402.417 277.412C404.446 266.254 431.277 259.046 434.418 271.611ZM158.807 268.811C156.486 275.774 148.17 277.742 143.606 283.212C140.075 287.444 138.314 292.883 135.681 297.725C133.622 301.511 123.205 301.132 121.755 301.463C105.376 305.201 102.201 302.235 85.6036 295.613C113.682 270.627 125.053 269.5 158.807 268.811ZM425.968 280.262C427.237 279.867 439.03 273.714 441.369 275.099C445.053 277.281 447.965 280.564 451.369 283.162C457.955 288.187 463.018 285.966 465.22 295.212C454.635 294.315 445.113 278.743 433.818 282.862C420.911 287.569 410.445 291.792 396.617 292.112C393.46 292.185 381.216 293.46 381.216 288.012C398.805 288.292 408.184 285.802 425.968 280.262ZM511.222 332.214C512.116 315.521 497.691 306.117 506.571 290.062C510.969 282.112 515.276 277.013 524.422 276.412C520.622 289.612 520.622 289.612 516.822 302.813C517.239 302.197 538.365 265.996 540.71 284.037C541.209 287.871 528.33 304.258 526.822 313.213C531.556 306.88 535.902 300.237 541.023 294.212C542.435 292.551 543.919 293.236 545.423 293.612C546.158 305.377 535.61 312.819 530.422 322.814C535.777 316.818 540.738 310.445 546.486 304.825C546.947 304.374 547.954 304.772 548.373 305.263C551.554 308.987 546.52 314.857 545.223 317.713C536.783 336.309 529.716 358.365 506.421 360.415C507.661 350.961 510.711 341.736 511.222 332.214ZM270.186 306.775C265.783 305.572 254.611 300.054 256.348 293.762C256.962 291.54 261.964 291.142 263.711 289.962C264.463 289.455 273.811 282.141 277.612 280.812C283.348 278.806 290.528 279.861 296.413 280.012C292.553 290.305 278.222 288.497 272.412 297.213C279.222 296.471 284.415 292.745 291.212 291.612C289.309 300.497 280.256 309.528 270.186 306.775ZM171.207 335.814C172.219 328.928 174.85 322.373 176.995 315.751C180.598 304.626 188.158 275.893 205.009 282.212C196.827 294.484 186.548 300.409 182.858 314.813C180.646 323.448 182.409 334.046 176.607 340.814C175.73 340.229 170.961 337.488 171.207 335.814ZM345.215 280.812C346.776 281.92 348.654 282.836 349.615 284.612C353.607 291.99 357.285 299.534 361.253 306.925C368.764 320.917 381.998 330.562 389.616 344.415C366.287 334.808 349.69 304.683 345.215 280.812ZM229.21 300.413C221.99 296.919 214.336 294.074 207.809 289.412C216.613 288.434 225.733 291.721 229.21 300.413ZM471.62 294.012C473.541 292.463 475.576 296.973 477.42 298.613C480.428 301.286 479.669 308.088 479.62 311.213C479.558 315.2 479.391 319.186 479.12 323.164C477.591 345.644 478.46 361.925 461.02 376.616C458.898 378.403 453.742 381.618 450.619 380.666C449.731 380.396 444.924 376.581 445.619 375.016C449.284 366.757 455.089 359.618 459.469 351.715C467.894 336.514 469.616 320.626 471.22 303.613C471.521 300.424 469.127 296.023 471.62 294.012ZM202.809 315.613C175.685 309.233 205.47 287.01 206.809 304.413C202.809 304.413 202.809 304.413 198.808 304.413C200.142 313.813 214.909 309.601 215.209 318.413C211.076 317.48 206.934 316.584 202.809 315.613ZM484.02 356.815C491.92 341.287 484.622 313.199 482.82 297.213C520.654 306.534 498.382 358.363 482.42 378.816C480.81 380.88 471.673 378.266 468.42 378.416C472.394 370.32 479.826 365.061 484.02 356.815ZM317.613 309.413C322.55 323.54 312.669 343.299 307.05 355.065C298.676 372.603 255.258 382.743 259.811 358.215C269.144 360.03 278.975 369.53 289.262 363.978C303.13 356.494 302.88 353.447 306.913 340.202C308.701 334.329 311.534 336.637 309.563 328.514C308.894 325.756 304.834 324.302 303.663 322.614C293.387 307.793 302.511 310.195 283.612 310.013C290.591 296.055 311.962 293.24 317.613 309.413ZM222.959 318.113C227.413 310.528 230.053 299.589 239.61 301.613C226.413 326.388 224.43 322.757 224.009 353.215C221.609 353.215 221.609 353.215 219.209 353.215C219.28 343.274 217.189 327.942 222.959 318.113ZM103.998 310.323C119.247 316.549 141.502 291.521 136.606 321.614C136.185 324.2 135.283 326.704 134.256 329.114C131.41 335.787 128.331 342.367 125.005 348.815C118.361 361.696 111.306 374.361 104.354 387.079C103.97 387.782 102.264 390.53 101.052 390.427C97.9121 390.158 93.6562 387.553 91.1539 385.716C77.7824 375.903 53.2425 360.619 58.2025 340.214C61.5193 326.569 63.9876 313.328 75.8032 305.813C86.9641 298.714 91.8228 305.352 103.998 310.323ZM225.747 305C220.939 309.977 216.717 309.427 209.609 310.013C213.059 301.634 217.726 302.84 225.747 305ZM246.41 362.415C246.41 353.15 250.96 342.899 253.161 333.864C255.094 325.926 254.155 316.826 256.611 309.213C270.75 319.425 255.767 352.248 246.41 362.415ZM284.412 312.813C284.922 330.15 276.415 331.274 275.612 314.413C280.023 316.304 281.199 316.383 284.412 312.813ZM295.613 315.613C295.413 318.013 295.413 318.013 295.212 320.414C297.213 320.214 297.213 320.214 299.213 320.014C297.271 326.809 295.059 328.733 288.012 329.614C288.299 324.156 289.761 317.564 295.613 315.613ZM212.809 329.614C182.519 329.949 212.32 340.278 212.809 347.615C204.904 346.944 185.061 347.752 182.808 337.614C195.299 341.043 198.02 328.149 185.208 326.014C187.649 316.858 212.094 322.591 212.809 329.614ZM325.214 320.014C334.224 325.087 344.96 328.467 351.515 336.464C338.15 345.127 322.258 335.287 325.214 320.014ZM267.411 321.214C281.464 328.453 269.267 337.878 264.011 325.614C265.011 325.614 265.011 325.614 266.011 325.614C266.711 323.414 266.711 323.414 267.411 321.214ZM124.305 360.565C129.835 348.732 135.325 336.876 141.206 325.214C142.476 322.695 142.833 323.006 144.806 322.814C141.446 341.708 132.338 359.525 123.605 376.416C121.193 381.081 116.046 396.304 108.005 396.817C112.787 384.452 118.695 372.569 124.305 360.565ZM282.262 343.315C276.221 344.736 273.87 334.064 278.412 332.414C284.738 330.115 289.267 341.666 282.262 343.315ZM303.213 332.014C302.041 334.944 302.031 336.048 303.413 338.927C298.913 340.558 295.761 340.66 290.812 340.814C291.371 333.251 296.074 332.833 303.213 332.014ZM150.006 332.414C157.447 341 139.944 367.203 136.006 375.016C133.298 380.387 126.912 398.237 118.405 402.817C128.8 379.288 136.964 354.586 150.006 332.414ZM263.611 332.814C275.398 335.621 276.559 340.528 262.811 341.214C265.298 338.313 264.622 336.352 263.611 332.814ZM335.214 340.614C330.852 346.166 313.251 348.454 320.214 340.014C325.997 337.81 331.102 338.687 335.214 340.614ZM142.406 373.416C151.554 352.801 163.944 342.724 185.279 352.232C191.51 355.009 198.213 358.254 201.383 364.645C205.169 372.28 198.264 389.56 190.408 392.417C190.816 388.79 189.966 384.496 192.208 381.616C193.202 380.34 198.613 376.196 198.908 373.066C199.065 371.409 198.931 369.638 198.258 368.116C193.086 356.406 189.2 367.464 180.808 364.765C172.996 362.253 165.945 351.944 157.207 356.415C148.555 360.842 143.67 399.295 154.969 405.48C164.164 410.513 175.403 407.274 184.808 405.217C181.227 426.402 139.125 409.053 128.405 406.017C133.072 395.15 137.609 384.226 142.406 373.416ZM267.611 353.215C267.611 351.215 267.611 351.215 267.611 349.215C265.211 349.215 265.211 349.215 262.811 349.215C266.534 337.566 287.093 344.866 267.611 353.215ZM289.412 344.615C293.132 345.731 298.077 346.879 300.813 349.615C295.669 349.895 295.758 351.076 296.413 356.015C290.108 354.012 286.133 351.643 289.412 344.615ZM367.191 364.115C364.545 359.58 365.363 356.828 367.216 352.015C376.194 338.736 377.052 358.181 367.191 364.115ZM349.215 346.015C347.687 353.464 344.204 368.87 340.814 353.615C332.839 362.021 340.152 360.481 343.515 366.216C345.344 369.335 345.287 375.867 345.615 378.816C348.815 377.616 348.815 377.616 352.015 376.416C350.015 373.516 350.015 373.516 348.015 370.616C352.407 364.717 356.739 372.192 357.078 377.153C357.411 382.038 350.033 384.018 346.015 386.816C338.014 369.616 338.014 369.616 330.014 352.415C336.371 350.155 342.778 348.034 349.215 346.015ZM359.665 357.515C359.813 362.25 364.644 364.467 364.815 370.816C354.716 364.538 347.11 360.614 355.415 349.615C366.683 339.355 359.621 356.105 359.665 357.515ZM286.012 361.615C284.012 360.415 284.012 360.415 282.012 359.215C281.512 360.815 281.512 360.815 281.012 362.415C270.215 355.217 285.682 335.18 286.012 361.615ZM382.416 351.615C390.463 352.75 391.035 355.696 396.817 362.815C396.817 360.015 396.817 360.015 396.817 357.215C417.564 364.684 398.822 392.068 381.016 387.616C386.985 380.869 391.217 380.643 391.217 371.616C384.414 375.709 378.006 380.89 370.416 383.216C369.444 372.209 381.804 363.254 382.416 351.615ZM325.764 373.466C322.55 367.832 311.418 358.393 323.001 355.94C327.357 365.423 349.482 394.767 335.264 394.767C332.726 387.679 329.495 380.008 325.764 373.466ZM203.609 380.416C204.386 376.609 203.763 358.415 212.009 358.415C211.385 377.125 206.076 405.282 187.208 414.418C191.657 402.554 201.028 393.058 203.609 380.416ZM222.772 363.553C225.825 371.818 216.111 391.855 209.409 397.217C211.009 388.016 211.009 388.016 212.609 378.816C215.013 369.146 219.522 354.755 222.772 363.553ZM311.213 364.015C313.696 367.988 315.597 369.385 311.113 371.666C304.237 375.164 297.313 378.566 290.412 382.016C293.709 372.951 303.545 368.999 311.213 364.015ZM206.409 430.818C205.951 426.239 201.253 419.134 205.059 414.318C208.517 409.94 213.597 406.835 216.409 402.017C221.549 393.211 224.365 383.237 228.61 373.966C232.173 366.184 236.599 366.458 244.41 367.016C242.85 370.76 238.125 373.834 238.76 378.316C239.631 384.465 248.494 385.616 247.41 392.017C241.843 424.913 224.398 435.291 194.008 445.219C194.339 432.256 206.951 436.244 206.409 430.818ZM186.008 376.816C182.601 377.1 176.73 376.641 174.12 379.579C170.232 383.954 175.901 390.447 167.207 390.817C168.786 376.607 167.338 376.128 153.406 376.016C160.131 364.668 181.572 362.121 186.008 376.816ZM301.613 392.017C290.528 397.559 297.926 386.864 302.813 383.816C308.485 380.278 307.957 380.182 313.813 377.616C333.506 368.987 304.538 390.554 301.613 392.017ZM466.22 380.416C469.891 382.339 474.309 382.287 478.42 382.816C473.424 387.203 469.411 387.175 463.62 384.016C465.009 381.515 464.164 382.729 466.22 380.416ZM322.814 385.216C320.427 395.361 310.68 404.038 300.413 405.617C301.423 394.504 313.29 389.814 322.814 385.216ZM96.5041 410.217C82.5059 416.128 57.2856 389.195 77.9033 386.966C81.5011 397.76 78.1371 397.66 90.4038 401.617C89.1829 396.733 90.3295 399.7 85.2036 393.617C90.3882 396.079 96.0033 398.227 100.404 402.017C98.6816 404.601 99.6932 408.871 96.5041 410.217ZM405.617 387.216C410.955 387.192 398.168 406.993 394.417 408.817C380.958 415.365 385.59 398.402 394.417 393.017C398.006 390.827 401.413 387.236 405.617 387.216ZM150.406 390.417C152.61 390.784 162.662 389.784 163.807 390.717C167.365 393.615 173.16 399.518 176.107 391.267C180.139 391.367 182.446 394.293 184.808 397.217C178.008 401.017 178.008 401.017 171.207 404.817C171.207 402.217 171.207 402.217 171.207 399.617C160.176 399.915 156.309 399.861 150.406 390.417ZM315.613 414.168C312.465 417.378 304.301 416.446 308.613 411.617C311.472 408.416 314.806 405.67 318.013 402.817C339.473 383.732 323.616 406.007 315.613 414.168ZM270.811 408.017C275.976 410.297 276.012 411.544 276.012 416.818C272.412 416.618 272.412 416.618 268.811 416.418C269.811 412.217 269.811 412.217 270.811 408.017ZM378.016 408.017C381.021 409.477 382.146 412.486 384.816 414.418C391.791 419.463 399.039 410.695 404.817 408.017C404.817 425.345 374.713 429.489 378.016 408.017ZM281.612 410.817C285.344 412.77 288.213 413.858 286.212 418.193C281.613 417.474 281.612 415.054 281.612 410.817ZM76.0032 412.817C75.5485 417.364 75.9282 415.518 75.2032 418.418C78.2033 418.418 78.2033 418.418 81.2034 418.418C75.3063 433.582 63.0046 416.641 76.0032 412.817ZM258.798 413.43C260.159 417.714 259.617 415.52 260.411 420.018C256.611 419.618 256.611 419.618 252.811 419.218C254.612 416.967 256.005 414.376 258.798 413.43ZM400.881 436.618C395.146 442.761 372.015 444.032 367.416 435.368C365.067 430.944 371.598 423.727 372.416 418.818C377.425 420.677 378.423 426.281 379.879 430.743C375.607 430.841 377.694 430.962 373.616 430.418C375.627 438.562 378.055 435.734 384.516 433.968C391.265 432.124 392.601 441.748 398.817 432.018C376.177 430.195 399.232 423.813 404.417 422.418C403.936 425.868 403.942 433.34 400.881 436.618ZM473.82 419.368C475.933 423.006 475.089 426.672 470.97 427.643C469.927 423.158 469.028 420.726 473.82 419.368ZM92.0039 430.418C86.5782 430.418 85.56 429.223 85.6786 423.768C91.5854 423.678 90.8774 426.123 92.0039 430.418ZM249.211 424.018C254.518 429.272 254.392 426.608 254.011 430.418C248.717 430.418 246.275 429.399 249.211 424.018ZM268.411 424.018C273.477 424.146 276.369 428.706 270.561 430.818C269.129 428.707 268.91 426.511 268.411 424.018ZM157.532 450.744C154.712 455.156 154.94 463.393 149.806 464.42C140.406 466.3 142.393 446.024 144.206 442.219C145.2 440.134 147.273 438.166 149.644 437.794C154.877 436.971 162.887 437.893 167.607 434.418C173.011 430.44 171.977 425.508 179.608 424.418C178.808 432.018 178.808 432.018 178.008 439.619C185.255 439.771 186.949 438.324 187.208 445.219C179.647 444.7 162.816 442.476 157.532 450.744ZM103.954 446.919C101.042 448.411 95.384 453.688 91.2039 453.619C87.8758 453.564 79.4535 446.209 80.2784 442.844C82.3377 434.442 96.1212 436.047 97.2041 425.218C101.471 426.151 105.762 426.981 110.005 428.018C140.906 435.572 131.71 431.352 132.006 454.419C124.898 450.736 113.188 442.187 103.954 446.919ZM285.612 425.218C284.933 430.315 283.963 431.218 278.812 431.218C279.689 425.957 279.977 425.894 285.612 425.218ZM298.413 426.818C297.599 432.588 295.635 431.893 290.412 431.618C291.02 426.755 294.369 426.818 298.413 426.818ZM751.232 436.418C751.232 433.567 751.248 431.722 752.632 429.218C763.401 427.134 755.816 434.971 751.232 436.418ZM82.641 432.281C82.3117 439.573 76.5822 439.512 76.6032 431.418C81.0653 431.418 79.0721 431.018 82.641 432.281ZM246.135 441.944C241.447 439.649 243.608 441.065 239.648 437.706C242.695 431.986 250.395 436.81 246.135 441.944ZM721.969 434.607C731.176 437.046 725.177 448.671 719.23 451.219C719.734 445.934 719.545 439.545 721.969 434.607ZM282.012 436.418C280.843 442.625 279.4 442.419 273.612 442.419C274.153 435.921 274.465 437.047 282.012 436.418ZM70.203 468.77C68.9492 465.243 66.0335 464.922 63.7027 462.27C50.909 447.708 47.6249 449.048 62.4026 436.818C64.4943 448.323 67.0927 456.465 75.2032 465.07C80.4025 470.586 85.7644 475.948 90.9038 481.52C103.394 495.062 76.9049 494.103 70.403 494.421C71.9142 482.06 73.8296 478.97 70.203 468.77ZM297.613 437.619C295.301 443.397 293.463 443.619 287.612 443.619C290.011 438.135 291.658 437.288 297.613 437.619ZM734.519 437.394C735.864 442.351 734.224 443.288 729.631 444.819C730.214 439.862 730.212 439.519 734.519 437.394ZM302.813 439.219C306.013 439.219 306.013 439.219 309.213 439.219C308.507 443.808 307.305 444.656 302.813 445.619C302.813 442.419 302.813 442.419 302.813 439.219ZM225.922 445.069C224.96 442.03 225.15 443.603 225.397 440.344C233.144 440.056 229.099 443.254 225.922 445.069ZM90.8038 465.22C92.2203 486.736 71.8181 451.177 70.803 445.619C67.939 429.939 90.6792 463.326 90.8038 465.22ZM323.214 442.019C323.214 445.019 323.214 445.019 323.214 448.019C313.936 447.854 313.795 442.21 323.214 442.019ZM258.811 444.819C254.565 452.798 250.729 451.118 252.211 443.219C256.881 443.738 254.69 443.17 258.811 444.819ZM383.416 447.219C388.675 447.219 393.777 445.202 399.017 445.819C398.167 448.556 396.254 452.286 394.117 454.169C393.906 454.355 375.958 451.361 373.716 450.969C369.14 450.169 363.115 451.879 360.015 448.419C358.496 446.723 362.286 444.33 363.015 443.819C371.496 444.298 377.737 447.219 383.416 447.219ZM236.16 452.719C230.506 455.95 229.67 448.812 234.21 446.819C240.917 443.875 240.923 449.998 236.16 452.719ZM215.122 453.332C212.366 452.477 211.254 451.033 209.409 448.819C214.66 446.95 220.101 445.917 215.122 453.332ZM270.411 454.419C270.511 452.819 270.511 452.819 270.611 451.219C277.506 446.162 278.921 454.419 270.411 454.419ZM292.412 448.419C291.078 453.758 289.942 454.819 284.412 454.819C285.438 449.209 286.923 448.419 292.412 448.419ZM173.607 448.819C180.26 450.4 180.278 449.98 180.008 456.819C173.501 456.077 173.607 454.798 173.607 448.819ZM743.231 453.219C737.873 452.373 740.529 453.283 735.381 450.169C738.428 448.593 743.231 449.176 743.231 453.219ZM306.413 450.419C306.413 453.619 306.413 453.619 306.413 456.819C302.413 456.819 302.413 456.819 298.413 456.819C299.463 451.22 301.187 450.419 306.413 450.419ZM119.605 457.819C115.938 462.22 109.305 457.039 114.605 452.819C117.417 450.58 122.773 454.018 119.605 457.819ZM168.807 451.219C168.807 455.819 168.807 455.819 168.807 460.419C162.725 457.987 160.732 451.219 168.807 451.219ZM107.405 458.819C103.848 462.443 97.5904 456.5 102.404 453.019C106.715 449.902 111.18 454.973 107.405 458.819ZM188.008 456.019C188.873 461.524 181.314 463.756 182.008 457.019C182.335 453.838 187.161 450.632 188.008 456.019ZM204.859 461.42C201.272 463.336 201.306 455.345 203.009 454.219C208.42 450.642 209.541 458.918 204.859 461.42ZM241.61 462.42C242.035 459.869 242.494 458.051 243.81 455.819C252.988 457.895 245.769 461.231 241.61 462.42ZM321.214 455.619C320.314 458.167 320.414 460.525 320.414 463.22C316.613 462.82 316.613 462.82 312.813 462.42C313.505 457.228 315.028 451.683 321.214 455.619ZM349.115 480.72C347.108 483.216 341.464 482.833 341.464 478.783C341.464 472.094 348.51 461.153 353.615 456.819C364.256 447.787 351.56 477.679 349.115 480.72ZM738.219 464.932C735.759 466.332 722.614 462.025 720.831 461.62C721.681 458.689 722.505 457.668 725.031 456.019C730.862 454.587 748.375 459.151 738.219 464.932ZM226.41 462.42C217.938 463.549 217.571 457.298 225.01 456.019C225.71 459.219 225.71 459.219 226.41 462.42ZM44.5894 464.97C42.1997 463.609 42.2909 457.185 44.2019 456.819C53.6616 455.011 47.6638 466.72 44.5894 464.97ZM333.614 462.82C330.014 463.02 330.014 463.02 326.414 463.22C326.889 455.615 333.085 454.876 333.614 462.82ZM367.816 457.619C365.762 467.086 363.734 478.328 357.713 486.193C350.845 480.083 360.074 460.597 367.816 457.619ZM376.277 458.882C384.799 476.006 365.596 504.444 369.066 481.92C369.606 478.413 370.232 474.92 370.816 471.42C373.613 460.386 372.189 462.671 376.277 458.882ZM59.4025 462.42C61.3563 466.136 52.9773 466.924 51.6022 461.02C50.4914 456.25 58.2326 460.194 59.4025 462.42ZM467.82 465.22C471.64 474.769 461.625 468.966 459.819 463.42C456.658 453.705 466.129 460.992 467.82 465.22ZM382.416 459.619C389.602 460.172 388.134 471.764 388.416 477.02C388.721 482.685 388.95 488.354 389.216 494.021C378.393 492.93 382.554 465.546 382.416 459.619ZM164.007 461.62C164.007 465.22 164.007 465.22 164.007 468.82C155.716 467.991 154.703 461.977 164.007 461.62ZM177.308 475.67C174.427 482.91 170.747 473.452 171.37 469.957C172.874 461.51 182.083 460.597 182.808 470.02C179.008 468.62 179.008 468.62 175.207 467.22C175.207 470.238 178.404 472.915 177.308 475.67ZM391.617 461.62C401.413 461.62 399.24 487.243 399.617 492.021C389.2 490.418 392.073 468.463 391.617 461.62ZM531.047 462.857C529.441 467.068 526.169 466.225 522.422 464.82C525.158 461.78 527.143 461.909 531.047 462.857ZM101.804 466.42C102.685 473.139 94.6935 472.061 94.404 465.02C94.1911 459.841 101.364 463.059 101.804 466.42ZM118.405 470.02C114.605 469.42 114.605 469.42 110.805 468.82C111.605 473.22 111.605 473.22 112.405 477.62C94.584 474.38 115.25 451.992 118.405 470.02ZM137.606 462.82C142.005 464.656 146.638 466.159 149.806 469.97C155.077 476.309 161.138 483.132 163.757 491.071C166.078 498.106 142.041 502.718 140.006 503.021C135.743 503.656 129.971 475.948 132.206 471.62C136.405 474.003 140.122 477.151 144.006 480.02C141.453 474.021 138.735 469.03 137.606 462.82ZM253.211 463.02C253.411 464.92 253.411 464.92 253.611 466.82C251.711 466.02 251.711 466.02 249.811 465.22C251.999 463.031 250.787 463.625 253.211 463.02ZM270.411 462.82C269.175 469.147 269.041 468.636 262.411 468.82C264.448 464.456 265.467 462.82 270.411 462.82ZM285.612 462.82C284.807 469.659 282.711 469.62 276.412 469.62C277.505 463.607 279.624 462.82 285.612 462.82ZM294.412 462.82C302.925 465.323 300.855 469.62 292.812 469.62C293.612 466.22 293.612 466.22 294.412 462.82ZM407.617 463.22C413.66 463.553 416.441 462.935 418.018 468.82C411.338 468.705 410.381 468.748 407.617 463.22ZM238.81 466.02C236.414 470.384 235.678 474.927 230.41 472.82C232.388 467.875 232.907 464.658 238.81 466.02ZM448.419 465.22C455.291 467.51 457.111 471.54 459.619 478.02C452.032 477.33 449.078 472.474 448.419 465.22ZM714.43 465.22C734.149 469.012 731.134 470.501 715.63 479.62C715.03 472.42 715.03 472.42 714.43 465.22ZM211.346 465.757C213.101 469.954 210.534 470.556 206.809 471.62C206.503 465.932 206.001 466.154 211.346 465.757ZM316.813 468.42C316.613 472.82 316.613 472.82 316.413 477.22C312.413 476.42 312.413 476.42 308.413 475.62C309.915 469.914 310.706 468.038 316.813 468.42ZM332.414 468.42C331.153 472.959 323.446 480.259 324.614 471.42C328.013 467.727 328.594 468.208 332.414 468.42ZM64.0402 468.507C68.9868 469.368 61.8177 482.935 59.4525 474.42C58.8599 472.287 58.8114 470.194 60.6026 469.02C61.5716 468.385 62.8988 468.309 64.0402 468.507ZM490.583 470.145C487.285 475.9 486.124 476.693 479.22 476.82C481.846 471.569 484.523 468.388 490.583 470.145ZM55.6024 475.62C52.0022 475.22 52.0022 475.22 48.402 474.82C50.3195 477.97 51.6181 479.291 49.5146 482.458C32.7158 478.196 55.6024 460.377 55.6024 475.62ZM743.031 476.62C739.31 478.687 735.904 482.288 731.668 483.183C718.632 485.937 724.382 478.943 731.431 474.82C740.206 470.07 741.692 473.272 743.031 476.62ZM166.157 477.27C166.141 482.727 159.007 477.424 158.807 475.02C158.265 468.505 166.167 473.812 166.157 477.27ZM244.01 473.22C243.169 477.008 242.826 480.292 238.41 478.82C239.652 475.922 241.184 474.633 244.01 473.22ZM405.617 472.82C408.629 473.187 418.665 474.183 421.618 475.433C424.381 476.602 415.434 481.778 422.818 482.82C426.468 483.336 428.991 476.53 433.418 475.62C429.284 482.855 431.056 479.24 428.018 486.421C434.161 485.746 430.936 486.673 437.419 482.82C442.811 487.828 441.672 491.258 440.019 498.421C435.056 496.784 433.608 496.324 428.818 497.821C432.418 501.921 432.418 501.921 436.018 506.021C431.952 505.944 427.771 505.263 423.818 506.221C426.857 521.131 417.732 512.431 412.817 524.422C404.129 519.481 395.602 508.454 390.017 502.821C419.158 498.271 405.617 498.305 405.617 472.82ZM102.554 477.12C104.613 480.601 94.5288 482.834 94.004 476.02C93.6115 470.925 100.939 474.389 102.554 477.12ZM255.611 481.22C257.49 475.526 255.699 477.021 259.211 475.22C268.752 476.179 259.247 481.22 255.611 481.22ZM709.618 474.958C711.871 479.548 709.115 485.577 704.43 487.621C705.681 481.9 705.975 479.269 709.618 474.958ZM204.671 478.045C202.485 491.987 196.262 497.474 199.408 480.62C203.309 476.981 201.987 476.972 204.671 478.045ZM297.613 476.82C295.721 482.873 293.965 483.394 288.012 484.02C289.465 477.243 290.369 476.941 297.613 476.82ZM279.212 478.02C277.204 483.039 275.823 484.02 270.411 484.02C270.811 481.02 270.811 481.02 271.211 478.02C275.212 478.02 275.212 478.02 279.212 478.02ZM737.831 486.021C739.068 483.635 738.169 485.025 741.031 482.22C752.81 479.22 745.51 493.699 737.831 486.021ZM171.057 488.471C166.422 491.87 163.533 486.736 167.607 483.02C173.819 477.355 175.902 484.918 171.057 488.471ZM27.5512 488.321C38.286 504.378 46.6915 522.564 64.4027 531.623C53.115 544.693 34.208 512.251 30.8013 505.621C26.7917 497.818 22.7751 489.943 20.0008 481.62C25.3702 483.881 23.5635 482.356 27.5512 488.321ZM313.188 482.158C310.836 490.03 301.193 490.41 305.213 481.22C310.634 480.593 308.405 480.308 313.188 482.158ZM473.82 495.621C467.023 502.232 461.222 488.1 465.42 483.02C472.015 475.039 478.911 490.669 473.82 495.621ZM67.0278 481.283C67.5299 484.948 67.4685 483.102 67.2028 486.821C64.6027 484.821 64.6027 484.821 62.0026 482.82C63.922 481.541 64.7425 480.984 67.0278 481.283ZM110.605 484.471C111.79 487.519 103.613 492.507 104.804 485.421C105.165 483.276 109.079 480.548 110.605 484.471ZM130.006 488.821C127.005 489.021 127.005 489.021 124.005 489.221C125.635 482.702 129.185 480.786 130.006 488.821ZM59.6025 491.621C54.8388 491.478 49.9453 489.236 54.6023 484.22C59.4498 485.973 59.2297 488.266 59.6025 491.621ZM235.81 489.021C234.23 489.478 229.88 488.979 231.335 485.946C231.702 485.18 232.455 484.609 233.21 484.22C237.382 482.076 240.894 487.548 235.81 489.021ZM327.214 483.22C325.682 493.726 315.371 489.955 320.214 484.421C325.34 483.107 323.591 483.22 327.214 483.22ZM496.359 488.621C491.42 494.402 486.456 489.895 482.82 485.421C486.966 480.584 492.532 485.831 496.359 488.621ZM222.459 498.334C205.764 512.302 208.262 498.442 208.609 488.021C208.767 483.268 228.801 493.028 222.459 498.334ZM257.611 488.821C255.843 493.772 254.399 494.345 249.211 494.021C250.979 489.07 252.422 488.496 257.611 488.821ZM714.23 488.683C717.908 492.65 722.537 499.991 721.631 505.621C713.83 502.621 713.83 502.621 706.03 499.621C708.743 495.075 710.431 492.067 714.23 488.683ZM337.164 492.021C338.488 490.967 340.259 489.875 341.914 490.229C354.68 492.958 369.127 495.248 378.416 504.421C386.078 511.988 392.899 520.452 398.967 529.347C399.606 530.284 398.51 531.876 397.517 532.423C390.795 536.119 383.71 539.198 376.466 541.723C369.864 544.024 362.067 543.16 356.128 546.848C352.547 549.071 352.186 554.298 350.215 558.024C357.607 565.933 368.823 570.976 379.616 571.824C421.703 575.132 454.162 566.092 494.021 579.625C336.281 580.025 178.541 581.091 20.8009 580.825C20.0234 580.823 19.6088 579.602 19.6008 578.824C19.341 553.491 19.8675 528.156 20.0008 502.821C30.5621 519.185 42.3315 546.592 65.2028 549.423C73.249 550.419 89.3076 552.331 96.8041 545.023C101.193 540.744 103.004 534.448 106.104 529.16C115.93 532.564 125.416 537.18 135.581 539.373C147.532 541.951 165.098 543.842 173.207 532.023C175.586 528.555 179.511 524.729 178.608 520.622C177.081 513.681 170.732 508.788 166.795 502.871C170.399 500.855 173.581 495.902 177.608 496.821C183.525 498.171 186.052 505.969 191.558 508.522C195.304 510.258 201.78 505.909 203.909 509.447C206.867 514.363 208.2 527.222 216.809 527.222C217.005 536.841 213.87 551.704 222.722 555.474C232.552 559.659 243.24 561.91 253.861 563.074C257.215 563.441 260.204 557.448 263.161 559.074C264.891 560.025 264.591 563.261 266.411 564.024C269.009 565.112 272.124 563.31 274.862 563.974C276.726 564.426 277.696 567.131 279.612 567.224C282.311 567.355 284.584 564.318 287.275 564.574C289.213 564.758 289.833 567.863 291.712 568.374C293.457 568.849 295.246 566.839 297.013 567.224C299.877 567.849 301.907 571.259 304.838 571.237C307.067 571.22 308.059 567.99 310.113 567.124C317.844 563.864 320.84 561.723 329.251 563.661C343.126 541.044 346.72 526.909 321.614 511.822C326.233 505.008 330.548 497.288 337.164 492.021ZM722.031 488.821C731.838 489.801 734.961 496.035 734.769 505.634C725.361 508.34 724.687 495.794 722.031 488.821ZM121.205 491.221C120.601 496.839 121.06 497.072 115.605 497.221C116.731 493.074 117.013 491.687 121.205 491.221ZM273.212 491.621C271.209 498.296 270.212 499.653 263.211 500.021C265.465 491.326 264.868 491.78 273.212 491.621ZM458.419 491.621C455.862 497.818 451.256 497.621 445.219 497.621C447.715 491.381 452.238 491.621 458.419 491.621ZM281.612 500.021C282.212 498.021 282.212 498.021 282.812 496.021C289.978 489.849 296.561 500.733 281.612 500.021ZM736.831 493.221C743.408 493.819 743.916 495.915 744.031 502.421C737.504 501.986 737.627 499.055 736.831 493.221ZM767.632 493.221C767.632 506.545 759.108 499.145 763.632 494.621C766.757 493.396 766.757 493.396 767.632 493.221ZM131.356 498.771C129.997 503.336 120.346 500.682 124.805 495.221C126.598 493.026 132.529 494.829 131.356 498.771ZM305.613 494.421C305.319 500.591 305.145 503.343 298.413 502.221C298.037 496.213 299.696 494.421 305.613 494.421ZM732.981 516.022C740.63 506.985 750.579 509.47 751.232 496.421C761.814 506.228 763.105 511.134 775.633 504.821C775.633 542.223 775.633 542.223 775.633 579.625C725.431 579.625 725.431 579.625 675.229 579.625C677.842 576.237 675.891 578.14 682.366 575.637C681.995 569.568 679.632 563.764 677.629 558.024C695.205 557.53 682.356 523.524 708.63 543.986C725.43 527.185 712.427 556.666 716.03 559.824C723.4 566.281 736.988 558.429 735.144 548.686C734.304 544.251 723.875 541.18 721.631 535.223C734.974 532.797 725.689 524.636 732.981 516.022ZM318.013 497.221C317.281 501.982 315.89 502.598 311.213 503.221C312.788 498.889 313.308 498.212 318.013 497.221ZM479.62 499.221C486.302 500.038 488.432 501.12 487.021 508.022C483.306 506.048 481.155 503.057 479.62 499.221ZM231.61 499.621C230.425 506.642 226.295 515.104 220.009 507.421C223.179 504.129 227.346 501.254 231.61 499.621ZM700.092 499.734C703.43 505.768 696.184 509.854 692.029 514.422C693.071 509.153 694.582 501.442 700.092 499.734ZM253.611 500.021C253.411 502.221 253.411 502.221 253.211 504.421C251.111 502.421 251.111 502.421 249.011 500.421C251.311 500.221 251.311 500.221 253.611 500.021ZM74.0751 503.239C70.4311 508.27 64.416 509.682 58.8025 512.422C54.848 503.383 68.2391 496.423 74.0751 503.239ZM470.02 502.021C470.02 505.759 470.062 515.834 464.02 514.022C463.981 506.596 462.28 502.021 470.02 502.021ZM82.4035 503.221C90.4032 503.98 94.4346 504.758 95.204 513.222C88.1686 511.303 84.2328 510.538 82.4035 503.221ZM268.811 508.822C265.618 508.386 259.397 508.985 260.411 504.421C263.901 504.739 268.811 504.278 268.811 508.822ZM284.812 504.021C284.065 511.043 283.714 510.242 276.412 510.422C278.382 503.771 278.459 504.021 284.812 504.021ZM156.607 507.021C153.705 514.438 145.957 516.463 138.806 515.622C141.749 510.965 150.446 502.586 156.607 507.021ZM711.23 506.421C717.388 509.063 719.507 508.986 727.268 510.284C727.05 513.553 727.05 513.553 726.831 516.822C717.513 515.726 713.382 515.891 711.23 506.421ZM81.2034 513.222C75.4442 514.182 70.2264 518.559 64.4277 517.059C64.3335 510.888 77.5251 502.922 81.2034 513.222ZM292.812 507.221C296.613 507.821 296.613 507.821 300.413 508.422C297.906 513.984 291.595 514.526 292.812 507.221ZM703.33 527.835C702.497 528.753 700.151 527.561 699.63 527.222C695.754 524.703 697.764 520.365 699.83 517.022C701.249 514.725 702.485 512.282 704.23 510.222C709.42 504.09 706.637 524.189 703.33 527.835ZM102.404 509.222C120.27 520.525 126.611 521.674 145.606 526.422C135.732 541.939 105.965 522.277 102.404 509.222ZM531.935 515.759C526.822 517.176 523.626 517.24 522.422 511.622C526.617 509.524 529.304 512.522 531.935 515.759ZM449.219 512.022C453.046 513.147 469.48 520.425 467.67 523.372C463.989 529.363 461.241 528.369 460.82 535.223C463.82 535.223 463.82 535.223 466.82 535.223C460.698 539.999 458.849 545.297 468.42 544.823C460.088 572.319 455.27 549.168 445.169 542.623C439.26 538.794 430.454 537.254 425.618 533.023C432.684 521.415 435.539 528.477 442.419 513.622C446.398 520.327 448.782 519.013 449.219 512.022ZM254.223 516.509C254.427 516.739 262.811 546.737 255.211 547.823C253.119 548.122 248.18 521.159 246.61 516.222C244.443 509.404 251.791 513.768 254.223 516.509ZM170.007 515.622C169.441 532.031 166.927 533.779 150.406 535.223C153.025 527.368 161.311 516.917 170.007 515.622ZM260.011 517.622C268.714 517.622 276.848 521.222 285.612 521.222C285.012 535.423 285.012 535.423 284.412 549.623C277.935 546.402 270.347 548.108 263.211 548.023C263.211 537.684 260.011 527.85 260.011 517.622ZM716.83 520.422C720.631 520.422 720.631 520.422 724.431 520.422C724.245 532.325 718.482 528.682 716.83 520.422ZM688.829 522.422C689.029 524.622 689.029 524.622 689.229 526.822C686.829 526.622 686.829 526.622 684.429 526.422C687.165 523.686 685.705 525.025 688.829 522.422ZM300.413 522.822C295.815 535.185 292.173 538.659 295.212 549.623C280.526 548.141 287.891 524.412 300.413 522.822ZM424.018 524.022C423.37 529.202 420.519 530.667 415.618 530.822C416.114 524.866 418.273 524.022 424.018 524.022ZM87.9037 539.123C80.8779 543.138 72.4922 542.429 64.8027 541.623C69.3973 535.497 76.6748 532.41 83.4035 529.222C98.6991 524.371 92.1431 536.7 87.9037 539.123ZM707.98 535.585C705.936 532.343 706.102 530.95 708.83 528.222C719.137 528.789 711.355 534.796 707.98 535.585ZM689.229 534.023C685.216 540.329 675.04 536.897 680.829 532.023C686.998 532.91 686.998 532.91 689.229 534.023ZM419.03 561.261C412.43 564.52 381.165 568.471 378.204 556.624C376.797 550.998 382.734 545.019 387.616 549.223C391.966 545.059 393.993 543.586 399.217 540.623C412.751 536.58 430.45 555.623 419.03 561.261ZM441.069 562.349C429.472 566.682 418.834 545.568 428.818 543.223C438.343 540.986 455.806 556.842 441.069 562.349ZM681.991 547.048C683.277 550.947 676.631 550.088 676.029 546.223C674.958 539.355 680.943 543.87 681.991 547.048ZM724.731 546.711C725.856 546.086 727.848 547.584 728.231 548.423C730.567 553.547 718.648 558.615 722.631 549.223C723.057 548.218 723.776 547.241 724.731 546.711ZM373.216 558.824C368.245 558.291 358.679 558.212 363.015 550.623C372.814 548.599 371.316 553.259 373.216 558.824ZM474.82 549.623C477.341 552.649 476.344 556.562 476.42 560.424C470.026 559.624 470.95 553.063 474.82 549.623ZM636.027 572.224C648.604 566.984 658.03 555.514 671.628 552.423C668.153 564.212 661.024 573.085 671.628 579.625C645.227 579.625 645.227 579.625 618.826 579.625C623.733 575.419 629.937 574.762 636.027 572.224ZM563.074 568.074C568.611 571.262 567.101 576.432 570.824 579.225C549.517 579.535 528.468 581.061 507.221 578.824C509.727 571.029 524.835 572.022 531.372 571.824C537.32 571.644 543.273 571.691 549.223 571.624C536.977 558.357 555.9 563.944 563.074 568.074ZM673.041 564.649C677.889 565.564 676.996 572.689 670.428 571.624C671.762 566.822 670.891 569.148 673.041 564.649Z" fill="#000000" fill-rule="nonzero" opacity="1" stroke="none"/>
</g>
</svg>
