<?xml version="1.0" encoding="UTF-8" standalone="no"?>
<!DOCTYPE svg PUBLIC "-//W3C//DTD SVG 1.1//EN" "http://www.w3.org/Graphics/SVG/1.1/DTD/svg11.dtd">
<!-- Created with Vectornator (http://vectornator.io/) -->
<svg height="100%" stroke-miterlimit="10" style="fill-rule:nonzero;clip-rule:evenodd;stroke-linecap:round;stroke-linejoin:round;" version="1.1" viewBox="0 0 800 600" width="100%" xml:space="preserve" xmlns="http://www.w3.org/2000/svg" xmlns:xlink="http://www.w3.org/1999/xlink">
<defs/>
<clipPath id="ArtboardFrame">
<rect height="600" width="800" x="0" y="0"/>
</clipPath>
<g clip-path="url(#ArtboardFrame)" id="Layer-1">
<path d="M3.20014 600.425C135.606 600.425 665.228 600.425 797.634 600.425C797.634 500.421 797.634 100.404 797.634 0.400017C665.295 0.400017 135.939 0.400017 3.60015 0.400017C3.53348 100.404 3.2668 500.421 3.20014 600.425ZM588.162 20.4134C631.92 20.2111 675.794 18.3507 719.43 21.6009C723.527 21.9061 724.897 27.7345 727.631 30.8013C709.63 30.4013 709.63 30.4013 691.629 30.0013C694.184 37.0891 695.767 44.6062 699.292 51.2647C701.434 55.3106 710.382 57.1707 713.63 58.2025C706.855 60.1775 706.855 60.1775 700.08 62.1526C704.767 67.0837 709.654 65.4025 713.73 70.203C707.5 74.186 699.35 73.7629 692.029 74.8032C696.34 78.6677 701.75 81.3379 707.23 83.2035C699.63 94.604 699.63 94.604 692.029 106.004C702.163 99.6042 711.135 90.8126 722.431 86.8037C726.344 85.4146 730.277 91.2781 731.631 95.204C722.631 96.6041 722.631 96.6041 713.63 98.0041C730.899 108.247 736.754 112.661 754.432 102.804C746.432 100.004 746.432 100.004 738.431 97.2041C741.428 95.1388 744.908 90.1363 748.032 92.0039C753.817 95.4627 758.618 100.568 764.732 103.404C769.5 105.615 774.249 98.7836 778.433 95.604C778.201 102.731 781.975 125.746 768.083 128.443C759.38 130.132 750.448 130.285 741.631 131.206C745.43 124.009 756.772 124.729 764.832 123.605C762.566 121.272 761.282 116.756 758.032 116.605C740.129 115.775 722.297 119.405 704.43 120.805C711.967 128.014 721.633 122.184 728.031 129.605C710.03 130.006 710.03 130.006 692.029 130.406C694.696 136.622 696.562 143.248 700.03 149.056C701.848 152.103 706.079 145.08 709.53 144.256C714.754 143.009 720.264 143.823 725.631 143.606C721.013 137.502 713.675 142.329 708.43 137.206C714.607 137.189 721.109 136.835 726.868 139.068C726.777 141.215 726.777 141.215 726.686 143.361C717.758 146.084 717.758 146.084 708.83 148.806C714.013 152.334 721.476 148.148 727.631 149.344C730.921 149.983 732.814 153.594 735.406 155.719C730.818 162.363 730.818 162.363 726.231 169.007C726.931 161.307 726.931 161.307 727.631 153.607C710.23 155.207 710.23 155.207 692.829 156.807C695.096 162.674 696.133 169.179 699.63 174.407C704.497 181.687 718.244 184.244 706.83 194.008C705.43 187.608 705.43 187.608 704.03 181.208C699.323 182.345 699.323 182.345 694.617 183.483C697.311 188.57 697.311 188.57 700.005 193.658C696.617 195.633 696.617 195.633 693.229 197.608C697.481 201.36 696.718 199.1 696.429 204.009C691.029 202.809 691.029 202.809 685.629 201.609C691.158 209.191 691.888 217.926 698.642 224.472C715.03 240.355 715.041 231.308 715.63 258.011C708.974 239.831 706.472 250.205 700.03 232.81C695.396 233.06 690.163 235.854 686.129 233.56C678.536 229.241 673.138 221.694 668.028 214.609C666.458 212.431 665.425 209.007 666.728 206.659C669.287 202.047 679.059 200.497 677.816 195.371C675.907 187.497 666.022 189.229 661.628 179.208C654.628 182.808 654.628 182.808 647.627 186.408C644.827 182.808 644.827 182.808 642.027 179.208C639.222 183.978 636.986 189.785 632.227 192.608C631.979 176.682 625.368 157.306 645.627 166.807C648.127 163.407 648.127 163.407 650.628 160.007C654.528 162.007 654.528 162.007 658.428 164.007C659.428 160.69 659.019 156.546 661.428 154.057C663.59 151.822 667.428 152.423 670.428 151.606C663.842 143.065 663.354 140.438 652.378 135.706C649.693 134.549 645.735 134.62 644.427 132.006C641.213 135.727 638.027 140.539 633.227 141.606C634.998 135.334 638.294 129.064 643.227 124.805C640.894 119.127 642.324 112.303 644.027 106.405C637.627 112.605 637.627 112.605 631.227 118.805C630.4 106.606 631.86 112.642 626.427 100.804C624.026 114.205 624.026 114.205 621.626 127.605C614.626 119.005 614.626 119.005 607.626 110.405C610.593 122.983 617.571 134.437 620.126 147.106C621.478 153.807 619.793 160.773 619.626 167.607C615.039 163.631 613.451 157.102 611.188 151.469C608.888 152.238 608.888 152.238 606.588 153.006C604.282 150.006 604.282 150.006 601.975 147.006C599.663 149.469 598.395 154.018 595.038 154.394C586.042 155.4 575.197 153.226 569.024 146.606C562.743 152.663 562.743 152.663 556.461 158.719C553.673 157.288 553.673 157.288 550.886 155.857C547.354 163.832 547.354 163.832 543.823 171.807C543.59 162.574 542.628 153.33 543.123 144.106C543.391 139.114 544.462 134.13 546.098 129.405C547.625 124.996 555.079 132.099 559.261 134.168C561.682 131.314 563.124 127.17 566.524 125.605C569.073 124.432 572.058 126.539 574.824 127.005C578.146 111.498 586.05 107.994 594.825 94.804C587.842 95.354 580.878 96.322 573.874 96.4541C570.122 96.5249 569.738 93.6914 568.224 91.0039C562.249 93.504 562.249 93.504 556.274 96.0041C554.148 93.2039 554.148 93.2039 552.023 90.4038C547.423 99.2042 547.423 99.2042 542.823 108.005C545.974 92.446 554.651 81.7677 556.424 66.4028C548.823 71.803 548.823 71.803 541.223 77.2033C542.78 64.4994 548.779 58.2655 550.023 46.0019C546.644 47.6111 540.012 52.8686 539.26 49.2021C537.738 41.7793 537.635 34.1348 536.823 26.6011C553.394 21.8562 570.926 20.4931 588.162 20.4134ZM778.433 20.0008C777.995 36.1861 757.296 32.1058 745.032 32.4014C746.707 29.1395 749.319 26.4462 751.632 23.601C744.05 23.0063 736.486 23.4229 729.431 20.6009C753.932 20.3009 753.932 20.3009 778.433 20.0008ZM24.801 20.4009C76.6032 20.4009 76.6032 20.4009 128.405 20.4009C118.835 39.4853 112.683 60.1032 104.454 79.8034C100.766 88.634 86.1005 69.8035 85.6036 68.0029C82.8665 58.0831 86.2566 49.9158 88.8038 40.8017C72.7996 63.9802 66.3265 86.3215 92.0039 103.604C83.891 111.766 84.3109 120.809 77.2033 129.605C89.8038 128.405 89.8038 128.405 102.404 127.205C99.5542 133.006 96.0636 138.533 93.854 144.606C92.0328 149.612 97.1454 160.62 98.0041 163.207C95.8836 163.536 92.2888 163.004 91.7039 166.157C90.5868 172.178 90.3038 178.324 89.6038 184.408C94.454 184.224 99.6302 182.1 104.154 183.858C113.177 187.363 119.622 196.147 128.805 199.208C119.605 225.61 119.605 225.61 110.405 252.011C134.122 248.242 157.104 240.633 180.008 233.41C178.341 237.377 178.173 242.397 175.007 245.31C171.75 248.309 166.001 246.966 162.432 249.586C157.476 253.224 155.221 259.801 150.281 263.461C147.823 265.283 144.336 265.09 141.281 265.261C129.288 265.932 114.507 261.591 104.004 270.611C100.525 273.6 103.577 280.501 106.004 282.412C110.112 285.645 114.97 287.875 119.805 289.862C124.756 291.897 130.072 292.896 135.206 294.412C133.461 299.31 128.153 302.493 123.405 304.613C112.705 309.391 100.909 311.437 90.2538 316.313C59.1852 330.532 43.8014 346.739 24.001 373.216C24.401 196.808 24.401 196.808 24.801 20.4009ZM139.806 52.5022C137.502 53.9795 134.647 56.3688 132.106 55.3523C128.259 53.8137 124.424 50.1982 123.805 46.102C122.864 39.8742 123.091 31.7038 127.919 27.6597C134.156 22.4361 143.695 23.2795 151.806 22.651C174.151 20.9194 196.598 20.7145 219.009 20.6009C318.279 20.0977 417.737 14.7331 516.822 20.8009C523.726 21.2237 523.977 32.7938 526.022 39.4017C530.099 52.5698 532.505 66.2099 535.073 79.7534C535.205 80.4501 534.373 80.9868 534.023 81.6035C530.877 75.1937 533.373 76.1017 528.072 76.3032C527.047 71.753 527.047 71.753 526.022 67.2028C520.747 68.2529 520.747 68.2529 515.472 69.3029C509.147 55.6524 509.147 55.6524 502.821 42.0018C502.903 57.8167 504.994 73.6084 507.621 89.2038C505.221 89.8038 505.221 89.8038 502.821 90.4038C510.722 94.404 510.722 94.404 518.622 98.4042C514.922 101.404 514.922 101.404 511.222 104.404C519.025 107.548 532.027 108.383 533.26 116.705C534.976 128.279 533.368 140.106 533.423 151.806C530.922 144.106 530.922 144.106 528.422 136.406C523.422 140.006 523.422 140.006 518.422 143.606C515.847 138.931 515.847 138.931 513.272 134.256C510.147 137.331 510.147 137.331 507.021 140.406C501.321 133.906 501.321 133.906 495.621 127.405C498.928 139 506.535 151.826 502.021 163.007C505.488 165.44 509.972 166.852 512.422 170.307C514.068 172.629 512.955 175.974 513.222 178.808C520.399 178.281 533.949 174.097 534.673 181.258C536.038 194.774 534.373 208.425 534.223 222.009C530.772 215.072 530.772 215.072 527.322 208.134C525.297 208.555 523.13 210.253 521.247 209.396C518.619 208.2 517.497 205.005 515.622 202.809C510.331 205.348 503.75 203.682 498.021 202.409C500.221 215.009 500.221 215.009 502.421 227.61C494.088 231.01 485.204 233.291 477.42 237.81C474.109 239.732 471.74 245.316 468.02 244.41C465.82 252.211 465.82 252.211 463.62 260.011C466.68 242.563 474.665 224.189 469.62 207.209C466.02 211.209 466.02 211.209 462.42 215.209C459.619 204.009 459.619 204.009 456.819 192.808C452.547 197.08 451.378 203.722 450.019 209.609C445.819 207.909 445.819 207.909 441.619 206.209C446.419 217.909 446.419 217.909 451.219 229.61C441.278 220.422 427.714 215.721 414.818 211.609C421.435 222.309 426.383 234.242 434.668 243.71C439.645 249.397 448.645 250.414 453.694 256.036C461.323 264.529 457.68 278.6 458.019 290.012C454.007 281.962 454.007 281.962 449.994 273.912C447.673 274.391 445.144 276.422 443.031 275.349C439.503 273.558 437.823 269.391 435.218 266.411C426.384 286.939 411.798 264.563 419.618 291.012C413.88 292.237 413.88 292.237 408.142 293.462C407.28 290.937 407.28 290.937 406.417 288.412C402.617 288.712 402.617 288.712 398.817 289.012C410.517 272.712 410.517 272.712 422.218 256.411C404.773 252.018 395.885 260.924 381.216 270.411C379.549 266.745 379.17 262.15 376.216 259.411C370.153 253.79 355.839 253.627 355.865 242.36C355.899 227.26 362.43 212.978 356.815 197.808C352.546 186.276 344.815 176.341 338.814 165.607C361.098 161.517 371.272 163.319 388.016 149.606C397.499 141.84 393.775 131.777 398.817 121.355C402.308 114.14 408.82 108.752 412.817 101.804C425.258 80.1786 412.359 48.9941 386.816 44.6019C375.59 42.6714 363.961 45.1698 352.652 43.8019C335.938 41.7799 324.772 32.9121 307.913 42.8893C296.807 49.4615 285.377 55.7745 275.562 64.1527C268.82 69.9072 265.66 79.1778 258.811 84.8036C252.128 90.2925 244.047 94.1712 235.81 96.8041C214.678 103.559 193.18 109.742 171.207 112.805C167.423 113.332 164.54 109.071 161.207 107.205C153.295 121.403 133.076 118.203 118.405 121.605C140.574 111.504 163.416 101.347 182.008 85.6036C172.741 88.5371 163.823 92.9873 154.207 94.404C145.963 95.6184 137.556 93.7206 129.23 93.379C127.876 87.9236 126.324 86.0085 130.231 80.4284C141.366 64.523 153.682 49.4771 165.407 34.0014C156.873 40.1684 148.669 46.8195 139.806 52.5022ZM522.022 21.2009C527.422 21.2009 527.422 21.2009 532.823 21.2009C532.623 31.4013 532.623 31.4013 532.423 41.6018C528.42 34.9308 524.793 28.474 522.022 21.2009ZM756.232 56.6024C756.83 51.045 762.814 54.9984 766.145 52.7522C773.309 47.9217 773.046 44.0616 778.433 38.0016C778.433 56.6024 778.433 56.6024 778.433 75.2032C773.124 68.1244 762.308 69.9118 754.432 69.6029C759.061 65.4367 762.969 65.2336 769.233 64.0027C767.086 58.8058 755.776 60.8463 756.232 56.6024ZM718.455 40.8142C715.04 47.2024 712.679 48.6593 705.63 50.0021C706.653 43.1795 710.575 38.7013 718.455 40.8142ZM750.032 40.0017C758.842 40.0017 762.417 38.5049 764.832 47.202C756.736 47.202 753.401 47.5825 750.032 40.0017ZM724.831 41.6018C733.831 41.8018 733.831 41.8018 742.831 42.0018C738.052 50.9626 730.213 48.6406 724.831 41.6018ZM321.614 47.002C316.309 52.4243 315.447 53.9773 307.613 52.8022C310.402 47.2245 315.893 46.7296 321.614 47.002ZM334.814 48.8021C327.414 51.8022 327.414 51.8022 320.014 54.8023C322.61 49.0895 328.85 43.5667 334.814 48.8021ZM407.455 70.4405C408.641 77.5096 409.57 88.8509 406.067 95.504C401.376 104.415 393.793 112.028 386.029 118.28C375.057 127.115 361.845 133.099 348.015 135.206C354.923 123.437 371.459 120.991 382.416 113.405C413.592 91.8213 411.04 49.9814 367.666 52.9522C355.942 53.7552 344.414 56.3782 332.814 58.2525C350.026 45.9585 402.342 39.9752 407.455 70.4405ZM741.231 54.8023C738.831 60.8327 729.576 62.9829 727.631 55.2023C732.163 54.9357 736.691 54.8023 741.231 54.8023ZM370.816 56.4024C367.501 65.743 363.858 79.9064 353.615 84.0036C354.218 71.73 357.574 55.0469 370.816 56.4024ZM366.816 79.2034C369.016 73.8031 369.016 73.8031 371.216 68.4029C384.198 46.4763 383.72 71.5483 366.816 79.2034ZM354.815 58.0025C353.555 63.0437 352.61 68.3381 350.215 73.0031C343.202 68.3278 347.411 59.573 354.815 58.0025ZM117.605 58.4025C117.298 61.1672 116.838 62.2123 114.405 63.6027C116.209 58.6421 114.609 59.9005 117.605 58.4025ZM126.005 59.2025C124.389 62.9333 125.695 60.2767 120.805 66.4028C122.443 61.9361 122.03 61.0371 126.005 59.2025ZM343.615 60.8026C343.415 62.8027 343.415 62.8027 343.215 64.8027C341.139 63.2027 341.139 63.2027 339.064 61.6026C341.757 60.5838 340.256 60.927 343.615 60.8026ZM133.606 62.0026C132.042 65.0003 130.804 68.3581 128.005 70.403C128.579 66.3863 129.159 62.8672 133.606 62.0026ZM384.016 72.4031C385.416 69.903 385.416 69.903 386.816 67.4029C392.002 60.7722 404.747 70.0997 384.016 72.4031ZM743.231 72.4031C743.189 72.402 712.833 69.0703 732.031 67.0028C742.688 67.7687 742.711 68.7596 743.231 72.4031ZM298.013 80.4034C298.051 76.4678 297.687 72.4713 298.413 68.6029C301.716 71.2453 302.902 79.0671 298.013 80.4034ZM310.813 69.2029C309.559 73.1749 307.883 77.3775 305.213 80.6034C305.032 74.8629 303.152 67.5634 310.813 69.2029ZM316.813 68.8029C316.048 72.9381 315.79 78.2716 313.013 81.6035C312.926 77.7097 310.607 68.8029 316.813 68.8029ZM293.612 70.803C298.258 73.1259 295.619 77.188 294.412 81.4034C293.083 78.1898 293.612 74.1939 293.612 70.803ZM320.014 70.803C324.392 73.6003 321.336 78.3542 318.413 81.2034C319.214 76.0032 319.214 76.0032 320.014 70.803ZM288.612 72.6031C288.612 75.8937 288.009 78.4477 287.012 81.6035C286.003 77.9036 284.767 75.314 286.812 72.003C287.712 72.3031 287.712 72.3031 288.612 72.6031ZM325.614 73.2031C330.568 76.034 327.409 80.2364 324.014 82.8035C324.014 79.2553 324.168 76.4567 325.614 73.2031ZM399.617 73.2031C399.617 78.2033 399.617 78.2033 399.617 83.2035C394.397 82.0944 389.039 81.4065 384.016 79.6034C388.81 76.8072 394.255 74.6142 399.617 73.2031ZM778.433 78.0033C778.433 85.2036 778.433 85.2036 778.433 92.4039C771.622 90.3349 762.811 88.1438 759.032 81.2534C765.299 79.5506 771.99 79.1965 778.433 78.0033ZM84.8036 78.8033C86.4538 81.6913 85.4181 86.8453 82.4035 88.4037C82.4035 84.6433 81.8288 81.4063 84.8036 78.8033ZM519.622 78.8033C523.356 81.5672 523.322 82.6608 526.422 80.0034C526.422 89.1304 532.054 91.5695 532.823 100.404C526.408 95.852 522.299 86.1642 519.622 78.8033ZM118.405 79.2034C118.299 89.5823 116.867 99.9087 104.804 102.404C105.193 92.1672 104.938 79.2034 118.405 79.2034ZM747.632 87.6037C739.583 87.6037 729.331 86.3615 722.218 82.6785C733.188 77.7053 741.069 77.7709 747.632 87.6037ZM306.95 94.8665C319.826 97.3859 329.604 92.8179 342.014 88.8038C341.583 103.306 306.865 96.4677 308.813 114.005C319.714 114.646 326.304 112.954 337.614 110.405C335.519 135.434 322.901 154.279 296.013 155.207C296.719 147.973 303.897 142.42 311.176 142.756C311.094 139.981 311.094 139.981 311.013 137.206C290.524 135.884 302.571 136.297 304.013 127.005C299.96 125.654 302.939 126.52 294.812 125.605C300.023 105.286 292.159 95.122 272.012 89.2038C279.384 76.6698 295.851 92.6947 306.95 94.8665ZM90.4038 82.8035C90.6499 87.2826 90.6527 89.0419 88.8038 93.0039C87.5706 88.8112 87.2027 86.0046 90.4038 82.8035ZM96.3291 85.7536C96.4056 89.8836 97.2427 96.1352 92.8039 98.0041C94.5665 91.8789 94.5665 91.8789 96.3291 85.7536ZM397.217 88.6038C393.46 101.377 376.224 90.6478 367.616 86.0036C377.584 85.3162 387.318 87.4616 397.217 88.6038ZM390.904 100.642C381.563 110.226 361.248 102.366 355.015 91.6539C364.882 89.2858 383.492 96.2339 390.904 100.642ZM267.611 95.204C272.918 95.204 282.447 95.8886 284.812 101.604C279.716 100.078 271.083 99.8335 267.611 95.204ZM250.811 99.2042C250.107 101.736 249.865 102.92 247.223 103.667C226.553 109.507 204.198 119.796 182.408 120.805C182.408 118.805 182.408 118.805 182.408 116.805C205.903 116.114 228.336 105.729 250.811 99.2042ZM150.006 100.004C149.744 103.944 148.791 104.681 145.606 106.805C147.032 103.323 147.246 102.074 150.006 100.004ZM130.356 101.754C130.661 105.168 130.748 105.431 127.605 106.805C127.309 103.547 126.854 102.394 130.356 101.754ZM142.006 101.204C140.793 105.571 140.351 107.605 135.606 107.605C136.808 104.398 138.536 101.954 142.006 101.204ZM356.415 101.204C368.016 106.204 368.016 106.204 379.616 111.205C371.598 116.817 356.415 112.634 356.415 101.204ZM339.614 104.404C336.579 110.156 323.126 108.005 318.213 108.005C324.079 104.2 332.799 104.404 339.614 104.404ZM556.624 104.804C557.256 107.081 562.79 111.113 561.924 112.955C559.791 117.493 551.359 115.105 549.223 112.805C554.159 111.625 552.912 107.456 556.624 104.804ZM268.411 105.204C283.457 110.721 295.343 111.805 288.012 128.805C293.286 129.176 290.431 128.156 294.162 135.506C287.743 136.117 281.412 132.307 281.412 140.606C288.745 142.235 292.063 147.574 290.012 154.807C268.911 145.342 260.971 127.525 268.411 105.204ZM186.208 125.205C204.081 118.972 222.625 114.861 240.81 109.605C249.56 107.076 243.312 108.386 249.611 107.205C247.384 117.226 234.072 116.519 225.76 118.655C215.105 121.393 197.53 128.32 185.758 128.805C185.908 127.605 185.066 125.604 186.208 125.205ZM103.204 109.205C107.832 111.562 112.633 113.712 116.805 116.805C110.205 122.066 104.929 123.527 96.6041 121.805C100.269 115.85 103.204 116.309 103.204 109.205ZM162.007 113.605C164.361 119.513 166.582 125.477 169.07 131.331C171.003 135.88 174.969 146.91 181.608 144.006C179.403 135.255 176.995 126.523 175.607 117.605C181.835 127.854 185.344 140.742 193.833 149.231C197.384 141.902 193.785 131.574 202.809 129.605C201.828 134.65 201.488 135.111 202.196 141.731C203.702 155.805 212.196 217.411 178.708 185.37C171.037 178.031 164.679 170.344 159.557 161.057C154.581 152.034 149.89 142.856 145.056 133.756C145.731 133.081 145.731 133.081 146.406 132.406C150.017 138.1 154.678 153.282 164.407 153.607C160.836 141.603 156.622 129.798 152.406 118.005C165.242 122.284 157.588 146.977 174.007 149.206C169.611 136.793 161.259 127.075 162.007 113.605ZM354.415 115.605C357.942 116.865 360.339 117.974 362.815 120.805C358.215 122.405 358.215 122.405 353.615 124.005C354.015 119.805 354.015 119.805 354.415 115.605ZM248.211 119.055C250.595 119.814 264.353 130.396 262.133 133.982C259.113 138.861 252.172 139.812 246.773 141.756C233.548 146.518 220.13 150.723 206.809 155.207C206.659 148.573 206.303 141.941 206.359 135.306C206.422 127.812 223.254 125.487 227.01 124.205C243.744 119.422 246.075 118.375 248.211 119.055ZM140.806 120.605C137.058 123.542 133.17 126.009 130.456 120.743C134.381 118.376 136.79 118.443 140.806 120.605ZM150.806 122.805C151.606 125.205 151.606 125.205 152.406 127.605C148.606 127.605 148.606 127.605 144.806 127.605C146.375 125.252 148.377 124.263 150.806 122.805ZM119.018 125.105C122.372 125.239 128.432 124.138 131.206 127.205C123.805 127.305 123.805 127.305 116.405 127.405C114.765 133.967 129.429 131.7 131.206 131.806C124.339 132.546 117.291 132.726 110.705 134.806C116.97 137.877 124.056 136.656 130.806 138.006C127.392 138.564 108.139 136.754 108.805 143.406C113.67 142.834 119.21 141.369 123.605 144.006C117.748 144.572 111.34 144.839 106.805 149.206C104.2 151.715 105.378 154.663 101.604 155.607C101.918 143.681 102.739 124.454 119.018 125.105ZM384.816 130.006C384.06 133.774 384.06 133.774 383.304 137.543C377.714 135.441 380.384 136.875 375.353 133.131C378.674 132.353 381.564 130.533 384.816 130.006ZM151.606 130.806C154.69 133.272 154.845 135.24 153.456 138.931C151.311 133.566 151.88 136.285 151.606 130.806ZM192.008 137.806C187.602 138.145 190.204 132.575 192.008 131.806C198.201 129.164 194.499 137.614 192.008 137.806ZM762.432 134.006C760.563 142.43 749.844 139.098 742.831 138.806C744.639 132.101 757.719 134.18 762.432 134.006ZM379.616 140.406C371.177 149.707 370.552 145.932 360.015 141.606C364.996 135.828 373.661 139.174 379.616 140.406ZM142.806 139.206C140.405 144.408 136.249 144.211 130.406 146.406C132.85 141.169 137.426 140.8 142.806 139.206ZM777.633 139.206C777.833 151.606 777.833 151.606 778.033 164.007C772.663 162.957 770.94 158 765.582 156.557C758.832 154.738 749.805 159.583 743.631 155.207C736.035 149.821 745.733 150.868 748.832 151.106C753.494 151.466 758.165 151.706 762.832 152.006C759.572 144.122 747.971 147.635 741.231 144.006C747.172 144.13 760.367 147.334 764.432 141.606C767.48 144.571 767.375 149.069 771.133 151.156C774.85 147.793 775.633 143.806 777.633 139.206ZM301.613 140.806C298.328 142.448 294.491 142.594 291.212 140.806C299.911 139.97 296.503 139.332 301.613 140.806ZM266.411 140.006C266.011 140.939 266.139 142.392 265.211 142.806C249.116 149.986 227.623 158.561 209.609 164.007C218.356 150.886 250.552 143.487 266.411 140.006ZM366.616 150.206C357.139 157.385 348.371 152.467 340.014 146.806C352.126 142.614 354.702 143.515 366.616 150.206ZM145.206 145.806C149.22 149.427 160.078 172.396 157.607 176.007C151.755 184.56 102.655 172.218 123.405 156.207C127.058 153.388 130.88 151.336 135.006 149.206C138.19 147.562 142.545 143.405 145.206 145.806ZM515.222 151.206C516.316 150.144 516.316 150.144 517.409 149.081C520.384 154.627 518.976 151.786 521.622 157.607C518.622 158.407 518.622 158.407 515.622 159.207C517.177 152.469 512.714 152.041 509.022 147.006C512.122 149.106 512.122 149.106 515.222 151.206ZM651.228 150.006C647.894 150.94 648.961 149.873 648.027 153.206C645.118 151.96 643.526 152.114 640.027 152.006C640.027 153.807 640.027 153.807 640.027 155.607C637.564 152.939 638.298 148.265 642.027 146.806C642.027 148.406 642.027 148.406 642.027 150.006C646.17 149.065 649.477 142.686 651.228 150.006ZM115.405 179.008C112.062 177.129 108.935 174.117 108.167 170.17C105.025 154.012 112.404 149.104 128.005 147.206C125.243 150.806 121.448 153.482 118.255 156.707C110.298 164.742 117.832 176.565 127.005 178.708C133.87 180.311 163.214 179.93 164.407 182.408C149.769 183.168 129.276 186.803 115.405 179.008ZM343.615 156.007C333.414 156.007 333.414 156.007 323.214 156.007C326.105 143.813 336.794 149.459 343.615 156.007ZM233.61 159.207C240.784 156.08 248.01 153.073 255.211 150.006C252.613 154.244 214.945 177.265 210.409 170.007C216.962 164.546 225.79 162.615 233.61 159.207ZM274.212 154.807C290.141 158.269 298.551 160.242 315.213 157.807C310.786 180.831 268.207 166.816 274.212 154.807ZM528.022 155.607C528.022 159.152 528.435 161.632 530.022 164.807C524.857 164.807 526.507 165.891 524.222 163.607C526.229 160.323 523.571 157.09 528.022 155.607ZM266.411 157.207C264.136 161.942 262.667 161.199 257.211 161.607C259.481 158.987 262.956 157.379 266.411 157.207ZM587.062 161.944C592.712 166.225 588.872 172.753 589.65 173.37C594.637 177.325 598.178 175.603 594.425 181.608C608.771 186.967 635.053 196.846 611.226 212.009C607.426 205.209 607.426 205.209 603.626 198.408C601.625 201.809 601.625 201.809 599.625 205.209C594.26 202.567 588.943 199.682 584.225 196.008C587.925 207.109 587.925 207.109 591.625 218.209C590.425 219.109 590.425 219.109 589.225 220.009C594.225 224.51 594.225 224.51 599.225 229.01C597.825 230.71 597.825 230.71 596.425 232.41C604.538 236.732 623.495 236.25 623.726 247.61C623.88 255.126 623.788 262.647 623.576 270.161C623.448 274.723 623.632 279.613 621.626 283.712C619.404 281.337 619.124 277.559 616.926 275.162C613.357 271.268 608.408 268.725 605.126 264.586C604.402 266.539 604.046 270.515 602.025 270.011C585.86 265.982 582.94 265.715 577.424 250.261C573.723 239.889 587.927 229.283 584.625 226.61C577.771 221.062 570.542 227.325 568.024 216.809C562.524 221.509 562.524 221.509 557.024 226.21C555.123 223.909 555.123 223.909 553.223 221.609C551.108 227.408 550.144 235.249 544.623 238.01C543.764 222.224 535.416 187.182 562.424 192.808C562.065 184.788 561.729 188.308 562.824 182.208C570.735 181.581 566.197 181.612 576.424 182.808C572.677 169.601 576.687 168.989 587.062 161.944ZM715.98 161.807C719.283 169.651 711.468 169.801 705.63 170.807C706.481 163.574 708.854 163.139 715.98 161.807ZM597.625 162.807C608.167 165.102 610.189 170.449 614.826 179.208C608.448 177.405 608.573 169.207 601.625 169.207C601.007 165.993 599.922 165.104 597.625 162.807ZM761.232 164.407C754.929 169.888 749.159 170.253 742.431 165.207C748.384 163.719 755.203 163.603 761.232 164.407ZM320.414 166.007C324.723 166.577 324.77 166.754 326.414 170.807C323.67 169.56 321.924 168.65 320.414 166.007ZM258.811 166.407C247.87 201.931 282.461 190.502 304.063 189.058C310.366 188.637 316.702 189.477 323.014 189.208C327.812 189.004 336.875 183.301 339.014 182.208C350.743 207.62 349.429 229.732 341.114 256.661C340.282 259.356 335.232 274.642 329.664 275.512C324.967 262.813 312.196 249.807 324.614 235.21C330.106 228.753 338.459 225.288 340.814 216.809C310.199 240.73 294.627 248.055 253.611 252.411C280.066 230.254 302.673 209.841 334.414 196.808C321.606 198.171 309.169 202.026 296.413 203.809C269.295 207.598 237.688 198.366 217.609 180.008C230.95 172.311 243.746 169.296 258.811 166.407ZM276.362 189.058C266.183 188.79 252.427 176.923 264.411 168.207C264.811 172.107 264.811 172.107 265.211 176.007C266.347 173.036 267.238 168.223 270.411 168.007C268.433 172.623 269.077 176.983 271.611 181.208C271.736 177.845 271.221 173.429 273.012 170.407C275.503 174.21 272.747 180.822 277.612 182.008C277.412 177.007 277.412 177.007 277.212 172.007C283.636 176.826 289.478 183.191 294.812 189.208C288.662 189.158 282.51 189.22 276.362 189.058ZM778.433 168.407C778.433 174.007 778.433 174.007 778.433 179.608C770.433 176.107 770.433 176.107 762.432 172.607C767.628 170.617 773.004 169.599 778.433 168.407ZM739.631 172.407C736.275 174.977 722.844 186.48 719.318 176.382C728.181 172.077 730.047 168.171 739.631 172.407ZM98.0041 169.607C99.4042 169.607 99.4042 169.607 100.804 169.607C100.804 172.607 100.804 172.607 100.804 175.607C97.4688 174.841 98.0041 172.671 98.0041 169.607ZM318.013 172.407C323.776 173.537 329.754 174.049 335.214 176.207C326.436 186.24 307.663 190.165 302.013 175.207C306.413 177.608 306.413 177.608 310.813 180.008C310.813 178.808 310.813 178.808 310.813 177.608C314.413 178.408 314.413 178.408 318.013 179.208C317.413 177.608 317.413 177.608 316.813 176.007C319.614 176.207 319.614 176.207 322.414 176.407C319.859 175.058 319.344 174.736 318.013 172.407ZM304.013 187.208C298.029 184.086 291.916 181.214 288.412 175.207C298.811 174.596 298.752 177.738 304.013 187.208ZM762.032 181.608C755.182 184.176 745.461 184.36 738.431 182.408C747.094 177.023 753.188 178.098 762.032 181.608ZM552.623 180.008C553.123 181.808 553.123 181.808 553.623 183.608C550.958 183.005 551.086 182.058 552.623 180.008ZM195.208 214.859C197.307 209.992 199.829 205.315 202.359 200.658C208.197 189.91 212.514 182.387 223.659 189.908C235.008 197.566 244.343 204.311 257.611 208.009C225.21 215.409 225.21 215.409 192.808 222.809C193.608 220.159 194.112 217.401 195.208 214.859ZM778.433 184.808C778.2 286.745 778.182 388.684 777.733 490.621C777.701 497.894 766.836 506.545 762.832 512.022C760.632 484.22 760.632 484.22 758.432 456.419C758.52 478.232 758.047 500.084 756.232 521.822C751.893 509.608 748.587 496.803 742.031 485.621C747.356 504.986 751.542 524.81 753.232 544.823C746.568 541.647 739.387 539.045 732.031 538.423C733.004 505.167 735.967 471.651 734.831 438.419C744.031 439.019 744.031 439.019 753.232 439.619C753.33 436.097 752.039 431.429 755.957 429.168C758.365 427.779 762.223 428.685 763.832 426.418C765.893 423.515 763.75 419.006 765.407 415.855C768.694 409.605 775.759 404.996 776.833 398.017C770.899 399.217 765.078 401.922 759.032 401.617C756.474 401.488 755.032 398.417 753.032 396.817C749.965 398.95 747.496 402.491 743.831 403.217C741.776 403.624 740.373 400.85 738.644 399.667C735 409.224 735 409.224 731.356 418.78C728.111 386.686 737.469 403.261 755.132 389.216C756.444 388.173 755.673 385.723 756.782 384.466C759.554 381.326 763.216 379.099 766.432 376.416C759.432 375.083 752.557 372.485 745.432 372.416C740.558 372.369 734.954 375.815 730.831 373.216C730.48 381.763 731.897 378.5 728.431 383.616C728.831 379.199 728.459 374.643 729.631 370.366C730.864 365.866 739.162 370.723 743.581 369.228C745.463 368.592 744.495 364.916 746.182 363.865C748.185 362.617 750.882 363.432 753.232 363.215C752.832 361.015 752.832 361.015 752.432 358.815C753.432 358.815 753.432 358.815 754.432 358.815C755.321 352.752 754.036 355.903 760.232 350.415C757.94 349.697 752.46 348.338 754.119 346.602C758.509 342.008 763.661 338.21 768.433 334.014C760.79 332.439 751.782 331.694 746.432 326.014C742.384 329.452 739.272 333.928 736.431 338.414C735.031 336.314 735.031 336.314 733.631 334.214C731.123 339.186 728.897 344.61 724.831 348.415C726.188 340.69 729.078 333.28 732.031 326.014C728.631 328.614 728.631 328.614 725.231 331.214C725.231 327.165 727.409 323.405 728.831 319.614C727.587 319.37 727.587 319.37 726.343 319.126C727.406 315.738 726.85 311.29 729.531 308.963C733.153 305.819 739.103 306.97 743.206 304.488C744.887 303.471 744.219 300.416 745.732 299.163C748.284 297.048 752.654 297.52 754.732 294.937C756.603 292.613 754.759 288.707 756.232 286.112C758.928 281.36 763.299 277.778 766.832 273.612C759.033 272.029 749.799 272.477 743.831 267.211C740.127 269.349 736.977 273.223 732.719 273.624C730.195 273.862 728.793 270.416 726.831 268.811C726.76 274.468 726.811 280.48 724.431 285.612C724.029 278.921 720.952 261.815 730.318 258.411C732.808 257.506 735.76 258.14 738.131 256.961C739.803 256.129 740.022 253.337 741.781 252.711C745.008 251.562 748.615 252.244 752.032 252.011C751.848 248.527 750.225 244.814 751.482 241.56C753.023 237.568 757.049 235.06 759.832 231.81C755.466 229.315 749.018 227.341 748.032 222.409C742.031 224.409 742.031 224.409 736.031 226.41C735.731 221.609 735.731 221.609 735.431 216.809C728.131 225.21 728.131 225.21 720.831 233.61C720.558 218.122 722.776 210.506 728.368 195.471C742.531 208.657 749.45 197.512 766.232 206.009C769.791 198.673 770.907 187.944 778.433 184.808ZM140.606 189.608C153.477 189.312 168.395 180.393 178.008 192.408C156.402 195.858 139.413 202.23 121.205 187.208C127.663 188.08 134.091 189.758 140.606 189.608ZM732.831 192.408C726.712 192.064 723.019 193.088 720.03 187.608C726.613 185.214 729.646 186.436 732.831 192.408ZM762.032 187.608C759.428 195.049 744.736 199.593 740.831 190.808C747.343 188.366 755.279 188.307 762.032 187.608ZM164.857 201.359C178.449 200.386 184.786 192.057 193.608 204.409C173.16 211.445 153.295 217.77 132.006 221.609C137.135 197.171 140.214 203.122 164.857 201.359ZM652.903 197.646C655.897 200.698 654.988 202.409 650.828 202.409C650.828 203.809 650.828 203.809 650.828 205.209C648.164 204.321 644.104 202.525 643.227 206.409C640.627 205.809 640.627 205.809 638.027 205.209C639.639 201.178 638.645 203.115 641.027 199.408C644.228 205.369 648.708 200.246 652.903 197.646ZM709.23 216.409C705.817 213.118 704.329 209.903 703.63 205.209C710.824 204.729 711.685 209.395 709.23 216.409ZM623.976 207.759C625.845 212.618 625.222 220.04 622.776 224.66C615.68 221.618 617.466 210.114 623.976 207.759ZM218.209 249.211C227.263 244.276 236.54 239.763 245.61 234.86C260.868 226.612 282.368 209.633 301.213 208.409C271.748 231.155 252.765 252.67 215.609 251.211C216.476 250.544 217.249 249.734 218.209 249.211ZM214.609 224.109C231.849 220.177 248.977 215.764 266.211 211.809C276.786 209.382 274.225 209.714 282.712 210.209C282.212 210.542 281.745 210.932 281.212 211.209C269.175 217.467 257.101 223.655 245.01 229.81C233.216 235.814 218.417 245.922 205.209 247.41C199.386 248.067 193.463 245.854 187.608 245.61C188.4 224.236 194.421 228.715 214.609 224.109ZM650.828 223.209C650.828 217.609 650.828 217.609 650.828 212.009C663.49 217.707 675.102 229.328 680.854 242.085C683.24 247.377 688.297 252.471 687.429 258.211C686.725 262.866 680.63 264.74 676.979 267.711C667.243 275.632 661.851 272.52 658.828 261.211C648.092 265.989 645.393 269.827 641.627 258.811C637.893 264.517 637.118 271.65 630.427 274.012C631.392 253.418 632.279 232.818 632.827 212.209C641.105 213.08 643.909 217.399 650.828 223.209ZM182.408 212.009C175.539 220.939 138.296 240.925 127.755 239.66C119.177 238.631 132.993 225.801 138.606 224.81C149.881 222.818 156.48 221.276 167.407 217.409C180.033 212.684 180.033 212.684 182.408 212.009ZM185.608 215.609C185.608 227.801 165.721 234.953 156.007 233.81C165.531 227.234 175.679 221.539 185.608 215.609ZM602.025 216.409C608.552 217.453 614.356 222.662 615.626 229.61C610.132 228.351 605.402 220.251 602.025 216.409ZM514.022 217.609C518.683 219.596 523.686 226.049 528.422 225.21C528.422 228.21 528.422 228.21 528.422 231.21C523.239 230.902 516.194 222.315 514.022 217.609ZM446.169 231.422C448.209 235.363 449.003 236.716 448.044 241.11C445.226 240.475 437.738 233.933 435.118 231.422C439.351 229.927 442.097 233.489 446.169 231.422ZM562.824 234.01C563.024 235.01 563.024 235.01 563.224 236.01C565.624 235.61 565.624 235.61 568.024 235.21C565.838 238.271 562.298 238.205 562.824 242.41C559.007 242.092 556.645 242.7 553.223 244.41C553.528 241.018 560.153 236.903 562.824 234.01ZM488.621 266.011C491.24 262.083 496.497 264.127 498.021 259.211C499.927 253.063 485.816 253.699 493.421 240.41C500.261 228.459 517.371 236.482 521.835 247.26C530.661 245.484 534.068 241.177 533.723 255.511C533.508 264.419 532.856 273.312 532.423 282.212C528.705 280.353 530.923 282 529.622 274.412C522.884 275.2 521.553 275.515 517.622 270.011C509.184 278.539 509.321 276.407 497.221 273.212C499.475 284.161 517.445 302.551 508.322 309.363C503.459 312.994 499.927 310.327 495.421 307.813C490.608 315.666 493.205 312.179 487.821 318.413C484.921 315.813 484.921 315.813 482.02 313.213C478.168 318.915 479.176 328.267 472.02 330.414C471.003 320.48 469.803 310.564 468.97 300.613C467.863 287.398 470.706 276.717 485.621 280.412C486.059 276.373 486.067 269.842 488.621 266.011ZM741.231 239.81C737.949 242.588 733.154 243.549 731.631 247.61C723.264 242.807 739.17 236.925 741.231 239.81ZM482.22 245.01C480.445 251.111 480.445 251.111 478.67 257.211C479.42 257.636 479.42 257.636 480.17 258.061C478.448 263.573 474.177 262.791 474.37 269.161C465.61 267.858 478.853 248.799 482.22 245.01ZM710.03 268.411C704.073 266.291 696.986 254.955 694.029 249.411C701.964 252.161 708.518 260.093 710.03 268.411ZM562.824 250.411C568.663 253.391 574.984 255.713 578.975 261.211C583.942 268.055 588.788 274.99 593.425 282.062C593.978 282.905 594.779 283.919 594.5 284.887C590.742 297.946 570.793 293.586 566.424 284.412C563.61 288.739 561.398 293.719 557.424 297.013C554.875 294.841 553.41 291.643 551.623 288.812C549.97 296.643 547.618 300.32 544.423 307.213C536.514 292.612 542.161 269.332 544.623 254.011C551.002 253.373 554.501 259.644 560.024 262.011C561.424 256.211 561.424 256.211 562.824 250.411ZM165.407 254.411C171.751 247.096 194.731 253.214 200.308 254.623C204.774 255.752 204.096 263.021 206.009 267.211C209.74 275.384 214.949 282.085 224.009 283.612C220.209 279.212 220.209 279.212 216.409 274.812C227.543 275.545 238.745 275.578 249.811 277.012C253.462 277.485 247.297 284.752 244.01 286.412C234.095 291.419 227.733 292.905 216.672 294.037C190.735 296.694 164.802 294.425 139.206 289.962C134.403 289.125 129.671 287.832 125.055 286.262C121.46 285.039 117.994 283.421 114.655 281.612C112.379 280.379 107.062 274.572 111.28 272.224C119.615 267.584 138.395 269.06 144.406 268.811C140.406 275.212 140.406 275.212 136.406 281.612C152.228 275.283 154.771 266.674 165.407 254.411ZM363.215 270.811C359.163 266.253 356.247 260.665 354.015 255.011C361.65 250.239 362.808 269.359 363.215 270.811ZM304.413 254.811C303.303 271.452 289.583 293.849 272.412 297.613C285.317 283.582 292.914 269.31 304.413 254.811ZM351.015 257.611C352.359 259.646 352.333 259.502 353.715 262.411C358.392 272.258 362.982 282.145 367.616 292.012C362.362 293.003 352.256 303.658 347.615 297.213C365.237 292.053 368.122 270.46 341.214 284.412C346.115 271.011 346.115 271.011 351.015 257.611ZM208.809 258.011C221.009 258.411 221.009 258.411 233.21 258.811C230.735 278.609 215.073 271.503 208.809 258.011ZM250.811 258.811C256.209 263.846 255.453 272.842 257.211 280.012C248.735 276.379 249.014 266.358 250.811 258.811ZM370.216 262.411C372.491 265.553 371.424 267.593 371.216 272.012C369.192 268.774 369.016 266.01 370.216 262.411ZM405.63 267.424C405.601 274.257 392.422 275.212 386.416 275.212C392.088 270.849 398.324 266.7 405.63 267.424ZM657.428 288.562C661.28 285.859 666.36 285.068 669.928 281.999C674.26 278.275 676.385 272.436 680.629 268.611C683.45 266.069 694.236 267.525 696.029 267.611C693.928 276.545 694.362 272.645 694.029 279.212C700.085 278.563 706.097 273.601 712.03 276.012C720.284 279.365 713.581 314.626 710.03 325.076C706.735 319.412 706.587 312.424 705.23 306.013C702.43 308.613 702.43 308.613 699.63 311.213C696.829 305.613 696.829 305.613 694.029 300.013C691.038 303.712 692.652 301.501 689.429 306.813C681.649 303.097 685.142 304.164 679.229 302.813C682.029 311.413 682.029 311.413 684.829 320.014C678.695 321.48 672.627 323.252 666.428 324.414C664.159 324.839 663.019 321.264 661.078 320.014C657.577 317.758 654.749 324.029 649.627 320.414C645.886 326.601 642.391 332.945 638.402 338.977C636.2 342.307 636.053 341.871 633.127 342.277C629.376 331.092 619.669 280.11 641.427 297.613C645.151 290.443 642.833 292.608 646.727 289.712C653.545 294.59 650.31 293.007 656.028 295.212C656.096 293.976 655.962 289.591 657.428 288.562ZM641.627 274.012C642.496 275.949 642.496 275.949 643.365 277.887C647.349 277.48 656.548 271.855 659.228 278.412C650.414 279.213 641.972 281.463 633.227 282.812C634.626 279.873 639.246 277.451 641.627 274.012ZM605.026 277.212C607.689 278.497 608.94 280.815 612.026 280.012C614.039 286.728 618.037 288.601 618.426 295.613C611.833 294.385 613.704 285.612 606.026 285.612C606.314 281.963 605.333 280.595 605.026 277.212ZM382.016 280.012C380.13 283.43 381.349 282.321 378.916 283.862C378.566 282.837 378.566 282.837 378.216 281.812C380.116 280.912 380.116 280.912 382.016 280.012ZM351.215 284.212C350.249 287.11 348.799 293.256 345.015 290.012C346.247 286.822 346.963 283.252 351.215 284.212ZM439.619 284.012C442.084 286.029 448.979 293.123 450.019 295.613C447.419 295.613 447.419 295.613 444.819 295.613C445.219 294.212 445.219 294.212 445.619 292.812C440.103 291.778 435.484 289.849 433.218 284.412C436.018 285.412 436.018 285.412 438.819 286.412C439.219 285.212 439.219 285.212 439.619 284.012ZM747.032 284.012C746.089 291.084 740.393 294.723 734.031 295.212C734.031 292.212 734.031 292.212 734.031 289.212C738.466 290.382 738.564 288.989 741.831 285.412C742.531 285.912 742.531 285.912 743.231 286.412C745.5 284.711 744.246 285.531 747.032 284.012ZM315.213 285.212C315.213 294.642 306.443 309.907 296.613 312.013C301.185 302.615 308.495 293.223 315.213 285.212ZM374.816 284.812C377.616 284.812 377.616 284.812 380.416 284.812C379.616 286.212 379.616 286.212 378.816 287.612C380.816 287.612 380.816 287.612 382.816 287.612C381.816 289.812 381.816 289.812 380.816 292.012C381.816 292.012 381.816 292.012 382.816 292.012C381.773 304.533 375.605 287.77 374.816 284.812ZM388.016 284.812C392.738 285.237 393.516 284.358 394.417 288.412C391.217 288.612 391.217 288.612 388.016 288.812C388.016 286.812 388.016 286.812 388.016 284.812ZM527.022 292.412C523.563 298.216 520.75 291.487 516.022 292.012C516.222 290.212 516.222 290.212 516.422 288.412C515.722 288.112 515.722 288.112 515.022 287.812C519.289 287.457 523.076 290.742 527.022 292.412ZM423.418 291.212C424.412 295.9 424.567 293.482 422.418 298.413C428.967 299.964 425.12 298.614 433.368 303.863C432.293 307.538 432.293 307.538 431.218 311.213C441.77 310.764 459.835 307.166 461.22 314.413C463.008 323.771 463.353 333.347 464.42 342.815C458.096 340.732 451.312 337.554 447.619 332.014C443.538 338.008 443.538 338.008 439.456 344.002C432.537 340.608 432.537 340.608 425.618 337.214C429.472 347.016 435.691 358.663 431.393 368.278C446.985 373.632 432.87 373.504 438.419 376.066C445.873 379.508 458.962 380.845 458.019 391.617C461.635 393.012 466.768 395.341 466.82 399.217C466.884 404.017 466.82 408.817 466.82 413.618C462.221 411.893 459.715 406.739 456.932 402.692C451.24 404.708 445.304 398.459 440.819 394.417C440.785 397.6 441.033 400.799 440.719 403.967C440.045 410.762 425.89 402.022 422.818 403.217C425.879 409.009 432.186 413.316 433.456 419.743C434.01 422.548 429.916 425.46 431.193 428.018C433.274 432.185 438.82 433.471 442.006 436.868C444.124 439.127 441.327 443.059 440.419 446.019C462.234 433.996 470.494 428.487 471.62 457.219C464.72 456.019 464.72 456.019 457.819 454.819C463.648 463.032 460.234 459.445 468.02 465.62C466.82 467.62 466.82 467.62 465.62 469.62C473.807 477.247 473.736 483.381 472.42 494.421C465.62 480.82 465.62 480.82 458.819 467.22C456.519 469.22 456.519 469.22 454.219 471.22C451.319 467.22 451.319 467.22 448.419 463.22C444.844 470.311 447.206 468.063 442.719 471.17C437.369 467.195 437.369 467.195 432.018 463.22C433.418 470.22 433.418 470.22 434.818 477.22C425.289 468.882 422.45 451.422 405.217 457.619C399.879 459.539 394.605 461.975 390.079 465.395C387.596 467.271 387.2 471.428 384.416 472.82C392.406 486.738 379.56 484.4 373.166 474.72C365.715 463.441 358.852 444.115 355.94 433.206C347.761 402.562 373.318 371.833 367.216 340.414C381.383 346.204 384.841 350.009 396.017 340.014C379.555 334.195 369.385 334.055 363.215 318.013C373.572 323.136 385.846 331.158 398.017 331.614C397.796 331.237 391.338 317.91 387.354 316.388C372.152 310.582 364.193 312.849 354.015 301.813C365.701 295.85 368.527 297.406 377.216 306.813C376.816 304.213 376.816 304.213 376.416 301.613C384.016 301.613 384.016 301.613 391.617 301.613C391.417 302.813 391.417 302.813 391.217 304.013C397.605 307.359 405.028 314.142 411.617 311.213C408.074 308.176 403.944 305.391 401.767 301.263C404.692 301.038 404.692 301.038 407.617 300.813C407.617 298.613 407.617 298.613 407.617 296.413C414.917 296.257 417.982 295.923 423.418 291.212ZM396.817 292.012C399.917 292.75 399.917 292.75 403.017 293.487C399.001 294.994 401.067 294.416 396.817 295.212C396.817 293.612 396.817 293.612 396.817 292.012ZM335.652 292.587C337.996 296.079 336.943 294.27 338.814 298.013C334.614 299.813 334.614 299.813 330.414 301.613C331.764 298.508 332.68 294.472 335.652 292.587ZM576.024 309.013C580.065 306.004 591.627 293.403 600.025 293.612C608.028 293.812 603.287 299.002 604.226 303.413C605.009 307.096 614.65 305.042 617.389 309.101C622.288 316.361 622.419 329.061 622.66 337.084C623.095 351.523 623.038 365.972 623.226 380.416C612.902 369.484 614.22 357.423 599.075 352.865C598.616 354.668 598.954 359.096 595.625 358.815C590.185 358.356 584.852 357.004 579.425 356.415C571.635 355.57 570.647 361.246 564.424 355.215C558.923 361.666 559.706 364.835 553.998 361.303C552.012 365.229 552.482 370.777 548.823 373.216C547.463 358.011 546.677 355.045 547.023 341.214C547.148 336.209 547.124 331.172 547.823 326.214C548.389 322.204 554.976 330.147 558.024 332.814C564.074 316.392 555.254 319.754 572.824 324.014C571.68 313.899 569.479 313.889 576.024 309.013ZM161.607 297.613C159.853 300.243 158.568 302.193 156.007 304.013C155.007 301.813 155.007 301.813 154.007 299.613C158.602 297.889 156.086 298.616 161.607 297.613ZM172.607 340.114C180.201 339.182 174.911 337.598 180.958 334.364C187.255 330.996 199.473 329.615 202.809 321.464C207.32 310.44 202.307 312.079 209.609 304.813C215.783 298.669 222.22 298.212 230.435 297.65C231.626 303.971 233.051 310.253 234.01 316.613C236.849 335.442 213.089 336.528 203.621 349.427C196.354 359.327 200.907 381.111 195.508 386.929C175.349 375.674 166.927 356.014 159.607 335.214C164.727 338.438 166.393 340.877 172.607 340.114ZM202.809 298.813C205.809 299.013 205.809 299.013 208.809 299.213C206.354 302.486 207.834 301.047 204.309 303.463C203.102 300.447 203.605 301.996 202.809 298.813ZM167.207 299.213C167.207 301.213 167.207 301.213 167.207 303.213C171.735 302.398 177.795 297.508 182.258 300.413C185.787 302.71 189.08 305.374 192.708 307.513C195.824 309.35 208.021 317.079 198.696 322.651C189.393 328.21 182.865 319.895 180.17 324.864C182.419 326.594 184.637 326.802 186.808 328.814C169.324 329.785 165.63 349.864 157.607 318.413C156.865 318.821 154.207 321.329 152.994 319.326C149.842 314.119 147.269 308.584 144.406 303.213C150.891 302.351 151.684 302.968 154.407 308.413C160.807 303.813 160.807 303.813 167.207 299.213ZM197.808 299.813C197.708 300.713 197.708 300.713 197.608 301.613C201.335 302.027 201.76 303.804 202.809 307.213C198.114 307.213 192.615 305.727 190.608 300.825C193.217 299.945 195.106 299.158 197.808 299.813ZM338.114 311.813C334.057 314.18 334.212 303.948 339.214 303.213C344.892 302.379 342.156 309.456 338.114 311.813ZM303.613 327.614C296.76 324.389 292.857 317.257 286.012 313.663C265.017 302.641 255.572 312.433 238.01 321.214C251.414 296.675 296.122 299.315 303.613 327.614ZM135.606 306.013C147.153 306.949 149.61 314.406 153.156 326.714C146.545 320.704 141.19 312.926 135.606 306.013ZM523.485 309.938C526.538 311.142 531.955 303.51 533.66 307.926C534.569 310.278 535.21 315.876 535.36 317.826C536.084 327.215 536.602 336.618 537.223 346.015C533.691 344.669 535.66 345.736 531.823 342.014C527.628 345.936 526.076 343.845 522.022 340.414C518.315 349.947 507.093 347.859 507.421 337.014C507.722 327.106 514.305 315.95 519.084 307.326C520.755 307.67 521.898 309.312 523.485 309.938ZM557.749 308.813C558.595 313.774 552.433 313.494 549.361 317.013C548.692 315.713 548.692 315.713 548.023 314.413C552.428 312.828 552.873 309.146 557.749 308.813ZM142.806 319.214C129.805 316.813 129.805 316.813 116.805 314.413C128.231 309.253 134.15 308.044 142.806 319.214ZM336.114 363.815C330.197 345.527 306.78 329.847 327.414 309.213C331.657 322.466 336.121 333.927 343.015 346.215C347.328 353.903 358.026 360.348 356.415 369.016C354.548 379.063 351.615 388.883 349.215 398.817C340.859 388.762 339.998 375.819 336.114 363.815ZM338.464 320.689C338.439 317.732 348.323 314.179 349.565 313.613C351.274 328.011 363.214 344.285 357.615 359.215C350.058 349.405 338.573 333.456 338.464 320.689ZM227.81 409.417C224.347 386.261 220.793 356.338 234.21 335.364C259.394 295.994 302.849 318.101 305.013 359.815C306.173 382.183 306.207 390.82 302.013 412.817C298.704 430.172 295.212 455.208 283.912 470.682C280.453 455.839 294.058 438.699 297.013 423.818C301.871 399.352 303.783 366.06 295.212 342.014C282.258 305.67 245.057 321.251 235.11 349.377C230.348 362.842 230.082 378.423 230.922 392.429C231.786 406.825 231.112 421.783 235.81 435.418C239.944 447.418 245.996 459.031 247.61 471.62C235.531 453.146 231.013 430.844 227.81 409.417ZM144.806 327.614C133.438 325.492 127.916 324.271 116.705 322.864C110.337 322.064 102.309 325.254 96.8041 321.814C103.009 313.541 140.685 318.547 144.806 327.614ZM695.229 319.214C700.538 322.024 708.006 330.666 707.63 336.814C700.704 333.223 699.013 325.16 695.229 319.214ZM495.621 320.014C497.783 323.843 497.253 321.933 497.621 325.614C501.237 322.709 499.384 323.373 502.821 322.814C498.805 329.44 490.119 336.014 482.42 336.014C482.665 332.958 483.064 331.372 485.621 329.614C489.828 335.224 494.543 322.709 495.621 320.014ZM270.811 324.814C293.934 328.371 290.11 342.812 270.811 351.615C270.811 338.214 270.811 338.214 270.811 324.814ZM119.405 329.014C96.3041 332.314 96.3041 332.314 73.2031 335.614C83.4278 321.527 105.24 326.729 119.405 329.014ZM263.211 326.014C262.892 334.422 263.097 343.592 261.611 352.015C240.753 334.837 242.485 336.147 263.211 326.014ZM670.353 342.965C670.459 341.648 670.953 340.349 671.628 339.214C679.398 326.151 680.083 326.316 694.154 335.214C697.239 337.165 690.709 344.078 693.492 345.415C701.425 349.224 702.89 346.782 708.23 351.015C716.694 357.725 715.21 384 715.63 392.017C710.537 387.789 709.003 372.833 706.43 366.416C704.234 375.017 706.145 371.572 701.63 377.216C695.497 367.284 698.964 371.951 691.229 363.215C690.429 368.416 690.429 368.416 689.629 373.616C683.592 372.343 677.396 371.768 671.228 371.616C674.78 378.894 681.78 384.683 682.691 392.692C675.369 396.2 667.742 399.086 660.028 401.617C659.66 397.936 660.19 399.846 658.028 396.017C652.436 402.779 655.54 399.885 648.827 404.817C645.656 399.22 647.485 401.547 643.627 397.617C641.029 402.894 639.71 410.376 634.027 413.217C633.427 405.951 632.496 398.703 632.227 391.417C631.862 381.539 632.068 371.649 632.127 361.765C632.225 345.169 649.803 361.801 656.028 363.215C657.968 349.956 660.04 351.688 673.629 352.815C673.17 349.34 670.073 346.46 670.353 342.965ZM307.213 332.014C312.657 332.831 312.182 333.15 316.413 337.214C311.393 335.972 310.462 335.588 307.213 332.014ZM57.8024 416.218C49.468 415.662 42.3084 409.918 34.864 406.13C14.2018 395.615 41.778 365.323 50.5021 355.115C66.1177 336.843 92.3507 334.836 114.805 333.464C122.793 332.976 130.803 332.877 138.806 332.814C143.966 332.774 146.897 332.01 150.406 335.614C162.28 347.809 167.893 384.475 173.207 400.017C147.844 386.196 126.845 366.455 104.804 348.015C111.671 362.949 120.882 377.014 125.405 392.817C126.271 395.842 121.881 398.052 119.805 400.417C113.131 408.02 103.114 413.429 95.204 418.818C101.888 418.435 108.776 416.912 114.605 413.618C119.305 418.418 119.305 418.418 124.005 423.218C105.672 430.526 91.776 436.779 72.003 430.618C71.2227 430.375 71.1843 429.077 71.303 428.268C72.2634 421.726 73.9031 415.301 75.2032 408.817C69.4029 411.284 64.0915 416.637 57.8024 416.218ZM666.066 334.889C663.45 338.199 659.75 339.065 658.828 343.215C654.258 341.713 649.03 342.238 647.627 347.615C643.871 346.19 643.871 346.19 640.115 344.765C645.668 341.311 646.016 340.985 648.827 335.214C649.227 336.814 649.227 336.814 649.627 338.414C657.901 336.664 656.997 332.941 666.066 334.889ZM241.61 341.214C250.9 350.133 261.611 357.216 261.611 370.816C251.72 363.834 235.538 354.573 241.61 341.214ZM516.622 366.616C519.272 371.075 523.14 368.144 523.622 374.416C531.694 373.477 538.896 370.607 539.623 380.804C540.06 386.932 540.156 393.079 540.423 399.217C534.202 395.686 534.801 385.606 529.922 382.679C528.342 381.73 526.664 384.751 524.822 384.816C512.436 385.256 507.846 386.2 499.671 376.566C496.222 383.069 498.489 381.212 494.421 383.616C494.221 381.616 494.221 381.616 494.021 379.616C486.102 383.121 484.891 393.02 477.22 396.217C475.225 389.343 465.579 331.642 492.821 350.015C499.116 326.934 513.206 360.868 516.622 366.616ZM308.813 342.014C318.943 346.824 325.327 350.886 313.013 358.015C311.145 352.827 310.082 347.371 308.813 342.014ZM291.212 344.015C294.662 357.813 279.674 364.482 270.011 372.016C269.586 357.64 280.301 352.198 291.212 344.015ZM220.659 345.765C220.81 349.226 220.105 355.717 216.809 357.365C212.305 351.875 212.859 346.996 220.659 345.765ZM743.631 346.015C741.32 347.748 740.431 348.685 740.431 351.615C734.463 351.126 736.443 355.7 732.031 356.015C732.833 350.746 738.049 345.543 743.631 346.015ZM462.42 352.015C465.482 353.765 465.22 355.882 465.22 359.215C462.977 356.973 462.68 355.141 462.42 352.015ZM535.335 359.54C534.679 360.678 534.679 360.678 534.023 361.815C530.12 360.987 522.065 358.745 521.222 354.415C528.026 353.63 530.323 354.914 535.335 359.54ZM448.906 353.79C449.463 356.503 449.463 356.503 450.019 359.215C447.619 359.215 447.619 359.215 445.219 359.215C446.097 355.703 446.366 355.813 448.906 353.79ZM316.013 375.616C315.791 369.173 315.549 364.962 319.614 359.815C335.847 356.978 317.152 374.587 316.013 375.616ZM209.809 356.615C215.349 362.946 215.209 370.026 215.209 378.016C207.948 372.207 205.352 364.971 209.809 356.615ZM235.61 357.615C248.592 362.777 260.529 376.133 261.611 390.017C246.662 383.051 235.61 374.164 235.61 357.615ZM455.619 358.815C455.619 361.015 455.619 361.015 455.619 363.215C451.446 361.593 452.857 362.793 450.819 360.415C454.563 359.245 452.973 359.808 455.619 358.815ZM293.612 363.015C296.742 379.182 281.372 384.146 269.611 392.417C269.778 376.892 279.647 370.177 293.612 363.015ZM594.025 377.616C593.24 381.502 590.947 384.961 590.025 388.816C602.057 383.559 604.148 384.856 604.426 397.217C611.615 395.439 615.555 392.272 622.826 394.817C622.96 411.886 622.958 428.975 622.026 446.019C617.529 438.356 620.16 419.466 608.426 429.218C603.826 423.818 603.826 423.818 599.225 418.418C598.408 435.986 576.859 430.335 578.824 421.818C580.489 414.607 584.661 408.091 586.025 400.817C581.276 401.68 572.565 408.309 570.024 402.017C566.424 408.817 566.424 408.817 562.824 415.618C561.824 414.018 561.824 414.018 560.824 412.417C554.962 419.121 556.492 429.984 548.823 434.818C549.944 419.607 542.116 386.254 566.024 392.817C566.129 382.263 567.265 382.303 577.224 381.616C573.729 352.63 596.054 367.58 594.025 377.616ZM597.625 366.015C602.068 367.348 611.948 376.548 614.964 376.178C619.044 387.709 607.926 376.741 604.026 376.416C604.551 371.689 600.697 369.087 597.625 366.015ZM566.824 369.616C564.403 371.691 564.107 372.774 562.849 376.003C561.936 375.51 561.936 375.51 561.024 375.016C562.22 371.644 561.304 373.943 564.424 368.416C565.624 369.016 565.624 369.016 566.824 369.616ZM328.489 371.778C329.66 381.229 325.566 391.662 315.613 395.217C315.943 385.645 318.985 376.312 328.489 371.778ZM124.005 374.016C131.661 378.947 138.18 385.443 146.006 390.067C154.87 395.303 163.93 400.203 172.807 405.417C174.668 406.51 175.884 408.413 177.208 410.017C160.079 407.747 128.349 393.562 124.005 374.016ZM205.209 374.016C211.277 379.217 214.594 386.276 215.209 394.017C208.066 387.079 204.742 383.807 205.209 374.016ZM558.824 375.216C559.424 376.116 559.424 376.116 560.024 377.016C558.021 379.019 559.13 378.351 556.824 379.216C557.824 377.216 557.824 377.216 558.824 375.216ZM234.41 376.816C246.066 387.197 259.59 395.406 261.211 411.617C248.668 402.26 232.037 394.61 234.41 376.816ZM171.207 377.616C177.598 382.181 183.423 386.696 188.808 392.417C179.017 390.581 174.367 387.096 171.207 377.616ZM295.212 381.216C295.212 397.5 284.395 406.229 270.811 414.018C271.273 397.408 281.287 390.113 295.212 381.216ZM689.229 381.216C691.349 382.064 698.533 382.784 700.03 384.216C702.972 387.031 702.669 391.609 708.03 391.217C707.581 395.079 707.424 392.739 710.33 397.867C705.923 398.868 708.156 398.551 703.63 398.817C705.717 390.907 698.633 389.674 692.429 387.816C693.229 386.916 693.229 386.916 694.029 386.016C692 384.519 690.768 383.194 689.229 381.216ZM749.232 382.416C746.547 387.787 742.381 388.378 737.231 390.017C737.231 388.016 737.231 388.016 737.231 386.016C740.811 386.393 745.463 383.672 749.232 382.416ZM327.614 391.217C327.614 401.954 324.148 409.011 314.013 413.618C314.719 403.731 319.462 396.923 327.614 391.217ZM496.421 392.017C499.045 392.644 498.821 393.917 498.821 396.417C497.621 396.417 497.621 396.417 496.421 396.417C496.421 394.217 496.421 394.217 496.421 392.017ZM516.322 393.767C516.968 400.717 518.089 410.113 524.722 414.418C529.5 417.519 537.207 418.254 539.123 423.618C541.946 431.523 541.467 441.458 541.623 449.619C537.502 444.039 539.595 447.663 536.823 438.019C533.617 439.087 518.866 430.307 514.022 428.418C514.311 432.124 516.432 435.955 515.822 439.619C514.49 447.609 506.83 442.494 504.821 438.219C492.01 446.171 489.758 459.229 478.82 469.62C477.467 450.864 477.688 432.022 477.62 413.217C480.47 413.334 483.368 413.035 486.171 413.568C488.228 413.958 490.73 417.422 492.046 415.793C498.054 408.35 493.548 409.76 504.421 406.817C500.967 399.81 511.254 392.439 516.322 393.767ZM206.009 393.217C215.026 399.228 216.953 404.313 218.009 414.818C210.195 411.469 206.782 400.951 206.009 393.217ZM336.814 393.217C344.329 397.153 353.686 416.426 345.127 422.893C339.518 417.283 338.402 400.037 336.814 393.217ZM179.208 393.617C185.214 395.706 190.316 398.089 195.608 401.617C189.633 400.183 182.522 399.417 179.208 393.617ZM496.021 402.017C493.07 401.689 488.353 402.582 486.071 401.017C491.57 397.201 493.221 393.617 496.021 402.017ZM524.822 396.417C531.127 397.647 532.217 401.994 533.623 407.617C529.804 406.5 525.636 400.487 524.822 396.417ZM186.008 420.818C168.274 415.618 144.902 415.362 133.606 398.417C146.437 403.614 178.01 411.441 186.008 420.818ZM670.028 422.818C657.631 407.179 699.994 384.993 691.629 407.417C693.192 407.627 704.548 408.193 709.118 410.392C725.745 418.395 719.001 451.453 716.43 464.82C713.06 461.075 712.845 452.911 712.43 447.619C710.833 447.852 706.667 451.314 705.517 450.219C700.377 445.323 700.814 442.164 694.529 438.869C693.679 441.644 693.679 441.644 692.829 444.419C686.198 438.602 675.485 429.702 670.028 422.818ZM235.61 399.217C252.054 411.688 261.084 415.203 261.611 435.218C243.551 427.994 235.61 417.211 235.61 399.217ZM125.205 403.217C126.539 405.884 131.872 416.551 133.206 419.218C130.739 418.218 120.872 414.218 118.405 413.217C119.538 411.551 124.072 404.884 125.205 403.217ZM199.008 407.417C203.262 412.507 192.347 419.921 186.408 405.617C185.082 402.424 197.353 405.436 199.008 407.417ZM293.212 405.217C292.973 422.963 283.428 427.193 269.211 437.619C269.72 419.806 278.742 415.14 293.212 405.217ZM662.428 408.817C663.028 409.817 663.028 409.817 663.628 410.817C660.09 412.94 655.498 414.451 656.028 419.218C650.694 419.498 645.96 423.618 641.627 423.618C641.827 420.618 641.827 420.618 642.027 417.618C648.574 418.152 649.637 417.19 651.628 411.217C655.668 414.753 658.673 411.387 662.428 408.817ZM755.482 410.217C754.416 414.835 746.398 422.082 741.631 424.018C743.713 416.316 748.241 411.783 755.482 410.217ZM140.006 412.017C154.292 417.493 166.748 422.289 181.608 424.818C173.378 430.733 164.584 435.82 156.007 441.219C148.006 426.618 148.006 426.618 140.006 412.017ZM62.4026 426.018C61.8176 432.547 61.8176 432.547 61.2326 439.077C74.5657 441.818 88.3545 448.338 101.604 445.219C113.881 442.329 122.225 428.489 136.206 430.543C147.107 432.145 146.282 455.377 158.469 451.869C162.843 450.61 166.695 447.969 170.807 446.019C175.207 457.219 175.207 457.219 179.608 468.42C169.958 469.653 158.511 475.275 150.456 469.82C137.604 461.116 131.184 450.107 117.205 443.219C125.235 450.735 149.832 465.657 143.206 482.22C141.863 485.578 131.054 501.593 128.605 503.821C127.643 504.697 125.847 504.471 124.701 503.853C115.455 498.869 107.242 492.082 97.9041 487.271C60.4523 467.973 23.1463 463.879 25.6011 414.218C40.7645 419.085 47.0773 433.277 62.4026 426.018ZM324.414 413.417C325.244 421.722 317.969 430.366 310.813 433.618C312.216 423.796 315.501 418.511 324.414 413.417ZM456.257 416.43C456.861 419.473 458.13 422.179 458.419 425.218C453.283 424.576 447.163 421.285 443.619 417.618C447.565 417.881 450.767 418.496 454.419 420.018C455.338 418.224 455.338 418.224 456.257 416.43ZM211.209 417.218C219.597 420.946 222.666 428.13 223.209 436.818C215.698 432.892 212.686 425.093 211.209 417.218ZM574.024 418.818C571.64 422.99 570.424 423.926 570.424 428.018C565.618 428.018 564.441 432.867 560.424 434.818C562.498 429.539 568.506 421.117 574.024 418.818ZM198.808 420.818C204.997 420.818 204.974 423.787 206.009 429.218C201.65 428.128 199.583 425.078 198.808 420.818ZM261.655 466.262C261.934 476.845 261.892 487.435 262.011 498.021C266.588 497.183 267.153 498.23 267.661 491.771C268.773 477.662 268.036 463.423 269.599 449.357C270.654 439.858 284.729 432.16 292.012 428.018C289.012 436.618 289.012 436.618 286.012 445.219C285.287 441.869 285.287 441.869 284.562 438.519C281.079 438.963 280.54 444.548 280.012 448.019C279.216 453.253 278.666 458.532 278.412 463.82C277.737 477.887 286.858 490.694 291.412 504.021C293.827 511.087 291.623 517.4 290.412 524.422C285.428 509.47 286.576 496.843 277.812 482.758C277.478 483.245 276.717 483.638 276.812 484.22C278.678 495.693 281.345 507.021 283.612 518.422C276.269 511.68 254.043 497.338 253.611 483.22C249.579 484.027 252.117 486.229 248.811 487.221C251.745 473.78 257.361 450.973 248.01 439.619C246.71 444.219 246.71 444.219 245.41 448.819C242.637 441.055 240.19 433.169 238.01 425.218C253.336 438.11 261.119 445.908 261.655 466.262ZM654.078 429.118C655.861 425.041 668.342 428.29 670.428 429.618C681.372 436.583 692.522 452.865 682.829 465.02C689.229 470.42 689.229 470.42 695.629 475.82C694.029 479.52 694.029 479.52 692.429 483.22C696.423 484.393 712.601 484.684 713.306 487.139C717.408 501.414 717.65 523.507 715.23 538.023C710.009 538.277 704.708 538.383 699.63 539.623C702.001 531.68 703.829 523.49 704.43 515.222C699.63 521.022 699.63 521.022 694.829 526.822C694.955 518.819 695.058 510.76 694.029 502.821C691.671 508.691 691.332 514.939 688.429 520.472C683.011 517.497 680.442 511.79 675.229 508.422C681.678 519.993 704.867 548.008 675.029 549.873C674.555 538.99 675.711 528.092 676.429 517.222C672.678 522.126 673.217 529.374 667.628 532.423C665.828 521.822 665.828 521.822 664.028 511.222C661.343 522.313 660.941 533.848 660.028 545.223C656.453 533.069 653.914 526.368 647.627 515.622C649.679 528.695 652.705 541.614 656.028 554.423C644.381 555.259 640.5 558.739 639.627 546.873C638.266 528.365 637.642 509.775 638.027 491.221C643.78 493.051 648.595 497.087 653.628 500.421C654.169 489.054 659.816 492.015 671.628 490.821C668.428 485.921 668.428 485.921 665.228 481.02C671.705 473.643 675.889 464.376 679.429 455.219C671.28 457.727 666.358 460.67 662.028 452.419C655.828 456.619 655.828 456.619 649.627 460.82C649.227 457.419 649.227 457.419 648.827 454.019C644.105 461.386 639.468 468.905 633.627 475.42C633.072 449.848 624.267 416.07 656.028 444.419C656.067 440.006 652.542 432.629 654.078 429.118ZM194.808 427.218C201.941 430.784 206.656 434.242 210.009 441.619C202.738 440.114 197.788 433.773 194.808 427.218ZM192.408 431.218C194.505 437.68 196.989 441.794 203.209 445.019C205.799 446.362 209.767 445.314 211.571 447.606C217.95 455.71 209.624 461.071 209.359 469.72C209.253 473.179 213.338 475.295 214.809 478.42C208.421 476.78 208.726 469.956 202.009 469.62C202.209 471.62 202.209 471.62 202.409 473.62C199.658 470.439 199.658 470.439 196.908 467.257C194.19 470.584 198.289 473.965 193.608 475.62C192.248 471.293 192.445 464.162 188.008 463.22C187.808 466.22 187.808 466.22 187.608 469.22C171.846 448.955 173.675 443.028 192.408 431.218ZM319.614 435.818C312.979 449.299 302.943 461.984 294.012 474.02C289.758 464.094 312.717 430.892 319.614 435.818ZM551.223 447.419C553.029 440.295 569.351 452.224 570.824 436.018C581.463 437.315 588.059 437.101 590.975 446.969C592.749 452.972 595.895 454.058 590.763 459.457C588.262 462.087 573.726 462.693 571.324 463.27C569.635 460.616 570.746 461.352 568.399 460.544C563.855 466.3 565.986 463.28 562.024 469.62C560.424 468.62 560.424 468.62 558.824 467.62C556.907 472.57 555.777 478.267 552.023 482.02C550.853 471.021 548.41 458.521 551.223 447.419ZM614.401 446.256C615.513 451.06 615.098 448.607 615.626 453.619C607.433 450.152 611.495 448.216 601.225 446.419C604.267 441.477 600.089 441.324 597.025 436.818C605.726 436.996 606.474 447.661 614.401 446.256ZM217.609 440.019C231.594 448.034 237.52 464.934 240.41 480.02C228.337 476.126 220.336 450.924 217.609 440.019ZM317.813 466.42C319.805 458.473 319.093 448.469 325.164 442.969C329.38 449.752 322.183 487.802 312.013 490.021C313.947 482.154 315.844 474.278 317.813 466.42ZM326.814 468.02C327.927 461.081 328.604 452.179 333.555 446.412C336.061 443.492 345.1 448.281 347.615 449.619C357.909 455.096 368.312 475.88 360.015 485.221C360.515 485.821 360.515 485.821 361.015 486.421C348.627 488.356 336.09 489.177 323.614 490.421C324.68 482.954 325.619 475.467 326.814 468.02ZM528.422 446.419C533.673 448.461 535.623 449.182 535.623 455.219C533.623 455.219 533.623 455.219 531.623 455.219C532.427 451.195 530.98 449.488 528.422 446.419ZM692.429 449.219C695.878 450.303 697.877 453.515 701.63 453.219C701.944 458.266 704.726 466.63 710.83 466.02C709.605 469.62 709.605 469.62 708.38 473.22C706.366 464.158 697.229 456.637 692.429 449.219ZM24.001 452.019C29.0679 456.753 33.4013 462.42 39.2017 466.22C50.5719 473.667 63.4551 478.545 75.1282 485.508C81.5789 489.356 79.1571 493.764 74.3156 499.109C60.318 514.56 43.3197 527.457 31.2013 544.423C42.2018 544.623 42.2018 544.623 53.2023 544.823C49.0673 552.318 46.2636 560.73 45.2019 569.224C64.4694 570.291 83.7074 572.47 103.004 572.424C115.607 572.395 128.054 569.028 140.656 568.999C241.642 568.764 346.123 569.415 446.819 580.425C235.21 580.625 235.21 580.625 23.601 580.825C23.801 516.422 23.801 516.422 24.001 452.019ZM511.622 461.02C510.767 456.336 520.428 450.909 523.822 453.619C526.255 455.562 525.1 459.834 527.947 461.807C532.262 464.796 537.163 463.104 539.823 468.22C545.318 478.788 543.673 494.213 543.223 505.621C540.502 503.016 541.45 499.009 538.823 496.621C530.671 489.21 535.244 502.909 529.135 486.046C526.159 487.045 525.581 491.174 522.822 491.821C519.363 492.632 516.729 488.164 513.722 486.271C501.395 478.51 501.758 473.175 516.022 468.42C514.837 465.806 512.137 463.843 511.622 461.02ZM605.176 463.57C603.704 466.945 600.508 468.614 597.625 470.62C596.873 465.853 596.668 460.534 598.625 456.019C605.062 452.061 606.7 460.072 605.176 463.57ZM316.413 454.819C315.273 462.297 313.899 469.746 312.213 477.12C311.313 477.17 311.313 477.17 310.413 477.22C310.413 467.983 308.011 461.324 316.413 454.819ZM423.218 465.62C426.202 468.508 425.964 474.176 427.518 477.62C428.124 478.963 436.658 483.468 438.619 485.621C435.56 486.59 428.359 484.452 426.118 484.17C425.791 491.695 438.132 494.447 442.819 499.221C439.516 498.621 434.015 498.408 431.168 495.671C428.755 493.352 423.796 483.708 421.018 483.22C412.662 481.754 408.907 495.518 400.417 477.62C401.336 477.026 401.336 477.026 402.255 476.433C398.991 475.077 400.604 475.814 397.417 474.22C402.103 473.029 405.595 475.18 410.867 474.62C416.959 473.974 413.632 468.314 409.867 467.345C403.744 465.768 398.171 469.03 392.017 469.22C399.799 463.14 414.351 457.039 423.218 465.62ZM494.021 464.02C494.298 467.969 493.933 465.962 495.221 470.02C491.236 468.659 490.634 466.654 494.021 464.02ZM606.613 466.57C608.509 462.635 619.637 462.659 621.351 466.795C622.042 468.46 622.653 472.052 622.751 473.595C623.231 481.147 623.709 488.705 623.826 496.271C624.134 516.186 623.96 536.106 624.026 556.024C610.125 555.461 600.626 557.474 599.975 542.073C599.913 540.588 599.808 528.561 601.075 527.197C604.801 523.189 617.14 521.089 619.389 513.997C620.018 512.012 617.056 512.336 616.976 510.822C616.837 508.181 618.249 505.66 618.426 503.021C618.868 496.434 618.693 489.821 618.826 483.22C613.98 487.562 610.901 493.558 606.426 498.421C604.226 494.421 604.226 494.421 602.025 490.421C601.239 495.437 602.137 501.757 598.425 505.221C598.885 491.376 600.489 479.28 606.613 466.57ZM225.81 473.82C240.727 487.459 255.531 501.224 270.111 515.222C278.868 523.629 287.339 532.33 295.813 541.023C297.511 542.766 297.378 543.642 298.013 546.023C281.056 535.891 260.728 513.702 248.361 501.671C239.549 493.1 230.981 484.282 222.359 475.52C217.206 470.283 218.522 472.132 216.009 467.42C219.881 466.936 222.93 471.187 225.81 473.82ZM583.225 484.933C584.814 480.973 578.266 479.337 581.025 473.82C581.841 472.187 591.285 462.223 591.463 470.482C591.783 485.393 591.838 500.309 592.025 515.222C590.425 513.822 590.425 513.822 588.825 512.422C586.422 514.665 588.008 513.859 583.625 513.622C583.425 510.422 583.425 510.422 583.225 507.221C576.44 509.232 575.206 509.99 568.824 509.622C568.824 519.386 576.878 527.223 574.424 536.423C580.496 536.542 591.547 533.214 592.425 539.223C593.196 544.502 592.692 549.89 592.825 555.223C580.395 556.391 571.832 565.76 560.224 567.824C556.038 556.464 550.338 515.2 555.624 501.621C557.512 496.769 566.019 500.666 571.224 500.821C571.095 479.189 578.474 496.769 583.225 484.933ZM665.628 470.42C662.11 475.599 654.473 475.659 653.628 482.42C649.615 481.668 645.132 479.987 644.427 485.221C638.99 479.179 660.186 471.7 665.628 470.42ZM170.807 473.82C165.37 477.651 159.132 480.2 153.206 483.22C153.514 472.647 161.476 474.264 170.807 473.82ZM191.208 476.82C186.614 488.128 171.616 494.515 163.907 503.671C159.303 509.14 158.956 518.376 152.806 522.022C149.593 523.927 145.339 522.289 141.606 522.422C148.805 511.884 177.301 470.232 191.208 476.82ZM304.013 475.62C303.552 480.254 303.79 486.6 302.013 491.221C298.202 486.139 299.58 479.371 304.013 475.62ZM170.407 480.02C163.889 486.794 156.377 492.624 150.356 499.871C142.259 509.617 136.943 522.725 123.605 523.622C128.816 511.351 155.198 480.02 170.407 480.02ZM225.61 484.22C232.642 498.285 215.081 514.49 220.059 528.722C225.971 545.623 239.071 543.391 247.71 553.373C255.399 562.257 229.86 562.591 228.81 562.424C220.81 561.149 217.673 557.012 210.009 558.424C200.068 560.255 190.284 566.032 180.296 564.48C175.294 563.703 175.3 557.744 171.257 555.223C163.71 550.519 154.412 550.138 146.87 545.405C147.616 543.568 147.957 541.063 150.106 540.173C152.96 538.991 156.785 539.517 158.907 537.273C161.057 534.999 160.18 531.102 161.407 528.222C168.713 511.077 177.378 497.651 190.408 484.621C197.848 480.17 224.924 482.85 225.61 484.22ZM487.021 560.824C486.024 549.287 485.619 537.704 484.571 526.172C483.835 518.081 482.487 510.055 481.67 501.971C481.152 496.845 479.981 488.565 483.92 484.133C495.902 470.653 517.319 498.568 507.221 506.421C510.738 508.988 514.378 511.395 517.772 514.122C521.081 516.78 518.874 518.109 517.622 522.422C526.297 523.64 536.658 521.856 543.423 527.422C545.89 529.452 545.737 535.905 545.773 537.873C545.955 547.781 547.717 560.069 540.831 568.448C539.469 570.105 535.579 570.854 534.223 571.024C521.947 572.564 518.175 571.667 519.572 558.674C520.289 552.007 522.013 545.479 522.822 538.823C518.963 544.928 517.081 551.71 512.422 557.224C511.549 548.585 511.396 539.441 507.621 531.623C507.185 537.701 507.021 544.173 504.221 549.586C501.174 545.586 499.711 540.595 497.621 536.023C498.558 547.469 500.471 558.295 500.421 569.824C490.448 570.074 487.953 571.622 487.021 560.824ZM445.619 480.82C447.719 481.82 447.719 481.82 449.819 482.82C450.519 482.02 450.519 482.02 451.219 481.22C455.582 486.674 453.152 485.416 457.219 486.821C457.719 484.821 457.719 484.821 458.219 482.82C461.361 485.887 461.621 490.251 464.02 494.021C456.913 491.178 450.978 486.18 445.619 480.82ZM297.313 520.922C297.963 505.97 290.429 495.739 288.412 481.62C298.59 488.783 306.678 521.802 298.413 532.823C293.334 530.001 297.108 525.635 297.313 520.922ZM396.817 484.22C389.954 493.142 377.618 487.621 369.216 487.621C369.894 486.094 395.332 483.231 396.817 484.22ZM561.224 484.02C563.139 486.702 562.582 488.015 562.424 491.621C559.283 490.491 560.796 486.59 561.224 484.02ZM448.819 489.421C445.59 488.959 442.74 488.827 440.219 486.621C444.66 486.898 445.74 486.684 448.819 489.421ZM421.455 491.421C423.471 492.245 423.229 495.533 424.818 497.021C438.648 509.972 446.781 509.832 448.019 529.222C446.619 529.322 446.619 529.322 445.219 529.422C447.88 534.745 443.74 537.655 441.819 542.823C438.194 536.056 433.888 514.63 430.081 514.247C430.234 525.641 431.304 537.73 434.018 548.823C415.982 540.981 422.649 530.798 424.818 515.222C417.832 517.774 416.75 524.897 415.618 531.422C408.835 528.148 393.424 519.701 395.304 509.455C396.482 503.036 407.263 504.192 413.417 502.021C402.431 501.246 391.406 502.895 380.416 503.621C382.168 500.681 381.728 502.179 382.016 499.221C380.216 499.221 380.216 499.221 378.416 499.221C378.416 497.621 378.416 497.621 378.416 496.021C376.216 496.021 376.216 496.021 374.016 496.021C383.805 492.554 410.257 486.84 421.455 491.421ZM454.219 496.221C448.269 498.006 441.838 494.286 437.219 490.821C442.931 492.472 448.901 493.562 454.219 496.221ZM89.8038 493.021C98.9906 504.045 100.234 519.761 105.204 533.223C89.1313 532.63 72.9974 532.713 57.0024 531.022C67.0513 517.753 78.0983 504.856 89.8038 493.021ZM234.41 492.821C234.41 494.021 234.41 494.021 234.41 495.221C236.21 495.221 236.21 495.221 238.01 495.221C237.029 517.53 232.881 520.375 242.01 543.623C227.605 537.075 221.866 502.856 234.41 492.821ZM100.404 493.221C108.167 496.193 113.943 502.868 120.655 507.771C121.4 508.316 122.334 508.745 122.768 509.559C123.933 511.748 119.554 516.448 117.305 515.522C114.281 514.277 108.201 503.992 107.205 502.621C104.93 499.493 96.7926 491.838 100.404 493.221ZM96.0041 494.421C104.626 505.071 119.728 515.967 108.405 528.422C102.204 511.422 102.204 511.422 96.0041 494.421ZM369.216 496.821C369.216 501.021 369.216 501.021 369.216 505.221C350.415 504.221 350.415 504.221 331.614 503.221C337.698 492.575 361.899 496.943 369.216 496.821ZM303.613 497.621C314.613 498.121 314.613 498.121 325.614 498.621C322.756 507.766 315.785 509.469 307.213 510.422C306.727 505.563 306.081 501.852 303.613 497.621ZM452.419 499.221C469.212 503.833 485.006 523.942 467.22 538.023C467.535 529.776 467.749 533.64 466.82 526.422C464.153 529.177 465.046 539.268 459.619 538.823C460.818 534.767 460.302 537.386 460.019 530.822C456.419 532.023 456.419 532.023 452.819 533.223C452.485 515.64 452.373 516.62 441.219 502.821C444.856 502.469 450.367 503.595 453.619 505.221C454.169 502.47 453.655 501.694 452.419 499.221ZM534.823 512.022C536.404 510.353 536.404 510.353 537.985 508.684C538.847 514.005 538.56 511.294 538.823 516.822C532.01 515.193 532.217 508.014 524.822 507.221C524.442 504.129 524 503.482 522.022 501.221C525.422 503.021 525.422 503.021 528.822 504.821C529.122 503.121 529.122 503.121 529.422 501.421C532.461 502.81 532.939 508.792 534.823 512.022ZM254.011 545.423C247.031 538.793 242.883 528.323 241.51 519.009C240.949 515.201 239.286 504.655 244.01 502.221C249.358 512.602 245.795 554.45 272.362 544.573C276.317 543.103 280.129 541.273 284.012 539.623C279.665 550.773 262.741 553.717 254.011 545.423ZM609.226 505.621C612.388 509.495 606.03 516.486 602.025 516.822C603.062 512.33 605.728 508.483 609.226 505.621ZM396.817 522.822C382.497 526.376 389.065 536.698 398.417 543.223C389.489 549.04 387.486 549.557 384.016 558.424C395.201 557.321 406.379 555.722 417.618 555.624C408.314 563.965 395.967 568.607 383.216 565.624C380.949 565.093 379.142 562.716 376.816 562.824C371.599 563.065 366.766 565.757 361.615 566.624C355.288 567.689 349.256 563.066 342.927 562.011C332.098 560.206 324.735 569.629 314.413 562.824C318.583 558.307 326.159 560.572 331.264 556.274C337.351 551.148 340.436 538.418 348.19 536.11C371.514 529.167 392.663 540.212 382.216 506.621C393.075 505.264 393.522 513.996 396.817 522.822ZM778.033 508.822C776.148 514.881 779.812 519.917 774.658 525.022C771.839 527.814 768.908 530.489 766.032 533.223C768.01 525.313 771.15 513.92 778.033 508.822ZM251.211 511.622C260.077 517.904 266.638 526.929 274.262 534.673C274.352 534.764 277.838 538.026 277.187 539.41C276.542 540.783 273.574 541.577 272.362 541.773C256.339 544.357 252.701 531.614 251.611 518.622C251.415 516.293 249.304 510.27 251.211 511.622ZM591.625 529.622C588.71 528.827 586.872 528.555 584.025 529.622C585.904 523.984 576.791 521.932 574.624 516.022C580.421 513.914 590.04 524.337 591.625 529.622ZM339.214 524.422C329.057 524.384 318.554 525.977 308.763 523.272C313.944 514.435 336.71 512.528 339.214 524.422ZM392.917 529.822C396.181 520.03 412.617 535.188 414.118 538.773C413.167 539.398 413.167 539.398 412.217 540.023C415.619 544.274 419.043 545.498 420.818 550.823C412.751 551.623 404.696 552.563 396.617 553.223C393.792 553.454 393.866 550.73 390.417 552.023C393.935 544.148 403.385 549.684 410.317 547.373C410.162 540.087 389.568 539.867 392.917 529.822ZM152.006 531.222C135.206 531.222 135.206 531.222 118.405 531.222C123.175 526.342 149.3 524.258 152.006 531.222ZM341.214 531.222C339.959 546.039 324.217 562.353 308.363 552.748C331.431 550.615 326.536 545.011 341.214 531.222ZM777.633 531.623C777.833 544.423 777.833 544.423 778.033 557.224C773.997 555.378 776.712 556.9 771.233 550.823C770.333 552.023 770.333 552.023 769.433 553.223C762.313 547.307 772.025 535.984 777.633 531.623ZM475.82 534.823C476.409 538.65 478.366 544.643 473.62 546.423C473.803 541.811 474.089 539.027 475.82 534.823ZM449.619 536.023C449.886 536.289 450.952 537.356 451.219 537.623C450.819 537.823 449.219 538.623 448.819 538.823C448.952 538.356 449.486 536.489 449.619 536.023ZM54.8023 537.523C71.0168 537.797 87.0246 537.694 103.017 540.273C96.17 542.099 89.466 540.031 82.3535 539.823C71.7074 539.511 61.0526 539.69 50.4021 539.623C51.5887 536.953 50.736 537.454 54.8023 537.523ZM331.614 538.423C326.703 543.948 318.587 547.996 311.013 547.623C306.484 547.4 300.207 543.101 305.013 539.023C316.027 537.039 323.609 538.995 331.614 538.423ZM140.006 539.223C140.006 550.695 118.097 546.195 110.805 545.223C112.843 535.71 134.047 539.308 140.006 539.223ZM466.82 560.024C456.56 558.592 438.448 553.914 454.819 542.623C465.254 543.153 466.82 552.977 466.82 560.024ZM96.0041 544.823C94.6156 556.764 53.2249 562.048 61.6026 546.223C74.0265 544.248 85.1284 544.863 96.0041 544.823ZM123.605 559.224C118.465 558.26 106.663 554.294 102.529 551.236C108.441 549.942 122.541 551.549 123.605 559.224ZM302.813 561.624C292.612 563.024 292.612 563.024 282.412 564.424C282.412 548.643 296.226 550.332 302.813 561.624ZM438.819 561.624C429.018 564.024 429.018 564.024 419.218 566.424C419.818 564.224 419.818 564.224 420.418 562.024C412.732 565.653 415.851 565.095 411.617 565.624C411.417 564.324 411.417 564.324 411.217 563.024C415.514 561.259 427.669 557.216 428.218 552.823C432.77 552.823 436.869 557.813 438.819 561.624ZM477.22 553.623C477.42 557.224 477.42 557.224 477.62 560.824C473.965 558.387 474.723 556.953 477.22 553.623ZM272.012 555.223C270.786 566.87 257.79 567.917 257.611 558.624C263.828 554.626 267.608 555.098 272.012 555.223ZM157.007 562.274C162.231 562.176 165.015 560.493 169.332 563.099C159.056 565.901 140.882 567.4 131.206 562.424C139.806 562.374 148.408 562.434 157.007 562.274ZM74.6032 563.974C82.4152 564.425 119.042 564.052 120.005 566.024C102.428 570.08 65.901 570.461 50.2021 563.424C58.3358 563.607 66.481 563.504 74.6032 563.974ZM438.019 563.224C434.002 567.632 427.602 572.239 421.38 570.899C424.422 565.799 432.487 564.16 438.019 563.224ZM689.379 577.212C699.079 576.619 704.272 572.919 714.43 571.424C734.367 568.491 758.232 571.388 778.033 571.224C775.729 584.006 746.545 579.827 737.931 579.862C704.313 579.999 670.695 579.604 637.077 579.475C655.675 572.741 670.5 578.366 689.379 577.212Z" fill="#000000" fill-rule="nonzero" opacity="1" stroke="none"/>
</g>
</svg>
