<?xml version="1.0" encoding="UTF-8" standalone="no"?>
<!DOCTYPE svg PUBLIC "-//W3C//DTD SVG 1.1//EN" "http://www.w3.org/Graphics/SVG/1.1/DTD/svg11.dtd">
<!-- Created with Vectornator (http://vectornator.io/) -->
<svg height="100%" stroke-miterlimit="10" style="fill-rule:nonzero;clip-rule:evenodd;stroke-linecap:round;stroke-linejoin:round;" version="1.1" viewBox="0 0 800 600" width="100%" xml:space="preserve" xmlns="http://www.w3.org/2000/svg" xmlns:xlink="http://www.w3.org/1999/xlink">
<defs/>
<clipPath id="ArtboardFrame">
<rect height="600" width="800" x="0" y="0"/>
</clipPath>
<g clip-path="url(#ArtboardFrame)" id="Layer-1">
<path d="M11.5623 5.06965C8.54631 60.2749 3.47572 115.406 2.51431 170.685C0.0209807 314.047 1.63868 457.45 1.20086 600.832C400.088 600.632 400.088 600.632 798.975 600.432C798.774 300.416 798.774 300.416 798.574 0.400288C536.233 0.797024 273.875 1.13057 11.5623 5.06965ZM440.517 41.3798C443.644 34.8101 444.065 22.9056 451.325 22.4161C543.249 16.2184 635.59 22.1493 727.723 22.0158C726.122 40.0288 726.122 40.0288 724.521 58.0417C713.713 50.8366 713.713 50.8366 702.906 43.6314C695.1 70.6508 695.1 70.6508 687.294 97.6702C690.492 96.5076 700.901 91.2458 706.208 93.0669C714.914 96.0545 734.615 114.089 740.152 96.7086C743.329 86.7352 745.743 76.5347 748.538 66.4478C758.546 81.6587 758.546 81.6587 768.553 96.8697C772.255 81.5587 772.255 81.5587 775.958 66.2476C766.618 62.1781 756.696 59.2442 747.938 54.0389C740.397 49.557 742.431 37.2481 738.034 29.6573C736.048 26.2275 731.961 24.563 728.924 22.0158C753.742 22.0158 753.742 22.0158 778.56 22.0158C778.506 41.1529 779.023 60.3002 778.398 79.4271C778.082 89.0751 777.972 115.164 763.929 119.448C758.238 121.185 752.067 120.407 746.137 120.887C749.539 116.484 749.539 116.484 752.942 112.081C736.93 110.079 736.93 110.079 720.918 108.078C725.122 113.081 725.122 113.081 729.325 118.085C711.111 118.285 711.111 118.285 692.898 118.485C695.454 125.282 696.06 133.181 700.566 138.875C703.909 143.098 710.132 143.828 714.914 146.305C707.909 147.406 707.909 147.406 700.904 148.507C705.707 154.817 711.92 152.795 715.314 158.314C684.505 171.234 694.949 121.922 666.627 121.121C623.747 119.908 580.833 120.303 537.937 120.637C530.861 120.692 523.668 120.703 516.772 122.288C509.318 124.001 495.778 133.319 490.753 138.299C485.244 143.759 483.21 153.74 475.842 156.162C460.04 161.356 442.444 156.713 426.056 159.565C420.542 160.524 416.753 168.172 411.208 167.408C402.474 166.204 387.758 150.824 394.284 147.306C402.54 142.855 416.851 137.259 426.707 137.749C448.093 138.812 460.783 148.903 477.543 138.5C460.932 133.696 460.932 133.696 444.32 128.893C451.954 126.558 459.274 122.622 467.224 121.888C476.921 120.992 486.646 123.355 496.357 124.089C489.952 116.484 489.952 116.484 483.548 108.878C499.776 105.859 509.544 109.434 510.367 92.0662C501.761 94.5013 493.273 97.4039 484.548 99.3715C478.768 100.675 470.705 97.9139 474.942 90.0648C479.441 81.7279 485.482 74.3201 490.753 66.4478C478.246 76.5271 466.256 87.8187 457.366 101.198C448.538 98.5868 448.599 85.4059 440.417 85.7617C442.059 91.9493 452.657 110.574 441.668 116.634C436.93 119.246 432.15 122.097 426.882 123.326C420.179 124.891 413.155 124.369 406.292 124.89C410.183 111.229 413.963 94.5531 423.254 83.5726C434.019 70.8512 470.659 58.6956 433.512 59.843C435.847 53.6886 437.688 47.3234 440.517 41.3798ZM407.493 22.8164C402.289 26.8193 397.933 32.2777 391.882 34.825C389.285 35.9183 386.403 33.5074 383.663 32.8486C381.437 36.3382 382.127 34.1774 383.076 39.6285C351.777 54.2621 334.383 63.6531 300.316 64.3463C263.864 65.088 227.397 64.8606 190.937 64.8466C167.737 64.8378 143.874 67.9044 121.387 62.1947C87.6022 53.6163 55.8746 35.7557 23.2167 23.617C151.305 22.6036 279.401 22.717 407.493 22.8164ZM394.015 45.6899C393.528 43.8879 397.063 39.9608 397.173 39.8537C411.405 25.9917 422.268 22.5799 441.518 22.8164C438.616 27.427 437.067 32.5527 434.112 37.0266C427.398 47.1944 420.608 57.3142 413.66 67.3234C409.776 72.9177 406.856 74.9556 400.288 75.2541C399.193 63.1671 397.113 57.1507 394.015 45.6899ZM22.8164 36.0259C29.9549 38.2275 37.5076 39.3765 44.2318 42.6307C57.8871 49.2391 70.6598 57.5459 83.6101 65.4471C88.3896 68.3631 88.0863 68.4283 89.7646 71.8267C83.9337 76.7397 75.1322 76.1672 67.9974 78.8562C61.8949 81.1562 65.5946 90.5793 59.0405 92.3599C53.8772 93.7627 48.3911 93.4838 43.1185 94.3929C40.8886 94.7773 38.1533 95.7841 37.0592 98.0425C25.8209 121.24 39.3107 153.204 22.4161 174.926C22.6163 105.476 22.6163 105.476 22.8164 36.0259ZM387.078 47.6343C394.864 65.025 404.871 104.793 384.276 117.284C384.023 97.5041 376.731 104.842 361.236 96.5334C347.52 89.1788 368.326 84.7707 342.847 81.2584C349.781 63.9222 373.222 59.2739 387.078 47.6343ZM721.319 62.4449C725.12 70.0473 726.165 80.6887 727.723 88.0633C715.715 88.0633 715.715 88.0633 703.706 88.0633C712.512 75.2541 712.512 75.2541 721.319 62.4449ZM147.306 75.6544C154.4 79.8063 160.476 82.9491 166.52 88.0633C155.712 92.6666 155.712 92.6666 144.904 97.27C150.976 85.9943 154.872 88.0843 147.306 75.6544ZM263.389 75.6544C255.037 91.8367 251.688 78.3875 262.989 92.8668C240.951 89.5611 242.385 80.9889 263.389 75.6544ZM281.002 75.6544C275.115 83.3917 274.511 82.9551 278.2 93.2671C269.461 85.2002 262.15 75.6544 281.002 75.6544ZM227.964 92.0662C218.917 94.2292 210.862 81.2757 220.158 78.0561C232.921 73.6362 240.462 89.0782 227.964 92.0662ZM301.417 77.6559C299.121 83.492 294.694 84.2687 299.415 89.6645C293.611 86.4622 293.611 86.4622 287.807 83.2599C296.572 79.425 292.04 81.3024 301.417 77.6559ZM188.936 92.8668C192.978 83.7725 195.15 88.8302 189.136 79.0569C208.365 86.0728 204.846 88.3209 188.936 92.8668ZM172.524 78.4564C179.954 80.314 183.581 80.8903 186.534 88.0633C178.528 91.0655 178.528 91.0655 170.523 94.0677C174.544 88.3608 176.327 84.7939 172.524 78.4564ZM118.685 102.274C120.086 101.688 121.623 103.146 123.139 103.224C142.993 104.246 141.876 100.325 147.306 119.286C132.361 116.139 128.961 116.207 111.68 119.286C112.561 116.582 114.931 103.843 118.685 102.274ZM244.776 109.078C250.564 111.543 252.929 119.755 254.983 124.89C234.168 126.091 234.168 126.091 213.353 127.292C215.087 111.689 229.085 102.398 244.776 109.078ZM299.015 125.29C281.202 127.091 281.202 127.091 263.389 128.893C264.23 98.7999 291.469 98.8801 299.015 125.29ZM326.191 111.736C340.969 100.496 360.139 109.348 365.063 125.29C354.974 124.178 345.871 121.612 335.641 122.288C328.818 122.739 322.875 126.304 315.827 126.891C318.811 121.587 321.192 115.538 326.191 111.736ZM166.92 111.28C180.467 101.339 196.76 106.776 198.355 123.576C187.554 128.617 169.698 126.503 158.514 127.292C160.49 122.845 162.615 114.439 166.92 111.28ZM75.054 109.479C80.2401 109.631 90.0679 109.754 94.0677 114.082C96.5202 116.736 95.6688 122.141 95.6688 125.29C79.9967 123.145 67.2407 123.263 51.6371 125.69C52.5297 110.493 59.7867 109.03 75.054 109.479ZM147.306 143.303C134.072 139.995 121.954 142.009 109.279 146.105C113.46 121.015 145.319 114.946 147.306 143.303ZM630.716 130.356C633.659 134.261 635.102 152.311 629.052 153.51C623.763 154.56 604.614 157.868 600.232 151.909C594.142 143.628 598.004 129.812 607.837 128.492C613.396 127.746 626.454 124.701 630.716 130.356ZM719.918 128.192C719.692 134.979 712.136 136.911 706.908 138.099C708.293 127.921 709.624 128.675 719.918 128.192ZM766.151 135.698C758.739 134.903 755.111 134.749 750.94 128.492C760.197 128.03 763.783 126.701 766.151 135.698ZM744.135 129.293C739.91 138.271 731.949 137.781 726.523 130.094C732.266 128.884 738.331 129.293 744.135 129.293ZM543.191 129.293C560.203 129.293 560.203 129.293 577.215 129.293C574.843 157.761 572.707 154.766 543.591 154.911C543.391 142.102 543.391 142.102 543.191 129.293ZM778.56 129.293C778.46 145.705 778.46 145.705 778.36 162.117C773.132 156.394 763.212 158.255 756.144 158.114C759.767 153.585 764.958 153.629 770.554 152.51C767.653 146.337 764.762 147.16 758.145 146.906C759.192 139.95 774.126 139.823 778.56 129.293ZM183.082 130.294C185.86 130.783 192.582 130.767 194.34 133.696C196.587 137.441 196.766 143.87 197.342 147.706C179.529 147.706 179.529 147.706 161.716 147.706C164.456 137.432 171.025 128.171 183.082 130.294ZM93.2671 149.708C86.0401 148.716 78.9093 147.431 71.6015 148.457C67.0568 149.095 59.1688 151.907 53.8387 150.308C43.3885 147.173 59.9138 133.153 63.6458 131.895C85.9173 129.848 93.2671 132.056 93.2671 149.708ZM362.261 149.307C340.245 149.307 340.245 149.307 318.229 149.307C325.622 125.896 358.973 122.774 362.261 149.307ZM648.466 130.894C652.525 131.382 682.554 137.681 669.489 148.579C665.092 152.247 652.969 151.416 648.867 151.709C648.667 141.302 648.667 141.302 648.466 130.894ZM527.98 131.294C526.579 143.103 526.579 143.103 525.178 154.911C517.781 152.186 511.109 152.109 503.162 152.109C506.168 136.665 513.283 136.109 527.98 131.294ZM238.972 131.895C242.021 131.917 250.302 131.429 252.582 134.897C255.388 139.164 256.134 144.475 257.785 149.307C237.371 150.308 237.371 150.308 216.956 151.309C218.928 135.138 221.986 131.77 238.972 131.895ZM299.015 149.307C286.661 149.469 275.497 149.795 263.389 151.309C270.637 126.547 291.219 121.462 299.015 149.307ZM729.325 142.903C735.929 142.903 735.929 142.903 742.534 142.903C741.082 149.195 731.014 149.096 729.325 142.903ZM147.306 168.521C142.914 167.603 132.773 164.231 126.841 165.519C122.25 166.516 116.826 169.743 112.081 168.721C103.499 166.873 114.955 153.798 118.085 152.109C136.122 146.754 145.919 153.497 147.306 168.521ZM205.748 168.521C181.931 168.521 181.931 168.521 158.114 168.521C165.469 146.023 196.244 149.082 205.748 168.521ZM744.135 159.715C736.33 160.115 736.33 160.115 728.524 160.515C730.439 153.913 743.377 151.379 744.135 159.715ZM90.6652 159.715C95.0153 163.834 94.7441 168.269 95.6688 174.125C77.8991 168.86 63.6112 172.772 45.6328 174.526C47.212 155.049 77.7905 147.525 90.6652 159.715ZM260.988 173.725C247.689 170.225 232.055 169.541 218.957 174.125C226.21 151.159 255.191 148.53 260.988 173.725ZM270.995 159.315C272.129 157.256 276.552 157.186 278.313 157.063C293.849 155.973 295.515 163.003 299.015 177.328C286.699 173.552 278.523 176.812 266.191 176.127C267.665 170.488 268.182 164.419 270.995 159.315ZM361.86 171.724C342.646 172.924 342.646 172.924 323.433 174.125C324.564 152.62 357.554 149.352 361.86 171.724ZM585.221 165.319C585.405 169.56 585.071 173.755 587.623 177.328C582.219 177.928 582.219 177.928 576.815 178.528C577.118 170.331 577.211 167.722 585.221 165.319ZM384.677 165.719C394.386 167.506 414.837 170.926 414.998 183.232C415.113 191.937 415.065 200.644 415.099 209.351C391.989 207.81 387.949 186.446 384.677 165.719ZM439.116 176.927C439.435 171.825 438.807 170.507 441.317 166.92C454.401 165.205 457.148 176.927 439.116 176.927ZM778.51 166.82C779.018 171.087 778.91 174.908 777.897 179.091C770.759 178.762 764.334 174.164 759.746 168.921C765.973 167.261 772.084 167.15 778.51 166.82ZM749.339 176.127C736.53 173.925 736.53 173.925 723.721 171.724C732.006 165.697 745.091 165.082 749.339 176.127ZM701.705 169.722C704.707 170.523 704.707 170.523 707.709 171.323C705.708 174.526 705.708 174.526 703.706 177.728C702.114 172.422 702.778 175.091 701.705 169.722ZM117.284 174.125C109.931 182.799 88.7038 192.15 82.059 177.328C95.672 177.461 104.85 177.856 117.284 174.125ZM175.326 176.127C171.763 197.904 142.779 182.928 134.096 174.526C149.376 174.526 159.997 180.697 175.326 176.127ZM734.528 182.932C725.085 183.915 716.25 185.249 707.109 187.535C714.327 180.988 727.766 167.327 734.528 182.932ZM778.96 184.132C778.96 296.213 778.96 296.213 778.96 408.294C755.871 393.19 740.239 358.926 725.172 341.345C714.982 329.456 702.322 319.93 690.897 309.222C702.288 300.049 714.001 291.261 725.071 281.703C726.518 280.454 727.798 278.799 728.274 276.949C730.25 269.268 720.806 264.518 716.215 261.288C700.758 250.412 682.783 243.989 664.878 238.572C676.672 225.367 682.345 223.194 701.117 220.321C712.392 218.595 723.834 218.132 735.116 216.456C741.512 215.505 754.843 212.255 757.135 204.435C758.709 199.062 758.342 193.302 758.946 187.735C753.044 189.024 746.838 187.01 740.933 185.734C757.309 167.124 755.074 203.706 778.96 184.132ZM320.08 185.684C326.6 185.106 333.888 178.989 339.844 179.929C327.526 197.722 317.457 191.273 301.817 186.134C306.059 182.078 314.318 186.194 320.08 185.684ZM191.338 180.93C211.748 191.621 208.876 184.451 227.364 180.93C223.031 195.261 195.998 194.912 191.338 180.93ZM265.591 186.534C271.272 185.884 276.948 182.475 282.603 183.732C281.569 184.846 270.653 196.761 268.993 190.537C261.212 191.356 251.788 192.683 246.777 184.333C253.903 182.907 258.804 187.311 265.591 186.534ZM736.78 202.946C731.818 199.494 718.109 189.13 714.114 186.134C722.608 189.167 731.455 199.344 740.533 198.743C745.871 198.39 749.921 192.239 755.343 190.937C749.045 197.469 744.844 208.556 736.78 202.946ZM626.651 192.739C652.065 180.145 672.012 190.934 690.497 208.95C688.724 209.064 680.989 210.26 677.237 209.301C673.975 208.466 673.036 204.427 670.482 202.346C665.518 198.301 659.179 196.269 652.87 195.891C634.475 194.787 628.457 207.45 613.441 204.947C615.824 199.228 621.182 195.449 626.651 192.739ZM535.122 192.814C541.799 196.062 548.86 201.16 549.595 208.95C535.659 206.721 531.064 196.426 515.771 195.741C500.936 195.077 491.931 206.712 477.944 208.95C491.689 190.252 512.871 181.987 535.122 192.814ZM349.451 205.948C344.329 211.443 326.132 202.601 335.842 196.942C341.414 193.693 357.903 196.882 349.451 205.948ZM194.59 208.8C187.677 212.075 175.943 201.387 186.334 197.142C193.358 194.272 203.652 204.508 194.59 208.8ZM218.957 205.748C220.007 201.812 220.667 198.794 224.361 196.741C240.514 196.341 236.543 208.26 218.957 205.748ZM304.269 208.65C297.87 212.071 285.466 203.153 293.011 197.742C299.77 192.895 315.138 202.839 304.269 208.65ZM113.382 208.35C104.165 213.2 91.0488 202.638 103.074 198.143C109.36 195.793 123.759 202.888 113.382 208.35ZM158.514 204.147C153.518 207.359 139.209 211.741 140.901 201.345C147.137 193.024 154.888 199.312 158.514 204.147ZM262.889 209.05C255.034 211.996 247.567 202.919 259.387 197.742C267.691 194.105 270.641 206.143 262.889 209.05ZM62.0947 208.95C55.2406 211.144 46.7277 200.482 55.64 198.543C63.535 196.825 74.3472 205.029 62.0947 208.95ZM518.573 221.509C505.579 225.57 493.181 212.204 509.166 207.549C519.254 204.611 533.88 216.726 518.573 221.509ZM652.87 223.361C641.321 224.017 631.631 210.465 645.865 207.149C662.904 203.179 669.543 222.412 652.87 223.361ZM364.925 279.001C358.103 261.908 342.415 251.913 355.186 230.026C362.779 217.014 382.599 223.698 393.083 221.609C397.241 220.781 407.732 211.078 414.498 215.155C418.314 217.453 420.051 223.993 424.505 224.011C442.791 224.087 461.059 222.375 479.345 222.56C486.072 222.628 496.307 234.197 498.734 235.394C503.046 237.522 508.085 237.791 512.869 238.271C532.453 240.236 539.091 228.856 554.999 217.356C555.793 216.783 556.91 216.842 557.889 216.831C572.602 216.659 587.346 215.906 602.033 216.806C620.299 217.925 624.806 223.937 635.657 236.97C615.207 239.851 594.498 243.188 575.214 250.58C579.016 252.181 579.016 252.181 582.819 253.783C580.217 256.785 580.217 256.785 577.615 259.787C586.816 259.111 586.816 259.111 596.016 258.436C595.508 267.855 593.055 277.375 588.823 285.806C592.826 285.205 592.826 285.205 596.829 284.605C597.309 287.694 597.052 290.993 598.268 293.874C600.903 300.12 612.632 308.396 607.037 312.225C604.553 313.924 589.963 318.416 588.523 325.934C586.923 334.294 595.043 338.301 595.228 346.699C595.534 360.559 594.694 374.419 594.428 388.279C554.292 374.808 597.3 369.289 587.935 342.621C583.641 330.392 576.919 319.155 571.411 307.421C553.531 310.607 535.717 314.18 517.772 316.978C507.584 318.567 496.888 317.495 487.046 320.575C484.701 321.308 485.248 325.149 484.348 327.435C490.753 327.435 490.753 327.435 497.158 327.435C493.555 334.908 488.258 341.779 486.35 349.852C485.504 353.428 488.351 356.923 489.352 360.459C488.151 361.16 488.151 361.16 486.95 361.86C492.054 369.666 492.054 369.666 497.158 377.471C465.892 369.244 434.677 354.757 410.658 332.827C433.093 314.52 433.093 314.52 455.528 296.213C450.958 291.488 444.922 283.657 438.065 280.902C428.432 277.031 419.565 285.403 413.297 277.4C392.125 291.466 376.294 313.887 351.453 321.031C354.255 316.478 355.709 310.742 359.859 307.371C362.7 305.063 367.064 306.07 370.667 305.42C368.753 296.613 368.266 287.371 364.925 279.001ZM22.4161 220.959C33.8676 228.767 35.2805 233.521 34.6249 247.978C32.1894 301.691 28.0978 355.341 26.8193 409.094C26.4673 423.895 37.0723 446.204 22.4161 457.929C22.4161 339.444 22.4161 339.444 22.4161 220.959ZM107.892 225.413C117.939 224.545 128.011 223.802 138.094 223.671C190.93 222.985 243.773 223.197 296.613 222.96C296.551 227.018 298.486 233.76 294.612 234.969C290.563 236.233 286.144 235.578 281.903 235.619C219.693 236.231 157.468 235.858 95.2685 234.569C95.5792 225.56 97.5061 226.31 107.892 225.413ZM54.0389 243.775C60.1978 244.213 66.9354 242.715 71.8767 247.153C78.0618 252.707 78.5531 268.047 78.7326 274.225C79.1378 288.17 78.7546 302.128 78.5565 316.077C78.3956 327.405 78.1709 338.735 77.6559 350.052C77.2434 359.113 77.4406 376.262 68.4332 382.651C64.5803 385.384 53.2524 384.949 51.2368 385.077C51.4296 337.523 51.37 291.052 54.0389 243.775ZM97.5952 332.827C97.7891 317.749 98.0385 302.663 98.8711 287.607C101.601 238.25 134.293 245.488 174.375 246.477C155.505 259.399 122.573 264.279 118.485 292.41C117.16 301.53 139.93 297.244 142.202 304.869C144.506 312.602 137.647 312.121 132.445 314.626C129.404 316.091 132.332 321.846 129.593 324.296C119.027 333.75 110.525 343.93 98.0705 349.852C97.9121 344.177 97.5222 338.504 97.5952 332.827ZM296.613 246.577C296.613 249.709 297.034 253.534 293.724 255.284C282.597 261.164 269.735 264.728 260.575 273.359C252.638 280.838 262.196 292.63 258.866 301.785C256.447 308.436 237.32 319.758 232.717 311.474C232.078 310.323 233.08 307.838 233.518 307.121C238.83 298.425 239.285 295.917 247.015 292.485C247.899 292.093 248.864 291.418 249.117 290.484C250.893 283.916 246.842 274.865 243.025 269.794C234.517 258.49 218.171 257.351 208.95 246.978C252.782 246.777 252.782 246.777 296.613 246.577ZM646.815 247.728C649.225 256.998 655.455 258.02 654.321 269.094C654.097 271.282 616.452 263.501 613.904 260.825C608.11 254.739 623.164 251.879 625.85 252.382C631.474 253.433 635.729 258.172 640.461 261.388C638.603 253.479 636.679 247.3 646.815 247.728ZM670.883 251.781C681.143 253.578 688.401 254.73 697.502 259.587C701.553 261.749 706.783 266.378 706.808 271.345C706.915 292.494 687.233 298.457 668.881 301.417C674.521 287.88 670.883 266.053 670.883 251.781ZM162.517 297.814C155.98 297.392 156.501 282.836 161.416 280.602C169.218 277.056 171.09 287.789 178.028 284.667C181.182 283.248 183.511 266.616 188.486 260.788C190.318 258.641 192.88 258.63 195.541 258.486C209.596 257.726 229.26 255.902 230.166 274.197C213.433 273.622 201.149 273.899 186.934 283.004C188.752 283.821 190.508 284.795 192.388 285.455C203.574 289.385 223.028 288.86 224.562 300.616C217.957 299.415 217.957 299.415 211.352 298.214C231.25 321.543 206.349 309.387 192.438 311.474C188.032 312.135 183.536 320.223 179.929 318.629C177.784 317.681 168.425 311.197 168.321 307.621C168.156 301.969 177.658 297.519 180.93 292.61C174.938 293.857 168.481 298.199 162.517 297.814ZM302.217 269.394C303.012 268.668 303.945 267.856 305.019 267.793C329.524 266.351 336.839 267.896 354.255 283.404C331.038 283.404 331.038 283.404 307.821 283.404C313.05 300.234 337.251 297.057 342.646 311.824C336.442 311.024 336.442 311.024 330.238 310.223C349.832 331.443 324.425 321.948 314.426 317.028C308.429 314.077 302.551 310.89 296.613 307.821C297.414 306.821 297.414 306.821 298.214 305.82C271.406 304.268 282.465 280.808 298.615 292.61C299.296 284.809 296.434 274.674 302.217 269.394ZM629.653 268.593C641.767 271.285 643.347 278.6 629.653 278.6C629.653 273.597 629.653 273.597 629.653 268.593ZM608.187 270.882C610.214 270.338 610.214 270.338 612.24 269.794C626.31 276.215 611.897 276.499 608.187 270.882ZM648.867 279.201C646.265 287.907 646.265 287.907 643.663 296.613C650.668 293.411 650.668 293.411 657.673 290.209C656.38 306.409 623.792 303.772 613.241 305.019C613.38 297.874 613.098 295.568 617.644 290.609C609.247 292.045 607.839 291.376 607.637 282.203C623.673 284.789 633.356 281.938 648.867 279.201ZM211.352 279.001C211.152 283.004 211.152 283.004 210.952 287.006C202.233 285.909 205.882 287.301 199.694 283.754C202.279 279.742 206.757 279.431 211.352 279.001ZM223.761 279.001C227.703 280.856 232.062 282.17 235.369 285.005C229.765 286.006 229.765 286.006 224.161 287.006C223.961 283.004 223.961 283.004 223.761 279.001ZM419.702 312.325C418.849 312.318 418.192 311.521 417.5 311.024C412.874 307.699 406.317 303.607 403.74 298.064C401.903 294.11 405.297 281.064 411.896 285.005C415.392 287.093 414.441 292.741 415.699 296.613C420.517 292.781 426.012 283.021 432.911 286.206C431.197 290.435 426.983 293.807 423.905 297.014C430.309 295.613 430.309 295.613 436.714 294.212C433.512 297.614 433.512 297.614 430.309 301.016C433.971 299.824 437.667 298.214 441.518 298.214C435.413 302.284 427.105 312.386 419.702 312.325ZM332.239 286.206C329.637 291.209 329.637 291.209 327.035 296.213C315.447 285.039 321.374 284.35 332.239 286.206ZM345.048 292.21C347.979 294.018 351.274 295.549 353.454 298.214C347.05 299.415 347.05 299.415 340.645 300.616C342.847 296.413 342.847 296.413 345.048 292.21ZM397.686 305.42C403.04 302.895 405.47 314.349 409.094 319.029C393.298 329.852 378.457 342.771 360.747 350.052C347.895 330.059 383.055 312.317 397.686 305.42ZM634.056 320.23C639.227 320.222 644.401 320.221 649.567 320.43C655.512 320.671 661.435 321.336 667.38 321.581C669.446 321.667 694.302 323.7 680.69 331.038C672.752 335.317 658.827 334.885 650.956 334.953C637.326 335.072 622.03 340.161 610.089 333.59C602.423 329.371 604.584 322.71 611.84 321.231C619.104 319.751 626.643 320.243 634.056 320.23ZM530.582 325.634C533.844 325.597 543.778 327.083 544.191 331.438C545.212 342.19 541.158 363.757 531.382 370.867C518.596 380.166 501.21 368.796 499.559 355.456C510.389 355.546 521.714 358.119 532.045 354.868C538.928 352.702 540.87 346.797 532.958 344.385C528.264 342.954 523.53 341.65 518.773 340.445C514.396 339.336 509.967 338.443 505.564 337.443C508.601 324.785 517.844 325.778 530.582 325.634ZM310.223 327.636C353.811 340.791 294.052 351.215 285.405 327.435C292.598 327.205 289.622 327.68 294.412 326.635C301.866 325.76 305.757 326.288 310.223 327.636ZM558.201 330.238C557.172 346.018 556.234 371.853 539.188 379.073C539.188 374.534 546.436 328.557 558.201 330.238ZM562.805 333.44C567.172 336.031 568.717 340.452 567.208 345.649C565.056 353.06 562.606 360.383 560.353 367.764C557.879 375.872 559.552 377.471 552.397 377.471C553.898 362.468 561.551 348.489 562.805 333.44ZM174.926 335.441C185.577 335.938 188.936 334.875 188.936 345.448C181.931 345.448 181.931 345.448 174.926 345.448C174.926 340.445 174.926 340.445 174.926 335.441ZM431.51 358.658C419.165 368.999 415.452 365.794 400.688 358.658C407.693 357.257 407.693 357.257 414.698 355.856C402.162 324.898 419.022 346.331 431.51 358.658ZM268.241 439.112C262.251 438.971 249.331 438.336 244.088 432.975C239.136 427.913 241.42 408.644 241.999 404.228C242.959 396.912 244.327 389.615 246.415 382.538C248.803 374.442 252.096 366.632 255.384 358.858C257.705 353.368 263.081 339.475 267.592 340.045C286.281 342.403 309.911 348.023 323.082 363.011C328.455 369.125 329.318 372.741 335.466 377.659C348.074 387.745 361.356 397.017 373.469 407.693C368.165 414.198 368.165 414.198 362.861 420.703C324.133 397.286 324.133 397.286 285.405 373.869C280.486 379.04 289.791 386.618 293.011 389.88C310.261 407.359 340.389 412.99 340.645 439.516C316.51 439.381 292.369 439.679 268.241 439.112ZM395.685 452.125C397.567 438.456 417.839 436.362 414.473 424.793C413.024 419.812 406.252 413.349 402.89 410.896C392.127 403.044 380.48 396.461 369.666 388.68C359.685 381.498 357.591 364.322 369.065 357.457C382.905 349.177 386.954 347.724 400.688 341.446C399.173 352.726 399.983 352.784 389.88 354.655C395.351 359.258 401.365 363.285 406.292 368.465C409.251 371.576 409.785 376.803 413.297 379.273C429.037 390.341 467.186 398.046 468.85 423.892C470.046 442.474 468.672 461.156 469.738 479.745C470.274 489.097 481.48 481.504 482.827 488.159C483.136 489.684 486.654 507.365 480.946 510.167C473.789 513.68 466.402 516.705 459.13 519.974C464.309 513.094 470.356 506.789 474.666 499.334C479.076 491.706 465.116 492.905 458.855 493.23C446.92 493.848 435.021 495.048 423.104 495.957C424.188 499.168 426.454 502.949 424.906 505.964C398.605 497.721 391.787 480.424 395.685 452.125ZM626.651 347.45C628.646 342.873 658.128 342.918 660.071 346.353C661.783 349.381 662.425 356.92 662.276 360.96C661.79 374.207 661.075 387.445 660.475 400.688C649.446 392.505 651.218 396.183 643.463 404.291C634.027 398 634.241 391.35 624.049 401.088C621.005 382.339 618.814 365.422 626.651 347.45ZM510.767 350.652C507.165 347.85 507.165 347.85 503.562 345.048C509.309 343.132 510.99 344.715 510.767 350.652ZM521.575 346.249C529.735 348.33 526.972 346.621 530.782 349.451C526.178 350.852 526.178 350.852 521.575 352.253C521.575 349.251 521.575 349.251 521.575 346.249ZM174.926 356.256C184.161 356.695 188.936 355.92 188.936 365.863C181.931 365.863 181.931 365.863 174.926 365.863C174.926 361.06 174.926 361.06 174.926 356.256ZM440.317 369.065C435.798 373.425 428.57 374.27 422.704 375.07C425.179 369.295 428.815 366.994 434.312 364.062C440.823 361.856 444.23 365.29 440.317 369.065ZM453.276 371.067C443.593 389.949 421.733 381.96 444.32 370.667C449.038 370.064 450.851 370.221 453.276 371.067ZM174.926 388.88C174.883 385.877 174.1 382.811 176.927 382.075C199.832 376.109 175.129 403.184 174.926 388.88ZM89.014 411.696C86.6059 411.134 85.9161 410.137 83.1598 410.095C74.3876 409.96 65.6139 409.962 56.8409 409.895C59.1903 406.371 57.3064 408.865 64.0461 403.89C58.4921 402.846 58.4921 402.846 52.9381 401.801C58.0394 400.709 59.3049 401.355 59.6429 396.285C54.239 396.085 54.239 396.085 48.8351 395.885C54.9473 386.105 108.936 378.022 89.014 411.696ZM122.488 389.08C122.971 388.67 123.026 390.251 123.089 390.881C123.578 395.771 123.685 407.51 125.53 413.321C127.231 418.678 131.269 417.723 133.408 422.116C137.892 431.323 138.558 443.634 139.3 453.526C140.044 463.449 143.263 484.592 137.499 487.351C131.201 490.364 131.021 488.098 124.89 487.601C120.083 487.211 105.912 488.926 99.3835 484.34C94.716 481.062 95.2923 470.075 95.2685 467.336C95.0745 444.994 94.6923 419.933 109.879 402.089C113.793 397.49 117.883 392.987 122.488 389.08ZM670.682 547.994C692.121 539.332 674.059 513.191 687.795 499.86C693.742 494.087 710.619 496.05 714.514 495.356C715.548 495.172 716.333 493.853 716.363 492.803C717.321 459.575 716.53 426.302 715.314 393.083C723.082 397.368 726.837 406.698 733.678 412.347C736.109 414.354 740.582 412.198 742.934 414.298C747.589 418.452 749.856 424.68 753.317 429.872C757.361 427.72 760.87 423.489 765.451 423.417C769.664 423.351 775.421 425.441 776.528 429.507C780.285 443.298 778.54 458.036 778.773 472.327C779.351 507.952 778.898 543.587 778.96 579.217C694.77 578.849 610.564 579.771 526.389 578.114C505.233 577.697 484.152 575.279 463.116 572.997C443.251 570.841 440.115 566.155 433.512 548.394C440.3 545.759 447.621 544.217 453.876 540.489C463.033 535.031 470.533 527.153 479.307 521.1C486.923 515.846 486.155 516.424 492.354 516.772C487.813 522.442 482.87 527.813 478.732 533.784C477.192 536.005 474.588 538.621 475.429 541.189C476.781 545.317 480.247 549.148 484.286 550.746C488.635 552.468 493.786 549.053 498.308 550.246C500.07 550.71 511.003 560.332 516.184 558.952C530.647 555.099 544.898 550.28 558.668 544.412C560.784 543.51 562.586 541.281 562.967 539.013C565.354 524.803 563.895 510.068 566.808 495.957C569.344 483.668 589.661 488.158 596.429 489.752C596.629 494.255 596.629 494.255 596.829 498.759C605.235 498.759 605.235 498.759 613.641 498.759C613.374 509.633 615.532 520.843 612.841 531.382C611.734 535.716 606.659 537.938 602.984 540.489C597.659 544.184 591.676 546.827 586.021 549.996C589.629 554.851 597.711 555.241 603.672 554.211C614.615 552.32 625.262 548.999 636.057 546.393C637.258 552.798 637.258 552.798 638.459 559.202C649.2 555.466 660.138 552.254 670.682 547.994ZM778.96 424.705C778.346 424.359 763.989 414.207 761.748 414.298C757.387 414.475 756.104 420.302 750.94 420.302C752.427 394.975 778.96 402.723 778.96 424.705ZM183.332 409.495C190.484 409.477 211.288 407.252 221.159 411.696C219.325 415.43 215.003 414.529 210.902 414.648C201.714 414.916 192.523 415.034 183.332 415.099C171.19 415.184 159.048 415.099 146.906 415.099C147.106 412.497 147.106 412.497 147.306 409.895C159.315 409.761 171.323 409.523 183.332 409.495ZM399.087 428.708C392.521 436.889 368.487 435.405 380.273 419.502C386.07 411.681 406.878 419.001 399.087 428.708ZM48.4348 419.502C55.9313 419.658 68.6791 415.123 70.7509 422.329C73.7191 432.653 72.8655 443.735 73.0025 454.477C73.2571 474.44 73.1693 494.406 73.2527 514.37C60.8438 514.17 60.8438 514.17 48.4348 513.97C48.4348 466.736 48.4348 466.736 48.4348 419.502ZM183.532 476.743C182.289 464.158 180.013 438.231 190.737 427.507C191.004 427.974 191.499 428.372 191.538 428.908C192.77 445.772 193.539 462.666 194.54 479.545C192.415 479.448 183.892 480.389 183.532 476.743ZM352.003 474.441C351.939 470.877 352.187 460.374 354.261 456.572C357.708 450.253 358.936 455.525 359.584 450.236C360.095 446.056 358.138 440.541 361.26 437.715C365.828 433.58 385.091 438.457 386.611 442.817C392.484 459.66 385.602 476.151 394.334 492.204C397.321 497.697 400.702 501.596 406.042 504.913C407.979 506.116 421.809 509.182 422.429 512.231C422.838 514.244 423.262 516.832 421.903 518.373C413.973 527.367 404.502 534.885 395.484 542.79C384.655 552.285 378.842 539.885 378.672 531.582C385.677 531.582 385.677 531.582 392.682 531.582C389.964 511.646 366.494 523.974 359.859 536.386C350.252 528.38 350.252 528.38 340.645 520.374C347.05 520.174 347.05 520.174 353.454 519.974C352.971 504.796 352.276 489.624 352.003 474.441ZM591.625 444.72C591.625 448.322 591.625 448.322 591.625 451.925C586.192 451.591 566.369 453.824 565.607 445.12C578.616 444.92 578.616 444.92 591.625 444.72ZM563.205 456.328C567.942 456.328 586.889 456.328 591.625 456.328C591.625 457.195 591.625 460.665 591.625 461.532C586.889 461.532 567.942 461.532 563.205 461.532C563.205 460.665 563.205 457.195 563.205 456.328ZM541.59 459.931C541.59 463.934 541.59 463.934 541.59 467.937C523.333 467.862 501.913 474.062 486.75 461.932C504.898 460.22 523.44 460.363 541.59 459.931ZM585.621 467.536C585.616 467.873 586.479 477.368 584.383 479.57C580.224 483.938 569.741 484.053 569.209 477.143C565.206 477.944 565.206 477.944 561.204 478.744C565.823 465.811 572.611 467.536 585.621 467.536ZM488.752 475.142C504.965 480.209 524.876 475.34 541.59 475.142C541.59 477.944 541.59 477.944 541.59 480.746C515.171 480.746 515.171 480.746 488.752 480.746C488.752 477.944 488.752 477.944 488.752 475.142ZM660.475 500.76C660.008 505.83 659.61 510.908 659.074 515.971C658.636 520.107 658.111 524.325 656.722 528.28C656.332 529.392 654.863 532.849 653.472 533.948C638.934 545.435 638.161 528.013 638.059 516.972C638.03 513.845 636.775 502.942 640.26 499.759C654.215 499.972 648.608 499.498 660.475 500.76ZM444.32 499.159C447.722 499.159 447.722 499.159 451.124 499.159C450.946 508.708 444.32 506.982 444.32 499.159ZM547.402 539.53C544.973 541.186 512.596 558.353 510.867 546.255C509.873 539.296 523.632 538.483 527.68 536.686C530.64 535.372 530.354 525.517 530.381 523.777C530.451 519.307 530.381 514.837 530.381 510.367C540.189 510.367 540.189 510.367 549.996 510.367C549.951 515.031 552.065 536.35 547.402 539.53ZM517.172 512.769C519.988 516.283 517.184 521.777 517.072 526.279C516.889 533.605 499.809 542.976 493.455 543.241C488.867 543.432 483.81 539.574 487.751 534.785C490.545 531.388 497.419 532.786 500.76 529.181C507.59 521.812 494.653 514.749 506.564 513.169C510.072 512.704 514.959 510.008 517.172 512.769ZM342.646 541.189C335.142 539.565 323.412 539.761 323.232 530.582C331.149 515.857 340.565 536.922 342.646 541.189ZM300.616 549.595C292.19 547.651 273.897 542.676 280.602 530.181C298.706 526.339 295.628 539.618 300.616 549.595ZM149.708 533.384C184.77 532.803 219.882 531.424 254.908 533.108C260.731 533.388 260.367 541.289 263.389 544.792C274.77 557.981 295.2 565.051 312.162 565.894C328.102 566.688 320.696 555.877 329.037 555.399C337.616 554.908 346.238 556.862 354.805 556.194C360.336 555.763 358.592 542.527 363.386 545.33C366.113 546.924 367.239 550.761 370.166 551.947C393.67 561.467 403.033 551.824 404.691 580.017C213.353 580.417 213.353 580.417 22.0158 580.818C22.216 558.001 22.216 558.001 22.4161 535.185C64.8466 534.584 107.279 534.086 149.708 533.384ZM428.708 569.209C427.708 570.811 427.708 570.811 426.707 572.412C431.076 574.772 435.95 576.562 439.516 580.017C427.107 580.017 427.107 580.017 414.698 580.017C419.499 574.934 421.371 568.935 428.708 569.209Z" fill="#000000" fill-rule="nonzero" opacity="1" stroke="none"/>
</g>
</svg>
