<?xml version="1.0" encoding="UTF-8" standalone="no"?>
<!DOCTYPE svg PUBLIC "-//W3C//DTD SVG 1.1//EN" "http://www.w3.org/Graphics/SVG/1.1/DTD/svg11.dtd">
<!-- Created with Vectornator (http://vectornator.io/) -->
<svg height="100%" stroke-miterlimit="10" style="fill-rule:nonzero;clip-rule:evenodd;stroke-linecap:round;stroke-linejoin:round;" version="1.1" viewBox="0 0 800 600" width="100%" xml:space="preserve" xmlns="http://www.w3.org/2000/svg" xmlns:xlink="http://www.w3.org/1999/xlink">
<defs/>
<clipPath id="ArtboardFrame">
<rect height="600" width="800" x="0" y="0"/>
</clipPath>
<g clip-path="url(#ArtboardFrame)" id="Layer-1">
<path d="M0.4 600.471C133.733 600.471 667.067 600.471 800.4 600.471C800.4 500.459 800.4 100.412 800.4 0.400047C667.067 0.400047 133.733 0.400047 0.4 0.400047C0.4 100.412 0.4 500.459 0.4 600.471ZM24 24.4029C76.6 24.4029 76.6 24.4029 129.2 24.4029C128.978 28.4171 128.949 38.1107 126.775 41.9299C123.627 47.459 107.224 61.4242 118.35 70.0082C123.458 73.9495 129.317 76.809 134.8 80.2094C132.767 85.1846 133.53 90.9561 131.85 96.0613C130.107 101.356 124.381 105.055 123.525 110.563C122.486 117.244 122.775 124.065 122.4 130.815C96.4634 126.492 80.2709 151.87 96.2 174.521C100.22 180.236 112.317 179.116 114.15 184.884C115.485 189.086 108.876 192.189 105.2 194.623C95.644 200.951 77.1412 212.708 66.2 201.424C69.6167 194.49 73.7593 187.868 76.45 180.621C77.983 176.492 79.2684 171.195 77 167.42C55.1363 131.033 2.74732 175.439 35 195.023C29.5 201.124 29.5 201.124 24 207.224C24 115.814 24 115.814 24 24.4029ZM159.2 24.4029C445.8 24.8029 445.8 24.8029 732.4 25.203C731 42.0049 731 42.0049 729.6 58.8069C719 52.4062 719 52.4062 708.4 46.0054C700.2 72.8086 700.2 72.8086 692 99.6117C697.204 97.6307 705.539 92.4359 712 95.7113C722.347 100.957 731.733 107.913 741.6 114.013C748 91.0107 748 91.0107 754.4 68.008C763.8 83.6098 763.8 83.6098 773.2 99.2117C775.4 91.0107 775.4 91.0107 777.6 82.8097C777.8 108.413 777.8 108.413 778 134.016C770.898 130.03 764.194 124.846 759.2 118.414C753 124.415 753 124.415 746.8 130.415C740.8 123.815 740.8 123.815 734.8 117.214C734.195 118.088 727.125 131.755 721.6 130.615C713.064 128.854 705.333 124.348 697.2 121.214C700.6 135.216 700.6 135.216 704 149.218C684.826 150.694 678.438 118.313 671.2 107.813C663.092 96.05 647.684 83.5771 634.2 78.6092C613.724 71.0653 592.476 65.7947 571.45 59.957C570.085 59.578 568.617 59.9904 567.2 60.0071C595.2 82.0096 595.2 82.0096 623.2 104.012C577.596 87.5427 543.51 73.4096 495.15 83.8474C481.708 86.7486 469.032 92.7706 455.513 95.2862C433.209 99.4362 410.673 103.581 387.988 103.787C383.112 103.831 379.729 98.6033 375.6 96.0113C382.033 95.1112 389.003 96.0365 394.9 93.311C398.261 91.7576 400.106 87.7054 401.213 84.1724C406.562 67.0945 389.683 52.123 373.8 52.8062C369.056 53.0103 359.313 54.278 356.45 59.557C353.401 65.1784 352.95 71.8584 351.2 78.0092C345.6 77.63 339.465 74.4523 334.4 76.8715C329.24 79.3363 326.579 85.5239 324.4 90.8107C321.513 97.8142 324.25 111.463 327.6 117.414C332.02 125.266 344.695 123.437 353.6 124.815C353.033 125.248 352.58 125.899 351.9 126.115C340.737 129.663 329.74 134.06 318.2 136.066C301.48 138.972 289.392 133.593 273.563 129.253C280.364 115.607 296.688 116.228 296.95 99.2617C297.3 76.6319 262.768 71.5547 249.8 86.2101C242.694 94.2413 245.578 100.716 246.4 110.413C237.515 114.051 229.663 120.57 223.6 128.015C221.871 116.93 221.997 105.392 218.413 94.7611C215.626 86.4965 204.154 83.2506 197.6 80.4095C206.846 62.8838 203.094 58.091 184.8 51.6061C193.999 27.6865 181.092 25.2249 159.6 29.6035C159.4 27.0032 159.4 27.0032 159.2 24.4029ZM750.786 52.3612C744.506 43.2136 748.15 32.6452 738.4 25.603C758.2 25.603 758.2 25.603 778 25.603C778 45.0053 778 45.0053 778 64.4076C768.491 62.0979 756.846 61.1893 750.786 52.3612ZM171 79.4093C172.466 83.2573 177.021 86.8516 178.175 90.2106C179.003 92.6207 171.997 100.57 170.4 101.762C165.228 105.621 163.212 91.6293 162.2 89.4105C158.309 80.8836 136.051 57.8476 155.2 51.206C169.63 46.201 167.618 70.5295 171 79.4093ZM726.6 65.4077C729.153 73.301 730.572 81.5185 732.4 89.6105C720.6 89.6105 720.6 89.6105 708.8 89.6105C717.7 77.5091 717.7 77.5091 726.6 65.4077ZM406.6 154.518C412.662 147.15 419.551 140.491 425.65 133.153C437.757 118.588 446.779 97.3509 469.2 102.412C492.553 107.684 515.276 117.604 539.2 118.489C577.685 119.912 606.54 113.979 640 135.216C611.263 129.517 578.477 124.146 549.8 132.016C538.32 135.166 526.944 138.949 516.138 143.942C509.103 147.192 503.606 153.216 496.625 156.581C485.076 162.147 472.463 165.256 460.813 170.608C452.633 174.364 446.23 182.923 437.276 183.842C430.186 184.569 424.162 178.233 417.8 175.021C411.592 171.886 405.667 168.22 399.6 164.819C401.933 161.386 403.963 157.724 406.6 154.518ZM650.4 129.965C644.219 123.709 638.489 120.975 634.4 113.613C636.012 114.634 637.789 115.434 639.238 116.676C648.09 124.267 656.404 132.469 665.25 140.066C674.64 148.132 688.697 155.628 694.4 167.62C678.81 154.852 664.223 143.956 650.4 129.965ZM361.6 132.016C362.298 150.863 381.446 152.944 396.6 153.018C377.547 162.545 354.562 169.558 333.2 170.02C340.718 157.276 350.053 141.398 361.6 132.016ZM196.6 140.617C204.195 141.256 214.99 136.411 221.4 139.616C212.923 162.223 192.024 171.97 168.8 169.22C157.876 167.926 146.852 150.045 154.863 140.316C157.305 137.35 162.125 137.292 165.4 135.616C177.725 136.255 187.188 139.825 196.6 140.617ZM709.925 188.035C710.782 180.723 707.534 177.58 707 170.408C706.692 166.266 712.422 164.028 714.363 160.356C715.821 157.595 710.217 155.601 708.8 152.818C707.176 149.628 714.43 137.658 715.4 135.616C723.643 141.275 718.978 139.121 729.6 141.617C726.043 148.814 723.39 146.621 713.2 149.218C716.161 154.487 735.251 162.211 725.6 164.819C721.409 165.952 717.067 166.42 712.8 167.22C715.603 185.217 725.763 222.321 713.2 240.428C713.464 229.096 714.068 217.75 713.6 206.424C710.4 207.024 710.4 207.024 707.2 207.624C708.108 201.094 709.158 194.583 709.925 188.035ZM778 137.616C778 142.817 778 142.817 778 148.017C771.85 146.787 766.462 146.82 764 140.417C772.777 138.434 768.114 139.391 778 137.616ZM740.8 139.616C746.6 139.616 746.6 139.616 752.4 139.616C752.4 147.146 747.463 146.262 740.8 146.817C740.8 143.217 740.8 143.217 740.8 139.616ZM523.6 150.418C542.155 144.844 564.331 147.686 582.6 152.718C592.402 155.418 614.189 159.215 623.6 168.02C615 168.603 606.344 168.628 597.8 169.77C588.025 171.076 578.574 175.759 568.725 175.246C556.473 174.607 545.222 168.069 533.2 165.619C526.034 164.159 506.541 164.994 496.4 160.019C505.696 157.561 514.391 153.184 523.6 150.418ZM128.25 201.224C133.995 213.344 149.352 229.038 163.55 217.476C170.416 211.884 175.625 204.252 183.07 199.459C185.068 198.173 197.682 211.68 208.2 209.825C236.563 204.82 230.741 167.677 228.8 148.817C231.757 151.841 248.578 162.125 243.6 166.82C248.587 170.113 244.457 176.378 246.7 182.271C248.557 187.151 251.7 191.439 254.2 196.023C250.383 198.457 246.186 200.378 242.75 203.324C229.602 214.597 226.487 229.439 242.888 239.978C246.541 242.326 252.015 241.624 255 244.779C260.083 250.15 260.109 258.711 263.6 265.231C238.362 257.857 208.473 253.242 182.5 259.631C177.263 260.919 171.99 262.269 167.05 264.431C154.955 269.725 142.55 283.882 130.25 279.083C123.515 276.455 116.63 272.968 116.2 265.031C115.627 254.457 115.444 243.851 115.725 233.265C115.997 223.012 115.355 199.8 125.6 192.423C126.483 195.356 126.938 198.455 128.25 201.224ZM752 155.218C749.177 162.119 740.98 167.771 740.188 156.056C744.107 155.167 747.997 155.218 752 155.218ZM777.6 155.818C778.203 159.436 777.696 163.154 777.6 166.82C766.638 165.051 768.133 164.159 762 157.218C767.175 156.674 772.39 155.937 777.6 155.818ZM699.8 164.819C702.389 169.066 703.105 170.024 700.4 174.421C699.337 168.04 699.532 171.241 699.8 164.819ZM365.65 213.175C368.437 202.631 374.82 172.464 388.4 168.82C386.596 179.193 376.431 185.555 373.5 195.348C370.597 205.05 368.57 216.387 366.4 226.427C361.989 223.67 364.588 217.193 365.65 213.175ZM313.9 176.021C318.026 177.011 323.935 174.43 327.25 177.771C335.676 186.262 335.744 202.991 336 213.625C323.938 199.342 311.603 185.278 300 170.62C305.218 171.714 308.879 174.816 313.9 176.021ZM682.038 219.151C669.232 200.264 654.223 187.611 639.2 171.22C668.6 175.021 668.6 175.021 698 178.821C689.694 196.835 697.816 184.813 697.5 201.824C697.294 212.928 694.76 232.565 693.6 242.829C686.406 237.538 686.983 226.445 682.038 219.151ZM750.8 174.22C748.053 179.714 745.687 181.645 739.6 180.021C742.441 174.022 744.118 171.25 750.8 174.22ZM768.4 175.221C763.989 186.251 753.907 181.719 759 175.221C763.869 173.865 765.855 174.551 768.4 175.221ZM723.6 175.221C724.867 175.221 729.933 175.221 731.2 175.221C730.667 177.288 728.533 185.555 728 187.622C727.267 185.555 724.333 177.288 723.6 175.221ZM286.4 192.023C290.574 187.686 290.565 180.776 296.7 179.071C302.261 194.017 299.718 218.685 281.6 223.626C280.427 212.679 274.604 207.943 272.4 198.023C277.06 196.848 282.859 195.702 286.4 192.023ZM628.05 217.626C611.599 204.918 592.698 195.121 578 180.421C598.573 183.988 612.512 193.18 629.8 203.924C640.029 210.281 651.268 215.064 660.95 222.226C667.134 226.8 673.265 231.492 678.9 236.728C683.958 241.427 691.262 246.149 691.663 253.042C693.507 284.822 688.107 314.743 683.2 346.041C682.133 345.174 680.622 344.666 680 343.44C673.963 331.548 667.485 319.732 663.4 307.036C661.205 300.215 662.548 292.706 661.4 285.634C660.068 277.428 657.285 269.502 655.975 261.293C655.485 258.225 660.277 251.829 661 250.629C651.434 240.347 639.528 226.491 628.05 217.626ZM778 181.621C777.879 241.366 778.18 301.113 777.638 360.855C777.411 385.785 777.497 407.212 773.302 430.901C773.191 431.525 772.785 432.208 772.2 432.451C761.32 436.972 749.994 440.384 739.188 445.077C719.289 453.719 704.67 471.795 690 486.857C705.502 437.025 731.375 391.31 759.4 347.641C741.1 362.043 741.1 362.043 722.8 376.444C728.733 365.576 735.589 355.163 740.6 343.84C748.268 326.512 754.774 308.666 760.75 290.684C763.554 282.246 764.636 266.739 763.9 257.968C762.341 239.4 759.7 220.938 757.6 202.424C763.3 205.324 763.3 205.324 769 208.224C772.039 199.37 775.04 190.502 778 181.621ZM725.6 204.024C727.02 198.626 728.839 195.584 732.8 191.623C744.412 183.864 742.328 201.545 725.6 204.024ZM755.2 187.222C756.4 188.422 761.2 193.223 762.4 194.423C760.067 194.69 750.733 195.756 748.4 196.023C749.533 194.556 754.067 188.689 755.2 187.222ZM442.9 239.628C429.195 244.045 446.8 222.316 446.8 216.825C446.8 208.742 433.15 193.227 441.4 190.222C453.162 185.939 457.564 234.902 442.9 239.628ZM488.8 194.423C493.678 203.205 490.731 219.16 484 226.427C485.463 215.786 486.565 204.943 488.8 194.423ZM705.55 335.839C708.54 313.361 709.227 290.619 712.15 268.132C712.492 265.503 713.99 263.135 715.3 260.831C722.216 248.667 730.289 237.162 736.8 224.776C741.483 215.868 740.999 202.124 750 197.623C748.029 227.188 730.381 253.59 726.363 283.333C723.208 306.685 726.478 341.651 718.6 366.243C714.239 379.854 707.361 392.531 701.35 405.498C697.867 413.013 698.574 411.834 693.6 415.249C695.889 388.579 702.021 362.374 705.55 335.839ZM385.6 213.225C382.929 212.691 384.184 213.173 381.838 211.775C382.519 210.5 382.519 210.5 383.2 209.225C384.4 211.225 384.4 211.225 385.6 213.225ZM524 216.425C515.713 224.437 505.451 227.902 494.4 230.027C499.567 222.792 515.127 214.503 524 216.425ZM380.4 220.826C381.8 220.826 381.8 220.826 383.2 220.826C383.491 224.145 384.918 226.276 384.8 229.627C381.681 227.453 381.056 224.433 380.4 220.826ZM304.6 255.63C306.289 251.315 304.702 243.936 309.1 242.479C324.948 237.227 328.236 239.051 337.6 223.626C345.426 231.453 346.455 243.944 350 254.43C355.819 248.853 355.674 244.324 363.75 241.141C370.973 238.294 386.926 248.285 393.85 250.279C401.279 252.42 399.786 248.462 408.2 246.579C412.385 245.642 416.844 246.64 421.038 245.741C423.9 245.128 423.667 240.462 424.4 237.628C427.05 240.992 431.399 242.413 433.25 246.029C437.567 254.464 440.622 263.569 445.6 271.632C450.924 280.255 458.511 287.316 464 295.835C466.005 298.947 474.676 319.965 469.563 324.201C457.38 334.293 438.159 328.521 422.8 332.314C415.271 334.173 408.76 343.883 401.4 341.44C389.247 337.407 382.743 323.868 372.85 315.737C368.572 312.221 362.921 310.481 358.988 306.583C355.099 302.728 360.462 295.69 362 290.434C346.526 294.317 328.869 303.254 313.713 294.135C305.843 289.4 298.598 283.684 290.8 278.833C287.72 276.917 282.498 276.025 282 272.432C290.849 269.113 300.799 265.343 304.6 255.63ZM35.8 516.861C30.1917 501.826 26.524 501.962 26.1375 488.007C23.7679 402.444 24 316.824 24 231.227C27.6667 234.828 30.1073 240.457 35 242.028C41.8994 244.244 49.9853 239.11 56.7375 241.741C62.9561 244.164 66.1208 251.234 70.8125 255.98C64.0417 266.798 57.7711 277.946 50.5 288.434C43.9089 297.941 32.0544 304.664 29.2765 315.894C27.691 322.303 35.2851 327.78 39.5125 332.852C50.5725 346.121 61.8072 359.644 75.6 370.044C75.6 364.604 72.8877 354.855 78.25 353.942C91.6787 351.655 105.603 353.237 118.988 350.704C121.837 350.164 123.041 346.445 125.55 344.991C129.625 342.628 135.957 341.074 136.8 336.44C143.207 336.968 146.269 335.293 149.7 340.84C152.947 346.091 154.401 352.455 158.3 357.242C165.12 365.615 184.616 379.052 189.8 392.246C201.053 420.885 188.299 442.595 182.2 471.605C179.785 483.091 178.867 494.842 177.2 506.46C174.183 470.105 167.689 434.018 159.6 398.447C163.462 434.497 166.575 470.649 168.4 506.86C163.247 483.93 156.465 461.326 148.4 439.252C155.686 473.406 162.659 507.741 166.4 542.464C167.4 540.264 167.4 540.264 168.4 538.063C167.4 551.865 167.4 551.865 166.4 565.667C164.233 552.782 163.341 539.617 159.9 527.012C157.169 517.005 150.021 508.433 148 498.259C147.349 494.983 150.933 492.258 152.4 489.258C149.1 492.058 149.1 492.058 145.8 494.858C141.3 488.257 141.3 488.257 136.8 481.657C138.429 487.378 142.687 492.957 141.688 498.821C140.523 505.652 133.735 510.26 130.85 516.561C126.339 526.414 123.35 536.896 119.6 547.064C124.601 504.236 134.983 464.694 148 423.65C127.481 446.705 125.962 476.794 122 506.46C118.514 470.147 112.77 433.953 104.4 398.447C108.163 433.973 111.261 469.587 113.2 505.259C108.183 483.039 101.343 461.202 93.4 439.852C100.685 473.817 107.438 507.976 111.6 542.464C112.2 539.663 112.2 539.663 112.8 536.863C112.1 550.465 112.1 550.465 111.4 564.066C107.63 532.531 98.2628 508.603 82 481.657C86.5395 497.95 74.898 497.153 67.75 512.46C62.7027 523.269 58.85 534.596 54.4 545.664C59.2613 502.999 70.3471 464.368 82.8 423.25C61.3079 443.867 60.4546 476.988 57.2 504.859C53.9298 468.351 46.8752 432.2 38.8 396.447C42.8522 433.155 45.9112 469.987 48 506.86C43.3171 483.12 35.7591 459.959 27.4 437.251C35.4386 471.543 41.0667 506.39 46 541.264C47 539.063 47 539.063 48 536.863C47 550.265 47 550.265 46 563.666C43.691 547.866 41.3807 531.822 35.8 516.861ZM78.708 270.24C68.7244 262.514 91.4026 248.786 93.1 247.479C98.9384 242.984 101.968 235.092 109.2 232.427C109.4 251.43 109.4 251.43 109.6 270.432C103.657 270.39 84.3106 274.575 78.708 270.24ZM599.6 232.427C609.812 236.141 619.453 245.798 625.2 254.83C614.268 250.925 606.408 241.506 599.6 232.427ZM533.4 244.229C520.2 245.779 510.344 243.389 497.2 243.229C501.017 239.377 527.89 239.506 533.4 244.229ZM579.2 247.229C589.085 254.186 598.101 263.792 604 274.432C593.127 268.995 583.322 258.772 579.2 247.229ZM449.2 251.63C456.383 255.461 459.7 263.357 457.6 271.232C452.923 265.618 450.937 258.579 449.2 251.63ZM586.6 309.436C605.74 293.131 632.831 274.986 647.6 252.83C654.092 258.913 632.018 275.441 627.838 278.983C621.381 284.453 614.665 289.615 608.25 295.135C599.783 302.419 591.912 310.398 583.2 317.387C582.661 317.82 581.867 317.021 581.2 316.837C583.113 313.637 583.798 311.824 586.6 309.436ZM549.4 359.042C542.386 354.237 535.753 348.888 528.7 344.14C522.301 339.834 515.536 338.563 512.15 331.339C508.386 323.309 510.424 305.489 510.2 300.498C509.413 282.955 503.281 270.34 497.6 254.43C510.642 259.598 521.126 267.876 531.3 277.483C541.241 286.87 551.231 296.223 560.7 306.086C561.355 306.768 561.579 307.907 561.4 308.836C560.193 315.093 557.509 321.032 556.6 327.338C555.187 337.136 558.028 350.771 552.2 360.242C551.267 359.842 550.238 359.616 549.4 359.042ZM478.4 260.831C477.674 268.087 472.069 277.089 465.2 280.033C468.643 270.698 469.403 264.58 478.4 260.831ZM562 265.831C572.7 269.722 579.542 281.106 585.6 290.034C575.295 287.138 563.488 276.994 562 265.831ZM496.4 285.634C490.959 291.421 476.633 288.174 469.6 286.034C479.135 285.064 486.725 284.461 496.4 285.634ZM76.4 334.039C75.1676 317.688 75.3671 301.216 75.2 284.833C76.6 284.833 76.6 284.833 78 284.833C78.098 304.573 78.4858 324.314 79.2 344.04C75.8723 342.642 76.6168 336.916 76.4 334.039ZM258 289.834C250.233 291.692 216.116 292.197 211.6 288.434C227.07 288.788 242.538 289.222 258 289.834ZM152 327.639C149.8 321.153 150.955 314.251 149.45 307.586C148.017 301.239 144.342 295.779 143 289.434C154.605 288.541 164.306 322.804 152 327.639ZM297.85 366.693C294.947 355.911 292.44 345.024 289.95 334.139C284.952 312.294 290.19 308.889 311.2 303.636C303.596 315.585 289.197 308.719 292.4 327.038C293.196 331.589 294.192 336.105 295.3 340.59C298.24 352.494 300.894 364.607 305.8 375.844C307.989 373.368 310.008 370.1 313.2 369.243C310.24 374.584 307.574 380.209 303.6 384.845C301.683 378.795 299.5 372.822 297.85 366.693ZM325.25 345.741C331.549 334.624 337.653 321.985 346.8 312.837C346.808 312.958 324.71 358.148 320.4 360.842C316.713 355.926 322.463 350.66 325.25 345.741ZM606 318.037C606.305 331.291 600.073 336.481 594.25 351.991C590.691 361.472 591.277 373.84 583.6 380.445C584.574 359.653 591.988 334.053 606 318.037ZM676.975 393.659C675.292 406.471 673.392 419.253 671.6 432.051C660.877 421.673 660.193 404.422 655.85 390.146C652.72 379.855 649.911 369.465 647.25 359.042C645.743 353.141 644.472 347.177 643.35 341.19C642.811 338.315 642.924 336.784 644.75 334.489C649.006 329.14 653.583 324.055 658 318.837C670.345 343.231 680.43 367.358 676.975 393.659ZM96.4 318.837C101.943 322.869 102.614 327.686 102 334.439C96.6017 330.03 95.9108 325.687 96.4 318.837ZM250 335.639C240.182 333.185 231.045 328.871 221.35 326.038C216.522 324.628 210.884 325.12 206.65 322.438C217.517 320.303 243.275 327.115 250 335.639ZM349.213 343.015C352.112 350.473 347.392 355.721 341 350.241C342.928 346.089 345.025 344.364 349.213 343.015ZM637.2 346.441C644.368 395.002 644.895 443.96 655.2 492.058C644.259 485.492 632.513 466.129 623.125 457.529C602.974 439.07 570.36 426.975 598.4 402.047C601.246 399.517 607.242 399.052 610.2 398.447C610.43 394.827 610.757 396.76 608.4 392.846C612.8 393.146 612.8 393.146 617.2 393.446C622.673 376.681 626.953 360.864 637.2 346.441ZM401.138 350.654C414.964 352.286 402.014 383.622 392.8 388.046C392.351 382.21 398.49 356.143 401.138 350.654ZM549.2 394.046C537.842 390.948 535.545 377.548 529.8 368.643C525.272 361.624 518.108 357.547 511.4 352.841C531.5 357.48 539.545 377.66 549.2 394.046ZM249.4 376.044C255.905 381.932 273.567 398.755 271.814 402.059C262.42 419.761 246.857 427.837 240.45 447.203C235.811 461.223 246.027 476.88 243.8 491.57C240.867 510.924 235.22 530.076 232.4 549.665C229.918 522.697 228.381 495.488 230 468.455C228.4 468.655 228.4 468.655 226.8 468.855C226.8 460.979 229.581 456.312 227.2 448.453C235.683 446.756 233.263 435.309 233.8 427.825C234.532 417.612 234.909 407.372 235.063 397.134C235.164 390.365 234.956 383.59 234.563 376.832C234.013 367.409 225.348 360.372 219.8 354.042C231.661 357.277 240.285 367.794 249.4 376.044ZM454.8 355.242C452.487 363.724 443.795 373.166 435.6 376.444C438.097 368.119 446.381 357.832 454.8 355.242ZM421.063 357.542C422.011 362.094 425.33 376.079 420.2 378.645C416.095 372.715 418.695 363.506 421.063 357.542ZM342 359.642C339.2 362.043 339.2 362.043 336.4 364.443C337.559 359.612 337.283 358.07 342 359.642ZM206.8 364.443C204.928 368.686 201.621 373.147 198 376.044C199.529 371.711 201.447 365.112 206.8 364.443ZM565 377.344C560.769 374.365 556.359 371.162 554 366.443C562.751 371.05 585.466 383.242 587.6 392.846C580.067 387.679 572.469 382.605 565 377.344ZM507.6 397.847C504.365 394.194 506.81 386.834 504.15 382.407C501.286 377.642 494.907 375.969 491.6 371.244C522.479 381.094 497.555 384.342 512.25 399.847C517.476 405.361 527.575 407.544 533.2 414.449C523.813 409.874 514.683 405.843 507.6 397.847ZM469.6 382.045C463.84 387.534 446.69 393.892 440.8 385.645C450.249 384.07 460.033 382.139 469.6 382.045ZM295.25 412.098C298.385 408.35 301.412 404.513 304.4 400.647C308.33 395.561 312.133 390.379 316 385.245C316.18 390.461 310.774 396.676 307.9 400.297C296.746 414.352 290.248 428.12 278 406.448C285.737 408.117 288.346 420.353 295.25 412.098ZM386.6 389.846C388.871 402.602 390.013 415.611 393.413 428.113C396.243 438.523 403.922 447.542 405.2 458.254C405.76 462.948 400.289 466.379 398.5 470.755C390.471 490.395 388.418 511.667 385.6 532.463C382.458 496.636 378.069 462.331 366.8 428.05C371.494 463.488 374.378 499.172 376.4 534.863C371.277 512.018 364.278 489.554 356 467.655C362.46 494.433 365.833 506.319 370.3 534.563C372.131 546.142 372.835 557.878 374.6 569.467C375.289 573.99 376.646 578.702 374.2 583.669C370.629 568.807 369.045 559.109 364.05 545.864C358.847 532.07 349.384 520.161 344.038 506.422C341.692 500.395 339.563 477.229 339.3 470.105C338.533 449.341 356.923 433.744 354.45 412.699C353.666 406.028 353.786 398.153 349.2 393.246C361.384 393.923 374.188 390.974 386.6 389.846ZM480.15 404.498C474.269 400.051 465.769 401.017 460.8 396.047C471.477 398.437 484.441 399.84 491.8 408.886C496.611 414.799 497.573 422.797 503.3 428.15C508.978 433.458 518.422 431.192 522.8 438.052C495.286 434.075 498.463 418.346 480.15 404.498ZM440.65 447.653C433.221 431.805 428.381 415.381 426.4 398.047C434.683 399.101 442.138 406.613 447.65 412.348C460.144 425.348 472.283 438.685 484.6 451.853C473.233 466.38 468.166 475.85 465.6 494.458C458.46 490.157 452.987 484.079 446 479.456C460.801 471.382 446.453 460.032 440.65 447.653ZM200.4 398.447C207.299 400.172 213.638 403.88 216.8 410.448C209.397 408.906 203.35 405.822 200.4 398.447ZM502 487.457C506.354 487.96 516.225 476.403 518.8 473.656C534.577 456.823 549.873 439.54 565.8 422.85C571.513 416.864 576.908 409.617 584.65 406.698C583.976 409.868 584.276 409.837 581.55 413.049C572.653 423.532 563.782 434.05 554.4 444.102C540.806 458.667 519.903 483.4 500 494.458C493.6 478.856 493.6 478.856 487.2 463.254C495.886 468.103 495.715 486.732 502 487.457ZM408 418.849C416.209 422.27 419.6 433.626 419.6 441.652C411.217 438.059 408.895 426.901 408 418.849ZM293.188 530.2C297.705 526.307 293.807 518.225 293.05 512.31C291.723 501.935 289.82 491.638 288.55 481.257C286.183 461.915 290.775 450.184 303.2 434.651C303.2 442.493 298.338 451.195 297.138 459.041C293.635 481.932 300.118 508.612 306.513 529.7C311.856 529.481 311.856 529.481 317.2 529.262C298.741 548.861 308 554.865 286 532.863C288.167 531.508 291.252 531.868 293.188 530.2ZM588.6 437.651C611.98 459.943 635.602 489.388 643.7 521.511C645.732 529.571 649.291 541.298 647 550.465C637.137 542.793 635.788 528.329 626.05 519.961C607.429 503.961 583.088 496.612 560.213 489.02C562.337 479.203 582.224 445.5 588.6 437.651ZM179.85 511.86C183.588 493.296 187.687 462.039 197.2 442.452C196.123 448.914 195.8 455.504 195.8 462.054C199.498 462.054 197.696 462.597 201 459.854C206.673 481.102 208.515 490.072 215.4 509.46C216.669 513.032 221.379 515.093 221.8 518.861C223.095 530.458 222.067 542.197 222.2 553.865C220.91 539.549 218.234 525.516 213.6 511.86C211.136 504.6 206.616 497.261 207.6 489.658C206.6 490.258 206.6 490.258 205.6 490.858C204.4 487.657 204.4 487.657 203.2 484.457C204.683 496.059 193.289 503.814 187.6 514.561C182.001 525.136 180.377 537.002 174.8 547.264C175.974 535.401 177.497 523.546 179.85 511.86ZM752.65 471.355C761.14 462.291 768.426 451.962 778 444.052C778 494.658 778 494.658 778 545.264C771.972 539.065 767.82 531.265 762.238 524.662C744.324 503.475 722.061 501.876 696.213 497.546C719.908 493.193 735.252 489.931 752.65 471.355ZM316.8 452.853C318.146 460.259 318.9 483.355 309.2 485.257C313.571 473.62 309.199 463.22 316.8 452.853ZM260.8 455.254C269.696 461.609 272.183 476.86 274 486.857C264.466 479.262 260.131 467.304 260.8 455.254ZM407.6 462.854C411.958 470.526 416.125 478.31 420.675 485.87C421.639 487.471 424.677 487.106 425.45 488.807C435.923 511.855 436.758 536.292 437.6 561.666C431.274 549.758 430.027 532.361 424.6 519.361C429.736 540.797 434.623 561.628 436 583.669C433.17 582.253 422.441 554.094 418 547.264C420.594 559.529 427.055 571.114 430 583.669C414.8 583.669 414.8 583.669 399.6 583.669C399.8 582.068 399.8 582.068 400 580.468C389.913 584.217 395.231 583.203 384 583.269C393.962 561.559 404.263 539.998 415 518.661C396.789 532.588 389.714 556.522 382.8 577.268C387.335 538.227 395.37 500.228 407.6 462.854ZM537.2 477.656C543.919 480.536 547.579 488.188 550.4 494.458C543.525 491.333 538.685 485.081 537.2 477.656ZM86 491.658C100.164 521.123 104.812 551.049 106.8 583.269C78.5 583.269 78.5 583.269 50.2 583.269C57.6619 572.781 64.8846 562.08 71.2 550.865C56.5801 556.518 55.6632 570.403 46.8 581.268C49.7486 550.304 70.8363 517.998 86 491.658ZM442 493.258C447.547 496.164 451.109 501.213 456.8 504.059C455.94 498.383 456.84 501.732 452.8 494.458C468.785 495.966 472.115 522.122 473.45 533.863C474.239 540.806 474.361 547.811 475.05 554.765C478.291 587.483 480.449 583.669 447.6 583.669C452.65 572.864 457.9 562.142 463.6 551.665C450.529 557.513 452.101 575.355 443.2 583.269C445.895 557.618 452.791 533.446 460.4 508.86C446.96 524.99 450.095 542.861 443.6 561.266C442.626 539.096 438.706 518.334 433.2 496.858C438.924 499.237 441.142 504.242 447.2 506.06C444.6 499.659 444.6 499.659 442 493.258ZM497.2 506.46C489.674 505.75 484.386 499.408 478.263 495.446C483.732 490.964 494.573 501.204 497.2 506.46ZM205 495.258C212.508 524.715 216.79 552.949 221.2 583.269C214.769 583.269 216.751 579.172 214.35 572.517C208.474 556.231 201.43 541.845 191.6 527.662C193.459 536.216 200.048 545.522 203.1 553.815C207.523 565.831 208.201 570.543 211.2 583.269C191.2 583.269 191.2 583.269 171.2 583.269C178.446 572.811 186.14 562.558 192 551.265C177.132 558.499 176.86 571.321 167.2 582.468C171.907 551.479 189.986 522.43 205 495.258ZM558 567.867C556.572 552.609 553.81 537.501 552.2 522.261C551.262 513.38 554.53 504.773 557.6 496.658C570.966 510.19 579.979 528.515 596.1 539.013C613.897 550.603 638.167 540.396 645.7 565.016C647.519 570.962 647.324 577.604 647.6 583.669C628.304 583.623 609.006 583.834 589.713 583.531C578.015 583.347 561.032 584.186 553.6 572.067C555.89 571.307 558.33 571.396 558 567.867ZM24 499.259C37.7328 524.184 39.9307 555.881 41.2 583.669C32.6 583.669 32.6 583.669 24 583.669C24 541.464 24 541.464 24 499.259ZM514 500.059C513.618 524.402 518.514 545.377 519.6 569.267C511.871 560.554 499.282 506.853 514 500.059ZM549.6 506.86C547.954 506.739 531.366 508.077 528 502.859C535.579 501.848 543.88 500.996 549.6 506.86ZM145.8 502.459C157.424 527.647 160.217 556.376 162 583.669C138.8 583.469 138.8 583.469 115.6 583.269C123.046 572.862 130.642 562.482 136.8 551.265C122.149 554.296 119.121 571.909 112 582.468C116.038 554.36 131.386 526.485 145.8 502.459ZM710.95 583.044C687.148 582.549 683.359 583.203 683.25 561.266C683.18 547.025 684.076 515.892 684.4 502.859C702.231 511.445 715.265 530.966 732.75 541.664C739.369 545.713 746.634 548.6 753.65 551.915C759.191 554.533 774.567 555.374 776.552 561.706C778.506 567.939 777.87 578.704 778 583.269C755.65 583.194 733.295 583.508 710.95 583.044ZM247.6 504.059C248.906 513.936 246.5 531.898 258.4 535.663C255.233 540.164 247.874 542.69 246 548.064C243.436 555.418 247.057 551.034 245.05 555.365C243.129 559.511 240.844 563.486 239 567.667C237.09 571.995 236.403 581.346 230.8 583.669C233.626 556.582 240.747 530.369 247.6 504.059ZM345.6 514.46C355.899 523.524 357.734 539.244 361.4 552.465C364.233 562.684 365.533 573.267 367.6 583.669C303 583.469 303 583.469 238.4 583.269C241.308 577.239 243.996 571.097 247.125 565.179C248.344 562.873 248.902 559.314 251.421 558.638C258.16 556.831 265.39 558.892 272.35 558.416C291.436 557.111 313.315 556.058 331.8 550.665C336.301 549.351 340.596 547.386 344.85 545.414C346.987 544.423 349.878 542.336 349.588 539.426C349.048 534.032 342.687 530.725 340.25 526.212C348.866 524.109 347.882 522.447 345.6 514.46ZM544.4 514.46C542.969 519.755 535.502 530.683 529.4 529.462C531.762 522.881 536.939 515.192 544.4 514.46ZM499.988 517.711C493.847 520.44 485.154 523.24 478.6 520.261C482.497 516.364 495.55 514.353 499.988 517.711ZM500 525.662C497.74 532.974 494.244 543.199 485.6 544.064C488.852 537.704 492.102 527.866 500 525.662ZM531.6 572.867C531.6 587.082 513.119 583.423 504 583.269C505.416 577.602 525.179 573.604 531.6 572.867Z" fill="#000000" fill-rule="nonzero" opacity="1" stroke="none"/>
</g>
</svg>
