<?xml version="1.0" encoding="UTF-8" standalone="no"?>
<!DOCTYPE svg PUBLIC "-//W3C//DTD SVG 1.1//EN" "http://www.w3.org/Graphics/SVG/1.1/DTD/svg11.dtd">
<!-- Created with Vectornator (http://vectornator.io/) -->
<svg height="100%" stroke-miterlimit="10" style="fill-rule:nonzero;clip-rule:evenodd;stroke-linecap:round;stroke-linejoin:round;" version="1.1" viewBox="0 0 800 600" width="100%" xml:space="preserve" xmlns="http://www.w3.org/2000/svg" xmlns:xlink="http://www.w3.org/1999/xlink">
<defs/>
<clipPath id="ArtboardFrame">
<rect height="600" width="800" x="0" y="0"/>
</clipPath>
<g clip-path="url(#ArtboardFrame)" id="Layer-1">
<path d="M0.400017 4.00017C0.400017 302.213 0.400017 302.213 0.400017 600.425C399.217 600.225 399.217 600.225 798.034 600.025C798.034 301.013 798.034 301.013 798.034 2.00008C399.217 3.00013 399.217 3.00013 0.400017 4.00017ZM736.831 23.201C735.431 39.2017 735.431 39.2017 734.031 55.2023C723.631 48.6021 723.631 48.6021 713.23 42.0018C704.342 68.8679 704.342 68.8679 695.453 95.7341C679.803 89.1234 662.853 83.212 645.877 83.9036C632.167 84.4621 636.551 97.7655 628.802 104.517C625.059 107.778 619.38 108.727 614.426 108.405C608.837 108.041 604.17 103.639 598.675 102.554C593.884 101.609 588.908 102.454 584.025 102.404C583.171 97.4398 583.916 86.3182 575.924 84.5536C572.646 83.8297 569.332 86.9759 566.024 86.4037C562.748 85.837 560.696 81.9417 557.424 81.3534C554.345 80.7999 551.325 83.612 548.223 83.2035C543.581 82.5922 539.652 79.1047 535.023 78.4033C529.53 77.571 523.122 84.3682 520.022 86.8037C500.93 68.5288 501.107 74.5736 478.47 78.5533C473.595 79.4105 468.488 77.5542 463.62 78.4533C456.753 79.7215 461.125 87.129 456.319 90.1413C452.308 92.6557 446.595 90.6716 442.369 92.8039C437.911 95.0527 434.935 99.4709 431.218 102.804C420.784 90.3622 411.232 77.124 399.917 65.4778C392.919 58.275 384.628 52.4219 376.516 46.502C371.326 42.7143 366.515 36.3346 360.09 36.414C346.01 36.5881 333.106 50.2921 319.314 47.452C285.649 40.5196 252.311 32.0847 218.809 24.401C477.82 23.801 477.82 23.801 736.831 23.201ZM777.633 23.601C777.633 41.8018 777.633 41.8018 777.633 60.0025C770.986 58.398 761.789 57.6383 756.882 51.8522C749.568 43.2286 753.805 31.42 744.432 23.801C761.032 23.701 761.032 23.701 777.633 23.601ZM84.6036 25.4011C73.3817 33.298 58.0051 32.2693 45.6269 37.9516C36.0061 42.3681 29.8665 50.1702 20.0008 54.0023C20.4853 23.4332 62.8584 24.8585 84.6036 25.4011ZM147.956 32.6639C130.515 23.6385 123.436 40.1389 107.405 43.1518C105.632 43.4849 90.8714 45.152 88.7163 39.7642C86.4161 34.0137 102.6 26.9264 113.805 25.8011C160.105 21.1512 206.383 27.3766 251.811 35.4515C263.764 37.5762 275.65 40.0976 287.462 42.9018C292.52 44.1026 308.911 46.8633 314.013 53.2023C298.296 54.919 282.533 56.2629 266.861 58.3525C263.507 58.7996 260.383 61.0824 257.011 60.8026C239.487 59.3481 222.209 55.7357 204.809 53.2023C204.809 56.2024 204.809 56.2024 204.809 59.2025C181.709 57.2062 169.621 43.8744 147.956 32.6639ZM76.2032 41.7518C83.5609 43.0574 109.629 42.7125 95.8041 53.2023C94.4215 54.2513 85.1467 61.5017 81.2284 62.1651C75.2368 63.1796 66.4583 61.0663 60.1525 61.4026C52.4876 61.8114 45.1285 65.9868 37.6016 65.6028C27.3625 65.0804 39.8075 54.4382 40.9517 53.7523C47.135 50.0454 52.8934 45.4402 59.6025 42.8018C64.9704 40.6909 70.415 40.7246 76.2032 41.7518ZM142.006 73.2031C139.382 78.538 135.36 87.9061 132.831 87.2162C117.781 83.1117 128.662 51.0868 138.806 45.6019C157.736 35.366 144.277 68.586 142.006 73.2031ZM187.908 104.754C178.296 102.929 168.651 101.162 159.207 98.6042C152.755 96.8564 145.217 95.5129 140.906 90.4038C139.581 88.8338 152.143 55.6609 161.607 55.2023C179.051 54.357 195.822 62.3834 212.609 67.2028C236.369 74.0242 257.951 87.1371 279.412 99.4042C267.793 140.069 206.393 146.987 171.607 146.206C174.287 142.673 177.684 137.98 181.808 137.006C192.537 134.47 203.809 135.539 214.809 134.806C209.819 127.746 200.041 133.838 196.008 125.605C205.243 125.192 222.141 128.446 230.41 120.005C221.209 120.072 212.006 120.432 202.809 120.205C199.473 120.123 196.796 116.139 195.008 114.405C202.833 106.581 213.938 111.796 219.209 100.004C208.27 103.027 199.12 106.884 187.908 104.754ZM731.231 60.8026C732.785 62.7181 732.634 62.1029 733.181 64.7527C734.587 71.5584 735.881 78.3867 737.231 85.2036C725.231 85.4036 725.231 85.4036 713.23 85.6036C722.231 73.2031 722.231 73.2031 731.231 60.8026ZM757.632 64.8027C763.27 68.718 766.981 77.159 770.033 82.0035C786.998 108.934 771.592 107.501 746.832 108.805C752.232 86.8037 752.232 86.8037 757.632 64.8027ZM40.4017 70.603C45.5317 69.2892 50.7814 68.4882 56.0024 67.6029C86.8502 66.4246 45.4085 102.312 40.4017 70.603ZM20.0008 68.0029C22.1707 70.5344 22.5531 72.0902 22.0009 75.4032C21.0009 75.5032 21.0009 75.5032 20.0008 75.6032C20.0008 71.803 20.0008 71.803 20.0008 68.0029ZM20.4009 93.604C20.4009 88.7858 19.7932 83.2957 21.2009 78.6033C35.458 77.8113 31.4795 89.5223 20.4009 93.604ZM466.62 81.4034C471.628 80.4644 475.225 85.7252 480.87 84.8036C494.199 82.6275 508.707 68.8878 516.909 91.1289C518.224 94.6949 509.252 97.6492 508.622 98.2042C502.207 103.847 484.517 116.203 474.92 111.405C464.852 106.371 484.712 90.2486 490.421 99.2042C487.009 100.863 486.233 100.749 486.021 104.404C490.128 103.983 500.691 95.9205 491.433 94.0165C482.164 92.11 480.095 91.9724 471.245 88.1912C468.224 86.9004 464.263 90.1481 460.82 89.8038C459.855 85.9468 462.576 82.1616 466.62 81.4034ZM310.213 89.8038C309.41 101.157 271.804 96.9563 268.411 82.0035C267.133 76.368 310.641 83.7459 310.213 89.8038ZM566.511 91.0289C570.504 90.7457 574.071 88.3739 577.624 91.4039C592.037 103.691 562.007 113.712 555.023 113.805C553.851 113.82 552.639 113.816 551.523 113.455C524.688 104.776 555.629 98.0081 565.224 97.6041C559.677 93.0816 551.268 90.8756 544.373 94.204C538.009 97.2763 537.344 107.329 531.76 109.242C528 110.531 523.924 110.626 520.072 111.605C514.796 112.945 511.993 118.742 506.321 119.755C496.266 121.551 492.293 116.984 503.421 110.605C508.485 107.702 513.357 104.463 518.122 101.092C524.119 96.8493 526.858 90.0144 533.423 86.4037C547.172 86.5087 558.149 91.6219 566.511 91.0289ZM649.627 102.404C637.149 111.281 631.596 91.1141 647.077 85.9536C650.731 84.7359 652.728 87.49 656.228 88.4037C658.828 89.0826 662.021 87.8698 664.228 89.4038C669.527 93.0873 671.473 100.092 674.829 105.604C670.752 105.464 665.104 104.448 661.228 106.405C657.004 108.537 655.193 114.236 650.228 115.205C646.506 115.931 640.568 111.893 643.027 107.605C646.7 101.199 658.375 104.964 656.028 94.404C653.11 96.7607 652.954 100.038 649.627 102.404ZM64.0027 87.6037C61.5692 102.973 53.0943 101.971 48.6021 87.8037C53.5607 86.8362 59.0036 87.4722 64.0027 87.6037ZM716.73 89.2038C726.865 94.1586 734.931 102.538 744.031 109.205C722.431 109.005 722.431 109.005 700.83 108.805C703.98 116.888 704.567 126.526 710.28 133.056C713.879 137.168 720.781 136.089 726.031 137.606C718.755 141.299 710.16 141.728 702.03 142.406C708.711 148.937 716.737 147.154 723.631 153.206C710.43 154.407 710.43 154.407 697.23 155.607C706.33 159.807 706.33 159.807 715.43 164.007C706.33 173.207 706.33 173.207 697.23 182.408C700.951 182.083 704.926 180.041 708.392 181.433C711.899 182.84 712.882 187.659 715.918 189.908C717.81 191.31 720.313 191.846 722.663 192.008C736.742 192.98 750.882 193.885 764.982 193.296C772.917 192.964 776.738 177.521 778.033 174.807C777.633 267.211 777.633 267.211 777.233 359.615C630.698 316.897 483.983 274.79 337.627 231.46C331.552 229.661 321.236 227.791 321.464 221.459C322.045 205.294 322.64 188.887 326.614 173.207C327.511 169.666 333.129 169.497 335.364 166.607C337.125 164.331 337.164 161.14 338.064 158.407C344.931 162.59 350.664 170.158 358.665 170.957C364.19 171.509 367.485 163.978 372.616 161.857C375.897 160.5 379.683 161.157 383.216 160.807C383.266 158.057 382.195 155.045 383.366 152.556C386.197 146.54 393.609 142.749 394.792 136.206C395.629 131.573 389.675 128.092 388.616 123.505C387.993 120.806 389.516 118.038 389.967 115.305C394.583 115.938 399.463 115.545 403.817 117.205C426.215 125.746 447.533 136.93 469.82 145.756C474.53 147.621 479.572 149.629 484.621 149.206C494.079 148.414 503.61 146.197 512.222 142.206C520.071 138.569 524.58 128.4 533.073 126.755C546.908 124.076 561.162 130.917 575.224 130.006C584.144 129.427 592.141 124.009 600.925 122.355C609.238 120.79 617.917 121.988 626.227 120.405C629.522 119.778 631.835 115.816 635.189 115.83C640.28 115.852 644.673 121.111 649.727 120.505C656.786 119.659 662.288 113.508 669.178 111.755C680.207 108.948 691.901 109.556 702.98 106.955C710.958 105.081 718.347 101.254 726.031 98.4042C716.536 98.8717 706.926 97.7918 697.63 95.8041C697.72 95.7676 714.966 88.3414 716.73 89.2038ZM39.6017 102.854C43.0482 110.703 47.8783 118.041 50.1521 126.305C50.649 128.111 48.2025 129.512 47.402 131.206C45.7523 134.695 45.7484 138.129 45.2019 142.006C37.3406 140.135 27.0056 141.729 21.8459 135.51C20.8747 134.339 20.5389 125.513 20.5259 124.805C20.3435 114.903 15.7184 98.7459 27.2012 94.804C37.8954 94.2086 36.5557 95.9183 39.6017 102.854ZM708.43 100.004C699.6 101.998 690.511 107.15 681.729 104.954C675.545 103.408 678.185 98.0481 681.229 95.004C686.611 94.604 706.76 98.2587 708.43 100.004ZM141.431 101.679C151.445 104.883 162.185 106.006 171.757 110.355C189.309 118.329 180.521 132.858 166.957 137.806C154.872 142.214 141.093 137.267 128.93 141.743C126.796 142.529 111.803 151.249 106.229 147.794C79.3573 131.137 88.5153 105.808 116.005 96.4041C127.522 92.4643 131.106 98.3762 141.431 101.679ZM324.214 109.405C325.39 95.7601 340.693 86.3862 338.014 106.405C341.707 105.799 346.545 102.845 349.202 105.479C359.038 115.231 366.365 134.605 381.216 124.005C380.574 134.133 380.865 138.318 377.216 148.806C367.438 176.908 338.051 145.989 330.814 134.006C323.302 140.567 309.893 164.357 295.212 155.407C277.152 144.396 295.979 138.302 297.363 126.543C297.696 123.71 296.296 109.66 301.413 105.804C319.047 92.5184 310.991 128.357 328.814 116.805C327.652 114.276 323.961 112.34 324.214 109.405ZM462.37 109.505C460.186 114.357 451.824 121.506 446.419 116.805C442.042 112.999 434.727 109.996 434.418 104.204C434.036 97.041 450.998 97.1144 455.219 98.6042C451.216 101.33 439.838 109.499 450.019 112.005C447.129 103.335 465.626 102.268 462.37 109.505ZM354.015 104.804C358.215 104.804 358.215 104.804 362.415 104.804C362.415 109.582 362.606 107.22 361.853 111.892C356.747 112.838 354.52 109.352 354.015 104.804ZM291.212 105.204C290.314 121.832 290.651 131.942 274.012 136.806C275.032 126.093 278.8 108.183 291.212 105.204ZM383.016 112.605C378.969 112.225 376.458 109.923 374.416 106.605C379.723 105.543 384.257 105.987 383.016 112.605ZM607.476 112.755C614.093 113.509 617.349 111.985 623.226 114.405C616.936 116.833 609.576 117.94 602.876 118.455C600.679 118.624 596.607 116.648 594.463 117.43C586.075 120.489 580.698 124.145 572.424 125.605C577.991 106.143 591.231 110.902 607.476 112.755ZM569.624 116.405C563.331 124.796 551.916 119.387 543.523 119.305C537.419 119.245 529.569 115.719 525.222 120.005C519.908 125.246 514.68 139.188 504.721 137.943C507.414 105.806 550.129 116.141 569.624 116.405ZM762.032 115.205C761.41 123.29 722.52 123.285 721.431 116.205C733.73 114.009 751.722 115.274 762.032 115.205ZM377.616 116.005C376.73 120.437 375.6 125.851 370.016 122.805C370.753 119.434 374.608 117.281 377.616 116.005ZM494.821 121.405C508.354 123.392 494.353 140.878 485.421 142.406C467.349 145.498 447.597 116.186 477.22 117.205C458.539 138.41 491.018 145.088 491.621 126.405C474.071 140.445 468.71 117.572 494.821 121.405ZM777.633 121.205C777.633 129.405 777.633 129.405 777.633 137.606C772.644 133.718 774.416 126.324 777.633 121.205ZM452.819 122.005C453.486 122.072 456.153 122.339 456.819 122.405C456.686 122.872 456.153 124.739 456.019 125.205C455.486 124.672 453.353 122.539 452.819 122.005ZM760.832 128.805C740.831 129.805 740.831 129.805 720.831 130.806C725.094 121.282 758.495 123.482 760.832 128.805ZM172.532 151.856C208.394 153.149 233.94 137.04 268.411 129.205C251.942 160.82 209.195 165.409 177.007 164.207C161.902 163.643 137.326 163.034 126.805 149.006C135.292 142.641 160.398 151.419 172.532 151.856ZM738.031 135.606C753.632 136.106 753.632 136.106 769.233 136.606C761.871 142.294 745.544 142.581 738.031 135.606ZM777.633 146.806C777.633 149.806 777.633 149.806 777.633 152.806C771.233 151.806 771.233 151.806 764.832 150.806C769.076 149.563 773.27 147.417 777.633 146.806ZM20.4009 148.006C25.317 148.955 50.5575 154.71 50.6021 156.407C50.7619 162.478 38.8178 162.631 42.0893 169.595C44.1276 173.933 46.4621 178.78 50.4021 181.808C55.3739 185.628 60.6692 189.008 65.8028 192.608C60.5352 204.899 50.9819 198.808 39.7017 196.146C33.2306 194.619 26.9141 195.264 20.4009 196.008C20.4009 172.007 20.4009 172.007 20.4009 148.006ZM752.832 149.206C746.737 151.082 744.593 153.206 737.231 153.206C739.714 147.249 747.21 147.079 752.832 149.206ZM329.214 154.407C329.095 160.039 328.336 163.267 322.414 164.007C323.286 158.22 323.328 155.437 329.214 154.407ZM152.606 175.607C141.089 171.823 129.541 168.105 118.205 163.807C111.913 161.421 111.938 161.14 108.805 158.007C128.718 159.694 146.636 170.044 166.407 171.207C190.46 172.622 213.793 159.596 237.61 163.407C207.428 193.589 190.34 188.007 152.606 175.607ZM758.232 159.607C764.473 159.512 770.716 159.615 776.958 159.619C777.873 162.313 777.758 160.919 777.233 163.807C753.832 164.307 753.832 164.307 730.431 164.807C735.086 158.289 752.664 159.691 758.232 159.607ZM285.937 188.82C295.893 182.491 301.027 165.496 314.013 163.607C309.621 177.151 287.039 216.561 269.924 211.084C264.841 209.457 258.577 208.411 255.561 204.009C264.442 196.114 276.162 195.035 285.937 188.82ZM80.0034 184.808C73.3534 183.058 55.9142 175.361 59.8025 166.807C72.296 165.199 79.1731 174.512 80.0034 184.808ZM760.032 170.807C758.326 177.212 727.894 175.668 726.031 172.407C736.92 170.975 749.065 169.589 760.032 170.807ZM153.607 186.408C144.104 191.951 130.518 188.901 120.805 188.408C105.285 187.62 93.9193 190.683 94.204 171.607C114.816 170.022 133.606 182.262 153.607 186.408ZM318.213 174.007C323.821 191.766 303.192 219.881 284.412 215.409C294.962 200.87 306.414 187.57 318.213 174.007ZM756.832 183.608C748.048 183.791 739.266 184.027 730.481 184.158C726.75 184.214 727.913 184.715 726.229 181.666C732.29 179.673 754.923 175.015 756.832 183.608ZM239.21 203.609C237.033 205.706 235.354 210.294 232.41 209.609C221.254 207.014 196.446 199.339 185.408 196.008C193.506 184.941 231.525 201.078 239.21 203.609ZM110.405 211.009C122.46 228.645 129.044 249.118 140.006 267.411C144.932 275.632 159.125 290.307 157.307 300.763C155.172 313.037 137.994 292.305 136.406 289.412C130.056 277.85 123.725 266.268 117.892 254.436C114.368 247.287 111.936 239.63 108.355 232.51C103.043 221.952 96.8302 211.872 91.2414 201.459C90.0148 199.173 90.8522 198.301 93.2039 197.008C100.771 192.848 107.365 206.562 110.405 211.009ZM147.206 196.408C165.101 196.889 173.353 214.456 190.408 219.209C176.015 229.347 148.734 213.212 147.206 196.408ZM38.0016 230.01C29.8176 227.92 31.639 215.436 33.4014 209.209C41.5429 208.765 38.134 226.435 38.0016 230.01ZM30.8013 231.21C23.5129 228.837 18.441 217.519 21.6009 210.409C31.0064 209.921 30.1487 226.175 30.8013 231.21ZM50.4021 210.009C47.8524 216.666 45.6369 223.458 42.0018 229.61C42.5657 218.796 38.5466 208.527 50.4021 210.009ZM313.813 211.809C312.544 219.932 309.555 221.969 301.813 220.209C305.48 216.772 309.508 214.392 313.813 211.809ZM258.411 220.609C258.508 224.111 252.232 223.933 249.011 225.31C236.552 230.632 222.382 233.23 210.409 239.21C204.401 242.21 198.718 247.667 192.008 247.41C189.044 225.183 210.267 225.027 225.81 218.409C235.091 214.775 258.229 214.054 258.411 220.609ZM174.807 228.81C160.443 229.767 131.847 228.678 122.005 215.009C126.286 214.828 172.142 226.045 174.807 228.81ZM280.462 228.31C283.224 226.369 285.566 227.48 288.762 228.36C307.866 233.62 308.413 239.872 308.413 259.211C296.063 259.211 292.78 256.164 282.812 252.011C282.483 266.158 280.728 263.883 266.411 264.011C266.693 250.453 268.049 237.032 280.462 228.31ZM21.0009 229.01C21.7009 231.11 21.7009 231.11 22.4009 233.21C21.4009 233.21 21.4009 233.21 20.4009 233.21C20.7009 231.11 20.7009 231.11 21.0009 229.01ZM263.611 232.41C266.466 236.244 262.404 241.896 261.611 246.61C260.938 250.614 260.585 258.709 257.011 262.711C254.763 265.228 250.979 266.925 250.211 270.211C249.533 273.111 250.714 278.151 247.31 280.262C246.289 280.895 242.776 278.62 242.61 278.512C233.368 272.473 206.406 260.292 208.771 255.398C214.102 244.37 243.686 243.199 254.611 237.21C257.592 235.576 261.58 229.683 263.611 232.41ZM337.014 244.21C356.126 249.347 375.016 255.277 394.017 260.811C384.518 270.309 365.323 269.956 352.915 270.211C345.366 270.367 337.813 270.476 330.264 270.311C323.023 270.153 315.969 270.153 315.463 261.461C314.963 252.865 314.482 250.367 318.613 244.01C327.732 241.938 327.466 241.644 337.014 244.21ZM26.0011 248.01C26.0011 254.992 27.1308 273.401 20.4009 276.812C20.4009 270.941 15.8171 248.489 26.0011 248.01ZM30.8013 274.812C29.7804 267.851 24.2992 252.864 32.0014 248.811C37.0518 253.973 37.1617 272.642 30.8013 274.812ZM43.6018 272.812C35.4016 270.724 37.9891 257.911 38.8016 251.411C41.9873 257.934 43.6018 265.539 43.6018 272.812ZM546.023 307.813C515.138 313.234 484.336 319.149 453.369 324.076C441.278 326 429.081 329.485 416.89 328.36C413.024 328.003 411.814 322.432 408.817 319.964C404.461 316.376 398.564 315.272 393.217 314.513C381.207 312.809 369.592 313.832 358.715 307.913C349.804 303.064 341.386 297.343 333.014 291.612C324.957 286.097 318.323 279.921 322.367 277.877C324.124 276.988 326.151 276.667 328.114 276.512C354.499 274.423 381.29 273.83 407.017 267.611C463.109 276.516 505.358 290.102 546.023 307.813ZM308.413 271.411C307.423 275.238 297.522 274.829 293.812 276.812C286.668 280.63 279.7 292.621 270.811 291.612C253.884 289.691 272.563 270.563 280.612 268.411C282.849 267.813 309.566 266.954 308.413 271.411ZM41.6018 286.212C37.4959 292.782 26.9034 291.809 20.4009 292.012C20.9025 282.716 35.4862 286.115 41.6018 286.212ZM43.2018 292.012C39.6621 300.862 28.8351 301.169 20.4009 301.613C20.4009 292.379 37.3758 292.967 43.2018 292.012ZM241.21 298.013C239.682 299.843 232.566 307.753 229.76 312.163C225.136 319.429 225.516 329.379 216.409 332.414C219.453 319.587 227.887 302.454 241.21 298.013ZM46.802 302.013C53.8422 304.653 54.8855 311.723 55.6024 318.413C47.0697 315.214 46.802 310.439 46.802 302.013ZM47.202 320.414C38.8712 319.656 35.2809 312.457 36.4015 304.613C44.3294 305.406 46.7174 313.629 47.202 320.414ZM34.0514 322.314C27.8134 325.971 25.2069 311.201 26.6511 307.113C27.8636 303.681 40.1099 318.761 34.0514 322.314ZM145.806 396.417C149.785 393.107 157.294 390.768 158.657 384.616C162.74 366.181 152.937 354.774 146.906 338.164C143.525 328.852 142.567 319.03 142.006 309.213C156.056 315.235 162.265 339.817 167.47 349.552C173.301 360.46 180.205 370.77 186.058 381.666C210.588 427.329 150.754 421.921 124.805 419.618C130.03 410.419 137.683 403.175 145.806 396.417ZM274.112 311.063C274.186 312.206 251.913 328.569 248.01 329.614C252.455 321.614 263.932 309.154 274.112 311.063ZM289.212 326.414C289.394 321.844 286.176 316.811 285.612 312.013C296.879 316.299 307.567 321.998 318.763 326.464C326.391 329.506 334.354 331.63 342.114 334.314C353.057 338.099 350.745 344.303 340.464 346.315C321.839 349.959 303.059 354.346 284.412 357.215C284.412 346.486 288.796 336.903 289.212 326.414ZM20.4009 314.413C24.2462 317.297 23.6341 321.877 24.001 326.414C18.7496 325.83 20.4009 318.078 20.4009 314.413ZM571.224 321.814C569.787 319.65 569.897 317.195 572.024 316.413C580.59 313.265 575.39 328.085 571.224 321.814ZM560.424 317.613C560.424 321.614 560.424 321.614 560.424 325.614C554.407 322.955 553.107 318.384 560.424 317.613ZM584.425 317.613C587.225 317.613 587.225 317.613 590.025 317.613C589.381 319.745 589.381 319.745 588.737 321.876C585.764 321.309 585.648 320.305 584.425 317.613ZM580.025 319.614C589.837 324.142 590.205 340.331 584.225 348.215C575.849 343.189 575.797 327.128 580.025 319.614ZM553.623 348.815C545.797 344.715 541.042 328.694 547.623 321.814C558.905 330.125 556.986 338.727 553.623 348.815ZM169.607 321.614C168.492 318.766 177.926 325.975 181.758 327.414C190.329 330.634 192.268 329.24 198.808 332.814C203.459 335.356 205.848 340.71 210.459 342.915C215.071 345.119 221.276 345.724 224.209 350.565C235.341 368.937 216.928 371.104 200.843 372.944C198.223 373.243 187.289 352.801 184.408 347.815C179.39 339.129 173.266 330.953 169.607 321.614ZM537.623 346.415C526.238 346.415 524.006 326.567 534.023 322.414C545.976 320.625 537.623 342.254 537.623 346.415ZM570.424 352.015C560.106 347.128 559.149 330.571 565.424 322.414C578.32 331.218 571.206 341.851 570.424 352.015ZM602.626 346.215C599.554 362.051 590.65 332.454 592.025 325.414C595.031 310.017 604.033 338.955 602.626 346.215ZM601.625 321.614C602.492 321.614 605.959 321.614 606.826 321.614C606.826 322.48 606.826 325.947 606.826 326.814C605.959 325.947 602.492 322.48 601.625 321.614ZM612.826 323.414C634.559 347.561 600.17 358.012 609.826 327.614C612.151 323.889 612.151 323.889 612.826 323.414ZM513.222 325.614C519.222 325.614 519.222 325.614 525.222 325.614C524.031 330.318 523.842 340.623 517.864 342.492C514.673 337.615 514.283 331.187 513.222 325.614ZM55.0023 329.814C43.7018 333.714 43.7018 333.714 32.4014 337.614C35.2184 328.224 46.6367 326.938 55.0023 329.814ZM508.022 328.814C507.903 333.781 506.909 339.213 505.021 343.815C502.059 339.435 500.749 334.138 498.821 329.214C504.815 328.669 501.749 328.814 508.022 328.814ZM633.027 335.814C632.118 344.3 624.993 342.906 624.626 334.814C624.04 321.865 633.38 332.516 633.027 335.814ZM379.216 329.214C385.11 333.477 387.15 335.214 394.017 335.214C394.017 336.614 394.017 336.614 394.017 338.014C387.194 338.014 380.227 337.3 379.216 329.214ZM495.621 329.614C490.679 345.674 489.201 350.472 481.62 331.614C490.545 330.22 485.88 330.896 495.621 329.614ZM55.6024 334.014C52.1506 339.997 43.4494 343.435 37.8016 338.414C43.4863 336.249 49.5821 334.828 55.6024 334.014ZM465.22 334.814C471.22 334.814 471.22 334.814 477.22 334.814C475.541 338.867 474.335 343.221 471.82 346.815C469.001 343.291 467.22 338.815 465.22 334.814ZM462.42 337.614C460.892 342.198 459.105 352.696 453.219 354.215C445.396 339.873 446.409 337.614 462.42 337.614ZM199.408 544.623C265.625 536.337 335.771 538.158 397.067 506.821C438.104 485.842 479.666 465.49 518.372 440.469C557.327 415.287 593.298 385.707 629.427 356.615C634.852 352.246 637.548 345.182 642.627 340.414C646.895 336.408 654.99 339.044 659.228 339.614C623.569 364.551 593.285 396.481 558.724 422.918C535.073 441.009 509.759 456.942 483.958 471.807C451.828 490.319 418.422 506.544 385.154 522.922C378.086 526.401 370.643 529.172 363.065 531.322C353.03 534.17 342.826 536.674 332.464 537.873C276.624 544.333 220.331 547.257 164.807 556.024C175.157 549.672 187.359 546.131 199.408 544.623ZM442.019 339.614C440.819 343.256 439.72 346.933 438.419 350.54C434.432 361.586 424.673 345.52 428.818 340.214C438.286 339.375 434.853 339.358 442.019 339.614ZM497.817 339.381C503.295 346.19 505.982 362.086 496.709 366.653C493.293 358.353 485.475 344.826 497.817 339.381ZM68.8029 362.415C68.1745 365.819 65.722 368.965 66.0028 372.416C66.7609 381.729 73.1515 384.246 70.303 393.267C68.2109 399.892 53.1946 405.334 50.7521 406.967C36.3711 416.584 37.7368 419.286 20.4009 419.618C20.4009 381.616 20.4009 381.616 20.4009 343.615C32.9272 348.498 49.0945 344.659 61.4026 340.214C65.46 347.315 70.3815 353.865 68.8029 362.415ZM510.222 339.614C516.46 344.151 521.786 364.415 509.622 364.415C509.348 354.822 504.606 349.722 510.222 339.614ZM528.622 344.415C535.214 356.312 532.453 355.179 530.822 367.616C521.508 364.662 519.482 354.068 521.822 345.215C524.982 339.189 526.745 341.025 528.622 344.415ZM545.823 371.016C532.805 362.67 538.375 354.142 542.223 342.214C552.949 346.028 550.694 363.8 545.823 371.016ZM479.82 341.414C490.254 347.105 486.494 363.759 476.82 368.016C473.046 357.231 472.899 350.931 479.82 341.414ZM416.018 355.215C416.718 352.115 416.718 352.115 417.418 349.015C421.267 338.062 430.739 350.685 416.018 355.215ZM680.029 364.015C673.363 360.149 668.11 351.89 670.028 344.215C685.891 345.685 682.121 354.079 680.029 364.015ZM663.828 359.015C660.199 355.386 653.893 349.949 658.228 345.615C667.805 343.551 669.248 355.763 663.828 359.015ZM467.47 359.715C464.488 367.005 455.488 372.788 455.619 360.615C455.666 356.284 459.766 352.061 461.62 348.015C465.834 338.818 469.558 354.61 467.47 359.715ZM593.438 368.516C580.721 375.348 587.579 350.412 587.625 348.415C587.841 339.022 607.79 360.804 593.438 368.516ZM443.219 375.616C437.035 364.34 433.898 359.458 442.219 348.815C457.052 353.427 448.908 368.142 443.219 375.616ZM562.624 376.816C555.265 372.728 553.33 356.531 557.424 349.415C572.065 349.596 566.862 370.307 562.624 376.816ZM573.624 367.016C572.404 364.755 572.106 362.198 572.087 359.665C572.056 355.676 569.754 349.355 573.424 347.815C587.232 342.021 582.152 382.811 573.624 367.016ZM696.629 361.815C693.972 356.117 686.196 355.898 689.429 347.815C701.116 345.698 698.322 355.468 696.629 361.815ZM603.226 360.015C603.322 354.912 601.759 351.793 605.626 349.215C612.75 353.298 609.155 359.274 603.226 360.015ZM714.43 367.216C707.195 363.598 703.63 360.12 703.63 352.015C716.291 352.015 716.874 355.499 714.43 367.216ZM426.418 352.815C432.614 362.347 432.523 365.911 424.418 374.016C419.699 363.851 420.46 361.752 426.418 352.815ZM651.465 354.027C652.069 358.045 651.729 357.974 648.027 359.615C648.027 355.883 647.52 354.851 651.465 354.027ZM659.828 377.216C654.048 372.881 650.374 364.237 654.228 357.815C663.886 358.737 664.548 371.972 659.828 377.216ZM686.029 356.015C697.946 362.706 695.193 372.39 692.829 384.016C682.828 375.444 682.381 367.48 686.029 356.015ZM349.015 372.016C343.343 372.246 342.678 357.621 347.015 357.015C363.76 354.676 353.848 371.82 349.015 372.016ZM413.718 357.415C415.159 361.379 412.649 373.158 406.255 371.803C401.709 370.841 401.002 364.115 398.817 360.015C408.265 357.792 403.306 358.7 413.718 357.415ZM83.2035 357.215C98.8709 358.282 114.532 359.444 130.206 360.415C133.473 360.618 137.046 359.055 140.406 358.815C137.17 370.544 91.8057 362.07 83.6035 361.015C83.0858 358.427 83.2035 359.695 83.2035 357.215ZM722.831 358.015C727.231 358.615 727.231 358.615 731.631 359.215C728.583 365.625 724.835 364.027 722.831 358.015ZM644.977 377.766C641.633 380.32 633.392 366.392 638.627 361.415C647.535 352.948 650.986 373.177 644.977 377.766ZM676.829 382.016C670.979 377.838 663.589 368.182 667.028 360.615C679.575 361.937 678.005 375.012 676.829 382.016ZM337.114 360.165C341.127 369.05 332.201 378.976 324.014 362.015C332.228 360.599 327.865 361.242 337.114 360.165ZM360.415 360.015C361.111 358.45 371.031 361.628 372.153 363.703C376.529 371.792 367.942 372.472 364.015 366.216C362.745 364.191 359.445 362.199 360.415 360.015ZM741.231 378.416C733.072 375.831 730.31 371.422 732.031 362.815C742.732 362.84 741.082 372.574 741.231 378.416ZM718.418 376.003C717.516 374.437 717.603 371.511 717.63 369.816C717.705 365.191 715.461 364.994 718.43 362.815C730.452 353.992 728.519 393.538 718.418 376.003ZM520.822 361.615C521.737 361.167 521.215 363.631 521.622 364.565C526.048 374.721 529.27 378.204 523.422 388.216C520.041 394.005 512.037 375.15 516.622 367.016C517.742 365.029 518.774 362.619 520.822 361.615ZM392.417 362.015C391.395 365.762 389.783 370.123 385.929 371.641C382.548 366.495 384.124 369.167 381.216 363.615C385.017 362.855 388.545 362.219 392.417 362.015ZM506.421 383.216C501.223 377.267 498.786 374.524 500.621 366.816C512.271 359.267 510.111 378.542 506.421 383.216ZM318.813 363.615C316.781 368.031 314.736 373.078 309.301 373.753C307.849 370.367 306.642 367.853 306.963 364.165C315.341 363.473 311.389 363.615 318.813 363.615ZM473.633 385.829C467.275 397.868 462.468 375.499 466.02 368.416C473.113 354.267 478.787 376.068 473.633 385.829ZM490.021 387.566C480.885 392.486 481.357 369.102 486.421 365.215C493.831 359.528 496.712 383.963 490.021 387.566ZM700.83 363.615C706.76 365.536 719.93 374.117 711.63 382.416C704.001 378.602 700.83 371.907 700.83 363.615ZM533.623 364.015C546.443 369.51 544.681 382.699 543.623 394.017C529.427 388.338 529.521 376.319 533.623 364.015ZM747.632 365.215C748.498 365.215 751.965 365.215 752.832 365.215C752.832 366.082 752.832 369.549 752.832 370.416C751.965 369.549 748.498 366.082 747.632 365.215ZM396.017 366.165C407.221 375.769 401.232 380.371 397.617 391.217C389.349 382.122 386.49 375.216 396.017 366.165ZM299.613 366.416C297.904 370.435 295.184 373.948 292.812 377.616C289.412 372.816 289.412 372.816 286.012 368.016C294.266 366.836 289.736 367.403 299.613 366.416ZM767.532 382.141C766.984 389.451 755.785 375.604 755.632 370.416C755.428 363.485 768.095 374.641 767.532 382.141ZM352.415 380.216C352.491 375.984 351.545 369.584 355.615 368.216C377.152 360.975 351.899 408.953 352.415 380.216ZM560.674 396.117C560.34 396.566 559.576 396.501 559.024 396.417C548.776 394.864 546.524 378.886 549.623 372.016C554.702 360.758 565.81 389.199 560.674 396.117ZM343.215 368.016C343.215 378.372 345.146 380.08 339.014 389.416C329.785 382.495 333 370.934 343.215 368.016ZM450.607 390.017C445.117 381.106 443.164 376.241 452.019 369.416C465.607 367.304 451.322 388.935 450.607 390.017ZM326.489 381.179C325.113 385.994 314.063 393.088 312.663 384.966C311.215 376.567 314.99 375.89 318.213 370.016C321.792 363.494 327.628 377.192 326.489 381.179ZM421.018 385.416C415.946 395.561 407.497 379.751 412.017 372.816C419.072 361.992 424.422 378.608 421.018 385.416ZM438.219 383.616C432.296 396.247 426.479 380.641 430.018 373.416C435.058 363.126 440.949 377.794 438.219 383.616ZM378.716 385.316C372.12 392.453 368.048 376.823 374.616 371.216C381.989 364.92 383.294 380.364 378.716 385.316ZM576.587 380.366C576.009 386.976 564.791 397.724 567.424 377.816C569.228 364.178 577.272 372.542 576.587 380.366ZM752.432 392.017C742.545 388.975 740.912 381.47 743.031 371.816C754.963 374.788 752.601 383.986 752.432 392.017ZM303.463 387.366C294.389 395.824 289.335 380.142 298.613 373.016C307.715 366.024 309.324 381.903 303.463 387.366ZM585.625 371.616C584.973 374.586 583.598 376.084 581.625 378.416C581.782 373.117 581.095 372.851 585.625 371.616ZM656.028 398.017C648.771 395.771 642.97 375.648 650.628 372.216C658.109 381.502 657.955 388.379 656.028 398.017ZM771.233 371.616C776.051 373.543 777.285 374.8 777.633 380.016C773.815 378.963 772.531 374.991 771.233 371.616ZM630.827 373.616C627.827 375.016 627.827 375.016 624.826 376.416C626.269 373.171 627.368 372.673 630.827 373.616ZM641.927 395.979C640.403 398.347 638.477 398.107 636.527 396.417C628.225 389.222 629.777 384.556 632.627 375.616C635.378 366.987 646.666 388.617 641.927 395.979ZM286.412 384.816C284.412 384.816 284.412 384.816 282.412 384.816C282.935 372.779 287.422 375.476 286.412 384.816ZM673.228 398.417C669.271 392.646 662.609 386.154 663.628 378.616C675.755 379.011 674.681 390.134 673.228 398.417ZM683.629 376.816C689.399 385.915 691.991 388.233 690.029 399.217C682.654 395.05 675.214 383.548 683.629 376.816ZM623.226 394.017C617.713 390.709 615.415 386.196 618.426 380.016C628.375 380.42 625.009 389.25 623.226 394.017ZM709.018 387.029C710.326 390.592 708.434 397.785 708.03 401.217C700.145 398.35 696.005 392.665 696.829 384.416C699.939 374.504 707.354 382.502 709.018 387.029ZM737.631 396.017C733.136 392.071 728.286 388.631 728.631 382.216C739.388 376.23 741.614 390.042 737.631 396.017ZM771.233 379.216C779.142 383.846 777.511 387.909 777.233 396.817C770.805 391.996 770.889 386.771 771.233 379.216ZM221.209 380.016C225.875 380.44 226.755 379.521 227.21 383.616C222.267 383.466 221.643 384.356 221.209 380.016ZM718.43 382.016C724.469 384.949 725.536 391.85 724.356 398.117C723.965 400.193 721.706 399.042 720.831 398.617C715.111 395.839 713.622 387.471 715.03 382.216C715.666 379.845 715.23 380.462 718.43 382.016ZM496.821 382.816C507.107 390.071 501.221 395.191 501.221 406.017C488.796 403.118 493.403 390.584 496.821 382.816ZM346.815 406.417C342.364 397.515 338.897 392.283 346.015 384.216C356.444 388.969 353.589 400.61 346.815 406.417ZM406.017 383.216C412.153 392.858 418.208 399.308 405.817 406.817C397.623 397.804 399.75 392.376 406.017 383.216ZM486.221 400.567C482.013 417.924 470.37 400.42 474.02 390.017C479.142 375.416 488.376 391.678 486.221 400.567ZM90.2538 391.367C98.8584 390.81 109.067 390.722 117.792 389.429C126.117 388.195 135.51 384.16 144.006 384.016C129.616 399.592 104.093 396.105 85.2036 396.817C85.8167 393.027 86.1603 391.632 90.2538 391.367ZM211.409 396.817C207.416 394.155 205.457 389.943 205.796 385.191C218.343 382.868 218.344 391.037 211.409 396.817ZM366.015 383.616C375.335 389.547 372.49 396.525 365.615 403.017C360.777 396.2 359.191 389.847 366.015 383.616ZM756.832 384.416C771.541 387.263 768.103 397.054 766.832 407.217C756.003 404.937 754.715 393.59 756.832 384.416ZM325.814 406.617C315.164 408.802 320.826 388.927 326.614 385.816C336.529 380.488 336.882 404.347 325.814 406.617ZM392.017 400.317C385.05 413.254 376.843 393.911 381.616 386.816C386.586 379.43 394.859 395.039 392.017 400.317ZM424.618 406.017C418.951 400.08 417.414 392.207 423.218 386.016C434.615 390.666 430.925 399.205 424.618 406.017ZM461.407 409.405C453.445 405.455 452.475 392.561 457.619 386.416C472.156 383.814 464.881 404.401 461.407 409.405ZM539.223 403.217C534.027 398.521 528.944 395.391 525.958 389.366C535.982 386.711 538.364 396.35 539.223 403.217ZM272.412 386.816C274.212 386.816 274.212 386.816 276.012 386.816C276.012 388.816 276.012 388.816 276.012 390.817C274.203 389.611 273.554 388.644 272.412 386.816ZM307.813 403.817C298.567 410.027 300.492 395.598 304.213 391.617C315.059 380.011 315.151 398.888 307.813 403.817ZM229.81 400.017C225.579 397.974 224.327 394.647 225.61 390.217C233.002 389.547 230.213 393.828 229.81 400.017ZM285.387 405.905C283.591 400.707 282.953 392.328 288.212 389.016C295.613 395.318 294.658 403.673 285.387 405.905ZM447.369 397.467C445.762 411.773 432.561 399.976 437.619 390.017C440.296 384.744 447.894 392.794 447.369 397.467ZM620.976 409.917C619.733 417.876 613.658 409.54 612.526 406.38C610.974 402.047 611.646 397.419 612.426 393.017C614.244 382.756 621.894 404.044 620.976 409.917ZM548.759 390.588C551.87 395.017 552.042 400.267 553.223 405.617C541.89 405.986 541.445 397.576 548.759 390.588ZM608.826 390.417C608.326 392.717 608.326 392.717 607.826 395.017C605.529 393.486 606.348 394.462 605.226 392.217C607.203 390.522 606.033 391.178 608.826 390.417ZM752.832 409.217C747.443 407.145 738.912 401.883 742.431 395.017C753.038 390.235 754.884 403.574 752.832 409.217ZM637.227 416.818C630.91 414.111 620.448 399.149 628.827 393.817C639.272 406.147 639.059 404.255 637.227 416.818ZM736.381 412.217C730.297 420.151 723.591 398.902 727.031 395.417C734.844 387.498 741.346 405.744 736.381 412.217ZM662.341 394.317C671.671 400.728 671.389 408.265 669.228 418.018C660.27 409.592 652.933 404.427 662.341 394.317ZM655.478 415.518C651.063 422.91 640.602 406.418 644.827 398.417C648.536 391.393 658.819 409.922 655.478 415.518ZM722.331 409.317C719.533 413.794 712.082 415.566 708.03 419.618C709.904 415.208 709.965 414.364 714.03 412.417C699.322 386.838 728.681 399.157 722.331 409.317ZM704.03 418.818C697.045 413.873 690.959 406.356 694.229 397.417C702.872 398.295 708.718 411.317 704.03 418.818ZM503.221 419.218C499.509 412.536 502.773 404.163 505.021 397.417C515.268 402.614 508.018 413.866 503.221 419.218ZM686.829 416.818C681.19 414.387 676.588 405.975 676.629 399.817C688.637 396.559 688.306 409.434 686.829 416.818ZM217.009 408.417C214.231 401.698 212.859 403.162 215.209 399.617C226.068 383.235 225.315 428.505 217.009 408.417ZM385.016 411.017C384.809 414.994 379.287 420.946 376.616 423.618C368.776 417.738 366.465 409.111 371.416 401.217C377.416 397.062 385.267 406.209 385.016 411.017ZM603.626 418.818C595.306 417.469 589.267 406.709 596.825 400.817C611.667 398.614 603.626 412.7 603.626 418.818ZM770.833 399.617C779.863 401.259 777.633 409.032 777.633 416.818C770.108 414.309 771.267 406.346 770.833 399.617ZM358.815 400.417C362.252 408.819 361.125 413.745 354.015 420.018C348.212 408.638 350.125 409.485 358.815 400.417ZM317.013 421.418C308.393 428.132 304.521 408.579 314.013 402.417C322.389 396.979 323.554 416.324 317.013 421.418ZM414.818 423.218C409.346 415.01 404.796 409.874 413.618 402.817C423.986 408.63 419.223 415.876 414.818 423.218ZM298.363 416.218C291.196 424.818 287.561 409.234 294.012 403.217C301.052 396.652 301.633 412.293 298.363 416.218ZM340.014 402.017C341.738 412.936 343.818 417.878 332.414 424.018C328.313 415.304 328.006 404.36 340.014 402.017ZM435.618 402.217C439.895 410.159 439.855 415.421 432.818 422.018C429.947 416.07 424.174 404.063 435.618 402.217ZM492.071 421.918C481.943 430.716 482.744 406.608 487.221 402.817C493.587 397.426 497.409 417.281 492.071 421.918ZM470.42 428.418C465.062 417.702 460.898 414.644 467.62 405.617C482.014 404.017 474.469 423.79 470.42 428.418ZM456.569 420.268C451.049 432.366 442.385 414.82 446.219 408.017C451.915 397.912 459.439 413.98 456.569 420.268ZM395.617 421.418C386.161 423.213 391.529 405.202 395.417 404.817C403.201 404.047 403.875 419.85 395.617 421.418ZM541.023 405.617C545.539 408.491 545.721 411.18 540.423 413.217C540.723 409.417 540.723 409.417 541.023 405.617ZM234.01 406.017C238.288 407.443 238.96 410.19 239.61 414.418C234.511 413.96 234.868 410.521 234.01 406.017ZM752.432 426.018C746.346 422.698 733.146 414.957 743.631 407.617C750.387 415.408 752.805 417.055 752.432 426.018ZM768.033 421.218C761.745 419.232 753.907 416.661 756.832 408.617C766.934 408.845 767.536 414.194 768.033 421.218ZM631.677 430.918C627.157 437.2 616.514 419.86 624.626 410.617C629.38 405.201 636.037 424.858 631.677 430.918ZM588.025 409.617C587.233 413.381 586.756 416.253 583.825 418.818C578.254 414.64 583.094 410.674 588.025 409.617ZM610.226 409.617C629.445 430.315 600.464 445.703 607.226 418.218C609.701 410.692 609.701 410.692 610.226 409.617ZM197.608 410.017C200.481 412.434 203.019 415.362 197.608 416.018C197.608 413.017 197.608 413.017 197.608 410.017ZM230.61 427.106C223.134 428.881 223.167 415.623 226.61 412.617C234.589 405.651 236.546 425.696 230.61 427.106ZM665.128 434.856C656.345 435.189 652.964 420.106 657.228 414.218C666.817 419.114 667.586 425.947 665.128 434.856ZM367.016 436.818C360.795 441.942 354.761 423.141 362.615 415.818C370.734 408.248 375.991 429.427 367.016 436.818ZM702.105 425.693C703.814 431.135 687.286 431.718 690.629 417.018C692.892 407.068 701.118 422.551 702.105 425.693ZM725.231 413.217C728.67 415.32 732.599 416.965 735.231 420.018C730.396 418.724 728.33 417.091 725.231 413.217ZM601.275 428.318C595.358 447.371 584.837 430.878 587.825 419.418C591.201 406.468 602.712 423.693 601.275 428.318ZM683.391 432.656C682.719 434.395 681.119 433.593 680.016 433.118C673.352 430.252 670.324 421.877 673.228 416.218C678.424 406.097 685.453 427.323 683.391 432.656ZM529.135 414.205C531.377 417.941 530.416 416.002 532.023 420.018C528.571 417.097 530.173 418.67 527.21 415.305C528.172 414.755 528.172 414.755 529.135 414.205ZM650.028 434.018C643.454 430.732 637.89 424.528 640.827 416.818C652.132 417.646 651.042 426.915 650.028 434.018ZM342.727 436.881C334.977 431.548 338.391 425.154 343.015 418.218C358.044 413.063 345.376 434.581 342.727 436.881ZM158.007 426.018C169.21 424.563 179.055 418.63 190.008 416.418C176.133 441.084 124.576 440.529 99.8042 440.719C73.337 440.921 46.8686 440.519 20.4009 440.419C20.7009 433.318 20.7009 433.318 21.0009 426.218C66.7307 423.505 112.524 431.925 158.007 426.018ZM578.737 438.281C571.7 437.519 572.131 424.746 574.624 420.018C588.273 416.265 580.087 434.686 578.737 438.281ZM310.013 430.918C306.524 442.256 295.833 430.364 299.813 420.818C303.9 411.013 311.895 424.801 310.013 430.918ZM423.618 440.419C418.658 431.254 416.213 427.632 422.618 419.018C434.266 423.648 429.561 433.484 423.618 440.419ZM287.612 418.018C291.074 421.48 292.474 423.844 288.012 426.818C287.812 422.418 287.812 422.418 287.612 418.018ZM770.833 418.018C777.947 420.11 777.633 422.83 777.633 430.018C771.51 428.181 770.833 423.792 770.833 418.018ZM327.964 421.268C335.385 430.809 330.993 437.536 320.414 442.419C316.802 433.647 316.307 428.648 322.614 421.418C326.405 420.018 326.724 419.673 327.964 421.268ZM386.966 438.019C377.238 445.239 379.067 425.346 384.016 420.818C392.582 412.98 392.991 433.547 386.966 438.019ZM444.881 440.256C439.21 442.808 435.302 424.198 439.819 420.618C446.924 414.985 452.578 436.793 444.881 440.256ZM520.022 420.418C524.762 422.537 523.357 421.065 525.222 423.618C522.622 423.618 522.622 423.618 520.022 423.618C520.022 422.018 520.022 422.018 520.022 420.418ZM755.632 420.418C764.917 423.275 768.033 426.009 768.033 435.618C757.204 433.909 756.023 430.976 755.632 420.418ZM407.442 435.431C401.126 443.97 397.041 426.832 400.817 422.818C407.888 415.3 411.448 430.015 407.442 435.431ZM478.42 420.818C481.275 422.94 479.975 421.561 482.02 425.218C479.42 425.218 479.42 425.218 476.82 425.218C477.62 423.018 477.62 423.018 478.42 420.818ZM208.009 429.818C207.335 438.871 196.576 439.18 200.208 425.018C202.212 417.206 208.364 425.05 208.009 429.818ZM465.22 432.818C460.419 433.618 460.419 433.618 455.619 434.418C456.555 423.186 460.733 411.802 465.22 432.818ZM242.81 422.018C246.401 422.467 246.032 424.174 247.61 427.218C244.052 425.547 243.851 425.486 242.81 422.018ZM729.631 422.818C728.474 427.158 725.894 428.489 726.681 433.368C728.164 442.563 736.401 451.071 732.031 460.82C728.386 454.669 716.604 425.713 729.631 422.818ZM738.831 422.818C747.236 427.02 753.399 431.572 749.632 441.619C740.715 438.316 734.609 433.374 738.831 422.818ZM565.924 441.069C563.911 443.252 553.4 433.672 562.224 427.418C571.546 420.812 570.239 436.388 565.924 441.069ZM515.622 426.418C515.622 428.018 515.622 428.018 515.622 429.618C513.51 429.09 511.769 428.728 510.022 427.418C512.822 426.918 512.822 426.918 515.622 426.418ZM237.46 440.369C229.358 444.206 229.492 430.257 235.61 428.218C242.714 425.851 242.976 437.756 237.46 440.369ZM638.54 428.643C646.529 430.396 648.199 443.549 644.827 449.619C635.304 442.524 631.949 439.05 638.54 428.643ZM629.089 444.906C625.934 465.272 612.696 450.881 616.226 435.818C619.402 422.265 630.317 436.983 629.089 444.906ZM686.429 441.619C686.629 438.619 686.629 438.619 686.829 435.618C690.013 425.093 701.906 437.398 686.429 441.619ZM299.638 445.431C292.365 445.185 289.618 438.572 291.812 431.818C301.661 430.643 301.069 439.796 299.638 445.431ZM654.428 430.818C662.732 437.206 663.99 440.669 662.428 450.819C654.588 446.463 648.753 438.925 654.428 430.818ZM192.808 431.618C192.077 446.782 187.814 450.932 176.957 464.67C166.391 478.04 158.475 494.42 140.643 496.459C126.605 498.063 112.44 498.398 98.4042 500.021C82.1538 501.901 73.2572 508.344 60.015 500.746C32.0145 484.68 84.2848 448.86 99.7167 446.872C124.679 443.657 156.541 445.493 180.008 434.618C189.783 431.712 189.783 431.712 192.808 431.618ZM776.433 445.419C771.959 444.269 770.044 440.534 770.233 436.218C778.376 427.998 777.897 442.073 776.433 445.419ZM589.625 457.219C579.892 454.3 579.815 444.676 582.625 436.018C596.812 427.938 590.214 454.469 589.625 457.219ZM602.876 452.819C600.354 446.095 597.467 442.719 600.425 435.618C612.414 433.219 612.435 452.006 602.876 452.819ZM678.829 449.619C673.498 456.099 667.241 438.414 670.828 434.418C677.134 427.394 683.362 444.108 678.829 449.619ZM355.615 432.818C361.21 439.178 362.577 446.75 355.865 452.219C347.947 458.671 343.584 441.222 353.215 434.218C353.964 433.674 355.003 432.123 355.615 432.818ZM378.566 448.869C373.995 454.659 366.229 452.742 366.816 443.219C367.024 439.823 371.616 436.783 374.216 434.418C378.469 430.549 381.741 444.848 378.566 448.869ZM756.232 434.018C766.782 440.047 766.835 442.992 763.432 454.219C754.025 451.488 749.405 441.466 756.232 434.018ZM395.017 455.019C387.666 457.469 382.676 438.964 393.217 435.218C403.04 431.728 403.182 452.298 395.017 455.019ZM558.624 447.819C554.441 446.47 549.861 441.003 550.423 436.618C558.024 436.004 561.841 442.303 558.624 447.819ZM211.209 434.818C216.059 438.797 216.377 439.269 218.009 444.819C209.845 445.708 211.209 441.864 211.209 434.818ZM333.264 450.819C324.708 457.589 327.029 439.339 333.214 435.818C341.842 430.908 337.167 447.731 333.264 450.819ZM414.018 456.019C408.08 448.579 407.148 443.222 413.217 435.418C422.688 442.833 420.53 448.915 414.018 456.019ZM434.631 458.182C428.316 454.09 427.409 446.354 429.818 440.019C445.418 435.852 438.271 453.17 434.631 458.182ZM495.621 436.018C498.296 437.081 498.296 437.081 500.971 438.144C498.896 439.281 498.896 439.281 496.821 440.419C496.221 438.219 496.221 438.219 495.621 436.018ZM318.213 450.619C313.401 456.361 305.242 441.596 309.613 437.819C315.255 432.943 322.262 445.789 318.213 450.619ZM464.77 438.094C465.372 442.007 465.22 440.032 465.22 444.019C460.603 443.784 460.847 443.21 461.607 438.606C463.188 438.35 463.188 438.35 464.77 438.094ZM475.22 437.619C481.62 438.019 481.62 438.019 488.021 438.419C484.012 448.986 478.055 446.833 475.22 437.619ZM575.624 457.619C571.442 453.247 562.047 443.603 570.424 438.019C576.604 443.573 579.194 451.101 575.624 457.619ZM455.519 456.919C450 458.575 442.142 439.976 452.419 438.019C452.419 440.019 452.419 440.019 452.419 442.019C462.25 438.432 463.623 454.488 455.519 456.919ZM208.409 439.219C208.776 447.551 212.031 452.658 202.409 455.619C201.617 448.497 200.968 442.691 208.409 439.219ZM476.53 454.527C466.995 462.339 463.585 447.987 469.82 442.419C475.328 437.499 480.275 451.459 476.53 454.527ZM246.51 441.419C253.811 460.192 230.092 452.699 241.61 443.619C245.61 441.469 245.61 441.469 246.51 441.419ZM747.532 453.357C746.519 464.878 740.098 456.409 740.631 447.819C741.27 437.533 748.031 447.672 747.532 453.357ZM686.429 445.219C686.015 448.949 685.084 450.362 681.229 451.219C682.521 446.42 681.867 445.219 686.429 445.219ZM278.812 446.019C278.462 449.164 276.865 449.563 274.012 450.419C275.475 446.787 275.176 446.019 278.812 446.019ZM657.628 462.42C650.169 460.698 646.095 454.445 649.627 447.219C659.519 446.384 657.807 457.003 657.628 462.42ZM308.013 451.219C302.899 448.773 304.01 450.611 302.813 447.419C307.095 449.208 305.424 447.86 308.013 451.219ZM347.015 465.37C340.905 469.055 325.577 451.837 342.615 446.819C348.695 445.028 351.875 462.438 347.015 465.37ZM20.4009 446.819C25.4011 446.819 25.4011 446.819 30.4013 446.819C28.9028 451.178 24.3571 453.124 20.4009 454.819C20.4009 450.819 20.4009 450.819 20.4009 446.819ZM197.796 447.281C203.419 457.194 199.12 462.609 191.608 469.22C191.369 459.903 189.171 452.406 197.796 447.281ZM636.027 448.019C630.866 452.246 633.254 451.246 629.627 452.419C630.682 448.199 631.731 447.689 636.027 448.019ZM676.229 458.819C675.127 469.84 662.157 463.26 665.228 451.219C667.56 442.077 676.81 453.008 676.229 458.819ZM767.632 456.419C767.998 449.16 766.555 451.451 769.033 448.419C772.396 452.833 770.641 454.7 767.632 456.419ZM219.609 461.62C219.006 457.548 218.021 453.66 219.009 449.619C226.203 452.336 226.746 460.192 219.609 461.62ZM384.216 473.62C376.541 467.651 375.126 459.549 380.016 451.819C394.529 447.729 388.492 469.15 384.216 473.62ZM614.426 449.619C617.058 453.238 617.251 458.556 618.026 462.82C613.026 462.82 613.026 462.82 608.026 462.82C608.629 457.348 608.557 451.845 614.426 449.619ZM369.616 454.419C366.052 474.02 354.847 469.837 359.815 451.619C366.135 450.186 365.95 452.979 369.616 454.419ZM405.217 472.82C398.403 474.872 393.74 456.509 404.017 451.219C414.064 446.048 415.028 469.866 405.217 472.82ZM449.819 468.62C439.195 478.288 434.116 460.506 442.019 453.219C448.401 447.334 454.355 464.492 449.819 468.62ZM603.626 463.62C598.225 463.22 598.225 463.22 592.825 462.82C595.629 446.558 603.626 449.164 603.626 463.62ZM759.632 471.62C751.174 467.391 747.294 463.557 750.632 454.019C763.945 447.289 761.8 466.47 759.632 471.62ZM320.814 451.619C324.07 451.89 326.044 451.744 327.451 454.894C323.607 455.722 322.281 455.288 320.814 451.619ZM424.818 451.619C429.695 458.122 433.833 470.112 424.418 474.82C416.436 467.134 415.279 457.751 424.818 451.619ZM776.833 452.219C781.46 470.308 761.922 484.64 747.632 491.221C750.376 482.074 769.426 460.299 776.833 452.219ZM540.023 461.02C543.812 467.951 536.383 477.527 530.022 461.42C523.134 443.978 537.453 456.318 540.023 461.02ZM252.811 453.619C255.411 456.619 255.411 456.619 258.011 459.619C253.853 457.567 253.559 457.737 252.811 453.619ZM700.43 454.019C705.851 454.297 706.31 458.019 712.43 458.019C710.53 462.295 704.36 460.82 700.43 460.82C700.43 457.419 700.43 457.419 700.43 454.019ZM458.819 463.62C459.77 456.684 458.218 458.918 461.22 455.819C472.362 454.653 460.573 462.831 458.819 463.62ZM572.024 465.22C567.49 463.6 565.143 460.91 563.824 456.219C570.092 453.94 571.819 460.364 572.024 465.22ZM208.009 474.22C199.128 477.073 209.101 455.757 211.409 455.619C222.47 454.961 214.786 472.043 208.009 474.22ZM578.937 455.919C584.653 455.919 584.473 460.738 584.825 465.22C580.825 465.22 580.825 465.22 576.824 465.22C577.881 458.878 577.17 461.977 578.937 455.919ZM516.584 459.682C517.409 460.507 517.409 460.507 518.234 461.332C515.328 462.276 515.328 462.276 512.422 463.22C514.85 460.521 513.47 461.709 516.584 459.682ZM744.794 467.107C743.929 475.275 734.596 477.453 737.231 466.42C739.953 455.025 745.212 463.164 744.794 467.107ZM527.122 485.308C522.182 487.592 512.7 469.842 520.822 463.02C528.352 456.694 539.649 479.517 527.122 485.308ZM188.908 462.27C190.615 469.382 191.849 477.249 183.208 478.82C183.208 471.311 182.78 467.005 188.908 462.27ZM664.428 462.82C664.428 464.82 664.428 464.82 664.428 466.82C662.428 466.82 662.428 466.82 660.428 466.82C661.898 462.316 660.353 463.397 664.428 462.82ZM232.41 474.42C232.675 476.394 225.196 478.506 224.409 478.82C222.814 474.034 221.742 469.192 224.409 464.62C230.48 463.727 231.855 470.286 232.41 474.42ZM374.416 464.02C374.63 469.506 378.924 471.824 379.216 476.62C380.098 491.08 357.406 479.359 368.816 468.02C373.466 464.52 373.466 464.52 374.416 464.02ZM352.015 482.02C343.105 486.007 345.756 469.209 352.015 466.42C360.344 462.708 358.003 479.341 352.015 482.02ZM394.417 465.57C396.361 469.64 400.091 473.067 401.367 477.32C406.662 494.972 377.161 492.89 390.217 470.62C393.642 466.07 393.642 466.07 394.417 465.57ZM508.822 479.62C503.985 477.202 497.66 470.655 503.621 466.42C514.724 464.158 511.134 474.996 508.822 479.62ZM653.828 473.72C649.468 474.513 646.56 472.605 645.027 468.62C648.32 469.389 654.29 469.185 653.828 473.72ZM192.408 489.221C192.576 480.202 192.721 474.097 200.008 468.22C207.14 476.17 202.033 487.296 192.408 489.221ZM417.918 487.121C407.8 493.444 406.928 473.998 414.618 470.02C422.488 465.948 424.473 483.023 417.918 487.121ZM744.031 480.42C746.265 472.883 745.078 475.815 747.032 471.42C760.066 469.06 752.243 478.595 744.031 480.42ZM428.418 480.42C428.075 476.384 428.875 472.924 432.818 471.02C438.885 476.859 432.098 478.581 428.418 480.42ZM541.473 480.27C540.815 477.236 537.998 471.971 541.023 471.22C557.474 467.135 545.01 496.586 541.473 480.27ZM622.826 470.82C627.03 472.221 630.095 476.855 632.827 480.02C626.357 478.589 624.113 477.255 622.826 470.82ZM219.509 487.871C206.5 504.132 203.917 483.651 213.009 473.82C221.937 464.166 224.585 481.526 219.509 487.871ZM634.827 472.02C639.003 473.67 640.221 473.88 641.627 478.02C637.183 476.073 636.649 476.028 634.827 472.02ZM499.571 493.971C494.026 499.372 486.545 480.426 494.421 474.22C503.104 467.378 506.385 487.334 499.571 493.971ZM173.382 493.658C162.97 497.957 170.163 475.907 175.407 474.62C183.545 472.623 179.958 490.943 173.382 493.658ZM612.026 474.82C614.226 477.62 614.226 477.62 616.426 480.42C613.252 479.098 612.752 478.088 612.026 474.82ZM735.556 490.871C728.722 489.485 730.479 478.334 734.831 476.62C742.556 473.579 738.648 491.497 735.556 490.871ZM682.429 476.42C685.485 478.087 686.741 481.906 688.567 484.871C694.281 494.146 703.57 490.719 712.43 488.421C700.786 502.975 683.983 492.739 682.429 476.42ZM604.426 481.62C601.525 480.42 601.525 480.42 598.625 479.22C602.293 477.941 600.201 477.974 604.426 481.62ZM522.76 497.821C515.619 505.052 507.091 486.092 511.222 480.42C515.962 473.911 529.767 490.725 522.76 497.821ZM232.01 497.621C230.966 492.056 229.067 486.722 232.61 481.82C240.451 477.001 242.958 494.336 232.01 497.621ZM364.415 482.82C361.215 482.12 361.215 482.12 358.015 481.42C360.666 480.485 363.993 478.905 364.415 482.82ZM479.77 493.321C476.019 495.822 468.117 483.571 480.82 481.02C488.838 479.411 484.323 490.286 479.77 493.321ZM536.623 504.221C530.348 498.395 528.176 487.527 535.223 481.42C546.385 486.324 543.601 498.089 536.623 504.221ZM270.411 481.22C264.561 498.188 253.472 490.654 257.611 482.62C263.418 481.125 266.926 481.257 270.411 481.22ZM277.612 481.22C284.185 481.22 288.14 483.69 292.412 488.621C286.241 493.91 279.28 487.336 277.612 481.22ZM387.216 490.421C383.016 487.421 383.016 487.421 378.816 484.421C384.703 480.741 385.676 484.706 387.216 490.421ZM664.428 482.82C666.028 485.421 666.028 485.421 667.628 488.021C664.028 487.768 664.176 486.096 664.428 482.82ZM398.817 494.021C400.497 490.66 401.762 487.69 404.617 485.221C412.112 491.413 404.437 494.021 398.817 494.021ZM558.024 501.221C551.335 498.673 548.24 496.863 550.423 489.221C558.222 490.838 558.334 495.008 558.024 501.221ZM227.41 505.421C225.377 508.881 221.323 511.934 218.559 514.609C212.038 520.921 211.159 507.053 211.209 504.421C211.339 497.503 214.955 493.573 220.609 490.221C228.637 485.461 230.608 499.977 227.41 505.421ZM474.82 502.021C466.566 518.933 457.928 504.812 463.02 493.221C467.571 482.86 478.543 494.393 474.82 502.021ZM677.629 488.421C695.937 499.406 688.3 497.83 709.03 500.421C701.252 513.384 680.016 499.165 677.629 488.421ZM204.659 489.021C205.521 501.569 206.412 507.228 194.408 511.622C194.675 504.088 192.964 489.021 204.659 489.021ZM460.857 490.783C461.545 491.471 461.545 491.471 462.232 492.158C459.326 493.49 459.326 493.49 456.419 494.821C459.104 491.868 457.628 493.217 460.857 490.783ZM490.821 490.421C491.275 494.055 494.213 496.187 494.021 500.221C493.451 512.185 474.101 503.795 485.821 492.621C489.877 490.49 489.877 490.49 490.821 490.421ZM164.807 491.221C164.807 500.917 160.256 509.46 150.006 510.022C150.802 502.068 156.104 492.074 164.807 491.221ZM512.022 514.422C504.716 508.577 497.435 501.653 504.421 493.221C518.063 495.662 516.523 506.652 512.022 514.422ZM731.231 492.021C726.619 496.876 728.782 494.774 724.831 498.421C726.646 494.054 726.884 493.47 731.231 492.021ZM442.019 497.621C444.173 497.406 445.828 497.082 447.819 496.221C460.8 496.654 444.769 519.621 442.019 497.621ZM611.626 495.221C612.226 495.954 614.626 498.888 615.226 499.621C614.626 499.621 612.226 499.621 611.626 499.621C611.626 498.888 611.626 495.954 611.626 495.221ZM246.21 508.822C235.622 519.318 230.224 504.688 238.41 497.421C244.586 491.938 251.462 503.616 246.21 508.822ZM777.633 496.421C777.433 502.821 777.433 502.821 777.233 509.222C764.934 503.054 762.975 497.571 777.633 496.421ZM648.827 498.021C650.29 499.623 650.659 501.136 651.228 503.221C648.911 501.522 647.765 500.853 648.827 498.021ZM312.413 497.821C313.413 501.721 313.413 501.721 314.413 505.621C310.701 504.609 306.743 500.251 312.413 497.821ZM604.826 497.621C605.026 501.221 605.026 501.221 605.226 504.821C600.257 503.292 601.214 500.029 604.826 497.621ZM534.473 515.872C532.135 518.157 513.018 504.766 526.222 498.621C532.797 495.561 539.443 511.012 534.473 515.872ZM659.228 498.821C659.961 499.688 662.895 503.155 663.628 504.021C662.561 503.488 658.295 501.355 657.228 500.821C657.561 500.488 658.895 499.154 659.228 498.821ZM672.428 499.221C673.028 499.821 675.429 502.221 676.029 502.821C675.429 502.821 673.028 502.821 672.428 502.821C672.428 502.221 672.428 499.821 672.428 499.221ZM550.123 515.472C542.044 519.107 539.019 502.653 544.823 500.221C552.04 497.198 557.862 511.989 550.123 515.472ZM169.407 500.821C169.803 499.608 173.32 500.599 173.457 500.621C171.684 511.206 172.866 513.212 164.807 519.222C166.34 513.088 167.446 506.832 169.407 500.821ZM270.411 500.021C274.442 500.917 277.612 500.962 277.612 505.621C272.298 504.267 271.963 504.675 270.411 500.021ZM326.414 502.221C323.24 508.495 321.038 514.88 314.013 517.222C315.608 510.844 320.055 504.553 326.414 502.221ZM761.232 502.421C762.639 502.814 760.623 512.39 759.645 513.434C758.349 514.818 733.594 510.605 752.632 504.421C755.431 503.512 758.397 501.63 761.232 502.421ZM568.824 514.822C561.827 513.605 557.931 512.633 559.024 504.621C565.71 505.013 566.518 509.748 568.824 514.822ZM441.819 521.022C434.699 529.542 424.757 514.625 434.018 505.421C441.051 498.433 446.468 515.459 441.819 521.022ZM25.0136 521.547C32.7151 520.201 40.5482 519.617 48.202 518.022C81.5516 511.071 109.57 504.432 143.606 503.621C138.248 516.346 118.596 512.727 109.105 514.159C79.306 518.655 50.1319 525.416 20.4009 530.022C20.7859 525.459 19.9917 522.425 25.0136 521.547ZM337.614 503.621C333.876 509.173 331.041 514.841 324.014 515.622C327.709 509.203 329.91 504.584 337.614 503.621ZM629.627 508.822C627.227 506.721 627.227 506.721 624.826 504.621C627.856 505.379 628.059 506.209 629.627 508.822ZM360.215 505.146C359.033 508.841 355.852 508.022 352.415 508.022C354.13 504.162 356.31 504.463 360.215 505.146ZM462.42 522.572C455.227 529.964 447.217 513.901 455.019 506.221C461.029 500.306 467.555 517.294 462.42 522.572ZM479.62 506.221C488.147 514.318 484.99 520.771 476.77 528.897C466.661 522.288 471.478 514.616 476.02 506.621C478.58 505.151 478.17 504.844 479.62 506.221ZM294.412 505.221C298.016 505.659 297.181 509.161 297.013 512.022C294.198 510.263 294.412 508.39 294.412 505.221ZM585.625 505.621C585.707 508.41 584.614 509.727 583.025 512.022C582.824 507.603 582.165 507.351 585.625 505.621ZM606.826 505.621C608.426 509.022 608.426 509.022 610.026 512.422C607.155 510.189 607.081 509.2 606.826 505.621ZM504.021 526.522C496.496 532.375 488.413 515.609 493.821 509.822C501.268 501.852 510.922 521.155 504.021 526.522ZM776.833 523.022C773.733 530.321 759.676 520.169 764.032 509.822C767.512 501.557 779.802 516.03 776.833 523.022ZM618.826 514.422C614.367 512.688 614.304 512.386 616.226 508.222C617.604 510.151 617.678 512.207 618.826 514.422ZM304.413 507.621C308.007 508.131 307.566 512.644 308.013 515.622C303.486 514.703 304.413 511.699 304.413 507.621ZM162.807 508.422C160.597 521.05 159.194 523.996 146.806 526.822C147.759 515.388 153.366 513.457 162.807 508.422ZM646.427 508.822C647.227 509.688 650.428 513.155 651.228 514.022C650.428 514.022 647.227 514.022 646.427 514.022C646.427 513.155 646.427 509.688 646.427 508.822ZM601.225 509.222C600.198 511.618 599.797 513.055 597.625 514.422C597.625 510.689 597.333 510.135 601.225 509.222ZM211.209 522.822C203.452 522.822 193.095 516.727 203.809 510.222C211.783 509.822 210.616 518.366 211.209 522.822ZM219.609 521.222C220.48 516.724 222.994 512.926 226.81 510.422C241.698 514.537 223.586 521.098 219.609 521.222ZM525.422 529.022C517.916 534.837 510.467 518.32 516.822 512.422C523.899 505.854 533.533 522.739 525.422 529.022ZM183.608 511.622C188.051 512.928 190.078 515.537 191.608 519.822C186.977 522.468 184.842 514.62 183.608 511.622ZM674.429 518.022C671.828 518.022 671.828 518.022 669.228 518.022C669.397 515.059 669.397 515.059 669.566 512.097C673.839 511.577 673.688 514.317 674.429 518.022ZM728.031 516.022C730.031 515.022 730.031 515.022 732.031 514.022C743.451 511.834 736.782 531.774 728.031 516.022ZM422.218 512.622C425.8 526.952 399.92 520.105 416.818 514.022C421.393 512.747 421.393 512.747 422.218 512.622ZM655.628 512.422C656.761 513.022 661.295 515.422 662.428 516.022C661.295 516.089 656.761 516.355 655.628 516.422C655.628 515.755 655.628 513.088 655.628 512.422ZM544.923 528.772C538.101 533.889 533.566 518.072 537.623 514.822C544.289 509.481 549.81 525.107 544.923 528.772ZM145.606 513.222C145.606 521.667 141.721 525.622 133.206 525.622C133.206 519.157 140.236 515.483 145.606 513.222ZM591.225 513.222C589.979 516.961 590.953 514.842 587.625 519.222C587.732 514.954 587.25 514.653 591.225 513.222ZM753.594 530.985C751.063 538.279 741.496 526.978 740.831 523.622C740.273 520.806 741.865 518.51 742.231 515.822C743.148 509.098 758.14 517.891 753.594 530.985ZM634.427 514.422C638.166 514.826 637.49 518.199 638.027 521.622C634.245 520.677 634.644 517.895 634.427 514.422ZM559.624 516.822C552.614 521.767 555.67 520.54 551.223 522.022C552.765 517.537 554.322 512.403 559.624 516.822ZM624.026 514.822C627.117 516.761 626.026 515.583 627.627 518.022C623.665 516.912 624.599 518.219 624.026 514.822ZM581.025 515.222C581.15 516.472 581.15 516.472 581.275 517.722C580.05 518.072 580.05 518.072 578.824 518.422C579.941 516.188 579.232 517.271 581.025 515.222ZM605.626 516.422C604.218 519.9 605.377 518.065 601.225 521.222C602.007 518.664 603.475 517.986 605.626 516.422ZM611.626 516.622C611.426 519.122 611.426 519.122 611.226 521.622C610.026 520.922 610.026 520.922 608.826 520.222C610.365 517.4 609.397 518.572 611.626 516.622ZM294.012 517.622C294.763 520.626 294.723 519.205 294.362 521.872C292.887 521.947 292.887 521.947 291.412 522.022C292.701 518.673 291.795 520.116 294.012 517.622ZM242.41 518.822C244.41 518.822 244.41 518.822 246.41 518.822C246.41 520.822 246.41 520.822 246.41 522.822C241.719 521.127 242.601 522.794 242.41 518.822ZM445.819 518.822C457.872 528.196 457.532 530.753 449.219 543.223C439.734 535.635 435.163 527.702 445.819 518.822ZM126.805 519.222C126.427 524.523 115.307 525.998 111.205 527.022C106.09 528.3 100.938 529.422 95.8041 530.622C111.394 519.618 101.217 519.222 126.805 519.222ZM716.03 519.222C715.43 522.222 715.43 522.222 714.83 525.222C712.03 524.622 712.03 524.622 709.23 524.022C710.323 519.652 711.614 519.222 716.03 519.222ZM644.427 519.622C647.652 519.963 647.689 522.854 648.427 525.622C646.427 525.622 646.427 525.622 644.427 525.622C644.427 522.622 644.427 522.622 644.427 519.622ZM734.431 538.023C729.379 535.46 719.233 532.695 721.631 525.022C729.562 513.791 736.103 531.971 734.431 538.023ZM405.617 536.623C395.956 541.323 394.831 523.78 402.817 520.822C413.738 516.776 413.811 532.637 405.617 536.623ZM427.518 538.173C414.091 542.445 416.126 524.256 425.418 520.822C434.353 517.52 435.293 535.699 427.518 538.173ZM495.121 540.273C489.856 544.222 475.876 531.688 486.621 523.822C494.857 517.792 503.029 534.342 495.121 540.273ZM181.608 522.822C184.808 524.622 184.808 524.622 188.008 526.422C183.266 526.315 183.181 526.755 181.608 522.822ZM474.57 532.373C471.988 536.169 470.54 536.532 466.47 539.423C462.786 534.511 461.326 530.669 464.62 525.022C470.159 522.332 476.91 528.931 474.57 532.373ZM702.03 523.622C711.433 528.149 712.83 530.387 712.83 540.823C703.606 537.55 697.229 534.425 702.03 523.622ZM573.624 524.022C575.824 524.222 575.824 524.222 578.024 524.422C575.824 525.822 575.824 525.822 573.624 527.222C573.624 525.622 573.624 525.622 573.624 524.022ZM516.659 542.36C509.543 547.957 500.088 531.477 508.222 526.222C515.149 521.747 523.983 536.601 516.659 542.36ZM266.411 525.222C265.614 528.899 266.752 527.909 263.211 528.422C265.14 526.218 264.081 527.293 266.411 525.222ZM771.883 534.873C768.417 545.627 753.766 542.372 757.432 530.822C760.116 522.366 774.673 526.212 771.883 534.873ZM540.223 538.223C537.3 546.233 527.883 541.915 527.022 535.223C526.688 532.625 528.392 529.919 529.822 527.822C534.599 520.824 542.336 532.43 540.223 538.223ZM605.826 526.022C607.784 527.655 607.902 529.576 608.426 532.023C604.154 532.023 604.37 529.419 605.826 526.022ZM627.627 526.022C630.021 526.458 631.705 526.52 632.827 528.822C630.227 529.422 630.227 529.422 627.627 530.022C627.627 528.022 627.627 528.022 627.627 526.022ZM388.416 526.422C387.713 533.221 387.802 535.586 380.816 536.023C381.907 530.933 383.192 527.847 388.416 526.422ZM640.027 527.222C640.027 529.222 640.027 529.222 640.027 531.222C637.644 530.163 638.767 530.796 636.652 529.335C638.495 527.307 637.374 528.018 640.027 527.222ZM697.23 527.222C697.23 529.422 697.23 529.422 697.23 531.623C692.869 531.513 694.529 532.397 691.979 529.56C693.849 527.817 694.721 527.486 697.23 527.222ZM183.408 530.022C180.119 531.296 179.267 530.793 175.607 530.022C180.594 528.637 177.996 528.734 183.408 530.022ZM620.826 529.622C622.626 529.622 622.626 529.622 624.426 529.622C622.826 532.423 622.826 532.423 621.226 535.223C621.026 532.423 621.026 532.423 620.826 529.622ZM684.629 529.622C694.342 535.509 694.205 540.122 691.629 550.423C681.105 544.434 676.589 540.678 684.629 529.622ZM131.006 531.623C127.305 536.223 127.305 536.223 123.605 540.823C126.893 541.29 130.728 540.958 133.318 543.035C128.902 547.583 125.872 548.125 119.605 548.423C120.113 539.79 122.234 534.202 131.006 531.623ZM556.624 538.223C558.318 548.632 544.708 542.845 544.423 534.423C544.213 528.217 555.867 533.573 556.624 538.223ZM596.625 542.623C596.221 547.884 586.8 555.625 582.625 550.023C578.954 545.099 583.528 539.027 584.225 534.023C584.922 529.017 597.08 536.71 596.625 542.623ZM741.681 544.923C739.621 543.549 738.121 541.671 737.644 539.21C737.239 537.126 735.905 535.16 737.581 533.523C748.658 522.698 752.26 551.976 741.681 544.923ZM179.608 536.023C175.256 535.759 170.311 536.07 166.407 533.823C171.764 532.605 175.279 532.481 179.608 536.023ZM110.405 533.623C104.191 544.807 97.5054 547.719 84.8036 548.823C88.7892 540.852 100.854 531.235 110.405 533.623ZM388.016 548.023C387.46 542.12 384.608 542.996 388.816 537.623C395.763 532.137 408.471 546.075 388.016 548.023ZM412.817 554.223C402.989 557.322 404.672 535.831 412.017 534.623C420.647 533.203 422.885 551.05 412.817 554.223ZM579.212 534.635C577.848 543.274 572.25 549.592 567.224 538.823C572.437 539.224 574.754 536.974 579.212 534.635ZM731.631 554.823C721.047 553.485 714.047 546.308 718.03 535.023C733.143 538.372 732.337 542.827 731.631 554.823ZM20.4009 534.823C31.7294 536.284 42.1105 539.72 53.6023 540.823C45.4587 549.984 31.9798 555.607 20.4009 558.824C20.4009 546.823 20.4009 546.823 20.4009 534.823ZM676.429 534.823C676.215 542.731 672.033 541.717 667.628 536.823C673.072 535.39 670.144 536.08 676.429 534.823ZM480.02 554.423C482.043 547.851 480.947 550.907 483.22 545.223C476.62 546.023 476.62 546.023 470.02 546.823C477.803 521.377 499.546 548.845 480.02 554.423ZM368.816 545.223C369.733 538.69 368.551 541.119 371.016 537.423C384.442 534.592 376.115 544.615 368.816 545.223ZM434.218 554.623C423.66 556.021 427.591 537.183 432.818 535.823C444.498 532.783 447.251 552.899 434.218 554.623ZM459.269 553.873C455.706 557.127 450.525 551.131 450.757 547.461C450.992 543.726 453.457 539.964 456.219 537.823C465.996 530.247 465.039 548.606 459.269 553.873ZM506.621 552.223C501.32 559.666 493.827 544.092 499.021 538.423C503.373 533.673 509.799 547.762 506.621 552.223ZM86.4037 539.023C83.1552 547.036 75.9429 554.3 66.8028 553.623C69.9251 544.257 75.9766 538.03 86.4037 539.023ZM615.226 538.823C611.39 543.356 608.683 543.837 602.826 544.423C603.504 536.283 606.938 538.6 615.226 538.823ZM674.179 548.748C673.731 561.512 659.583 550.861 659.228 542.823C658.815 533.48 674.352 543.791 674.179 548.748ZM707.63 561.624C698.497 557.97 689.057 550.101 697.63 539.623C713.524 544.772 710.396 549.252 707.63 561.624ZM567.874 553.023C562.095 562.804 550.47 550.89 559.224 541.023C563.829 535.832 570.688 548.261 567.874 553.023ZM118.005 539.623C112.699 552.556 110.598 559.05 96.8041 561.624C97.1642 548.479 105.489 541.292 118.005 539.623ZM153.607 539.623C151.525 547.948 144.177 548.374 136.806 548.023C139.282 540.593 146.624 539.623 153.607 539.623ZM157.607 539.623C161.567 539.878 170.007 538.621 170.007 544.423C165.056 544.423 158.146 546.096 157.607 539.623ZM750.432 548.423C751.745 542.885 750.447 544.786 753.032 542.023C761.993 543.463 753.128 548.064 750.432 548.423ZM538.91 549.823C538.763 546.208 537.208 542.884 540.423 542.023C558.164 537.269 539.615 567.157 538.91 549.823ZM529.435 556.036C526.552 559.155 510.271 550.925 521.822 544.223C529.073 540.016 534.477 550.581 529.435 556.036ZM775.033 543.323C763.058 560.952 740.243 578.309 718.43 578.824C735.785 564.674 755.091 553.422 775.033 543.323ZM367.816 550.423C364.923 553.894 355.635 548.947 361.815 545.223C365.241 543.159 371.904 545.517 367.816 550.423ZM383.766 545.773C405.224 556.035 367.867 562.289 378.616 546.023C379.984 543.953 381.555 544.716 383.766 545.773ZM63.6027 545.623C62.4632 558.158 47.489 569.45 35.6015 570.424C39.166 556.166 50.0031 549.375 63.6027 545.623ZM651.378 560.524C648.369 563.532 626.05 550.839 639.027 547.023C647.46 544.543 662.76 549.142 651.378 560.524ZM733.631 556.424C734.031 553.087 734.011 549.248 735.631 546.223C748.451 550.016 738.931 555.176 733.631 556.424ZM405.017 559.824C399.053 565.446 394.041 555.53 398.617 550.623C405.011 543.767 410.095 555.037 405.017 559.824ZM688.429 567.624C681.039 564.457 673.459 559.209 676.829 550.223C691.004 551.862 692.42 558.146 688.429 567.624ZM777.233 549.223C776.887 582.034 772.436 578.97 740.431 578.624C753.532 569.576 764.506 558.569 777.233 549.223ZM428.418 554.823C436.73 566.758 415.585 562.998 423.018 550.223C425.102 546.642 425.244 550.265 428.418 554.823ZM496.421 564.174C489.455 567.992 483.319 556.316 490.021 552.623C497.949 548.255 505.622 559.131 496.421 564.174ZM578.224 553.998C574.194 555.107 576.259 554.888 572.024 554.623C574.222 551.17 575.632 550.474 578.224 553.998ZM91.6039 552.023C91.6039 564.111 82.9457 568.12 72.4031 570.824C72.4031 560.888 82.3111 552.895 91.6039 552.023ZM631.227 552.023C630.627 557.624 630.627 557.624 630.027 563.224C623.141 559.251 626.459 561.381 620.064 556.849C621.46 552.012 626.997 552.112 631.227 552.023ZM726.031 564.824C717.336 577.567 705.33 563.438 713.23 553.823C717.498 548.629 730.47 558.318 726.031 564.824ZM452.819 564.024C445.784 570.365 431.196 559.254 444.419 553.223C449.058 551.108 457.875 559.466 452.819 564.024ZM521.622 563.624C516.256 563.939 495.961 561.553 509.822 553.023C517.716 552.009 518.905 558.704 521.622 563.624ZM358.815 560.424C354.662 559.039 352.912 557.955 350.815 554.023C358.607 553.129 358.602 552.732 358.815 560.424ZM378.216 564.024C369.479 567.622 357.912 559.335 369.216 553.423C373.986 550.928 386.241 560.72 378.216 564.024ZM668.403 571.799C662.043 578.523 651.791 561.237 657.428 555.824C664.195 549.325 675.032 564.792 668.403 571.799ZM539.523 560.524C536.096 563.951 527 560.082 532.023 555.424C535.128 552.543 543.912 556.135 539.523 560.524ZM150.006 554.823C148.34 556.728 149.077 556.186 145.806 557.624C121.341 568.374 99.8904 579.323 73.2031 580.025C97.242 567.099 122.859 558.217 150.006 554.823ZM299.213 554.823C299.813 555.557 302.213 558.49 302.813 559.224C302.213 559.224 299.813 559.224 299.213 559.224C299.213 558.49 299.213 555.557 299.213 554.823ZM556.274 561.074C554.931 565.685 547.315 563.669 548.823 558.624C550.642 552.543 558.149 554.631 556.274 561.074ZM282.412 555.223C282.945 555.89 285.079 558.557 285.612 559.224C285.079 559.224 282.945 559.224 282.412 559.224C282.412 558.557 282.412 555.89 282.412 555.223ZM240.41 555.624C244.641 557.06 244.81 558.666 244.81 562.824C240.884 562.514 241.066 558.904 240.41 555.624ZM623.139 576.712C612.371 578.741 608.359 561.103 614.426 557.024C617.404 555.021 634.477 574.575 623.139 576.712ZM649.627 575.624C640.751 575.163 628.477 569.215 634.027 558.424C644.683 559.472 649.627 567.003 649.627 575.624ZM71.603 557.624C70.5132 568.521 61.79 578.061 50.6396 575.362C51.8088 566.533 63.1217 558.896 71.603 557.624ZM398.417 564.024C400.045 569.509 388.673 573.506 388.416 563.224C388.238 556.075 396.855 558.764 398.417 564.024ZM208.009 559.224C213.946 561.663 216.139 561.185 216.409 567.224C209.685 567.224 209.228 565.32 208.009 559.224ZM34.0014 559.624C32.9223 567.177 27.7509 576.875 20.4009 580.025C20.4009 568.803 22.3643 563.035 34.0014 559.624ZM266.011 559.624C268.127 561.387 268.824 563 269.611 565.624C266.699 563.876 266.761 562.873 266.011 559.624ZM292.812 559.624C294.412 562.024 294.412 562.024 296.013 564.424C292.564 564.2 292.545 562.828 292.812 559.624ZM610.426 561.624C605.941 567.477 606.27 566.068 599.625 562.024C602.601 558.454 606.852 559.39 610.426 561.624ZM703.78 575.774C697.069 582.465 690.018 568.531 693.829 563.024C698.89 555.711 710.577 568.998 703.78 575.774ZM486.421 565.424C483.849 567.46 479.936 567.505 476.82 568.024C478.205 561.446 483.478 556.597 486.421 565.424ZM203.621 575.299C195.5 580.849 190.407 570.387 196.408 564.624C205.283 556.102 209.493 571.287 203.621 575.299ZM250.811 560.824C255.028 562.547 254.404 563.71 254.811 568.424C250.574 567.153 250.811 564.957 250.811 560.824ZM186.608 561.224C198.105 572.721 164.889 577.697 181.808 564.624C185.858 561.649 185.858 561.649 186.608 561.224ZM504.834 562.524C505.028 563.674 505.028 563.674 505.221 564.824C502.522 564.824 503.852 565.038 501.234 564.149C501.227 563.086 501.227 563.086 501.221 562.024C503.028 562.274 503.028 562.274 504.834 562.524ZM416.018 574.024C410.975 573.016 402.284 570.339 407.417 563.824C417.409 561.523 415.93 567.651 416.018 574.024ZM170.807 563.624C168.307 565.707 165.769 567.128 162.807 568.424C161.277 566.384 161.769 567.471 161.207 565.224C164.56 564.341 167.346 563.496 170.807 563.624ZM278.812 563.624C278.812 565.024 278.812 565.024 278.812 566.424C277.812 565.224 277.812 565.224 276.812 564.024C277.812 563.824 277.812 563.824 278.812 563.624ZM343.615 567.224C341.514 566.024 341.514 566.024 339.414 564.824C342.948 565.466 341.599 564.583 343.615 567.224ZM674.429 564.024C692.144 570.838 688.524 578.824 670.828 578.824C670.828 573.453 672.553 569.024 674.429 564.024ZM597.925 566.524C621.395 585.111 580.905 580.507 591.825 565.824C593.479 563.601 595.614 564.694 597.925 566.524ZM244.81 565.224C244.435 566.799 244.435 566.799 244.06 568.374C242.735 568.199 242.735 568.199 241.41 568.024C243.268 565.636 242.13 566.564 244.81 565.224ZM329.614 576.624C326.833 580.351 299.537 583.755 319.214 568.624C323.196 565.562 333.581 571.308 329.614 576.624ZM388.416 574.424C381.216 574.424 381.216 574.424 374.016 574.424C378.921 564.613 384.114 565.183 388.416 574.424ZM156.407 566.824C156.407 573.316 154.319 574.059 148.406 576.424C149.649 570.52 150.228 568.54 156.407 566.824ZM259.611 569.224C260.144 569.691 262.278 571.558 262.811 572.024C262.278 572.024 260.144 572.024 259.611 572.024C259.611 571.558 259.611 569.691 259.611 569.224ZM485.821 571.424C495.056 570.525 505.143 566.256 513.622 570.024C486.636 579.662 455.615 579.4 427.418 578.824C445.465 574.167 467.689 573.189 485.821 571.424ZM403.617 574.424C399.417 574.424 399.417 574.424 395.217 574.424C397.987 569.808 402.371 568.196 403.617 574.424ZM46.802 570.424C44.7755 577.63 37.113 578.424 30.8013 578.424C33.0579 572.065 41.0629 570.946 46.802 570.424ZM162.807 580.025C163.416 576.164 163.445 573.191 167.207 571.424C176.247 577.104 168.274 580.025 162.807 580.025ZM232.21 570.824C232.77 574.98 233.162 575.518 230.01 578.024C231.089 573.167 230.364 575.57 232.21 570.824ZM654.828 570.824C657.941 573.3 661.276 575.552 664.028 578.424C659.852 579.338 655.499 579.053 651.228 579.225C653.028 575.024 653.028 575.024 654.828 570.824ZM706.042 578.649C705.878 575.762 705.761 577.312 706.63 574.024C718.055 567.692 715.815 580.493 706.042 578.649ZM587.625 579.225C583.087 579.049 578.494 579.227 574.024 578.424C573.112 570.216 587.319 568.359 587.625 579.225ZM643.627 578.424C635.627 578.624 635.627 578.624 627.627 578.824C629.637 568.775 638.155 573.864 643.627 578.424ZM303.613 579.625C298.279 579.625 291.99 580.798 287.53 577.356C290.809 567.9 300.224 573.27 303.613 579.625ZM143.606 572.824C143.606 576.424 143.606 576.424 143.606 580.025C139.006 580.025 139.006 580.025 134.406 580.025C136.285 574.558 137.854 572.824 143.606 572.824ZM194.008 580.025C187.808 580.025 187.808 580.025 181.608 580.025C185.436 571.942 191.304 571.372 194.008 580.025ZM609.626 573.624C613.138 574.678 615.321 576.365 618.026 578.824C613.226 578.824 613.226 578.824 608.426 578.824C609.026 576.224 609.026 576.224 609.626 573.624ZM264.811 579.625C257.811 579.625 257.811 579.625 250.811 579.625C252.559 572.756 264.537 571.653 264.811 579.625ZM282.812 579.625C276.212 579.625 276.212 579.625 269.611 579.625C270.278 573.861 281.665 573.661 282.812 579.625ZM695.229 578.824C691.229 578.824 691.229 578.824 687.229 578.824C690.278 575.394 692.721 574.435 695.229 578.824ZM570.024 579.225C563.624 579.025 563.624 579.025 557.224 578.824C561.264 576.685 568.194 572.735 570.024 579.225ZM131.606 576.024C131.038 581.704 124.881 579.953 120.405 580.025C123.067 576.475 127.447 576.024 131.606 576.024ZM240.41 576.024C242.31 576.924 242.31 576.924 244.21 577.824C242.366 580.259 243.649 579.439 240.01 579.625C240.21 577.824 240.21 577.824 240.41 576.024Z" fill="#000000" fill-rule="nonzero" opacity="1" stroke="none"/>
</g>
</svg>
