<?xml version="1.0" encoding="UTF-8" standalone="no"?>
<!DOCTYPE svg PUBLIC "-//W3C//DTD SVG 1.1//EN" "http://www.w3.org/Graphics/SVG/1.1/DTD/svg11.dtd">
<!-- Created with Vectornator (http://vectornator.io/) -->
<svg height="100%" stroke-miterlimit="10" style="fill-rule:nonzero;clip-rule:evenodd;stroke-linecap:round;stroke-linejoin:round;" version="1.1" viewBox="0 0 800 600" width="100%" xml:space="preserve" xmlns="http://www.w3.org/2000/svg" xmlns:xlink="http://www.w3.org/1999/xlink">
<defs/>
<clipPath id="ArtboardFrame">
<rect height="600" width="800" x="0" y="0"/>
</clipPath>
<g clip-path="url(#ArtboardFrame)" id="Layer-1">
<path d="M2.00008 3.20014C2.20009 301.813 2.20009 301.813 2.4001 600.425C400.417 600.425 400.417 600.425 798.434 600.425C798.034 300.413 798.034 300.413 797.634 0.400017C532.422 1.19645 267.211 2.07295 2.00008 3.20014ZM730.431 22.0009C729.031 39.8017 729.031 39.8017 727.631 57.6024C717.23 51.0022 717.23 51.0022 706.83 44.4019C701.13 61.6026 701.13 61.6026 695.429 78.8033C683.644 66.3146 679.007 56.5717 660.515 58.965C655.441 59.6218 650.974 65.3505 646.027 64.0402C639.879 62.4116 637.225 54.6332 631.777 51.3522C626.714 48.3036 620.926 46.2421 615.076 45.4019C608.407 44.4441 601.478 44.7131 594.875 46.0519C552.014 54.7427 518.782 75.0107 491.771 109.405C480.341 123.959 485.709 145.961 484.22 164.407C477.477 160.66 467.121 156.804 465.22 147.606C463.141 137.551 464.714 127.072 464.82 116.805C464.833 115.52 464.585 113.843 465.576 113.025C470.134 109.258 476.273 107.658 480.67 103.704C485.095 99.7252 487.971 94.304 491.621 89.6038C479.146 94.0441 467.439 96.9459 455.644 88.5537C446.669 82.1677 437.18 76.2435 429.481 68.3654C427.152 65.9823 428.316 61.6395 426.568 58.8025C425.537 57.1296 422.048 57.5195 421.618 55.6024C420.585 50.9993 423.743 46.0865 422.682 41.4898C422.059 38.7896 418.2 37.9335 416.968 35.4515C414.882 31.2519 414.665 25.48 410.817 22.801C570.624 22.4009 570.624 22.4009 730.431 22.0009ZM776.833 22.0009C776.833 42.4018 776.833 42.4018 776.833 62.8027C769.053 60.9398 757.678 59.8744 751.432 53.5523C741.838 43.8412 746.06 31.6294 734.031 22.801C755.432 22.4009 755.432 22.4009 776.833 22.0009ZM403.217 23.201C399.082 33.2496 394.608 43.9533 395.217 54.8023C393.4 55.5232 390.632 55.2126 389.766 56.9649C387.533 61.486 390.658 68.536 386.816 71.803C376.482 80.592 363.525 86.2924 350.565 90.3038C343.383 92.5267 335.531 90.1038 328.014 90.0038C329.814 93.7373 330.662 98.1051 333.414 101.204C338.69 107.146 348.706 109.198 351.623 116.589C355.686 126.885 353.557 138.756 352.583 149.782C352.348 152.445 350.299 154.909 348.102 156.432C342.782 160.121 337.125 164.581 330.664 164.982C323.429 165.431 316.763 160.865 309.813 158.807C314.28 165.924 317.231 174.258 323.214 180.158C329.559 186.415 340.075 187.584 345.865 194.358C350.651 199.959 348.164 209.547 345.615 216.459C332.993 191.067 326.347 221.705 316.813 230.81C306.168 240.976 291.732 232.638 294.012 220.009C290.212 220.609 290.212 220.609 286.412 221.209C287.454 216.651 286.354 210.959 289.537 207.534C293.029 203.777 300.662 206.177 304 202.284C307.421 198.294 307.963 192.067 307.263 186.858C305.811 176.048 301.973 165.603 297.725 155.557C290.613 138.738 268.919 136.469 253.811 136.806C250.037 136.89 246.734 140.824 243.01 140.206C234.806 138.845 227.88 132.951 219.759 131.156C208.117 128.582 196.127 127.537 184.208 127.205C148.904 126.224 110.236 147.403 81.8035 165.52C59.924 179.461 33.1259 203.662 35.014 232.335C36.5883 256.243 42.2698 279.918 41.9768 303.875C41.9206 308.468 37.2998 311.916 34.0014 315.113C32.3857 316.679 29.0591 315.832 27.7512 317.663C25.6303 320.633 25.8716 326.087 22.4009 327.214C22.2009 175.807 22.2009 175.807 22.0009 24.401C212.609 23.801 212.609 23.801 403.217 23.201ZM411.217 27.6012C409.941 32.3895 409.053 33.6014 404.017 33.6014C405.294 28.8131 406.182 27.6012 411.217 27.6012ZM412.917 52.3022C405.272 56.2029 393.415 46.1802 403.217 42.0018C412.477 38.0544 421.777 47.782 412.917 52.3022ZM418.618 65.4028C410.339 63.8763 404.338 64.6964 394.817 64.8027C395.684 55.2626 419.812 55.8487 418.618 65.4028ZM625.026 63.6027C618.926 64.0027 618.926 64.0027 612.826 64.4027C617.226 67.0028 617.226 67.0028 621.626 69.6029C614.826 71.003 614.826 71.003 608.026 72.4031C615.826 76.2032 615.826 76.2032 623.626 80.0034C616.213 77.9249 620.077 78.0711 612.026 80.0034C616.526 83.7035 616.526 83.7035 621.026 87.4037C614.526 87.5037 614.526 87.5037 608.026 87.6037C611.626 90.4038 611.626 90.4038 615.226 93.2039C609.026 92.8039 609.026 92.8039 602.826 92.4039C605.063 96.2299 608.988 98.8069 612.426 101.604C605.426 101.604 605.426 101.604 598.425 101.604C602.682 103.924 607.398 105.776 610.826 109.205C605.905 108.48 600.83 108.45 596.063 107.03C589.084 104.949 585.232 99.7908 578.024 100.404C582.025 105.204 582.025 105.204 586.025 110.005C572.024 106.405 572.024 106.405 558.024 102.804C559.524 106.204 559.524 106.204 561.024 109.605C554.649 110.282 544.502 106.847 539.76 111.905C541.767 113.767 541.767 113.767 543.773 115.63C536.098 118.618 536.098 118.618 528.422 121.605C531.623 123.805 531.623 123.805 534.823 126.005C528.422 128.805 528.422 128.805 522.022 131.606C523.622 132.706 523.622 132.706 525.222 133.806C519.022 140.106 519.022 140.106 512.822 146.406C515.622 146.206 515.622 146.206 518.422 146.006C504.96 160.246 505.797 161.815 495.621 141.206C498.821 142.006 498.821 142.006 502.021 142.806C499.821 133.606 499.821 133.606 497.621 124.405C503.221 128.605 503.221 128.605 508.822 132.806C506.421 123.405 506.421 123.405 504.021 114.005C507.821 117.005 507.821 117.005 511.622 120.005C512.422 111.005 512.422 111.005 513.222 102.004C518.18 105.705 515.861 103.492 520.022 108.805C520.022 101.333 517.797 94.0764 525.622 90.8038C526.792 97.0444 524.802 96.0761 528.597 96.7416C531.51 89.5725 531.51 89.5725 534.423 82.4035C536.876 85.4414 535.46 83.1467 535.623 90.4038C537.223 90.4038 537.223 90.4038 538.823 90.4038C539.404 83.0483 542.522 78.8644 549.223 76.0032C548.64 83.4634 547.314 80.793 550.823 84.8036C554.023 77.6033 554.023 77.6033 557.224 70.403C558.024 74.0031 558.024 74.0031 558.824 77.6033C564.824 71.003 564.824 71.003 570.824 64.4027C572.983 67.8121 572.175 72.3754 572.424 76.4032C577.824 68.0029 577.824 68.0029 583.225 59.6025C583.025 67.0028 583.025 67.0028 582.825 74.4031C588.825 67.8029 588.825 67.8029 594.825 61.2026C595.767 64.7338 595.356 62.2022 593.625 68.8029C601.458 63.9072 616.754 52.4349 625.026 63.6027ZM725.843 63.5652C728.005 71.3226 729.223 79.3128 730.831 87.2037C722.898 87.2995 714.938 87.8414 707.03 87.2037C712.165 79.1349 718.036 69.1773 725.843 63.5652ZM750.832 66.4028C761.236 72.3483 764.79 85.9 771.233 96.0041C772.914 89.3813 774.013 82.43 777.233 76.4032C777.233 116.845 782.151 125.44 741.631 126.805C747.531 118.501 759.105 119.77 768.433 118.805C758.517 108.452 754.273 108.374 740.431 109.605C742.916 100.033 749.787 79.9911 750.832 66.4028ZM402.817 70.403C407.051 86.2794 407.685 99.6042 390.017 99.6042C391.897 89.1755 395.137 78.0833 402.817 70.403ZM461.62 97.6041C445.22 114.004 424.17 78.779 417.618 71.603C428.033 64.7677 445.261 93.9178 461.62 97.6041ZM409.817 71.603C417.16 80.4653 423.38 90.2027 430.018 99.6042C406.099 98.8775 408.844 93.9991 409.817 71.603ZM393.617 72.8031C388.588 84.6139 384.711 100.089 369.216 100.404C363.034 100.53 356.845 101.691 351.615 98.2042C367.831 93.3113 377.633 76.799 393.617 72.8031ZM665.628 72.8031C673.624 75.4685 676.184 80.7428 682.029 87.6037C681.829 83.0035 681.829 83.0035 681.629 78.4033C688.495 85.2288 687.014 98.1617 687.229 106.805C696.598 104.59 686.615 102.063 693.992 96.6416C698.344 93.4426 707.133 95.6616 709.03 90.6038C723.131 99.7042 723.131 99.7042 737.231 108.805C726.092 112.389 714.067 112.182 702.43 113.405C708.681 122.261 725.064 116.602 726.431 126.205C709.03 126.105 709.03 126.105 691.629 126.005C694.829 139.406 694.829 139.406 698.03 152.806C702.154 151.012 704.451 145.621 708.868 144.769C714.38 143.704 720.043 145.86 725.631 146.406C721.217 138.144 713.608 142.389 706.43 136.806C721.38 136.016 725.945 133.404 728.431 147.606C718.03 149.006 718.03 149.006 707.63 150.406C712.699 156.88 719.013 154.581 726.031 151.606C726.831 153.506 726.831 153.506 727.631 155.407C714.03 158.307 714.03 158.307 700.43 161.207C705.895 167.401 710.605 167.279 719.405 167.12C730.69 166.916 741.956 166.111 753.232 165.607C752.226 169.978 753.214 169.843 746.582 170.357C732.689 171.435 718.747 171.724 704.83 172.407C719.092 183.731 740.943 170.479 752.832 183.208C726.631 184.208 726.631 184.208 700.43 185.208C709.972 197 719.467 194.153 734.031 192.808C729.304 203.552 726.298 204.075 715.03 211.009C717.138 216.959 711.238 218.635 705.63 219.409C699.273 220.287 692.829 220.343 686.429 220.809C686.429 215.436 694.299 216.671 698.03 216.009C690.029 212.809 690.029 212.809 682.029 209.609C689.429 209.009 689.429 209.009 696.829 208.409C689.629 204.609 689.629 204.609 682.429 200.808C686.829 199.408 686.829 199.408 691.229 198.008C685.429 192.808 685.429 192.808 679.629 187.608C685.229 187.208 685.229 187.208 690.829 186.808C684.429 180.808 684.429 180.808 678.029 174.807C684.429 174.407 684.429 174.407 690.829 174.007C681.829 167.407 681.829 167.407 672.828 160.807C678.229 160.607 678.229 160.607 683.629 160.407C676.445 155.9 667.787 152.357 663.228 145.206C666.628 145.206 666.628 145.206 670.028 145.206C669.38 142.138 647.718 138.902 642.427 131.206C646.227 131.006 646.227 131.006 650.028 130.806C639.427 123.605 639.427 123.605 628.827 116.405C634.427 116.805 634.427 116.805 640.027 117.205C637.227 112.205 637.227 112.205 634.427 107.205C640.427 108.405 640.427 108.405 646.427 109.605C643.027 103.204 643.027 103.204 639.627 96.8041C647.227 100.404 647.227 100.404 654.828 104.004C652.269 99.6028 648.85 95.3006 648.177 90.2538C653.615 91.3147 657.822 95.727 662.428 98.8042C658.228 92.0039 658.228 92.0039 654.028 85.2036C659.228 87.4037 659.228 87.4037 664.428 89.6038C661.228 83.4035 661.228 83.4035 658.028 77.2033C663.828 79.4034 663.828 79.4034 669.628 81.6035C667.628 77.2033 667.628 77.2033 665.628 72.8031ZM456.019 105.204C456.019 107.805 456.019 107.805 456.019 110.405C430.275 110.257 405.239 111.372 379.616 112.605C370.556 113.041 362.961 115.462 358.215 107.805C390.651 104.984 423.502 105.418 456.019 105.204ZM576.824 120.405C581.225 125.205 581.225 125.205 585.625 130.006C586.025 125.405 586.025 125.405 586.425 120.805C590.225 126.805 590.225 126.805 594.025 132.806C594.625 127.205 594.625 127.205 595.225 121.605C598.45 125.225 600.543 129.729 602.826 134.006C603.826 130.406 603.826 130.406 604.826 126.805C606.45 132.086 607.204 137.918 610.426 142.406C613.965 135.328 612.297 139.612 614.426 129.205C615.803 136.065 616.942 143.016 617.226 150.006C622.98 147.391 621.222 143.412 621.626 136.806C628.577 137.027 625.924 146.436 626.427 152.006C629.827 147.006 629.827 147.006 633.227 142.006C633.227 147.606 633.227 147.606 633.227 153.206C636.627 150.606 636.627 150.606 640.027 148.006C639.227 155.207 639.227 155.207 638.427 162.407C642.04 157.808 645.196 152.222 650.428 149.606C648.627 158.607 648.627 158.607 646.827 167.607C650.628 164.207 650.628 164.207 654.428 160.807C653.228 167.407 653.228 167.407 652.028 174.007C655.628 171.407 655.628 171.407 659.228 168.807C657.828 175.007 657.828 175.007 656.428 181.208C659.484 179.231 662.438 176.606 666.028 176.007C663.028 181.808 663.028 181.808 660.028 187.608C663.828 186.408 663.828 186.408 667.628 185.208C664.828 190.208 664.828 190.208 662.028 195.208C665.228 195.208 665.228 195.208 668.428 195.208C664.128 201.409 664.128 201.409 659.828 207.609C662.928 206.809 662.928 206.809 666.028 206.009C663.028 210.809 663.028 210.809 660.028 215.609C663.828 215.209 663.828 215.209 667.628 214.809C665.928 217.409 665.928 217.409 664.228 220.009C649.88 215.91 640.56 208.673 625.464 205.184C604.502 200.339 583.251 194.92 561.924 191.558C547.944 189.355 528.433 191.31 521.622 175.607C527.622 176.407 527.622 176.407 533.623 177.208C527.622 171.807 527.622 171.807 521.622 166.407C528.222 168.607 528.222 168.607 534.823 170.807C529.422 163.607 529.422 163.607 524.022 156.407C532.223 158.807 532.223 158.807 540.423 161.207C536.423 156.007 536.423 156.007 532.423 150.806C537.823 152.206 537.823 152.206 543.223 153.607C538.223 146.806 538.223 146.806 533.223 140.006C539.423 142.406 539.423 142.406 545.623 144.806C542.823 140.206 542.823 140.206 540.023 135.606C546.223 137.406 546.223 137.406 552.423 139.206C549.423 133.806 549.423 133.806 546.423 128.405C552.823 131.006 552.823 131.006 559.224 133.606C556.624 128.405 556.624 128.405 554.023 123.205C563.024 128.405 563.024 128.405 572.024 133.606C569.424 127.205 569.424 127.205 566.824 120.805C572.624 125.405 572.624 125.405 578.424 130.006C577.624 125.205 577.624 125.205 576.824 120.405ZM383.216 139.206C372.284 145.667 359.101 132.887 372.616 125.605C382.236 120.422 395.234 132.103 383.216 139.206ZM421.768 147.906C415.29 152.511 404.054 150.979 397.617 151.206C397.617 142.674 396.051 132.537 400.017 124.605C427.394 125.31 428.496 143.124 421.768 147.906ZM452.719 138.256C443.772 145.526 431.325 134.438 439.819 126.205C448.327 117.959 463.522 129.478 452.719 138.256ZM108.805 254.011C108.848 249.643 106.343 245.565 106.004 241.21C105.388 233.288 115.067 228.038 118.255 220.759C120.892 214.739 120.342 207.71 122.518 201.509C124.92 194.66 135.116 193.47 139.106 187.408C142.951 181.565 142.915 173.88 145.906 167.557C148.88 161.271 158.214 160.522 162.757 155.257C166.824 150.542 168.189 144.01 171.607 138.806C173.384 136.101 180.969 135.155 182.608 135.006C188.122 134.504 193.675 134.606 199.208 134.406C197.596 151.753 189.968 135.411 178.408 140.806C183.008 146.006 183.008 146.006 187.608 151.206C176.866 155.97 177.431 158.348 172.682 170.57C165.255 170.222 159.906 164.693 153.206 170.007C155.887 174.027 160.509 176.353 164.407 179.208C151.675 187.696 147.787 191.35 150.406 206.409C143.721 203.535 136.475 201.531 129.205 201.209C134.528 211.854 132.57 210.636 144.406 213.209C141.273 217.076 136.737 220.143 135.006 224.81C133.475 228.935 135.139 233.61 135.206 238.01C127.234 235.092 122.321 233.544 114.405 237.21C118.502 244.006 122.324 246.031 130.006 246.61C126.937 253.137 123.89 260.458 124.805 267.611C116.889 265.632 114.119 265.332 107.167 269.274C110.328 274.861 115.626 278.813 122.005 279.212C119.855 283.491 118.44 289.177 114.105 291.212C100.968 277.808 108.652 269.166 108.805 254.011ZM764.032 134.806C760.138 141.723 747.425 138.296 741.231 138.006C745.316 131.878 759.487 134.717 764.032 134.806ZM134.968 315.338C132.47 309.38 130.263 303.239 128.955 296.913C126.971 287.311 133.106 286.761 134.806 276.812C135.876 270.544 133.089 263.851 134.831 257.736C136.395 252.243 142.207 248.772 144.306 243.46C146.554 237.772 145.254 231.056 147.606 225.41C149.734 220.301 155.4 217.166 157.407 212.009C159.451 206.755 157.978 200.675 159.357 195.208C161.405 187.089 171.796 186.416 175.845 179.82C178.113 176.126 179.3 171.859 181.352 168.041C185.695 159.961 195.043 155.825 202.009 149.856C216.618 137.338 212.652 132.682 230.01 145.806C225.785 148.306 221.076 150.129 217.334 153.306C214.647 155.589 213.972 159.799 211.109 161.857C208.938 163.417 205.413 161.867 203.246 163.432C200.563 165.37 200.214 169.566 197.608 171.607C194.517 174.028 189.742 173.699 186.808 176.307C184.33 178.51 185.843 183.614 183.158 185.558C180.041 187.815 175.518 188.312 173.182 191.371C171.152 194.029 172.76 198.246 171.207 201.209C170.054 203.408 166.701 203.831 165.507 206.009C158.943 217.981 161.939 230.226 151.606 240.41C155.002 247.08 150.787 260.496 147.956 267.011C146.547 270.255 142.321 272.265 141.994 275.787C140.605 290.731 144.181 303.415 143.606 318.013C140.651 317.419 136.134 318.118 134.968 315.338ZM156.007 140.806C153.351 159.802 147.736 148.27 139.956 159.007C133.554 167.842 135.23 181.528 123.205 184.808C125.341 166.544 135.397 141.94 156.007 140.806ZM741.631 141.206C748.313 146.425 755.98 145.41 763.632 142.406C769.715 154.162 771.966 154.466 777.233 142.406C777.233 204.809 777.233 204.809 777.233 267.211C775.299 264.545 773.068 262.07 771.433 259.211C767.172 251.763 763.852 243.803 759.582 236.36C751.664 222.559 734.722 225.871 722.031 228.41C725.571 224.377 732.393 222.961 734.919 218.084C738.897 210.4 741.406 202.02 745.282 194.283C747.974 188.909 757.394 194.577 763.232 196.008C765.41 184.033 768.83 172.19 773.633 161.007C762.993 156.278 750.449 158.781 738.831 158.007C743.444 148.029 753.558 153.845 763.632 154.807C760.438 144.485 752.277 148.902 740.431 148.406C741.031 144.806 741.031 144.806 741.631 141.206ZM130.006 149.606C130.006 153.735 129.328 156.319 125.605 158.407C125.491 152.203 126.068 154.684 124.805 150.806C127.845 149.894 126.121 150.335 130.006 149.606ZM477.62 172.407C460.508 177.583 455.888 170.744 450.269 154.007C460.193 152.746 472.549 164.157 477.62 172.407ZM251.611 153.607C255.611 156.407 255.611 156.407 259.611 159.207C260.411 156.807 260.411 156.807 261.211 154.407C263.811 157.207 263.811 157.207 266.411 160.007C268.611 157.807 268.611 157.807 270.811 155.607C271.211 159.007 271.211 159.007 271.611 162.407C274.412 161.407 274.412 161.407 277.212 160.407C277.737 163.382 277.737 163.382 278.262 166.357C280.737 166.782 280.737 166.782 283.212 167.207C282.412 171.207 282.412 171.207 281.612 175.207C283.812 174.207 283.812 174.207 286.012 173.207C285.012 177.007 285.012 177.007 284.012 180.808C286.012 180.808 286.012 180.808 288.012 180.808C285.45 187.33 287.296 185.059 283.612 188.408C282.612 183.608 282.612 183.608 281.612 178.808C279.512 181.008 279.512 181.008 277.412 183.208C274.52 179.663 272.39 174.534 268.011 173.207C268.011 176.207 268.011 176.207 268.011 179.208C264.211 177.408 264.211 177.408 260.411 175.607C259.686 178.208 259.686 178.208 258.961 180.808C255.086 181.008 255.086 181.008 251.211 181.208C251.611 183.608 251.611 183.608 252.011 186.008C249.211 186.208 249.211 186.208 246.41 186.408C247.41 189.008 247.41 189.008 248.411 191.608C244.61 191.608 244.61 191.608 240.81 191.608C242.41 195.008 242.41 195.008 244.01 198.408C239.21 198.408 239.21 198.408 234.41 198.408C235.81 203.209 235.81 203.209 237.21 208.009C233.81 208.409 233.81 208.409 230.41 208.809C232.61 212.009 232.61 212.009 234.81 215.209C231.41 215.409 231.41 215.409 228.01 215.609C229.01 217.609 229.01 217.609 230.01 219.609C226.81 220.409 226.81 220.409 223.609 221.209C225.41 224.409 225.41 224.409 227.21 227.61C223.209 228.41 223.209 228.41 219.209 229.21C221.209 233.01 221.209 233.01 223.209 236.81C220.809 237.21 220.809 237.21 218.409 237.61C219.809 241.01 219.809 241.01 221.209 244.41C219.009 244.81 219.009 244.81 216.809 245.21C218.278 252.236 219.542 249.709 214.009 253.211C216.009 257.211 216.009 257.211 218.009 261.211C215.209 261.611 215.209 261.611 212.409 262.011C214.409 265.911 214.409 265.911 216.409 269.811C214.609 270.911 214.609 270.911 212.809 272.012C214.009 274.212 214.009 274.212 215.209 276.412C212.609 276.812 212.609 276.812 210.009 277.212C211.809 280.612 211.809 280.612 213.609 284.012C210.609 285.012 210.609 285.012 207.609 286.012C209.409 289.212 209.409 289.212 211.209 292.412C205.137 296.772 210.132 297.976 205.209 302.813C215.731 309.995 193.52 310.739 190.408 315.213C187.766 314.386 182.11 311.698 178.858 313.613C176.156 315.205 175.138 319.528 172.057 320.114C165.99 321.267 159.757 318.98 153.607 318.413C157.607 315.613 157.607 315.613 161.607 312.813C159.807 310.913 159.807 310.913 158.007 309.013C159.507 307.213 159.507 307.213 161.007 305.413C156.689 300.846 157.571 300.95 162.407 296.413C160.407 295.312 160.407 295.312 158.407 294.212C162.732 287.724 162.041 291.347 159.607 283.212C162.007 282.212 162.007 282.212 164.407 281.212C162.751 278.649 162.751 278.649 161.094 276.087C163.751 274.449 163.751 274.449 166.407 272.812C164.407 270.511 164.407 270.511 162.407 268.211C165.407 265.811 165.407 265.811 168.407 263.411C162.777 260.998 163.805 263.063 163.107 258.961C166.157 257.686 166.157 257.686 169.207 256.411C167.307 254.811 167.307 254.811 165.407 253.211C169.507 251.211 169.507 251.211 173.607 249.211C171.607 246.01 171.607 246.01 169.607 242.81C172.007 242.01 172.007 242.01 174.407 241.21C172.807 239.41 172.807 239.41 171.207 237.61C174.807 236.21 174.807 236.21 178.408 234.81C176.607 231.81 176.607 231.81 174.807 228.81C177.908 227.666 177.908 227.666 181.008 226.522C180.792 222.83 181.475 224.552 178.408 221.609C181.808 221.609 181.808 221.609 185.208 221.609C183.408 217.809 183.408 217.809 181.608 214.009C185.608 213.809 185.608 213.809 189.608 213.609C188.408 210.809 188.408 210.809 187.208 208.009C189.608 207.809 189.608 207.809 192.008 207.609C190.208 204.009 190.208 204.009 188.408 200.408C191.408 200.608 191.408 200.608 194.408 200.808C193.408 197.808 193.408 197.808 192.408 194.808C195.608 194.408 195.608 194.408 198.808 194.008C197.808 191.408 197.808 191.408 196.808 188.808C200.408 188.808 200.408 188.808 204.009 188.808C202.809 185.208 202.809 185.208 201.609 181.608C204.209 181.608 204.209 181.608 206.809 181.608C206.809 180.008 206.809 180.008 206.809 178.408C210.809 178.408 210.809 178.408 214.809 178.408C214.209 175.807 214.209 175.807 213.609 173.207C216.809 174.007 216.809 174.007 220.009 174.807C219.616 172.389 219.616 172.389 219.222 169.97C223.016 170.188 223.016 170.188 226.81 170.407C226.21 167.607 226.21 167.607 225.61 164.807C229.41 165.807 229.41 165.807 233.21 166.807C232.61 164.607 232.61 164.607 232.01 162.407C235.21 162.607 235.21 162.607 238.41 162.807C237.61 160.007 237.61 160.007 236.81 157.207C241.61 158.607 241.61 158.607 246.41 160.007C246.21 157.207 246.21 157.207 246.01 154.407C248.811 156.607 248.811 156.607 251.611 158.807C251.611 156.207 251.611 156.207 251.611 153.607ZM119.805 164.607C117.37 162.082 115.388 159.033 114.005 155.807C122.002 151.237 120.412 159.688 119.805 164.607ZM497.621 156.007C506.721 157.937 502.153 156.523 511.272 160.419C506.251 170.118 499.399 164.302 497.621 156.007ZM404.817 156.407C404.817 166.407 404.817 166.407 404.817 176.407C398.017 176.407 398.017 176.407 391.217 176.407C393.73 163.559 391.571 156.959 404.817 156.407ZM418.418 174.807C413.575 181.741 409.617 168.869 409.617 166.607C409.617 160.055 406.906 159.93 410.617 157.207C419.478 150.705 422.979 168.277 418.418 174.807ZM424.818 156.407C436.148 159.153 440.87 174.805 425.618 175.607C425.218 166.007 425.218 166.007 424.818 156.407ZM437.219 156.407C440.807 156.563 446.284 156.052 447.569 159.407C449.631 164.79 451.602 170.207 453.619 175.607C440.257 174.971 439.192 168.744 437.219 156.407ZM363.215 157.207C362.303 169.253 337.551 188.987 332.814 172.407C345.483 172.407 351.115 158.836 363.215 157.207ZM376.816 157.807C373.483 167.62 371.547 175.923 360.415 176.407C362.411 167.76 366.404 156.387 376.816 157.807ZM388.816 157.207C387.791 168.311 386.652 175.816 374.816 176.407C377.465 170.628 380.532 157.207 388.816 157.207ZM108.405 160.807C115.686 164.69 115.741 165.617 114.405 174.207C110.484 171.191 107.152 165.817 108.405 160.807ZM511.622 167.207C509.114 173.818 505.525 172.91 500.421 169.607C507.469 167.916 503.738 168.733 511.622 167.207ZM111.605 178.808C106.764 177.824 101.542 176.918 97.6166 173.92C104.16 167.624 108.337 172.273 111.605 178.808ZM88.8038 184.808C84.9486 183.829 78.0647 183.739 80.0034 178.408C87.9457 177.749 88.0661 180.041 88.8038 184.808ZM488.221 177.608C489.674 177.158 490.345 179.79 491.321 180.958C501.327 192.929 515.863 205.842 502.346 220.572C472.995 252.557 461.833 203.446 480.82 184.208C483.142 181.855 485.063 178.585 488.221 177.608ZM94.804 179.608C102.804 181.808 102.804 181.808 110.805 184.008C104.895 186.963 95.7787 188.38 94.804 179.608ZM467.02 181.208C465.112 185.013 459.325 185.632 455.069 185.708C423.543 186.267 392.009 186.21 360.478 186.32C355.154 186.339 350.817 186.546 348.815 181.208C388.216 181.041 427.624 180.534 467.02 181.208ZM73.6031 184.408C77.0595 185.67 77.0595 185.67 80.5159 186.933C76.7474 188.845 78.9425 188.202 73.7781 188.233C73.2932 185.614 73.3273 186.89 73.6031 184.408ZM90.4038 189.608C89.8522 196.779 89.1297 196.861 82.4035 197.608C83.771 193.962 86.8106 191.095 90.4038 189.608ZM50.0021 208.009C53.173 200.652 56.0721 196.103 63.0027 192.008C81.5405 199.333 54.2376 206.927 50.0021 208.009ZM96.8041 190.008C101.442 191.695 104.685 191.653 110.005 192.008C105.437 194.668 96.8041 198.614 96.8041 190.008ZM272.912 195.258C278.781 205.289 276.711 217.18 282.162 227.06C287.586 236.891 303.812 238.011 291.212 248.811C294.412 253.611 294.412 253.611 297.613 258.411C291.012 262.011 291.012 262.011 284.412 265.611C289.943 270.273 286.438 268.169 295.613 270.611C288.868 282.445 288.866 295.134 275.612 301.413C266.051 305.942 228.163 310.781 225.01 300.813C223.241 295.223 228.447 295.892 227.697 291.35C227.235 288.551 224.941 286.036 225.21 283.212C225.447 280.711 228.668 279.226 229.085 276.749C230.045 271.042 227.21 264.477 230.01 259.411C230.034 259.367 265.6 248.519 273.212 245.61C265.921 233.308 269.34 229.291 273.612 218.009C264.65 222.877 259.294 216.29 249.211 215.209C250.419 208.604 266.955 185.08 272.912 195.258ZM525.422 237.81C528.069 240.906 532.918 241.05 536.823 242.21C551.427 246.549 553.013 244.333 551.123 228.86C549.023 211.658 524.494 210.734 517.622 192.408C549.726 199.212 568.402 215.415 556.374 249.011C551.928 261.428 565.849 266.394 550.423 271.611C554.977 274.947 560.712 288.204 552.398 290.812C549.386 291.757 542.998 289.031 541.173 287.962C508.13 268.605 508.985 247.48 512.022 212.809C520.418 216.266 519.83 231.269 525.422 237.81ZM457.019 218.009C443.018 222.963 433.358 203.182 448.219 197.408C461.535 192.235 470.501 213.239 457.019 218.009ZM562.224 251.161C565.552 236.222 567.799 238.1 566.624 222.759C565.877 213.004 558.631 205.533 556.024 196.408C571.937 200.867 587.505 208.406 604.026 208.809C598.102 220.262 594.342 211.671 593.625 226.01C602.46 223.294 634.167 208.157 640.827 223.609C618.646 229.214 596.982 225.499 592.025 252.411C604.445 252.187 616.893 256.091 629.227 254.611C645.183 252.696 645.001 232.775 658.828 230.01C658.828 240.01 658.828 240.01 658.828 250.011C647.481 251.102 624.869 257.247 621.139 270.674C618.982 278.435 621.814 285.293 613.826 288.862C607.605 291.641 603.178 292.475 596.225 293.412C587.579 294.578 578.927 295.795 570.224 296.413C552.71 297.655 560.198 276.075 576.824 280.412C572.775 273.247 565.548 274.244 562.824 266.411C572.336 265.128 575.331 267.377 578.424 260.011C568 259.578 559.584 263.011 562.224 251.161ZM430.968 212.009C431.122 214.885 432.153 223.024 428.834 225.53C424.924 228.481 406.723 228.19 404.417 228.41C403.471 219.105 398.653 206.268 406.617 199.208C420.687 194.659 430.255 198.692 430.968 212.009ZM377.566 217.009C363.668 224.324 353.302 204.777 367.216 198.408C377.207 193.835 388.483 211.264 377.566 217.009ZM97.6041 202.809C88.9038 204.309 88.9038 204.309 80.2034 205.809C85.9597 201.764 93.3251 195.487 97.6041 202.809ZM106.605 204.009C103.666 212.825 90.9218 221.78 82.5535 214.109C90.4316 210.502 98.2742 206.508 106.605 204.009ZM68.8029 208.409C79.6712 232.785 90.0177 222.523 110.805 216.409C109.779 220.855 103.198 222.25 100.104 226.26C96.0732 231.484 97.3304 241.55 97.2041 246.81C79.296 240.881 59.9893 229.562 68.8029 208.409ZM330.414 221.209C331.337 214.913 330.55 217.228 331.814 214.009C344.15 215.356 334.646 220.403 330.414 221.209ZM532.423 226.01C532.423 223.684 532.382 221.782 533.223 219.609C541.838 223.376 538.686 225.43 532.423 226.01ZM56.6024 218.809C57.7252 224.423 52.3841 241.61 46.0019 241.61C47.1712 233.364 49.0118 223.64 56.6024 218.809ZM255.073 219.734C255.321 220.231 257.21 223.308 256.011 224.009C249.266 227.954 241.877 230.676 234.81 234.01C239.021 226.289 246.279 220.941 255.073 219.734ZM63.6027 222.809C65.4852 228.418 68.576 233.998 68.3529 239.91C59.7031 240.468 59.8334 227.992 63.6027 222.809ZM342.815 231.21C338.23 230.139 331.03 230.609 332.814 224.81C340.293 223.159 341.869 225.538 342.815 231.21ZM682.829 246.11C678.577 253.274 678.258 255.042 670.028 255.211C671.827 252.884 682.58 240.248 674.429 238.21C672.043 237.614 668.455 241.21 665.228 241.21C665.228 218.829 692.453 229.897 682.829 246.11ZM543.31 227.747C547.398 230.15 546.166 233.111 546.823 238.41C543.4 237.79 537.223 238.332 537.223 233.61C541.806 233.27 541.466 231.245 543.31 227.747ZM634.827 230.81C639.627 231.11 639.627 231.11 644.427 231.41C642.641 238.107 638.897 244.795 631.627 246.41C634.392 240.533 634.827 237.236 634.827 230.81ZM261.211 238.01C256.311 236.54 254.878 237.171 255.611 232.41C261.532 231.386 260.664 231.931 261.211 238.01ZM625.514 238.223C623.109 244.236 618.511 240.766 618.626 236.21C618.807 229.084 626.4 236.008 625.514 238.223ZM336.614 240.01C332.85 245.329 312.999 242.44 321.214 235.21C323.706 233.017 341.187 233.548 336.614 240.01ZM444.419 234.01C445.988 231.39 452.154 232.329 453.519 235.06C459.198 246.419 451.873 266.709 446.419 243.21C445.709 240.153 442.806 236.702 444.419 234.01ZM458.819 234.01C465.977 234.606 472.059 243.531 462.907 246.673C460.5 242.801 459.883 238.418 458.819 234.01ZM428.418 235.61C441.801 235.61 440.891 242.731 442.419 255.211C436.618 255.211 436.618 255.211 430.818 255.211C431.272 248.403 428.418 242.325 428.418 235.61ZM342.014 246.81C345.094 244.198 345.407 240.625 347.765 238.11C349.817 235.921 359.535 236.479 362.815 236.01C356.207 254.182 349.27 259.3 330.014 257.611C330.014 251.874 338.072 250.154 342.014 246.81ZM426.418 255.211C419.218 255.611 419.218 255.611 412.017 256.011C412.017 228.813 423.258 229.681 426.418 255.211ZM378.816 236.41C379.861 237.768 374.146 256.604 368.516 257.836C354.538 260.894 363.445 238.861 370.616 236.61C373.224 235.791 377.149 234.243 378.816 236.41ZM392.817 236.81C391.57 249.023 392.911 256.411 379.616 256.411C382.501 240.351 378.652 237.032 392.817 236.81ZM407.617 236.81C403.98 248.632 410.219 256.142 395.617 256.411C396.555 244.915 394.925 236.81 407.617 236.81ZM246.21 238.01C249.888 240.883 252.819 244.605 256.011 248.01C248.436 251.1 245.127 251.596 236.81 252.011C238.946 246.884 242.021 241.716 246.21 238.01ZM316.413 250.411C309.588 250.234 306.509 249.234 309.413 242.41C316.658 238.367 316.413 246.613 316.413 250.411ZM97.2041 262.411C81.475 250.407 64.3216 252.363 45.2019 254.011C45.2019 251.211 45.2019 251.211 45.2019 248.411C58.8051 248.127 96.4316 240.501 97.2041 262.411ZM732.581 262.861C739.27 267.919 745.118 267.912 749.832 274.812C752.449 278.642 752.716 289.154 753.182 291.012C754.321 295.557 760.36 303.354 752.532 305.25C750.884 301.309 746.938 298.636 745.219 294.725C742.389 288.288 747.129 281.856 740.431 275.812C736.178 271.973 730.724 273.272 726.731 269.811C722.616 266.245 722.931 260.273 718.13 256.961C712.441 253.035 702.261 253.221 698.63 247.41C715.698 245.441 719.747 253.157 732.581 262.861ZM297.413 288.612C291.386 283.59 300.71 277.872 301.813 274.012C302.773 270.65 298.204 268.494 298.413 265.411C298.66 261.765 304.547 260.877 302.813 256.811C310.394 260.035 318.186 262.859 325.414 266.811C324.019 272.391 303.853 293.979 297.413 288.612ZM669.428 265.811C678.307 272.423 686.246 290.869 690.829 301.013C693.097 306.031 696.289 320.044 692.829 324.614C687.997 330.995 671.639 325.173 672.828 314.813C670.428 315.48 667.983 316.001 665.628 316.813C661.624 318.196 637.575 324.968 646.177 316.013C650.335 311.686 654.878 307.746 659.228 303.613C657.795 303.963 656.316 304.163 654.928 304.663C650.914 306.108 647.135 308.2 643.052 309.438C641.896 309.789 640.553 309.803 639.427 309.363C627.153 304.564 654.824 292.156 658.028 283.612C649.669 288.274 641.311 293.199 632.227 296.213C629.356 284.092 647.692 281.737 649.227 272.012C638.027 278.312 638.027 278.312 626.827 284.612C625.927 262.136 652.48 253.19 669.428 265.811ZM47.077 261.399C48.0076 260.433 63.3015 259.422 66.4403 259.261C79.1598 258.607 107.91 269.841 82.4035 280.412C82.6035 276.012 82.6035 276.012 82.8035 271.611C78.0033 275.212 78.0033 275.212 73.2031 278.812C72.2031 274.012 72.2031 274.012 71.203 269.211C69.209 272.342 67.901 277.228 64.2527 277.912C63.3277 274.762 63.3277 274.762 62.4026 271.611C57.6876 279.187 60.3031 276.56 55.6024 280.412C52.8933 277.087 54.6314 279.628 52.8022 271.611C44.5943 282.555 42.6374 266.006 47.077 261.399ZM446.419 260.811C441.932 272.231 417.52 269.163 408.817 269.211C407.149 269.221 399.181 269.664 397.971 267.333C397.145 265.743 397.468 263.785 397.217 262.011C413.783 261.918 429.932 261.635 446.419 260.811ZM369.916 280.862C367.308 281.825 359.573 279.188 362.015 275.212C365.404 269.695 373.871 265.374 380.016 264.611C401.519 261.942 374.62 279.123 369.916 280.862ZM694.979 295.513C691.909 286.844 685.531 279.903 681.629 271.611C697.774 277.626 711.34 306.689 698.43 321.214C697.012 312.505 697.966 303.946 694.979 295.513ZM452.082 286.925C456.46 281.573 463.546 283.625 469.62 282.212C485.71 278.468 470.846 271.449 493.921 276.712C503.39 278.871 507.741 276.547 510.022 285.212C504.121 283.662 498.245 282.017 492.321 280.562C474.879 276.278 484.989 286.378 474.42 288.162C469.298 289.027 461.462 288.169 457.019 292.412C450.247 298.881 450.146 315.631 440.419 318.013C442.233 307.516 445.206 295.328 452.082 286.925ZM301.663 312.713C295.637 316.542 309.744 322.159 304.013 326.214C299.802 329.193 293.743 307.279 298.875 302.063C306.568 294.243 314.764 286.922 323.064 279.749C324.801 278.248 328.926 275.93 331.614 275.212C342.889 272.199 354.174 275.466 361.365 284.462C363.608 287.268 364.812 298.24 358.215 295.413C354.203 293.693 357.779 288.157 351.615 286.812C352.849 291.968 353.412 294.884 352.652 300C349.044 299.491 346.85 295.523 344.415 292.812C344.806 303.512 345.699 298.461 342.014 308.013C337.149 303.224 333.04 296.816 326.614 294.512C327.229 301.423 332.126 306.118 332.414 313.213C321.214 308.213 321.214 308.213 310.013 303.213C311.765 309.952 306.694 309.516 301.663 312.713ZM428.818 279.212C427.089 304.567 428.761 300.61 402.017 300.813C402.017 273.621 399.889 277.549 428.818 279.212ZM93.0789 284.925C96.3939 292.053 97.9 301.197 104.404 305.613C115.882 313.405 128.804 319.601 138.406 329.614C132.832 332.268 112.636 354.867 126.005 359.215C125.403 361.779 123.482 365.648 125.555 368.366C128.921 372.777 136.103 375.29 136.606 380.816C137.29 388.333 130.239 394.633 128.618 402.005C125.979 414.007 126.008 426.461 123.905 438.569C122.752 445.209 111.515 442.698 111.205 448.369C110.926 453.466 112.138 458.536 112.605 463.62C104.004 455.719 104.004 455.719 95.404 447.819C93.644 452.142 92.642 458.677 88.1037 459.769C86.596 455.133 87.7412 449.725 89.6038 445.219C84.0036 445.019 84.0036 445.019 78.4033 444.819C82.3688 430.039 73.4024 430.41 61.6526 432.568C62.2276 440.094 62.2276 440.094 62.8027 447.619C66.1528 446.519 66.1528 446.519 69.5029 445.419C70.628 446.861 73.2527 447.954 72.8781 449.744C72.0208 453.84 67.5018 456.445 66.3528 460.469C65.5118 463.415 66.9195 466.57 67.2028 469.62C63.0027 469.82 63.0027 469.82 58.8025 470.02C61.8026 476.42 61.8026 476.42 64.8027 482.82C59.8046 481.41 55.2762 478.441 51.2022 475.22C46.7341 483.532 50.1503 481.081 41.1642 482.858C40.983 479.039 40.983 479.039 40.8017 475.22C28.5099 485.152 19.6373 493.169 42.0018 494.021C42.0018 492.021 42.0018 492.021 42.0018 490.021C46.1772 490.78 48.6665 495.554 50.8022 499.221C56.4707 495.362 62.479 491.368 69.2029 490.021C65.2028 495.821 65.2028 495.821 61.2026 501.621C67.2823 506.236 75.2696 507.996 82.8035 509.222C79.1292 513.533 73.1786 515.82 67.6029 516.822C68.8029 525.022 68.8029 525.022 70.003 533.223C67.1737 532.272 60.9624 529.989 61.0526 532.973C61.2189 538.475 63.0193 543.806 64.0027 549.223C72.8031 544.823 72.8031 544.823 81.6035 540.423C78.7033 539.023 78.7033 539.023 75.8032 537.623C81.1613 528.587 77.3999 531.846 87.0662 527.822C84.9423 518.038 84.5097 522.221 86.4037 515.222C92.2421 523.85 88.2509 521.517 98.0041 522.822C98.0041 524.022 98.0041 524.022 98.0041 525.222C101.994 524.724 103.942 519.585 105.804 516.022C108.673 519.8 106.356 525.763 104.704 530.21C108.987 532.079 114.224 534.559 115.605 539.023C114.605 539.323 114.605 539.323 113.605 539.623C115.399 546.801 121.7 552.123 128.855 552.673C131.202 546.937 132.171 540.616 132.406 534.423C129.137 535.416 129.137 535.416 125.868 536.41C123.728 530.394 127.749 523.732 129.605 517.622C125.451 516.88 120.831 517.446 117.142 515.397C115.367 514.411 115.851 511.547 115.205 509.622C119.205 510.822 119.205 510.822 123.205 512.022C123.205 509.022 123.205 509.022 123.205 506.021C126.005 506.021 126.005 506.021 128.805 506.021C128.405 502.221 128.405 502.221 128.005 498.421C133.342 500.823 136.677 506.476 139.806 511.422C147.589 503.065 142.965 505.375 153.206 503.621C151.79 514.605 151.251 525.738 148.956 536.573C147.63 542.835 144.004 548.425 142.406 554.623C142.379 554.728 140.071 564.826 143.181 567.112C149.501 571.756 156.545 575.597 162.007 581.225C92.2039 581.425 92.2039 581.425 22.4009 581.625C22.4009 471.82 22.4009 471.82 22.4009 362.015C30.9465 368.23 28.0398 364.271 31.5513 373.566C49.9627 373.143 57.7929 384.225 76.9533 368.616C78.4656 367.384 86.8063 359.629 87.0037 355.015C87.2607 349.009 86.6457 342.846 88.1037 337.014C79.2455 331.132 80.6101 316.857 68.8029 314.613C71.4265 301.12 77.8677 287.261 93.0789 284.925ZM544.023 302.013C536.152 300.802 527.871 296.008 525.822 287.812C534.291 290.299 539.732 294.146 544.023 302.013ZM731.031 333.414C744.194 326.557 755.986 317.266 767.67 308.113C770.501 305.895 774.827 298.794 777.233 295.012C777.633 437.119 777.633 437.119 778.033 579.225C660.828 579.625 660.828 579.625 543.623 580.025C548.14 578.674 552.478 576.392 557.174 575.974C569.526 574.877 589.238 579.538 590.075 573.112C594.144 541.874 587.163 518.771 602.343 491.857C606.854 494.445 612.696 495.506 615.876 499.621C619.524 504.343 619.983 510.845 621.476 516.622C623.85 525.799 607.828 527.528 610.826 542.823C612.148 549.569 612.82 557.011 616.926 562.524C618.978 565.279 623.593 564.463 627.027 564.574C641.22 565.032 655.475 565.386 669.628 564.224C677.4 563.586 688.737 563.665 691.692 556.449C699.907 536.388 693.956 520.84 694.517 498.534C694.748 489.326 703.267 481.929 704.63 472.82C706.146 462.688 693.784 462.016 690.029 456.419C686.089 450.547 695.45 440.339 697.23 437.619C700.762 447.263 705.448 456.888 712.43 464.42C713.685 454.548 707.923 444.793 703.23 436.018C710.755 442.175 710.755 442.175 718.28 448.331C719.168 446.106 722.206 443.692 720.943 441.656C717.266 435.73 710.601 432.297 705.43 427.618C716.33 428.418 716.33 428.418 727.231 429.218C726.553 426.745 725.255 413.309 719.53 410.567C716.533 409.131 712.311 410.43 709.843 408.205C706.989 405.633 706.146 401.379 705.205 397.654C703.771 391.981 704.176 385.949 702.78 380.266C701.817 376.347 698.464 373.092 698.18 369.066C697.744 362.903 701.084 356.868 700.692 350.702C700.35 345.322 697.584 340.377 696.029 335.214C709.407 337.427 717.267 340.584 731.031 333.414ZM589.225 300.413C583.57 307.199 565.669 317.099 556.824 313.413C551.831 311.333 554.831 304.276 559.536 303.838C566.573 303.183 572.329 303.214 579.025 301.813C587.075 300.438 587.075 300.438 589.225 300.413ZM629.227 300.413C625.317 313.661 606.366 314.104 595.175 317.213C585.088 320.016 575.149 323.351 565.024 326.014C555.135 328.614 553.639 328.977 551.423 320.214C577.088 312.634 603.231 306.715 629.227 300.413ZM284.562 323.114C287.728 315.292 283.544 307.794 292.812 305.613C292.833 306.614 292.412 317.871 293.812 321.614C295.183 325.279 298.886 328.53 298.413 332.414C297.038 343.689 282.394 354.009 272.012 355.215C269.393 355.519 270.714 352.838 268.961 351.715C262.173 347.366 257.67 346.985 250.811 350.415C252.427 345.697 257.063 342.626 259.811 338.464C263.434 332.98 254.975 329.908 261.211 323.614C263.854 334.867 262.811 339.196 274.012 341.214C273.784 329.797 280.989 331.941 284.562 323.114ZM423.568 344.715C409.58 347.653 395.539 359.814 381.216 357.015C364.158 353.682 355.568 345.202 344.965 333.014C342.407 330.074 337.039 332.593 335.864 328.514C334.693 324.449 343.916 323.591 344.215 323.414C360.698 313.64 366.44 307.958 385.47 307.371C399.539 306.936 413.62 306.629 427.693 306.888C430.416 322.466 437.999 336.663 453.894 341.539C447.985 354.203 432.001 342.943 423.568 344.715ZM270.011 324.814C269.811 319.014 269.811 319.014 269.611 313.213C280.717 311.194 275.424 321.483 270.011 324.814ZM233.61 313.613C235.41 315.013 235.41 315.013 237.21 316.413C235.61 316.213 235.61 316.213 234.01 316.013C234.21 319.614 234.21 319.614 234.41 323.214C230.81 322.414 230.81 322.414 227.21 321.614C226.685 325.114 226.685 325.114 226.16 328.614C224.685 328.114 224.685 328.114 223.209 327.614C223.209 330.814 223.209 330.814 223.209 334.014C221.209 333.414 221.209 333.414 219.209 332.814C219.209 336.414 219.209 336.414 219.209 340.014C215.809 338.814 215.809 338.814 212.409 337.614C213.209 341.414 213.209 341.414 214.009 345.215C209.409 343.815 209.409 343.815 204.809 342.414C205.609 345.615 205.609 345.615 206.409 348.815C203.009 347.815 203.009 347.815 199.608 346.815C199.408 350.015 199.408 350.015 199.208 353.215C195.008 351.815 195.008 351.815 190.808 350.415C190.808 353.415 190.808 353.415 190.808 356.415C187.608 355.015 187.608 355.015 184.408 353.615C184.208 356.215 184.208 356.215 184.008 358.815C181.208 356.615 181.208 356.615 178.408 354.415C178.208 357.615 178.208 357.615 178.008 360.815C174.007 358.615 174.007 358.615 170.007 356.415C170.007 359.015 170.007 359.015 170.007 361.615C166.607 360.215 166.607 360.215 163.207 358.815C162.807 361.015 162.807 361.015 162.407 363.215C159.516 361.047 161.278 362.682 158.407 357.215C155.242 360.379 156.903 358.414 153.807 363.415C152.706 361.515 152.706 361.515 151.606 359.615C146.794 363.1 148.983 362.294 145.606 363.215C145.806 360.815 145.806 360.815 146.006 358.415C142.606 358.415 142.606 358.415 139.206 358.415C141.206 355.215 141.206 355.215 143.206 352.015C141.406 351.615 141.406 351.615 139.606 351.215C142.594 348.408 142.594 348.408 145.581 345.602C144.31 342.906 145.335 344.367 141.606 342.014C147.473 338.281 145.339 341.081 146.006 332.414C148.606 334.414 148.606 334.414 151.206 336.414C154.021 331.722 154.708 333.598 160.407 336.014C160.207 333.814 160.207 333.814 160.007 331.614C162.986 333.657 161.338 332.244 164.407 336.414C167.493 331.113 168.224 332.446 174.007 334.814C174.207 331.014 174.207 331.014 174.407 327.214C178.008 329.214 178.008 329.214 181.608 331.214C182.208 329.214 182.208 329.214 182.808 327.214C186.408 328.414 186.408 328.414 190.008 329.614C190.408 327.414 190.408 327.414 190.808 325.214C193.008 327.214 193.008 327.214 195.208 329.214C197.208 326.014 197.208 326.014 199.208 322.814C203.673 327.69 205.648 328.473 206.809 321.214C210.009 323.414 210.009 323.414 213.209 325.614C213.209 323.014 213.209 323.014 213.209 320.414C216.609 321.814 216.609 321.814 220.009 323.214C220.209 319.614 220.209 319.614 220.409 316.013C223.809 318.013 223.809 318.013 227.21 320.014C227.657 315.537 228.518 316.494 233.61 316.013C233.61 314.813 233.61 314.813 233.61 313.613ZM247.21 313.613C251.279 314.363 251.279 314.363 255.348 315.113C253.713 325.094 249.089 330.135 242.01 337.214C242.982 329.443 248.633 320.724 247.21 313.613ZM514.822 341.614C514.497 345.363 514.177 349.129 513.422 352.815C512.311 358.235 505.084 351.57 504.221 349.815C501.687 344.662 501.864 329.854 497.571 330.964C489.742 332.989 501.228 350.241 497.071 353.965C491.63 358.84 483.703 336.744 483.52 333.464C482.988 323.901 513.751 314.541 521.022 314.313C523.116 314.248 536.45 313.225 537.96 315.96C541.575 322.509 544.741 331.019 544.623 338.714C544.579 341.591 541.027 348.073 537.223 344.615C532.342 340.177 532.076 331.993 528.422 326.414C526 333.795 529.118 337.774 529.71 345.752C529.972 349.286 523.436 353.42 521.622 350.015C518.628 344.394 517.355 338.014 515.222 332.014C515.088 335.214 515.098 338.423 514.822 341.614ZM608.026 323.614C609.018 320.24 609.432 317.419 613.226 316.413C624.824 318.759 618.517 326.237 608.026 323.614ZM52.8022 328.814C55.6524 326.439 55.6524 326.439 58.5025 324.064C59.2525 327.039 59.2525 327.039 60.0025 330.014C63.6027 328.814 63.6027 328.814 67.2028 327.614C65.8028 331.414 65.8028 331.414 64.4027 335.214C67.2028 336.214 67.2028 336.214 70.003 337.214C67.8029 340.814 67.8029 340.814 65.6028 344.415C67.8029 345.415 67.8029 345.415 70.003 346.415C66.6074 349.471 68.8947 348.119 62.4026 348.815C64.4077 353.919 62.7869 350.913 68.8029 356.815C63.6027 355.615 63.6027 355.615 58.4025 354.415C59.2025 358.215 59.2025 358.215 60.0025 362.015C55.4023 359.215 55.4023 359.215 50.8022 356.415C50.2021 359.015 50.2021 359.015 49.6021 361.615C44.1157 358.549 47.005 356.072 39.6017 359.215C39.6017 356.415 39.6017 356.415 39.6017 353.615C36.0015 354.815 36.0015 354.815 32.4014 356.015C34.0014 352.015 34.0014 352.015 35.6015 348.015C32.8014 347.215 32.8014 347.215 30.0013 346.415C34.4015 343.015 34.4015 343.015 38.8016 339.614C32.9923 338.545 35.1471 339.552 31.9389 337.664C34.7288 333.021 32.5964 334.598 39.2017 334.414C38.0016 329.614 38.0016 329.614 36.8016 324.814C41.6018 326.014 41.6018 326.014 46.402 327.214C48.1376 319.114 50.842 322.216 52.8022 328.814ZM604.026 325.614C602.626 329.614 602.626 329.614 601.225 333.614C590.515 327.812 591.744 321.684 604.026 325.614ZM597.475 383.816C590.777 365.428 579.225 347.584 579.225 328.014C582.656 328.938 584.408 333.163 585.725 336.464C589.067 344.847 592.142 353.334 595.225 361.815C599.31 373.052 603.226 384.35 607.226 395.617C601.752 393.488 599.522 389.434 597.475 383.816ZM567.224 330.814C567.424 333.614 567.424 333.614 567.624 336.414C563.829 336.122 561.605 335.718 559.024 332.814C564.531 331.241 561.796 331.9 567.224 330.814ZM616.426 333.614C619.49 335.783 624.11 337.43 624.826 341.114C616.575 345.584 611.965 342.537 616.426 333.614ZM427.018 560.024C426.03 562.108 421.434 573.157 415.418 572.624C406.607 571.844 398.061 568.5 389.216 568.424C366.804 568.232 344.409 570.087 322.064 571.824C312.647 572.556 303.434 575.159 294.012 575.824C289.155 576.167 282.993 574.838 280.704 569.763C279.565 567.238 279.664 564.294 279.612 561.524C278.933 525.177 278.293 488.822 278.512 452.469C278.56 444.427 280.746 436.453 280.412 428.418C280.083 420.506 276.863 412.892 276.537 404.98C276.25 398.018 278.901 391.139 278.587 384.179C278.323 378.352 275.144 372.914 274.824 367.091C274.357 358.604 288.393 356.846 295.012 351.515C309.37 339.952 311.584 330.475 331.214 335.564C340.942 338.086 345.039 350.502 353.615 355.74C362.344 361.072 373.097 362.047 382.566 365.915C397.534 372.03 410.929 382.952 426.868 385.666C446.784 389.058 467.262 382.902 487.446 383.779C495.47 384.127 502.866 389.458 510.897 389.316C534.29 388.903 557.465 381.261 580.8 382.966C580.902 397.977 582.274 417.002 579.225 432.618C578.096 438.398 574.268 443.733 574.424 449.619C574.811 464.172 578.691 478.42 580.825 492.821C569.153 492.683 574.925 491.526 563.624 496.821C565.424 493.021 565.424 493.021 567.224 489.221C558.323 485.57 551.943 493.512 542.423 494.821C548.023 488.221 548.023 488.221 553.623 481.62C546.048 481.319 538.755 486.1 532.823 490.821C528.972 487.102 528.972 487.102 525.122 483.383C527.225 479.414 527.732 474.024 531.43 471.476C536.034 468.304 545.557 470.264 546.823 464.82C540.723 464.22 540.723 464.22 534.623 463.62C533.423 448.623 549.989 461.27 554.423 448.419C549.623 448.419 549.623 448.419 544.823 448.419C545.505 439.055 555.021 443.578 560.174 438.269C564.116 434.206 564.874 427.968 567.224 422.818C555.424 424.918 555.424 424.918 543.623 427.018C543.914 435.026 545.173 431.275 538.285 437.619C536.754 432.818 536.754 432.818 535.223 428.018C533.318 428.5 533.318 428.5 531.412 428.983C530.756 436.935 529.287 445.999 523.622 451.619C522.222 441.619 522.222 441.619 520.822 431.618C518.96 432.125 515.916 431.333 515.237 433.139C512.733 439.799 515.816 448.096 512.302 454.283C510.245 457.904 504.781 459.389 500.659 458.807C497.292 458.332 496.336 453.369 493.421 451.619C491.257 450.32 488.487 450.552 486.021 450.019C488.487 443.902 491.386 437.942 493.421 431.668C494.861 427.227 491.889 426.91 488.821 424.818C485.521 431.818 485.521 431.818 482.22 438.819C468.267 435.563 490.126 421.6 475.62 415.218C474.12 420.118 474.12 420.118 472.62 425.018C469.393 419.985 470.151 412.879 466.47 408.167C463.188 403.967 457.636 402.2 453.219 399.217C453.353 404.267 452.212 409.515 453.619 414.368C454.322 416.791 457.892 417.363 459.119 419.568C460.531 422.104 460.519 425.201 461.22 428.018C456.419 427.618 456.419 427.618 451.619 427.218C452.675 438.715 462.418 432.383 467.62 442.019C460.419 441.619 460.419 441.619 453.219 441.219C453.29 442.931 452.024 445.377 453.431 446.356C458.669 449.999 466.963 448.83 471.122 453.669C474.292 457.358 474.066 463.72 472.22 468.22C470.731 471.85 465.711 472.603 462.457 474.795C457.283 468.563 452.025 455.215 443.319 462.707C448.269 469.964 448.269 469.964 453.219 477.22C438.581 476.531 440.007 463.368 428.418 468.42C430.818 472.82 430.818 472.82 433.218 477.22C426.756 483.683 423.555 473.399 419.018 474.22C412.589 475.384 407.151 479.687 401.217 482.42C411.117 487.221 411.117 487.221 421.018 492.021C423.904 488.042 429.904 486.935 434.818 486.821C431.118 492.121 431.118 492.121 427.418 497.421C441.025 503.521 438.966 489.88 453.619 488.821C450.669 493.204 447.368 497.371 444.769 501.971C443.117 504.894 446.361 505.96 448.031 507.259C453.344 502.646 457.423 495.998 463.97 493.421C467.039 492.213 470.003 496.088 473.02 497.421C471.998 500.546 471.018 508.167 466.27 509.572C459.504 511.573 452.369 512.005 445.419 513.222C445.175 515.378 445.175 515.378 444.931 517.534C452.619 518.397 452.619 518.397 460.307 519.259C461.026 529.247 442.948 519.277 438.419 532.023C443.819 532.223 443.819 532.223 449.219 532.423C447.633 541.641 443.057 540.706 434.818 539.223C432.218 546.156 430.191 553.333 427.018 560.024ZM646.627 341.614C635.169 346.198 626.831 356.26 615.626 361.815C613 363.117 604.368 367.147 602.2 363.415C601.771 362.675 600.674 359.935 602.163 359.115C606.976 356.466 612.211 354.666 617.189 352.34C623.251 349.507 625.836 347.461 632.227 343.415C643.744 336.101 644.875 338.109 646.627 341.614ZM605.776 349.065C599.836 354.403 591.12 349.68 596.625 342.815C604.249 333.307 608.497 346.619 605.776 349.065ZM230.81 339.214C235.013 344.819 235.792 355.211 228.01 358.415C227.927 353.501 225.717 343.176 230.81 339.214ZM246.01 342.014C244.902 355.772 239.336 370.349 224.81 374.416C225.814 371.845 243.892 343.108 246.01 342.014ZM405.967 356.465C412.48 354.027 417.806 350.922 424.843 350.765C429.969 350.65 433.928 355.521 439.281 354.202C443.218 353.233 447.159 352.256 451.019 351.015C457.009 349.09 473.852 337.836 478.02 348.015C462.62 353.815 462.62 353.815 447.219 359.615C448.519 362.815 448.519 362.815 449.819 366.015C441.137 369.736 428.498 379.033 418.768 374.466C410.272 370.478 401.867 366.299 393.417 362.215C396.513 358.234 401.048 358.306 405.967 356.465ZM570.024 343.615C569.424 347.615 569.424 347.615 568.824 351.615C565.024 349.815 565.024 349.815 561.224 348.015C563.441 343.58 565.177 343.312 570.024 343.615ZM655.928 345.315C673.689 359 663.35 362.805 657.628 355.565C654.634 351.777 651.195 351.07 652.228 346.415C652.847 343.623 653.358 343.335 655.928 345.315ZM569.224 371.616C566.789 374.272 563.365 372.83 564.324 369.316C566.34 361.925 569.27 353.811 575.024 348.815C580.905 343.709 572.214 368.355 569.224 371.616ZM549.223 347.615C556.273 351.46 557.95 352.571 554.423 360.015C549.823 357.815 549.823 357.815 545.223 355.615C547.223 351.615 547.223 351.615 549.223 347.615ZM658.828 364.815C651.184 367.682 646.102 358.071 643.027 352.215C651.23 345.835 653.241 357.038 658.828 364.815ZM220.184 364.628C220.485 369.281 217.11 374.592 214.247 377.928C207.538 385.746 197.811 375.382 190.008 375.816C186.358 376.019 177.918 383.592 176.057 381.016C167.725 369.478 184.383 373.01 188.008 371.716C190.316 370.891 190.939 368.224 193.208 367.216C199.398 364.465 210.291 364.621 214.209 358.615C216.829 354.599 220.041 362.411 220.184 364.628ZM645.302 373.553C640.657 371.283 632.653 363.467 636.427 358.015C642.911 360.65 649.169 368.478 645.302 373.553ZM504.821 362.015C504.821 361.215 504.821 361.215 504.821 360.415C516.604 361.815 526.648 359.367 537.473 365.265C540.858 367.11 552.637 371.389 553.473 376.366C539.956 379.4 525.393 383.715 511.622 382.216C504.804 381.474 499.852 376.296 492.871 375.766C475.142 374.419 457.387 378.191 439.619 378.816C440.636 371.186 453.289 371.564 460.619 369.216C459.319 366.015 459.319 366.015 458.019 362.815C476.431 357.555 485.287 358.473 504.821 362.015ZM260.611 359.015C255.542 361.831 249.731 363.04 244.21 364.815C248.412 360.066 254.653 359.426 260.611 359.015ZM624.226 366.416C623.299 353.697 637.059 373.304 637.627 378.416C634.427 378.816 634.427 378.816 631.227 379.216C630.588 374.11 624.579 371.249 624.226 366.416ZM687.229 365.215C687.229 368.16 659.142 376.537 654.028 376.816C661.517 367.101 675.847 365.215 687.229 365.215ZM623.826 373.216C637.285 394.526 607.199 375.175 616.226 367.216C619.974 363.911 620.79 368.409 623.826 373.216ZM261.611 369.616C258.75 378.2 247.204 387.629 237.648 386.274C230.98 385.329 228.871 376.941 234.535 373.378C239.253 370.411 243.319 375.279 248.611 371.616C254.335 369.02 256.691 369.524 261.611 369.616ZM616.426 387.166C608.545 387.924 604.561 378.03 606.226 370.816C612.411 371.013 616.839 381.689 616.426 387.166ZM171.007 384.416C170.682 384.904 169.893 384.847 169.307 384.866C162.026 385.109 158.754 381.227 151.206 382.816C151.424 380.206 151.716 378.503 153.006 376.216C158.067 375.241 176.544 376.111 171.007 384.416ZM238.21 404.617C240.327 402.083 240.616 398.464 241.973 395.454C245.551 387.514 256.064 382.198 263.811 379.616C271.613 396.596 243.796 411.109 230.41 412.417C231.537 403.234 232.892 410.983 238.21 404.617ZM190.808 382.416C196.618 384.353 201.928 396.017 193.208 396.017C193.208 391.114 191.337 387.18 190.808 382.416ZM215.209 383.216C221.432 386.594 219.493 389.663 213.609 392.017C214.409 387.616 214.409 387.616 215.209 383.216ZM188.408 403.617C181.439 401.294 180.415 391.883 181.808 385.616C189.571 389.207 188.321 397.13 188.408 403.617ZM158.007 385.616C162.866 388.105 163.234 391.944 165.207 397.217C157.443 397.217 158.273 392.283 158.007 385.616ZM216.409 396.617C219.772 393.341 221.624 389.922 224.61 386.416C226.161 393.786 223.645 397.042 216.409 396.617ZM203.409 388.616C211.117 392.174 205.731 404.017 198.008 404.017C198.585 399.403 201.394 392.934 203.409 388.616ZM175.807 391.617C179.162 395.45 179.974 402.494 182.808 407.217C174.464 406.318 165.858 398.012 175.807 391.617ZM163.207 402.417C157.289 403.896 147.518 399.401 152.406 392.417C157.522 395.311 160.266 398.966 163.207 402.417ZM230.01 394.417C229.79 402.615 229.629 404.326 221.209 404.017C223.932 400.75 226.501 396.894 230.01 394.417ZM694.429 398.817C693.957 403.018 686.374 401.385 682.379 402.767C677.635 404.409 673.434 407.471 668.616 408.88C662.658 410.622 657.067 404.509 651.228 404.617C642.616 404.777 641.1 413.158 634.577 417.268C629.907 420.21 624.191 417.827 619.239 419.83C611.603 422.918 616.119 422.356 609.394 426.44C604.383 429.483 584.845 427.778 584.025 421.218C588.962 421.322 593.9 421.62 598.838 421.53C606.992 421.382 611.831 415.947 619.501 413.43C623.876 411.994 628.869 412.918 633.127 411.167C638.88 408.802 642.986 402.989 648.977 401.317C663.932 397.144 665.064 406.741 680.429 396.217C684.916 395.458 695.048 393.315 694.429 398.817ZM261.361 403.367C260.165 409.687 256.103 413.217 249.611 413.217C252.614 410.322 257.03 404.421 261.361 403.367ZM147.206 404.017C151.46 406.197 155.978 408.107 159.607 411.217C152.494 413.588 150.471 410.185 147.206 404.017ZM138.806 404.817C143.617 408.426 146.584 413.209 150.406 418.018C140.921 417.425 138.806 413.911 138.806 404.817ZM210.009 405.217C213.625 406.792 225.819 414.106 214.809 417.218C213.98 412.245 212.973 409.17 210.009 405.217ZM204.409 410.017C209.95 410.017 209.609 413.496 209.609 418.018C205.755 417.048 205.51 413.505 204.409 410.017ZM196.808 410.817C202.77 413.755 203.247 415.918 202.609 422.618C201.709 422.818 201.709 422.818 200.808 423.018C198.693 419.164 197.91 415.068 196.808 410.817ZM176.407 412.417C175.607 417.618 175.607 417.618 174.807 422.818C170.464 418.746 168.817 412.839 176.407 412.417ZM185.608 412.417C184.095 415.948 184.095 419.288 185.608 422.818C180.684 419.383 175.436 413.415 185.608 412.417ZM193.608 413.618C195.837 418.713 195.401 418.617 195.208 425.218C189.681 422.849 188.01 417.18 193.608 413.618ZM720.03 422.018C712.63 420.618 712.63 420.618 705.23 419.218C708.866 409.522 717.891 414.175 720.03 422.018ZM599.575 438.869C604.835 438.116 610.059 437.127 615.276 436.118C642.029 430.944 664.058 424.437 689.229 416.218C689.229 421.061 680.473 424.664 677.879 425.918C661.486 433.842 642.067 437.488 624.326 440.519C615.028 442.107 595.39 446.925 585.825 442.069C587.693 437.749 594.917 439.535 599.575 438.869ZM152.781 439.544C148.415 436.391 156.197 428.818 159.807 428.818C162.737 428.818 165.286 433.323 167.007 433.818C172.342 435.353 178.054 434.942 183.558 435.668C183.746 435.693 191.797 437.728 193.958 436.781C195.445 436.129 198.399 432.924 200.909 432.868C203.965 432.801 208.384 433.801 211.759 432.768C216.096 431.441 230.916 417.618 232.21 417.618C232.877 417.618 233.406 418.287 233.81 418.818C238.29 424.709 242.477 430.818 246.81 436.818C239.328 440.56 242.583 439.522 234.41 437.619C232.254 437.116 231.026 440.019 228.81 440.019C226.931 440.019 225.688 437.44 223.809 437.419C218.728 437.359 211.653 442.229 206.609 442.419C206.064 442.439 202.862 439.682 201.209 440.219C190.036 443.842 178.805 440.493 166.807 442.819C166.407 441.319 166.407 441.319 166.007 439.819C160.889 439.477 157.584 443.011 152.781 439.544ZM265.611 418.818C261.885 420.9 255.644 421.09 251.811 419.018C258.711 418.918 258.711 418.918 265.611 418.818ZM136.406 418.018C139.8 419.121 141.034 420.818 144.806 420.818C144.806 422.418 144.806 422.418 144.806 424.018C140.006 424.018 140.006 424.018 135.206 424.018C135.806 421.018 135.806 421.018 136.406 418.018ZM249.811 425.418C254.788 427.306 254.64 431.715 255.211 436.418C249.752 434.433 249.58 430.732 249.811 425.418ZM147.206 428.418C146.06 433.288 143.931 439.614 138.406 440.619C139.253 435.677 142.356 430.273 147.206 428.418ZM262.811 428.418C265.011 428.418 265.011 428.418 267.211 428.418C267.211 432.818 267.211 432.818 267.211 437.219C263.083 435.286 262.811 432.766 262.811 428.418ZM649.727 443.869C663.836 439.781 677.078 433.478 691.229 429.618C686.873 438.202 676.921 441.562 668.228 444.419C641.39 453.24 613.316 456.371 585.225 456.819C585.225 454.419 585.225 454.419 585.225 452.019C606.947 451.041 628.688 449.965 649.727 443.869ZM227.61 450.019C232.581 450.86 230.115 449.761 234.41 454.419C234.61 452.219 234.61 452.219 234.81 450.019C237.01 451.419 237.01 451.419 239.21 452.819C239.61 451.619 239.61 451.619 240.01 450.419C243.953 453.438 244.723 454.055 248.211 450.419C250.111 452.319 250.111 452.319 252.011 454.219C252.611 452.119 252.611 452.119 253.211 450.019C257.739 451.891 255.756 452.185 259.211 450.419C259.886 452.519 259.886 452.519 260.561 454.619C264.205 454.619 262.366 455.254 264.611 450.419C269.702 457.037 267.408 463.782 267.211 472.42C264.011 470.42 264.011 470.42 260.811 468.42C260.611 470.42 260.611 470.42 260.411 472.42C256.411 470.62 256.411 470.62 252.411 468.82C252.211 470.42 252.211 470.42 252.011 472.02C248.411 470.42 248.411 470.42 244.81 468.82C244.21 470.22 244.21 470.22 243.61 471.62C240.41 469.22 240.41 469.22 237.21 466.82C237.01 469.22 237.01 469.22 236.81 471.62C233.81 470.22 233.81 470.22 230.81 468.82C230.81 470.82 230.81 470.82 230.81 472.82C227.21 470.02 227.21 470.02 223.609 467.22C223.209 469.62 223.209 469.62 222.809 472.02C218.393 466.8 220.885 467.961 216.409 466.82C216.409 469.62 216.409 469.62 216.409 472.42C213.009 469.62 213.009 469.62 209.609 466.82C208.315 473.958 206.16 471.818 202.809 466.82C202.609 469.42 202.609 469.42 202.409 472.02C198.208 469.62 198.208 469.62 194.008 467.22C193.808 469.62 193.808 469.62 193.608 472.02C191.208 470.42 191.208 470.42 188.808 468.82C187.247 473.864 184.914 469.39 182.008 466.42C181.308 468.62 181.308 468.62 180.608 470.82C177.908 468.82 177.908 468.82 175.207 466.82C174.757 468.676 174.757 468.676 174.307 470.532C170.702 470.676 172.542 471.211 169.607 467.22C169.207 469.02 169.207 469.02 168.807 470.82C166.007 468.62 166.007 468.62 163.207 466.42C161.807 468.02 161.807 468.02 160.407 469.62C158.407 467.52 158.407 467.52 156.407 465.42C156.007 468.12 156.007 468.12 155.607 470.82C150.777 465.991 153.336 467.065 148.806 466.02C148.806 467.42 148.806 467.42 148.806 468.82C147.406 468.82 147.406 468.82 146.006 468.82C146.006 467.62 146.006 467.62 146.006 466.42C144.806 466.42 144.806 466.42 143.606 466.42C143.806 467.82 143.806 467.82 144.006 469.22C142.406 469.42 142.406 469.42 140.806 469.62C140.081 467.876 140.081 467.876 139.356 466.132C138.706 467.651 138.706 467.651 138.056 469.17C134.291 468.6 135.363 469.682 134.406 466.42C125.8 469.942 122.774 444.981 139.206 456.019C140.1 454.757 140.1 454.757 140.993 453.494C143.9 455.957 143.9 455.957 146.806 458.419C147.006 455.819 147.006 455.819 147.206 453.219C150.006 456.019 150.006 456.019 152.806 458.819C153.206 456.219 153.206 456.219 153.607 453.619C156.607 455.419 156.607 455.419 159.607 457.219C162.007 451.619 162.444 453.581 165.807 458.619C168.63 456.577 167.341 458.033 168.807 453.619C170.207 455.419 170.207 455.419 171.607 457.219C172.707 455.419 172.707 455.419 173.807 453.619C177.107 455.419 177.107 455.419 180.408 457.219C180.608 455.419 180.608 455.419 180.808 453.619C184.208 455.419 184.208 455.419 187.608 457.219C188.008 454.219 188.008 454.219 188.408 451.219C191.608 454.819 191.608 454.819 194.808 458.419C195.008 456.019 195.008 456.019 195.208 453.619C197.808 454.619 197.808 454.619 200.408 455.619C201.209 454.319 201.209 454.319 202.009 453.019C204.609 454.319 204.609 454.319 207.209 455.619C208.409 453.744 208.409 453.744 209.609 451.869C211.609 453.744 211.609 453.744 213.609 455.619C217.054 448.385 218.35 451.246 221.209 457.219C222.009 454.219 222.009 454.219 222.809 451.219C225.41 453.019 225.41 453.019 228.01 454.819C227.81 452.419 227.81 452.419 227.61 450.019ZM496.821 470.82C493.021 469.62 493.021 469.62 489.221 468.42C489.621 471.22 489.621 471.22 490.021 474.02C461.819 465.997 500.647 447.863 496.821 470.82ZM99.5042 461.082C101.517 466.365 100.679 463.653 102.004 469.22C97.4041 469.02 97.4041 469.02 92.8039 468.82C93.7359 464.601 94.7895 461.56 99.5042 461.082ZM610.426 471.07C605.299 480.225 596.512 477.043 600.025 467.62C602.239 461.682 613.748 465.137 610.426 471.07ZM508.422 480.82C510.022 476.42 510.022 476.42 511.622 472.02C507.159 472.307 507.159 472.307 502.696 472.595C518.357 453.903 531.517 478.511 508.422 480.82ZM616.326 476.47C620.57 474.879 623.059 479.232 626.427 478.42C632.202 477.027 638.163 476.54 643.977 475.32C653.797 473.26 659.351 472.543 666.828 468.07C670.018 466.161 674.753 469.758 678.191 468.482C682.142 467.016 688.286 463.199 692.579 465.22C697.056 467.326 696.53 471.778 696.829 476.02C692.429 474.62 692.429 474.62 688.029 473.22C687.822 478.264 688.321 480.005 685.429 483.62C682.394 480.712 680.885 476.733 677.629 474.02C675.894 478.857 675.085 484.418 671.628 488.221C668.634 484.575 670.764 480.066 665.828 478.42C664.728 483.42 664.728 483.42 663.628 488.421C659.028 484.821 659.028 484.821 654.428 481.22C653.428 485.221 653.428 485.221 652.428 489.221C647.827 486.821 647.827 486.821 643.227 484.421C643.227 487.621 643.227 487.621 643.227 490.821C639.427 489.021 639.427 489.021 635.627 487.221C635.427 489.021 635.427 489.021 635.227 490.821C631.227 488.421 631.227 488.421 627.227 486.021C627.227 488.221 627.227 488.221 627.227 490.421C621.844 488.75 622.011 483.787 619.026 491.621C614.132 489.083 607.445 479.8 616.326 476.47ZM99.6042 476.42C94.5761 481.239 76.7588 486.468 87.2037 475.22C92.2869 472.992 96.9536 473.345 99.6042 476.42ZM82.3535 475.908C78.1053 480.914 80.351 478.473 75.6032 483.22C73.7031 478.42 73.7031 478.42 71.803 473.62C75.4592 473.901 79.3318 473.616 82.3535 475.908ZM589.225 473.62C591.908 474.514 602.945 482.653 595.275 486.271C593.434 487.139 591.151 486.942 589.425 488.021C589.325 480.82 589.325 480.82 589.225 473.62ZM483.82 479.62C480.365 481.965 482.933 480.34 475.62 483.62C479.495 485.656 480.24 487.216 482.02 491.221C462.724 492.236 475.395 469.873 483.82 479.62ZM105.004 477.22C108.353 479.351 109.398 481.562 110.805 485.221C105.393 483.947 103.573 482.947 105.004 477.22ZM495.521 488.121C493.445 486.667 491.503 483.315 493.421 482.02C503.304 475.35 503.624 493.793 495.521 488.121ZM161.407 485.221C164.88 487.371 157.092 498.343 154.107 498.371C148.423 498.425 147.169 489.222 143.206 489.021C135.19 488.613 132.969 496.586 127.205 487.221C132.894 485.028 130.565 486.301 134.406 483.82C138.654 482.213 160.126 484.428 161.407 485.221ZM86.0036 488.421C89.6038 488.421 89.6038 488.421 93.2039 488.421C92.9148 493.047 92.6732 494.854 88.0037 496.021C87.0037 492.221 87.0037 492.221 86.0036 488.421ZM511.622 488.421C539.172 491.662 503.12 514.733 502.821 492.821C510.435 495.446 506.704 494.111 514.022 496.821C512.822 492.621 512.822 492.621 511.622 488.421ZM187.608 501.221C183.705 499.27 178.566 495.33 182.208 490.821C189.38 492.007 187.519 496.106 187.608 501.221ZM110.805 490.821C108.367 496.361 105.368 496.398 99.6042 496.821C101.621 489.258 102.7 490.084 110.805 490.821ZM78.8033 491.221C81.6504 493.752 83.2088 496.166 84.8036 499.621C80.3643 499.776 77.3052 500.042 73.2031 499.221C76.0032 495.221 76.0032 495.221 78.8033 491.221ZM227.21 503.621C227.21 499.981 226.877 496.314 228.01 492.821C237.792 496.155 233.01 502.655 227.21 503.621ZM247.623 525.922C249.859 516.325 258.06 497.118 267.961 493.021C269.05 510.267 269.837 527.543 270.011 544.823C270.13 556.619 265.927 569.946 268.011 581.225C262.411 581.225 262.411 581.225 256.811 581.225C256.944 576.158 259.764 570.402 257.211 566.024C253.547 559.742 245.598 557.252 240.073 552.523C236.773 549.699 236.452 547.812 234.81 544.023C249.7 543.115 244.007 541.446 247.623 525.922ZM204.809 493.221C204.809 500.185 200.634 503.943 193.608 504.821C193.18 496.597 196.856 493.582 204.809 493.221ZM119.855 501.021C118.407 504.352 107.832 501.686 113.605 495.621C116.91 492.148 121.576 497.063 119.855 501.021ZM486.821 495.871C488.111 500.202 487.507 497.404 487.621 504.421C493.021 501.221 493.021 501.221 498.421 498.021C497.866 521.168 471.939 507.528 486.821 495.871ZM169.607 500.821C177.741 503.115 179.043 501.591 179.208 509.222C172.029 508.504 169.607 508.152 169.607 500.821ZM577.224 505.621C576.824 520.905 576.178 536.185 576.024 551.473C575.727 581.082 572.212 559.447 550.173 553.473C542.579 551.415 538.418 553.785 530.422 555.624C530.822 553.223 530.822 553.223 531.222 550.823C524.745 549.987 520.643 547.84 519.622 540.823C526.222 542.023 526.222 542.023 532.823 543.223C533.023 539.223 533.023 539.223 533.223 535.223C523.604 535.062 518.523 533.041 514.622 524.222C521.248 524.742 527.592 527.143 534.023 528.822C533.2 517.859 522.186 517.409 512.822 514.022C513.605 513.238 514.228 512.251 515.172 511.672C542.444 494.927 524.418 518.638 544.423 519.222C541.223 511.022 541.223 511.022 538.023 502.821C550.992 503.261 547.514 519.594 560.824 516.022C557.424 509.422 557.424 509.422 554.023 502.821C563.831 501.595 567.626 507.112 577.224 505.621ZM103.604 507.221C104.256 514.023 95.4005 512.693 94.004 507.421C91.1948 496.818 103.252 503.544 103.604 507.221ZM190.108 512.972C186.174 516.687 180.987 508.995 185.208 506.221C189.655 503.299 195.081 508.275 190.108 512.972ZM243.61 511.622C239.253 510.924 234.372 511.258 230.66 508.872C237.535 505.925 242.854 500.279 243.61 511.622ZM227.21 508.422C227.84 513.15 220.514 516.559 220.609 509.222C220.672 504.427 226.67 504.375 227.21 508.422ZM198.408 515.422C196.462 511.501 194.694 510.708 197.408 510.222C215.636 506.955 202.936 524.545 198.408 515.422ZM682.829 519.222C664.186 515.726 646.988 516.97 628.027 517.822C642.793 509.768 669.551 505.37 682.829 519.222ZM176.007 521.622C170.441 524.574 167.363 518.079 171.607 515.222C179.008 510.24 185.274 516.708 176.007 521.622ZM228.01 515.622C233.622 517.918 236.81 518.619 236.81 525.222C230.59 525.222 228.943 521.223 228.01 515.622ZM480.42 516.822C486.519 516.957 491.057 518.168 496.821 518.422C494.331 529.212 490.615 537.051 498.021 546.023C500.896 537.748 500.896 537.748 503.771 529.472C512.438 532.033 502.525 548.797 505.221 556.024C495.183 559.589 486.467 563.964 475.72 561.474C467.099 559.476 458.586 557.04 450.019 554.823C452.458 549.382 454.818 543.854 458.019 538.823C460.982 542.164 462.547 546.544 465.232 550.111C465.571 550.56 466.371 550.3 466.92 550.173C473.447 548.671 464.583 534.365 474.82 526.822C476.42 533.423 476.42 533.423 478.02 540.023C486.352 534.058 482.329 525.791 480.42 516.822ZM195.408 526.622C194.157 531.976 184.181 528.977 188.808 519.622C191.831 513.509 196.373 522.497 195.408 526.622ZM225.21 524.622C224.829 531.598 218.921 528.012 218.809 522.622C218.626 513.728 225.472 519.811 225.21 524.622ZM155.607 528.822C176.263 530.997 183.668 537.876 206.409 535.223C206.409 546.508 156.748 542.514 155.607 528.822ZM215.209 535.223C221.962 535.538 227.597 536.291 234.01 535.223C234.476 545.271 216.238 543.35 215.209 535.223ZM672.828 548.373C677.296 547.21 681.118 544.146 685.629 543.223C685.008 559.417 627.906 568.989 620.426 551.223C638.509 553.333 655.13 552.983 672.828 548.373ZM514.422 546.023C515.267 549.05 516.899 550.991 517.222 554.023C513.622 554.023 513.622 554.023 510.022 554.023C510.322 550.27 511.599 548.442 514.422 546.023ZM206.409 551.223C196.117 560.562 171.571 556.598 197.608 550.023C204.616 549.068 205.249 549.001 206.409 551.223ZM218.409 548.823C238.833 549.209 226.823 554.459 218.409 555.223C218.409 552.023 218.409 552.023 218.409 548.823ZM554.023 565.624C550.617 566.57 541.683 570.517 538.051 566.978C533.038 562.094 536.568 562.955 532.823 562.424C537.676 552.421 550.895 557.489 554.023 565.624ZM184.008 581.625C180.469 581.446 176.106 583.121 173.407 580.825C167.498 575.796 151.063 564.478 146.406 558.424C153.249 551.581 180.585 577.5 184.008 581.625ZM444.019 560.574C452.804 562.501 461.461 564.978 470.22 567.024C474.887 568.114 482.262 567.81 485.221 572.424C476.069 573.388 474.168 578.257 466.07 579.525C454.078 581.402 440.68 580.425 428.818 580.425C428.963 571.622 431.472 557.822 444.019 560.574ZM529.022 575.024C522.21 577.579 512.92 578.138 511.622 570.024C500.568 580.652 493.856 580.158 478.42 580.425C484.544 574.343 494.464 576.551 500.421 569.624C497.821 568.424 497.821 568.424 495.221 567.224C503.777 554.39 525.225 562.115 529.022 575.024ZM247.21 581.225C239.61 581.225 239.61 581.225 232.01 581.225C232.01 579.825 232.01 579.825 232.01 578.424C238.163 578.424 246.921 573.692 247.21 581.225ZM400.817 580.425C392.428 580.516 384.037 580.565 375.653 580.862C378.709 576.934 398.226 578.574 400.817 580.425Z" fill="#000000" fill-rule="nonzero" opacity="1" stroke="none"/>
</g>
</svg>
