<?xml version="1.0" encoding="UTF-8" standalone="no"?>
<!DOCTYPE svg PUBLIC "-//W3C//DTD SVG 1.1//EN" "http://www.w3.org/Graphics/SVG/1.1/DTD/svg11.dtd">
<!-- Created with Vectornator (http://vectornator.io/) -->
<svg height="100%" stroke-miterlimit="10" style="fill-rule:nonzero;clip-rule:evenodd;stroke-linecap:round;stroke-linejoin:round;" version="1.1" viewBox="0 0 800 600" width="100%" xml:space="preserve" xmlns="http://www.w3.org/2000/svg" xmlns:xlink="http://www.w3.org/1999/xlink">
<defs/>
<clipPath id="ArtboardFrame">
<rect height="600" width="800" x="0" y="0"/>
</clipPath>
<g clip-path="url(#ArtboardFrame)" id="Layer-1">
<path d="M2 2.00024C2 301.235 2 301.235 2 600.471C400.6 600.471 400.6 600.471 799.2 600.471C798.2 300.435 798.2 300.435 797.2 0.400047C532.133 0.888707 267.067 1.41309 2 2.00024ZM777.6 20.4024C777.6 26.4031 777.6 26.4031 777.6 32.4038C766.2 32.2038 766.2 32.2038 754.8 32.0038C757.8 27.6032 757.8 27.6032 760.8 23.2027C756.777 22.6088 752.531 22.6196 748.8 21.0025C763.2 20.7024 763.2 20.7024 777.6 20.4024ZM710.4 20.8024C725.323 20.8024 734.179 18.3002 740.8 32.0038C728.826 33.9284 719.463 33.2364 716 45.6054C709.173 40.1543 710.969 28.7747 710.4 20.8024ZM443.882 25.29C468.464 16.6317 495.94 22.3714 522 22.0026C582.794 21.1421 643.6 21.7359 704.4 21.6025C703 32.8039 703 32.8039 701.6 44.0052C699.1 41.9049 699.1 41.9049 696.6 39.8047C695.24 50.8404 692.518 61.9243 693.4 73.0086C696.5 69.5082 696.5 69.5082 699.6 66.0078C700.718 78.4928 705.793 91.8776 701.288 103.575C696.957 114.818 681.548 113.039 677.6 102.212C674.087 92.5757 681.703 81.8254 680.8 71.6084C680.215 64.9903 674.332 59.6051 673.675 52.9937C673.11 47.3058 678.434 41.1762 676 36.0042C673.9 41.5861 673.9 41.5861 671.8 47.168C669.5 45.5866 669.5 45.5866 667.2 44.0052C668.6 49.8059 668.6 49.8059 670 55.6065C665.356 49.7871 665.356 49.7871 660.713 43.9677C659.331 44.8115 659.331 44.8115 657.95 45.6554C661.575 51.131 661.575 51.131 665.2 56.6067C661.725 56.2066 661.725 56.2066 658.25 55.8066C658.044 66.5126 675.537 57.148 676 68.258C676.2 73.0612 673.908 77.6425 672.863 82.3347C664.317 75.7875 656.763 64.6342 646 64.4076C650 69.2081 650 69.2081 654 74.0087C641.078 71.4531 641.843 68.5118 640 55.6065C636.939 57.4207 637.479 62.4517 637.6 66.0078C634.765 63.4087 631.833 59.2876 628 59.607C633.2 66.2078 633.2 66.2078 638.4 72.8086C630.8 71.2084 630.8 71.2084 623.2 69.6082C629.6 74.0754 636.769 77.6059 642.4 83.0098C652.399 92.6051 659.538 104.959 669.775 114.301C675.148 119.204 683.598 120.006 688.663 125.227C702.861 139.864 694.173 167.929 707.938 182.684C710.76 185.71 715.979 184.643 720 185.622C715.638 190.514 709.558 194.301 706.913 200.299C705.221 204.133 707.637 208.65 708 212.825C696.2 211.625 696.2 211.625 684.4 210.425C680.663 180.09 680.376 146.408 654.25 125.665C646.052 119.156 637.215 111.465 626.8 110.413C627.367 111.513 627.695 112.773 628.5 113.713C640.152 127.319 653.125 139.811 664.1 153.968C672.004 164.164 671.099 172.677 672.4 184.822C665.879 177.488 660.379 169.099 652.838 162.819C644.683 156.029 633.113 153.706 625.8 146.017C616.774 136.528 614.221 121.91 604.8 112.813C605.451 125.51 614.73 136.238 620.4 147.617C607.9 142.417 607.9 142.417 595.4 137.216C592.908 149.236 608.455 148.044 618.8 151.618C609.158 150.185 599.313 149.187 589.6 150.018C588.883 145.55 586.716 141.08 587.45 136.616C588.383 130.938 592.083 126.081 594.4 120.814C587.733 122 590.707 120.322 586.4 127.215C583.6 120.214 583.6 120.214 580.8 113.213C575.824 118.19 582.391 127.271 584.4 134.016C581.15 129.965 578.881 124.875 574.65 121.864C571.564 119.668 567.283 120.097 563.6 119.214C571.672 128.662 581.575 138.23 584 150.418C558.711 149.579 576.227 128.586 556.8 120.814C559.4 128.615 559.4 128.615 562 136.416C556.6 124.815 556.6 124.815 551.2 113.213C550.434 134.165 566.455 143.859 571.2 163.219C567.35 160.952 563.713 158.277 559.65 156.418C548.865 151.484 546.609 162.792 536 164.419C536.2 159.619 536.2 159.619 536.4 154.818C533.887 154.272 530.574 155.099 528.863 153.181C525.683 149.615 525.088 144.404 523.2 140.016C528.825 139.541 528.825 139.541 534.45 139.066C535.05 136.141 535.05 136.141 535.65 133.216C529.867 130.182 524.62 125.76 518.3 124.115C514.921 123.235 511.433 125.381 508 126.015C508.313 117.081 505.179 106.258 497.8 101.212C495.717 99.7877 492.65 103.157 490.3 102.237C481.315 98.7208 487.827 93.1403 477.8 95.0112C470.787 96.3197 464.283 99.9598 457.2 100.812C454.667 101.117 452.497 98.2219 449.95 98.3616C446.993 98.5238 444.654 101.451 441.7 101.662C435.75 102.087 429.694 98.9678 423.863 100.224C420.752 100.895 420.037 105.737 417.1 106.963C413.302 108.548 408.788 107.111 404.813 108.175C387.61 112.78 399.881 119.87 391.55 125.802C376.375 108.306 376.375 108.306 361.2 90.8107C368.8 90.6773 376.768 92.7507 384 90.4106C391.005 88.144 396 81.8763 402 77.6091C404.183 79.126 405.892 82.2103 408.55 82.1597C413.641 82.0627 417.909 77.3096 423 77.2091C436.98 76.9331 451.113 86.3025 464.6 82.6097C470.283 81.0536 472.856 74.0365 477.85 70.9083C482.875 67.7602 489.836 80.4601 499.825 79.7594C510.234 79.0291 503.086 76.0247 513.838 71.8084C519.654 69.5277 526.195 69.6516 532.112 67.648C533.525 67.1695 534.804 65.9303 535.325 64.5326C540.586 50.427 518.633 42.3766 509.2 42.205C501.898 42.0721 494.883 47.314 487.663 46.2179C484.205 45.6931 484.337 39.4996 481.2 37.9545C478.386 36.5683 474.787 37.4449 471.8 38.4045C457.596 42.9687 443.933 49.0724 430 54.4064C434.627 44.7009 433.74 28.8619 443.882 25.29ZM25.6 29.8035C25.9077 24.6822 34.9611 25.1549 40.05 24.5029C45.8415 23.7608 51.6797 23.3932 57.5125 23.1277C65.6019 22.7595 73.7024 22.6424 81.8 22.6027C100.536 22.5107 119.666 19.7425 138 23.6028C131.446 27.57 130.548 26.4317 128 32.4038C126.976 34.8038 127.603 38.3306 125.45 39.8047C117.087 45.5307 115.754 37.8725 109.6 44.0052C108.043 45.5568 107.16 51.4298 106.95 53.3063C104.342 76.6102 102.711 99.3393 75.6 104.412C81.8921 82.8368 78.7932 84.8344 69.7 68.8581C64.7848 60.2223 60.8611 40.5531 45.95 44.2052C31.754 47.6822 39.3075 65.6077 24.8 65.6077C25.0667 53.673 24.8839 41.7197 25.6 29.8035ZM251.8 32.4538C247.614 42.3598 245.933 62.7091 230.313 61.7948C219.052 61.1356 214.532 48.1906 206.725 42.0174C204.36 40.1469 200.91 40.0837 198.475 38.3045C195.423 36.0746 196.494 31.4243 193.4 29.1034C188.927 25.7482 179.266 25.3478 173.8 23.4028C180.5 23.0027 180.5 23.0027 187.2 22.6027C258.793 23.6805 256.594 21.1104 251.8 32.4538ZM384.824 24.2749C396.274 25.4244 391.685 38.2853 403.4 37.6044C409.71 37.2377 406.948 31.084 411.6 30.6036C415.712 30.179 419.867 30.4702 424 30.4036C408.458 60.6724 378.983 51.6198 350.65 45.5054C338.767 42.9409 338.619 33.6175 324.35 34.204C311.762 34.7214 313.004 54.926 300.4 59.207C299.966 51.8576 302.571 38.5379 292 38.0045C295.352 31.393 294.43 28.7331 290.4 23.0027C321.811 22.6346 353.477 21.1277 384.824 24.2749ZM160.35 47.3556C163.041 43.5876 162.976 38.8053 164.463 34.5916C164.738 38.3527 165.021 39.671 164.6 43.3551C162.244 63.9694 133.383 43.3927 147.2 37.2044C147.439 42.2169 153.082 57.5319 160.35 47.3556ZM776.8 41.4049C778.357 56.328 777.524 71.4062 777.6 86.4102C771.95 85.41 766.285 84.4935 760.65 83.4098C743.727 80.155 767.804 76.0828 770.35 72.0085C774.306 65.6778 774.727 53.775 775.6 48.0056C761.4 48.6891 747.209 49.5901 733 50.0559C725.952 50.2869 727.544 50.6075 723.4 47.0055C738.914 43.5119 761.081 42.8127 776.8 41.4049ZM267.775 45.0178C279.632 44.4822 290.917 53.0062 281.2 63.6075C279.047 61.0234 279.34 57.1262 278.8 53.8063C251.758 53.8063 265.488 78.318 283.6 76.0089C305.533 73.2127 320.795 56.5975 340.45 53.8063C349.872 52.4683 352.421 57.1441 360.8 58.4069C360.8 60.0071 360.8 60.0071 360.8 61.6072C352.97 61.379 344.826 59.5599 337.3 61.7323C322.265 66.072 313.381 81.3931 296.7 82.9097C275.447 84.8421 260.806 72.8707 241.6 65.6077C248.33 57.3238 256.066 45.5467 267.775 45.0178ZM454.8 52.8062C479.917 56.1317 456.502 80.2784 450 68.408C462.837 67.491 468.353 55.0563 455.363 57.9568C454.613 54.56 454.8 56.2771 454.8 52.8062ZM506 54.8064C503.492 62.3318 496.821 65.72 489.6 66.4078C491.535 60.0485 499.604 56.8854 506 54.8064ZM112.55 73.2586C113.842 68.0058 116.329 57.0738 123 56.4066C120.658 67.449 116.989 85.1055 108 92.8109C109.517 86.2935 110.952 79.7565 112.55 73.2586ZM142.525 84.2849C143.096 93.9967 155.315 96.9806 162.4 94.2111C181.093 86.9036 170.687 52.7597 195.65 58.2068C201.912 59.5732 202.194 60.341 208 63.6075C197.548 62.1573 187.679 61.286 185.15 73.6087C184.554 76.5147 184.239 82.0541 186.95 84.5599C192.44 89.6337 201.714 91.6669 203.6 99.2117C196.23 99.0106 188.398 95.7083 181.5 98.3116C170.711 102.383 163.222 111.128 151.5 113.363C145.164 114.572 136.086 113.082 135.2 105.612C136.6 105.612 136.6 105.612 138 105.612C134.991 98.8182 133.031 99.2117 125.6 99.2117C130.932 84.7688 133.535 76.299 149.6 74.4087C149.368 74.6734 142.348 81.2768 142.525 84.2849ZM708.963 101.749C712.385 86.2295 708.804 57.6799 721.2 58.8069C725.571 78.9506 722.22 84.7005 712.8 104.412C720.267 100.078 728.017 96.2 735.2 91.4107C738.378 89.2921 733.315 83.9951 732 80.4095C742.81 79.7297 741.233 83.4185 744.4 94.4111C735.116 96.9321 739.197 95.3241 732 98.8116C741 103.812 741 103.812 750 108.813C751.774 103.136 753.476 97.3957 756 92.0108C764 98.2115 764 98.2115 772 104.412C774.8 100.412 774.8 100.412 777.6 96.4113C777.8 109.213 777.8 109.213 778 122.014C765.251 121.951 763.16 120.959 755.2 111.613C741.884 124.109 733.598 125.239 719.8 112.813C711.677 121.161 711.116 120.985 699.2 122.014C700.566 114.239 707.232 109.595 708.963 101.749ZM763.6 65.6077C748.2 66.8079 748.2 66.8079 732.8 68.008C736.429 56.3251 760.723 51.94 763.6 65.6077ZM48 59.207C60.5822 61.3042 60.0727 75.8894 47.2 76.809C51.6313 73.4852 51.3995 63.2868 48 59.207ZM360.4 75.2088C356.93 79.5044 351.323 80.4514 346.85 83.5598C339.08 88.9597 333.09 95.6742 324.8 100.412C324.8 92.7455 322.548 92.4356 315.2 91.2107C320.645 86.6032 324.89 88.2096 330.4 92.0108C343.286 82.8058 344.774 75.6586 360.4 75.2088ZM650.8 78.4092C667.154 80.3719 670.683 90.8829 674.2 106.212C666.024 97.2921 658.501 87.7332 650.8 78.4092ZM227 102.412C198.453 87.744 237.519 71.5011 241.85 87.1602C230.179 89.1057 228.534 94.7269 234.8 104.412C231.919 104.172 229.617 103.757 227 102.412ZM66 85.6101C72.45 88.8354 69.2049 105.865 63.6 108.413C65.3817 100.691 66 93.5338 66 85.6101ZM352 95.4112C355.858 93.2048 361.713 100.096 362.8 101.487C368.618 108.935 373.733 116.905 379.2 124.615C376 124.915 376 124.915 372.8 125.215C375 130.615 375 130.615 377.2 136.016C374.6 136.416 374.6 136.416 372 136.816C384.4 158.019 384.4 158.019 396.8 179.221C388 161.219 388 161.219 379.2 143.217C382.6 142.817 382.6 142.817 386 142.417C383.8 137.416 383.8 137.416 381.6 132.416C386.6 132.416 386.6 132.416 391.6 132.416C394.048 170.899 424.941 167.435 453.6 177.796C464.759 181.83 467.217 197.351 472.4 208.024C464.2 209.225 464.2 209.225 456 210.425C468.8 227.227 468.8 227.227 481.6 244.029C465.079 251.138 449.25 260.14 432.038 265.356C419.999 269.004 404.459 278.241 394.638 270.382C376.217 255.642 372.538 228.681 360.7 208.274C357.175 202.199 353.458 196.095 348.6 191.022C343.068 185.247 332.889 194.365 330.55 196.873C324.8 203.037 321.945 211.552 316.1 217.626C308.31 225.72 296.72 229.957 290.025 238.978C282.049 249.725 278.808 263.281 273.2 275.432C264.183 265.281 256.383 253.902 246.15 244.979C243.273 242.47 238.72 241.116 235.05 242.166C227.283 244.389 220.498 249.379 214 254.18C211.421 256.086 210.977 260.164 208.3 261.931C202.471 265.777 194.84 266.425 189.2 270.544C183.956 274.375 180.667 280.337 176.4 285.234C172.579 281.641 167.735 278.893 164.938 274.457C162.091 269.944 161.646 264.306 160 259.23C167.8 266.231 167.8 266.231 175.6 273.232C166.288 261.359 156.502 249.428 150.4 235.628C157.775 241.178 157.775 241.178 165.15 246.729C155.918 236.502 146.316 226.068 140.4 213.625C146.4 218.426 146.4 218.426 152.4 223.226C144.416 211.716 133.416 204.009 126.4 192.823C133.6 195.223 133.6 195.223 140.8 197.623C129.865 190.603 117.896 183.835 110.4 173.22C119.9 177.821 119.9 177.821 129.4 182.421C117.535 175.02 105.051 167.308 96.8 156.018C105.2 159.419 105.2 159.419 113.6 162.819C113.283 162.252 113.22 161.43 112.65 161.119C102.155 155.386 90.5357 150.337 82.8 141.217C93.6 145.117 93.6 145.117 104.4 149.018C90.8035 142.373 74.7967 138.176 64.8 126.815C77.8 127.615 77.8 127.615 90.8 128.415C76.6 126.215 76.6 126.215 62.4 124.015C77.5321 119.922 87.6349 127.54 102.9 126.965C135.086 125.752 167.191 122.051 199.4 122.014C211.242 122.001 222.762 126.514 234.6 126.815C238.775 126.921 243.289 125.76 246.6 123.214C249.521 120.968 248.926 115.689 251.9 113.513C259.695 107.812 279.782 119.543 278.2 130.615C274.9 131.115 274.9 131.115 271.6 131.615C278.225 153.243 293.293 171.848 306 190.022C294.1 164.119 294.1 164.119 282.2 138.216C286.2 137.416 286.2 137.416 290.2 136.616C283.9 125.315 283.9 125.315 277.6 114.013C283.633 112.047 289.412 107.258 295.7 108.113C302.178 108.993 306.104 116.353 312.2 118.714C315.822 120.117 320.407 117.215 323.85 119.014C326.766 120.538 328.291 124.242 328.95 127.465C329.462 129.968 325.347 133.045 327.1 134.903C334.648 142.905 345.033 147.647 354 154.018C345.6 142.517 345.6 142.517 337.2 131.015C339.8 128.915 339.8 128.915 342.4 126.815C336.272 123.645 330.013 119.319 326.8 113.213C335.2 107.279 343.072 100.517 352 95.4112ZM51.8 120.014C47.0847 130.508 34.6975 136.164 24.8 140.417C23.8835 129.112 23.6808 117.754 23.6 106.413C27.9184 107.012 29.0938 111.613 33.4 111.613C45.6253 111.613 39.7533 100.294 34.4 96.0113C49.7734 87.8112 57.514 107.298 51.8 120.014ZM449.925 119.227C452.385 118.557 453.264 114.963 455.7 114.213C467.279 110.65 479.201 111.417 482.8 123.214C476.204 123.214 466.168 121.899 459.588 123.89C455.309 125.183 457.267 127.694 454.35 130.165C448.75 134.911 421.45 126.744 415 121.214C425.19 121.983 440.046 121.915 449.925 119.227ZM743.6 130.015C740.738 136.217 738.329 133.973 732 132.016C732 134.016 732 134.016 732 136.016C728.623 135.906 726.929 135.914 724 134.816C729.339 126.139 734.527 125.781 743.6 130.015ZM58.2 129.215C61.955 131.193 66.4664 132.639 68.9 136.116C73.604 142.837 73.9806 151.907 78.4 158.819C76.2 149.418 76.2 149.418 74 140.016C86.4254 149.657 84.5102 163.946 91.6 177.621C94.1015 169.115 88.1585 160.217 86 151.618C89.6724 155.008 95.6114 157.484 96.4 162.419C98.0162 172.534 95.128 180.946 100.8 189.622C100.4 179.221 100.4 179.221 100 168.82C113.618 179.479 108.27 192.319 116 206.024C114.8 196.223 114.8 196.223 113.6 186.422C126.033 198.857 122.686 206.66 129 221.826C127.9 212.325 127.9 212.325 126.8 202.824C140.135 215.352 135.933 228.361 137.192 245.517C138.841 238.228 138.917 230.668 139.6 223.226C141.875 227.208 146.481 234.007 146.9 239.078C147.567 247.142 143.401 263.099 151.2 270.032C150.6 259.631 150.6 259.631 150 249.229C163.174 257.135 153.236 271.679 150.65 281.183C149.344 285.983 149.683 291.084 149.2 296.035C153.49 288.527 155.16 279.799 158 271.632C162.283 276.718 163.262 283.874 165.2 290.234C158.714 293.902 152.408 297.967 146.6 302.636C138.979 297.3 138.617 293.12 134.8 283.633C139.368 283.846 136.372 283.308 142.8 288.034C139.795 277.594 128.488 267.634 123.6 256.83C131.8 262.631 131.8 262.631 140 268.432C136.922 255.442 121.099 253.211 115.6 241.628C122.005 244.984 128.574 248.32 135.6 250.029C125.546 242.447 113.219 237.85 107.2 226.827C111.8 228.027 111.8 228.027 116.4 229.227C107.927 221.294 99.1668 213.329 92.8 203.624C100.3 207.724 100.3 207.724 107.8 211.825C97.7441 202.276 86.8364 197.051 78 186.422C85.2 189.022 85.2 189.022 92.4 191.623C84.0805 185.12 71.1098 182.036 65.075 174.233C87.2019 151.186 58.2274 165.511 50.7875 162.644C45.9883 160.795 43.3292 155.56 39.6 152.018C48.1097 157.93 43.6803 155.584 52.8 159.219C52.0628 153.762 44.7272 144.682 40.4 140.817C45.2388 138.93 42.6125 138.911 47.6 144.017C45.5539 137.02 44.6092 139.862 50.2 135.416C53.4313 141.264 57.576 146.611 62 151.618C56.3272 140.651 49.0099 124.374 58.2 129.215ZM714.4 137.216C706.2 137.616 706.2 137.616 698 138.016C702.711 131.538 711.338 125.203 714.4 137.216ZM766 143.617C759 142.017 759 142.017 752 140.417C758.256 126.86 763.325 130.688 766 143.617ZM488 137.616C491.418 137.762 497.78 134.019 500 137.066C501.123 138.607 500.714 143.116 500.4 144.817C497.571 160.153 479.687 132.169 474.8 146.017C469.567 144.835 466.102 139.531 469.8 135.216C478.635 133.792 481.938 137.357 488 137.616ZM777.6 138.816C778.015 142.139 778.781 145.119 774.8 145.617C776.417 141.036 775.488 143.304 777.6 138.816ZM414.208 156.194C411.173 153.037 412.229 146.158 410 142.017C418.517 142.933 427.105 143.33 435.55 144.767C438.198 145.217 439.219 155.737 443.1 157.318C450.067 160.157 461.859 156.983 464.4 164.819C450.613 163.561 425.182 167.613 414.208 156.194ZM722 157.218C723.131 152.384 724.683 146.222 729 143.217C742.72 141.445 739.972 161.213 722 157.218ZM43.2 150.018C40.1262 148.288 35.8164 147.234 33.4 144.817C37.3672 143.52 41.549 145.826 43.2 150.018ZM714 149.218C708.8 150.818 708.8 150.818 703.6 152.418C703.003 145.253 710.554 142.818 714 149.218ZM527.4 157.218C523.269 157.218 520.869 154.703 517.8 152.218C523.165 146.086 527.166 149.264 527.4 157.218ZM758.4 156.018C766 145.483 768.273 149.363 773.2 159.219C760.925 158.968 753.544 158.778 743.6 151.618C748.723 145.031 752.367 151.372 758.4 156.018ZM27.2 150.418C31.7243 152.889 32.6614 154.582 34.4 159.219C30.4856 158.704 26.7446 154.517 27.2 150.418ZM624.4 151.618C637.2 159.619 637.2 159.619 650 167.62C633.499 167.191 629.579 167.156 624.4 151.618ZM522.8 161.619C517.185 165.269 508.89 171.09 501.6 168.77C499.921 168.236 499.895 166.774 499.75 165.319C498.914 156.961 502.285 155.914 510 154.218C517.435 155.044 519.443 157.908 522.8 161.619ZM704 154.018C709.274 155.438 714.171 156.673 718.8 159.619C711.4 160.019 711.4 160.019 704 160.419C704 157.218 704 157.218 704 154.018ZM610.8 160.419C607.796 163.047 603.793 163.506 601 166.22C599.259 167.911 598.544 173.376 595.5 172.758C585.547 170.735 574.505 167.929 574 156.818C587.834 155.761 598.662 151.748 610.8 160.419ZM613.6 155.218C625.286 156.888 621.973 155.675 625.6 167.62C619.6 161.419 619.6 161.419 613.6 155.218ZM24.8 157.619C33.2926 163.281 41.7844 169.095 31.6 176.021C28.9023 169.877 26.7827 164.008 24.8 157.619ZM37.2 158.419C40.8509 161.873 43.3043 162.847 41.6 167.62C38.9983 165.318 38.3078 161.604 37.2 158.419ZM28.8 179.221C20.4051 176.638 21.5946 167.987 23 160.819C25.8437 166.78 28.5356 172.522 28.8 179.221ZM517.831 175.735C519.806 173.966 527.516 169.074 530.863 168.907C534.455 168.729 538.132 170.923 541.6 169.97C546.209 168.704 551.815 159.091 556.6 161.219C571.943 168.041 575.865 170.629 589.2 178.221C574.057 184.09 566.478 176.697 550.8 172.42C552.354 179.154 562.765 181.089 567.6 183.622C563.235 185.271 558.304 184.177 554.4 186.822C560.279 198.581 588.398 182.81 595.6 180.821C591.41 196.458 585.299 193.538 569.2 192.423C571.65 195.417 569.916 193.752 575.2 196.423C572.566 199.856 569.138 203.05 568 207.224C572.119 204.4 583.259 194.412 589.2 200.624C583.779 203.496 573.693 202.511 572 208.262C580.938 211.055 591.416 203.278 601.6 205.824C588.003 215.844 570.2 217.111 554.35 221.026C542.91 223.852 531.702 231.511 520.066 229.652C518.161 229.347 514.847 222.802 514.45 221.839C511.317 214.24 508.55 206.495 505.6 198.823C512.4 198.823 512.4 198.823 519.2 198.823C515.872 190.04 509.777 182.946 517.831 175.735ZM619.8 180.071C616.23 176.686 612.157 173.808 608.9 170.12C605.438 166.2 614.519 164.057 615.95 163.469C622.113 173.485 634.364 173.101 644.8 173.62C642.604 176.195 636.424 179.573 637.25 182.671C640.425 182.746 640.425 182.746 643.6 182.821C643.4 189.622 643.4 189.622 643.2 196.423C631.215 191.179 629.449 189.223 619.8 180.071ZM749.2 165.619C754.017 166.136 758.839 166.606 763.65 167.17C767.712 167.646 766.348 172.036 766.4 175.221C757.659 174.407 749.2 175.887 749.2 165.619ZM715.6 167.62C724.2 167.82 724.2 167.82 732.8 168.02C730.783 178.035 718.775 175.557 715.6 167.62ZM602 175.221C613.824 180.914 619.582 195.615 630.8 203.024C634.151 205.237 639.345 205.117 640.838 208.887C624.136 218.558 608.605 199.204 592.8 197.623C594.506 193 595.057 189.449 598.488 186.247C601.342 188.522 602.323 192.485 603.8 195.823C604.177 189.029 602.789 181.931 602 175.221ZM674.8 209.625C662.883 205.349 630.719 193.941 650.8 176.221C668.017 173.719 673.281 198.689 674.8 209.625ZM62.6 178.421C66.8407 182.163 71.3607 185.808 74.95 190.235C76.7893 192.504 76.7631 205.749 82 211.625C80.2 203.424 80.2 203.424 78.4 195.223C88.6866 200.669 88.7158 209.76 88.4 220.026C81.0969 217.005 75.9894 216.171 72.8 208.425C75.6606 208.929 73.9954 208.448 77.6 210.425C67.3206 200.629 62.915 197.682 58.2 185.422C63.6092 188.492 67.8798 193.129 73.2 196.423C69.7078 190.311 62.6175 186.332 60.8 179.621C61.7 179.021 61.7 179.021 62.6 178.421ZM481.8 181.621C495.945 181.421 500.14 175.538 506 191.623C502.345 191.267 498.619 190.402 495 191.022C501.083 204.873 509.363 217.654 516.8 230.827C509.283 233.244 501.72 235.522 494.25 238.078C477.969 243.649 476.338 231.257 468.8 216.825C476.041 213.722 485.623 219.78 481.1 209.225C476.78 199.144 472.1 189.222 467.6 179.221C472.83 179.589 476.312 181.699 481.8 181.621ZM22.4 180.021C25.4918 181.929 25.3611 183.146 22.8 185.622C22.6 182.821 22.6 182.821 22.4 180.021ZM755.6 189.222C747.936 188.851 738.268 189.617 730.913 186.847C744.287 181.309 743.976 178.503 755.6 189.222ZM777.6 181.421C780.082 193.3 778.4 220.457 778.4 232.427C768.459 229.107 758.071 226.713 748.8 221.826C750.864 215.22 760.189 198.618 768.2 202.224C772.7 197.123 772.7 197.123 777.2 192.023C772.485 189.096 767.152 186.685 763.6 182.421C772.66 181.598 767.994 181.941 777.6 181.421ZM53.6 189.222C52.1857 194.139 52.598 191.607 52.4 196.823C47.5479 194.451 47.574 189.557 53.6 189.222ZM35.8 210.425C37.6492 204.224 40.6441 196.905 46.55 194.26C48.075 198.142 48.075 198.142 49.6 202.024C40.6225 203.548 45.5569 217.772 47 224.026C47.5 217.426 47.5 217.426 48 210.825C60.3183 214.456 52.5137 236.502 53.2125 245.616C54.9063 241.822 54.9063 241.822 56.6 238.028C63.5106 248.779 50.8125 260.452 50 272.032C54.2017 267.229 56.0303 260.755 58.4 254.83C61.6235 270.412 55.093 280.403 53.6 295.235C55.3716 292.322 56.8429 286.314 60 285.234C59.7584 301.779 55.1862 313.058 51.6 328.839C55.8 322.638 55.8 322.638 60 316.437C59.9333 322.705 60.016 328.975 59.8 335.239C59.5436 342.675 55.8673 346.894 52.4 354.442C41.1893 352.84 41.5031 339.003 41.2 330.439C44.3227 332.558 45.4282 336.708 47.2 340.04C44.994 328.723 40.34 317.084 40 305.636C43.6389 307.29 41.8263 305.922 44.4 310.837C44.7521 302.346 38.2251 281.938 37.2 273.632C41.33 276.953 38.9878 274.902 44 280.033C44 270.047 34.8182 257.291 32.8 245.629C36.3919 247.262 38.4448 251.183 40.825 254.33C41.6125 253.98 41.6125 253.98 42.4 253.63C39.9146 247.088 32.23 240.214 30.6 234.428C29.9948 232.279 30.2264 208.76 37.6 218.026C37 215.492 35.0559 212.92 35.8 210.425ZM318.35 221.876C333.989 205.782 336.596 177.412 355.6 210.025C327.975 217.015 316.431 245.402 289.6 252.43C293.406 237.021 307.999 232.528 318.35 221.876ZM55.6 194.423C63.8013 200.282 64.3681 214.422 64 223.626C54.0712 216.876 54.8115 204.937 55.6 194.423ZM750.4 194.423C748.291 200.049 742.977 202.903 737.6 204.824C736.2 200.624 736.2 200.624 734.8 196.423C744.248 194.947 739.054 195.656 750.4 194.423ZM48.8 203.624C50.698 205.195 50.5585 206.009 50.8 208.425C49.6 208.425 49.6 208.425 48.4 208.425C48.6 206.024 48.6 206.024 48.8 203.624ZM67.6 208.825C72.7835 214.314 78.5093 220.97 77.2 228.827C71.6924 225.876 65.1535 214.534 67.6 208.825ZM91.2 211.625C100.628 216.126 100.572 230.174 100.8 238.828C91.2217 235.78 88.1186 230.583 82.8 222.026C85.6649 222.177 91.1265 222.111 92 224.826C92.1564 220.017 91.9775 216.291 91.2 211.625ZM345.4 220.426C349.298 218.603 353.551 214.828 358.188 214.75C360.808 214.706 361.162 219.072 362.5 221.326C366.905 228.744 370.626 236.547 374.65 244.179C379.426 253.236 384.902 261.939 389.2 271.232C386.691 271.057 384.364 272.873 381.85 272.932C376.566 273.057 368.56 258.239 367.25 255.93C363.479 249.285 361.521 241.587 357 235.428C352.955 229.916 338.209 230.641 333.6 227.627C336.896 223.582 341.075 222.448 345.4 220.426ZM624 217.226C624 222.12 625.571 231.122 619.2 232.427C619.508 227.42 619.416 222.345 620.4 217.426C622.931 217.172 621.73 217.226 624 217.226ZM635.2 217.226C635.2 223.49 634.195 228.833 633.2 235.228C623.845 233.473 625.916 217.226 635.2 217.226ZM639.2 217.226C642.6 217.426 642.6 217.426 646 217.626C645.079 223.767 645.065 228.859 645.2 235.228C641.8 235.228 641.8 235.228 638.4 235.228C638.8 226.227 638.8 226.227 639.2 217.226ZM656 217.226C655.233 222.379 655.891 235.782 648.4 236.028C648.976 226.303 645.577 217.45 656 217.226ZM615.263 232.352C614.236 237.734 611.706 227.175 611.8 226.027C613.359 206.896 616.051 228.221 615.263 232.352ZM607.6 219.226C607.512 220.311 607.049 227.425 606.588 229.865C604.754 239.557 590.303 223.95 602.4 219.826C606.075 219.301 606.075 219.301 607.6 219.226ZM661.2 219.226C667.278 221.934 664.75 237.734 657.65 237.678C657.864 231.469 659.831 225.249 661.2 219.226ZM584.4 221.626C593.647 221.626 593.91 228.363 592.4 236.028C585.404 231.83 584.4 229.779 584.4 221.626ZM568.4 239.228C568.661 229.819 567.3 225.471 577.4 224.026C579.373 234.523 578.885 237.642 568.4 239.228ZM68 226.227C74.3037 233.792 70.5385 246.763 69.4 254.83C64.1605 247.767 59.211 235.47 58.8 226.427C62.256 227.734 66.8703 237.494 68 239.228C67.2196 233.96 66.3868 231.067 68 226.227ZM669.8 226.627C673.685 230.006 675.6 234.149 675.6 239.228C667.365 237.928 667.811 234.298 669.8 226.627ZM562 227.627C562 234.645 564.336 241.228 556 241.228C556.67 235.156 555.355 229.051 562 227.627ZM550.8 229.627C550.8 231.894 550.849 234.161 550.8 236.428C550.422 253.904 530.854 237.262 544.6 230.827C549.727 229.546 548.542 229.627 550.8 229.627ZM707.35 229.811C710.585 241.718 709.465 254.24 709.2 266.431C706.944 261.356 688.283 230.44 707.35 229.811ZM94.8 256.63C87.7165 251.022 76.4124 243.388 76 233.627C80.5116 236.636 83.3982 240.127 88 242.429C85.9202 238.268 83.2 235.924 83.2 231.227C90.8486 235.052 95.1679 248.535 94.8 256.63ZM104.2 231.827C111.269 238.897 110.748 248.469 112.4 257.63C103.356 255.369 98.2494 248.484 95.2 240.028C100.393 240.874 100.839 240.883 103.6 245.229C103.9 238.528 103.9 238.528 104.2 231.827ZM270.85 337.39C275.586 325.863 278.705 313.728 283.15 302.086C286.075 294.425 296.116 292.878 299.7 285.434C308.144 267.896 313.132 247.268 327.4 234.028C331.611 230.12 361.21 239.867 357.3 249.754C350.203 267.699 341.64 272.988 326.4 280.433C345.315 290.122 350.719 264.864 361.2 255.63C364.425 261.39 376.312 274.029 378.188 278.583C379.247 281.154 376.753 287.995 375.6 290.434C360.456 322.478 354.813 297.77 327.925 314.762C317.018 321.655 315.244 334.847 305.3 340.79C301.698 342.943 297.253 343.375 293.6 345.441C289.819 347.578 287.839 352.89 283.588 353.779C270.711 356.472 257.463 356.888 244.4 358.442C250.111 353.42 267.81 344.789 270.85 337.39ZM534.8 234.028C534.8 256.713 518.867 239.795 529.2 234.628C532.85 234.103 532.85 234.103 534.8 234.028ZM522.4 236.028C521.913 241.097 521.913 241.097 521.425 246.166C519.94 243.279 518.534 240.54 517.6 237.428C520.282 235.938 518.72 236.519 522.4 236.028ZM742 236.428C757.052 246.52 780.774 261.442 778 283.633C762.536 281.313 753.836 278.251 738 280.433C740 258.43 740 258.43 742 236.428ZM624.4 253.63C624.608 250.09 625.004 247.035 626 243.629C634.819 239.323 636.776 253.348 624.4 253.63ZM616.8 240.828C622.768 242.206 622.922 249.971 618.4 253.43C615.466 249.99 616.662 245.113 616.8 240.828ZM508.8 242.028C508.8 244.429 508.8 244.429 508.8 246.829C505.2 246.829 502.367 246.343 499.6 248.829C501.983 244.005 503.51 242.606 508.8 242.028ZM609.2 242.028C614.791 242.588 613.2 249.503 613.2 253.63C607.214 253.086 609.04 246.514 609.2 242.028ZM22.575 347.466C22.1067 319.832 21.8899 294.422 22.95 266.931C23.1525 261.68 23.2701 246.704 28.4 242.429C31.0337 256.586 27.0433 267.431 25.2 281.633C29.9444 272.006 27.7172 277.061 31.8 266.431C36.9595 278.339 27.5073 288.983 28.8 301.135C29.9885 297.006 31.6114 294.781 34.3 291.384C36.8834 302.216 27.6 309.49 27.6 320.838C30.0219 315.579 31.8662 309.689 36 305.636C39.1225 322.916 28.4 329.571 28.4 345.241C33.0631 340.771 33.1141 334.009 38 330.039C37.847 332.564 35.6 334.71 35.6 337.24C35.6 349.357 42.7056 353.071 23 350.641C22.8583 349.583 22.5931 348.534 22.575 347.466ZM642.4 242.429C641.688 247.41 642.314 253.63 636 253.63C636.215 247.606 635.092 242.429 642.4 242.429ZM605.2 242.829C604.935 266.513 596.339 250.167 597.6 243.229C601.4 243.029 601.4 243.029 605.2 242.829ZM650.4 243.229C649.4 248.829 649.4 248.829 648.4 254.43C646.6 253.53 646.6 253.53 644.8 252.63C647.891 247.331 643.668 244.725 650.4 243.229ZM654.4 243.229C660.593 244.467 661.971 248.907 660.038 254.867C652.665 254.776 654.192 249.045 654.4 243.229ZM666 244.029C670.4 244.429 670.4 244.429 674.8 244.829C673.272 251.962 673.314 255.976 665.6 256.43C665.8 250.229 665.8 250.229 666 244.029ZM74.4 244.829C82.3543 252.396 77.1379 268.14 78 278.033C78.3054 272.719 80.1394 268.094 81.2 262.831C89.3793 273.115 82.1006 287.32 81.6 298.835C85.1162 296.614 86.5283 287.775 88 284.033C96.6111 296.336 86.4702 312.934 88.2 326.838C88.955 323.557 89.0969 309.761 94.8 306.036C97.7046 321.872 91.4855 334.623 90 350.441C94.5401 344.135 93.6106 335.029 98.8 329.839C105.185 350.414 89.8681 353.642 72.8 353.642C72.1653 346.235 68.5063 339.406 66.125 332.364C62.7872 322.494 63.4483 311.813 64.4 301.635C68.9653 308.393 66.5248 319.157 73.6 323.638C73.6 302.967 61.8744 290.322 64.4 268.432C66.9123 275.298 69.4719 282.268 73.4 288.434C70.4891 274.525 62.2598 262.74 62 249.229C67.8362 255.066 66.5479 264.432 71.6 270.832C70.9273 261.78 73.1502 253.787 74.4 244.829ZM682.8 245.229C683.254 249.206 682.634 253.234 682.4 257.23C679.6 256.83 679.6 256.83 676.8 256.43C677.514 252.98 677.544 244.178 682.8 245.229ZM578 245.229C577.278 250.284 578.108 254.591 574.2 257.63C562.601 250.017 566.302 245.229 578 245.229ZM193.35 275.382C199.352 270.992 207.192 269.686 212.8 264.769C221.588 257.062 228.475 248.432 240.8 248.029C237.94 253.613 231.815 256.549 227.1 260.381C222.884 263.806 217.708 272.593 215.85 274.67C212.408 278.516 206.432 278.593 202.4 281.633C197.242 285.522 190.94 292.155 184.8 295.635C183.495 291.312 184.563 293.715 180.8 288.834C185.95 285.173 188.245 279.116 193.35 275.382ZM562 248.029C562 252.63 562 252.63 562 257.23C558.2 257.53 558.2 257.53 554.4 257.83C552.798 250.888 554.796 248.222 562 248.029ZM581.2 250.829C584.767 252.613 584.733 252.526 585.963 256.78C582.814 257.38 584.402 257.23 581.2 257.23C581.2 254.03 581.2 254.03 581.2 250.829ZM83.2 251.63C91.6101 257.481 95.1317 262.901 97.8 272.432C99.0262 266.3 98.4455 263.032 97.6 256.83C103.757 258.37 100.91 272.238 100.8 276.433C91.735 272.946 84.5759 260.918 83.2 251.63ZM255.2 264.031C260.01 269.848 273.955 279.866 267.2 283.233C260.332 286.657 252.01 286.736 245.4 290.634C239.944 293.851 235.456 298.502 230.2 302.036C219.026 309.547 203.865 317.697 190.2 317.237C186.416 317.11 180.441 308.957 183.45 305.761C190.344 298.439 197.665 291.129 206.45 286.234C208.205 285.256 216.253 282.125 219.1 279.333C229.17 269.458 230.065 264.531 243.6 253.83C249.585 249.098 250.866 258.789 255.2 264.031ZM549.2 251.63C549.2 255.63 549.2 255.63 549.2 259.631C544 259.631 544 259.631 538.8 259.631C538.8 251.275 541.066 251.63 549.2 251.63ZM488 252.03C496.191 253.395 497.468 260.33 488.4 262.031C488.2 257.03 488.2 257.03 488 252.03ZM244 309.836C253.002 301.463 264.346 295.559 272.3 286.184C279.292 277.942 281.081 266.599 288.35 259.08C292.051 255.253 302.166 254.698 307.6 252.83C303.473 264.17 300.433 274.703 293.05 284.683C287.731 291.875 278.927 293.123 275.6 302.436C251.841 297.344 245.78 335.996 221.6 336.84C229.279 326.018 232.947 320.118 244 309.836ZM115.8 253.63C122.043 259.125 120.722 270.636 120.8 277.633C115.003 273.977 106.539 265.511 105.2 258.43C109.8 260.031 109.8 260.031 114.4 261.631C114.133 259.093 114.98 256.089 115.8 253.63ZM501.2 253.63C504 253.63 504 253.63 506.8 253.63C506.8 257.03 506.8 257.03 506.8 260.431C501.262 260.117 501.496 258.657 501.2 253.63ZM482 254.03C482 261.791 480.96 263.178 473.6 265.631C472.099 256.626 472.787 255.566 482 254.03ZM520.8 260.431C517.79 259.093 516.248 259.211 513.2 260.431C513 257.73 513 257.73 512.8 255.03C518.302 254.205 520.391 254.703 520.8 260.431ZM535.2 254.03C535.2 256.43 535.2 256.43 535.2 258.83C532.241 258.223 527.755 258.296 526.8 255.43C531 254.73 531 254.73 535.2 254.03ZM458.4 266.831C458.4 262.884 459.096 261.3 462.6 259.631C474.036 262.83 460.819 266.611 458.4 266.831ZM610 258.03C612.2 258.23 612.2 258.23 614.4 258.43C613.838 262.851 614.897 269.232 609.2 269.232C609.6 263.631 609.6 263.631 610 258.03ZM601.3 259.818C605.105 271.71 600.894 273.806 590 272.032C593.434 267.937 596.784 262.82 601.3 259.818ZM587.2 260.031C587.2 268.428 586.545 270.746 579.6 274.832C579.024 265.91 578.126 262.398 587.2 260.031ZM639.2 260.031C638.782 265.257 639.935 271.728 633.6 272.432C633.915 267.555 632.631 260.031 639.2 260.031ZM625.2 260.431C627 260.431 627 260.431 628.8 260.431C628.626 265.29 629.956 271.632 623.6 271.632C623.975 267.697 625.2 264.524 625.2 260.431ZM647.2 260.431C647.05 265.395 648.303 271.859 642 272.432C642.93 267.244 642.585 263.2 647.2 260.431ZM658.6 262.431C659.58 266.305 656.4 270.294 656.4 274.032C653 274.032 653 274.032 649.6 274.032C649.975 271.485 655.81 251.395 658.6 262.431ZM670.2 261.831C671.238 269.721 669.388 274.032 661.6 274.032C662.721 266.857 661.844 260.975 670.2 261.831ZM680.4 261.231C679.637 267.332 680.559 273.891 673.2 274.032C674.141 269.012 673.798 261.231 680.4 261.231ZM446.8 271.832C440.342 273.955 442.139 266.62 446.2 264.831C456.027 260.502 450.844 270.502 446.8 271.832ZM562.8 276.032C564.2 272.932 564.2 272.932 565.6 269.832C571.685 259.434 583.545 275.655 562.8 276.032ZM560 264.431C558.561 269.612 559.557 266.917 556.8 272.432C558.2 272.232 558.2 272.232 559.6 272.032C559.065 277.112 557.206 277.904 552.4 278.433C552.4 270.232 550.691 264.431 560 264.431ZM524.4 264.831C529.057 266.495 529.555 270.324 530.4 274.832C524.157 273.167 524.4 270.761 524.4 264.831ZM500.8 265.231C510.396 267.446 505.945 274.106 505.6 282.033C503.2 282.033 503.2 282.033 500.8 282.033C500.8 273.632 500.8 273.632 500.8 265.231ZM692 265.631C697.896 271.224 702.393 282.291 700.275 290.484C699.196 294.659 686.004 297.719 684 298.435C688 282.033 688 282.033 692 265.631ZM510.8 266.031C515.4 266.031 515.4 266.031 520 266.031C520 269.632 520 269.632 520 273.232C513.546 272.951 510.8 272.93 510.8 266.031ZM540.4 266.831C544.6 267.031 544.6 267.031 548.8 267.231C548.497 275.098 548.603 277.633 540.4 277.633C540.4 272.232 540.4 272.232 540.4 266.831ZM495.2 267.231C495.2 275.375 497.441 282.033 488 282.033C488.135 272.142 485.571 268.379 495.2 267.231ZM142.4 270.032C141.621 268.474 142.238 269.065 140.4 268.432C141.4 269.232 141.4 269.232 142.4 270.032ZM482 268.432C482 277.328 483.007 281.713 473.6 283.633C473.6 274.901 472.374 269.687 482 268.432ZM105 269.632C111.185 277.431 109.131 292.972 105 301.235C98.8493 295.321 88.3497 281.11 89.7 271.432C94.5424 274.876 100.132 280.327 102.6 285.834C103.8 277.733 103.8 277.733 105 269.632ZM435.6 269.232C436.584 276.124 430.55 275.438 425.2 276.032C425.2 273.232 425.2 273.232 425.2 270.432C431.026 271.089 431.549 271.932 435.6 269.232ZM466.6 270.432C470.912 279.596 466.865 284.027 458.4 284.833C458.4 275.593 457.435 272.469 466.6 270.432ZM124.4 273.232C135.327 280.745 129.323 295.88 130 306.036C124.813 302.042 122.09 301.058 121 294.835C124.407 296.173 121.997 295.086 127.6 299.235C125.933 289.649 114.553 286.909 113.2 275.632C116.958 278.991 119.532 283.489 122.4 287.634C122.744 282.738 124.161 278.248 124.4 273.232ZM396 274.432C399.4 274.432 399.4 274.432 402.8 274.432C402.8 276.633 402.8 276.633 402.8 278.833C397.577 278.264 397.224 278.922 396 274.432ZM409.2 274.832C414 275.332 414 275.332 418.8 275.832C416.815 279.406 412.916 278.433 409.2 278.433C409.2 276.633 409.2 276.633 409.2 274.832ZM442 288.434C442.097 282.642 440.383 278.283 445.8 275.832C456.435 273.856 454.732 287.45 442 288.434ZM390.05 276.382C390.425 277.608 390.425 277.608 390.8 278.833C388.4 278.833 388.4 278.833 386 278.833C387.073 276.328 386.114 277.58 390.05 276.382ZM519.6 278.033C518.115 281.734 514.806 281.043 511.2 281.233C512.48 276.113 515.355 277.089 519.6 278.033ZM611.2 276.833C611.1 282.328 613.134 287.634 606.8 287.634C606.948 283.63 605.634 276.833 611.2 276.833ZM617.2 290.434C617.48 287.001 618.38 282.92 619.4 279.633C631.12 280.6 624.874 290.434 617.2 290.434ZM640.4 278.833C642.2 279.633 642.2 279.633 644 280.433C641.4 283.233 641.4 283.233 638.8 286.034C639.6 282.433 639.6 282.433 640.4 278.833ZM630 279.233C633 279.433 633 279.433 636 279.633C634.806 293.367 629.54 291.667 630 279.233ZM670.4 280.033C675.463 281.642 678.312 284.388 673.55 288.334C669.892 283.886 671.153 286.563 670.4 280.033ZM432.8 290.234C425.391 291.222 422.019 282.662 429.6 281.233C439.443 279.378 439.477 289.344 432.8 290.234ZM599.6 280.833C599.6 285.434 599.6 285.434 599.6 290.034C593.2 290.034 593.2 290.034 586.8 290.034C587.641 280.778 590.596 281.114 599.6 280.833ZM649.6 280.833C652.6 280.833 652.6 280.833 655.6 280.833C653.832 289.113 655.399 291.765 647.6 292.034C649.818 287.377 650.824 285.731 649.6 280.833ZM665.2 281.233C663.191 284.779 660.841 288.725 657.6 291.234C658.633 285.863 658.446 280.268 665.2 281.233ZM583.6 281.633C584.282 288.547 586.098 290.254 579.6 290.434C581.771 284.463 580.453 287.404 583.6 281.633ZM418.8 282.833C418.8 290.085 416.579 290.337 410 291.234C409.6 287.634 409.6 287.634 409.2 284.033C413.541 283.915 415.009 283.708 418.8 282.833ZM572.4 283.233C570.344 289.815 564.921 293.048 562.6 284.633C567.5 283.933 567.5 283.933 572.4 283.233ZM168 283.633C169.518 284.65 175.052 288.475 169.838 289.059C168.193 285.57 168.803 287.38 168 283.633ZM384.8 284.033C388 284.033 388 284.033 391.2 284.033C391.2 288.434 391.2 288.434 391.2 292.834C387 292.834 387 292.834 382.8 292.834C384.477 289.816 384.8 287.478 384.8 284.033ZM538 285.234C542.4 285.434 542.4 285.434 546.8 285.634C546.11 292.878 545.327 294.035 538 294.035C538 289.634 538 289.634 538 285.234ZM395.6 285.634C399.6 285.634 399.6 285.634 403.6 285.634C402.731 295.544 395.6 294.059 395.6 285.634ZM551.2 285.634C552.731 287.278 552.731 287.278 554.263 288.921C552.131 289.478 552.131 289.478 550 290.034C550.6 287.834 550.6 287.834 551.2 285.634ZM518.8 286.034C518.8 294.042 519.781 298.435 510.8 298.435C510.8 290.251 510.441 287.554 518.8 286.034ZM505.2 286.434C505.119 291.373 507 297.871 500.8 298.435C500.869 292.872 498.964 287.325 505.2 286.434ZM110.8 287.634C122.2 295.995 108.643 312.014 116 322.438C116.333 316.527 117.645 311.371 118 305.236C126.822 310.089 115.052 331.342 120.4 342.04C121.8 331.239 121.8 331.239 123.2 320.438C134.333 331.112 125.781 361.264 114.6 346.641C110.261 340.966 106.133 335.109 102.45 328.989C101.015 326.604 101.747 320.089 101.8 318.287C107.03 323.126 110.127 329.994 115.6 334.839C113.13 320.589 100.02 310.818 96 296.435C100.037 298.566 105.447 305.946 108.4 308.836C105.448 302.772 109.536 294.315 110.8 287.634ZM523.6 287.634C528 287.634 528 287.634 532.4 287.634C532.4 290.834 532.4 290.834 532.4 294.035C524.865 293.532 524.111 294.272 523.6 287.634ZM488.4 289.234C496.96 289.805 495.781 300.198 488 301.235C488.2 295.235 488.2 295.235 488.4 289.234ZM482 290.034C481.694 315.857 469.295 300.072 476.4 290.834C480.175 290.134 480.175 290.134 482 290.034ZM460.8 308.436C460.246 302.639 458.821 297.65 460.4 292.234C474.337 291.143 468.359 305.286 460.8 308.436ZM177.788 302.098C173.638 302.764 169.003 295.347 174.4 293.234C181.094 290.614 187.992 300.461 177.788 302.098ZM226.5 311.687C234.154 306.838 242.998 296.235 252.6 294.435C249.31 299.7 232.482 313.212 229.15 316.837C216.621 330.468 192.058 379.174 180.8 335.639C186.568 337.172 188.138 342.911 192.4 346.841C191.631 339.402 192.508 342.85 190 336.44C193.933 336.548 197.872 336.999 201.8 336.765C203.49 336.664 204.896 333.387 202.563 332.889C194.18 331.101 191.574 332.806 187.6 324.438C198.081 324.438 216.668 317.914 226.5 311.687ZM455.2 310.837C449.8 311.437 449.8 311.437 444.4 312.037C444.903 289.419 451.888 287.652 455.2 310.837ZM608.4 294.435C608.258 298.56 608.957 300.158 604.8 300.435C604.8 296.466 604.254 295.441 608.4 294.435ZM438.6 296.035C439.875 301.773 439.901 306.338 440 312.437C422.767 312.252 420.847 293.815 438.6 296.035ZM636.4 295.635C642.991 298.315 643.281 303.443 635.6 303.636C636 299.635 636 299.635 636.4 295.635ZM559.2 296.035C569.954 296.035 572.066 307.307 559.6 304.636C561.8 303.336 561.8 303.336 564 302.036C559.995 301.034 559.2 300.182 559.2 296.035ZM581.6 296.035C581.6 299.235 581.6 299.235 581.6 302.436C579.2 302.236 579.2 302.236 576.8 302.036C577.9 299.285 578.338 296.375 581.6 296.035ZM138.275 308.449C137.963 309.161 137.086 309.47 136.4 309.836C128.375 314.118 131.987 301.827 133 299.235C135.433 293.011 139.172 306.403 138.275 308.449ZM584.8 296.435C591.6 296.635 591.6 296.635 598.4 296.835C596.129 303.309 591.171 301.635 584.8 301.635C584.8 299.035 584.8 299.035 584.8 296.435ZM623.6 296.435C623.6 299.035 623.6 299.035 623.6 301.635C619.2 301.635 619.2 301.635 614.8 301.635C616.374 296.521 618.84 296.435 623.6 296.435ZM632.8 296.435C632.8 299.835 632.8 299.835 632.8 303.236C629.8 303.236 629.8 303.236 626.8 303.236C627.372 298.374 627.613 296.435 632.8 296.435ZM155.6 302.236C159.151 299.317 160.786 297.235 165.2 297.235C160.889 305.307 158.131 307.48 157.6 314.837C162.128 311.214 163.532 305.503 168.2 302.236C173.004 312.188 163.745 323.029 161.225 333.177C153.703 333.222 145.503 316.925 145 310.637C148.841 310.302 155.51 317.398 158 319.238C150.179 308.119 146.732 309.525 155.6 302.236ZM755.163 297.66C764.586 298.642 768.701 300.079 777.4 302.436C777.367 316.379 777.753 330.329 777.3 344.265C777.04 352.268 776.573 357.209 773.712 363.807C770.382 371.486 760.159 371.77 763.35 362.743C765.331 357.138 767.517 351.608 769.6 346.041C758.601 345.581 765.445 361.162 752.8 357.642C756.5 366.243 756.5 366.243 760.2 374.844C746.7 375.044 746.7 375.044 733.2 375.244C735.628 347.316 743.332 370.547 752.8 363.643C745.971 359.016 747.257 361.851 746 357.242C750.897 357.102 752.592 350.988 753.75 347.041C748.374 346.214 743.378 352.106 738.4 354.442C741.308 345.426 753.012 348.355 752.4 337.64C729.536 345.424 744.694 336.696 729.6 327.639C731 332.439 731 332.439 732.4 337.24C729.4 337.24 729.4 337.24 726.4 337.24C730.64 315.051 728.839 294.916 755.163 297.66ZM398.8 315.637C398.418 309.504 397.055 304.401 399.059 298.842C409.594 302.881 406.786 314.376 398.8 315.637ZM410 297.635C425.09 298.236 427.211 312.163 411.6 314.037C410.8 305.836 410.8 305.836 410 297.635ZM645.2 297.635C654.438 299.131 651.501 303.528 644.4 304.036C645.754 301.734 645.404 300.289 645.2 297.635ZM670.8 298.435C687.106 315.43 696.971 327.932 695 351.791C692.403 383.232 688.749 414.515 681.6 445.252C670.119 423.785 684.199 393.734 670.575 373.419C667.926 369.469 657.638 363.432 656.8 362.843C662.27 348.254 651.128 308.272 670.8 298.435ZM548.8 298.435C551.4 298.635 551.4 298.635 554 298.835C552.326 303.315 552.937 304.376 548.8 304.836C548.8 301.635 548.8 301.635 548.8 298.435ZM544.4 300.035C544.031 306.474 542.217 306.473 536.4 307.636C536.278 302.343 539.459 300.914 544.4 300.035ZM522.8 301.235C533.421 303.093 534.583 307.389 522.8 307.636C522.8 304.436 522.8 304.436 522.8 301.235ZM510.8 310.036C511.637 304.341 510.359 306.175 512.8 303.636C523.563 303.796 516.203 309.766 510.8 310.036ZM506.2 308.036C505.258 313.625 499.676 312.384 499.6 307.236C499.493 299.988 506.793 304.518 506.2 308.036ZM494.775 305.048C496.519 311.786 493.45 312.122 487.6 313.237C487.062 306.32 488.376 306.15 494.775 305.048ZM700.4 305.636C699.522 311.269 700.028 317.488 697.2 322.438C685.401 313.361 688.398 310.283 700.4 305.636ZM174 307.236C178.773 309.282 181.336 314.644 184.4 318.837C181.237 320.988 182.193 319.574 181.2 322.838C175.817 318.922 175.429 313.566 174 307.236ZM125.2 307.636C127.66 309.174 128.045 309.601 129.2 312.437C125.602 312.63 125.697 310.867 125.2 307.636ZM217.688 343.053C222.955 339.016 233.378 342.312 241.4 335.839C252.04 327.255 258.622 307.548 273.2 308.036C270.633 315.854 268.235 323.729 265.5 331.489C262.688 339.467 253.408 340.019 246.938 344.503C238.322 350.474 233.051 363.072 220.65 361.192C213.636 360.13 206.883 357.759 200 356.042C204.285 352.024 213.015 346.634 217.688 343.053ZM482.8 308.436C481.593 313.547 477.758 315.132 474 310.837C476.249 307.838 479.267 308.436 482.8 308.436ZM310.35 345.741C320.293 332.628 322.915 323.2 339 315.887C351.142 310.367 369.04 319.792 376.4 315.637C378.327 322.362 380.003 324.063 378.1 330.589C377.101 334.016 368.514 331.041 367.8 336.04C366.935 342.096 377.262 336.855 378.8 336.44C378.504 339.694 378.565 343.001 377.913 346.203C376.98 350.776 369.432 351.084 367.3 347.403C364.821 343.124 364.408 332.471 360.6 330.839C358.571 336.927 359.429 343.628 359.2 350.041C354.637 346.307 357.201 340.237 352.95 336.34C351.52 340.968 352.041 345.997 352 350.841C348.704 347.005 352.112 340.406 346.8 339.44C346.073 343.18 346.178 347.036 346 350.841C341.241 347.962 344.411 341.051 340.6 337.24C339.796 341.84 341.268 349.329 336.813 350.729C333.521 346.12 333.368 341.887 331.8 335.839C326.613 338.804 332.673 346.502 328.325 350.179C322.138 355.411 301.562 353.153 296 353.242C300.116 349.888 307.075 350.06 310.35 345.741ZM608.45 324.638C618.299 329.343 634.56 326.96 635.6 342.04C636.8 342.04 636.8 342.04 638 342.04C637.028 335.121 634.001 334.269 631.6 328.439C634.2 329.239 634.2 329.239 636.8 330.039C637.4 329.114 637.4 329.114 638 328.189C639.818 335.853 637.565 342.612 642 349.241C635.925 346.611 630.074 343.451 624.4 340.04C626.4 339.84 626.4 339.84 628.4 339.64C623.126 327.189 619.088 335.246 608.4 330.239C602.399 327.427 596.262 321.039 593.2 315.037C598.242 318.303 603.03 322.049 608.45 324.638ZM139.2 314.437C138.415 319.044 138.094 323.967 135.8 328.039C133.562 324.604 130.465 321.434 128.6 317.837C131.106 315.748 136.115 315.278 139.2 314.437ZM500.8 316.437C503.758 318.414 519.295 325.786 520 332.839C518.8 332.239 518.8 332.239 517.6 331.639C517.5 333.539 517.5 333.539 517.4 335.439C508.945 329.91 509.723 328.741 500.4 334.439C501.378 328.774 500.871 328.409 505.6 326.438C503.2 321.438 503.2 321.438 500.8 316.437ZM171.175 317.8C173.802 320.247 173.783 325.106 174.4 328.439C170.492 326.919 171.268 325.228 168.4 322.838C170.005 319.359 169.082 321.04 171.175 317.8ZM532.8 318.437C536.113 319.257 547.171 319.981 547.8 325.638C541.656 324.521 537.683 327.807 532 328.439C535.207 324.42 534.502 322.977 532.8 318.437ZM141.6 322.038C150.678 334.462 141.054 364.853 133.3 340.69C132.194 337.244 132.306 333.484 131.2 330.039C135.035 330.6 135.455 335.683 138 338.44C138.906 333.131 139.301 326.999 141.6 322.038ZM574.8 334.439C572.7 331.239 572.7 331.239 570.6 328.039C574.962 328.925 574.504 330.298 574.8 334.439ZM148.8 328.039C151.188 330.161 152.587 331.8 153.6 334.839C149.183 334.482 149.494 331.972 148.8 328.039ZM163.2 338.04C163.168 336.111 170.073 330.723 172.4 334.239C175.371 338.729 170.694 347.546 170.4 352.841C158.269 351.631 153.738 352.136 151.6 340.04C160.955 339.75 158.724 341.821 164.8 346.041C164.267 343.374 163.246 340.759 163.2 338.04ZM573.6 342.64C569.213 343.128 564.395 339.898 562.2 336.24C566.078 338.228 570.355 339.731 573.6 342.64ZM619.2 338.44C619.2 342.668 619.027 345.877 617 349.641C616.7 348.641 616.7 348.641 616.4 347.641C614 347.641 614 347.641 611.6 347.641C613.547 344.278 615.937 340.616 619.2 338.44ZM72 354.042C62.7544 353.32 62.8669 348.279 64 339.44C67.3194 344.127 70.1809 348.584 72 354.042ZM511.6 340.04C523.346 340.759 536.361 339.08 547.8 340.64C536.021 345.352 522.459 349.09 511.6 340.04ZM104 340.84C107.605 342.385 109.396 345.766 111 349.241C104.279 350.201 104.412 346.614 104 340.84ZM177 342.04C178.958 345.648 179.048 350.042 179.6 354.042C176.2 353.642 176.2 353.642 172.8 353.242C174.9 347.641 174.9 347.641 177 342.04ZM722.75 355.992C724.417 344.607 722.754 343.237 734.4 345.441C731.894 359.029 732.485 378.665 718.8 385.245C719.275 375.26 721.28 366.027 722.75 355.992ZM648 344.44C653.23 346.402 652.686 352.767 653.6 357.642C649.015 352.183 650.124 350.813 648 344.44ZM525 364.643C528.871 360.348 533.627 356.941 537.85 352.992C539.585 351.369 541.066 346.573 543.6 346.441C550.791 346.065 558 346.174 565.2 346.041C554.254 361.26 552.421 369.284 534.4 366.843C540.381 376.881 532.651 380.943 526 392.446C535.466 388.42 533.369 381.184 540.125 374.844C543.417 371.755 549.683 370.18 553.2 368.843C553.2 376.823 546.559 381.429 542.8 388.046C550.001 383.636 552.945 377.521 556.8 384.045C556.513 372.725 556.701 364.032 564.6 355.242C565.229 361.219 565.484 367.235 565.6 373.244C563.4 373.244 563.4 373.244 561.2 373.244C567.444 377.909 565.443 378.352 567.2 388.446C560.3 389.446 560.3 389.446 553.4 390.446C554.888 393.051 553.761 391.536 557.6 394.246C554.8 395.947 554.8 395.947 552 397.647C557.305 397.461 562.442 395.701 567.6 394.446C566.712 408.057 566.348 410.661 552.8 414.049C553 415.249 553 415.249 553.2 416.449C556.8 415.849 556.8 415.849 560.4 415.249C556.392 426.283 554.139 423.656 543.2 427.35C539.975 428.44 541.888 433.111 538.6 434.351C521.839 440.674 521.193 425.69 517.8 412.849C516.9 412.849 516.9 412.849 516 412.849C516.791 418.285 518.42 423.819 517.6 429.25C514.2 419.649 514.2 419.649 510.8 410.048C511.071 416.247 512.177 422.411 513.6 428.45C509.014 425.699 507.041 419.98 504.2 415.449C507.5 426.15 507.5 426.15 510.8 436.851C496 438.652 496 438.652 481.2 440.452C478.4 394.646 478.4 394.646 475.6 348.841C489.1 348.141 489.1 348.141 502.6 347.441C501.5 350.541 501.5 350.541 500.4 353.642C505.4 350.641 505.4 350.641 510.4 347.641C509.707 351.277 506.554 357.622 511.2 359.642C513.795 345.787 524.556 347.877 537.2 346.841C533.987 357.486 521.064 358.703 516 368.443C519.4 367.443 519.4 367.443 522.8 366.443C523 367.843 523 367.843 523.2 369.243C523.8 367.71 523.897 365.866 525 364.643ZM589.6 348.641C591.628 352.578 591.4 356.292 591.4 360.642C587.727 357.377 588.781 353.144 589.6 348.641ZM149.2 348.841C149.2 349.841 149.2 349.841 149.2 350.841C148.325 350.566 148.325 350.566 147.45 350.291C148.325 349.566 148.325 349.566 149.2 348.841ZM59 349.841C59.5828 353.876 59.9388 354.195 56 354.842C57.619 351.333 56.6273 353.005 59 349.841ZM185.05 352.691C185.525 353.767 185.525 353.767 186 354.842C184.6 353.942 184.6 353.942 183.2 353.042C184.125 352.866 184.125 352.866 185.05 352.691ZM299.55 358.742C322.791 357.032 346.12 356.882 369.4 355.842C392.146 354.826 385.073 366.576 384.8 385.745C384.628 397.846 385.067 409.948 385.2 422.05C373.433 421.483 361.68 420.223 349.9 420.349C336.774 420.49 323.723 422.563 310.6 422.85C298.721 423.11 282.607 409.632 275.2 403.697C260.056 391.564 245.6 378.595 230.8 366.043C253.717 363.609 276.567 360.434 299.55 358.742ZM569.2 354.842C571.6 354.842 571.6 354.842 574 354.842C574 357.642 574 357.642 574 360.442C569.669 360.442 569.492 358.929 569.2 354.842ZM582 354.842C586.736 357.349 585.328 355.781 587.2 358.442C584.6 359.242 584.6 359.242 582 360.042C582 357.442 582 357.442 582 354.842ZM594 362.843C605.179 364.408 613.273 379.664 622.75 385.695C632.864 392.132 637.93 388.857 648.65 388.596C653.398 388.48 651.122 398.031 650.4 400.347C649.089 404.553 641.813 402.464 639.8 406.648C637.27 411.905 638.391 415.933 634.2 420.649C634.9 416.549 634.9 416.549 635.6 412.448C627.394 415.895 614.446 440.074 611.6 448.053C611.4 444.452 611.4 444.452 611.2 440.852C607.468 443.454 602.452 448.328 598.4 443.652C611.956 438.122 624.22 428.533 626.8 413.249C623.796 414.356 616.837 417.838 616.4 412.448C625.925 415.046 631.497 408.588 636.4 400.447C614.502 397.078 618.061 376.593 594 384.045C595.382 377.388 599.898 379.127 606.4 378.845C604.449 371.926 595.515 370.779 590 367.243C593.185 366.145 590.953 366.622 596.8 368.043C595.4 365.443 595.4 365.443 594 362.843ZM584 368.443C584.467 368.443 586.333 368.443 586.8 368.443C586.8 369.243 586.8 372.444 586.8 373.244C586.333 373.244 584.467 373.244 584 373.244C584 372.444 584 369.243 584 368.443ZM569.6 368.843C570.467 369.51 573.933 372.177 574.8 372.844C573.933 372.911 570.467 373.177 569.6 373.244C569.6 372.51 569.6 369.577 569.6 368.843ZM98.4 369.643C95.4532 378.792 96 374.485 96 382.445C99.1015 378.971 99.6527 373.394 103.6 371.244C104.087 390.465 99.2202 392.099 94.4 409.248C99.4 401.447 99.4 401.447 104.4 393.646C105.046 408.64 97.8565 415.913 94.8 430.051C100.2 422.45 100.2 422.45 105.6 414.849C105.425 417.818 105.327 425.066 103.9 427.95C100.187 435.455 93.8762 439.338 94.8 447.653C97.6792 442.354 101.015 437.192 105.2 432.851C105.022 438.055 107.524 444.287 104.4 448.453C100.769 453.295 97.6271 454.172 96.4 460.854C102.239 454.041 98.9702 455.555 104.8 454.053C104.2 462.154 104.2 462.154 103.6 470.255C105.7 458.554 105.7 458.554 107.8 446.853C113.3 465.055 113.3 465.055 118.8 483.257C114.4 476.856 114.4 476.856 110 470.455C112.2 478.056 112.2 478.056 114.4 485.657C110.682 482.254 108.011 477.84 105.2 473.656C107.4 481.257 107.4 481.257 109.6 488.857C105.538 485.153 102.417 480.514 99.2 476.056C102.2 484.257 102.2 484.257 105.2 492.458C99.8 485.857 99.8 485.857 94.4 479.256C96.8 486.457 96.8 486.457 99.2 493.658C95 488.057 95 488.057 90.8 482.457C93.4 489.858 93.4 489.858 96 497.258C90.8 490.458 90.8 490.458 85.6 483.657C87.9 491.558 87.9 491.558 90.2 499.459C85.9 493.358 85.9 493.358 81.6 487.257C84.2 495.058 84.2 495.058 86.8 502.859C81.4 496.058 81.4 496.058 76 489.258C79 497.659 79 497.659 82 506.06C77 499.059 77 499.059 72 492.058C74.6 500.059 74.6 500.059 77.2 508.06C72.8 502.259 72.8 502.259 68.4 496.458C70.8 504.059 70.8 504.059 73.2 511.66C68.6 505.959 68.6 505.959 64 500.259C66.4 507.36 66.4 507.36 68.8 514.46C64 508.66 64 508.66 59.2 502.859C61.6 509.66 61.6 509.66 64 516.461C59.8457 513.493 57.1057 508.912 54 504.859C56.0125 509.686 59.0933 514.433 59.2 519.661C53.8 513.86 53.8 513.86 48.4 508.06C51.4 514.661 51.4 514.661 54.4 521.261C49.6 516.461 49.6 516.461 44.8 511.66C48 517.661 48 517.661 51.2 523.662C46.8244 522.106 43.7909 518.034 40.4 514.861C43.2 520.261 43.2 520.261 46 525.662C41.4 521.661 41.4 521.661 36.8 517.661C39.4 523.062 39.4 523.062 42 528.462C37.2 524.262 37.2 524.262 32.4 520.061C35.2 526.262 35.2 526.262 38 532.463C33.8 528.462 33.8 528.462 29.6 524.462C32 530.162 32 530.162 34.4 535.863C30.4 531.562 30.4 531.562 26.4 527.262C28.2 533.063 28.2 533.063 30 538.863C27.0969 537.016 25.7525 533.424 24 530.462C24.5 535.663 24.5 535.663 25 540.864C23.5 541.064 23.5 541.064 22 541.264C22 458.654 22 458.654 22 376.044C26.2 376.644 26.2 376.644 30.4 377.244C29.6 381.445 29.6 381.445 28.8 385.645C38.7119 374.012 41.6614 377.459 47.8 390.446C48.7036 381.258 48.4712 381.502 58 379.645C56.6733 393.432 50.071 403.11 45.55 416.149C50.575 408.698 50.575 408.698 55.6 401.247C54.7333 406.298 54.7743 411.592 53 416.399C50.8369 422.26 44.2345 427.03 44.8 433.251C49 428.65 49 428.65 53.2 424.05C52.45 429.567 51.9876 435.131 50.95 440.602C50.6137 442.375 41.8538 450.792 40 454.453C45.4 450.453 45.4 450.453 50.8 446.452C50.3366 450.16 48.7293 454.312 50.4 457.654C51.5262 452.238 52.5886 446.723 54.8 441.652C57 446.252 57 446.252 59.2 450.853C57.7623 437.194 57.4237 423.268 59.2 409.648C63.3552 415.305 64.3279 422.728 66.425 429.425C65.6363 419.428 57.2946 402.376 61.6 393.046C65.8 400.747 65.8 400.747 70 408.448C69.5009 398.049 64.0575 389.422 63.05 379.095C67.5946 377.382 65.6945 376.866 68.8 380.445C70.5325 371.348 90.9141 371.199 98.4 369.643ZM121.2 384.845C122.6 382.428 124.08 380.056 125.4 377.594C126.128 376.237 128.898 366.516 132.35 371.894C139.422 382.908 122.187 396.954 125.6 408.048C128.085 402.59 129.093 395.389 134.2 392.246C135.074 404.489 131.356 417.726 123.4 427.45C118.166 418.071 106.029 398.862 109.2 387.446C113.305 394.367 114.478 402.428 118.8 409.248C118.351 404.312 118.203 399.837 116.6 395.046C113.776 386.608 104.986 378.285 107.8 369.843C114.192 370.057 119.887 379.265 121.2 384.845ZM116 369.643C117.533 369.71 123.667 369.977 125.2 370.044C124.467 371.844 121.533 379.045 120.8 380.845C120 378.978 116.8 371.51 116 369.643ZM671.6 380.245C672.172 391.975 659.327 376.847 658.6 371.844C657.715 365.751 671.457 377.304 671.6 380.245ZM140.4 371.644C143 371.844 143 371.844 145.6 372.044C145.9 374.746 145.427 376.079 143.063 377.457C141.103 373.688 141.992 375.625 140.4 371.644ZM154.863 381.495C153.423 394.9 150.643 408.182 150 421.65C151.995 413.912 152.529 405.432 156.75 398.647C158.575 414.549 158.575 414.549 160.4 430.451C160.6 419.849 160.6 419.849 160.8 409.248C166.461 413.966 167.644 420.601 174 424.85C167.226 411.781 160.994 397.855 159.2 383.245C162.849 384.109 168.759 395.208 172 398.647C171.322 389.834 164.173 381.657 160 374.844C167.967 376.794 176.026 378.399 183.9 380.695C186.602 381.482 186.11 383.925 186.4 386.045C186.9 383.845 186.9 383.845 187.4 381.645C212.051 389.17 264.625 400.428 278.4 425.65C273 422.25 273 422.25 267.6 418.849C269.044 422.568 269.044 422.568 270.488 426.288C266.444 422.968 266.444 422.968 262.4 419.649C265.865 427.954 265.494 424.474 265.6 429.651C261.8 425.25 261.8 425.25 258 420.849C259.4 425.85 259.4 425.85 260.8 430.851C257.2 427.05 257.2 427.05 253.6 423.25C254.425 427.663 254.425 427.663 255.25 432.076C252.425 428.063 252.425 428.063 249.6 424.05C250.6 428.85 250.6 428.85 251.6 433.651C249 430.251 249 430.251 246.4 426.85C247 430.851 247 430.851 247.6 434.851C244.8 430.651 244.8 430.651 242 426.45C242.8 431.651 242.8 431.651 243.6 436.851C241.4 432.851 241.4 432.851 239.2 428.85C239.6 432.851 239.6 432.851 240 436.851C237.8 432.451 237.8 432.451 235.6 428.05C236.4 432.851 236.4 432.851 237.2 437.651C234.704 434.227 233.409 430.047 232 426.05C232.2 431.451 232.2 431.451 232.4 436.851C229.229 434.623 228.539 430.088 227.2 426.45C227.8 431.251 227.8 431.251 228.4 436.051C223.808 432.506 226.123 434.906 222.4 428.05C223.4 432.651 223.4 432.651 224.4 437.251C221.2 433.251 221.2 433.251 218 429.25C218.8 434.051 218.8 434.051 219.6 438.852C216.2 434.651 216.2 434.651 212.8 430.451C214.2 436.451 214.2 436.451 215.6 442.452C212.827 439.892 211.339 436.2 209.6 432.851C210 437.651 210 437.651 210.4 442.452C207.8 437.451 207.8 437.451 205.2 432.451C205.2 438.252 205.2 438.252 205.2 444.052C202.6 439.052 202.6 439.052 200 434.051C200.2 439.852 200.2 439.852 200.4 445.652C197.4 440.252 197.4 440.252 194.4 434.851C195 441.252 195 441.252 195.6 447.653C192.626 444.931 190.788 441.159 188.8 437.651C189.6 443.052 189.6 443.052 190.4 448.453C185.161 444.308 187.651 447.093 184 439.252C185 444.452 185 444.452 186 449.653C181.735 446.62 184.215 448.847 180 441.652C181.2 447.853 181.2 447.853 182.4 454.053C178.8 448.653 178.8 448.653 175.2 443.252C177 449.853 177 449.853 178.8 456.454C174.6 450.053 174.6 450.053 170.4 443.652C171.8 451.453 171.8 451.453 173.2 459.254C168.99 455.043 166.269 449.555 163.2 444.452C164.8 451.453 164.8 451.453 166.4 458.454C163.2 453.053 163.2 453.053 160 447.653C161.2 454.853 161.2 454.853 162.4 462.054C159.2 456.054 159.2 456.054 156 450.053C157 456.454 157 456.454 158 462.854C155 457.454 155 457.454 152 452.053C153 457.454 153 457.454 154 462.854C151 458.254 151 458.254 148 453.653C149.4 458.854 149.4 458.854 150.8 464.055C147 460.054 147 460.054 143.2 456.054C145.4 461.254 145.4 461.254 147.6 466.455C143 461.854 143 461.854 138.4 457.254C140.2 462.854 140.2 462.854 142 468.455C138 463.655 138 463.655 134 458.854C134.854 462.528 136.173 466.327 135.6 470.055C132.4 465.055 132.4 465.055 129.2 460.054C130.2 466.455 130.2 466.455 131.2 472.856C127.6 467.855 127.6 467.855 124 462.854C126 470.055 126 470.055 128 477.256C124 471.655 124 471.655 120 466.055C121.6 472.856 121.6 472.856 123.2 479.656C116.524 471.336 117.261 466.104 114.6 455.454C112.628 447.56 106.83 439.434 109.2 431.651C111.717 436.605 113.625 442.169 117.6 446.052C115.454 432.103 109.409 420.291 108.4 406.048C109.898 407.008 124.4 429.955 124.4 430.051C128.879 425.277 131.877 419.288 135.2 413.649C134.347 433.095 129.862 436.837 125.6 454.453C130.4 445.452 130.4 445.452 135.2 436.451C135.4 441.252 135.4 441.252 135.6 446.052C141.799 441.092 138.368 430.377 138.8 422.45C143.3 425.171 144.883 433.375 148 438.052C146.441 425.579 138.902 416.367 139.6 404.048C143.164 406.632 144.938 411.072 147.2 414.849C144.701 400.826 138.963 391.949 137.6 377.244C142.4 383.245 142.4 383.245 147.2 389.246C144.328 372.045 156.272 368.372 154.863 381.495ZM778.4 373.644C778.4 384.445 778.4 384.445 778.4 395.246C770.495 391.322 762.39 387.748 754.8 383.245C762.277 379.373 770.332 376.054 778.4 373.644ZM470.15 442.802C468.847 430.736 467.205 418.708 465.85 406.648C464.983 398.931 461.03 384.73 467.2 379.245C464.966 406.051 471.493 432.872 474 459.654C468.683 458.571 470.355 444.697 470.15 442.802ZM458.85 455.154C455.924 430.114 453.148 405.057 450 380.045C451.039 380.358 454.606 380.823 454.8 382.845C457.275 408.674 458.8 434.584 460.8 460.454C459.42 457.74 459.173 457.917 458.85 455.154ZM577.2 382.045C584.014 383.656 582.642 393.32 576.8 396.047C577 389.046 577 389.046 577.2 382.045ZM775.768 437.643C777.027 446.008 777.8 454.469 777.938 462.926C778.407 491.606 780.987 520.666 776.28 548.961C774.344 560.599 766.522 571.682 754.2 573.667C746.178 574.96 736.185 580.469 729.882 575.342C721.37 568.418 720.333 555.48 717.2 544.964C704.287 501.617 709.389 454.415 714.388 410.286C714.575 408.634 715.819 407.252 716.85 405.948C721.911 399.543 738.276 371.849 749.85 387.196C753.872 392.529 761.049 406.122 758.2 412.499C756.742 415.761 753.041 417.937 752.263 421.425C750.763 428.139 751.821 435.176 751.6 442.052C753.5 442.052 753.5 442.052 755.4 442.052C755.959 433.058 756.557 423.371 761.2 415.649C765.806 423.516 774.338 428.143 775.768 437.643ZM671.6 387.646C671.6 391.646 671.6 391.646 671.6 395.647C668.289 393.395 670.616 395.224 666.4 388.446C669.125 387.424 667.431 387.877 671.6 387.646ZM587.6 390.846C587.6 400.096 587.117 409.108 589.6 418.049C582.231 416.241 581.358 393.683 587.6 390.846ZM758 390.846C775.681 399.688 778 405.873 778 425.25C764.75 422.132 761.404 401.544 758 390.846ZM582 406.048C582 413.649 582 413.649 582 421.25C580.4 421.25 580.4 421.25 578.8 421.25C578.8 417.064 576.709 407.635 582 406.048ZM658.4 407.648C676.964 417.746 671.699 471.736 669.8 487.907C668.636 497.822 666.598 522.463 656.8 529.262C657.002 487.781 655.452 448.34 658.4 407.648ZM644 422.45C645.809 430.408 645.517 438.705 646 446.853C624.503 438.932 636.289 471.199 629.4 483.257C626.554 470.983 615.807 424.276 640.6 438.052C643.207 433.209 642.971 427.799 644 422.45ZM589.15 430.251C589.885 435.456 593.822 455.254 586.4 458.054C586.216 454.672 581.385 433.117 589.15 430.251ZM581.4 436.451C582.841 443.658 582.476 451.112 582.8 458.454C580.8 458.454 580.8 458.454 578.8 458.454C578.8 454.188 576.228 439.038 581.4 436.451ZM79.65 539.363C96.3603 526.759 114.408 516.005 132.325 505.184C209.826 458.38 301.858 449.349 390.4 446.452C390.4 451.853 390.4 451.853 390.4 457.254C388 457.854 388 457.854 385.6 458.454C388 472.256 388 472.256 390.4 486.057C382.533 484.984 369.161 481.369 362.5 488.72C357.912 493.783 355.708 501.425 349.75 504.772C331.564 514.988 307.776 515.952 292.6 530.262C284.332 538.058 275.491 550.067 274.4 562.066C278.4 562.566 282.527 562.449 286.4 563.566C297.496 566.766 286.04 570.441 284.6 573.167C283.401 575.438 284.467 578.301 284.4 580.868C222.9 580.868 161.4 581.084 99.9 580.868C90.9642 580.837 78.6798 585.526 73.2 578.468C71.6 579.868 71.6 579.868 70 581.268C65.073 578.531 56.8849 581.152 50.8 581.268C60.1498 561.98 61.7637 552.854 79.65 539.363ZM567.325 460.967C574.184 481.055 570.61 482.26 549.363 482.894C532.114 483.409 514.854 483.403 497.6 483.657C497.8 476.856 497.8 476.856 498 470.055C522.048 470.217 543.241 460.714 567.325 460.967ZM612 496.458C617.2 497.258 617.2 497.258 622.4 498.059C606.253 514.88 623.388 509.959 630.9 516.573C630.2 516.686 629.506 516.841 628.8 516.911C623.104 517.471 617.387 517.818 611.7 518.461C604.966 519.222 608.579 523.189 603.6 526.062C603.6 510.76 612 513.557 612 496.458ZM451.5 520.661C461.531 520.452 471.567 520.528 481.6 520.461C481.6 524.262 481.6 524.262 481.6 528.062C459.6 528.262 459.6 528.262 437.6 528.462C438.237 520.001 443.219 520.834 451.5 520.661ZM536 529.662C527.309 525.799 514.579 528.328 505.6 528.462C505.6 517.822 535.131 520.362 536 529.662ZM556.4 526.062C564.859 526.391 587.2 522.489 587.2 535.663C575.908 534.251 556.4 540.934 556.4 526.062ZM353.2 526.462C353.2 532.063 353.2 532.063 353.2 537.663C340.6 537.663 340.6 537.663 328 537.663C328.521 523.069 340.784 526.462 353.2 526.462ZM363.6 526.462C381.2 526.462 381.2 526.462 398.8 526.462C398.8 533.063 398.8 533.063 398.8 539.663C377.942 539.586 363.6 547.621 363.6 526.462ZM440.7 547.914C442.038 553.604 434.483 551.411 433.6 547.864C432.269 542.517 439.946 544.711 440.7 547.914ZM332.6 547.464C341.371 556.911 324.306 560.263 319.8 560.666C315.206 561.077 310.6 561.333 306 561.666C305.855 554.247 306.73 552.633 304.4 547.264C310.329 546.546 327.823 542.32 332.6 547.464ZM506.35 547.514C506.575 551.19 506.575 551.19 506.8 554.865C489 554.865 489 554.865 471.2 554.865C471.897 540.915 498.753 547.151 506.35 547.514ZM535.6 554.865C528.461 554.675 519.683 557.651 514.256 553.009C509.657 549.075 516.304 546.89 519 546.664C536.556 546.64 535.493 547.669 535.6 554.865ZM376 546.864C375.8 555.865 375.8 555.865 375.6 564.866C366.897 564.25 354.343 562.362 344.4 563.266C343.8 555.265 343.8 555.265 343.2 547.264C359.6 547.064 359.6 547.064 376 546.864ZM404.8 548.665C406.222 555.064 405.879 564.134 397.762 564.566C394.379 564.746 390.259 566.566 387.6 564.466C383.9 561.545 386.185 555.143 385.6 550.465C391.976 549.786 398.387 548.907 404.8 548.665ZM542.4 548.464C550.54 549.038 570.566 546.024 571.2 558.066C561.622 557.217 552.051 556.276 542.5 555.165C542.356 550.999 542.4 553.232 542.4 548.464ZM465.2 566.267C458.62 570.166 438.273 556.569 446 551.665C455.54 545.609 471.698 562.415 465.2 566.267ZM676.8 563.266C668.303 579.262 663.36 579.085 646.4 579.268C652.525 571.392 667.71 566.38 676.8 563.266ZM344 580.468C338.286 580.542 319.879 583.279 313.55 578.381C309.342 575.124 315.053 571.924 317.6 571.267C330.843 570.564 342.368 568.498 344 580.468ZM627.2 576.068C622.898 579.735 623.891 579.816 616.2 579.868C550.218 580.317 484.233 580.302 418.25 580.068C409.027 580.035 399.79 579.849 390.6 579.068C390.094 579.025 390.2 578.135 390 577.668C469.365 572.376 547.881 573.151 627.2 576.068ZM356.8 576.868C368 576.868 368 576.868 379.2 576.868C379.2 578.868 379.2 578.868 379.2 580.868C375.757 580.84 359.177 583.767 356.8 576.868Z" fill="#000000" fill-rule="nonzero" opacity="1" stroke="none"/>
</g>
</svg>
