<?xml version="1.0" encoding="UTF-8" standalone="no"?>
<!DOCTYPE svg PUBLIC "-//W3C//DTD SVG 1.1//EN" "http://www.w3.org/Graphics/SVG/1.1/DTD/svg11.dtd">
<!-- Created with Vectornator (http://vectornator.io/) -->
<svg height="100%" stroke-miterlimit="10" style="fill-rule:nonzero;clip-rule:evenodd;stroke-linecap:round;stroke-linejoin:round;" version="1.1" viewBox="0 0 800 600" width="100%" xml:space="preserve" xmlns="http://www.w3.org/2000/svg" xmlns:xlink="http://www.w3.org/1999/xlink">
<defs/>
<clipPath id="ArtboardFrame">
<rect height="600" width="800" x="0" y="0"/>
</clipPath>
<g clip-path="url(#ArtboardFrame)" id="Layer-1">
<path d="M0.400017 600.425C133.739 600.425 667.095 600.425 800.434 600.425C800.434 500.421 800.434 100.404 800.434 0.400017C667.095 0.400017 133.739 0.400017 0.400017 0.400017C0.400017 100.404 0.400017 500.421 0.400017 600.425ZM81.1909 158.494C80.6707 163.498 77.1558 168.186 73.2071 171.303C67.5069 175.804 39.0124 159.493 33.6474 151.442C21.9184 133.842 21.8044 108.285 21.2009 88.8038C20.5527 67.8796 21.2009 46.9353 21.2009 26.0011C181.408 26.0011 181.408 26.0011 341.614 26.0011C325.269 35.8752 309.883 47.377 295.212 59.6025C320.614 54.8023 320.614 54.8023 346.015 50.0021C345.583 54.9938 346.456 53.7225 339.564 57.4024C324.665 65.3587 309.463 72.7364 294.412 80.4034C302.213 79.8034 302.213 79.8034 310.013 79.2034C307.213 83.6702 305.147 88.6923 301.613 92.6039C294.312 100.684 279.055 98.6396 270.861 97.6541C249.03 95.0286 225.788 86.4115 203.009 88.0537C185.631 89.3065 165.92 97.416 151.044 104.742C125.662 117.241 101.017 131.185 76.0032 144.406C77.7325 149.102 81.7084 153.517 81.1909 158.494ZM368.416 26.0011C383.816 26.2011 383.816 26.2011 399.217 26.4011C385.589 32.8743 381.629 33.1433 368.416 26.0011ZM734.831 27.2012C724.286 35.6193 709.679 37.4507 696.429 40.0017C705.709 44.5503 716.348 45.9737 726.631 47.002C722.058 55.1743 708.529 52.096 699.23 53.2023C705.777 57.5338 714.167 58.4572 721.968 59.34C722.099 60.5713 722.099 60.5713 722.231 61.8026C707.93 64.3027 707.93 64.3027 693.629 66.8028C698.451 70.6599 704.481 72.9506 710.43 74.6032C701.83 87.3037 701.83 87.3037 693.229 100.004C701.63 96.6041 701.63 96.6041 710.03 93.2039C711.347 98.8875 712.003 104.766 713.98 110.255C715.213 113.675 720.584 112.132 722.431 112.005C722.389 113.434 723.087 115.095 722.306 116.292C713.296 130.086 703.055 143.035 693.429 156.407C687.629 152.806 679.748 151.331 676.029 145.606C672.184 139.689 674.458 131.544 672.816 124.68C670.644 115.602 667.07 106.186 660.428 99.3042C633.473 71.3766 573.6 78.8481 559.024 117.405C554.523 129.31 558.542 144.197 560.124 155.694C540.284 159.089 531.339 156.086 518.772 171.657C513.685 177.96 513.347 188.099 506.721 192.758C493.371 202.146 459.006 198.643 452.219 220.059C450.034 226.955 450.878 236.481 456.219 242.01C464.638 250.725 473.749 252.772 470.52 255.661C467.253 258.583 463.457 261.006 459.419 262.711C450.061 266.664 428.332 274.381 426.218 258.173C424.503 245.026 424.121 231.716 422.118 218.609C417.925 191.183 405.545 165.456 393.617 140.406C401.817 139.006 410.265 138.648 418.218 136.206C427.178 133.454 433.275 124.965 441.394 120.28C444.414 118.537 449.17 119.985 451.432 117.33C454.584 113.629 453.12 107.481 455.769 103.404C456.189 102.759 467.94 89.7605 473.32 94.654C477.907 98.8268 479.92 105.154 483.22 110.405C483.275 104.734 484.347 88.7081 481.62 82.0035C475.699 67.4453 471 51.86 461.42 39.4017C456.83 33.4338 448.391 31.5255 441.169 29.4012C433.45 27.1309 425.201 27.4012 417.218 26.4011C576.024 26.8011 576.024 26.8011 734.831 27.2012ZM776.833 27.6012C776.333 45.0019 776.333 45.0019 775.833 62.4026C763.789 60.8826 751.5 63.1871 739.731 60.0025C746.929 52.6994 764.998 54.6973 774.033 54.0023C765.232 45.6917 755.648 48.5174 743.231 48.402C745.138 43.8264 748.918 43.8092 753.719 43.6393C761.021 43.381 768.328 43.3477 775.633 43.2018C767.617 31.5422 750.839 37.8885 740.431 28.0012C758.632 27.8012 758.632 27.8012 776.833 27.6012ZM402.567 77.7033C406.432 72.3131 408.948 64.6063 415.168 62.3026C420.811 60.2124 426.948 64.8436 432.918 65.6028C439.636 66.4571 446.452 66.1361 453.219 66.4028C453.019 77.2033 453.019 77.2033 452.819 88.0037C440.312 79.4687 433.862 68.2789 418.518 75.9032C429.22 82.783 440.517 83.5577 447.219 96.0041C441.335 92.4891 436.784 86.9776 430.818 83.6035C416.399 75.4485 401.582 81.7369 415.105 96.4291C422.245 104.186 431.714 107.172 441.419 110.205C441.419 112.808 437.441 113.565 435.418 115.205C429.224 120.227 424.708 127.427 417.768 131.356C416.465 132.093 414.96 132.538 413.467 132.656C391.092 134.414 384.334 121.296 381.216 101.604C385.436 103.595 387.524 107.918 392.192 108.705C394.346 95.213 394.71 88.6596 402.567 77.7033ZM747.232 76.0032C735.831 75.8032 735.831 75.8032 724.431 75.6032C730.172 69.8621 743.912 64.715 747.232 76.0032ZM776.833 69.2029C776.833 76.6032 776.833 76.6032 776.833 84.0036C769.836 81.2046 763.735 77.5104 758.432 72.003C764.35 70.3123 770.773 69.9301 776.833 69.2029ZM462.82 80.4034C462.522 88.2305 460.135 90.3555 453.619 94.804C454.426 88.7641 457.644 83.9042 462.82 80.4034ZM368.816 82.4035C368.18 89.2617 367.093 96.1178 367.216 103.004C371.435 103.388 368.762 103.543 374.816 100.404C374.681 123.613 374.351 129.503 354.815 142.006C353.769 133.79 352.989 125.692 349.615 118.005C345.888 109.516 336.002 97.3445 342.014 94.004C343.715 97.8041 343.715 97.8041 345.415 101.604C353.103 95.2414 360.608 88.1133 368.816 82.4035ZM750.032 83.2035C748.271 93.7701 729.379 91.5321 722.696 86.6262C730.751 83.1082 741.661 83.2035 750.032 83.2035ZM326.814 92.8039C320.083 94.0659 314.334 93.9175 307.213 94.004C314.843 85.4206 319.997 84.5267 326.814 92.8039ZM416.418 86.4037C420.633 84.9623 426.947 85.797 429.418 89.5038C432.535 94.1786 421.492 93.9782 419.018 90.6038C418.044 89.2759 414.86 86.9364 416.418 86.4037ZM606.026 90.8038C606.523 98.2531 609.745 100.541 611.226 107.205C601.868 104.452 598.695 98.1344 606.026 90.8038ZM635.627 95.604C628.567 96.3319 624.051 98.9829 627.227 106.805C614.545 104.528 624.143 85.1645 635.627 95.604ZM756.595 113.142C759.009 113.085 760.86 100.892 762.432 93.604C768.093 97.4358 764.587 95.0584 772.883 100.704C774.858 97.5541 774.858 97.5541 776.833 94.404C776.833 119.005 776.833 119.005 776.833 143.606C764.293 136.967 754.171 124.065 746.032 112.805C748.706 110.512 753.073 113.227 756.595 113.142ZM443.019 104.804C439.243 104.553 435.658 103.039 432.018 102.004C436.706 95.5142 440.3 98.9143 443.019 104.804ZM212.009 97.6041C211.414 103.252 207.326 106.507 204.009 111.055C199.129 117.745 198.641 124.377 198.808 132.406C184.892 123.273 202.691 101.797 212.009 97.6041ZM748.432 102.004C735.831 102.404 735.831 102.404 723.231 102.804C724.42 95.0719 747.068 94.7095 748.432 102.004ZM581.225 100.804C586.556 105.07 593.585 108.209 598.025 113.205C586.679 112.337 581.875 112.505 581.225 100.804ZM651.228 106.004C640.238 106.172 644.727 107.413 636.827 113.605C637.231 105.529 644.055 97.6365 651.228 106.004ZM165.807 116.355C166.158 112.623 168.407 111.435 168.407 107.205C169.807 107.205 169.807 107.205 171.207 107.205C170.801 120.626 176.471 126.89 181.208 139.206C173.912 133.734 164.827 126.774 165.807 116.355ZM341.614 140.406C329.493 136.943 321.806 121.583 318.013 110.205C327.833 117.938 336.673 128.877 341.614 140.406ZM741.631 110.805C741.044 126.488 746.49 134.098 754.832 147.206C734.631 147.306 734.631 147.306 714.43 147.406C715.866 145.517 715.686 145.59 718.23 143.606C722.786 140.054 735.49 134.802 732.981 126.755C731.399 121.683 729.681 116.655 728.031 111.605C732.537 111.041 737.093 110.979 741.631 110.805ZM572.424 113.205C577.909 117.645 584.613 120.811 589.625 125.605C578.159 125.495 572.424 125.608 572.424 113.205ZM663.228 120.405C653.828 121.005 653.828 121.005 644.427 121.605C647.546 113.288 658.393 114.462 663.228 120.405ZM568.024 129.605C575.696 133.441 577.935 136.793 587.225 134.006C585.871 145.741 568.679 144.014 568.024 129.605ZM666.028 140.406C659.113 138.677 655.998 136.406 648.427 136.406C652.962 127.629 665.091 131.031 666.028 140.406ZM382.816 140.606C382.984 147.851 365.168 147.551 362.415 148.006C367.015 143.407 376.375 141.009 382.816 140.606ZM658.028 158.807C653.948 158.569 646.801 150.362 644.427 146.406C654.944 145.802 654.865 149.318 658.028 158.807ZM225.21 156.207C219.914 170.437 196.207 216.009 179.408 216.009C165.697 216.009 153.812 206.151 141.206 200.758C134.407 197.85 126.706 196.757 126.805 188.008C126.835 185.405 125.289 181.969 127.205 180.208C131.219 176.519 137.328 176.138 142.256 173.807C157.067 166.802 171.691 159.407 186.408 152.206C207.117 149.667 211.904 151.067 225.21 156.207ZM589.625 150.006C591.267 157.394 584.788 159.443 578.824 157.207C581.691 154.34 586.187 152.298 589.625 150.006ZM641.227 169.207C637.298 166.962 633.242 159.52 629.827 156.207C638.973 152.548 642.705 160.744 641.227 169.207ZM350.815 155.207C350.815 173.807 350.815 173.807 350.815 192.408C342.214 192.408 342.214 192.408 333.614 192.408C338.614 182.608 338.614 182.608 343.615 172.807C331.814 179.408 331.814 179.408 320.014 186.008C320.014 164.799 331.03 161.246 350.815 155.207ZM715.63 165.207C711.166 162.579 706.38 160.358 702.43 157.007C708.737 155.505 718.972 155.182 715.63 165.207ZM730.031 183.608C729.443 180.67 729.154 178.416 726.831 176.407C733.308 165.073 734.397 171.448 728.831 159.007C753.481 161.574 752.718 179.287 730.031 183.608ZM613.226 158.407C622.907 160.115 626.825 173.11 614.826 174.407C617.933 168.193 615.889 164.701 613.226 158.407ZM601.625 158.807C601.625 165.228 599.941 166.39 594.425 169.607C596.561 166.003 598.467 161.649 601.625 158.807ZM704.23 187.608C687.917 178.824 676.926 168.504 658.028 168.007C666.133 146.393 710.801 172.821 704.23 187.608ZM765.824 160.17C770.229 162.488 770.229 162.488 774.633 164.807C775.733 163.207 775.733 163.207 776.833 161.607C776.033 254.444 776.677 347.305 774.433 440.119C774.083 454.605 773.349 469.416 769.057 483.256C767.31 488.886 761.04 491.899 757.032 496.221C759.332 478.72 759.332 478.72 761.632 461.22C755.232 465.02 755.232 465.02 748.832 468.82C749.832 450.819 749.832 450.819 750.832 432.818C740.231 442.619 740.231 442.619 729.631 452.419C729.431 443.619 729.431 443.619 729.231 434.818C722.631 441.419 722.631 441.419 716.03 448.019C716.481 440.397 719.034 432.608 717.382 425.154C716.511 421.22 712.872 417.631 709.03 416.418C686.492 409.302 671.628 427.247 649.878 420.168C617.082 409.493 586.768 392.293 554.773 379.416C542.81 374.601 529.771 372.942 517.622 368.616C506.642 364.705 495.931 359.993 485.521 354.753C483.597 353.784 481.999 352.057 480.97 350.165C475.583 340.255 471.27 329.797 466.42 319.614C471.353 318.613 476.289 315.601 481.22 316.613C488.704 318.15 494.315 324.986 501.721 326.864C518.699 331.169 536.217 333.148 553.636 334.977C570.007 336.695 582.722 318.86 598.625 314.613C628.523 306.629 675.938 336.868 688.029 290.412C680.629 289.612 680.629 289.612 673.228 288.812C678.495 283.612 685.558 279.749 689.029 273.212C692.176 267.284 687.806 258.485 692.079 253.311C696.331 248.163 705.398 250.329 710.968 246.648C719.074 241.29 726.44 233.028 728.831 223.609C721.631 222.309 721.631 222.309 714.43 221.009C719.464 215.776 726.358 211.84 729.531 205.309C732.417 199.369 730.931 192.175 731.631 185.608C742.631 191.208 742.631 191.208 753.632 196.808C757.464 184.521 761.525 172.302 765.824 160.17ZM86.7037 172.607C88.4551 169.164 90.2664 165.024 93.8915 163.319C97.6166 168.503 103.117 172.162 108.055 176.207C114.871 181.793 122.869 201.353 107.805 200.608C97.3166 200.09 88.7726 191.947 78.0033 190.408C80.9034 184.474 83.7096 178.494 86.7037 172.607ZM582.425 173.607C579.206 175.217 578.743 175.693 574.574 176.307C567.203 177.393 559.73 177.764 552.386 179.02C544.462 180.375 540.744 189.181 545.223 195.808C554.251 209.168 580.017 202.962 580.825 186.808C576.388 187.301 572.68 190.463 568.599 192.271C560.484 195.865 543.818 191.352 556.311 188.308C564.98 186.196 579.361 181.911 588.425 185.008C593.729 186.82 597.8 195.483 592.9 199.683C588.746 203.244 580.556 200.236 575.074 201.709C569.642 203.168 567.189 209.551 561.224 209.209C553.988 208.794 525.161 197.039 524.222 187.008C522.967 173.586 542.573 161.624 548.223 177.007C560.458 172.789 568.514 161.088 582.425 173.607ZM22.4009 397.517C21.3407 364.83 21.3737 332.116 21.2009 299.413C20.9737 256.411 21.2009 213.409 21.2009 170.407C66.6418 191.234 112.542 211.083 158.807 230.01C135.448 250.474 111.518 270.42 89.9213 292.736C95.1686 298.26 103.67 302.88 104.34 310.469C105.647 325.25 104.058 340.213 105.654 354.965C109.207 387.785 141.781 400.095 123.155 435.368C116.013 448.895 107.988 461.936 100.404 475.22C107.005 443.419 107.005 443.419 113.605 411.617C109.283 416.733 103.9 423.218 97.2041 423.218C99.8042 408.217 99.8042 408.217 102.404 393.217C93.0039 403.017 93.0039 403.017 83.6035 412.817C82.2035 399.117 82.2035 399.117 80.8034 385.416C77.1033 392.417 77.1033 392.417 73.4031 399.417C66.5028 383.516 66.5028 383.516 59.6025 367.616C52.8022 387.816 52.8022 387.816 46.0019 408.017C39.0017 396.817 39.0017 396.817 32.0014 385.616C31.7013 412.317 31.7013 412.317 31.4013 439.019C21.545 428.858 22.8599 411.665 22.4009 397.517ZM309.613 172.807C309.613 180.208 309.613 180.208 309.613 187.608C302.515 185.025 295.244 182.83 288.412 179.608C295.217 176.672 302.521 174.871 309.613 172.807ZM661.578 175.807C667.27 176.542 673.07 181.685 677.429 183.508C680.797 184.916 694.144 185.226 694.429 192.258C694.862 202.924 687.254 197.06 680.116 200.508C677.219 201.908 676.257 205.687 673.979 207.959C665.636 216.276 646.183 207.547 640.627 199.808C631.747 187.44 671.482 182.382 663.528 195.108C661.69 198.049 657.214 198.299 654.378 198.908C654.172 206.521 670.342 206.759 670.428 193.808C670.583 170.674 638.658 179.945 631.627 194.008C623.893 186.808 627.627 190.541 620.426 182.808C633.977 179.879 647.528 173.994 661.578 175.807ZM282.012 182.208C289.609 180.016 291.893 190.984 295.613 196.408C288.351 197.149 279.712 195.448 274.012 200.008C313.412 209.767 278.506 218.222 257.211 225.21C260.011 214.209 260.011 214.209 262.811 203.209C253.011 211.209 253.011 211.209 243.21 219.209C242.41 209.409 242.41 209.409 241.61 199.608C238.819 206.006 236.572 212.73 232.81 218.609C228.084 213.117 226.042 205.788 223.009 199.208C242.677 193.542 262.346 187.882 282.012 182.208ZM718.78 205.209C709.759 213.053 694.033 214.208 683.629 216.409C686.16 209.321 709.431 195.928 717.03 188.208C726.736 186.536 722.858 201.663 718.78 205.209ZM603.626 185.208C604.088 184.403 605.384 185.816 606.226 186.208C612.709 189.222 621.567 194.825 618.976 203.259C617.541 207.93 578.053 224.4 573.824 213.109C572.202 208.776 582.66 210.239 587.227 209.501C594.34 208.351 597.661 203.145 600.025 197.008C601.504 193.171 601.578 188.774 603.626 185.208ZM355.615 214.009C346.215 208.209 346.215 208.209 336.814 202.409C353.261 198.946 355.422 196.253 355.615 214.009ZM320.614 209.809C314.937 213.428 304.296 207.593 310.813 202.209C315.181 198.6 329.565 204.102 320.614 209.809ZM556.824 216.809C544.288 232.479 498.049 221.377 521.222 206.209C535.256 203.572 546.695 212.884 556.824 216.809ZM621.826 214.059C624.365 212.862 631.083 204.728 633.427 205.809C648.58 212.8 651.931 218.354 666.703 219.547C658.478 232.852 635.287 221.021 627.327 214.159C623.568 210.919 623.355 220.993 623.826 222.209C624.935 225.073 627.834 226.633 628.827 229.61C617.112 229.61 611.583 226.929 603.626 218.409C609.192 217.289 616.265 216.681 621.826 214.059ZM492.021 244.01C489.322 243.991 482.319 243.928 478.82 242.86C451.282 234.456 478.857 202.405 498.421 211.209C487.955 212.067 476.122 229.186 486.621 237.61C491.854 241.81 500 239.977 506.021 241.61C499.96 242.986 497.55 244.051 492.021 244.01ZM199.808 232.61C171.958 218.909 232.368 189.067 221.347 229.797C215.1 228.924 209.19 226.41 203.209 224.409C207.209 230.21 207.209 230.21 211.209 236.01C207.822 235.132 203.221 234.289 199.808 232.61ZM379.616 211.609C388.225 214.837 398.074 227.665 399.217 236.81C388.145 230.905 383.62 223.121 379.616 211.609ZM358.301 220.445C361.671 240.53 363.399 258.803 350.677 275.699C348.159 279.043 341.166 275.251 338.814 274.412C345.415 264.411 345.415 264.411 352.015 254.411C344.015 258.011 344.015 258.011 336.014 261.611C337.414 251.611 337.414 251.611 338.814 241.61C332.49 247.127 325.943 252.397 319.214 257.411C313.484 248.1 315.358 234.012 319.214 224.009C329.814 228.81 329.814 228.81 340.414 233.61C338.409 228.282 335.655 223.065 335.014 217.409C338.746 216.674 357.221 214.009 358.301 220.445ZM524.422 233.61C519.18 233.043 500.953 233.549 495.858 227.81C492.455 223.975 496.244 219.409 499.621 218.009C507.669 225.27 524.422 228.154 524.422 233.61ZM273.012 227.01C311.179 202.34 307.848 229.412 311.413 260.611C304.572 258.211 298.169 254.705 291.612 251.611C296.413 258.611 296.413 258.611 301.213 265.611C297.01 264.203 292.837 262.277 288.412 262.011C293.212 268.011 293.212 268.011 298.013 274.012C276.212 263.411 276.212 263.411 254.411 252.811C263.227 252.811 272.015 253.824 280.812 254.411C278.245 244.426 266.301 251.942 260.411 245.21C271.812 241.81 271.812 241.81 283.212 238.41C273.212 236.91 273.212 236.91 263.211 235.41C266.889 230.729 265.692 231.741 273.012 227.01ZM613.926 238.998C619.302 241.744 626.018 238.992 632.027 238.41C621.153 257.44 595.682 241.186 581.8 237.423C571.561 234.647 560.181 235.963 549.623 234.01C564.03 207.412 595.711 229.693 613.926 238.998ZM667.028 231.01C685.889 230.143 681.662 216.16 705.43 229.21C702.954 232.181 699.267 230.118 698.03 234.21C701.9 235.758 706.14 235.734 710.03 237.21C708.757 238.252 706.236 240.789 704.23 240.41C684.089 236.607 669.377 235.258 648.827 236.01C651.405 226.56 659.11 231.374 667.028 231.01ZM241.31 239.835C236.35 242.203 229.552 235.905 234.81 232.41C240.079 228.907 248.185 236.554 241.31 239.835ZM198.758 243.81C202.573 245.708 208.837 248.467 210.809 252.411C203.155 258.707 194.362 263.479 186.008 268.811C183.208 256.411 183.208 256.411 180.408 244.01C177.838 253.808 175.698 263.779 172.007 273.212C163.861 266.176 155.35 259.479 148.006 251.611C175.663 236.311 168.961 228.987 198.758 243.81ZM412.417 260.411C396.15 258.996 381.044 251.052 371.816 237.21C375.307 237.21 411.229 259.222 412.417 260.411ZM572.574 254.861C555.203 252.111 539.208 256.319 536.023 237.21C549.373 240.489 558.472 241.273 572.987 244.26C579.483 245.597 584.938 250.099 591.225 252.211C595.192 253.543 599.519 252.545 603.301 254.298C595.307 266.288 583.372 256.57 572.574 254.861ZM671.178 248.823C682.736 249.474 685.838 264.154 678.379 271.912C669.793 280.841 652.927 281.494 642.027 284.012C646.502 266.671 684.612 270.464 653.228 248.411C659.211 248.548 665.203 248.487 671.178 248.823ZM629.427 264.661C629.4 261.709 627.89 258.102 629.752 255.811C634.565 249.887 647.847 251.983 652.628 257.011C654.581 259.065 655.325 265.758 651.553 266.349C646.695 267.11 644.199 265.797 640.427 267.761C635.997 270.069 634.009 275.003 629.627 277.612C621.307 282.564 605.935 273.706 601.725 268.011C607.864 265.01 613.206 257.75 619.889 256.836C623.171 256.387 623.605 261.524 622.376 263.311C619.955 266.834 614.909 264.728 612.026 267.611C616.589 269.893 629.518 274.875 629.427 264.661ZM532.423 256.411C521.622 267.211 500.904 259.34 519.022 254.811C526.807 253.927 528.78 254.33 532.423 256.411ZM502.671 255.811C503.234 276.802 527.487 270.547 538.148 261.874C540.466 259.987 551.08 260.19 551.823 263.411C553.354 270.045 536.493 268.569 535.735 268.636C530.079 269.135 528.451 273.255 523.622 276.212C515.822 280.987 492.21 264.679 485.621 259.611C491.24 258.086 496.848 255.811 502.671 255.811ZM230.178 260.559C249.717 268.084 269 276.274 288.162 284.712C289.042 285.099 290.317 285.997 290.025 286.912C287.966 293.364 284.778 299.635 280.412 304.813C278.78 298.354 275.511 292.41 272.612 286.412C270.804 292.627 269.179 298.962 266.411 304.813C259.517 297.419 251.343 291.326 243.61 284.812C247.61 296.013 247.61 296.013 251.611 307.213C235.295 301.469 214.461 301.321 203.397 288.025C212.899 284.97 222.975 284.117 232.81 282.412C221.914 280.685 211.004 278.91 200.008 278.012C206.356 268.944 217.438 255.652 230.178 260.559ZM141.381 318.826C135.773 323.979 108.394 299.895 105.242 293.325C100.557 283.558 135.391 263.762 141.206 261.011C151.269 256.25 156.004 271.073 161.607 277.212C151.518 275.908 141.373 274.455 131.606 271.611C136.102 281.503 148.27 280.275 155.607 287.612C141.406 292.612 141.406 292.612 127.205 297.613C139.729 296.973 152.312 295.352 164.807 296.413C156.998 303.884 149.338 311.513 141.381 318.826ZM555.824 275.812C560.878 272.442 555.954 259.703 565.974 262.911C570.116 264.237 574.14 266.063 578.424 266.811C576.731 278.062 538.424 293.843 532.423 278.412C540.236 277.673 549.293 280.165 555.824 275.812ZM364.965 265.261C373.264 282.42 383.79 299.502 392.817 316.013C371.016 307.813 371.016 307.813 349.215 299.613C353.381 289.138 357.028 273.8 364.965 265.261ZM314.413 272.012C320.344 272.012 322.424 272.185 322.814 278.412C318.613 278.412 318.613 278.412 314.413 278.412C314.413 275.212 314.413 275.212 314.413 272.012ZM515.622 284.412C502.504 298.35 453.029 290.6 481.02 273.412C494.724 272.31 506.606 280.209 515.622 284.412ZM626.427 287.212C615.593 296.076 575.358 290.342 588.425 275.212C603.206 276.383 613.028 285.883 626.427 287.212ZM456.219 277.412C450.73 281.185 446.802 282.999 443.219 288.812C440.219 285.012 440.219 285.012 437.219 281.212C443.27 278.438 449.421 275.438 456.219 277.412ZM178.008 278.812C181.463 280.324 183.479 281.196 186.008 284.012C182.008 284.412 182.008 284.412 178.008 284.812C178.008 281.812 178.008 281.812 178.008 278.812ZM336.014 290.412C336.014 288.412 336.014 288.412 336.014 286.412C333.014 286.212 333.014 286.212 330.014 286.012C338.676 277.35 359.227 287.681 336.014 290.412ZM580.2 283.087C582.808 288.554 585.061 293.12 588.425 298.013C575.512 299.089 551.625 287.664 580.2 283.087ZM483.22 296.013C483.22 298.413 483.22 298.413 483.22 300.813C472.906 299.531 463.818 298.413 453.619 298.413C453.619 272.58 468.262 295.665 483.22 296.013ZM574.324 306.263C579.538 307.648 585.444 306.064 590.425 305.613C588.617 308.827 586.892 311.621 582.95 312.626C557.876 319.014 561.401 310.308 540.548 304.5C529.394 301.394 493.594 311.866 518.222 293.212C539.467 283.388 559.403 302.299 574.324 306.263ZM297.613 290.012C306.181 293.848 314.862 297.442 323.318 301.521C329.092 304.306 340.232 309.52 340.814 317.613C341.823 331.618 342.228 345.661 342.802 359.69C342.874 361.446 342.269 363.328 341.014 364.615C338.738 366.953 334.595 366.31 331.339 366.103C321 365.444 310.755 363.622 300.413 363.015C287.497 362.258 274.545 362.349 261.611 362.015C271.74 337.44 272.07 337.81 288.012 357.615C288.145 352.124 287.167 346.655 286.412 341.214C302.013 347.015 302.013 347.015 317.613 352.815C307.513 341.414 307.513 341.414 297.413 330.014C308.034 330.104 318.842 329.723 329.214 332.014C329.139 331.114 329.139 331.114 329.064 330.214C319.182 327.703 306.676 326.247 297.413 320.614C302.851 315.369 313.925 314.429 321.214 311.613C310.236 308.649 300.425 309.84 289.612 313.213C293.612 301.613 293.612 301.613 297.613 290.012ZM627.627 300.013C641.009 296.916 651.24 287.064 663.778 297.413C660.303 299.113 660.303 299.113 656.828 300.813C660.447 303.225 665.038 303.575 669.228 304.413C659.741 309.53 650.186 303.79 639.877 302.913C629.257 302.009 618.222 302.613 607.626 302.613C614.07 300.644 621.029 301.539 627.627 300.013ZM185.608 296.013C200.658 300.088 215.781 303.907 230.76 308.238C235.349 309.565 248.201 310.304 248.811 317.613C241.595 318.082 234.275 318.074 227.21 319.614C239.41 322.614 239.41 322.614 251.611 325.614C246.236 333.625 239.242 340.426 232.81 347.615C244.81 342.014 244.81 342.014 256.811 336.414C255.011 347.815 255.011 347.815 253.211 359.215C214.376 359.215 182.358 345.122 147.406 329.214C156.292 320.411 165.691 312.13 175.207 304.013C180.408 317.613 180.408 317.613 185.608 331.214C185.608 313.613 185.608 313.613 185.608 296.013ZM532.173 322.364C514.275 319.522 497.229 324.097 495.221 304.013C507.605 310.694 516.989 308.651 530.622 311.763C542.388 314.449 550.618 320.139 562.824 321.214C556.655 333.55 541.139 323.787 532.173 322.364ZM455.619 306.813C460.426 307.118 465.318 306.968 470.02 308.013C464.115 311.293 459.559 312.504 455.619 306.813ZM266.811 326.414C267.511 324.214 267.511 324.214 268.211 322.014C275.579 315.516 282.424 327.123 266.811 326.414ZM337.408 369.622C359.092 365.539 352.743 331.799 352.415 318.013C374.14 324.437 396.563 333.842 417.068 343.515C422.36 346.011 420.913 355.756 426.018 358.615C440.708 366.844 457.263 371.203 473.12 376.866C477.653 378.485 478.058 373.413 483.983 375.316C491.695 377.793 498.867 382.087 506.821 383.616C501.221 392.217 501.221 392.217 495.621 400.817C491.821 394.017 491.821 394.017 488.021 387.216C485.956 397.407 484.112 407.776 480.22 417.418C476.285 409.956 474.003 401.709 471.62 393.617C469.82 413.417 469.82 413.417 468.02 433.218C464.22 424.818 464.22 424.818 460.419 416.418C457.219 426.018 457.219 426.018 454.019 435.618C452.819 421.818 452.819 421.818 451.619 408.017C449.419 413.217 449.419 413.217 447.219 418.418C442.615 414.389 442.597 407.07 440.819 401.217C438.019 406.017 438.019 406.017 435.218 410.817C433.018 396.517 433.018 396.517 430.818 382.216C428.908 387.099 428.525 392.453 427.618 397.617C425.018 386.016 425.018 386.016 422.418 374.416C419.518 380.816 419.518 380.816 416.618 387.216C415.718 370.816 415.718 370.816 414.818 354.415C408.717 364.215 408.717 364.215 402.617 374.016C400.517 364.215 400.517 364.215 398.417 354.415C394.864 370.933 394.864 370.933 391.311 387.45C390.464 387.533 390.464 387.533 389.616 387.616C389.116 378.216 389.116 378.216 388.616 368.816C385.174 378.111 383.277 387.921 381.216 397.617C375.916 394.868 373.949 387.787 372.416 382.016C369.816 397.017 369.816 397.017 367.216 412.017C363.415 404.617 363.415 404.617 359.615 397.217C359.615 412.217 359.615 412.217 359.615 427.218C354.015 420.018 354.015 420.018 348.415 412.817C344.881 425.551 342.259 438.574 337.814 451.019C337.417 452.132 335.548 451.686 334.414 452.019C335.481 444.352 337.523 436.758 337.614 429.018C337.878 406.805 319.632 391.924 313.613 372.016C321.545 371.218 329.574 371.097 337.408 369.622ZM460.619 330.914C465.209 330.986 473.334 357.292 473.62 363.215C452.819 356.415 452.819 356.415 432.018 349.615C438.5 336.31 444.661 330.665 460.619 330.914ZM514.422 388.016C517.422 388.216 517.422 388.216 520.422 388.416C515.286 393.388 517.759 392.188 514.022 393.617C514.222 390.817 514.222 390.817 514.422 388.016ZM523.222 390.017C527.422 391.217 527.422 391.217 531.623 392.417C530.022 397.617 530.022 397.617 528.422 402.817C521.971 400.228 523.222 396.649 523.222 390.017ZM533.623 394.417C559.285 402.682 580.154 403.242 580.025 432.018C577.582 429.738 576.585 426.27 575.224 423.218C573.824 432.818 573.824 432.818 572.424 442.419C568.102 439.767 565.51 435.307 561.624 432.018C561.424 447.019 561.424 447.019 561.224 462.02C560.09 461.753 558.228 462.312 557.824 461.22C554.43 452.044 552.89 442.285 550.423 432.818C547.423 436.818 547.423 436.818 544.423 440.819C547.223 428.818 547.223 428.818 550.023 416.818C546.15 420.069 542.093 422.635 538.823 426.418C541.623 417.018 541.623 417.018 544.423 407.617C537.834 408.952 537.101 411.851 530.822 417.618C532.223 406.017 532.223 406.017 533.623 394.417ZM395.817 409.817C404.825 391.132 411.41 409.382 397.617 411.217C398.107 417.489 397.298 417.815 391.617 418.818C393.017 415.818 394.379 412.8 395.817 409.817ZM516.822 404.417C523.394 408.525 527.843 413.563 525.022 421.218C520.276 418.845 519.052 414.588 514.622 418.818C514.179 412.489 513.53 409.589 516.822 404.417ZM76.0032 423.218C57.3169 412.276 75.0028 417.364 56.4024 420.818C61.1574 400.213 74.5938 406.305 76.0032 423.218ZM411.617 409.617C412.721 413.087 411.913 411.163 414.418 415.218C409.203 415.459 411.099 416.452 408.23 413.505C410.06 410.487 408.921 411.775 411.617 409.617ZM582.825 413.217C586.825 413.217 586.825 413.217 590.825 413.217C590.525 418.518 590.525 418.518 590.225 423.818C587.931 420.126 585.433 416.696 582.825 413.217ZM495.221 415.618C501.434 417.985 511.267 427.469 501.621 432.018C500.024 421.722 496.6 423.104 490.021 429.818C491.044 424.956 493.389 420.196 495.221 415.618ZM295.413 430.418C296.087 433.47 294.345 436.581 293.612 439.619C291.565 438.418 291.843 437.53 291.612 435.218C291.212 436.418 291.212 436.418 290.812 437.619C288.427 435.901 289.752 437.196 288.012 432.818C287.025 436.593 287.954 435.277 286.012 437.219C285.012 434.418 285.012 434.418 284.012 431.618C283.112 434.418 283.112 434.418 282.212 437.219C280.712 434.418 280.712 434.418 279.212 431.618C279.612 435.618 279.612 435.618 280.012 439.619C262.456 435.23 290.264 407.115 295.413 430.418ZM400.417 422.418C411.051 425.12 411.217 430.221 411.217 440.419C406.049 440.419 406.244 434.434 405.217 430.418C401.217 433.218 401.217 433.218 397.217 436.018C398.817 429.218 398.817 429.218 400.417 422.418ZM376.216 422.818C382.138 426.985 386.163 432.831 386.816 440.019C380.409 436.357 372.816 425.881 372.816 440.019C371.216 440.019 371.216 440.019 369.616 440.019C369.616 433.21 371.078 427.742 376.216 422.818ZM429.618 422.818C428.824 426.392 424.738 430.852 421.618 432.818C421.96 425.638 422.433 424.187 429.618 422.818ZM200.383 488.721C210.55 469.148 213.851 445.593 219.609 424.418C221.577 433.708 225.083 442.612 227.41 451.819C227.859 453.597 227.633 455.49 227.51 457.319C225.437 488.117 221.045 508.102 212.159 537.023C214.084 537.323 214.084 537.323 216.009 537.623C206.809 550.823 206.809 550.823 197.608 564.024C193.881 556.178 192.053 547.558 189.608 539.223C188.008 552.823 188.008 552.823 186.408 566.424C167.387 562.57 144.119 555.843 139.206 534.423C150.606 538.623 150.606 538.623 162.007 542.823C169.662 521.721 190.166 508.391 200.383 488.721ZM620.826 426.418C624.826 427.218 624.826 427.218 628.827 428.018C626.073 432.148 627.778 430.284 623.601 433.506C621.506 428.865 622.43 431.228 620.826 426.418ZM613.226 432.818C607.375 431.821 607.411 431.672 602.826 432.818C607.27 427.768 611.049 425.563 613.226 432.818ZM659.228 438.219C670.918 438.399 709.113 412.619 700.63 444.019C699.428 448.468 697.833 452.807 696.679 457.269C694.832 464.413 693.313 471.637 691.629 478.82C686.405 471.112 682.31 462.689 678.029 454.419C676.429 468.62 676.429 468.62 674.829 482.82C669.923 476.845 666.376 469.867 662.428 463.22C660.828 470.82 660.828 470.82 659.228 478.42C654.448 474.008 655.146 469.325 648.027 468.82C648.027 470.82 648.027 470.82 648.027 472.82C645.227 472.82 645.227 472.82 642.427 472.82C647.427 458.619 647.427 458.619 652.428 444.419C648.232 449.014 644.181 453.854 639.227 457.619C640.627 448.019 640.627 448.019 642.027 438.419C632.735 450.919 631.408 442.61 631.627 430.818C640.816 432.631 649.932 438.075 659.228 438.219ZM90.6038 443.619C82.5053 441.189 82.2986 441.324 75.6032 448.019C79.6286 437.285 89.3348 416.714 90.6038 443.619ZM55.4023 436.618C58.9331 441.864 62.5173 448.292 64.4027 454.419C60.3422 453.165 55.7241 446.385 50.6396 448.606C45.6199 450.8 48.75 454.419 42.0018 454.419C46.8936 443.985 50.7765 429.746 55.4023 436.618ZM164.807 439.219C166.499 441.1 169.155 443.677 168.557 446.569C167.719 450.622 167.637 450.224 165.757 453.457C164.751 450.188 165.072 451.867 164.807 448.419C164.307 450.019 164.307 450.019 163.807 451.619C162.507 449.419 162.507 449.419 161.207 447.219C160.507 449.419 160.507 449.419 159.807 451.619C157.715 447.958 158.568 449.831 157.207 446.019C156.607 448.619 156.607 448.619 156.007 451.219C153.907 448.519 153.907 448.519 151.806 445.819C151.921 449.369 151.74 446.865 153.206 453.219C140.515 449.593 154.794 428.083 164.807 439.219ZM322.814 437.619C321.533 447.395 315.166 449.871 306.013 451.219C307.813 449.419 307.813 449.419 309.613 447.619C308.013 447.819 308.013 447.819 306.413 448.019C308.019 444.985 306.761 446.645 311.213 444.019C307.013 444.819 307.013 444.819 302.813 445.619C304.213 444.219 304.213 444.219 305.613 442.819C304.013 443.019 304.013 443.019 302.413 443.219C303.213 441.819 303.213 441.819 304.013 440.419C300.613 441.219 300.613 441.219 297.213 442.019C305.573 433.383 311.953 436.97 322.814 437.619ZM271.211 440.619C268.611 440.519 268.611 440.519 266.011 440.419C267.611 441.419 267.611 441.419 269.211 442.419C266.811 442.619 266.811 442.619 264.411 442.819C266.811 444.019 266.811 444.019 269.211 445.219C266.411 445.619 266.411 445.619 263.611 446.019C266.011 446.519 266.011 446.519 268.411 447.019C262.039 448.346 265.24 447.883 258.811 448.419C264.211 449.019 264.211 449.019 269.611 449.619C263.306 458.491 251.903 444.57 250.011 438.419C256.408 437.219 266.41 435.217 271.211 440.619ZM516.822 438.019C525.091 441.777 527.561 446.852 528.022 455.619C524.022 450.019 524.022 450.019 520.022 444.419C516.222 447.619 516.222 447.619 512.422 450.819C513.694 446.065 515.47 442.525 516.822 438.019ZM21.6009 439.419C24.4061 449.619 26.2159 460.069 28.4012 470.42C17.9944 463.735 21.266 450.47 21.6009 439.419ZM487.621 440.419C495.698 444.146 498.421 448.345 498.421 457.219C493.021 453.019 493.021 453.019 487.621 448.819C484.621 452.819 484.621 452.819 481.62 456.819C481.62 449.987 486.241 446.859 487.621 440.419ZM424.818 446.019C434.097 446.483 435.173 447.466 435.618 456.819C429.956 453.532 425.821 452.541 424.818 446.019ZM588.625 450.019C597.391 438.772 603.972 462.02 596.025 462.02C596.025 457.619 596.025 457.619 596.025 453.219C590.187 453.447 590.327 456.005 585.625 458.419C586.303 455.537 586.747 452.428 588.625 450.019ZM408.017 463.22C403.541 462.354 403.728 460.228 401.917 455.844C397.914 456.094 400.527 455.697 394.417 458.419C399.508 435.508 408.017 450.293 408.017 463.22ZM621.426 447.619C626.713 451.143 628.064 452.912 628.827 459.219C625.15 455.543 619.413 454.93 615.226 458.419C617.097 454.812 618.766 450.742 621.426 447.619ZM196.408 452.419C193.88 461.17 188.24 464.069 179.608 465.22C181.076 462.943 180.133 464.061 182.608 462.02C181.308 461.82 181.308 461.82 180.008 461.62C181.208 460.419 181.208 460.419 182.408 459.219C179.008 460.019 179.008 460.019 175.607 460.82C176.807 459.219 176.807 459.219 178.008 457.619C176.807 457.819 176.807 457.819 175.607 458.019C176.607 456.019 176.607 456.019 177.608 454.019C172.18 456.819 174.562 456.986 170.67 455.807C177.952 446.992 186.499 451.098 196.408 452.419ZM144.606 454.419C141.506 454.419 141.506 454.419 138.406 454.419C140.806 455.819 140.806 455.819 143.206 457.219C141.006 457.419 141.006 457.419 138.806 457.619C140.906 458.619 140.906 458.619 143.006 459.619C140.706 459.819 140.706 459.819 138.406 460.019C139.706 460.519 139.706 460.519 141.006 461.02C136.706 461.72 136.706 461.72 132.406 462.42C137.606 463.02 137.606 463.02 142.806 463.62C138.361 473.992 124.762 458.408 123.205 453.219C131.043 451.353 137.485 449.969 144.606 454.419ZM383.616 467.22C378.416 462.22 378.416 462.22 373.216 457.219C372.859 462.208 371.744 462.82 366.816 462.82C373.358 447.554 382.589 451.817 383.616 467.22ZM304.013 454.219C315.538 455.331 313.254 463.965 312.813 473.22C306.387 472.327 293.769 471.154 292.412 462.82C296.304 464.636 294.441 463.697 298.013 465.62C297.013 463.42 297.013 463.42 296.013 461.22C298.213 462.02 298.213 462.02 300.413 462.82C299.313 461.22 299.313 461.22 298.213 459.619C301.513 460.219 301.513 460.219 304.813 460.82C300.801 458.145 302.739 459.585 299 456.494C300.112 453.928 301.109 453.939 304.013 454.219ZM269.211 456.419C268.011 457.819 268.011 457.819 266.811 459.219C269.611 458.419 269.611 458.419 272.412 457.619C271.211 459.219 271.211 459.219 270.011 460.82C272.212 460.419 272.212 460.419 274.412 460.019C273.412 461.42 273.412 461.42 272.412 462.82C274.412 462.02 274.412 462.02 276.412 461.22C274.812 463.82 274.812 463.82 273.212 466.42C275.812 464.62 275.812 464.62 278.412 462.82C278.412 464.22 278.412 464.22 278.412 465.62C281.168 463.523 279.759 464.01 282.412 463.62C278.825 471.99 264.201 472.388 256.811 473.62C256.326 466.83 260.387 455.537 269.211 456.419ZM158.882 467.195C155.356 467.075 154.52 463.803 156.807 462.02C162.657 457.456 165.915 467.434 158.882 467.195ZM83.6285 463.582C85.4245 465.139 86.1571 476.859 86.4037 478.42C72.2731 477.685 85.7207 464.386 69.6029 477.22C70.4041 474.245 76.7535 457.624 83.6285 463.582ZM57.2024 485.821C47.8681 477.629 55.6283 474.836 41.6018 482.02C42.4411 477.544 47.6872 471.905 50.4021 468.02C53.6434 470.498 62.2128 481.464 57.2024 485.821ZM171.607 484.22C168.316 482.605 166.601 481.101 165.607 477.62C168.607 478.62 168.607 478.62 171.607 479.62C170.407 477.22 170.407 477.22 169.207 474.82C171.607 475.82 171.607 475.82 174.007 476.82C172.807 475.32 172.807 475.32 171.607 473.82C174.607 474.52 174.607 474.52 177.608 475.22C174.807 472.62 174.807 472.62 172.007 470.02C187.328 461.265 198.1 497.226 171.607 484.22ZM131.356 486.571C124.843 483.159 137.58 469.53 142.806 470.02C141.406 471.82 141.406 471.82 140.006 473.62C142.806 473.02 142.806 473.02 145.606 472.42C144.806 473.52 144.806 473.52 144.006 474.62C146.006 474.42 146.006 474.42 148.006 474.22C146.606 475.92 146.606 475.92 145.206 477.62C147.406 476.92 147.406 476.92 149.606 476.22C148.606 477.52 148.606 477.52 147.606 478.82C149.206 477.82 149.206 477.82 150.806 476.82C151.006 478.22 151.006 478.22 151.206 479.62C154.348 477.545 152.809 478.02 155.607 477.62C153.607 484.553 137.423 489.749 131.356 486.571ZM494.583 507.434C491.979 492.198 485.295 484.693 481.62 471.22C502.941 478.213 511.039 517.513 488.421 528.822C489.142 521.611 495.781 514.442 494.583 507.434ZM721.481 471.77C723.359 479.121 724.58 484.638 724.831 492.421C718.509 491.631 720.396 487.316 718.83 480.02C713.23 484.421 713.23 484.421 707.63 488.821C709.026 481.838 713.125 472.261 721.481 471.77ZM586.925 504.471C588.886 493.967 583.225 484.43 582.425 474.02C603.189 484.584 597.966 516.959 582.025 529.222C583.658 520.972 585.382 512.739 586.925 504.471ZM536.423 477.02C527.996 494.81 525.766 506.025 526.822 526.022C513.605 516.409 519.153 474.695 536.423 477.02ZM359.615 511.822C356.579 499.071 346.908 489.416 342.414 477.22C356.467 486.705 374.321 512.709 363.131 529.946C358.827 525.483 361.031 517.767 359.615 511.822ZM21.2009 477.62C28.648 496.387 33.6822 505.853 55.8024 503.221C64.6349 502.17 73.5541 496.871 82.166 499.096C84.9988 499.828 85.9398 506.596 83.441 508.247C78.6698 511.398 50.3367 513.225 54.2148 524.697C63.0533 550.845 92.5684 551.424 105.204 574.824C63.2027 574.424 63.2027 574.424 21.2009 574.024C21.2009 525.822 21.2009 525.822 21.2009 477.62ZM446.019 478.02C451.019 482.62 451.019 482.62 456.019 487.221C456.619 485.421 456.619 485.421 457.219 483.62C458.265 489.518 457.126 498.807 464.42 499.221C460.82 506.821 460.82 506.821 457.219 514.422C460.228 514.747 458.475 514.799 462.42 513.622C462.086 514.455 461.877 515.35 461.42 516.122C459.52 519.328 457.229 522.293 455.369 525.522C452.638 530.265 455.985 530.765 456.069 535.723C456.083 536.525 455.045 536.959 454.532 537.577C445.523 532.798 437.322 525.175 432.468 516.222C439.42 515.912 442.922 522.909 448.019 527.622C443.219 515.222 443.219 515.222 438.419 502.821C443.219 506.621 443.219 506.621 448.019 510.422C444.319 500.621 444.319 500.621 440.619 490.821C444.032 492.803 446.941 495.551 450.019 498.021C448.019 488.021 448.019 488.021 446.019 478.02ZM557.624 478.82C561.343 482.437 559.111 479.794 562.424 488.021C565.424 485.421 565.424 485.421 568.424 482.82C565.824 490.821 565.824 490.821 563.224 498.821C570.271 495.762 567.33 496.021 571.624 496.021C566.424 506.221 566.424 506.221 561.224 516.422C563.914 516.503 565.734 514.74 568.424 514.822C564.795 520.046 560.626 525.018 558.024 530.822C552.234 526.562 548.463 520.074 544.023 514.422C549.023 515.622 549.023 515.622 554.023 516.822C549.023 507.021 549.023 507.021 544.023 497.221C550.223 501.621 550.223 501.621 556.424 506.021C551.623 495.821 551.623 495.821 546.823 485.621C552.223 490.021 552.223 490.021 557.624 494.421C557.624 486.621 557.624 486.621 557.624 478.82ZM418.218 480.62C418.018 481.22 417.984 481.905 417.618 482.42C406.105 498.599 401.774 504.171 399.267 522.935C398.797 526.454 396.717 527.537 393.617 528.422C394.077 511.835 397.427 484.778 418.218 480.62ZM313.563 527.422C315.064 520.841 316.354 514.213 317.813 507.621C319.743 498.904 320.892 481.62 326.414 481.62C325.41 501.775 318.448 522.488 327.614 540.023C311.613 541.223 311.613 541.223 295.613 542.423C305.035 533.393 310.353 541.505 313.563 527.422ZM776.433 481.62C776.393 503.268 782.445 532.076 764.032 547.623C769.433 529.822 769.433 529.822 774.833 512.022C771.239 516.296 768.711 521.257 764.432 524.822C766.157 512.546 773.004 493.457 776.433 481.62ZM631.627 483.42C624.24 503.61 623.265 508.798 625.226 530.822C614.813 519.908 611.088 486.159 631.627 483.42ZM693.779 519.872C694.648 510.314 690.14 498.571 688.029 489.221C709.5 491.991 703.826 542.621 685.629 550.023C686.934 539.586 692.829 530.325 693.779 519.872ZM661.628 491.621C664.228 491.621 664.228 491.621 666.828 491.621C666.828 500.821 666.828 500.821 666.828 510.022C669.828 508.022 669.828 508.022 672.828 506.021C667.628 517.022 667.628 517.022 662.428 528.022C665.5 525.585 668.393 522.693 672.028 521.222C668.428 527.406 664.934 533.652 661.228 539.773C659.503 542.621 659.482 542.478 657.628 544.023C652.628 536.623 652.628 536.623 647.627 529.222C651.407 530.062 648.882 529.339 654.828 532.423C652.228 523.622 652.228 523.622 649.627 514.822C653.828 516.222 653.828 516.222 658.028 517.622C654.378 507.696 654.378 507.696 650.728 497.771C653.939 501.35 657.909 504.173 661.628 507.221C661.628 499.421 661.628 499.421 661.628 491.621ZM729.231 498.021C722.065 523.501 718.54 530.152 731.631 554.023C714.855 546.769 705.214 501.881 729.231 498.021ZM90.8038 514.822C94.3726 516.165 123.689 523.178 124.605 528.672C113.831 531.366 94.685 526.465 90.8038 514.822ZM85.6036 526.422C90.7923 529.99 94.074 530.891 100.404 532.223C92.633 535.495 85.6036 536.626 85.6036 526.422ZM220.409 548.523C224.503 541.729 232.649 536.189 229.66 548.573C225.235 566.903 212.892 556.464 224.009 575.224C214.409 575.024 214.409 575.024 204.809 574.824C210.009 566.057 215.149 557.254 220.409 548.523ZM338.414 550.023C335.338 548.265 329.355 544.14 331.214 540.423C335.962 542.571 336.995 546.476 338.414 550.023ZM557.224 543.223C558.824 543.223 558.824 543.223 560.424 543.223C560.424 548.641 564.657 572.542 554.423 573.224C558.538 563.56 557.224 553.621 557.224 543.223ZM530.422 543.623C541.572 549.894 548.676 558.445 551.623 570.824C542.083 566.054 533.307 553.717 530.422 543.623ZM581.625 549.623C580.169 553.206 577.835 556.074 574.824 558.424C576.21 555.037 577.155 549.623 581.625 549.623ZM627.627 549.623C636.165 557.951 645.063 565.946 653.028 574.824C637.635 577.39 628.965 563.006 627.627 549.623ZM776.433 550.823C776.433 562.824 776.433 562.824 776.433 574.824C770.433 574.824 770.433 574.824 764.432 574.824C766.73 570.359 771.838 555.618 776.433 550.823ZM341.214 552.823C344.415 552.823 344.415 552.823 347.615 552.823C347.615 556.824 347.615 556.824 347.615 560.824C342.545 560.649 342.679 557.217 341.214 552.823ZM413.217 553.223C423.729 556.508 433.804 565.487 439.619 574.624C425.534 574.837 417.807 566.992 413.217 553.223ZM448.419 554.823C448.419 560.848 450.944 574.824 442.019 574.824C442.145 568.525 439.715 555.334 448.419 554.823ZM658.028 558.424C661.396 561.791 666.287 574.824 658.028 574.824C658.028 566.624 658.028 566.624 658.028 558.424ZM685.229 558.824C686.567 569.527 677.195 574.824 668.028 574.824C673.87 568.894 678.789 563.748 685.229 558.824ZM466.62 560.024C465.081 566.95 463.464 572.359 456.019 572.824C456.596 565.743 460.828 563.885 466.62 560.024ZM574.024 560.424C572.369 567.873 569.535 569.131 562.424 570.824C565.376 566.607 569.327 562.634 574.024 560.424ZM161.307 573.512C171.026 572.617 175.375 563.679 182.008 575.224C164.807 575.024 164.807 575.024 147.606 574.824C147.606 573.424 147.606 573.424 147.606 572.024C152.01 572.735 156.798 573.927 161.307 573.512ZM389.616 574.824C380.549 574.942 371.348 575.987 362.415 574.424C370.784 572.981 381.727 570.879 389.616 574.824Z" fill="#000000" fill-rule="nonzero" opacity="1" stroke="none"/>
</g>
</svg>
