<?xml version="1.0" encoding="UTF-8" standalone="no"?>
<!DOCTYPE svg PUBLIC "-//W3C//DTD SVG 1.1//EN" "http://www.w3.org/Graphics/SVG/1.1/DTD/svg11.dtd">
<!-- Created with Vectornator (http://vectornator.io/) -->
<svg height="100%" stroke-miterlimit="10" style="fill-rule:nonzero;clip-rule:evenodd;stroke-linecap:round;stroke-linejoin:round;" version="1.1" viewBox="0 0 800 600" width="100%" xml:space="preserve" xmlns="http://www.w3.org/2000/svg" xmlns:xlink="http://www.w3.org/1999/xlink">
<defs/>
<clipPath id="ArtboardFrame">
<rect height="600" width="800" x="0" y="0"/>
</clipPath>
<g clip-path="url(#ArtboardFrame)" id="Layer-1">
<path d="M2.00008 4.00017C1.20005 302.213 1.20005 302.213 0.400017 600.425C400.417 600.425 400.417 600.425 800.434 600.425C800.034 301.413 800.034 301.413 799.634 2.4001C400.817 3.20014 400.817 3.20014 2.00008 4.00017ZM702.83 23.601C705.917 36.2335 705.917 36.2335 709.004 48.8661C705.339 51.2861 700.748 52.0031 696.429 52.8022C700.096 59.0692 706.498 64.4022 707.43 71.603C708.154 77.1964 702.752 81.8834 700.88 87.2037C699.161 92.089 699.208 105.861 704.23 109.08C706.98 110.843 710.763 109.163 714.03 109.205C714.614 101.021 715.927 92.8567 715.78 84.6536C715.708 80.6239 712.556 76.7482 713.38 72.8031C714.237 68.7034 718.08 65.8695 720.43 62.4026C729.489 75.6718 727.324 96.6366 722.831 111.205C736.313 111.101 748.418 82.6668 763.632 97.6041C756.032 100.204 756.032 100.204 748.432 102.804C763.232 106.004 763.232 106.004 778.033 109.205C777.237 96.6847 777.101 83.89 779.633 71.603C778.699 99.3654 783.475 117.978 749.982 115.455C744.714 115.058 739.615 113.421 734.431 112.405C730.62 123.516 698.976 123.023 696.029 116.005C689.525 100.514 697.397 88.9758 682.391 81.2034C670.33 74.9562 658.163 68.9005 645.827 63.2152C618.357 50.5552 588.995 40.2644 560.024 32.2014C549.452 29.2591 538.303 28.8222 527.672 26.1011C526.77 25.8701 526.839 24.4344 526.422 23.601C614.626 23.601 614.626 23.601 702.83 23.601ZM744.432 23.601C738.04 29.7082 730.009 28.8939 721.631 29.2012C726.476 40.5076 736.691 32.0695 743.631 40.0017C733.631 41.8018 733.631 41.8018 723.631 43.6018C729.023 49.8883 739.219 45.0243 743.631 51.2022C736.99 52.5147 730.362 53.9036 723.706 55.1398C705.715 58.4809 721.959 44.6237 718.446 34.6815C716.828 30.101 705.079 24.575 704.33 24.101C717.553 22.1372 731.064 23.5056 744.432 23.601ZM779.633 25.2011C774.084 28.9501 762.327 28.4963 757.432 23.601C764.393 23.0009 773.096 22.2297 779.633 25.2011ZM347.615 24.401C401.018 24.4892 458.54 5.02593 507.821 25.6011C535.294 37.0709 536.987 78.1354 544.995 106.809C547.045 114.149 541.377 122.214 536.423 128.005C531.724 133.497 523.889 135.206 517.622 138.806C522.822 145.506 522.822 145.506 528.022 152.206C522.722 157.407 522.722 157.407 517.422 162.607C522.122 165.607 522.122 165.607 526.822 168.607C525.356 170.657 522.826 172.269 522.422 174.757C521.467 180.633 525.935 187.474 522.922 192.608C516.878 202.905 505.821 209.276 497.271 217.609C503.946 217.809 503.946 217.809 510.622 218.009C503.662 224.032 496.447 229.773 489.021 235.21C484.754 231.076 481.904 224.537 476.22 222.809C459.143 217.619 440.885 217.743 423.218 215.209C424.899 221.166 424.899 221.166 426.581 227.122C423.843 228.168 420.914 231.71 418.368 230.26C411.804 226.521 408.084 219.193 402.942 213.659C416.48 196.233 416.48 196.233 430.018 178.808C415.151 180.224 400.178 180.79 385.416 183.058C377.411 184.287 375.859 190.347 372.016 196.408C372.796 182.429 374.386 168.131 371.616 154.407C366.816 175.507 366.816 175.507 362.015 196.608C355.198 191.458 348.99 185.384 341.564 181.158C340.291 180.433 337.734 181.178 337.414 182.608C334.437 195.926 330.215 209.703 332.164 223.209C333.283 230.967 344.507 234.519 346.015 242.21C347.131 247.908 342.27 253.353 339.014 258.161C336.415 261.999 332.214 264.461 328.814 267.611C328.281 248.01 326.973 228.415 327.214 208.809C327.357 197.19 327.348 185.379 329.964 174.057C334.194 155.75 344.431 148.885 356.815 136.206C346.094 136.754 338.504 147.717 330.814 155.207C334.614 147.74 344.387 140.897 342.214 132.806C335.925 109.383 319.147 90.1371 307.613 68.8029C304.313 99.1042 304.313 99.1042 301.013 129.405C280.412 126.705 280.412 126.705 259.811 124.005C271.85 140.221 281.655 158.363 295.927 172.653C299.845 176.577 307.311 173.662 312.134 176.397C315.109 178.084 317.346 181.608 317.713 185.008C320.017 206.298 319.247 227.81 320.014 249.211C313.013 240.11 313.013 240.11 306.013 231.01C311.197 251.746 321.237 267.302 321.414 288.812C306.013 271.912 294.139 250.938 275.212 238.11C260.846 228.374 241.877 228.443 225.21 223.609C231.076 212.476 239.734 202.411 242.81 190.208C245.44 179.778 243.183 168.618 241.76 157.957C238.972 137.07 238.205 115.3 230.21 95.8041C224.674 82.3065 214.509 70.1523 202.409 62.0026C190.809 54.1902 176.192 49.9781 162.207 50.0021C145.992 50.03 128.951 53.715 115.105 62.1526C102.114 70.069 91.8735 83.0356 85.4036 96.8041C81.9147 104.229 84.6559 113.574 87.2912 121.343C89.9528 129.189 96.2999 135.252 100.804 142.206C72.7744 155.895 112.414 177.314 119.405 189.708C126.233 201.813 130.043 215.414 134.406 228.61C134.809 229.83 134.426 231.463 133.506 232.36C118.771 246.714 102.497 260.203 84.0036 269.211C82.6368 259.761 79.0632 250.372 79.9034 240.86C80.6138 232.817 87.8916 226.268 88.5077 218.217C88.7552 214.984 84.3049 213.278 82.2035 210.809C71.1363 218.543 58.8501 224.774 49.0021 234.01C34.5438 247.57 28.394 266.581 20.8009 284.012C22.0009 154.407 22.0009 154.407 23.201 24.801C131.339 24.6677 239.477 24.2225 347.615 24.401ZM779.633 34.0014C779.433 39.6017 779.433 39.6017 779.233 45.2019C773.73 39.2677 765.33 40.2569 757.632 39.6017C762.441 33.2081 772.229 34.0014 779.633 34.0014ZM542.223 75.7032C537.518 64.8419 533.316 54.0935 530.022 42.8018C550.265 48.0311 574.068 65.4605 581.225 85.6036C554.993 91.4925 552.991 100.561 542.223 75.7032ZM779.483 46.902C779.358 50.2521 779.358 50.2521 779.233 53.6023C768.433 53.0022 768.433 53.0022 757.632 52.4022C761.696 46.4934 773.017 44.9294 779.483 46.902ZM663.341 177.733C650.654 157.006 637.482 136.573 623.926 116.405C618.5 108.332 612.785 100.414 606.426 93.0539C593.736 78.3682 577.003 66.7668 567.224 50.0021C570.491 52.0689 574.162 53.6048 577.024 56.2024C623.92 98.7512 669.749 155.74 682.829 219.209C673.49 207.202 671.348 190.815 663.341 177.733ZM779.633 59.2025C778.918 68.4957 738.811 67.1565 730.031 63.2027C745.949 61.794 763.717 59.2025 779.633 59.2025ZM650.74 120.243C637.734 101.112 619.312 81.8258 606.826 62.4026C636.993 82.2182 669.417 137.746 681.229 171.607C669.702 155.429 661.97 136.76 650.74 120.243ZM763.632 71.603C760.313 79.3489 743.011 80.2967 739.231 73.0031C746.918 71.312 756.001 71.815 763.632 71.603ZM638.427 74.4031C661.65 89.007 675.693 120.035 683.429 145.006C668.453 121.746 652.766 97.9606 638.427 74.4031ZM763.632 86.8037C757.321 87.0176 741.84 90.4762 738.031 83.2035C746.191 81.6114 759.249 78.0363 763.632 86.8037ZM602.826 113.205C575.666 106.69 578.021 110.788 553.223 118.005C560.186 92.7419 595.479 84.5191 602.826 113.205ZM158.557 111.355C162.731 106.468 165.548 99.8511 171.207 96.8041C167.467 109.271 159.07 119.873 152.006 130.806C168.91 124.923 182.513 117.071 195.608 104.804C194.235 112.261 190.265 119.078 186.408 125.605C196.553 120.184 206.134 113.558 214.809 106.004C217.209 111.405 217.209 111.405 219.609 116.805C218.609 116.605 218.609 116.605 217.609 116.405C218.935 124.035 214.963 123.576 209.559 132.156C201.829 144.428 200.008 153.043 200.008 167.207C205.522 150.98 208.884 138.943 222.409 128.005C222.809 128.739 223.624 129.37 223.609 130.206C223.457 138.839 211.901 144.827 208.809 153.206C207.102 157.83 201.586 172.5 213.109 167.907C220.444 164.983 227.239 160.65 234.81 158.407C233.387 180.635 232.813 209.231 208.009 218.809C206.17 207.491 206.404 195.762 208.009 184.408C204.409 185.608 204.409 185.608 200.808 186.808C200.408 183.208 200.408 183.208 200.008 179.608C193.008 181.008 193.008 181.008 186.008 182.408C188.808 187.808 188.808 187.808 191.608 193.208C184.008 193.408 184.008 193.408 176.407 193.608C193.703 206.58 195.763 197.392 201.609 222.409C178.995 225.817 166.85 219.201 146.406 208.809C155.793 222.168 164.74 224.96 180.208 233.41C142.142 245.305 132.69 205.364 128.405 178.008C143.241 179.01 172.55 184.986 184.808 172.007C162.185 160.462 149.762 155.974 125.205 161.607C125.454 155.893 125.976 152.862 133.131 152.694C141.692 152.493 150.296 152.652 158.807 153.607C171.718 155.054 182.18 164.69 192.408 171.207C188.513 157.962 164.466 145.344 151.206 144.606C143.051 144.152 134.281 147.311 126.705 144.256C112.817 138.656 129.042 105.671 138.406 99.6042C132.806 114.405 132.806 114.405 127.205 129.205C139.511 127.838 150.612 120.656 158.557 111.355ZM313.813 109.805C317.691 126.222 319.944 142.983 322.814 159.607C308.54 141.45 309.402 132.805 313.813 109.805ZM565.024 123.005C567.767 122.028 570.549 121.066 573.424 120.605C619.478 113.219 609.132 137.987 620.276 173.907C620.8 175.594 635.003 172.223 638.027 174.407C640.815 176.421 640.743 178.979 640.227 182.208C637.443 199.626 624.265 202.993 609.226 206.409C611.426 211.009 611.426 211.009 613.626 215.609C599.825 218.209 599.825 218.209 586.025 220.809C592.025 212.209 592.025 212.209 598.025 203.609C592.004 206.228 586.31 209.6 580.825 213.209C585.269 206.087 584.008 209.308 585.625 204.009C578.424 209.109 578.424 209.109 571.224 214.209C572.024 211.309 572.024 211.309 572.824 208.409C566.424 211.609 566.424 211.609 560.024 214.809C561.798 209.486 560.508 212.372 564.424 206.409C560.424 207.809 560.424 207.809 556.424 209.209C557.424 207.409 557.424 207.409 558.424 205.609C554.223 207.009 554.223 207.009 550.023 208.409C549.786 203.032 549.156 205.888 553.623 200.408C548.623 202.409 548.623 202.409 543.623 204.409C545.223 201.209 545.223 201.209 546.823 198.008C542.423 199.408 542.423 199.408 538.023 200.808C539.823 197.808 539.823 197.808 541.623 194.808C538.223 195.808 538.223 195.808 534.823 196.808C536.023 194.408 536.023 194.408 537.223 192.008C534.623 192.408 534.623 192.408 532.023 192.808C532.744 191.185 534.482 185.435 537.023 183.808C540.711 181.446 558.463 184.139 555.424 175.557C552.031 165.98 539.069 175.988 538.423 162.807C555.821 164.933 571.727 167.826 589.625 169.607C581.044 161.95 572.102 163.539 560.474 161.157C551.852 159.391 555.386 157.057 546.023 151.956C540.571 148.986 535.675 151.635 536.873 142.206C559.859 137.486 581.827 148.941 604.426 150.806C597.396 147.113 600.208 149.157 595.625 145.206C599.025 145.006 599.025 145.006 602.425 144.806C597.598 142.951 594.969 141.054 601.225 138.806C584.878 133.277 571.271 130.129 554.023 130.806C559.216 125.397 557.874 125.552 565.024 123.005ZM326.814 122.805C331.925 127.916 334.177 133.392 330.614 139.806C328.898 134.255 327.952 128.495 326.814 122.805ZM735.231 124.805C737.135 148.731 736.843 172.891 734.831 196.808C740.098 189.075 744.478 180.656 750.632 173.607C755.216 168.357 767.79 175.357 763.296 180.68C759.951 184.642 754.453 186.099 750.032 188.808C763.632 192.408 763.632 192.408 777.233 196.008C778.433 167.007 778.433 167.007 779.633 138.006C779.633 357.215 779.633 357.215 779.633 576.424C618.426 576.824 618.426 576.824 457.219 577.224C479.011 568.49 503.423 568.095 525.634 560.49C532.35 558.19 530.573 536.527 530.822 526.822C567.253 545.783 584.239 552.2 625.426 547.023C633.805 545.97 643.422 547.195 650.322 542.325C658.939 536.242 661.206 524.005 668.641 516.522C671.605 513.538 676.499 513.522 680.429 512.022C677.879 491.521 678.126 470.474 672.778 450.519C669.783 439.34 659.5 431.193 655.828 420.218C651.022 405.855 660.523 381.441 659.978 368.716C657.976 322.028 649.308 275.726 639.627 230.01C658.226 246.762 676.422 264.576 698.03 277.212C699.564 248.916 699.127 220.445 702.634 192.326C703.133 188.326 706.006 183.881 709.83 182.608C716.222 180.48 723.297 183.008 730.031 183.208C731.235 163.7 730.95 143.875 735.231 124.805ZM749.632 125.605C757.832 126.405 757.832 126.405 766.032 127.205C763.7 142.363 752.28 138.406 749.632 125.605ZM710.03 130.406C715.83 130.406 715.83 130.406 721.631 130.406C720.259 138.358 720.173 141.892 712.03 143.606C711.03 137.006 711.03 137.006 710.03 130.406ZM309.613 152.406C301.632 147.821 293.453 143.538 285.812 138.406C298.665 136.502 306.273 139.048 309.613 152.406ZM763.632 147.606C763.632 157.47 761.567 158.434 752.032 160.407C750.832 154.407 750.832 154.407 749.632 148.406C758.163 147.818 753.496 148.101 763.632 147.606ZM292.012 152.206C299.071 156.831 306.186 161.889 312.013 168.007C299.808 168.774 297.624 162.665 292.012 152.206ZM710.43 169.207C710.514 163.154 709.393 160.361 712.43 156.007C725.59 155.232 718.935 167.081 710.43 169.207ZM401.217 189.208C388.216 196.008 388.216 196.008 375.216 202.809C381.84 191.088 386.903 185.629 401.217 189.208ZM659.778 206.271C663.813 213.431 667.356 220.858 671.028 228.21C674.107 234.372 677.029 240.61 680.029 246.81C668.307 244.578 644.431 222.218 638.827 211.009C636.241 205.836 646.125 197.433 648.027 191.408C654.181 192.828 656.677 200.769 659.778 206.271ZM405.217 196.408C400.18 210.122 385.857 213.958 373.216 214.409C380.306 204.956 394.968 200.918 405.217 196.408ZM348.415 198.008C357.883 203.689 361.963 209.963 355.815 220.209C352.641 213.129 350.699 205.398 348.415 198.008ZM342.414 204.809C345.995 212.866 347.624 224.945 349.215 232.01C337.488 226.146 337.104 215.429 342.414 204.809ZM410.417 234.81C400.661 230.629 390.366 227.366 381.416 221.659C395.801 218.862 402.318 222.211 410.417 234.81ZM80.0034 224.409C75.7685 232.156 62.6323 257.623 49.3021 247.71C54.2354 236.498 67.8628 226.175 80.0034 224.409ZM452.469 226.46C455.604 226.939 458.724 227.523 461.82 228.21C466.049 229.148 490.958 238.004 474.833 242.935C462.328 246.759 440.754 257.097 431.218 240.41C445.619 239.81 445.619 239.81 460.019 239.21C453.185 235.645 443.579 232.442 438.219 226.01C445.724 225.555 444.556 225.249 452.469 226.46ZM374.016 228.01C384.858 230.178 401.519 236.229 409.217 245.21C390.766 246.388 384.852 243.308 374.016 228.01ZM351.499 341.39C354.483 319.595 331.07 309.143 330.014 288.812C329.224 273.602 334.709 278.659 343.815 268.611C352.712 258.793 355.262 240.845 358.815 228.41C368.329 234.661 374.41 245.55 384.736 250.211C394.102 254.438 405.714 249.829 415.418 253.211C423.104 255.889 428.138 263.528 435.318 267.361C442.274 271.075 452.483 269.554 457.469 275.662C464.523 284.301 468.76 296.285 468.02 307.413C467.635 313.201 457.735 313.621 454.619 318.513C448.959 327.399 449.673 339.456 443.819 348.215C430.253 368.511 412.97 386.062 403.217 408.817C387.759 395.9 381.153 383.626 361.39 388.804C349.094 392.026 337.07 401.837 324.664 399.067C328.967 377.303 348.416 363.908 351.499 341.39ZM566.024 233.61C552.427 254.43 534.344 276.025 512.022 287.612C510.835 280.122 508.756 272.744 506.046 265.661C503.908 260.072 500.757 254.912 498.521 249.361C495.033 240.7 508.553 239.31 514.022 237.21C510.967 244.63 510.978 241.571 511.422 246.01C518.976 242.566 525.196 238.342 533.223 236.01C531.623 241.31 531.623 241.31 530.022 246.61C544.675 240.435 552.416 234.517 566.024 233.61ZM239.81 245.41C241.336 244.43 242.959 247.298 244.21 248.611C257.274 262.312 265.452 272.271 276.162 287.462C286.164 301.651 295.889 316.034 305.613 330.414C307.047 332.534 310.163 335.696 308.413 337.564C303.669 342.63 298.003 346.756 292.562 351.065C286.394 355.951 288.711 347.795 279.012 347.015C271.862 346.44 264.778 348.836 257.711 350.065C251.061 351.221 233.836 357.398 231.122 352.865C225.245 343.049 220.114 332.802 214.359 322.914C209.258 314.148 203.65 305.684 198.558 296.913C197.72 295.468 196.242 293.938 196.59 292.304C199.275 279.703 212.864 272.284 221.809 263.011C227.636 256.971 232.751 249.948 239.81 245.41ZM486.971 250.173C489.935 250.706 503.223 279.293 503.421 285.012C503.563 289.098 489.622 297.78 487.221 293.737C481.137 283.498 480.431 276.728 479.62 265.211C471.744 266.827 463.66 267.611 455.619 267.611C458.963 253.486 472.407 247.554 486.971 250.173ZM72.8031 250.011C74.194 254.436 74.1245 259.197 74.6032 263.811C69.8153 258.815 68.0242 255.188 72.8031 250.011ZM83.5035 321.464C83.5909 332.558 83.0472 348.797 75.2782 358.228C66.6433 368.709 53.6793 364.516 48.8021 351.615C45.72 343.462 45.3432 334.487 42.6018 326.214C39.9748 318.286 35.895 310.913 32.7514 303.175C32.1896 301.792 29.5306 295.538 29.6013 292.412C30.0501 272.549 34.275 249.427 58.4025 256.811C67.2545 259.52 70.9869 270.41 76.8033 277.612C71.6517 277.536 66.6203 275.981 61.6026 274.812C65.2028 279.612 65.2028 279.612 68.8029 284.412C62.4026 282.012 62.4026 282.012 56.0024 279.612C59.2025 286.412 59.2025 286.412 62.4026 293.212C54.8023 290.812 54.8023 290.812 47.202 288.412C53.3053 300.376 60.1422 312.237 63.6027 325.214C72.6412 316.175 69.1486 294.011 82.0035 288.012C82.5035 299.163 83.4157 310.302 83.5035 321.464ZM449.619 256.811C448.419 260.411 448.419 260.411 447.219 264.011C442.456 262.344 437.53 260.987 434.818 256.411C442.219 256.611 442.219 256.611 449.619 256.811ZM471.57 276.562C474.45 283.972 477.147 291.457 479.62 299.013C471.243 305.296 458.325 277.494 471.57 276.562ZM172.407 297.613C176.464 296.869 181.576 293.961 184.108 298.563C195.561 319.383 206.933 340.248 218.209 361.165C223.222 370.464 223.209 379.42 217.809 388.816C209.672 384.602 211.799 374.467 207.909 367.716C204.652 362.063 197.458 355.397 191.208 353.215C193.208 359.015 193.208 359.015 195.208 364.815C193.108 365.615 193.108 365.615 191.008 366.416C185.793 358.052 182.026 356.465 173.207 360.415C176.607 363.915 176.607 363.915 180.008 367.416C178.408 368.116 178.408 368.116 176.807 368.816C175.366 365.139 166.386 358.689 164.007 356.015C164.328 360.17 164.766 364.98 162.407 368.416C170.859 374.311 171.466 376.868 172.407 387.216C180.178 387.241 178.346 388.699 184.608 396.817C162.732 402.393 163.596 384.49 151.556 366.616C137.624 345.93 123.055 325.68 108.805 305.213C116.925 304.412 126.303 300.52 133.281 304.75C136.059 306.435 133.797 314.16 134.206 315.113C135.484 318.097 139.133 319.525 140.706 322.364C142.675 325.916 142.51 330.431 144.619 333.902C145.354 335.112 147.602 334.367 148.606 335.364C151.256 337.995 153.006 341.398 155.207 344.415C154.857 339.668 153.625 335.015 152.406 330.414C154.007 330.414 154.007 330.414 155.607 330.414C150.763 324.82 144.377 321.387 145.606 314.013C150.006 320.33 154.712 326.445 158.807 332.964C160.927 336.34 159.687 336.388 157.607 338.414C163.137 342.101 189.945 339.024 190.496 336.252C191.275 332.325 184.171 332.961 183.408 331.814C179.518 325.968 178.65 318.545 175.33 312.357C173.334 308.634 167.029 310.544 162.807 310.413C164.506 306.731 169.737 306.023 173.607 304.813C167.875 301.081 161.677 304.493 156.407 300.413C161.74 299.479 167.081 298.589 172.407 297.613ZM22.0009 304.813C21.9928 302.927 21.4676 301.079 21.2009 299.213C26.9924 309.881 30.333 315.056 32.8514 329.864C34.8196 341.437 31.4188 353.836 35.0015 365.015C41.8371 386.345 55.2577 405.033 63.6027 425.818C65.2789 429.993 52.7336 428.85 43.4018 437.431C32.7557 447.221 24.6105 463.264 25.3641 478.173C25.8045 486.888 22.7565 497.704 28.6432 504.145C40.5943 517.222 57.7759 524.848 74.1656 531.572C91.8682 538.835 112.105 536.88 131.206 538.023C125.005 550.623 125.005 550.623 118.805 563.224C130.847 566.815 142.531 571.678 153.807 577.224C153.106 577.624 153.106 577.624 152.406 578.024C153.006 578.624 153.006 578.624 153.607 579.225C88.0037 579.225 88.0037 579.225 22.4009 579.225C22.2676 487.754 22.3929 396.283 22.0009 304.813ZM152.406 300.013C150.204 304.417 144.784 305.012 140.406 306.413C144.769 309.859 153.011 308.314 155.707 311.813C147.578 316.795 138.074 309.775 134.206 302.813C140.115 301.237 146.366 300.768 152.406 300.013ZM466.77 348.615C465.189 341.121 460.066 333.155 462.77 325.989C465.794 317.974 480.226 311.692 486.021 308.013C493.974 326.905 502.255 345.682 511.422 364.015C486.263 385.528 473.982 382.806 466.77 348.615ZM169.607 313.613C169.607 318.566 159.323 319.025 156.657 316.913C160.145 314.438 165.587 314.302 169.607 313.613ZM172.207 321.351C169.076 324.51 163.739 324.23 159.607 323.614C162.425 321.101 168.865 318.74 172.207 321.351ZM175.207 328.014C166.821 329.324 170.956 329.229 162.807 328.414C166.183 326.579 172.619 324.324 175.207 328.014ZM178.408 333.214C175.379 333.857 167.268 337.444 165.607 333.014C169.066 331.464 175.893 329.776 178.408 333.214ZM620.826 340.414C611.974 359.226 563.933 361.453 546.423 361.615C564.105 345.206 597.817 341.864 620.826 340.414ZM422.668 391.667C429.354 381.596 440.043 361.784 452.819 354.815C455.983 360.636 470.364 389.917 468.7 391.615C462.865 397.568 455.778 402.158 449.069 407.105C432.079 419.63 414.768 431.714 397.617 444.019C403.259 425.392 411.876 407.921 422.668 391.667ZM259.811 360.615C261.538 360.289 271.655 357.752 274.574 359.515C280.937 363.358 287.08 367.557 293.462 371.366C294.549 372.014 301.076 374.693 302.8 376.816C310.263 386.001 308.185 406.27 306.413 416.018C296.751 416.634 286.875 417.539 277.512 414.418C255.422 407.054 248.653 389.368 267.611 374.816C256.224 375.597 246.054 379.293 234.81 380.816C238.243 364.043 242.169 363.946 259.811 360.615ZM184.558 365.128C185.483 369.672 185.483 369.672 186.408 374.216C183.605 372.186 177.845 366.231 184.558 365.128ZM176.007 371.616C186.395 376.068 188.174 386.089 190.408 396.017C184.378 394.43 185.894 391.399 183.608 384.416C185.008 384.816 185.008 384.816 186.408 385.216C184.276 380.649 175.052 376.037 176.007 371.616ZM191.208 371.616C195.113 375.356 196.523 378.098 198.408 383.216C193.268 379.504 191.208 378.004 191.208 371.616ZM202.009 392.017C202.409 389.416 202.409 389.416 202.809 386.816C201.609 386.416 201.609 386.416 200.408 386.016C202.809 384.216 202.809 384.216 205.209 382.416C202.488 379.696 199.237 377.058 197.408 373.616C202.298 368.726 218.799 391.16 202.009 392.017ZM524.972 375.966C528.734 381.665 532.339 387.466 536.023 393.217C523.866 391.41 508.586 391.065 497.621 384.016C502.898 380.85 520.203 368.739 524.972 375.966ZM192.808 386.016C199.334 391.464 197.034 388.839 200.408 393.217C196.008 394.017 196.008 394.017 191.608 394.817C192.208 390.417 192.208 390.417 192.808 386.016ZM128.005 393.617C129.405 396.35 135.006 407.284 136.406 410.017C131.606 411.151 112.405 415.684 107.605 416.818C111.005 412.951 124.605 397.483 128.005 393.617ZM558.824 396.417C573.948 398.106 589.027 401.994 604.226 401.217C614.567 400.688 624.872 399.107 635.227 399.217C618.246 408.92 573.081 410.674 558.824 396.417ZM487.421 400.217C497.451 400.863 507.384 402.756 517.222 404.817C523.488 406.13 529.587 408.184 535.623 410.317C536.268 410.545 537.066 411.135 537.023 411.817C536.284 423.5 534.228 435.068 533.32 446.738C533.109 449.446 533.194 455.957 535.823 458.419C553.468 474.946 570.937 491.769 589.976 506.669C593.266 509.244 597.847 509.756 602 510.209C617.946 511.949 634.019 512.218 650.028 513.222C643.883 537.8 603.429 535.626 586.025 533.823C568.248 531.98 546.903 522.868 532.623 512.222C524.738 506.343 518.793 497.842 510.222 493.021C503.991 489.517 495.743 491.195 489.396 487.908C484.974 485.619 482.175 480.978 479.22 476.97C472.351 467.653 462.476 450.716 457.319 439.619C454.361 433.254 446.032 424.58 450.932 419.555C454.868 415.518 460.057 412.93 464.62 409.617C480.887 401.584 484.09 400.002 487.421 400.217ZM566.024 412.817C590.933 416.22 610.674 415.218 635.627 415.218C621.413 430.161 580.319 425.524 566.024 412.817ZM437.169 430.718C443.957 441.285 450.707 451.88 457.219 462.62C460.231 467.586 474.421 488.393 464.62 494.621C451.427 503.004 449.687 497.693 441.469 485.071C437.036 478.263 432.812 471.315 428.768 464.27C426.004 459.454 423.339 454.567 421.055 449.507C417.016 440.553 420.576 440.669 428.418 434.418C431.113 432.271 434.762 426.973 437.169 430.718ZM281.612 433.218C273.259 439.445 262.136 449.034 251.211 451.219C257.115 433.506 264.716 432.726 281.612 433.218ZM156.007 441.019C168.986 439.818 193.887 435.711 206.359 443.169C221.678 452.329 236.989 461.634 251.211 472.42C226.791 465.609 216.155 462.006 193.346 457.444C173.696 453.514 154.321 451.518 135.606 444.419C141.632 441.071 149.142 441.654 156.007 441.019ZM390.417 465.02C395.066 462.318 402.755 455.799 405.817 460.219C415.367 474.007 424.085 488.354 433.218 502.421C415.787 516.466 383.689 534.149 361.203 529.672C350.647 527.571 341.715 514.43 332.814 507.421C347.678 489.771 370.793 476.421 390.417 465.02ZM507.421 512.622C502.516 515.497 484.084 516.338 480.62 512.272C489.052 506.51 501.336 499.234 507.421 512.622ZM321.814 515.822C323.629 518.998 324.234 522.727 325.464 526.172C327.066 530.661 332.048 539.8 331.664 545.623C331.054 554.874 283.457 556.613 276.412 556.824C276.384 527.384 295.534 526.923 321.814 515.822ZM335.114 519.272C341.139 524.642 356.589 532.71 357.415 542.623C357.647 545.408 345.452 550.395 342.615 547.823C337.765 543.428 335.432 531.071 334.214 525.022C333.098 519.481 331.451 516.007 335.114 519.272ZM443.731 518.422C447.402 519.796 447.954 533.305 448.419 537.023C450.844 556.427 457.118 569.59 437.219 574.024C439.031 570.976 442.243 570 444.419 567.224C437.245 564.065 439.192 566.219 436.781 563.036C440.6 560.93 440.6 560.93 444.419 558.824C440.319 556.724 440.319 556.724 436.218 554.623C440.883 551.813 439.249 553.287 441.619 550.823C435.372 548.425 437.497 550.164 434.418 546.823C436.602 544.203 434.949 545.848 440.419 543.223C434.205 541.248 436.066 543.106 433.618 539.223C436.618 538.223 436.618 538.223 439.619 537.223C434.802 535.349 437.128 536.476 432.643 533.835C433.343 530.452 432.569 532.446 436.518 528.722C433.968 527.672 433.968 527.672 431.418 526.622C434.318 524.922 434.318 524.922 437.219 523.222C433.228 520.299 434.43 521.876 432.818 519.222C435.05 518.918 442.078 517.803 443.731 518.422ZM489.421 544.123C489.421 548.777 489.84 557.755 488.221 558.224C485.843 558.911 483.287 558.624 480.82 558.824C483.02 555.824 483.02 555.824 485.221 552.823C478.077 550.031 479.694 552.321 477.82 548.823C481.05 546.641 478.963 547.804 484.421 546.023C482.808 543.056 480.411 542.971 478.42 540.423C481.239 539.329 481.239 539.329 484.058 538.235C480.239 536.129 480.239 536.129 476.42 534.023C479.82 533.223 479.82 533.223 483.22 532.423C481.283 529.643 482.598 531.186 478.82 528.222C481.82 526.922 481.82 526.922 484.821 525.622C481.42 523.422 481.42 523.422 478.02 521.222C491.774 520.713 489.421 532.735 489.421 544.123ZM463.42 521.222C465.488 521.586 466.64 532.334 466.682 532.585C468.305 542.227 469.477 551.939 470.82 561.624C465.02 562.224 465.02 562.224 459.219 562.824C464.143 560.362 461.732 561.809 466.42 558.424C464.001 556.696 461.339 555.681 458.619 554.423C460.964 551.439 459.258 553.397 464.42 549.223C461.42 548.023 461.42 548.023 458.419 546.823C460.422 544.069 459.021 545.497 463.22 543.223C455.693 538.444 454.14 538.725 462.02 534.823C458.029 532.233 460.072 533.656 455.919 530.51C458.769 528.866 458.769 528.866 461.62 527.222C458.619 525.022 458.619 525.022 455.619 522.822C458.222 522.302 460.806 520.762 463.42 521.222ZM512.822 522.172C515.662 533.89 517.483 553.712 502.821 554.823C504.617 552.515 507.426 552.332 509.222 550.023C503.987 548.37 506.489 549.614 501.796 546.136C504.415 544.473 504.415 544.473 507.034 542.81C504.09 540.717 504.09 540.717 501.146 538.623C505.259 536.216 503.101 537.218 507.621 535.623C503.129 531.89 505.348 533.531 501.021 530.622C503.659 528.979 503.659 528.979 506.296 527.335C502.44 525.012 503.621 526.374 502.021 524.022C508.913 522.368 505.318 523.013 512.822 522.172ZM425.618 572.424C416.892 569.425 421.113 571.447 413.017 566.224C416.118 564.724 416.118 564.724 419.218 563.224C414.886 561.411 414.886 561.411 410.555 559.599C414.368 557.455 414.368 557.455 418.18 555.311C414.499 553.667 414.499 553.667 410.817 552.023C414.318 550.623 414.318 550.623 417.818 549.223C415.848 546.466 413.585 547.166 410.017 546.823C411.98 544.922 414.689 545.018 415.68 542.485C412.249 540.654 412.249 540.654 408.817 538.823C411.268 536.451 409.669 537.495 414.018 536.423C411.017 535.623 411.017 535.623 408.017 534.823C409.929 531.394 411.049 531.576 414.818 530.822C409.992 528.257 411.494 530.076 409.617 526.022C430.859 523.252 425.066 558.145 425.618 572.424ZM212.009 538.423C192.065 546.481 184.971 548.705 164.807 538.623C177.73 533.454 198.74 536.312 212.009 538.423ZM268.011 537.623C267.972 543.907 268.594 550.315 267.286 556.461C258.684 556.331 249.103 548.299 246.41 540.223C251.72 537.189 261.923 537.907 268.011 537.623ZM376.816 537.623C394.762 539.734 391.794 567.239 406.417 576.824C390.217 577.024 390.217 577.024 374.016 577.224C387.372 565.352 381.129 553.796 376.816 537.623ZM239.01 541.823C244.967 551.634 250.86 563.767 264.111 564.074C288.599 564.64 312.947 559.951 337.214 556.624C344.843 555.577 377.167 551.411 370.216 566.824C366.957 562.184 368.923 563.048 365.703 562.224C363.959 565.324 363.959 565.324 362.215 568.424C359.131 562.138 361.157 564.243 357.215 561.224C355.815 564.824 355.815 564.824 354.415 568.424C351.544 566.157 352.884 567.641 350.815 563.624C349.215 566.824 349.215 566.824 347.615 570.024C345.01 566.601 346.104 568.657 344.815 563.624C342.715 567.824 342.715 567.824 340.614 572.024C338.864 568.874 338.864 568.874 337.114 565.724C335.964 568.874 335.964 568.874 334.814 572.024C331.961 569.617 333.441 571.334 331.614 566.024C330.114 568.524 330.114 568.524 328.614 571.024C326.914 568.124 326.914 568.124 325.214 565.224C323.614 568.624 323.614 568.624 322.014 572.024C321.014 569.024 321.014 569.024 320.014 566.024C317.812 569.242 316.886 571.224 312.813 571.224C312.62 568.259 313.067 569.578 311.613 567.224C310.169 569.63 310.169 569.63 308.726 572.037C306.153 570.346 307.668 571.632 305.213 567.224C305.015 571.385 305.426 569.388 304.013 573.224C301.813 570.424 301.813 570.424 299.613 567.624C297.763 569.699 297.763 569.699 295.913 571.774C294.762 569.699 294.762 569.699 293.612 567.624C290.712 571.524 290.712 571.524 287.812 575.424C286.512 572.924 286.512 572.924 285.212 570.424C282.287 573.499 282.287 573.499 279.362 576.574C279.087 574.299 279.087 574.299 278.812 572.024C275.687 574.149 275.687 574.149 272.562 576.274C271.086 574.149 271.086 574.149 269.611 572.024C267.211 574.224 267.211 574.224 264.811 576.424C264.411 573.824 264.411 573.824 264.011 571.224C260.811 573.024 260.811 573.024 257.611 574.824C257.411 572.424 257.411 572.424 257.211 570.024C255.211 571.224 255.211 571.224 253.211 572.424C253.211 569.624 253.211 569.624 253.211 566.824C250.411 568.224 250.411 568.224 247.61 569.624C247.81 566.224 247.81 566.224 248.01 562.824C244.61 564.024 244.61 564.024 241.21 565.224C241.21 561.624 241.21 561.624 241.21 558.024C237.81 558.824 237.81 558.824 234.41 559.624C236.01 554.623 236.01 554.623 237.61 549.623C234.41 549.223 234.41 549.223 231.21 548.823C236.084 543.95 233.491 546.291 239.01 541.823ZM215.009 561.224C217.665 558.98 220.5 554.556 223.809 555.624C227.326 556.758 227.631 561.95 229.585 565.086C232.868 570.356 239.05 572.409 243.21 576.824C224.756 577.519 206.266 577.406 187.808 576.824C199.212 571.883 205.385 569.352 215.009 561.224Z" fill="#000000" fill-rule="nonzero" opacity="1" stroke="none"/>
</g>
</svg>
