<?xml version="1.0" encoding="UTF-8" standalone="no"?>
<!DOCTYPE svg PUBLIC "-//W3C//DTD SVG 1.1//EN" "http://www.w3.org/Graphics/SVG/1.1/DTD/svg11.dtd">
<!-- Created with Vectornator (http://vectornator.io/) -->
<svg height="100%" stroke-miterlimit="10" style="fill-rule:nonzero;clip-rule:evenodd;stroke-linecap:round;stroke-linejoin:round;" version="1.1" viewBox="0 0 800 600" width="100%" xml:space="preserve" xmlns="http://www.w3.org/2000/svg" xmlns:xlink="http://www.w3.org/1999/xlink">
<defs/>
<g id="Layer-1">
<path d="M3.63666 4.47519C3.59752 300.311 3.59752 300.311 3.55839 596.147C399.962 595.471 399.962 595.471 796.365 594.795C796.405 298.959 796.405 298.959 796.444 3.12355C532.176 4.18007 267.906 4.10011 3.63666 4.47519ZM776.386 23.4691C776.334 28.3379 776.698 33.2593 775.944 38.0697C765.659 38.9225 742.267 44.1048 729.535 41.3384C736.477 37.3792 743.918 34.3671 751.164 30.9985C745.898 28.8542 738.044 28.0092 733.985 23.7489C755.185 23.609 755.185 23.609 776.386 23.4691ZM722.385 23.716C714.031 37.0712 709.115 38.7038 693.535 41.2363C699.666 61.9236 703.242 83.4048 705.355 104.878C718.483 103.59 731.552 101.301 744.741 101.014C750.304 100.893 751.151 102.552 753.353 105.414C728.348 107.143 728.348 107.143 703.343 108.872C709.484 116.13 725.621 108.522 726.919 117.34C719.886 117.537 712.854 117.944 705.818 117.93C696.759 117.913 699.4 109.552 698.963 102.059C690.573 108.153 686.063 113.244 675.336 111.493C660.612 109.091 641.003 104.797 649.62 99.5439C651.89 98.16 693.709 99.1415 692.806 86.6398C692.327 79.9944 688.709 73.9599 686.66 67.62C685.541 68.9913 677.356 80.4167 673.119 82.1334C666.381 84.8637 659.259 86.5407 652.251 88.475C649.177 89.3235 640.452 91.4998 641.24 84.6303C641.405 83.1987 642.666 81.9894 643.872 81.2003C664.317 67.8209 686.526 63.8975 664.34 39.5533C663.417 57.0245 646.084 79.8318 627.846 72.6538C633.566 65.3901 646.354 59.084 646.564 48.704C646.869 33.606 645.345 29.7065 631.977 26.2599C634.528 41.4041 636.92 48.2373 627.829 60.8524C626.203 63.1095 618.761 74.8434 613.758 68.2633C612.993 67.2574 613.288 65.6946 613.619 64.475C618.597 46.1031 624.375 40.1949 619.984 23.8256C654.117 23.6578 688.251 23.7083 722.385 23.716ZM597.184 23.7609C599.435 23.8209 606.409 22.7745 608.979 25.5946C614.036 31.143 607.795 64.2094 604.004 69.5858C602.989 71.0253 596.302 70.5544 595.852 70.5628C597.238 54.5276 598.856 39.6429 597.184 23.7609ZM548.783 24.2237C555.478 24.2748 581.848 24.3561 584.168 29.5247C588.224 38.5602 588.01 48.9711 589.285 58.7928C590.546 68.5119 590.449 67.0753 586.844 73.1376C576.332 60.3201 573.255 42.8824 567.199 27.4513C561.556 27.6647 556.907 32.1892 552.152 35.2346C558.856 45.5882 565.973 55.6858 572.264 66.2954C575.097 71.073 576.808 77.037 576.005 82.533C558.105 79.4385 552.107 57.448 539.121 45.999C533.398 54.1837 533.398 54.1837 527.675 62.3685C542.809 70.1451 556.44 80.8607 568.977 92.3643C566.79 97.5686 568.062 99.4885 562.074 98.0204C557.153 96.8143 552.137 95.6542 547.587 93.4287C528.619 84.153 522.719 69.6381 518.18 95.5456C522.38 95.7575 526.716 95.0985 530.779 96.1814C541.598 99.0651 552.444 102.341 562.46 107.348C569.634 110.934 558.706 117.419 558.055 117.611C540.404 122.83 532.782 112.948 516.332 112.742C516.325 123.881 516.325 123.881 516.318 135.02C533.43 132.651 550.544 129.91 567.295 125.689C568.151 133.145 566.44 137.464 557.804 140.263C546.104 144.055 533.406 144.41 521.894 148.736C518.35 150.067 522.31 157.542 526.374 168.378C542.593 157.939 555.395 152.85 570.654 140.1C573.741 144.809 573.741 144.809 576.828 149.518C565.684 162.356 551.953 172.706 539.13 183.866C531.614 190.407 550.971 196.941 537.826 204.901C523.683 213.465 504.818 202.606 488.42 200.486C481.999 199.656 462.529 204.944 474.241 215.236C484.348 224.117 495.929 231.166 506.773 239.131C501.677 237.716 501.677 237.716 496.581 236.301C497.369 240.704 497.369 240.704 498.156 245.107C477.648 245.948 455.896 243.868 436.937 251.734C437.582 235.734 437.582 235.734 438.228 219.734C434.797 230.526 434.797 230.526 431.367 241.317C426.816 223.902 426.816 223.902 422.265 206.487C421.649 212.086 421.649 212.086 421.034 217.685C416.446 213.424 414.928 206.704 412.681 200.859C412.463 207.259 412.463 207.259 412.245 213.66C408.071 204.647 408.071 204.647 403.896 195.634C405.068 205.638 405.068 205.638 406.239 215.643C401.862 207.629 401.862 207.629 397.485 199.616C399.456 209.623 399.456 209.623 401.428 219.63C397.051 211.616 397.051 211.616 392.673 203.603C393.059 208.804 393.059 208.804 393.444 214.006C391.061 207.999 391.061 207.999 388.678 201.991C389.655 209.995 389.655 209.995 390.633 217.999C386.651 211.587 386.651 211.587 382.669 205.175C383.917 214.623 383.917 214.623 385.165 224.071C380.457 216.27 377.426 213.709 377.672 203.96C378.195 183.283 380.579 162.69 381.486 142.026C381.86 133.495 377.165 125.129 378.07 116.638C378.96 108.288 388.102 111.288 384.377 101.054C383.428 98.4486 379.139 98.2929 377.929 95.7978C374.294 88.3023 377.791 78.7052 368.703 74.2316C363.013 71.4307 356.362 71.1935 350.405 69.0165C347.568 67.9796 345.488 64.5832 342.467 64.6435C337.143 64.7497 329.739 72.4001 326.833 67.937C317.647 53.8306 310.546 38.3361 300.38 24.9193C383.18 24.5373 465.984 23.5913 548.783 24.2237ZM271.58 24.8376C247.569 39.7421 244.051 40.4464 242.655 68.7609C258.154 57.0758 273.57 44.8786 290.935 36.2064C296.283 41.3347 302.79 45.4796 306.979 51.5912C311.138 57.6582 312.018 65.4607 315.446 71.9677C316.769 74.4772 320.135 75.6718 321.078 78.347C325.038 89.5795 325.871 101.746 329.73 113.013C323.7 114.06 326 112.411 323.514 118.796C317.405 110.245 312.017 101.129 305.186 93.1412C302.562 90.0718 297.831 88.5931 295.151 92.3377C290.966 98.1845 287.808 104.702 284.136 110.884C284.116 103.291 284.805 95.6632 284.076 88.1057C283.336 80.4496 268.112 85.184 261 88.1153C256.925 89.7951 251.922 91.0486 249.581 94.7837C247.802 97.6227 250.709 101.441 250.553 104.788C250.521 105.482 249.708 106.011 249.049 106.234C242.316 108.513 235.083 109.35 228.582 112.226C220.343 115.871 214.061 124.474 205.131 125.661C199.891 126.358 196.623 119.212 191.768 117.122C188.437 115.689 184.619 115.903 181.044 115.293C175.777 124.712 169.475 133.623 165.243 143.55C162.764 149.365 172.391 154.055 176.8 158.585C169.796 159.965 169.796 159.965 162.792 161.346C162.944 171.402 161.349 187.236 166.691 188.21C175.366 189.792 184.31 187.427 193.12 187.035C191.636 195.424 189.224 203.778 185.45 211.416C165.866 205.76 165.866 205.76 146.282 200.104C152.469 204.722 152.469 204.722 158.656 209.34C151.325 207.198 143.692 205.9 136.662 202.914C125.15 198.026 125.037 182.449 123.16 172.835C128.36 172.849 128.36 172.849 133.56 172.864C134.718 177.176 134.164 182.381 137.035 185.801C139.766 189.054 144.817 189.206 148.708 190.909C148.872 184.63 151.007 178.087 149.199 172.071C147.266 165.635 141.739 160.89 138.009 155.3C142.047 151.095 143.955 144.718 144.056 138.89C142.456 138.885 142.456 138.885 140.856 138.881C139.456 123.724 119.716 117.92 119.472 111.773C118.756 93.7305 118.948 75.6631 118.686 57.6079C105.518 81.8735 105.518 81.8735 92.3486 106.139C76.3193 81.1907 76.3193 81.1907 60.2901 56.2422C64.6072 85.458 64.6072 85.458 68.9243 114.674C64.3232 115.061 59.1074 113.505 55.121 115.835C47.1793 120.477 41.6188 128.331 34.8677 134.58C38.0632 136.189 38.0632 136.189 41.2586 137.798C34.653 139.78 34.653 139.78 28.0473 141.761C31.4428 143.371 31.4428 143.371 34.8382 144.981C31.6297 147.972 31.6297 147.972 28.4212 150.963C36.2187 151.886 36.2187 151.886 44.0161 152.808C39.1317 159.061 32.7088 164.373 29.3628 171.568C26.8546 176.962 27.8293 183.366 27.0626 189.264C32.6354 189.836 42.0629 194.154 43.8638 188.849C45.8822 182.904 41.1005 170.292 47.3788 170.344C52.8372 170.39 58.1658 172.025 63.5593 172.866C63.4676 175.799 63.8867 178.794 63.2843 181.666C60.2242 196.257 57.6066 211.054 52.6051 225.099C50.3634 231.394 33.7133 234.875 30.9807 235.781C40.9823 235.209 40.9823 235.209 50.984 234.637C50.7786 235.596 51.3011 237.213 50.3678 237.512C41.7197 240.283 32.6287 241.412 23.7591 243.361C23.8689 134.148 23.8689 134.148 23.9787 24.9354C106.512 24.7615 189.046 24.7343 271.58 24.8376ZM286.77 28.2811C288.807 37.57 271.931 40.3734 263.523 44.8172C266.463 36.8015 279.486 30.8177 286.77 28.2811ZM765.802 105.899C767.867 85.8641 768.696 64.1048 776.325 45.0716C776.226 59.119 776.274 73.1682 776.029 87.2139C775.541 115.214 765.446 116.577 740.917 118.18C743.411 110.01 758.219 111.91 764.536 111.446C763.958 109.105 765.506 108.773 765.802 105.899ZM755.504 52.2134C754.745 55.6395 754.778 59.4587 752.875 62.4072C749.907 67.0072 715.633 67.9776 717.249 54.1051C729.832 52.3752 742.837 52.1775 755.504 52.2134ZM334.904 109.09C319.754 98.1861 330.253 79.3557 343.243 73.2467C346.029 79.4242 337.573 85.4782 340.092 91.19C346.318 105.304 350.012 102.856 359.73 113.098C350.903 113.029 342.309 114.42 334.904 109.09ZM732.435 76.751C737.628 76.3252 742.829 75.9579 748.037 75.7951C748.717 75.7739 749.832 75.5524 750.036 76.2008C751.337 80.3305 751.479 84.7393 752.2 89.0085C741.889 89.6483 728.942 91.4005 717.795 90.5111C718.503 79.6907 721.804 77.6225 732.435 76.751ZM362.833 76.9527C373.809 80.5671 376.181 96.797 362.97 99.1058C362.593 94.2839 362.133 92.0909 363.401 87.9057C361.033 90.9738 358.824 94.2895 355.777 96.6851C355.794 90.4844 355.794 90.4844 355.812 84.2837C352.798 89.2758 352.798 89.2758 349.783 94.2678C338.716 84.9904 350.945 73.0385 362.833 76.9527ZM112.626 78.7933C112.555 104.045 103.938 94.8057 108.81 84.5832C111.899 79.5164 111.899 79.5164 112.626 78.7933ZM77.5873 92.4956C77.3361 103.107 70.267 89.5657 70.2083 85.0738C70.0552 73.343 77.6942 87.9774 77.5873 92.4956ZM617.436 146.433C578.615 162.084 555.371 94.2168 594.216 83.1597C637.627 70.8028 656.84 130.547 617.436 146.433ZM266.05 92.5551C268.564 92.8961 270.518 90.7676 272.794 90.249C281.603 88.2423 279.762 101.642 279.75 106.071C275.625 105.702 276.505 103.805 276.168 99.6597C275.159 102.657 275.159 102.657 274.151 105.655C271.958 103.248 271.958 103.248 269.764 100.842C270.158 103.243 270.158 103.243 270.551 105.645C268.958 103.24 268.958 103.24 267.364 100.835C267.975 106.182 268.674 104.162 266.946 107.234C264.555 104.027 264.555 104.027 262.164 100.82C262.973 105.204 262.819 102.939 262.545 107.622C260.555 104.016 260.555 104.016 258.566 100.41C258.554 104.61 258.554 104.61 258.542 108.811C256.329 105.471 255.657 100.074 252.773 97.7931C258.446 91.4875 258.938 91.5905 266.05 92.5551ZM104.173 97.5716C110.785 102.228 105.24 105.305 99.3481 106.359C101.761 101.965 101.761 101.965 104.173 97.5716ZM306.959 102.947C308.852 105.207 308.105 108.482 309.836 110.857C312.352 114.308 322.069 119.328 318.544 125.583C315.947 130.192 308.039 130.11 303.679 130.942C306.286 128.549 306.286 128.549 308.893 126.156C305.893 126.147 305.893 126.147 302.893 126.139C304.901 123.344 304.901 123.344 306.909 120.549C303.905 121.941 303.905 121.941 300.901 123.333C302.109 120.436 302.109 120.436 303.317 117.539C300.512 119.431 300.512 119.431 297.706 121.323C298.917 117.526 298.917 117.526 300.128 113.729C297.322 115.922 297.322 115.922 294.515 118.114C295.325 114.916 295.325 114.916 296.134 111.718C293.329 113.51 293.329 113.51 290.523 115.302C292.023 109.007 297.985 92.2378 306.959 102.947ZM84.1538 104.316C79.9425 103.98 75.0615 104.541 72.1629 101.081C78.1926 99.2445 80.4854 98.7785 84.1538 104.316ZM82.9447 107.513C80.7007 110.19 77.7186 113.446 74.3249 114.489C72.7863 107.207 76.4376 106.123 82.9447 107.513ZM111.348 106.393C111.326 114.215 109.155 114.658 102.932 111.97C105.296 109.62 108.218 107.557 111.348 106.393ZM79.3152 117.904C81.0654 115.584 82.6229 113.685 84.9322 111.919C96.5057 115.545 83.2621 118.147 79.3152 117.904ZM694.888 128.451C698.47 140.194 699.359 136.062 707.027 132.211C712.113 129.656 718.388 131.365 724.08 131.334C720.686 124.465 711.248 131.141 707.698 124.887C733.57 123.196 732.524 132.273 708.068 135.289C711.692 142.589 720.063 136.61 726.366 136.003C729.088 135.742 731.157 141.798 734.848 142.566C731.559 147.49 728.75 152.913 724.407 156.938C725.63 148.74 725.63 148.74 726.854 140.543C691.797 145.383 680.804 142.233 648.495 125.919C656.508 110.003 677.695 132.906 694.888 128.451ZM171.051 140.767C172.373 138.038 176.205 137.261 177.669 134.435C180.716 128.549 178.607 122.243 186.711 119.408C190.936 117.93 198.174 130.05 199.675 132.247C196.833 132.514 198.611 132.574 194.478 131.032C196.071 133.637 196.071 133.637 197.664 136.242C194.268 134.632 194.268 134.632 190.873 133.022C192.865 135.828 192.865 135.828 194.857 138.634C191.06 137.623 191.06 137.623 187.263 136.612C190.652 140.222 190.652 140.222 194.042 143.832C189.045 142.818 189.045 142.818 184.048 141.804C188.043 143.615 188.043 143.615 192.038 145.427C187.837 145.615 187.837 145.615 183.637 145.803C186.706 147.787 186.706 147.787 189.775 149.771C186.9 149.988 186.9 149.988 184.024 150.205C188.878 152.366 187.214 151.006 189.615 153.421C184.422 153.064 166.546 150.065 171.051 140.767ZM368.897 124.726C373.76 128.342 366.217 133.079 363.098 133.348C353.958 134.136 340.804 134.75 332.129 131.022C323.231 127.199 335.281 121.86 338.906 121.64C346.783 121.163 361.909 119.529 368.897 124.726ZM761.706 122.24C761.214 130.664 747.582 126.158 742.096 125.784C745.501 120.479 756.561 122.225 761.706 122.24ZM69.6982 123.877C69.2869 127.876 69.2869 127.876 68.8756 131.876C65.5611 130.391 63.7281 127.786 63.0971 124.258C67.5518 123.485 65.3504 123.593 69.6982 123.877ZM100.871 133.567C91.8699 134.087 88.8234 132.263 82.471 133.514C91.9969 124.743 93.9787 121.424 100.871 133.567ZM99.2993 123.561C105.298 124.178 105.298 124.178 111.296 124.795C110.884 128.994 110.884 128.994 110.472 133.194C105.526 130.428 102.52 128.097 99.2993 123.561ZM768.412 137.51C771.855 141.871 775.522 126.995 776.495 125.882C776.456 139.683 776.456 139.683 776.417 153.485C772.627 150.287 769.747 144.841 764.595 143.75C759.056 142.578 742.141 147.58 739.458 139.178C746.738 137.184 755.053 138.626 762.458 139.044C759.417 132.383 746.938 133.699 740.875 132.982C744.847 125.507 757.464 134.601 763.685 129.446C765.261 132.134 766.481 135.065 768.412 137.51ZM84.0953 124.918C81.7023 128.75 78.2246 133.164 73.6687 134.29C73.6962 124.617 74.9239 124.087 84.0953 124.918ZM120.256 125.483C119.402 130.465 118.32 133.244 113.267 134.802C113.912 130.692 113.94 121.885 120.256 125.483ZM65.0688 134.265C57.3647 135.783 46.7108 137.357 53.8824 129.433C59.6308 127.592 62.7819 131.07 65.0688 134.265ZM124.891 126.434C129.363 128.852 130.074 129.884 132.468 134.456C127.47 134.042 127.47 134.042 122.471 133.628C123.681 130.031 123.681 130.031 124.891 126.434ZM279.083 129.472C285.348 131.685 291.77 136.001 295.249 141.719C287.238 143.236 279.75 139.191 279.083 129.472ZM324.477 131.801C324.18 141.078 324.703 136.41 322.837 145.798C300.21 139.319 305.87 137.241 324.477 131.801ZM272.068 134.852C276.593 137.473 281.594 139.608 285.269 143.328C278.285 149.373 273.397 142.282 272.068 134.852ZM659.583 165.293C653.303 158.828 643.357 152.307 643.845 143.308C644.014 140.201 648.002 137.905 650.881 139.74C668.333 150.864 671.447 161.211 692.194 161.647C693.307 157.05 693.307 157.05 694.42 152.452C695.894 155.724 696.35 159.685 698.842 162.266C701.972 165.509 708.344 166.16 709.569 170.498C711.687 178.004 710.696 177.168 706.141 180.289C704.459 173.983 704.459 173.983 702.777 167.678C697.773 168.864 697.773 168.864 692.77 170.05C695.954 175.46 695.954 175.46 699.139 180.869C695.634 182.759 695.634 182.759 692.128 184.65C700.074 189.51 700.927 192.634 710.115 189.514C716.161 187.46 721.73 184.205 727.537 181.55C729.692 184.34 730.562 189.147 734.001 189.919C740.669 191.417 747.577 186.832 754.37 187.577C758.779 188.06 762.326 191.5 766.304 193.461C769.11 186.234 771.581 178.455 776.763 172.688C776.591 303.704 776.591 303.704 776.419 434.719C774.648 430.447 774.12 425.41 771.106 421.903C768.983 419.433 764.402 420.397 762.117 418.077C757.252 413.138 758.276 401.822 748.417 404.761C738.931 407.589 729.728 411.436 720.873 415.859C715.509 418.539 710.517 429.283 705.991 431.544C695.461 436.805 683.595 438.798 672.397 442.425C684.419 434.858 684.419 434.858 696.44 427.292C683.331 430.655 683.331 430.655 670.221 434.018C682.343 426.251 682.343 426.251 694.465 418.485C679.08 424.067 679.08 424.067 663.696 429.649C675.474 420.895 687.001 411.507 700.104 404.899C683.483 412.053 683.483 412.053 666.863 419.207C676.885 411.434 676.885 411.434 686.907 403.662C674.891 409.228 674.891 409.228 662.875 414.795C667.204 406.674 676.186 402.054 683.328 396.251C670.708 403.316 670.708 403.316 658.088 410.381C665.612 401.801 665.612 401.801 673.137 393.221C666.025 397.202 666.025 397.202 658.914 401.182C664.534 393.997 664.534 393.997 670.155 386.812C655.92 399.073 655.92 399.073 641.685 411.334C640.999 410.551 640.999 410.551 640.312 409.768C644.677 402.073 650.997 395.661 656.549 388.774C648.469 396.078 641.865 406.892 631.29 409.505C631.03 383.451 619.048 361.037 617.101 335.055C641.22 334.196 665.448 332.905 689.502 334.861C688.113 325.512 690.521 310.699 681.579 307.635C669.384 303.455 656.489 300.604 643.6 300.326C625.295 299.931 594.41 317.273 588.286 287.518C587.469 283.547 589.765 271.925 596.63 272.22C609.066 272.754 620.714 278.827 633.056 280.444C640.597 281.432 651.206 281.724 655.276 273.506C658.311 267.379 652.174 261.3 648.37 258.035C630.76 242.917 605.2 244.365 596.022 221.982C606.327 220.111 606.327 220.111 616.633 218.24C610.231 199.849 613.935 179.232 615.598 159.83C619.2 159.44 619.2 159.44 622.801 159.05C623 169.669 622.121 180.362 623.398 190.906C623.922 195.235 627.979 209.605 634.499 212.465C640.79 215.223 647.21 207.117 653.075 203.541C639.102 195.02 635.38 186.387 632.77 169.88C631.873 164.204 630.087 154.144 637.022 151.689C637.337 152.174 637.705 152.628 637.968 153.142C643.673 164.316 647.766 176.44 654.922 186.745C657.651 190.674 662.601 192.529 666.85 194.729C667.713 195.176 669.112 195.158 669.751 194.425C674.736 188.704 678.685 182.157 683.153 176.023C671.908 173.422 668.242 174.206 659.583 165.293ZM277.158 147.293C277.682 148.994 276.664 150.122 275.422 151.114C270.726 154.864 267.564 144.076 266.65 141.038C264.552 134.058 276.849 146.292 277.158 147.293ZM99.6561 138.764C110.818 138.796 112.523 136.966 111.628 148.799C106.386 146.298 101.766 144.441 99.6561 138.764ZM131.654 139.655C131.055 153.111 113.281 151.724 116.655 139.212C125.28 139.337 125.28 139.337 131.654 139.655ZM45.6444 142.811C50.1077 141.337 47.2176 142.171 54.4501 140.836C76.2358 140.433 57.4423 155.996 45.6444 142.811ZM82.4517 140.315C80.0496 145.482 76.24 147.27 70.8313 147.483C72.2367 141.653 76.3905 140.298 82.4517 140.315ZM341.263 149.988C338.237 156.247 324.946 149.054 333.047 142.226C336.905 138.974 344.178 143.957 341.263 149.988ZM99.6289 148.365C92.3329 146.944 92.3329 146.944 85.0369 145.523C89.5037 139.213 97.1441 141.47 99.6289 148.365ZM260.841 144.422C263.697 148.097 267.078 151.419 269.409 155.447C270.521 157.368 269.337 161.504 271.542 161.754C283.275 163.084 288.833 141.822 302.421 151.34C293.134 154.452 276.027 157.875 274.57 169.264C287.485 170.414 295.479 167.688 307.586 163.757C307.728 190.404 303.717 207.366 277.841 219.229C271.217 209.74 276.992 201.513 278.708 191.278C276.108 191.071 276.108 191.071 273.509 190.863C274.426 177.665 267.018 184.374 256.839 184.715C256.053 189.387 257.122 190.202 260.301 193.826C257.794 196.219 257.794 196.219 255.287 198.613C260.358 208.316 267.907 211.758 270.481 222.921C255.662 232.052 232.423 225.489 221.231 213.955C219.648 212.324 212.12 203.96 213.108 200.056C213.696 197.73 237.727 190.931 241.942 179.172C236.576 179.124 231.195 178.642 225.842 179.027C220.341 179.422 216.78 183.855 212.048 185.963C206.083 188.62 213.655 178.886 219.636 177.021C226.178 174.982 232.92 173.65 239.563 171.965C233.08 164.513 231.549 166.284 234.011 154.747C239.306 161.755 236.455 159.741 241.19 162.368C242.206 156.77 242.206 156.77 243.222 151.173C245.706 154.733 248.255 158.594 251.994 160.799C252.801 156.6 252.643 152.271 252.831 147.999C257.114 153.825 257.114 153.825 261.398 159.65C261.426 149.616 261.601 154.693 260.841 144.422ZM352.439 145.082C361.812 147.667 365 156.616 365.181 165.52C358.22 162.015 353.755 152.439 352.439 145.082ZM714.417 149.121C715.765 153.41 715.23 151.213 716.011 155.714C710.608 156.499 710.608 156.499 705.206 157.284C705.621 151.308 708.47 149.373 714.417 149.121ZM760.423 151.439C753.366 156.994 748.647 157.742 742.021 152.187C747.604 150.997 754.972 150.212 760.423 151.439ZM218.018 152.301C217.984 164.313 218.981 168.602 207.56 172.674C209.397 165.639 210.588 155.654 218.018 152.301ZM592.206 157.163C585.619 167.361 577.568 176.55 570.785 186.618C567.566 191.396 568.298 195.326 563.687 198.887C561.327 200.71 550.259 198.481 550.025 194.373C549.664 188.041 557.084 183.778 561.344 179.078C566.856 172.997 572.578 167.109 578.195 161.124C587.621 152.841 588.856 154.57 592.206 157.163ZM56.8166 152.644C64.0237 153.53 66.8383 153.441 66.3927 161.072C61.8069 159.39 58.9955 157.033 56.8166 152.644ZM228.815 153.532C228.718 161.027 230.305 168.456 220.975 167.711C223.069 162.925 223.083 155.373 228.815 153.532ZM776.41 155.885C776.396 160.886 776.396 160.886 776.382 165.886C768.691 162.564 768.691 162.564 761.001 159.242C765.896 157.25 771.169 156.335 776.41 155.885ZM102.408 155.574C95.0807 165.508 89.8664 167.328 82.9429 156.631C88.3369 153.73 96.5085 154.573 102.408 155.574ZM124.011 154.835C121.798 159.429 121.798 159.429 119.585 164.023C117.796 160.018 117.796 160.018 116.007 156.012C120.933 155.157 118.267 155.568 124.011 154.835ZM347.481 165.52C341.624 167.779 338.202 159.332 342.806 156.656C348.807 153.167 354.463 162.827 347.481 165.52ZM737.752 158.626C732.092 166.754 727.455 166.563 719.044 165.836C718.742 164.392 718.742 164.392 718.44 162.947C725.961 160.182 729.288 155.449 737.752 158.626ZM129.606 156.451C140.329 165.115 135.717 166.87 123.977 166.836C126.791 161.644 126.791 161.644 129.606 156.451ZM72.0041 157.088C77.2492 159.221 80.4363 159.886 82.3813 165.118C76.3813 165.101 76.3813 165.101 70.3814 165.084C71.1927 161.086 71.1927 161.086 72.0041 157.088ZM112.541 157.478C114.495 163.042 113.612 160.199 115.179 166.011C108.38 165.592 108.38 165.592 101.581 165.173C104.974 162.474 108.39 158.941 112.541 157.478ZM591.495 178.664C594.548 170.794 596.99 159.94 606.796 160.605C608.831 177.269 597.548 195.259 593.454 210.773C576.623 202.699 584.657 196.292 591.495 178.664ZM59.1814 165.052C52.1814 165.032 52.1814 165.032 45.1815 165.013C50.6507 158.719 54.6709 157.008 59.1814 165.052ZM761.572 169.445C749.273 169.11 749.273 169.11 736.974 168.775C747.957 164.972 751.264 162.961 761.572 169.445ZM182.985 164.003C181.082 165.098 181.082 165.098 179.179 166.193C182.776 167.003 182.776 167.003 186.374 167.813C182.17 169.202 182.17 169.202 177.966 170.59C181.764 171.201 181.764 171.201 185.563 171.812C181.957 173.802 181.957 173.802 178.351 175.792C182.552 175.603 182.552 175.603 186.753 175.415C184.342 177.812 180.696 178.526 177.54 179.79C182.341 179.603 182.341 179.603 187.141 179.417C173.589 195.139 149.359 159.156 182.985 164.003ZM313.987 163.375C329.438 173.74 322.005 201.917 305.464 206.956C311.334 191.756 313.941 179.65 313.987 163.375ZM339.655 179.099C334.773 184.528 331.46 173.052 333.967 170.632C339.511 165.281 344.103 174.153 339.655 179.099ZM732.344 179.363C727.944 178.862 722.377 179.301 719.555 175.326C725.805 170.977 728.975 173.711 732.344 179.363ZM84.3632 171.524C102.703 171.576 113.819 164.202 118.732 182.423C109.963 180.628 91.8948 180.182 84.3632 171.524ZM760.756 175.043C757.708 181.232 742.846 185.439 740.251 176.635C747.079 175.884 753.872 175.024 760.756 175.043ZM95.1245 185.157C81.9268 184.319 81.9268 184.319 68.7292 183.482C73.0207 172.134 88.7693 178.209 95.1245 185.157ZM359.829 184.107C358.714 193.531 346.106 196.689 338.291 197.448C340.496 187.297 349.34 182.241 359.829 184.107ZM118.711 190.024C118.697 194.825 118.697 194.825 118.684 199.625C114.872 198.694 103.063 197.719 100.705 192.173C106.187 190.264 113.019 190.008 118.711 190.024ZM82.3486 194.272C84.6959 195.034 94.9686 195.907 97.082 200.164C87.5607 204.407 75.3375 203.903 65.0713 203.874C69.7399 189.58 68.0018 189.613 82.3486 194.272ZM273.493 196.464C272.877 203.034 269.734 207.442 264.08 201.238C266.187 198.261 270.225 197.585 273.493 196.464ZM199.887 198.655C207.166 202.727 212.149 211.237 214.229 219.099C196.547 217.279 195.101 215.228 199.887 198.655ZM515.387 234.355C505.776 233.726 470.244 216.485 482.267 205.857C490.005 204.695 515.274 234.094 515.387 234.355ZM551.867 206.055C562.356 206.163 576.58 204.768 581.837 216.541C572.916 216.516 556.504 215.396 551.867 206.055ZM115.855 209.618C105.392 211.457 96.2464 211.386 85.6536 210.133C93.8185 206.567 108.337 202.839 115.855 209.618ZM513.415 224.348C506.857 221.045 502.381 216.242 499.457 209.506C508.628 201.69 511.705 219.303 513.415 224.348ZM247.455 209.992C248.855 209.996 248.855 209.996 250.255 210C249.842 207.48 250.544 208.367 247.862 207.593C247.658 208.792 247.658 208.792 247.455 209.992ZM249.06 207.996C249.327 207.997 249.594 207.998 249.86 207.998C249.86 208.265 249.857 209.332 249.856 209.598C249.522 209.598 248.189 209.594 247.856 209.593C247.923 209.326 247.991 209.06 248.058 208.793C248.193 208.26 248.527 207.994 249.06 207.996ZM559.702 215.828C568.2 218.654 584.145 217.371 588.212 225.36C579.218 224.83 546.092 220.302 543.655 210.432C549.004 212.231 554.347 214.047 559.702 215.828ZM351.69 219.901C345.653 223.754 340.175 213.314 347.453 210.675C352.512 208.842 357.205 216.381 351.69 219.901ZM63.0532 210.269C72.2963 212.695 72.2963 212.695 81.5395 215.122C75.1701 219.904 67.1542 221.977 59.8112 225.061C61.4322 217.665 61.4322 217.665 63.0532 210.269ZM527.732 213.812C526.873 218.626 524.172 221.545 521.013 225.169C517.388 217.292 515.42 207.567 527.732 213.812ZM334.017 223.439C327.843 227.952 323.12 217.871 328.242 214.621C333.487 211.294 340.606 218.622 334.017 223.439ZM590.985 234.969C575.521 233.918 547.572 230.151 537.835 217.416C540.345 216.587 587.764 228.945 590.985 234.969ZM312.986 234.18C306.714 234.163 301.398 232.883 294.993 231.729C299.342 209.452 306.102 217.614 312.986 234.18ZM128.634 217.256C134.554 217.44 140.87 218.465 144.214 224.101C141.815 223.894 141.815 223.894 139.415 223.687C141.407 226.693 141.407 226.693 143.398 229.699C135.531 229.677 130.824 224.449 128.634 217.256ZM377.694 218.212C380.897 221.59 382.606 227.339 382.593 231.978C378.428 228.387 373.789 223.39 377.694 218.212ZM149.431 218.115C156.603 218.852 163.341 220.641 166.604 227.765C162.607 226.553 162.607 226.553 158.611 225.342C160.003 228.146 160.003 228.146 161.395 230.95C152.562 230.739 150.712 225.939 149.431 218.115ZM171.429 218.977C179.019 219.36 184.912 220.475 189.807 226.63C187.007 226.822 187.007 226.822 184.206 227.014C185.599 229.419 185.599 229.419 186.993 231.823C178.843 230.545 174.372 226.694 171.429 218.977ZM291.824 220.919C290.174 234.874 286.805 236.453 274.192 232.07C274.533 225.777 286.902 222.466 291.824 220.919ZM530.622 221.996C532.234 222.001 533.007 221.851 534.545 222.457C546.304 227.092 557.864 232.236 569.718 236.621C578.436 239.847 589.041 236.153 593.756 245.378C582.781 245.613 534.643 238.279 530.622 221.996ZM196.216 223.448C206.323 225.446 258.936 238.088 259.985 252.032C256.744 252.535 253.63 250.368 250.543 249.255C232.321 242.685 214.194 235.874 196 229.198C196.01 225.579 195.952 227.496 196.216 223.448ZM336.995 231.048C337.6 229.45 337.6 229.45 338.204 227.851C347.715 222.653 352.457 235.16 336.995 231.048ZM357.436 234.507C350.592 237.577 350.234 227.226 355.612 225.3C361.963 223.026 362.39 232.284 357.436 234.507ZM126.601 228.851C123.601 228.643 123.601 228.643 120.602 228.434C122.996 230.641 122.996 230.641 125.389 232.848C118.273 232.351 113.824 233.287 110.606 226.806C116.522 224.36 122.449 223.362 126.601 228.851ZM376.98 236.362C374.613 233.982 371.663 232.091 373.003 228.55C377.506 229.603 376.235 231.172 376.98 236.362ZM73.7987 229.502C71.6301 233.028 73.3065 230.954 67.3851 234.284C69.7839 234.691 69.7839 234.691 72.1828 235.098C66.537 239.307 62.9326 237.094 60.2806 231.438C65.3806 228.876 67.9889 228.944 73.7987 229.502ZM104.995 230.79C102.392 234.117 104.243 232.197 98.5815 235.573C100.479 236.478 100.479 236.478 102.376 237.384C77.2455 243.591 88.6449 227.597 104.995 230.79ZM422.173 238.891C420.977 237.687 420.977 237.687 419.78 236.484C418.771 239.681 418.771 239.681 417.762 242.879C410.831 231.569 422.534 225.919 422.173 238.891ZM275.345 248.876C267.002 243.628 254.647 241.474 250.791 232.404C263.635 228.041 278 235.143 275.345 248.876ZM396.989 233.219C402.845 235.329 403.836 238.322 406.159 244.046C403.362 242.838 403.362 242.838 400.566 241.63C399.761 243.228 399.761 243.228 398.956 244.826C397.116 241.211 397.274 237.212 396.989 233.219ZM324.987 233.814C337.525 233.85 337.384 243.699 324.957 244.616C324.972 239.215 324.972 239.215 324.987 233.814ZM298.967 240.942C292.681 253.013 280.464 245.393 291.575 238.12C297.321 238.976 295.539 237.986 298.967 240.942ZM139.45 238.039C138.004 240.86 138.004 240.86 136.559 243.681C139.961 242.891 139.961 242.891 143.363 242.1C140.114 250.691 136.186 253.435 127.539 250.657C129.315 244.797 132.41 237.592 139.45 238.039ZM160.177 237.347C159.32 241.105 160.12 238.792 156.559 243.738C160.362 242.549 160.362 242.549 164.165 241.359C160.756 248.377 157.249 248.946 149.743 249.319C149.763 242.205 153.537 239.319 160.177 237.347ZM374.958 244.357C372.291 242.824 371.427 241.895 371.174 238.746C375.362 240.891 373.899 239.174 374.958 244.357ZM182.172 239.01C180.765 241.406 180.765 241.406 179.359 243.803C181.357 244.208 181.357 244.208 183.356 244.614C179.008 251.098 174.901 251.693 167.343 249.369C170.31 244.291 176.256 239.65 182.172 239.01ZM352.144 249.293C347.724 255.883 337.419 246.847 342.966 241.266C346.696 237.515 356.654 242.568 352.144 249.293ZM84.1646 241.532C82.1623 242.327 82.1623 242.327 80.16 243.121C82.8339 243.723 81.5032 243.114 83.9538 245.332C78.7453 250.91 73.3829 248.003 66.5499 246.683C70.1023 239.627 77.3009 238.076 84.1646 241.532ZM254.261 260.567C253.561 266.442 248.42 263.617 244.057 262.138C234.407 258.868 224.905 255.16 215.185 252.105C208.891 250.127 202.323 249.091 196.049 247.05C192.019 245.739 192.8 245.28 193.162 242.442C209.841 236.265 241.038 254.441 254.261 260.567ZM118.564 241.63C117.958 243.829 117.958 243.829 117.352 246.027C121.776 245.86 119.97 246.482 122.955 244.843C120.644 252.168 116.017 252.863 108.926 255.204C108.475 249.236 113.024 243.627 118.564 241.63ZM613.125 256.234C608.926 259.854 582.928 255.349 578.941 250.537C585.353 250.946 595.083 253.517 599.551 247.195C604.495 244.259 617.962 252.066 613.125 256.234ZM390.149 247.601C388.348 247.796 388.348 247.796 386.547 247.991C387.94 250.795 387.94 250.795 389.332 253.599C377.681 251.773 380.145 238.657 390.149 247.601ZM429.727 255.314C428.331 253.81 428.331 253.81 426.935 252.306C426.228 255.004 426.228 255.004 425.52 257.703C421.773 255.345 422.975 248.424 424.556 244.898C429.476 245.36 429.739 251.211 429.727 255.314ZM24.1569 244.163C30.4356 244.432 38.4704 243.613 44.2864 246.49C38.3729 250.718 30.7726 253.048 24.124 255.764C24.1404 249.963 24.1404 249.963 24.1569 244.163ZM378.121 257.168C374.186 255.186 368.575 251.266 370.952 246.546C374.972 249.513 376.481 252.532 378.121 257.168ZM527.35 247.19C527.338 251.687 528.829 258.161 523.714 259.981C522.726 254.149 520.133 248.522 527.35 247.19ZM101.746 247.983C101.262 250.84 100.78 251.099 98.5327 252.775C100.934 252.381 100.934 252.381 103.335 251.988C101.075 258.704 96.0457 261.008 89.7044 262.751C91.0434 256.152 94.3088 248.766 101.746 247.983ZM508.145 249.136C517.944 249.164 518.082 250.834 517.712 260.764C513.629 257.289 510.926 253.716 508.145 249.136ZM304.143 249.357C316.515 254.864 317.201 263.582 316.865 276.997C306.009 273.307 301.188 267.582 298.523 256.542C302.719 257.954 302.719 257.954 306.915 259.366C305.529 254.362 305.529 254.362 304.143 249.357ZM403.343 249.639C407.758 251.124 410.6 254.342 411.717 258.864C409.72 257.658 409.72 257.658 407.724 256.452C408.314 259.854 408.314 259.854 408.904 263.256C403.489 260.68 403.78 254.836 403.343 249.639ZM530.897 265.852C531.203 263.561 531.635 251.061 536.891 250.568C542.177 250.072 541.096 257.9 544.261 261.14C549.883 266.896 554.143 267.431 562.09 268.491C560.505 263.286 560.505 263.286 558.92 258.081C570.213 260.513 570.213 260.513 581.506 262.946C571.752 269.575 570.961 278.61 559.264 277.684C559.856 280.486 559.856 280.486 560.448 283.288C557.048 283.279 557.048 283.279 553.648 283.269C554.313 286.644 556.034 289.098 556.422 292.478C543.874 290.088 528.986 280.195 530.897 265.852ZM626.697 266.274C616.952 268.293 605.813 266.376 596.908 262.189C610.758 261.517 615.774 262.403 623.935 252.665C634.831 256.449 635.534 264.443 626.697 266.274ZM544.532 253.64C549.86 254.247 553.491 256.929 550.358 262.207C547.26 261.198 545.914 256.307 544.532 253.64ZM44.1318 253.02C42.4058 259.437 28.7173 264.085 24.0933 266.565C24.5532 254.387 32.9633 255.263 44.1318 253.02ZM373.31 261.155C369.314 259.009 367.917 258.98 366.327 255.134C371.28 257.183 372.81 256.533 373.31 261.155ZM276.134 270.38C273.667 278.389 263.32 306.722 255.173 309.226C258.135 296.993 261.739 285.219 265.675 273.251C274.956 252.258 280.054 257.649 276.134 270.38ZM200.722 256.865C207.687 258.819 214.611 260.928 221.504 263.125C230.08 265.857 252.071 268.842 248.851 281.804C228.44 275.39 209.57 267.237 188.315 263.418C186.914 255.266 194.674 255.168 200.722 256.865ZM468.086 269.687C462.302 269.038 450.942 262.637 447.722 256.965C460.549 255.577 466.073 256.481 468.086 269.687ZM76.9203 257.114C75.1135 259.509 75.1135 259.509 73.3067 261.904C76.707 261.814 76.707 261.814 80.1073 261.723C76.1828 265.951 70.7426 267.486 65.2875 268.682C67.7838 263.724 70.1609 256.546 76.9203 257.114ZM178.503 263.403C175.302 263.594 175.302 263.594 172.102 263.785C174.094 266.591 174.094 266.591 176.086 269.396C168.72 269.025 164.27 268.52 161.309 261.354C168.314 260.824 172.154 258.489 178.503 263.403ZM367.158 261.787C385.103 277.467 375.079 270.529 382.032 288.645C384.496 295.066 388.937 301.489 388.214 308.328C382.011 309.446 375.422 311.658 369.224 309.249C358.327 305.014 360.099 270.812 361.706 262.722C365.581 260.865 365.849 260.643 367.158 261.787ZM45.3125 259.824C39.9715 266.177 33.3997 271.387 27.2638 276.975C38.8173 272.445 32.9465 274.566 44.8819 270.625C44.0137 279.065 30.5271 292.3 23.6128 294.967C24.1097 274.239 24.3023 265.975 45.3125 259.824ZM646.096 266.329C647.296 266.333 647.296 266.333 648.496 266.336C647.786 275.906 635.962 277.097 630.886 269.886C635.944 269.231 645.577 258.181 646.096 266.329ZM399.694 266.83C397.695 266.625 397.695 266.625 395.695 266.419C395.691 268.019 395.691 268.019 395.686 269.619C392.555 267.635 389.796 265.115 386.905 262.794C391.726 261.001 398.617 260.553 399.694 266.83ZM137.05 264.335C138.861 258.645 152.194 261.11 154.096 265.734C151.296 265.926 151.296 265.926 148.495 266.118C151.376 268.57 151.376 268.57 154.256 271.022C150.679 271.767 134.711 271.687 137.05 264.335ZM309.641 285.377C341.694 322.408 356.248 355.309 365.308 402.749C363.678 402.556 358.956 402.873 358.066 400.129C352.287 382.315 349.229 365.986 340.861 348.873C333.573 333.969 326.794 318.488 316.534 305.449C307.182 293.565 296.874 282.462 287.308 270.75C285.778 268.877 287.307 267.834 288.296 266.114C298.393 269.874 303.562 278.354 309.641 285.377ZM580.736 269.869C581.728 272.369 581.416 271.077 581.675 273.747C577.826 272.911 579.704 273.615 576.081 271.531C578.456 269.466 576.979 270.197 580.736 269.869ZM453.172 310C449.731 296.008 440.578 284.692 439.686 269.744C479.948 275.143 484.088 316.871 469.861 349.039C467.487 346.174 468.943 348.351 467.883 341.433C464.863 348.225 464.863 348.225 461.844 355.017C459.557 348.952 460.477 352.729 460.677 343.413C457.701 345.555 456.523 348.746 453.456 350.993C454.521 341.186 455.575 331.274 458.338 321.803C451.607 319.413 455.222 318.336 453.172 310ZM136.079 271.683C132.878 272.074 132.878 272.074 129.677 272.465C131.467 275.871 131.467 275.871 133.258 279.276C128.978 276.987 124.105 274.944 120.479 271.639C124.799 267.712 131.169 269.882 136.079 271.683ZM411.721 270.552C416.837 273.342 417.339 276.846 418.45 282.485C416.055 280.478 416.055 280.478 413.661 278.471C413.454 280.871 413.454 280.871 413.248 283.271C409.228 279.228 407.308 275.12 411.721 270.552ZM186.884 270.227C196.812 267.809 234.619 281.454 242.434 287.787C244.06 289.104 240.142 293.789 239.218 293.578C227.481 290.907 216.253 286.35 204.697 282.979C197.973 281.018 188.977 282.073 186.871 274.628C186.472 273.216 185.458 270.574 186.884 270.227ZM424.483 270.901C423.677 272.899 423.677 272.899 422.871 274.897C420.975 273.492 420.975 273.492 419.079 272.086C421.834 270.395 420.117 271.066 424.483 270.901ZM433.647 283.329C432.451 282.125 432.451 282.125 431.254 280.922C430.053 283.01 430.954 282.132 428.21 283.151C426.49 269.902 433.683 270.869 433.647 283.329ZM246.172 309.8C245.319 311.048 238.177 322.982 234.543 319.768C231.916 317.444 236.09 313.702 236.814 312.324C243.45 299.697 248.111 285.867 257.67 275.229C266.445 265.462 248.617 306.22 246.172 309.8ZM573.27 275.724C578.468 276.339 578.468 276.339 583.666 276.953C582.548 287.825 572.168 293.193 562.264 290.869C563.634 281.53 573.242 285.378 573.27 275.724ZM117.858 279.033C115.557 279.326 115.557 279.326 113.257 279.62C115.65 281.827 115.65 281.827 118.044 284.034C111.983 288.337 102.258 283.302 100.065 276.782C106.554 275.179 112.594 274.219 117.858 279.033ZM402.867 276.441C407.077 278.47 406.296 280.867 406.841 285.653C401.151 283.254 401.624 281.96 402.867 276.441ZM522.466 276.78C533.873 285.76 533.49 286.004 520.818 293.977C520.834 288.032 520.811 282.512 522.466 276.78ZM174.658 279.194C173.951 281.692 173.951 281.692 173.244 284.19C176.85 282.2 176.85 282.2 180.455 280.21C179.911 290.51 174.718 292.899 165.214 294.569C166.965 289.174 168.1 280.632 174.658 279.194ZM386.457 279.994C387.322 280.597 390.781 283.007 391.646 283.61C390.713 283.607 386.98 283.596 386.046 283.594C386.115 282.994 386.388 280.594 386.457 279.994ZM154.855 280.138C153.447 283.134 153.447 283.134 152.038 286.13C155.442 284.94 155.442 284.94 158.845 283.749C156.774 291.428 151.569 297.376 143.208 296.907C143.366 289.354 147.438 282.234 154.855 280.138ZM340.93 399.605C339.235 393.8 338.321 387.767 336.342 382.052C333.281 373.214 329.855 364.48 325.841 356.032C321.28 346.433 316.241 337.04 310.658 327.998C301.958 313.907 291.99 300.634 283.037 286.702C281.391 284.14 286.948 281.717 287.853 281.215C319.091 315.87 341.311 358.31 350.505 403.908C346.281 403.773 342.347 404.46 340.93 399.605ZM46.0513 281.429C39.4234 290.522 31.4374 298.545 23.9787 306.97C24.0149 294.217 35.7196 287.417 46.0513 281.429ZM352.615 294.7C347.356 294.685 340.881 287.568 347.645 284.085C353.013 286.57 353.295 291.127 352.615 294.7ZM94.0443 283.966C92.4386 285.961 92.4386 285.961 90.8329 287.957C93.6289 289.365 93.6289 289.365 96.425 290.773C82.9422 293.623 77.7667 283.558 94.0443 283.966ZM199.262 295.415C177.005 289.352 181.512 282.666 198.836 286.863C210.722 289.743 227.245 292.193 236.498 300.422C235.141 302.793 235.141 302.793 233.785 305.164C222.277 301.915 210.799 298.558 199.262 295.415ZM416.44 285.88C419.847 288.573 420.847 290.85 422.615 294.899C421.716 294.396 421.716 294.396 420.817 293.894C420.007 297.592 420.007 297.592 419.196 301.29C414.416 299.225 412.373 289.25 416.44 285.88ZM129.333 288.054C128.273 291.457 128.273 291.457 127.213 294.861C132.255 291.241 129.422 292.756 135.826 290.535C133.748 301.669 129.779 300.582 121.984 305.247C120.502 299.362 123.751 290.726 129.333 288.054ZM389.631 289.205C393.152 290.757 396.688 291.607 394.787 295.895C390.964 294.584 390.569 293.006 389.631 289.205ZM433.315 290.366C436.438 292.534 436.657 296.197 437.601 299.742C435.176 298.749 436.345 299.55 434.409 296.932C433.802 299.231 433.802 299.231 433.196 301.53C429.584 298.062 430.059 293.747 433.315 290.366ZM540.427 290.832C544.239 292.384 548.148 293.841 551.612 296.065C544.097 298.285 541.793 298.474 540.427 290.832ZM409.225 291.26C409.217 294.061 409.217 294.061 409.209 296.861C406.116 294.277 406.116 294.277 403.024 291.693C407.62 291.162 405.549 291.25 409.225 291.26ZM46.824 291.033C46.7945 301.439 31.3566 314.672 23.9401 320.571C23.4966 305.493 34.2481 298.57 46.824 291.033ZM540.795 302.035C538.108 302.794 538.815 301.911 538.388 304.428C531.096 304.002 528.106 299.688 533.419 293.613C537.107 297.824 537.107 297.824 540.795 302.035ZM324.936 393.034C320.614 378.778 313.354 361.654 305.862 348.574C296.481 332.197 286.196 316.354 276.587 300.11C274.78 297.057 277.477 294.803 279.221 292.492C282.552 295.535 284.2 296.608 286.599 300.314C306.409 330.925 335.221 368.839 334.495 407.463C323.376 406.035 328.362 404.334 324.936 393.034ZM72.2658 293.955C75.9637 293.226 78.1595 293.901 80.408 296.728C77.8809 297.446 77.8809 297.446 75.3539 298.164C78.3731 299.18 76.9554 298.466 79.5978 300.327C72.173 308.062 54.146 297.526 72.2658 293.955ZM566.383 306.108C561.415 304.989 554.297 299.91 561.611 296.493C567.499 298.605 565.463 302.304 566.383 306.108ZM346.383 305.884C341.308 310.154 334.877 301.292 340.007 297.465C344.863 293.842 351.6 301.495 346.383 305.884ZM360.472 309.924C353.583 315.211 349.704 304.679 353.198 300.503C358.226 294.494 362.33 308.498 360.472 309.924ZM109.203 298.41C108.798 300.409 108.798 300.409 108.392 302.409C111.597 300.517 111.597 300.517 114.803 298.626C115.894 306.995 108.265 310.92 101.159 313.989C102.104 308.415 103.453 300.947 109.203 298.41ZM403.594 302.046C400.677 302.486 397.912 303.433 396.524 300.325C399.199 298.252 401.931 299.153 403.594 302.046ZM179.842 302.511C177.018 304.238 179.048 303.3 173.189 303.392C175.68 306.6 175.68 306.6 178.171 309.807C172.316 308.358 167.057 305.111 161.592 302.559C165.7 300.264 176.914 296.613 179.842 302.511ZM187.246 309.796C186.715 308.784 187.501 302.394 187.595 301.433C196.891 303.12 222.222 307.585 227.112 312.997C221.782 319.219 187.809 310.867 187.246 309.796ZM431.976 308.527C428.222 308.516 424.266 308.113 425.591 303.308C429.229 303.319 429.617 305.426 431.976 308.527ZM278.765 312.093C286.069 324.658 293.359 337.236 300.295 350.009C303.49 355.891 306.481 361.894 309.144 368.036C311.856 374.291 314.135 380.729 316.402 387.159C318.056 391.847 322.142 402.852 319.857 407.509C318.823 409.617 311.936 413.685 310.586 410.458C299.492 383.923 292.912 355.955 279.764 330.048C275.992 322.615 266.64 314.318 270.38 306.868C273.302 301.048 276.695 308.53 278.765 312.093ZM441.309 305.578C445.096 307.882 444.28 309.411 444.76 314.164C439.364 312.141 439.608 310.636 441.309 305.578ZM161.965 312.162C159.365 312.154 159.365 312.154 156.765 312.147C158.158 314.551 158.158 314.551 159.551 316.955C130.754 316.874 154.111 295.811 161.965 312.162ZM90.3807 306.358C89.5733 308.956 89.5733 308.956 88.766 311.554C92.1682 310.764 92.1682 310.764 95.5705 309.973C94.8523 316.956 89.4998 322.855 82.332 323.537C82.3482 317.813 84.7039 308.862 90.3807 306.358ZM408.778 307.661C412.332 308.886 410.108 308.289 415.575 308.881C413.437 311.344 411.075 310.868 407.969 310.859C408.374 309.26 408.374 309.26 408.778 307.661ZM557.978 308.084C555.995 313.71 554.694 312.784 549.569 311.261C552.24 308.377 553.948 308.622 557.978 308.084ZM56.7763 307.863C56.3695 310.262 56.3695 310.262 55.9627 312.661C58.5638 312.268 58.5638 312.268 61.165 311.876C55.5408 317.469 52.8537 316.439 45.5593 313.832C48.1632 309.465 52.0133 308.601 56.7763 307.863ZM405.954 316.054C401.479 316.041 400.575 313.851 396.97 310.628C400.463 307.734 404.748 313.045 405.954 316.054ZM623.172 310.269C623.465 312.771 623.465 312.771 623.758 315.272C630.238 314.173 636.239 310.971 642.854 311.647C643.592 316.672 638.792 318.693 637.534 323.512C642.111 323.173 647.053 321.647 651.245 319.9C657.594 317.254 678.386 303.813 683.299 318.391C686.48 327.829 676.266 318.389 675.159 319.155C673.535 320.281 672.175 323.975 669.581 324.553C664.414 325.704 662.361 319.132 659.776 326.475C656.125 326.465 654.332 321.502 650.537 322.449C643.314 324.251 639.103 326.228 631.525 326.695C632.135 323.096 632.135 323.096 632.746 319.498C629.488 318.706 630.794 319.551 628.752 317.086C625.357 318.823 622.535 321.509 619.533 323.861C617.765 319.261 615.533 321.811 611.533 323.838C610.149 318.234 610.149 318.234 608.765 312.629C618.095 311.01 613.294 311.801 623.172 310.269ZM545.16 314.449C540.957 315.237 540.957 315.237 536.755 316.025C537.581 310.36 543.067 308.109 545.16 314.449ZM427.306 315.402C422.631 316.277 419.896 316.837 416.362 313.283C420.398 312.286 424.898 311.424 427.306 315.402ZM145.149 317.715C139.961 317.569 142.492 317.855 137.551 316.893C139.941 320.3 139.941 320.3 142.332 323.707C120.569 323.646 128.974 302.072 145.149 317.715ZM352.582 323.954C347.331 324.678 339.873 318.891 346.356 315.485C353.894 311.524 357.123 323.327 352.582 323.954ZM388.307 315.004C391.8 325.819 386.792 326.243 377.466 325.249C379.471 321.05 384.067 316.874 388.307 315.004ZM381.557 315.185C379.229 318.887 376.265 322.111 371.934 323.158C372.256 316.525 375.176 315.167 381.557 315.185ZM490.741 321.095C486.686 321.084 484.511 321.593 483.151 317.473C486.832 316.87 488.404 318.409 490.741 321.095ZM180.354 315.814C179.627 319.397 180.261 317.029 177.535 322.607C180.738 321.616 180.738 321.616 183.941 320.625C180.495 328.15 176.58 329.222 168.716 329.383C169.937 322.573 173.681 318.371 180.354 315.814ZM361.354 316.328C363.657 320.233 364.525 324.827 365.917 329.142C357.694 328.909 353.622 321.918 361.354 316.328ZM395.153 316.424C398.765 317.338 400.671 318.454 403.14 321.247C398.794 321.234 397.521 319.998 395.153 316.424ZM289.142 390.732C286.71 383.208 284.49 375.588 281.406 368.307C276.928 357.736 271.328 347.674 266.494 337.261C256.002 314.66 263.083 307.876 274.555 333.484C280.474 346.697 286.293 359.956 291.942 373.288C296.737 384.606 300.702 396.074 302.292 408.271C301.592 408.619 301.592 408.619 300.891 408.967C301.687 410.37 301.687 410.37 302.483 411.772C291.348 418.094 290.974 396.4 289.142 390.732ZM438.75 317.747C436.744 321.731 433.785 321.008 429.742 320.322C432.433 316.979 434.664 316.567 438.75 317.747ZM191.546 318.646C197.278 316.608 217.332 316.843 217.927 325.522C203.328 325.281 203.328 325.281 188.728 325.039C189.566 322.866 189.352 319.426 191.546 318.646ZM414.347 318.878C419.464 319.29 420.94 318.861 423.535 323.105C418.741 325.335 414.749 324.314 414.347 318.878ZM567.144 319.912C568.422 322.178 569.543 325.912 566.324 326.91C566.522 327.711 566.522 327.711 566.72 328.512C564.123 327.304 564.123 327.304 561.527 326.097C563.178 323.709 564.355 320.949 567.144 319.912ZM36.4922 319.857C33.5627 326.426 28.3049 331.693 23.8925 337.373C23.9105 331.027 25.8154 316.848 36.4922 319.857ZM125.132 323.659C122.132 323.65 122.132 323.65 119.132 323.642C121.523 326.649 121.523 326.649 123.915 329.656C117.144 328.461 113.575 328.282 108.894 323.575C111.906 319.067 122.274 318.479 125.132 323.659ZM69.54 320.701C69.132 323.5 69.132 323.5 68.7241 326.299C72.1286 324.708 72.1286 324.708 75.5331 323.118C74.5088 331.439 69.5305 336.302 61.0957 336.278C61.4822 329.311 63.3138 324.235 69.54 320.701ZM521.535 323.183C521.528 325.583 521.528 325.583 521.521 327.983C525.199 325.546 526.839 324.063 530.735 323.209C525.789 334.761 520.117 343.485 506.675 344.343C510.45 336.845 514.648 328.318 521.535 323.183ZM394.734 323.223C399.121 324.304 399.921 324.419 400.718 328.841C396.318 326.87 395.185 327.387 394.734 323.223ZM439.699 326.964C440.014 325.858 440.014 325.858 440.33 324.753C455.504 323.711 449.203 332.023 439.699 326.964ZM158.332 323.753C157.525 326.151 157.525 326.151 156.718 328.549C159.121 327.555 159.121 327.555 161.524 326.562C160.857 334.298 155.989 336.256 149.487 339.33C149.506 332.854 150.947 325.208 158.332 323.753ZM539.131 324.633C539.524 327.134 539.524 327.134 539.917 329.636C542.32 328.242 542.32 328.242 544.724 326.849C544.208 334.279 541.783 344.025 534.267 347.222C534.095 340.541 532.143 328.973 539.131 324.633ZM227.233 358.752C226.427 358.832 225.796 357.978 225.186 357.446C218.473 351.591 214.82 350.414 217.88 342.024C219.844 336.638 221.876 327.356 227.93 324.35C233.359 343.235 239.096 339.041 254.317 329.226C253.94 344.058 243.241 357.17 227.233 358.752ZM491.12 328.497C487.719 328.788 487.719 328.788 484.318 329.078C484.521 328.078 484.521 328.078 484.724 327.079C483.924 327.077 483.924 327.077 483.124 327.074C486.526 325.724 489.031 325.134 491.12 328.497ZM105.34 329.691C102.626 330.239 102.626 330.239 99.9115 330.788C103.103 333.797 103.103 333.797 106.294 336.807C100.318 338.407 93.1858 336.876 92.0649 329.566C95.8637 327.553 102.239 325.903 105.34 329.691ZM422.049 331.264C418.431 331.839 414.128 333.235 411.916 329.673C415.324 329.402 419.625 328.853 422.049 331.264ZM38.4636 329.964C31.361 339.67 31.361 339.67 24.2584 349.376C23.8995 340.541 29.1549 332.263 38.4636 329.964ZM137.916 329.296C137.448 334.507 137.841 332.393 137.098 335.694C140.101 334.502 140.101 334.502 143.104 333.311C137.999 343.451 138.756 343.223 128.674 344.071C129.99 338.319 131.535 331.19 137.916 329.296ZM212.56 331.307C212.535 340.196 191.98 336.232 188.696 336.24C190.582 326.735 204.863 329.119 212.56 331.307ZM433.912 330.935C439.799 331.4 441.599 331.454 445.499 335.769C440.234 335.754 435.395 336.937 433.912 330.935ZM483.11 331.875C486.664 331.885 488.34 333.195 491.505 333.499C491.502 334.699 491.502 334.699 491.499 335.899C487.499 335.688 487.499 335.688 483.5 335.476C483.002 332.952 483.103 334.155 483.11 331.875ZM610.903 334.638C612.989 341.956 613.137 349.738 615.239 357.053C617.773 365.873 621.77 374.209 624.766 382.883C627.261 390.107 630.077 401.056 625.495 407.888C621.742 403.261 619.151 397.799 616.138 392.66C613.729 395.853 613.729 395.853 611.32 399.047C607.978 387.504 607.408 376.506 600.776 366.15C596.002 358.696 590.842 351.495 585.875 344.168C587.867 343.217 609.441 329.509 610.903 334.638ZM174.391 333.687C173.142 335.54 173.142 335.54 171.893 337.393C173.692 337.598 173.692 337.598 175.492 337.803C172.519 343.708 168.788 341.941 162.281 341.766C164.609 336.566 168.691 333.893 174.391 333.687ZM381.014 365.689C379.719 355.764 377.624 345.94 376.698 335.974C376.632 335.268 377.407 334.514 378.102 334.377C381.505 333.709 386.452 333.396 389.272 336.259C413.392 360.742 397.177 366.286 391.171 398.472C389.088 409.634 389.745 419.128 389.629 430.822C377.957 428.237 376.771 389.63 376.178 378.377C382.786 376.322 381.883 372.359 381.014 365.689ZM419.09 338.894C414.939 338.739 410.392 338.95 408.502 334.664C413.519 333.603 416.091 334.871 419.09 338.894ZM563.175 379.508C561.605 367.609 547.698 362.439 546.078 352.156C545.563 348.888 550.472 347.199 552.873 344.924C562.093 336.193 563.824 332.255 574.906 342.286C594.519 360.042 608.046 382.742 609.689 409.843C620.227 397.557 622.315 409.074 617.077 414.34C608.904 422.555 604.351 424.622 594.028 431.402C595.67 427.517 598.74 424.403 601.258 421.021C593.187 424.434 587.395 431.063 578.822 433.359C581.688 429.222 585.32 425.371 586.859 420.58C573.835 428.944 573.835 428.944 560.811 437.308C563.264 432.243 567.334 428.129 570.85 423.735C561.031 430.308 561.031 430.308 551.212 436.881C555.344 419.204 565.618 398.022 563.175 379.508ZM369.899 335.554C371.541 345.338 370.561 351.005 361.442 355.533C361.458 350.121 361.788 335.531 369.899 335.554ZM122.749 335.253C120.914 338.848 120.914 338.848 119.078 342.444C122.081 341.452 122.081 341.452 125.084 340.46C122.805 346.673 118.346 349.868 112.251 352.025C113.002 347.218 115.375 334.338 122.749 335.253ZM92.2933 337.167C91.3799 339.466 90.6536 339.459 88.2877 339.156C88.7888 342.439 88.0387 340.933 91.0758 343.364C84.8309 348.194 78.1829 344.269 75.0911 337.918C81.5102 336.478 85.7669 336.321 92.2933 337.167ZM441.479 342.558C436.853 342.545 434.598 342.833 432.09 338.731C436.696 337.302 440.132 337.1 441.479 342.558ZM25.0016 399.384C25.2482 387.307 26.5528 375.262 27.984 363.268C29.8937 347.265 32.1134 346 44.2947 336.631C37.1567 350.012 37.1567 350.012 30.0187 363.394C35.0665 358.224 39.1903 350.532 46.2595 349.038C39.4153 364.62 39.4153 364.62 32.571 380.203C36.8043 374.348 40.6488 368.19 45.2709 362.637C49.6845 357.334 49.54 357.622 53.4379 356.659C47.3959 371.444 47.3959 371.444 41.354 386.229C47.0187 379.767 52.3338 371.419 60.6027 369.081C52.7579 384.861 52.7579 384.861 44.9131 400.64C51.5027 392.386 57.5751 382.711 66.9777 377.9C59.7329 393.682 59.7329 393.682 52.4881 409.463C58.4755 402.544 63.8341 394.74 71.3448 389.514C65.7 405.3 65.7 405.3 60.0552 421.086C63.2474 416.679 71.2094 400.166 80.5164 399.541C75.6835 411.129 75.6835 411.129 70.8506 422.717C76.6339 415.751 81.6678 407.333 89.7061 403.168C86.2778 413.159 86.2778 413.159 82.8494 423.151C90.8777 413.172 90.8777 413.172 98.9061 403.194C95.7547 412.963 93.3755 429.179 81.8582 433.287C74.5698 435.886 67.0206 437.687 59.6018 439.887C67.3242 452.026 77.1097 463.367 75.0837 478.747C73.8956 487.766 71.5717 496.598 69.8157 505.524C83.4177 504.308 96.86 501.595 110.235 498.838C111.395 512.843 111.395 512.843 112.555 526.848C94.7833 516.996 94.7833 516.996 77.0111 507.144C83.1652 523.364 83.1652 523.364 89.3192 539.583C69.5278 536.527 69.5278 536.527 49.7364 533.47C65.6852 551.518 65.6852 551.518 81.6341 569.565C62.2257 572.51 62.2257 572.51 42.8172 575.456C47.5285 576.117 45.821 575.11 48.4115 577.472C36.0116 577.437 36.0116 577.437 23.6116 577.402C24.075 518.062 23.7902 458.712 25.0016 399.384ZM403.892 338.051C403.385 341.369 403.605 339.376 403.475 344.05C401.283 341.144 401.283 341.144 399.092 338.237C402.558 337.505 400.958 337.455 403.892 338.051ZM489.724 340.145C487.822 344.058 486.109 342.114 483.638 339.527C486.104 338.501 487.296 339.09 489.724 340.145ZM210.044 345.852C206.411 347.627 195.76 346.262 192.268 346.252C192.278 342.617 194.814 342.347 197.881 341.667C203.91 340.961 217.503 342.208 210.044 345.852ZM181.879 342.422C181.472 344.721 181.472 344.721 181.066 347.02C183.871 345.028 183.871 345.028 186.677 343.035C188.015 348.451 182.228 356.618 177.034 358.21C177.239 356.41 177.239 356.41 177.444 354.611C176.644 354.808 176.644 354.808 175.843 355.006C176.318 350.392 177.739 344.993 181.879 342.422ZM414.278 343.156C415.878 348.718 415.214 345.875 416.253 351.688C410.93 349.709 413.466 351.174 408.804 347.028C410.57 345.017 411.57 343.454 414.278 343.156ZM438.665 347.751C436.081 348.635 424.103 348.573 427.877 343.32C433.998 343.189 435.971 343.851 438.665 347.751ZM269.044 354.871C276.365 370.185 283.256 386.849 286.706 403.527C288.82 413.749 277.343 417.418 276.079 412.898C272.796 401.155 270.573 389.139 267.58 377.319C264.821 366.423 256.078 354.95 260.073 344.444C261.973 339.448 268.085 352.864 269.044 354.871ZM75.4741 343.92C73.7281 347.265 75.1391 344.92 69.8571 349.905C72.8565 350.114 72.8565 350.114 75.856 350.322C67.8835 364.579 54.4138 343.86 75.4741 343.92ZM159.069 345.758C158.647 349.646 159.42 347.289 153.057 350.141C154.602 351.833 154.602 351.833 156.147 353.525C152.846 356.644 144.475 353.71 143.609 349.314C149.179 346.208 152.491 345.864 159.069 345.758ZM99.8593 349.19C99.0536 351.188 99.0536 351.188 98.2479 353.186C101.051 352.194 101.051 352.194 103.854 351.202C101.351 357.099 99.5607 358.544 93.8241 361.574C94.146 357.642 94.4486 349.785 99.8593 349.19ZM427.842 355.721C423.341 353.852 425.533 354.878 421.263 352.652C424.595 346.786 427.293 351.796 427.842 355.721ZM82.8503 352.342C83.1389 356.343 83.1389 356.343 83.4276 360.345C85.6315 358.951 85.6315 358.951 87.8355 357.557C88.1201 364.561 86.7077 366.139 80.8003 369.938C76.2494 364.707 78.3399 356.827 82.8503 352.342ZM254.848 353.23C262.031 373.524 266.147 393.817 269.274 414.878C266.574 414.671 266.574 414.671 263.875 414.463C262.747 402.252 246.393 361.639 254.848 353.23ZM442.232 359.362C439.031 358.997 435.706 359.37 434.241 356.139C438.719 354.775 439.893 355.326 442.232 359.362ZM530.626 361.613C520.226 361.584 520.226 361.584 509.826 361.554C510.902 352.11 526.123 357.462 530.626 361.613ZM143.026 360.914C139.025 361.303 139.025 361.303 135.024 361.691C136.822 362.296 136.822 362.296 138.621 362.902C132.47 367.269 127.82 363.386 121.424 361.653C126.711 355.811 137.667 354.131 143.026 360.914ZM161.831 359.367C162.001 362.132 161.942 360.4 161.816 364.568C164.823 362.176 164.823 362.176 167.829 359.784C167.373 366.766 165.511 375.848 157.778 377.758C156.769 370.895 157.615 365.234 161.831 359.367ZM244.773 379.655C244.002 375.476 238.367 362.712 246.175 361.356C253.742 378.076 255.545 397.647 258.071 415.647C254.571 415.637 254.571 415.637 251.071 415.627C248.972 403.636 246.983 391.626 244.773 379.655ZM113.613 365.631C111.705 368.426 111.705 368.426 109.797 371.221C113.196 371.631 113.196 371.631 116.595 372.04C113.771 377.997 103.819 376.255 98.5821 376.39C101.212 370.516 106.934 365.612 113.613 365.631ZM512.312 406.179C513.655 416.633 517.821 427.737 514.46 437.727C510.28 450.151 497.06 457.387 487.833 464.904C480.846 470.596 479.307 475.879 474.869 483.029C469.879 491.069 442.029 489.663 433.466 488.353C440.638 477.45 453.86 465.641 466.542 461.444C472.858 459.353 484.629 459.862 488.369 451.904C492.431 443.265 484.551 439.809 481.172 433.282C478.374 427.876 480.516 423.528 476.16 419.816C472.743 416.903 469.304 413.923 465.383 411.734C458.831 408.077 451.468 406.022 444.91 402.375C443.228 401.44 437.641 396.008 441.336 392.964C444.894 390.034 450.085 389.829 453.977 387.361C462.502 381.957 470.261 375.431 478.403 369.466C496.815 370.734 510.562 392.568 512.312 406.179ZM431.597 371.534C453.181 381.85 423.654 419.964 416.586 432.623C411.317 442.062 424.546 451.746 418.961 454.908C405.135 462.734 395.825 449.045 392.985 437.432C392.108 433.845 394.446 430.377 394.49 426.785C394.763 404.691 394.215 383.136 414.8 370.686C419.995 367.543 426.004 368.86 431.597 371.534ZM144.202 369.318C143.79 373.718 143.79 373.718 143.377 378.117C146.384 375.625 146.384 375.625 149.392 373.133C149.373 379.531 143.861 386.681 137.351 387.301C138.19 380.94 137.673 372.56 144.202 369.318ZM179.387 374.819C198.652 370.721 207.363 382.277 210.771 397.961C211.453 401.096 215.288 400.677 214.954 404.173C213.132 423.245 205.486 441.302 200.846 459.89C196.44 477.537 191.864 495.17 188.595 513.062C187.463 519.255 197.503 522.007 202.458 525.89C197.072 533.062 186.375 539.441 179.703 545.44C178.581 542.074 178.581 542.074 177.46 538.708C171.368 546.854 171.368 546.854 165.276 555.001C163.098 547.193 163.098 547.193 160.92 539.386C156.305 544.774 156.305 544.774 151.689 550.161C153.384 538.769 158.896 528.223 163.781 517.792C151.569 521.958 151.569 521.958 139.358 526.124C140.783 517.327 140.783 517.327 142.207 508.529C130.583 517.198 130.583 517.198 118.958 525.866C111.857 519.904 117.908 507.326 118.237 498.06C133.225 502.303 133.225 502.303 148.213 506.546C149.168 499.015 150.83 491.539 151.077 483.952C151.275 477.902 147.789 471.651 149.541 465.858C151.394 459.73 157.89 456.072 161.172 450.576C163.959 445.909 165.467 440.587 167.614 435.593C156.187 433.593 144.818 431.223 133.331 429.595C132.696 429.505 132.196 430.192 131.629 430.49C123.779 411.136 119.573 411.297 135.72 398.498C131.904 404.088 131.904 404.088 128.088 409.677C136.43 403.55 136.43 403.55 144.773 397.423C140.621 406.963 140.621 406.963 136.468 416.502C145.499 405.926 145.499 405.926 154.529 395.351C153.509 402.149 153.509 402.149 152.49 408.947C158.518 398.962 158.518 398.962 164.547 388.978C164.726 396.38 164.726 396.38 164.905 403.781C168.132 394.189 168.132 394.189 171.359 384.597C170.943 390.397 170.943 390.397 170.526 396.196C173.105 388.926 171.842 376.423 179.387 374.819ZM125.782 376.467C125.038 380.614 125.478 378.756 124.566 382.064C129.762 379.76 127.563 380.133 130.872 379.832C129.558 387.223 123.492 389.807 116.942 390.443C118.412 383.987 120.424 380.462 125.782 376.467ZM670.155 386.812C670.288 386.812 670.422 386.813 670.555 386.813C670.822 386.814 671.089 386.481 671.358 385.815C671.492 385.482 671.626 385.149 671.761 384.816C671.493 385.149 670.422 386.479 670.155 386.812ZM553.548 389.232C560.173 393.172 556.295 401.305 554.897 407.088C550.782 424.106 539.699 440.339 521.987 445.599C520.882 433.488 512.92 396.223 530.15 388.415C540.005 387.66 548.165 386.03 553.548 389.232ZM124.918 398.867C122.571 403.861 121.406 407.658 115.494 407.641C116.811 403.078 119.497 398.174 124.918 398.867ZM112.913 400.833C112.401 407.725 107.818 408.726 101.685 410.803C103.047 405.518 107.133 400.817 112.913 400.833ZM467.139 445.143C441.541 469.965 436.135 476.572 400.272 486.059C407.915 475.877 422.446 477.207 432.892 470.349C435.504 468.635 437.825 466.501 440.109 464.369C444.49 460.28 448.83 456.13 452.87 451.704C472.944 429.708 469.087 428.708 447.285 410.983C465.797 413.006 485.06 427.765 467.139 445.143ZM445.268 417.178C454.157 422.802 465.461 430.456 455.503 440.11C449.067 446.348 442.841 452.873 435.751 458.356C431.286 451.959 426.731 445.624 422.355 439.166C420.583 436.549 420.205 436.199 421.822 433.313C425.605 426.56 429.726 420.001 433.679 413.345C438.702 412.268 441.992 415.106 445.268 417.178ZM626.073 415.49C624.097 419.416 618.632 427.497 614.051 423.457C616.228 419.133 621.509 416.595 626.073 415.49ZM122.77 429.052C123.87 433.572 121.826 438.31 121.594 442.863C117.846 442.232 118.941 436.638 118.82 433.654C118.211 436.853 118.211 436.853 117.602 440.051C116.012 436.246 116.012 436.246 114.423 432.441C113.612 436.54 113.612 436.54 112.8 440.638C111.213 435.933 111.213 435.933 109.627 431.228C109.014 435.827 109.014 435.827 108.401 440.425C106.631 437.419 105.307 434.17 103.827 431.011C103.9 434.972 104.645 438.893 105.194 442.817C86.831 434.183 114.321 394.331 122.77 429.052ZM230.022 433.169C229.627 431.168 229.627 431.168 229.233 429.167C227.426 431.762 227.426 431.762 225.618 434.357C225.827 431.357 225.827 431.357 226.035 428.357C224.627 431.154 224.627 431.154 223.219 433.95C222.83 430.149 222.83 430.149 222.441 426.347C219.976 432.054 221.434 429.249 218.017 434.736C214.049 407.415 244.1 415.353 230.022 433.169ZM378.027 431.589C376.03 430.383 376.03 430.383 374.033 429.177C373.826 431.777 373.826 431.777 373.619 434.377C359.068 428.091 378.1 405.835 378.027 431.589ZM732.964 511.405C734.133 480.436 734.707 452.114 732.457 421.393C741.557 426.391 740.86 435.139 741.152 445.245C741.915 471.723 736.606 498.73 739.365 524.225C730.979 523.003 732.593 521.248 732.964 511.405ZM640.697 424.883C638.773 431.474 633.96 433.114 628.015 435.898C629.025 432.501 629.025 432.501 630.035 429.103C628.034 429.298 628.034 429.298 626.034 429.492C628.831 425.687 636.222 422.048 640.697 424.883ZM273.242 426.091C269.187 431.019 264.14 433.851 258.809 437.652C258.839 427.027 264.036 425.357 273.242 426.091ZM340.423 432.682C331.829 430.858 331.829 430.858 323.234 429.033C327.857 422.394 337.159 427.572 340.423 432.682ZM753.239 427.853C760.357 432.754 760.349 439.498 760.432 447.988C760.558 460.885 760.325 473.783 760.272 486.68C746.593 482.292 752.785 439.623 753.239 427.853ZM283.103 457.373C283.778 448.998 285.73 428.719 293.037 427.747C300.373 426.772 307.96 444.696 309.525 449.847C317.368 475.667 318.967 501.463 323.216 527.833C323.773 531.292 334.588 526.991 337.748 529.887C343.44 535.102 341.903 553.114 336.872 556.687C333.097 547.676 333.097 547.676 329.323 538.664C326.736 542.576 328.3 539.725 326.696 548.058C321.42 539.742 321.42 539.742 316.143 531.426C317.316 541.03 317.316 541.03 318.489 550.635C313.086 547.01 308.941 541.774 304.527 536.993C307.501 546.403 307.501 546.403 310.474 555.812C304.081 553.194 304.081 553.194 297.689 550.576C301.873 555.988 301.873 555.988 306.058 561.401C296.658 561.574 296.658 561.574 287.257 561.747C289.65 564.254 289.65 564.254 292.043 566.762C286.437 568.846 286.437 568.846 280.831 570.93C282.659 561.134 282.659 561.134 284.487 551.338C275.468 557.713 275.468 557.713 266.45 564.089C262.066 540.744 248.244 530.937 279.339 532.921C280.594 507.739 281.078 482.505 283.103 457.373ZM276.895 429.621C282.525 439.316 266.943 439.662 262.205 439.061C266.307 435.273 271.251 430.728 276.895 429.621ZM237.319 433.99C246.734 427.975 250.656 427.651 252.443 438.746C253.077 442.678 257.181 445.489 256.575 449.647C255.542 456.732 243.753 457.286 239.564 453.599C242.08 451.314 245.634 450.522 248.776 449.225C243.578 448.61 243.578 448.61 238.38 447.995C241.576 444.943 239.148 447.113 246.395 442.417C240.994 442.802 240.994 442.802 235.593 443.186C238.453 440.441 241.981 438.828 244.814 436.012C239.408 437.797 239.408 437.797 234.003 439.581C235.433 435.332 234.349 435.888 237.319 433.99ZM346.499 432.5C348.604 422.412 364.879 435.771 366.012 436.756C362.824 437.845 365.057 437.374 359.214 435.936C361.009 437.941 361.009 437.941 362.803 439.947C359.605 439.338 359.605 439.338 356.406 438.729C358.6 441.135 358.6 441.135 360.793 443.542C357.593 443.332 357.593 443.332 354.394 443.123C359.252 445.961 357.365 444.351 360.381 447.541C352.326 452.343 346.15 451.898 341.995 442.688C348.242 439.632 345.116 439.128 346.499 432.5ZM618.829 431.072C618.813 436.846 614.408 440.525 609.197 442.246C610.405 439.649 610.405 439.649 611.612 437.052C607.812 437.241 607.812 437.241 604.011 437.431C607.699 431.526 612.298 431.475 618.829 431.072ZM713.207 438.94C703.373 440.005 683.709 453.65 674.649 446.007C685.226 442.122 706.251 425.807 713.207 438.94ZM321.223 432.628C326.53 433.535 332.067 433.899 337.014 436.023C332.911 441.16 322.819 439.087 321.223 432.628ZM532.384 446.829C533.731 442.494 535.323 439.706 539.211 437.247C542.95 444.902 538.263 446.355 532.384 446.829ZM595.742 439.832C594.019 446.407 588.53 451.677 581.967 452.97C583.777 449.375 583.777 449.375 585.587 445.779C581.788 445.569 581.788 445.569 577.988 445.358C583.193 439.242 587.916 438.169 595.742 439.832ZM137.141 461.309C139.549 458.516 139.549 458.516 141.957 455.722C139.557 455.716 139.557 455.716 137.157 455.709C139.765 453.116 139.765 453.116 142.372 450.523C136.766 452.707 136.766 452.707 131.16 454.892C132.351 451.35 131.36 453.702 135.378 448.503C133.677 448.898 133.677 448.898 131.975 449.293C133.584 446.297 133.584 446.297 135.192 443.302C130.987 445.29 130.987 445.29 126.781 447.278C142.71 418.268 176.644 455.78 137.141 461.309ZM648.8 441.358C647.1 447.524 640.401 450.335 634.375 450.318C635.782 447.722 635.782 447.722 637.189 445.126C634.392 444.318 634.392 444.318 631.594 443.51C636.574 440.416 643.203 437.811 648.8 441.358ZM460.153 457.725C465.454 451.855 471.931 447.461 477.198 441.671C497.856 442.335 471.334 460.314 460.153 457.725ZM95.9847 445.991C92.8158 446.686 89.5294 445.178 86.3893 444.363C92.1996 448.39 90.4425 446.276 92.7745 449.582C87.0959 449.678 89.2892 449.047 85.9722 450.363C89.5677 451.973 89.5677 451.973 93.1631 453.584C88.162 453.97 88.162 453.97 83.1609 454.355C87.358 455.367 87.358 455.367 91.5552 456.379C86.6512 457.766 86.6512 457.766 81.7473 459.152C85.7315 460.009 89.8738 459.801 93.945 459.987C85.5267 475.041 71.1187 452.884 68.3916 443.512C78.5126 440.429 87.6286 438.339 95.9847 445.991ZM222.63 452.101C218.973 458.404 207.677 448.986 216.195 442.531C222.269 437.928 225.212 447.651 222.63 452.101ZM378.968 452.194C374.22 454.343 374.868 445.892 376.59 444.586C382.843 439.847 381.745 450.938 378.968 452.194ZM707.192 444.124C701.788 456.621 686.246 453.971 674.363 454.432C682.56 447.585 697.002 445.654 707.192 444.124ZM564.381 447.919C563.313 454.045 559.075 459.343 553.541 462.09C555.553 457.696 555.553 457.696 557.566 453.301C554.767 452.793 554.767 452.793 551.969 452.285C555.41 448.396 559.455 446.455 564.381 447.919ZM625.375 450.293C623.335 456.356 616.637 458.349 611.146 460.254C612.955 457.258 612.955 457.258 614.763 454.263C611.064 453.853 611.064 453.853 607.366 453.442C613.679 449.608 618.052 449.458 625.375 450.293ZM533.932 465.235C535.542 461.639 535.542 461.639 537.152 458.043C534.549 459.236 534.549 459.236 531.945 460.429C530.966 440.204 560.592 456.431 533.932 465.235ZM389.569 452.024C395.973 457.178 398.647 465.277 402.311 472.463C394.558 471.044 392.074 457.918 389.569 452.024ZM776.366 453.521C776.351 458.922 776.351 458.922 776.335 464.323C768.777 463.246 771.075 456.554 776.366 453.521ZM357.14 470.759C355.295 467.896 350.806 470.026 348.437 467.459C341.721 460.18 356.185 455.615 360.359 455.542C357.35 458.734 357.35 458.734 354.341 461.925C358.343 460.937 358.343 460.937 362.346 459.948C361.539 462.346 361.539 462.346 360.733 464.744C362.735 464.05 362.735 464.05 364.737 463.355C363.531 465.252 363.531 465.252 362.326 467.149C364.729 465.955 364.729 465.955 367.133 464.762C367.127 466.562 367.127 466.562 367.122 468.362C368.727 466.767 368.727 466.767 370.331 465.171C368.083 474.79 363.129 480.053 357.14 470.759ZM115.735 463.649C109.964 470.041 104.12 461.857 109.154 456.829C113.681 452.308 120.447 458.43 115.735 463.649ZM525.157 456.409C522.244 462.915 519.627 466.378 512.723 468.375C513.33 465.977 513.33 465.977 513.936 463.578C511.136 463.57 511.136 463.57 508.336 463.562C511.587 457.91 519.144 457.02 525.157 456.409ZM697.586 463.974C696.896 464.636 668.539 465.921 668.331 465.816C674.277 460.96 684.329 457.661 691.954 457.682C698.394 457.25 701.164 460.543 697.586 463.974ZM592.523 468.402C590.189 469.548 587.658 469.715 585.118 470.181C587.328 466.587 587.328 466.587 589.538 462.993C586.384 462.234 586.384 462.234 583.23 461.475C586.542 452.718 613.226 458.234 592.523 468.402ZM248.71 472.427C247.911 472.025 247.911 472.025 247.113 471.623C246.467 476.158 241.323 475.538 237.687 476.246C234.175 476.931 236.441 482.083 232.282 482.382C226.684 482.784 222.772 469.814 222.329 465.952C225.12 468.96 225.12 468.96 227.912 471.968C226.522 468.364 226.522 468.364 225.132 464.759C227.929 465.967 227.929 465.967 230.725 467.176C229.732 464.672 229.732 464.672 228.739 462.169C231.734 463.878 231.734 463.878 234.73 465.587C233.736 463.384 233.736 463.384 232.742 461.181C233.741 461.583 233.741 461.583 234.74 461.986C233.746 459.883 233.746 459.883 232.752 457.78C243.23 456.707 246.462 463.392 248.71 472.427ZM652.737 463.572C647.54 464.135 643.218 467.145 637.927 467.13C640.183 464.886 638.631 466.098 643.135 464.345C638.701 461.313 639.957 463.083 638.347 459.931C644.054 458.631 649.957 457.408 652.737 463.572ZM277.13 465.507C275.529 465.802 275.529 465.802 273.928 466.098C274.126 466.999 274.126 466.999 274.323 467.899C272.523 467.994 272.523 467.994 270.723 468.089C272.32 468.894 272.32 468.894 273.918 469.698C271.614 471.092 271.614 471.092 269.31 472.486C271.009 472.89 271.009 472.89 272.708 473.295C270.502 475.489 270.502 475.489 268.295 477.683C272.351 478.538 272.695 478.021 272.684 481.696C265.795 481.294 264.25 479.857 261.958 473.215C266.964 470.462 268.114 454.169 277.13 465.507ZM562.705 474.918C564.712 472.323 564.712 472.323 566.719 469.729C564.026 469.182 563.334 469.082 561.527 466.914C583.656 463.816 576.194 474.956 562.705 474.918ZM384.329 466.011C387.541 467.767 385.727 466.402 388.714 471.224C389.019 469.425 389.019 469.425 389.324 467.625C403.714 483.477 366.753 492.29 377.926 467.193C378.115 470.794 378.115 470.794 378.305 474.395C380.631 469.329 379.878 471.877 380.727 466.801C382.534 469.487 383.259 470.652 383.907 473.611C384.118 469.811 384.118 469.811 384.329 466.011ZM497.926 467.133C495.738 474.585 493.934 477.893 487.882 482.707C488.091 479.707 488.091 479.707 488.299 476.707C485.997 477.401 485.997 477.401 483.695 478.094C485.816 470.633 491.169 468.465 497.926 467.133ZM216.888 466.949C222.852 482.443 198.692 499.777 205.523 467.904C207.072 470.763 206.57 469.285 207.11 472.309C207.796 468.689 206.959 470.066 209.123 467.914C209.716 470.516 209.716 470.516 210.308 473.118C210.989 470.895 210.989 470.895 211.671 468.672C213.89 473.346 212.874 470.929 214.7 475.931C214.987 469.731 214.283 472.731 216.888 466.949ZM668.317 470.817C674.967 469.775 681.623 468.714 688.324 468.073C692.358 467.688 698.619 492.462 699.045 496.107C680.68 499.625 678.416 480.67 669.825 503.225C655.738 495.588 656.549 509.033 649.435 517.169C644.162 523.199 640.903 520.021 638.152 528.739C629.654 525.143 628.469 528.718 624.469 536.151C616.575 534.532 620.553 534.889 612.534 535.067C612.743 532.067 612.743 532.067 612.951 529.067C608.544 531.655 608.544 531.655 604.136 534.243C604.346 530.843 604.346 530.843 604.556 527.443C599.147 530.428 599.147 530.428 593.739 533.413C593.148 530.011 593.148 530.011 592.558 526.609C589.95 529.402 589.95 529.402 587.342 532.195C585.757 526.99 585.757 526.99 584.172 521.785C579.538 529.813 582.108 527.101 577.746 530.967C572.418 513.474 565.679 513.676 548.21 508.081C561.165 507.523 574.093 509.774 587.002 510.991C581.597 509.047 575.791 507.745 571.02 504.545C593.217 505.808 593.217 505.808 615.414 507.071C610.398 499.16 592.984 507.662 588.64 497.794C614.436 499.268 614.436 499.268 640.232 500.741C636.711 487.686 613.927 501.136 608.657 491.85C632.861 490.319 632.861 490.319 657.066 488.787C647.395 487.695 637.477 487.088 628.279 483.905C643.665 482.711 660.28 482.586 675.097 477.637C666.933 477.259 658.616 477.217 650.704 475.168C656.263 472.786 662.342 471.754 668.317 470.817ZM554.063 471.793C550.409 476.824 546.582 477.881 540.691 479.656C543.228 475.734 542 477.852 544.309 473.266C542.109 473.259 542.109 473.259 539.909 473.253C543.524 466.584 548.123 469.19 554.063 471.793ZM624.899 472.582C619.249 477.004 616.89 478.064 609.894 478.652C612.303 475.659 612.303 475.659 614.711 472.665C611.472 472.386 613.072 472.714 609.914 471.651C614.164 468.13 622.115 466.103 624.899 472.582ZM134.322 468.102C148.534 469.318 144.789 488.716 144.237 498.134C134.183 497.435 122.079 492.658 120.684 481.665C125.639 484.292 123.246 482.947 127.872 485.686C126.482 482.082 126.482 482.082 125.093 478.477C128.088 480.086 128.088 480.086 131.084 481.695C129.093 478.289 129.093 478.289 127.103 474.883C131.298 476.695 131.298 476.695 135.493 478.507C132.894 475.835 130 473.374 127.916 470.284C129.927 467.999 131.186 467.834 134.322 468.102ZM93.4631 471.237C91.8825 473.207 91.8825 473.207 90.3019 475.178C93.5047 474.187 93.5047 474.187 96.7075 473.196C94.899 476.191 94.899 476.191 93.0905 479.187C96.2945 477.796 96.2945 477.796 99.4984 476.404C98.1546 480.509 99.277 477.731 94.6769 483.992C99.2816 480.827 97.1261 481.528 100.686 480.808C98.8774 483.804 98.8774 483.804 97.0689 486.799C100.277 484.008 100.277 484.008 103.485 481.216C103.479 483.417 103.479 483.417 103.472 485.617C105.356 483.476 104.302 484.434 106.643 482.75C110.816 494.189 83.817 498.393 77.8338 499.146C77.9175 494.319 83.3964 464.224 93.4631 471.237ZM520.679 484C522.197 481.485 523.331 478.515 526.297 477.615C525.002 475.611 525.002 475.611 523.708 473.607C537.597 468.31 533.458 483.123 520.679 484ZM515.499 476.784C512.852 483.434 508.588 483.607 501.876 484.747C503.321 482.703 504.749 482.425 505.09 479.955C503.291 479.75 503.291 479.75 501.491 479.545C506.427 473.299 508.821 475.174 515.499 476.784ZM601.483 482.429C595.858 486.3 589.816 486.332 583.476 484.978C585.647 482.215 584.16 483.745 588.487 480.992C584.7 479.778 586.131 480.75 583.894 478.579C591.1 477.518 596.941 475.9 601.483 482.429ZM775.896 478.323C775.96 479.257 776.216 482.991 776.28 483.925C775.68 483.79 773.282 483.25 772.682 483.115C773.218 482.316 775.36 479.122 775.896 478.323ZM347.492 479.108C345.091 485.681 343.25 492.838 338.139 497.784C334.941 490.879 338.482 477.956 347.492 479.108ZM351.691 479.32C361.544 484.282 347.948 498.002 341.436 498.693C344.326 492.305 346.765 484.56 351.691 479.32ZM573.466 488.35C569.075 493.724 564.643 493.84 557.847 495.307C558.511 491.178 560.065 492.456 563.061 490.121C559.066 488.509 559.066 488.509 555.07 486.898C559.254 482.737 569.87 484.28 573.466 488.35ZM245.872 486.021C256.41 487.16 261.67 491.796 261.024 502.866C255.126 498.119 250.638 491.842 245.872 486.021ZM257.416 505.656C246.709 502.768 242.638 498.761 241.468 487.208C248.452 490.67 253.387 499.066 257.416 505.656ZM765.002 511.496C763.58 504.604 761.786 494.588 767.066 488.899C778.867 494.839 769.71 505.039 765.002 511.496ZM95.4633 488.795C96.8168 487.705 96.4562 488.394 96.6689 486.798C96.0661 487.796 96.0661 487.796 95.4633 488.795ZM758.998 512.679C753.824 503.664 753.824 503.664 748.649 494.648C762.38 486.622 763.857 502.069 758.998 512.679ZM545.432 500.472C538.569 502.323 532.259 503.291 528.242 496.823C531.242 496.831 531.242 496.831 534.242 496.84C526.795 488.279 541.441 492.432 545.432 500.472ZM493.054 492.723C501.198 494.627 505.03 500.755 507.008 508.764C500.082 506.144 493.545 503.565 489.441 497.113C492.64 497.522 492.64 497.522 495.839 497.931C494.446 495.327 494.446 495.327 493.054 492.723ZM392.694 496.038C394.148 497.369 395.632 501.048 393.827 501.842C388.538 504.17 382.764 505.188 377.213 506.796C366.941 509.771 356.599 512.798 345.992 514.358C338.43 515.471 329.152 510.956 340.473 507.892C354.067 504.213 367.78 500.943 381.242 496.806C384.261 495.878 389.636 493.239 392.694 496.038ZM513.445 495.981C518.349 497.266 523.609 500.64 525.518 505.516C521.271 506.083 515.426 504.328 511.422 503.776C511.432 502.613 511.432 502.613 511.442 501.451C513.537 500.919 513.537 500.919 515.632 500.388C514.342 497.266 515.083 498.729 513.445 495.981ZM682.557 527.264C675.286 522.439 672.348 504.474 677.84 497.647C691.876 505.556 683.331 518.276 682.557 527.264ZM494.191 514.729C486.226 512.608 472.42 508.787 468.03 501.053C478.325 499.795 488.338 506.632 494.191 514.729ZM687.751 529.279C689.804 520.661 688.266 510.417 693.226 502.892C711.493 499.569 695.4 525.787 687.751 529.279ZM482.968 523.098C464.247 520.994 447.637 509.944 430.224 503.146C447.67 503.604 471.448 508.052 482.968 523.098ZM775.821 504.726C776.236 510.556 777.483 515.347 770.588 516.313C771.629 511.857 773.209 508.502 775.821 504.726ZM445.94 515.242C450.364 517.387 460.913 520.341 463.722 525.806C460.511 528.434 460.76 528.559 456.697 530.374C452.898 532.071 449.118 533.841 445.183 535.192C415.482 545.392 430.391 537.193 411.973 521.096C408.384 517.96 397.383 517.61 397.395 513.454C401.796 512.766 401.796 512.766 406.198 512.079C405.207 509.075 405.207 509.075 404.215 506.072C420.791 505.751 431.091 508.041 445.94 515.242ZM675.347 530.444C668.201 528.473 648.516 514.377 660.212 507.599C672.623 509.188 675.167 521.402 675.347 530.444ZM753.377 520.264C747.309 519.313 739.323 516.071 744.208 509.037C751.712 508.441 752.36 516.608 753.377 520.264ZM222.407 508.907C231.621 510.153 240.766 511.904 249.995 513.036C255.519 513.713 261.114 513.684 266.642 514.333C270.502 514.787 269.803 517.749 270.173 520.894C247.171 519.679 225.701 516.353 202.994 513.502C204.199 504.656 216.306 508.082 222.407 508.907ZM570.146 530.746C559.894 522.015 544.908 518.985 536.8 511.849C540.882 512.101 581.907 516.394 570.146 530.746ZM715.716 528.208C711.054 533.605 699.384 534.433 693.334 535.296C697.945 527.493 699.943 523.64 707.38 519.134C717.757 516.549 719.522 523.804 715.716 528.208ZM556.122 539.307C550.928 537.292 550.928 537.292 545.733 535.277C547.719 540.283 547.719 540.283 549.705 545.29C541.677 543.537 545.423 543.972 538.509 543.658C539.442 526.256 537.041 528.72 525.981 518.419C540.713 516.88 555.277 523.275 556.122 539.307ZM376.982 517.996C371.737 527.941 366.932 536.629 354.841 532.135C350.777 530.625 347.519 528.841 346.012 524.759C351.933 523.428 367.551 518.643 376.982 517.996ZM90.1759 519.583C100.019 526.022 105.839 533.47 110.907 544.045C119.168 535.899 125.304 525.449 135.775 520.113C130.924 537.901 130.924 537.901 126.074 555.689C131.553 551.242 129.538 553.237 132.489 550.107C135.283 558.051 135.827 566.618 137.219 574.923C125.43 570.99 125.43 570.99 113.641 567.056C115.027 572.16 115.027 572.16 116.412 577.265C87.2546 576.701 88.0123 568.101 73.7045 544.74C86.2959 547.776 86.2959 547.776 98.8874 550.812C94.5316 535.198 94.5316 535.198 90.1759 519.583ZM374.537 533.591C376.215 530.26 377.742 526.801 379.965 523.806C408.755 519.713 401.915 545.663 374.537 533.591ZM554.166 523.7C558.74 523.713 562.796 526.452 560.345 531.118C556.726 529.779 555.224 527.263 554.166 523.7ZM670.525 538.432C668.85 538.383 633.206 536.676 648.562 525.368C659.78 523.775 667.118 530.09 670.525 538.432ZM731.761 534.53C733.856 536.935 750.13 535.202 740.909 544.182C738.568 546.461 736.162 548.675 733.69 550.812C726.892 556.69 728.598 555.523 723.468 558.384C720.408 550.104 714.342 538.017 720.748 530.373C730.281 529.2 728.541 530.831 731.761 534.53ZM532.132 535.639C511.519 534.761 502.73 534.107 485.331 535.906C491.967 527.703 526.768 523.384 532.132 535.639ZM152.952 528.162C149.604 536.394 146.686 545.472 141.682 552.933C138.8 546.524 138.8 546.524 135.918 540.115C141.8 536.384 146.721 531.309 152.952 528.162ZM231.314 541.586C226.965 542.396 187.122 548.506 210.343 531.326C221.359 529.23 226.736 534.676 231.314 541.586ZM233.342 531.591C242.142 531.816 242.142 531.816 250.941 532.041C245.688 539.874 237.478 539.457 233.342 531.591ZM635.061 560.934C631.203 553.943 627.465 541.633 633.535 534.926C644.822 536.321 639.976 556.589 635.061 560.934ZM718.074 556.569C712.492 555.855 692.141 542.302 702.326 537.922C714.92 538.925 715.506 547.785 718.074 556.569ZM532.495 548.841C521.451 548.81 510.992 543.684 499.51 543.547C495.865 543.504 486.296 545.203 483.312 542.701C495.129 539.297 527.305 531.903 532.495 548.841ZM627.659 561.513C623.215 558.438 606.259 546.174 615.921 539.677C628.46 538.648 628.637 553.869 627.659 561.513ZM731.235 570.258C740.454 570.436 750.465 573.979 758.897 570.249C759.393 570.029 759.931 569.621 760.038 569.089C761.21 563.276 751.378 560.012 756.097 548.275C757.184 545.573 764.33 547.985 766.952 546.556C772.653 543.45 776.345 531.57 776.289 551.171C776.266 559.426 776.109 567.68 776.019 575.935C736.018 576.022 736.018 576.022 696.018 576.108C704.283 570.937 721.435 570.068 731.235 570.258ZM661.028 554.118C658.78 561.117 649.461 563.237 643.243 567.158C643.805 559.59 645.582 551.772 651.701 546.779C657.784 545.159 662.555 549.366 661.028 554.118ZM539.692 549.662C544.639 550.826 544.639 550.826 549.586 551.99C549.282 555.846 545.349 556.247 542.07 557.67C540.881 553.666 540.881 553.666 539.692 549.662ZM750.263 560.26C747.821 565.781 733.837 563.179 729.658 562.202C732.299 558.248 733.68 557.317 737.68 554.224C745.784 549.639 753.504 552.934 750.263 560.26ZM388.519 557.584C380.222 556.334 363.721 556.813 356.492 549.542C364.785 550.937 392.384 555.704 401.147 556.695C406.894 557.345 412.658 552.307 418.087 551.317C410.06 561.958 400.743 559.425 388.519 557.584ZM338.721 570.157C344.694 566.866 349.096 558.433 355.89 559.029C372.846 560.518 389.622 565.605 406.624 564.811C418.174 564.272 417.94 557.882 429.891 554.476C437.319 552.359 445.171 551.984 452.887 551.616C484.486 550.108 510.94 548.632 538.856 562.461C535.045 566.251 535.045 566.251 531.235 570.04C546.714 568.592 562.127 565.92 577.672 565.696C586.303 565.573 592.577 571.377 599.018 575.833C461.316 576.443 461.316 576.443 323.614 577.052C327.228 572.86 333.873 572.828 338.721 570.157ZM176.443 566.634C175.595 561.359 175.299 557.408 178.482 552.838C183.487 558.187 185.224 564.455 176.443 566.634ZM714.258 562.158C708.345 568.273 684.225 570.051 692.075 556.095C701.091 553.543 709.35 557.222 714.258 562.158ZM628.353 568.141C621.69 573.021 595.843 572.407 605.86 561.251C614.278 558.459 625.968 561.146 628.353 568.141ZM242.469 557.62C250.704 563.833 251.081 575.462 257.445 561.638C262.52 562.538 263.444 568.295 265.227 572.486C269.032 570.497 269.032 570.497 272.838 568.507C273.027 572.508 273.027 572.508 273.215 576.509C257.162 576.72 231.984 583.363 224.848 564.771C233.039 568.194 233.039 568.194 241.229 571.618C241.849 564.619 241.849 564.619 242.469 557.62ZM662.633 570.613C657.093 570.231 658.316 570.472 654.837 569.391C656.633 566.712 658.823 565.342 661.454 563.409C674.753 556.385 683.449 572.049 662.633 570.613ZM191.248 564.675C198.458 565.056 206.091 563.782 212.844 566.337C207.907 573.208 194.467 572.788 191.248 564.675Z" fill="#000000" fill-rule="nonzero" opacity="1" stroke="none"/>
</g>
</svg>
