<?xml version="1.0" encoding="UTF-8" standalone="no"?>
<!DOCTYPE svg PUBLIC "-//W3C//DTD SVG 1.1//EN" "http://www.w3.org/Graphics/SVG/1.1/DTD/svg11.dtd">
<!-- Created with Vectornator (http://vectornator.io/) -->
<svg height="100%" stroke-miterlimit="10" style="fill-rule:nonzero;clip-rule:evenodd;stroke-linecap:round;stroke-linejoin:round;" version="1.1" viewBox="0 0 800 600" width="100%" xml:space="preserve" xmlns="http://www.w3.org/2000/svg" xmlns:xlink="http://www.w3.org/1999/xlink">
<defs/>
<clipPath id="ArtboardFrame">
<rect height="600" width="800" x="0" y="0"/>
</clipPath>
<g clip-path="url(#ArtboardFrame)" id="Layer-1">
<path d="M3.6 600.471C136.067 600.471 665.933 600.471 798.4 600.471C798.467 500.459 798.733 100.412 798.8 0.400047C666.333 0.400047 136.467 0.400047 4 0.400047C3.93333 100.412 3.66667 500.459 3.6 600.471ZM649.8 20.8024C663.564 20.8368 677.34 21.0585 691.075 21.9401C700.995 22.5768 710.937 23.4862 720.7 25.353C729.458 27.0274 742.263 28.6438 744.667 37.2299C746.466 43.6566 745.556 50.5478 746 57.2067C738.6 49.8059 738.6 49.8059 731.2 42.405C731 48.0056 731 48.0056 730.8 53.6063C716.207 46.0855 719.141 42.7485 731.6 34.204C723.888 27.6332 722.575 21.7228 712.85 26.9157C706.69 30.2049 701.35 34.8416 695.6 38.8046C706.974 43.6891 702.756 39.878 708.8 49.6058C700.8 52.4062 700.8 52.4062 692.8 55.2065C699.977 65.0673 695.335 61.4345 706.8 66.0078C700 79.4093 700 79.4093 693.2 92.8109C699.6 90.5106 699.6 90.5106 706 88.2104C708.8 99.7117 708.8 99.7117 711.6 111.213C715.839 103.008 718.054 93.8384 720 84.81C724.1 87.3103 724.1 87.3103 728.2 89.8106C734.71 80.0439 727.507 73.6256 722.237 63.77C725.719 60.2883 725.719 60.2883 729.2 56.8067C730.8 64.6076 730.8 64.6076 732.4 72.4085C736.9 70.4083 736.9 70.4083 741.4 68.408C734.7 89.6105 734.7 89.6105 728 110.813C739.3 97.1114 739.3 97.1114 750.6 83.4098C757.1 96.9114 757.1 96.9114 763.6 110.413C770.8 104.212 770.8 104.212 778 98.0115C778.2 123.214 778.2 123.214 778.4 148.417C763.376 142.06 754.394 126.281 743.2 114.413C742.807 119.231 741.367 126.409 743.7 131.315C747.246 138.773 751.9 145.65 756 152.818C736 152.818 736 152.818 716 152.818C720.596 149.034 725.393 145.482 729.787 141.467C731.726 139.696 735 138.137 734.942 135.512C734.784 128.354 731.114 121.713 729.2 114.813C722.213 125.19 715.374 135.748 707.2 145.217C702.962 135.451 693.628 122.877 682.6 132.016C679.624 122.756 676.949 123.102 669.2 128.415C666.035 118.631 661.822 115.735 651.1 111.713C645.045 109.442 649.264 115.084 646.587 110.788C643.655 112.997 638.899 114.982 635.8 113.013C642.92 110.704 651.715 106.997 659.6 107.213C676.929 107.686 691.664 115.746 708.8 115.214C702.018 108.496 694.811 102.172 687.2 96.4113C690 95.6112 690 95.6112 692.8 94.8111C682.774 89.1226 673.747 82.1573 661.65 83.4598C650.025 84.7116 638.558 87.2355 626.925 88.4104C620.011 89.1088 610.592 92.7252 606.1 87.4228C604.936 86.0489 604.462 79.8776 607.2 78.6092C612.277 76.2575 618.333 76.2463 623.162 73.4211C634.164 66.9851 643.392 57.8414 654.212 51.106C660.253 47.3462 678.012 44.3253 683.2 43.2051C669.729 39.9617 655.062 40.4251 641.638 43.8552C630.112 46.7999 620.118 57.2621 608.25 56.4566C601.744 56.0151 599.298 46.6539 593.587 43.5051C589.721 41.3732 584.407 43.1814 580.587 40.9673C571.516 35.7094 564.063 28.0575 555.8 21.6025C587.133 21.3358 618.466 20.7243 649.8 20.8024ZM778.162 30.5286C778.422 38.484 778.321 46.4471 778.4 54.4064C774.782 51.1166 773.717 45.7839 772 41.2048C764.8 51.206 764.8 51.206 757.6 61.2072C761.692 38.0732 766.9 32.8303 746.8 21.2025C758.895 21.0009 777.616 13.7973 778.162 30.5286ZM25.2 21.2025C265 21.2025 265 21.2025 504.8 21.2025C501.5 25.2863 498.539 29.669 494.9 33.4539C493.49 34.9202 490.363 34.8497 489.8 36.8043C487.761 43.8873 488.333 51.4727 487.6 58.8069C479.933 57.3401 472.392 53.9502 464.6 54.4064C458.197 54.7813 452.963 60.4019 446.6 61.2072C440.488 61.9807 434.38 58.3919 428.25 59.0069C407.166 61.1225 386.931 68.6555 366.775 75.1963C360.3 77.2975 357.028 65.4539 351.1 62.1073C340.511 56.1292 326.915 51.8406 314.4 53.2063C308.356 53.8658 302.238 58.7149 296.5 56.7067C287.506 53.5592 284.039 39.3771 274.562 38.3795C259.436 36.7871 243.205 40.3881 229.912 47.7806C223.823 51.1675 221.071 58.6579 215.75 63.1574C207.507 70.1283 194.22 61.2469 183.425 61.1572C177.489 61.1079 171.871 64.1678 165.95 64.5951C159.364 65.0704 153.302 63.2263 148.25 59.1069C143.223 55.0085 140.089 48.1714 134.05 45.8054C127.232 43.1341 118.969 47.4798 112.1 44.9428C99.886 40.4315 83.3572 19.1909 66.2 26.2031C51.9859 32.0124 38.6 39.6713 24.8 46.4055C25 33.804 25 33.804 25.2 21.2025ZM536 50.0059C534.968 56.5138 497.561 64.1178 493.4 55.6065C489.031 46.6694 503.665 25.7184 511.312 25.5155C517.09 25.3622 522.89 25.9746 528.65 25.503C534.575 25.0178 542.402 21.1471 548.75 23.9653C553.698 26.1622 556.898 31.1881 561.537 33.979C564.305 35.6438 567.988 35.5051 570.6 37.4044C572.192 38.5623 572.579 40.8153 573.4 42.605C582.453 62.349 551.429 62.4042 553.762 53.6188C554.312 51.5496 558.352 51.5207 560 50.4059C544.356 41.6445 553.944 55.6049 547.675 58.8819C540.091 62.846 543.045 58.9938 538.65 62.1073C534.575 64.994 530.832 68.3576 526.6 71.0083C523.697 72.8267 515.43 69.5829 513.55 69.2581C508.659 68.4132 503.717 67.8913 498.8 67.2079C510.091 57.7977 543.138 65.3225 541.4 48.8057C540.33 38.6379 522.06 26.661 512.2 33.4039C504.909 38.3897 508.56 45.7951 516 46.0054C506.646 30.4135 537.996 37.4142 536 50.0059ZM106.4 47.4056C106.607 47.8317 107.28 54.5087 109.15 56.5566C112.375 60.0892 118.8 58.3676 122.95 61.1072C127.316 63.9893 143.547 72.8832 141.4 76.309C135.672 85.451 125.874 63.1202 118.212 64.3701C107.864 66.0584 78.4478 86.8469 67.9 75.0588C64.0665 70.7746 97.4918 61.6088 76.9125 47.2431C62.8577 37.4318 28.2512 49.9505 49.2 60.0071C42.5194 42.1104 72.7498 45.2458 77.25 56.1566C80.633 64.3588 67.2537 65.8636 63.5 68.458C46.4695 80.2292 45.4381 84.8036 26.997 67.0734C8.91967 49.693 59.4742 34.7911 67 32.2038C80.3372 32.0249 104.92 44.3544 106.4 47.4056ZM224.65 57.1067C230.252 49.2596 234.535 53.4603 242.8 51.206C250.631 49.07 272.122 35.2862 280.4 46.8055C285.31 53.638 290.055 60.603 294.4 67.808C295.77 70.0806 289.472 73.9993 288.2 74.4087C280.298 76.9523 254.059 84.4688 248.387 72.7961C238.053 51.5252 289.019 55.1596 273.95 67.0579C270.548 69.7438 266.501 69.4129 262.4 69.6082C267.993 79.2898 284.428 68.1927 280.275 58.2944C275.373 46.6098 247.386 51.5756 243.9 65.4077C240.145 80.3075 253.022 76.0087 257.4 86.6102C238.302 95.3645 208.704 79.4428 224.65 57.1067ZM605.6 61.2072C598.301 60.0841 585.05 53.157 582.8 46.4055C591.596 43.6987 601.583 54.679 605.6 61.2072ZM605.8 65.2077C621.643 65.384 634.518 45.5835 650.65 46.5055C648.138 50.7453 643.396 53.2038 639.45 56.1566C629.1 63.9021 614.391 77.5368 600.112 72.7336C589.826 69.2733 589.322 64.1153 576 61.2072C584.401 44.2482 589.852 65.0302 605.8 65.2077ZM136.4 55.5065C140.37 60.4389 146.073 64.1146 144.4 70.8083C133.037 64.8789 125.412 56.3822 112.8 53.2063C120.807 46.9775 130.249 47.864 136.4 55.5065ZM357.6 80.8095C349.712 80.5577 337.803 81.9166 331.363 76.284C327.521 72.9247 324.541 68.4895 320.2 65.8077C313.95 61.947 305.103 70.6626 300.1 66.7078C295.118 62.7691 314.946 57.1755 315.6 57.0067C332.828 59.3985 356.255 66.9045 357.6 80.8095ZM397.4 78.7093C407.707 71.8553 423.707 59.8395 437.775 63.6325C441.23 64.5639 444.322 67.2007 447.9 67.1954C453.198 67.1876 457.573 62.4306 462.825 61.7323C470.877 60.6614 473.811 65.665 481.125 67.3579C488.098 68.9719 484.374 63.9225 490.4 67.2079C493.203 68.7364 495.112 71.8775 498.162 72.8211C505.921 75.2207 515.517 70.7525 522.5 76.659C532.735 85.3164 511.457 91.9874 506.8 92.4109C505.236 112.218 479.31 118.902 462.8 121.614C466.607 110.417 488.917 114.518 492.8 100.812C494.515 94.7565 494.623 92.8199 491.6 86.6102C480.501 63.8098 468.58 79.4677 453.2 80.4095C449.546 80.6332 443.652 76.421 442.2 75.8089C432.286 71.6306 420.534 72.8536 411 77.5091C400.408 82.6812 390.187 91.2107 378.4 91.2107C382.355 84.7428 391.087 82.9071 397.4 78.7093ZM778.4 62.8074C778.4 77.4091 778.4 77.4091 778.4 92.0108C767.845 87.2123 764.14 79.0635 758.6 69.0081C765.182 66.5754 771.506 64.1296 778.4 62.8074ZM552.8 82.4097C557.628 79.0165 559.985 71.8344 566.8 71.4084C576.927 70.7754 581.955 86.8647 571.2 90.4106C567.141 91.7489 560.841 87.228 558.35 88.5854C553.204 91.3903 546.87 98.7476 540 95.2112C524.543 87.2546 534.786 68.8302 546.2 63.8075C572.49 65.5284 551.524 70.6701 552.8 82.4097ZM211.4 70.4083C215.471 72.1248 230.317 89.3281 223.4 94.6111C217.891 98.8188 211.265 90.9982 205.4 91.2107C201.468 91.3532 197.634 94.3472 194.462 95.8113C189.479 98.1117 182.058 97.3643 177.7 98.1615C161.19 101.182 160.636 103.157 150.55 89.4605C147.468 85.2759 145.824 85.9656 145 81.0095C143.996 74.975 163.136 66.4826 167.2 70.2083C171.214 73.888 167.753 82.2054 172.887 86.4727C181.985 94.0341 202.228 89.4216 204 77.6091C193.44 83.0498 195.08 85.1525 180.55 84.6099C171.719 84.2802 174.823 70.4787 179.8 67.2079C193.263 68.6223 203.025 66.8773 211.4 70.4083ZM598.4 91.1107C591.605 105.3 589.068 96.1588 580.062 100.812C576.338 102.736 575.234 107.987 571.65 110.163C558.025 118.436 557.773 111.719 544.7 110.163C533.982 108.887 527.673 118.556 520.35 105.812C517.138 100.223 519.812 94.678 525.5 92.7109C530.675 90.9212 537.146 100.393 542.55 101.962C549.981 104.12 552.358 96.947 558.9 95.3112C563.048 94.2741 565.534 96.4674 570.4 96.6114C586.238 97.08 581.813 77.353 575.2 70.8083C576.8 69.7082 576.8 69.7082 578.4 68.6081C591.436 64.1426 602.778 81.9695 598.4 91.1107ZM328.2 87.0102C322.341 89.2842 308.107 74.9964 303.5 71.1959C305.75 70.502 305.75 70.502 308 69.8082C318.9 69.5879 338.639 82.9589 328.2 87.0102ZM41.65 83.3598C49.3582 85.9797 55.2377 79.578 62.6 79.6094C72.0593 79.6496 73.8133 86.4471 83.3 84.0599C88.3434 82.7907 117.201 67.8311 120.95 70.7083C129.636 77.3746 139.471 84.0361 144.2 93.911C138.633 98.7783 133.608 104.346 127.5 108.513C122.709 111.781 116.005 112.019 111.8 116.014C105.726 121.783 102.183 129.74 97.7 136.816C91.2074 147.064 102.011 151.332 109.6 154.618C98.0154 157.126 86.7638 161.444 76.2 166.82C76.3 163.419 76.3 163.419 76.4 160.019C66.7703 164.396 73.3663 162.197 72.8 171.62C72.7344 172.712 70.5624 172.589 70.2 173.62C68.7568 177.729 68.4667 182.155 67.6 186.422C67.6 183.822 67.6 183.822 67.6 181.221C66.2 181.221 66.2 181.221 64.8 181.221C66.75 188.572 67.9878 196.15 70.65 203.274C76.0671 217.77 85.3734 224.92 79.8 241.628C76.355 251.956 68.4321 260.412 65 270.744C61.7532 280.519 61.6667 291.072 60 301.235C62.8125 300.185 62.8125 300.185 65.625 299.135C65.8065 314.909 69.63 330.604 74.4 345.641C69.2466 344.217 62.4225 341.577 56.8 342.84C49.4412 344.493 42.734 348.618 35.3 349.891C31.8499 350.482 27.5523 347.878 24.8 350.041C24.8 212.225 24.8 212.225 24.8 74.4087C30.4167 77.3924 35.6283 81.3131 41.65 83.3598ZM395.2 72.0085C390.922 81.5017 376.52 90.5275 367.4 82.8097C376.443 77.3311 384.16 72.0085 395.2 72.0085ZM301.65 87.6603C296.79 89.9545 291.145 84.7628 285.85 85.8601C275.646 87.9749 238.974 108.962 232.4 96.2113C237.498 94.4269 243.271 96.9479 248.2 95.0112C257.467 91.3701 264.377 85.806 273.3 82.1597C279.087 79.795 285.033 79.7066 290.8 77.6091C301.51 75.9413 314.861 81.4241 301.65 87.6603ZM439.6 79.8094C453.191 83.1678 472.081 116.65 477.2 90.0106C475.224 90.7334 472.622 94.7595 470.512 94.0236C455.987 88.9559 456.079 84.0912 469 79.0593C479.985 74.7813 490.954 86.8618 488.4 97.8115C488.025 99.4178 475.777 108.765 473.8 110.413C461.826 102.913 455.11 109.797 444.55 105.187C439.012 102.77 444.732 94.4989 445.2 92.0108C445.892 88.3317 438.912 86.2031 436.5 85.6101C432.497 84.6259 428.506 83.2895 424.387 83.1223C411.733 82.6083 387.279 105.856 381.8 95.6112C401.819 87.9596 417.741 74.4077 439.6 79.8094ZM364.4 95.6112C347.682 97.2832 349.555 84.5599 335.2 93.611C334.337 91.0362 333.513 91.1671 331.2 90.0106C341.385 79.8245 358.975 82.046 364.4 95.6112ZM300.85 91.4608C305.888 90.4793 310.589 85.8607 315.6 85.8101C318.81 85.7777 322.622 88.9834 325 90.6107C315.21 93.6233 300.96 90.2359 296.8 102.412C289.166 100.35 273.122 102.996 268.2 95.6112C276.032 88.8976 291.746 93.2344 300.85 91.4608ZM379.45 103.262C385.441 101.12 391.363 101.549 397.4 98.9116C402.763 96.5689 418.205 86.8499 426.4 88.2104C431.082 88.9877 435.663 90.5115 440.4 90.8107C437.324 98.7802 437.068 101.027 437.6 109.613C424.887 107.706 414.066 103.214 402 110.013C414.164 113.577 434.262 113.486 443.6 123.214C438.74 123.114 424.414 122.332 416.4 123.014C412.569 123.341 408.263 126.393 404.662 125.615C397.015 123.963 391.167 120.851 384 119.214C385.3 110.722 379.302 103.315 379.45 103.262ZM617.8 95.3612C632.65 96.1339 647.456 84.0803 661.6 89.4105C651.927 95.5017 612.609 107.837 602 96.9614C605.971 92.4546 612.221 95.0709 617.8 95.3612ZM620.237 102.975C653.871 102.228 665.675 81.8759 693.6 108.813C682.915 107.873 673.935 99.4496 662.8 99.8117C651.158 100.19 640.256 105.739 628.575 106.6C617.864 107.389 607.111 105.76 596.4 105.612C597.873 97.755 612.245 103.152 620.237 102.975ZM212.6 99.6117C218.231 101.994 222.862 97.3382 228.2 98.5616C232.115 99.4588 228.723 104.006 227 105.062C222.282 107.954 218.228 105.413 213.1 106.463C205.2 108.079 198.129 115.125 192.4 104.812C196.586 102.624 198.037 98.4814 201.8 96.0113C207.799 94.9446 209.001 98.0889 212.6 99.6117ZM504.65 108.963C508.09 105.326 509.624 99.6427 514 97.2114C522.655 122.315 519.846 114.826 541.75 116.914C548.047 117.514 554.078 120.218 560.4 120.414C561.265 138.584 579.065 129.069 586.8 138.416C573.502 141.971 584.944 148.408 589.2 156.018C595.609 152.356 592.268 152.493 599.2 156.818C601.556 153.968 601.556 153.968 603.913 151.118C605.953 152.409 609.033 150.77 611.1 152.018C614.27 153.932 615.569 158.893 619.2 159.619C614.681 191.903 599.825 162.479 584.2 168.27C564.976 175.394 585.246 185.721 560.75 188.972C553.191 189.976 552.345 175.33 550.538 171.645C548.751 168.003 543.075 168.422 539.2 167.22C539.819 179.115 538.835 173.1 542.4 185.222C538.145 183.183 532.886 183.43 528.938 180.846C524.717 178.084 522.545 172.427 517.875 170.52C510.998 167.712 503.5 166.454 496.837 163.169C490.099 159.846 493.601 145.16 487.55 139.466C478.872 131.301 466.903 138.969 462 126.415C477.373 125.181 493.726 120.513 504.65 108.963ZM163 109.213C167.949 107.407 172.279 104.169 177.175 102.225C179.94 101.126 183.161 103.593 185.2 104.612C180.576 110.008 175.431 116.814 167.8 117.614C158.853 118.551 145.41 116.737 142.2 128.615C139.932 137.006 153.518 140.447 159 139.016C164.745 137.517 166.668 133.262 170.5 129.565C173.336 126.829 179.252 136.64 175.588 140.467C172.264 143.937 165.677 144.016 161.9 145.117C153.116 147.679 152.626 155.893 141.125 154.418C136.129 153.777 131.522 147.646 127.35 147.417C121.65 147.105 103.313 155.45 100.3 143.517C99.0484 138.559 104.843 136.139 107.2 132.316C111.134 125.934 111.319 118.842 119.8 117.214C124.299 116.35 129.493 117.385 133.35 114.914C136.35 112.991 136.335 105.341 140.8 102.612C149.967 102.284 157.131 111.354 163 109.213ZM260 104.012C241.356 112.448 256.131 110.466 252.35 120.764C251.386 123.39 249.806 136.527 245.6 136.416C220.287 135.75 216.553 111.717 242.4 104.212C256.335 102.251 252.663 101.916 260 104.012ZM201 115.051C207.85 115.958 213.367 107.463 220.137 111.701C212.692 131.658 203.321 116.376 193.15 118.314C187.779 119.337 185.261 125.716 179.8 126.215C168.654 127.233 181.66 112.583 183.6 110.613C192.387 107.129 195.405 114.31 201 115.051ZM606.225 111.538C600.218 115.649 589.299 114.085 585.4 107.663C592.43 107.782 599.282 110.332 606.225 111.538ZM261.2 108.413C259.798 111.756 260.987 109.612 256 113.613C257.115 110.007 257.743 109.894 261.2 108.413ZM455.2 110.013C450.107 115.582 448.645 120.246 441.6 115.214C446.122 111.596 449.524 110.297 455.2 110.013ZM464 111.213C459.942 119.909 455.547 123.292 456 132.816C451.3 131.815 451.3 131.815 446.6 130.815C449.964 123.605 456.958 114.969 464 111.213ZM160.4 133.816C149.383 138.985 143.042 128.236 154.4 122.414C164.32 117.33 171.575 128.572 160.4 133.816ZM148.25 159.906C155.188 160.258 159.445 151.473 165.8 148.667C169.486 147.04 173.933 148.307 177.792 147.149C185.056 144.968 179.486 124.957 190.8 123.415C195.668 122.751 200.128 126.731 205 127.365C207.47 127.686 209.823 126.032 212.3 125.765C220.429 124.889 225.886 134.295 231.125 138.491C235.364 141.886 242.241 140.707 246.375 144.229C249.438 146.839 249.664 151.696 252.262 154.768C252.348 154.869 258.758 156.899 258.8 159.319C258.867 163.136 259.494 177.296 252.8 180.221C248.292 182.191 242.929 182.026 238.675 184.497C227.494 190.991 227.888 198.215 215.2 199.623C207.371 200.493 212.051 198.792 205.362 193.548C198.134 187.88 183.816 195.69 178.8 201.624C176.458 204.394 174.831 207.761 173.537 211.15C171.9 215.44 176.728 220.046 176.4 224.626C176.108 228.701 172.863 232.096 172.137 236.115C171.583 239.187 174.03 242.673 172.637 245.466C168.203 254.361 153.436 251.651 146.8 248.629C150.8 241.728 150.8 241.728 154.8 234.828C146.849 238.618 138.01 240.973 129.85 235.865C132.518 227.372 141.632 229.629 144.15 218.851C147.424 204.838 141.6 194.596 141.6 180.821C142.8 180.821 142.8 180.821 144 180.821C140.405 166.438 130.619 160.312 117.2 156.818C127.548 155.765 137.862 159.379 148.25 159.906ZM392 128.415C395.384 128.711 400.265 127.666 401.95 130.615C398.973 133.402 396.337 135.635 392.4 136.816C392.2 132.616 392.2 132.616 392 128.415ZM385.55 161.219C395.513 150.875 404.699 135.65 419.2 130.815C418.202 133.361 418.258 133.891 416.2 136.016C405.114 147.462 393.755 158.642 382.65 170.07C368.573 184.557 365.669 193.16 363.6 213.625C351.568 190.432 370.513 176.831 385.55 161.219ZM375 196.423C379.804 182.74 391.368 174.393 400.6 163.819C407.274 156.175 419.584 133.199 434.4 132.416C423.832 144.453 414.847 157.805 405.65 170.92C392.891 189.115 381.996 199.787 384.4 223.226C372.855 219.688 371.514 206.354 375 196.423ZM458.95 149.818C458.868 155.758 458.932 161.737 458.1 167.62C455.477 186.157 452.26 204.616 448.6 222.976C447.635 227.819 443.377 235.278 438.8 237.428C427.49 242.739 400.199 233.163 395 221.426C393.547 218.145 393.931 206.101 394.562 202.549C395.386 197.911 402.428 186.801 403.45 185.322C414.379 169.501 425.603 146.38 443 136.616C449.435 133.004 459.052 142.451 458.95 149.818ZM460 225.026C461.067 216.248 461.212 207.381 462 198.573C463.901 177.316 464.4 160.988 464.4 140.817C474.816 145.504 477.26 155.22 478.4 166.62C480.963 192.251 491.067 255.354 444.8 244.029C448.101 240.668 459.126 232.211 460 225.026ZM481.4 146.017C485.39 152.716 487.721 160.294 490.25 167.67C495.419 182.741 515.133 227.247 485.6 236.028C495.536 206.11 485.788 176.918 481.4 146.017ZM627.6 168.02C628.152 162.694 629.845 161.416 626 159.219C634.704 158.82 634.168 164.954 627.6 168.02ZM704 202.424C699 184.222 699 184.222 694 166.02C730.005 155.731 715.301 174.224 704 202.424ZM730 163.219C749.63 168.549 747.689 165.884 748.4 186.022C742.749 188.22 736.687 189.169 730.8 190.622C742.4 196.923 742.4 196.923 754 203.224C758.33 190.651 762.454 177.914 768.4 166.02C770.254 166.797 773.763 168.057 773.837 170.308C774.18 180.612 767.207 191.157 770.2 201.024C772.511 208.642 772.451 196.717 773.55 205.087C774.563 212.802 773.031 222.667 769.502 229.609C766.944 234.64 752.295 233.152 745.4 240.978C746.933 212.488 745.562 200.259 715.6 198.423C723.835 186.07 738.126 178.892 730 163.219ZM266 170.02C267.996 172.657 267.465 171.1 267.15 174.821C265.575 175.221 265.575 175.221 264 175.621C264.219 179.996 263.25 180.11 259.2 181.621C262.6 175.821 262.6 175.821 266 170.02ZM500.8 172.82C510.609 175.021 518.474 177.368 523.2 186.822C511.864 187.924 504.6 182.7 500.8 172.82ZM591.2 172.82C595.931 174.831 598.812 178.672 592.4 180.421C591.8 176.621 591.8 176.621 591.2 172.82ZM597.6 172.82C600.437 174.257 605.387 178.563 599.1 179.471C598.091 175.363 598.602 177.579 597.6 172.82ZM280.7 175.071C280.75 176.146 280.75 176.146 280.8 177.221C291.987 177.863 289.286 183.333 284 190.822C294.662 193.177 283.582 196.936 283.3 196.273C279.873 188.222 282.201 185.818 273.6 181.421C274.6 180.321 274.6 180.321 275.6 179.221C272.8 179.221 272.8 179.221 270 179.221C272.56 176.763 277.153 174.879 280.7 175.071ZM589.6 174.421C589.6 177.821 589.6 177.821 589.6 181.221C583.074 180.677 582.647 175.153 589.6 174.421ZM343.462 186.234C342.515 189.885 329.458 178.066 328 176.821C326.582 175.61 345.53 178.268 343.462 186.234ZM583.75 181.371C582.723 186.506 578.103 181.602 578 178.821C577.835 174.377 584.319 178.528 583.75 181.371ZM337.475 192.26C332.241 193.584 326.165 187.246 324.6 182.421C330.228 179.205 337.221 187.189 337.475 192.26ZM107.6 181.621C110.949 183.661 114.613 185.475 117.2 188.422C111.996 189.801 108.264 191.222 103.2 191.222C105.4 186.422 105.4 186.422 107.6 181.621ZM127.2 189.622C127.804 183.579 127.017 185.812 128.4 182.621C136.116 186.09 131.123 188.029 127.2 189.622ZM121.114 195.899C121.401 192.029 119.925 187.723 121.7 184.272C127.611 190.638 128.432 199.741 129.2 208.024C125.2 208.024 125.2 208.024 121.2 208.024C121.2 207.024 121.2 207.024 121.2 206.024C117.373 208.441 116.175 212.239 115.2 216.425C123.871 216.599 128.696 225.543 136.15 214.775C140.337 208.727 126.117 199.666 134.15 197.523C145.545 194.484 138.846 225.279 128.6 229.427C114.692 235.057 102.734 221.884 92.4 215.225C96.8782 212.053 93.8227 211.093 89.8 208.625C97.1972 195.061 102.381 193.983 116.8 193.623C112.49 198.768 103.362 198.1 104 205.624C108.521 204.438 120.562 203.346 121.114 195.899ZM602 187.222C600.971 196.382 582.157 202.814 578.4 193.223C586.845 192.167 592.983 187.222 602 187.222ZM508.8 189.622C517.082 190.151 515.319 197.081 510.8 201.224C509.542 197.575 509.323 193.411 508.8 189.622ZM508.113 240.366C514.556 227.379 518.908 193.681 531.2 191.222C524.51 211.852 515.4 231.84 508.337 252.455C501.558 252.211 506.615 243.384 508.113 240.366ZM526.15 226.277C529.147 212.03 527.32 200.668 540 193.623C536.339 206.86 532.059 249.946 519.2 251.63C520.981 242.972 524.339 234.883 526.15 226.277ZM562.2 214.125C564.999 234.48 571.318 250.065 566 270.032C562.091 267.364 558.982 263.681 555.45 260.531C547.825 253.73 533.542 255.172 536.55 242.779C537.837 237.476 540.059 232.401 541 227.027C543.04 215.373 539.674 205.271 548.4 196.823C561.04 196.11 561.266 207.331 562.2 214.125ZM297.6 195.623C296.868 200.931 296.2 202.787 296.2 207.824C288.32 204.187 289.389 196.855 297.6 195.623ZM203.2 203.624C199.014 202.115 197.728 202.432 198.3 198.211C204.169 197.559 203.383 199.866 203.2 203.624ZM346 198.623C345.061 201.61 345.445 204.519 345.6 207.624C341.2 207.024 341.2 207.024 336.8 206.424C338.223 201.205 340.32 197.955 346 198.623ZM627.2 198.423C631.455 200.27 634.824 201.319 636 206.024C632.2 206.624 632.2 206.624 628.4 207.224C631.033 209.404 634.722 209.859 638 210.825C635.081 212.771 632.002 211.819 630.8 215.425C636.6 217.326 636.6 217.326 642.4 219.226C642.074 211.362 639.738 208.774 640 201.224C644.2 204.624 644.2 204.624 648.4 208.024C644.959 212.957 647.431 221.039 647.6 226.027C644.8 224.826 644.8 224.826 642 223.626C648.295 233.312 650.116 229.821 650.8 219.626C658.8 221.126 657.023 225.469 657.2 233.627C655.6 233.627 655.6 233.627 654 233.627C654 232.027 654 232.027 654 230.427C648.62 232.676 647.21 232.129 642 229.227C643.276 238.796 646.959 241.333 654.8 236.028C655.327 253.077 640.811 241.757 632.8 234.828C635.2 240.828 635.2 240.828 637.6 246.829C633.666 247.95 629.74 249.55 625.65 249.617C622.955 235.658 623.481 232.441 622.6 217.676C622.394 214.214 618.455 209.337 617.6 205.624C620.815 208.285 618.744 206.276 622.4 212.825C626.214 207.338 627.2 204.788 627.2 198.423ZM193.6 198.823C193.6 200.224 193.6 200.224 193.6 201.624C195.2 201.424 195.2 201.424 196.8 201.224C195.6 204.424 195.6 204.424 194.4 207.624C191.455 204.679 193.538 206.933 189.2 200.024C191.643 198.802 190.21 199.308 193.6 198.823ZM610 220.026C603.081 220.026 594.297 226.067 587.55 222.726C576.143 217.078 590.232 205.222 595.4 203.024C607.94 200.022 608.381 215.04 610 220.026ZM232 202.824C228.162 208.694 216.551 211.156 211.85 213.225C203.973 216.692 196.217 220.426 188.4 224.026C198.269 212.338 217.298 204.811 232 202.824ZM183.2 203.624C188.261 204.749 188.945 206.714 190.8 211.625C184.789 211.625 182.247 209.816 183.2 203.624ZM253.2 212.375C255.656 216.572 254.473 222.798 253.6 227.227C256.2 225.627 256.2 225.627 258.8 224.026C259.5 226.202 259.5 226.202 260.2 228.377C258.1 228.602 258.1 228.602 256 228.827C271.373 246.981 219.572 264.031 230 234.828C228.6 234.828 228.6 234.828 227.2 234.828C227.995 229.114 228.436 227.663 224.4 223.626C228.6 221.026 228.6 221.026 232.8 218.426C232.8 221.426 232.8 221.426 232.8 224.426C238 223.726 238 223.726 243.2 223.026C241.104 219.831 237.721 217.689 234.8 215.225C240.084 215.529 241.321 215.31 245.2 218.026C240.913 212.513 240.728 214.129 232.8 214.025C236.039 208.159 249.1 205.371 253.2 212.375ZM178 215.225C178.459 210.507 177.331 212.269 181.2 209.825C185.878 213.653 182.328 214.648 178 215.225ZM578.5 253.03C578.5 238.322 568 225.115 568 209.625C570.945 212.294 571.52 216.801 572.6 220.626C575.554 231.085 578.392 241.579 581 252.13C584.014 264.321 583.62 275.445 570.6 278.408C570.863 270.136 578.5 262.653 578.5 253.03ZM226.8 212.025C225.679 215.285 222.74 217.043 219.8 218.626C206.415 225.832 195.586 231.299 184 240.428C188.174 223.941 212.2 215.919 226.8 212.025ZM335.45 217.226C324.113 228.221 315.243 232.62 310.1 248.679C307.826 255.779 306.404 263.813 305.45 271.182C305.054 274.236 306.578 279.449 303.6 280.233C293.443 282.906 296.112 260.76 296.8 256.63C299.86 238.269 312.253 226.982 328 218.626C334.1 216.951 334.1 216.951 335.45 217.226ZM90.4 216.825C99.2963 222.529 106.303 226.815 112.6 235.228C104.357 239.35 96.7118 244.409 88.4 248.429C88.2344 237.997 86.6599 226.8 90.4 216.825ZM705.6 226.827C706.45 225.051 706.45 225.051 707.3 223.276C714.14 233.537 693.645 247.403 712.712 252.467C716.995 253.604 722.365 253.753 726.8 254.03C724.629 262.57 712.733 263.755 705.6 266.431C707 263.031 707 263.031 708.4 259.631C703.449 260.99 696.767 261.956 697.2 255.23C695 256.63 695 256.63 692.8 258.03C694.6 250.229 694.6 250.229 696.4 242.429C694.6 242.429 694.6 242.429 692.8 242.429C693.6 240.228 693.6 240.228 694.4 238.028C693.4 238.028 693.4 238.028 692.4 238.028C692.4 235.028 692.4 235.028 692.4 232.027C688.045 232.027 686.774 231.712 686.4 227.227C698.123 226.733 702.674 226.669 692.2 219.226C700.311 218.873 701.783 219.678 705.6 226.827ZM778 221.226C778.2 224.626 778.2 224.626 778.4 228.027C777 227.827 777 227.827 775.6 227.627C776.947 223.315 776.152 225.451 778 221.226ZM346.4 224.426C341.862 231.184 336.446 237.314 331.7 243.929C326.036 251.823 322.804 260.676 321.25 270.232C320.459 275.094 323.033 282.728 318.546 284.761C310.427 288.441 313.453 268.323 315.3 259.13C318.397 243.719 327.068 230.652 341.2 224.026C345.025 223.926 345.025 223.926 346.4 224.426ZM365.2 290.034C361.219 294.166 337.6 287.114 330.8 286.834C331.402 265.537 337.087 237.856 356.8 226.027C393.778 219.373 377.045 277.74 365.2 290.034ZM219.2 252.03C211.033 257.452 175.24 262.956 190.8 244.029C195.54 238.263 202.031 234.24 208.4 230.627C228.633 219.149 225.974 247.532 219.2 252.03ZM614.4 235.828C612.523 241.147 599.786 241.636 596 238.828C593.336 236.853 592.325 232.922 591.2 230.027C595.64 229.604 599.535 228.947 603.8 227.627C612.062 225.589 616.157 230.849 614.4 235.828ZM381.8 280.033C388.637 263.165 390.658 248.211 387.2 230.427C416.662 232.723 407.348 281.749 392.8 295.835C388.414 300.081 379.881 301.804 374.4 304.836C369.362 294.398 377.665 290.234 381.8 280.033ZM762.4 237.628C768.92 238.559 767.076 239.039 768 246.429C761.73 245.906 762.4 243.271 762.4 237.628ZM123.2 241.228C117.442 249.456 104.601 248.885 95 251.83C99.4158 247.983 118.859 236.886 123.2 241.228ZM756.2 240.828C760.604 243.764 760.67 246.086 761.2 251.23C755.848 248.553 753.732 246.824 756.2 240.828ZM133.825 244.041C127.943 253.003 109.31 254.408 99.6 254.83C107.931 249.929 123.713 240.14 133.825 244.041ZM413.6 242.829C416.418 245.47 420.221 248.037 421.575 251.942C425.316 262.735 419.71 290.834 405.6 290.834C414.817 272.251 414.914 263.861 413.6 242.829ZM430.8 245.629C441.175 248.223 439.587 254.397 432.05 260.131C430.989 249.769 431.379 254.605 430.8 245.629ZM631.2 254.03C634.776 252.327 632.557 253.251 638 251.63C658.703 249.173 640.023 260.432 631.2 254.03ZM469.6 272.282C465.441 279.5 465.994 295.159 458.863 299.385C445.281 307.435 448.34 287.78 450.1 281.983C453.939 269.334 462.218 258.308 474.2 253.63C495.457 245.331 473.199 266.035 469.6 272.282ZM95.5125 263.318C103.362 260.498 125.776 253.395 134 253.03C136.424 252.922 152.579 262.355 142.8 262.831C146.245 277.784 154.231 287.57 161.2 300.835C148.272 296.857 100.259 280.315 110 260.831C90.5867 266.126 105.775 299.635 112.2 309.986C116.283 316.566 120.867 322.821 125.2 329.239C115.858 329.464 106.512 329.535 97.175 329.914C93.867 330.048 89.7499 337.918 89 338.64C86.9159 340.647 83.7386 335.789 82.05 333.439C78.5334 328.546 77.2621 320.129 76.75 314.887C76.2427 309.693 76.5167 304.452 76.4 299.235C80.6 305.836 80.6 305.836 84.8 312.437C89.8353 296.942 89.9121 287.364 86.8 271.632C92.283 271.632 90.8626 264.989 95.5125 263.318ZM267.6 252.83C266.199 261.559 253.835 258.96 246.8 259.23C250.056 253.079 261.483 252.83 267.6 252.83ZM175 281.133C174.466 284.468 178.565 294.771 172 294.435C162.519 293.948 151.217 249.582 166 258.03C166.6 256.63 166.6 256.63 167.2 255.23C185.85 255.835 176.223 273.489 175 281.133ZM758.8 270.032C755.714 270.003 721.804 269.972 743.6 257.43C756.142 253.727 758.8 263.983 758.8 270.032ZM452.113 256.493C452.218 261.806 442.751 280.987 434.8 282.433C435.949 270.371 440.519 261.295 452.113 256.493ZM664 264.031C662.671 259.418 660.225 258.472 663.4 256.83C674.449 251.118 667.272 275.389 664 264.031ZM235.2 256.43C235.4 258.43 235.4 258.43 235.6 260.431C237.6 260.431 237.6 260.431 239.6 260.431C235.724 268.183 227.686 261.69 235.2 256.43ZM560.6 308.836C557.539 319.449 548.493 326.704 540 332.839C541.493 324.965 544.831 317.552 547 309.836C552.584 289.974 543.125 271.446 530 258.23C552.7 261.208 567.151 286.123 560.6 308.836ZM618.4 257.63C621.612 258.331 621.889 260.269 622.8 263.231C620.675 261.765 619.75 259.825 618.4 257.63ZM642.8 258.43C641.634 265.428 633.439 264.702 630.4 259.23C633.993 256.535 638.413 258.119 642.8 258.43ZM76.4 258.83C83.5504 264.976 81.2838 261.962 84.4 266.831C80.4 266.831 80.4 266.831 76.4 266.831C76.4 262.831 76.4 262.831 76.4 258.83ZM489.6 336.04C486.677 321.07 480.925 313.366 470.55 302.886C463.501 295.765 485.008 265.475 492 260.231C535.234 261.019 514.936 325.846 489.6 336.04ZM731.812 266.556C724.513 270.996 715.056 269.907 706.65 271.432C711.558 268.29 716.297 266.406 721.8 264.431C729.839 262.227 735.979 264.022 731.812 266.556ZM522 263.631C523.614 261.614 531.037 271.071 531.45 271.732C537.704 281.739 539.836 297.129 536.038 308.361C534.216 313.747 532.285 319.097 530.237 324.401C529.469 326.39 527.323 328.043 525.174 328.113C521.049 328.246 518.472 325.389 519.75 321.338C526.119 301.145 528.539 289.853 523.6 269.032C523.167 267.205 520.827 265.097 522 263.631ZM228.4 264.831C224.089 272.458 219.798 274.306 211.6 274.432C216.628 269.247 221.077 265.958 228.4 264.831ZM231.2 268.432C231.2 275.071 228.742 281.646 221.6 283.233C223.438 276.407 223.909 270.515 231.2 268.432ZM735.2 269.632C734.14 277.808 712.841 276.399 708 276.833C713.598 270.115 727.14 269.632 735.2 269.632ZM77.6 271.632C84.8991 273.745 82.8 287.658 82.8 292.834C75.0715 285.105 77.6 281.536 77.6 271.632ZM667.363 273.395C668.713 273.574 670.063 273.771 671.4 274.032C672.727 274.292 674.08 274.492 675.35 274.957C699.069 283.65 649.434 285.656 660.8 273.432C663.423 270.611 663.691 272.907 667.363 273.395ZM252.8 280.033C255 279.233 255 279.233 257.2 278.433C256.134 291.09 249.257 281.04 250 273.232C254.318 274.017 253.607 276.267 252.8 280.033ZM192.6 274.632C193.494 278.209 189.916 280.517 187.6 282.833C184.533 278.16 188.408 276.112 192.6 274.632ZM194.8 276.032C199.821 276.66 201.27 277.322 202 282.433C195.443 282.883 194.8 282.167 194.8 276.032ZM248 282.833C243.076 282.481 242.085 281.669 242.4 276.633C247.677 276.015 246.945 277.61 248 282.833ZM721 320.5C719.196 312.032 704.395 303.199 706.35 292.334C706.969 288.895 706.526 283.656 709.8 282.433C714.163 280.804 718.85 280.224 723.4 279.233C728.08 278.214 733.655 274.317 737.6 277.033C739.7 278.478 749.324 290.535 751.2 292.834C747.835 292.354 744.97 290.088 742 288.434C751.019 310.378 776.899 319.78 778 344.44C764.775 340.225 752.77 335.298 738.7 333.489C734.37 332.933 724.876 335.659 724.4 329.639C722.4 329.639 722.4 329.639 720.4 329.639C720.6 326.593 721.636 323.486 721 320.5ZM267.8 285.434C272.772 281.108 288.75 273.34 292 282.433C267.289 289.33 261.726 317.725 262.8 339.64C247.874 325.452 252.838 298.45 267.8 285.434ZM571.762 312.624C576.788 302.461 574.427 285.422 586.4 280.433C581.399 292.568 575.779 334.789 561.6 335.239C562.263 325.214 567.432 321.382 571.762 312.624ZM577.984 339.843C573.36 335.293 581.381 327.32 583 321.038C586.379 307.927 584.859 292.136 595.4 281.833C599.791 277.541 606.196 282.486 607.2 287.234C609.69 299.004 607.841 311.3 608.85 323.288C609.58 331.96 617.147 343.106 611.037 349.304C606.91 353.491 595.889 355.844 598.1 361.292C599.014 363.544 601.498 364.643 603.8 363.743C613.707 359.866 639.817 342.873 648.4 360.042C624.809 352.817 610.613 365.58 592.4 379.645C600.272 363.673 589.196 350.876 577.984 339.843ZM627.2 293.435C626.411 288.595 622.482 284.659 620.8 280.033C626.968 282.873 630.117 289.458 631 296.235C633.777 317.561 632.814 324.745 637.6 343.24C623.286 338.469 628.513 301.494 627.2 293.435ZM112.8 280.433C118.033 283.45 123.164 286.652 128.5 289.484C141.012 296.124 156.957 299.622 166.4 310.837C149.772 305.939 118.689 301.047 112.8 280.433ZM612.4 282.833C616.848 285.361 619.2 289.874 619.837 294.96C621.314 306.742 622.533 318.555 624 330.339C624.732 336.213 630.004 344.07 622.8 346.841C615.224 325.858 617.462 304.21 612.4 282.833ZM243.6 292.634C239.064 294.437 239.75 286.948 243.4 286.234C248.589 285.218 247.713 290.999 243.6 292.634ZM249.6 286.434C253.185 288.425 252.956 290.14 252.4 294.035C247.754 292.767 248.538 290.684 249.6 286.434ZM438 286.434C426.933 310.375 435.126 296.234 441.2 311.637C431.8 309.636 431.8 309.636 422.4 307.636C425.583 298.881 428.13 288.49 438 286.434ZM300 288.634C281.602 311.363 277.115 315.231 274.8 345.241C260.97 327.952 277.329 289.665 300 288.634ZM663.6 288.034C678.136 288.445 682.07 303.761 675.512 315.712C666.901 312.299 665.555 302.066 666.4 294.035C665 294.035 665 294.035 663.6 294.035C663.6 291.034 663.6 291.034 663.6 288.034ZM326.8 319.638C307.6 315.837 307.6 315.837 288.4 312.037C305.671 285.377 326.134 283.501 326.8 319.638ZM118.4 294.035C139.76 307.87 177.553 312.539 190 335.839C194.918 345.047 190.553 359.708 179.4 362.043C166.287 364.788 129.48 352.381 121.2 341.24C129.35 341.34 137.51 341.121 145.65 341.54C153.837 341.962 168.331 346.909 175.6 339.64C171.556 340.696 163.544 344.128 161 339.04C165.236 334.803 173.015 337.013 176 331.639C147.648 337.842 128.684 319.747 118.4 294.035ZM418 299.235C416.8 301.936 416.8 301.936 415.6 304.636C410.867 302.341 405.267 299.222 402.4 294.635C410.2 296.935 410.2 296.935 418 299.235ZM349.6 325.638C333.296 321.984 336.394 310.011 332.8 295.635C350.035 298.22 349.6 310.186 349.6 325.638ZM222.4 304.836C222.235 296.892 220.58 299.359 223.8 296.035C231.897 295.604 226.57 304.002 222.4 304.836ZM226.8 307.636C227.308 305.606 227.869 304.474 229.2 302.836C239.461 300.901 232.881 307.636 226.8 307.636ZM186.4 304.036C183.563 310.521 185.791 310.368 192.4 310.837C190.186 325.202 172.087 299.264 186.4 304.036ZM412.087 310.236C402.441 315.85 392.941 324.177 392 336.04C347.734 332.509 402.69 285.173 412.087 310.236ZM222.2 306.236C219.345 310.439 213.791 310.092 214.8 304.036C218.675 303.519 219.212 303.683 222.2 306.236ZM360 304.836C369.287 306.9 370.649 329.239 360 329.239C360 317.037 360 317.037 360 304.836ZM470.35 313.437C483.601 327.142 481.53 342.865 480.4 360.442C466.95 357.666 473.526 341.424 471.6 330.239C469.344 317.135 458.782 312.71 447.4 310.036C450.743 302.514 466.265 309.212 470.35 313.437ZM719.75 366.168C714.292 364.054 718.357 363.105 716.4 358.892C708.823 342.582 694.552 325.873 705.2 307.236C712.431 334.204 739.995 347.826 757.6 367.693C761.476 372.068 767.76 382.041 769.937 387.346C770.559 388.859 771.255 405.329 766.8 396.447C763.778 390.423 762.078 383.61 758 378.244C755.678 383.746 757.112 390.18 756 396.047C755.378 399.33 741.772 401.588 738.2 402.247C732.347 403.327 726.333 403.181 720.4 403.647C720.296 397.606 714.85 391.228 709.2 393.246C712.6 380.245 712.6 380.245 716 367.243C725.638 371.652 732.683 372.911 741.6 366.843C730.081 369.554 731.798 370.836 719.75 366.168ZM686.8 308.436C689.31 318.707 692.155 328.777 689.6 339.24C691.2 339.64 691.2 339.64 692.8 340.04C693.244 337.765 693.244 337.765 693.688 335.489C695.044 339.365 695.044 339.365 696.4 343.24C696.4 341.44 696.4 341.44 696.4 339.64C700.169 344.961 702.428 351.086 705 357.042C700.518 359.652 697.757 363.177 693.2 360.442C693.2 361.843 693.2 361.843 693.2 363.243C683.944 361.058 676.857 354.554 675.6 344.841C680.6 347.141 680.6 347.141 685.6 349.441C683.395 345.399 678.897 344.905 675.85 341.64C669.032 334.334 664.741 327.244 664 317.237C668.283 321.471 672.433 325.845 676.85 329.939C681.184 333.956 680.825 331.802 687.2 329.239C683.4 329.439 683.4 329.439 679.6 329.639C681.879 322.531 684.281 315.462 686.8 308.436ZM221.2 317.437C215.325 318.395 216.81 311.491 220.6 310.036C227.921 307.226 224.14 316.958 221.2 317.437ZM233 312.837C232.92 320.453 226.215 315.395 226 310.637C225.808 306.383 233.024 310.546 233 312.837ZM245.6 312.837C244.802 318.427 245.386 315.677 243.85 321.088C236.988 319.041 239.481 313.308 245.6 312.837ZM440.2 323.238C444.359 331.441 441.535 341.05 441.2 349.641C420.6 343.84 420.6 343.84 400 338.04C405.271 322.116 428.223 299.614 440.2 323.238ZM464.8 355.642C456.8 353.642 456.8 353.642 448.8 351.641C452.309 335.951 443.718 330.775 442.6 316.237C468.337 306.227 466.452 341.875 464.8 355.642ZM655.2 335.639C649.258 333.262 645.052 328.39 642.8 322.438C647.416 321.284 653.9 331.521 655.2 335.639ZM245.6 323.238C243.207 330.54 237.624 332.724 238.463 323.863C242.875 323.138 242.875 323.138 245.6 323.238ZM378.55 345.591C410.412 353.71 442.71 360.126 474.4 368.893C521.877 382.028 568.9 396.763 615.975 411.273C618.961 412.194 619.945 418.182 615.6 417.649C608.205 416.743 600.904 415.026 593.75 412.949C562.082 403.752 530.583 393.969 499.2 383.845C458.019 370.56 416.619 359.897 374.6 349.091C352.224 343.337 329.505 338.981 307.1 333.339C298.502 331.174 287.914 327.579 294.6 326.238C323.039 320.536 350.875 338.538 378.55 345.591ZM222.125 328.526C222.313 332.155 221.295 332.636 218.312 334.689C217.575 332.361 217.29 330.981 218 328.639C220.062 328.582 220.062 328.582 222.125 328.526ZM208.8 329.639C213.8 329.996 214.726 331.261 216 336.04C210.445 336.488 209.273 334.842 208.8 329.639ZM523.2 335.839C522.683 336.506 522.227 337.224 521.65 337.84C512.155 347.968 508.36 351.927 504.062 364.168C503.724 365.132 502.461 365.786 501.562 365.968C481.797 369.979 499.224 340.782 506.6 336.04C512.858 334.724 518.435 334.516 523.2 335.839ZM228.4 335.239C228.4 338.24 228.4 338.24 228.4 341.24C225.2 340.64 225.2 340.64 222 340.04C224.496 357.511 210.737 340.028 221.2 339.24C220.398 337.1 220.637 338.208 220.487 335.914C224.199 334.703 221.632 335.349 228.4 335.239ZM285.25 356.592C286.282 351.132 288.085 335.649 297.2 336.44C287.925 372.269 287.925 372.269 278.65 408.098C276.125 407.773 276.125 407.773 273.6 407.448C271.822 390.553 282.137 373.059 285.25 356.592ZM216 337.24C212.945 354.043 206.064 342.83 212.2 338.64C215.15 337.415 215.15 337.415 216 337.24ZM112.8 357.642C106.322 354.593 96.9824 349.928 100 341.44C110.086 339.497 112.395 351.169 112.8 357.642ZM235.2 339.64C234.851 349.065 233.747 350.603 224.4 352.041C224.529 348.828 225.163 350.048 222.8 348.241C226.279 344.762 230.742 341.714 235.2 339.64ZM521.3 347.991C530.78 336.534 547.58 339.521 550.2 355.242C551.525 363.192 549.981 370.05 548.8 378.044C529.8 373.844 529.8 373.844 510.8 369.643C513.637 362.868 516.318 354.012 521.3 347.991ZM778.4 350.841C773.543 348.489 768.375 346.6 764 343.44C770.29 343.828 778.189 343.241 778.4 350.841ZM554.4 345.241C569.485 350.898 574.894 386.961 557.2 382.045C560.748 369.272 557.286 357.988 554.4 345.241ZM575.6 387.646C577.084 369.033 576.174 363.79 570 347.641C586.412 347.641 591.544 383.659 575.6 387.646ZM777.8 382.845C772.084 369.984 761.094 360.673 755.2 348.041C783.292 351.54 778.532 355.409 777.8 382.845ZM39 355.042C47.9283 346.112 84.3041 344.832 90.4 353.842C92.6359 357.146 91.8862 361.686 92.4 365.643C73.9935 362.837 73.3486 363.896 64 380.045C61.9728 373.557 65.1874 370.203 64 364.043C57.7959 367.364 56.3803 371.616 54.6 378.144C50.3316 371.741 58.2302 368.67 55.4 362.443C47.8454 364.568 47.5163 371.551 46.3125 378.157C37.5318 376.137 45.7128 364.631 46.8 359.642C40.214 362.682 38.4686 367.095 37.6 374.044C30.2273 372.201 35.5577 358.484 39 355.042ZM270.8 348.441C255.729 368.834 249.732 377.372 250.2 402.647C231.186 393.699 251.259 348.685 270.8 348.441ZM234.9 363.643C237.37 359.32 245.574 348.051 251.6 351.241C245.724 361.099 236.674 369.781 235.8 381.845C235.365 387.854 237.737 393.764 236.4 399.647C228.137 389.467 228.406 375.008 234.9 363.643ZM117.2 367.243C112.547 364.532 104.35 361.539 101.6 355.842C107.897 359.317 113.612 361.181 117.2 367.243ZM200.4 356.042C222.448 368.445 217.331 381.597 194.862 388.946C188.963 390.875 183.376 395.467 177.2 394.846C162.851 393.404 149.653 386.288 136 381.645C149.866 379.408 163.565 385.587 177.6 388.446C176.048 379.911 161.712 384.303 154.8 379.645C169.868 378.521 195.733 373.156 200.4 356.042ZM277.6 356.042C273.008 372.881 268.723 389.877 263.2 406.448C255.141 389.88 257.705 363.695 277.6 356.042ZM124.8 358.042C131.822 360.756 139.216 362.853 145.6 366.843C134.634 370.831 128.749 368.312 124.8 358.042ZM654.4 358.442C658.82 361.129 659.025 362.758 659.6 367.643C653.853 367.164 654.623 363.348 654.4 358.442ZM100.8 359.242C109.891 364.724 115.794 367.483 121.2 376.044C105.157 375.903 103.348 374.531 100.8 359.242ZM390 360.042C386.903 374.578 385.039 382.14 372.8 390.446C375.355 380.956 376.087 358.777 390 360.042ZM650.4 369.643C642.235 370.709 599.315 379.588 612.2 393.646C617.2 390.079 622.09 386.352 627.2 382.945C630.713 380.602 636.633 377.484 640.8 376.144C657.876 370.655 665.006 391.137 655.15 403.197C650.842 408.468 647.004 416.517 640.225 417.137C624.584 418.566 632.174 406.678 621.266 402.223C612.058 398.462 602.455 395.575 593.6 391.046C600.227 374.003 635.897 352.566 650.4 369.643ZM24.8 363.643C29.3623 366.773 30.5295 373.217 34.35 377.219C44.59 387.947 58.7801 385.363 71.2 382.845C71.2 380.745 71.2 380.745 71.2 378.645C86 383.145 86 383.145 100.8 387.646C92.9 397.163 84.6742 406.42 77.1 416.199C65.7147 430.899 48.9701 457.099 65.6 474.856C80.5528 490.822 96.977 505.354 112.15 521.111C114.496 523.548 115.018 527.902 118.075 529.35C124.343 532.317 132.478 530.037 138.45 533.563C146.022 538.033 147.306 543.304 149.2 549.665C131.931 549.566 117.461 547.649 110.95 566.317C137.106 574.662 163.909 578.818 191.1 571.742C190.409 556.434 182.07 542.353 175.6 528.462C181.4 527.662 181.4 527.662 187.2 526.862C178.249 502.342 146.024 489.152 163.7 461.404C171.507 449.149 173.669 448.088 183.2 439.252C188.083 459.077 188.383 481.468 200.25 498.084C211.062 513.222 231.444 518.4 246.4 529.462C251.141 532.969 252.995 540.104 258.4 542.464C263.413 544.653 269.966 539.304 274.8 541.864C280.245 544.747 282 551.865 285.6 556.865C270.687 560.22 244.746 561.663 247.6 582.068C136 582.068 136 582.068 24.4 582.068C24.6 472.856 24.6 472.856 24.8 363.643ZM311.2 370.444C308.814 375.215 295.094 377.27 306.675 382.37C311.175 384.352 315.725 386.22 320.25 388.146C306.791 391.429 281.217 373.546 311.2 370.444ZM705.6 372.044C704.268 386.252 701.335 401.698 698.9 415.949C693.616 414.544 692.418 387.077 694.2 381.045C695.3 381.345 695.3 381.345 696.4 381.645C696.4 379.845 696.4 379.845 696.4 378.044C694.6 377.944 694.6 377.944 692.8 377.844C696.433 375.149 701.178 373 705.6 372.044ZM663.325 372.219C664.462 374.932 664.462 374.932 665.6 377.644C663.005 375.757 662.523 375.313 663.325 372.219ZM665.2 385.645C666.086 384.195 667.938 387.718 669 389.046C671.723 392.45 671.351 396.461 671.2 400.647C670.807 411.538 667.778 424.243 654.737 421.487C652.837 421.085 653.526 419.65 654 418.349C658.03 407.292 664.012 402.589 665 390.846C665.145 389.117 664.295 387.126 665.2 385.645ZM430.8 388.446C430.8 417.449 430.8 417.449 430.8 446.452C421.405 442.949 394.332 415.693 392.8 404.048C405.372 398.621 418.041 393.416 430.8 388.446ZM447.2 390.046C460.636 392.286 475.377 396.083 485 406.448C473.359 421 460.345 434.858 446.8 447.653C447 418.849 447 418.849 447.2 390.046ZM121.2 394.046C133.8 397.447 133.8 397.447 146.4 400.847C140.649 402.696 133.201 403.047 128 405.648C124.6 399.847 124.6 399.847 121.2 394.046ZM517.2 394.446C526.204 396.698 525.045 403.314 521.4 411.248C516.616 405.438 516.607 401.859 517.2 394.446ZM280 424.45C269.467 421.778 255.157 419.893 246 412.849C253.869 412.849 278.882 415.505 280 424.45ZM717.2 414.649C725.365 430.98 735.869 448.932 720 463.254C720 458.001 722.133 454.689 720.9 449.053C718.51 438.124 711.391 427.311 712 416.049C713.699 419.012 715.086 423.226 718.4 424.05C717.8 419.349 717.8 419.349 717.2 414.649ZM500.4 418.449C508.479 432.365 517.886 445.685 519.2 462.054C489.6 462.254 489.6 462.254 460 462.454C472.707 447.127 486.761 432.942 500.4 418.449ZM376.4 418.849C390.308 433.217 404.205 447.607 417.6 462.454C387.4 462.454 387.4 462.454 357.2 462.454C360.629 446.422 366.643 432.092 376.4 418.849ZM298.2 425.05C294.235 430.149 288.902 426.78 284 424.45C284.1 423.65 284.1 423.65 284.2 422.85C288.802 422.74 293.899 423.377 298.2 425.05ZM601.65 474.556C603.195 467.136 605.05 459.782 606.55 452.353C608.234 444.011 609.391 435.566 611.2 427.25C611.704 424.935 616.425 424.573 618 424.45C613.463 446.167 606.4 469.038 606.4 491.258C597.119 489.551 600.026 482.358 601.65 474.556ZM638.4 468.255C641.565 453.806 637.186 441.957 635.2 428.05C665.863 440.387 660.939 494.803 627.2 497.659C630.344 487.665 636.172 478.428 638.4 468.255ZM584.4 440.052C574.2 438.452 574.2 438.452 564 436.851C564 452.645 569.603 453.642 585.1 456.354C588.772 456.996 593.364 456.218 596 458.854C585.636 457.929 573.764 451.858 564.4 457.654C574.05 460.604 583.844 463.119 593.35 466.505C593.843 466.68 593.517 467.538 593.6 468.055C579.8 465.255 579.8 465.255 566 462.454C564.597 480.238 575.827 479.044 592 483.457C582.43 483.284 573.544 480.937 564 480.456C564.24 488.963 568.042 489.998 575.4 494.308C570.862 499.465 566.109 493.107 560.9 498.659C560.08 488.031 542.577 495.52 542 482.857C551.6 485.257 551.6 485.257 561.2 487.657C560.969 478.29 562.563 481.759 558.8 476.456C564.875 474.669 564.761 465.872 559.505 462.96C553.03 459.374 545.538 462.744 540.4 456.854C551.6 457.654 551.6 457.654 562.8 458.454C557.604 448.349 548.483 454.633 542 446.853C548.941 447.863 554.925 450.091 562 449.853C569.184 426.503 543.014 442.537 533.2 429.45C550.49 430.361 569.376 430.74 584.4 440.052ZM330.2 434.651C324.904 440.705 312.749 435.475 309 429.851C316.103 431.279 323.456 432.001 330.2 434.651ZM625 430.051C638.689 439.177 631.795 486.909 614.4 491.258C617.73 470.877 620.517 450.227 625 430.051ZM142.4 431.251C162.255 444.357 152.464 457.974 144 477.256C136.862 471.137 129.385 465.364 122.8 458.654C129.039 449.361 134.981 439.677 142.4 431.251ZM657.2 432.451C677.11 439.191 676.932 478.628 665.2 492.258C659.86 498.461 653.758 500.166 646 502.059C662.78 480.572 667.052 458.07 657.2 432.451ZM342.4 436.851C340.616 439.401 341.081 438.042 340.8 440.852C336.489 440.684 333.406 440.811 334.2 435.651C338.788 434.886 336.026 434.939 342.4 436.851ZM270.4 440.452C303.2 449.053 303.2 449.053 336 457.654C326.065 488.486 342.563 533.454 364.2 555.865C369.518 561.374 375.01 566.794 381.15 571.367C386.577 575.409 394.741 576.376 398.4 582.068C343.6 582.068 343.6 582.068 288.8 582.068C293.336 576.965 328.811 569.398 327.263 558.528C325.45 545.808 296.582 534.707 312.938 524.249C310.28 517.011 304.188 511.424 298.65 506.06C290.437 498.103 281.683 490.724 273.2 483.057C277.1 481.657 277.1 481.657 281 480.256C277.577 466.959 274.047 453.689 270.4 440.452ZM735.85 459.254C738.91 467.873 744.199 475.159 747.562 483.607C751.307 493.012 748.947 497.601 756 505.459C741.434 506.01 738.932 505.609 726.8 509.26C726.519 501.75 721.847 460.066 735.85 459.254ZM521.6 480.657C522.475 496.406 514.927 515.37 505 527.662C488.383 514.159 474.979 497.112 461.6 480.456C481.6 480.313 501.801 477.828 521.6 480.657ZM354.8 480.456C385.8 480.657 385.8 480.657 416.8 480.857C402.474 495.925 387.423 513.764 371 527.662C359.288 518.511 355.583 493.775 354.8 480.456ZM430 493.458C430.2 530.162 430.2 530.162 430.4 566.867C411.933 561.047 398.884 555.487 382.8 544.864C396.89 526.512 414.392 510.555 430 493.458ZM447.2 493.258C470.4 517.961 470.4 517.961 493.6 542.664C482.506 555.238 463.489 564.204 446.8 565.266C447 529.262 447 529.262 447.2 493.258ZM610.8 506.06C593.85 502.759 593.85 502.759 576.9 499.459C577.536 486.097 606.254 499.648 610.8 506.06ZM674.05 500.009C676.123 507.802 681.103 505.183 684 511.46C677.498 516.57 670.133 513.985 663.6 510.86C666.344 507.543 669.771 501.545 674.05 500.009ZM613.6 504.859C614.467 504.859 617.933 504.859 618.8 504.859C618.8 505.659 618.8 508.86 618.8 509.66C617.933 509.66 614.467 509.66 613.6 509.66C613.6 508.86 613.6 505.659 613.6 504.859ZM622.8 505.659C627.617 507.126 632.45 508.54 637.25 510.06C641.278 511.335 639.203 513.953 635.8 514.26C631.247 514.672 626.456 512.422 622.362 510.923C622.412 507.383 622.265 509.137 622.8 505.659ZM766.8 513.373C761.735 518.572 748.922 516.134 747.6 508.86C751.888 509.932 754.201 510.023 758.2 508.06C764.014 505.808 769.115 510.997 766.8 513.373ZM522.1 542.651C525.322 537.547 529.78 517.868 540.268 515.911C567.578 510.813 594.603 522.47 620.562 528.462C629.557 530.538 638.627 532.349 647.771 533.615C657.601 534.976 657.057 533.175 665.4 527.862C670.424 541.76 681.662 537.625 693.2 532.863C693.391 541.001 693.349 552.245 704.8 547.664C704.266 550.475 704.014 559.498 699.8 561.866C686.07 569.58 678.646 566.211 675.6 580.468C687.362 578.893 699.206 577.834 710.887 575.743C716.374 574.76 721.881 573.474 727 571.267C733.986 568.255 725.952 556.073 726 548.464C726.013 546.457 729.828 545.964 730 543.964C730.538 537.718 728.667 531.496 728 525.262C737.888 526.704 748.053 525.634 757.912 527.262C764.581 528.363 770.699 531.98 777.4 532.863C777.5 557.065 777.5 557.065 777.6 581.268C627 581.468 627 581.468 476.4 581.668C494.905 570.904 510.344 561.276 522.1 542.651ZM690.2 509.86C695.276 520.296 682.846 524.391 682.525 516.323C687.467 514.693 686.787 512.894 690.2 509.86ZM643.6 511.66C647.834 511.848 651.86 513.572 655.962 514.636C667.644 517.663 647.703 525.772 643 514.06C642.693 513.295 642.776 511.624 643.6 511.66ZM169.4 531.262C171.153 535.77 171.933 540.597 173.2 545.264C158.837 547.474 156.539 545.424 150.4 532.463C152.628 532.234 168.658 529.353 169.4 531.262ZM302.163 534.625C308.928 535.714 309.4 542.834 304.212 545.964C300.053 548.474 295.804 550.831 291.6 553.265C291.509 547.479 285.162 542.837 281.6 538.863C286.956 537.78 296.371 533.693 302.163 534.625ZM718.975 563.941C716.758 565.028 710.471 565.842 709.2 566.067C710.84 562.896 709.421 564.743 715.6 563.266C713.427 561.886 713.622 560.665 712.4 558.466C714 558.066 714 558.066 715.6 557.666C715.6 556.865 715.6 556.865 715.6 556.065C713.3 555.765 713.3 555.765 711 555.465C714.286 553.481 713.488 554.884 714 551.665C711.6 551.865 711.6 551.865 709.2 552.065C710.746 539.988 735.357 555.91 718.975 563.941Z" fill="#000000" fill-rule="nonzero" opacity="1" stroke="none"/>
</g>
</svg>
