<?xml version="1.0" encoding="UTF-8" standalone="no"?>
<!DOCTYPE svg PUBLIC "-//W3C//DTD SVG 1.1//EN" "http://www.w3.org/Graphics/SVG/1.1/DTD/svg11.dtd">
<!-- Created with Vectornator (http://vectornator.io/) -->
<svg height="100%" stroke-miterlimit="10" style="fill-rule:nonzero;clip-rule:evenodd;stroke-linecap:round;stroke-linejoin:round;" version="1.1" viewBox="0 0 800 600" width="100%" xml:space="preserve" xmlns="http://www.w3.org/2000/svg" xmlns:xlink="http://www.w3.org/1999/xlink">
<defs/>
<clipPath id="ArtboardFrame">
<rect height="600" width="800" x="0" y="0"/>
</clipPath>
<g clip-path="url(#ArtboardFrame)" id="Layer-1">
<path d="M0.400119 600.579C399.319 600.579 399.319 600.579 798.237 600.579C799.438 300.489 799.438 300.489 800.638 0.400119C401.72 0.400119 401.72 0.400119 2.80083 0.400119C1.53465 200.457 0.985091 400.518 0.400119 600.579ZM546.825 31.1093C543.736 35.8974 519.129 38.3096 525.556 26.808C532.791 13.8626 550.577 15.7801 560.417 22.2566C562.834 23.8474 566.41 24.061 567.069 27.5082C568.264 33.7614 560.457 38.2152 556.966 32.4096C558.666 31.7094 558.666 31.7094 560.367 31.0092C558.948 29.5015 558.545 28.3344 555.965 29.0086C552.83 29.828 555.284 33.5126 552.702 34.9979C544.174 39.9028 540.051 41.303 530.558 39.0116C534.928 35.9526 553.274 39.0511 550.614 28.4085C545.53 8.07454 522.928 30.5626 536.96 28.8086C533.872 17.2311 549.044 27.6703 546.825 31.1093ZM83.5248 89.4266C77.1239 88.7501 70.2069 86.6651 64.2191 89.0265C57.4959 91.6779 53.9441 99.2994 48.0143 103.431C45.6609 105.07 42.1733 104.403 39.8118 106.032C37.2772 107.779 36.7657 111.965 33.9226 113.146C31.6699 114.082 28.2063 113.432 26.808 111.433C17.5985 98.2688 22.756 79.4841 22.6067 63.4189C22.4648 48.1482 22.7401 32.8764 22.8068 17.6052C159.447 17.8053 159.447 17.8053 296.088 18.0054C288.819 22.54 280.76 26.0033 274.282 31.6094C267.341 37.6155 282.589 47.0422 286.635 47.3641C290.116 47.641 293.397 45.1477 296.888 45.2134C300.437 45.2802 303.727 48.3265 307.229 47.7517C314.226 46.6033 320.131 39.1414 327.135 40.2495C333.22 41.2123 336.046 48.7603 340.501 53.0158C333.783 58.134 326.225 62.3069 320.345 68.3703C319.332 69.4155 310.129 81.1728 318.145 83.6249C325.992 86.0256 334.218 88.4532 342.402 87.8386C348.147 87.4072 353.737 84.3785 358.107 80.624C361.581 77.6384 360.133 68.7864 364.708 68.5704C371.036 68.2717 377.88 70.1761 382.914 74.022C378.579 76.9896 373.35 78.9546 369.91 82.9247C366.626 86.7146 367.155 93.1423 363.433 96.5037C357.987 101.423 351.147 106.802 343.815 106.494C333.878 106.076 326.005 89.6392 316.894 93.6279C310.211 96.5536 305.1 102.463 298.376 105.294C294.707 106.839 290.009 104.578 286.485 106.432C282.204 108.684 276.955 119.999 269.28 119.035C265.99 118.622 262.994 116.435 259.677 116.435C253.823 116.435 246.283 122.315 242.197 118.123C238.926 114.767 237.509 109.377 233.369 107.182C226.76 103.678 218.95 103.058 211.563 101.88C205.921 100.981 204.407 111.467 199.147 113.696C195.737 115.142 191.955 111.789 188.269 111.433C177.204 110.364 169.025 119.142 162.048 126.037C151.561 120.794 140.239 116.741 128.638 115.034C125.208 114.53 121.721 116.5 118.285 116.035C115.128 115.607 112.616 112.554 109.433 112.433C105.262 112.275 101.297 114.301 97.2289 115.234C96.6364 106.172 96.3816 90.7854 83.5248 89.4266ZM487.282 35.7731C481.136 36.3967 475.058 37.7172 469.09 39.3117C465.24 40.3401 461.891 44.0973 457.936 43.613C454.367 43.1759 452.652 38.6108 449.484 36.911C445.477 34.7616 441.083 33.3419 436.68 32.2096C432.573 31.1535 424.003 35.804 421.025 33.7225C417.427 31.207 413.002 22.74 406.721 23.9071C400.551 25.0538 394.2 25.8331 388.391 28.2084C383.783 30.0922 379.689 36.4853 374.136 37.5862C365.455 39.3072 369.797 36.043 361.307 36.0107C351.683 35.9741 357.372 39.368 347.553 37.2611C342.353 36.1453 339.597 29.8812 334.7 27.8083C325.103 23.7467 316.779 30.4067 309.692 18.0054C418.725 18.2054 418.725 18.2054 527.757 18.4055C527.038 20.7574 523.954 21.7595 522.956 24.0071C521.448 27.4017 522.203 31.5633 520.542 34.8854C509.544 33.0861 498.443 34.6409 487.282 35.7731ZM722.615 19.2057C730.164 18.9802 732.549 29.071 735.419 34.8104C725.816 36.6109 725.816 36.6109 716.213 38.4114C716.413 35.4105 716.413 35.4105 716.613 32.4096C711.96 32.2108 709.829 32.0835 705.81 30.409C705.566 34.146 705.42 31.9797 707.01 36.811C705.41 37.2111 705.41 37.2111 703.809 37.6112C702.809 33.4099 702.809 33.4099 701.809 29.2087C706.483 28.0755 711.65 22.9343 705.81 19.8059C711.412 19.6058 717.012 19.3731 722.615 19.2057ZM624.786 19.8059C625.086 22.5067 625.086 22.5067 625.386 25.2075C628.387 24.2072 628.387 24.2072 631.388 23.2069C628.232 32.0416 627.553 33.2889 635.789 37.2111C637.59 33.51 637.59 33.51 639.39 29.8089C643.37 32.6957 647.933 31.8687 651.494 35.4605C656.62 40.6316 661.472 48.5808 665.398 54.4162C661.997 54.6162 661.997 54.6162 658.596 54.8163C660.596 61.6152 668.232 56.7804 672.6 64.019C668.799 64.2191 668.799 64.2191 664.998 64.4192C666.308 72.4957 669.531 68.268 676.801 72.2215C679.849 73.8787 683.097 79.3649 685.004 82.2245C670.158 91.7873 658.317 98.2788 640.591 98.0292C645.123 86.4459 661.273 99.8117 659.996 85.4254C659.554 80.4457 658.667 79.1719 654.845 76.2727C651.714 73.8977 646.783 68.2667 644.192 71.2212C641.183 74.6508 638.59 78.4233 635.789 82.0244C626.212 71.0794 646.406 53.8784 650.994 45.2134C644.242 49.5443 637.478 54.0591 630.018 57.006C629.003 55.7611 629.003 55.7611 627.987 54.5162C629.087 54.2661 629.087 54.2661 630.187 54.0161C626.451 52.3865 620.274 49.0566 615.583 48.702C607.524 48.0927 607.579 50.2814 598.678 50.9151C595.64 51.1315 575.493 51.6218 583.774 46.0137C586.445 44.2044 590.143 44.5567 592.976 43.0128C599.115 39.6674 604.198 34.5238 610.482 31.4594C615.125 29.1949 620.418 28.6252 625.386 27.2081C608.39 24.2945 600.785 33.6991 586.625 33.735C584.403 33.7407 563.197 20.4648 561.567 19.4058C582.637 19.0006 603.723 19.1477 624.786 19.8059ZM780.632 19.2057C780.632 32.6097 780.632 32.6097 780.632 46.0137C770.347 35.5201 761.071 37.7342 746.622 38.4114C752.424 31.4093 752.424 31.4093 758.226 24.4073C750.323 21.8065 750.323 21.8065 742.421 19.2057C755.141 18.5567 767.895 19.1101 780.632 19.2057ZM654.195 19.2057C669.05 19.5498 674.807 16.9506 679.802 30.8092C684.604 27.4082 684.604 27.4082 689.405 24.0071C686.404 30.409 686.404 30.409 683.403 36.811C686.964 38.1268 690.44 39.9412 694.207 40.412C695.438 35.9482 695.438 35.9482 696.67 31.4844C702.736 33.7553 701.44 44.5375 704.785 49.6523C707.333 53.5496 713.794 53.9704 715.888 58.1298C719.587 65.4801 720.506 73.9262 722.815 81.8243C709.911 85.3254 709.911 85.3254 697.007 88.8264C700.061 91.7585 703.954 97.0206 708.771 98.3493C728.657 103.835 779.582 83.0396 781.352 119.001C781.848 129.071 781.673 139.163 781.833 149.244C770.983 147.864 760.517 144.139 750.223 140.442C765.028 134.44 765.028 134.44 779.832 128.438C776.443 124.765 770.619 116.823 764.82 114.386C756.74 110.991 755.887 113.874 746.41 113.834C736.609 113.793 732.563 107.749 725.816 101.23C717.95 113.781 713.959 122.284 710.474 116.81C696.235 94.4463 682.391 71.8242 669.049 48.9146C665.116 42.161 669.47 26.9149 660.597 26.4079C660.021 31.1655 660.021 31.1655 659.446 35.9232C655.076 30.184 655.076 30.184 650.706 24.4448C654.564 20.4211 654.195 22.4864 654.195 19.2057ZM305.091 33.8101C306.777 40.6456 273.313 49.9801 276.882 33.6475C278.144 27.876 286.49 26.6833 290.536 25.1575C301.05 21.1932 309.775 18.8216 319.495 27.8083C321.645 29.7956 319.479 33.4535 322.746 34.7603C328.911 37.2263 334.012 38.2261 338.501 43.613C333.164 43.3109 331.468 37.567 326.285 36.8735C320.81 36.141 305.383 50.6926 301.14 41.3123C315.601 33.5863 304.276 25.2446 292.237 26.2078C286.431 26.6723 284.162 34.1619 290.686 35.2105C287.765 26.0798 303.735 28.314 305.091 33.8101ZM381.714 35.4605C388.314 27.2094 408.202 23.6453 415.123 33.0098C415.356 33.3245 418.976 37.9161 418.725 39.6118C416.777 52.7546 382.283 37.9466 399.469 35.4605C403.187 34.9227 405.481 34.9526 409.322 34.8104C408.675 40.6335 410.074 38.0512 402.52 40.412C406.917 46.2745 416.327 38.446 412.223 33.51C407.58 27.9275 393.828 31.222 392.267 38.1614C390.884 44.3104 396.225 45.7478 399.319 49.6148C392.267 52.2591 374.042 45.0494 381.714 35.4605ZM584.174 36.4108C579.542 36.6612 576.493 32.1014 572.97 29.6088C578.256 28.3678 580.694 32.7374 584.174 36.4108ZM340.501 40.0119C335.185 37.5952 331.318 33.4679 325.897 31.2093C332.645 26.3896 337.925 34.8601 340.501 40.0119ZM583.374 38.8115C589.436 39.7508 600.925 32.0508 605.38 30.0089C603.619 33.532 598.603 35.8796 595.577 37.8112C582.866 45.9269 581.927 38.6022 568.969 36.0107C574.337 30.6425 576.942 37.8151 583.374 38.8115ZM452.535 45.6136C440.223 45.2348 435.459 36.7569 423.326 38.4114C431.788 30.8104 448.16 35.4056 452.535 45.6136ZM492.659 38.1363C495.22 37.8842 497.576 40.0872 500.149 40.0119C503.906 39.9019 507.101 36.946 511.552 37.011C516.364 37.0813 522.321 41.2526 526.907 42.4626C527.805 42.6997 537.604 42.7175 539.961 45.6636C543.563 50.1669 531.691 53.4035 531.596 53.4784C529.827 54.872 528.015 60.2265 525.556 62.2185C519.357 67.2422 504.939 69.5461 498.548 64.019C504.596 62.2266 508.812 66.5812 514.115 65.0318C527.572 61.1008 529.418 43.1198 513.553 42.6127C509.671 42.4886 506.54 46.2524 502.737 45.376C498.482 44.3954 493.305 40.5845 488.42 42.0875C480.799 44.4327 472.955 50.369 465.338 51.6154C472.518 44.755 482.612 39.1254 492.659 38.1363ZM564.168 36.811C565.668 37.8112 565.668 37.8112 567.169 38.8115C564.673 40.5583 565.977 40.1221 563.368 40.412C563.768 38.6115 563.768 38.6115 564.168 36.811ZM567.506 50.3275C565.048 53.605 560.668 49.7462 557.728 51.0777C554.03 52.7529 550.414 55.6428 547.363 51.0152C541.746 42.4965 552.536 36.1749 559.767 39.2117C557.398 42.0103 554.372 44.2675 556.753 47.7517C562.425 42.3152 573.385 42.4891 567.506 50.3275ZM358.307 40.212C364.078 36.3917 387.959 46.2957 382.089 52.5406C379.828 54.9456 373.584 51.1005 370.86 51.6654C364.977 52.8857 356.285 58.2033 350.304 56.4168C336.845 52.3966 342.122 43.4661 351.842 41.1497C355.163 53.2868 373.291 55.1117 372.111 44.0131C364.283 49.9053 350.248 45.5463 358.307 40.212ZM577.384 55.0664C576.584 55.8354 560.325 64.4316 559.166 64.4192C556.175 64.387 554.049 60.9688 551.139 61.6058C546.584 62.6031 542.543 65.0457 539.36 59.3176C538.407 57.6015 538.777 54.0644 541.261 53.6159C545.083 52.9259 547.212 58.0672 551.064 58.4174C554.459 58.726 555.812 56.6416 558.466 55.0789C564.78 51.3617 570.868 61.1202 569.769 40.8121C569.351 33.0745 583.881 48.8215 577.384 55.0664ZM437.73 49.2146C432.664 47.1883 429.626 45.1703 425.977 41.3123C430.869 40.3804 438.143 43.4007 437.73 49.2146ZM471.74 42.4126C468.83 47.5721 464.788 48.3745 459.337 47.8142C462.107 44.1207 467.344 42.9721 471.74 42.4126ZM408.984 50.1024C404.716 51.413 390.279 62.5137 386.803 54.3412C398.108 52.9228 409.081 48.0854 419.525 43.813C435.409 49.6839 411.423 49.3537 408.984 50.1024ZM497.548 47.1265C501.708 49.1873 508.701 59.4667 514.453 57.4171C517.566 56.3079 516.179 52.9374 515.403 51.1152C511.639 54.2074 509.059 51.5061 506.551 48.4144C523.777 41.3473 526.56 57.3684 513.553 61.8184C510.992 62.6944 508.211 59.6825 506.201 59.2676C487.658 55.4413 508.15 53.7564 494.347 48.0143C485.049 44.1463 476.277 53.3266 467.339 54.8163C475.597 50.4368 487.352 42.0752 497.548 47.1265ZM455.135 67.8202C451.93 70.8214 433.347 75.9116 429.128 75.4224C420.811 74.4582 425.969 64.5225 422.526 59.6177C418.798 54.3092 412.178 56.2314 406.721 54.0161C414.412 52.0383 422.277 51.7733 429.815 49.8273C435.02 48.4839 435.836 53.1729 441.731 50.0149C453.583 48.0738 462.79 60.6546 455.135 67.8202ZM780.632 50.0149C780.709 62.1545 782.283 74.5359 779.832 86.4257C776.813 78.9715 761.214 83.9157 755.225 83.4248C760.501 77.018 767 71.7229 773.03 66.0196C767.828 60.618 767.828 60.618 762.627 55.2164C774.198 51.635 768.199 53.3822 780.632 50.0149ZM461.537 59.0176C473.628 53.5836 483.499 53.1381 496.548 51.2152C495.948 56.4168 495.948 56.4168 495.347 61.6183C483.356 58.8931 489.491 59.004 476.942 61.6183C487.945 64.5525 498.612 69.3717 509.952 70.4209C522.155 71.5501 528.369 62.3116 535.759 55.2164C549.006 79.5026 554.137 62.8641 574.758 61.1182C581.323 60.5624 587.726 64.0096 594.314 63.9815C604.16 63.9396 613.968 61.2715 623.786 62.0184C621.459 66.0744 622.481 71.3742 622.985 76.0226C618.301 74.914 613.605 71.5426 608.931 72.6966C601.951 74.4202 596.694 80.2489 590.576 84.025C595.14 88.2513 595.14 88.2513 599.703 92.4775C597.34 96.8538 597.34 96.8538 594.977 101.23C609.958 106.156 625.358 110.155 640.991 112.233C634.589 115.134 634.589 115.134 628.187 118.035C631.338 121.236 635.93 123.485 637.64 127.638C639.017 130.984 636.939 134.84 636.589 138.441C641.791 138.908 647.349 137.891 652.194 139.842C660.64 143.242 657.291 150.904 667.098 150.845C675.932 150.792 684.637 148.711 693.406 147.644C685.852 145.126 677.391 142.901 672 137.041C677.549 134.356 684.669 136.584 690.405 138.841C699.837 125.009 690.161 116.929 682.603 106.032C677.402 112.033 677.402 112.033 672.2 118.035C671.308 114.29 669.769 109.077 671.8 105.631C675.612 99.1615 681.803 94.4281 686.804 88.8264C689.388 92.8565 693.291 98.0305 691.406 102.43C694.148 104.817 709.454 116.283 708.811 122.436C708.038 129.822 702.276 135.774 699.008 142.442C705.21 140.175 711.053 136.39 717.613 135.64C720.948 135.259 723.882 138.041 727.016 139.241C712.612 152.445 712.612 152.445 698.208 165.649C706.477 162.848 714.317 156.49 723.015 157.247C728.559 157.729 731.017 164.982 735.019 168.85C722.815 171.851 722.815 171.851 710.611 174.852C718.014 178.653 718.014 178.653 725.416 182.454C722.815 181.854 722.815 181.854 720.214 181.254C720.398 183.417 719.128 186.316 720.764 187.743C723.942 190.515 728.683 190.644 732.643 192.095C728.329 198.078 728.329 198.078 724.015 204.061C724.115 200.86 724.115 200.86 724.215 197.659C716.413 198.259 716.413 198.259 708.611 198.859C709.811 204.461 709.811 204.461 711.012 210.062C704.61 208.462 704.61 208.462 698.208 206.862C698.208 216.464 698.208 216.464 698.208 226.067C703.209 225.267 703.209 225.267 708.211 224.467C703.609 229.868 703.609 229.868 699.008 235.27C704.71 240.872 704.71 240.872 710.411 246.473C712.612 241.672 712.612 241.672 714.813 236.87C717.332 238.565 721.135 239.182 722.37 241.955C725.723 249.486 726.001 258.038 727.817 266.079C724.015 266.079 724.015 266.079 720.214 266.079C720.214 271.805 727.998 268.011 730.217 278.083C724.916 277.383 724.916 277.383 719.614 276.682C727.116 283.184 727.116 283.184 734.619 289.686C728.042 293.962 728.042 293.962 721.465 298.239C722.84 303.965 722.84 303.965 724.215 309.692C716.813 309.492 716.813 309.492 709.411 309.292C710.011 316.094 710.011 316.094 710.611 322.896C717.013 321.896 717.013 321.896 723.415 320.895C719.214 328.898 719.214 328.898 715.013 336.9C721.19 336.775 721.19 336.775 727.366 336.65C728.392 332.174 728.392 332.174 729.417 327.697C731.818 332.299 731.818 332.299 734.218 336.9C736.419 336.1 736.419 336.1 738.62 335.3C739.02 340.101 739.02 340.101 739.42 344.903C730.762 344.325 734.263 342.857 728.617 348.504C733.176 350.255 738.464 352.524 740.62 356.906C734.418 355.606 734.418 355.606 728.217 354.305C735.219 360.407 735.219 360.407 742.221 366.509C736.019 365.909 736.019 365.909 729.817 365.309C729.017 375.512 729.017 375.512 728.217 385.715C721.296 380.192 724.494 372.361 721.965 362.908C718.489 362.708 718.489 362.708 715.013 362.508C718.014 354.505 718.014 354.505 721.014 346.503C715.888 345.346 715.888 345.346 710.761 344.19C708.036 349.148 708.036 349.148 705.31 354.105C704.36 347.503 704.36 347.503 703.409 340.901C692.481 338.854 693.945 320.623 692.606 312.493C695.807 312.493 695.807 312.493 699.008 312.493C698.135 305.433 692.483 299.771 688.205 294.087C690.205 293.687 690.205 293.687 692.206 293.287C691.006 285.685 691.006 285.685 689.805 278.083C693.431 280.934 693.431 280.934 697.057 283.784C699.108 282.209 699.108 282.209 701.159 280.633C699.564 275.739 694.897 272.325 690.881 269.105C694.944 267.392 694.944 267.392 699.008 265.679C697.207 260.878 697.207 260.878 695.407 256.076C689.805 260.077 689.805 260.077 684.204 264.079C684.404 257.277 684.404 257.277 684.604 250.475C678.202 252.075 678.202 252.075 671.8 253.675C675.601 261.478 675.601 261.478 679.402 269.28C674.201 269.28 674.201 269.28 668.999 269.28C668.999 276.282 668.999 276.282 668.999 283.284C684.335 281.343 677.754 288.903 668.749 292.787C661.478 284.816 661.478 284.816 654.207 276.845C657.002 273.163 657.002 273.163 659.796 269.48C654.914 263.597 654.914 263.597 650.031 257.714C654.832 252.794 654.832 252.794 659.634 247.874C656.964 243.147 654.456 238.251 650.994 234.07C648.493 240.872 648.493 240.872 645.992 247.674C643.691 242.072 643.691 242.072 641.391 236.47C634.594 245.921 636.423 240.788 635.389 251.675C632.388 250.875 632.388 250.875 629.387 250.074C628.613 256.459 630.4 254.623 624.586 256.076C625.786 246.073 625.786 246.073 626.987 236.07C618.434 241.005 622.986 239.874 613.382 239.671C615.523 248.71 616.703 248.785 612.532 259.327C610.693 263.977 609.818 270.443 605.23 272.431C590.484 278.82 573.854 279.4 558.166 282.884C554.151 264.644 550.603 245.929 551.364 227.268C560.942 230.394 570.32 234.216 580.098 236.645C585.795 238.061 586.298 230.865 585.774 227.468C584.855 221.509 584.684 214.49 580.473 210.175C575.675 205.26 568.214 202.994 561.367 202.46C558.121 202.207 556.032 206.195 553.365 208.062C550.677 202.87 543.236 201.858 537.56 200.46C536.893 201.527 536.815 203.738 535.559 203.661C525.229 203.027 515.153 200.193 504.95 198.459C512.936 187.839 523.624 178.791 528.907 166.6C531.089 161.565 526.807 155.83 525.756 150.445C540.56 146.906 548.136 136.721 562.967 131.639C559.657 121.254 562.886 124.923 553.89 120.123C556.903 114.153 556.903 114.153 559.917 108.182C550.776 100.241 558.413 99.545 552.564 90.4269C549.697 91.3605 546.957 93.5808 543.962 93.2277C541.155 92.8969 540.256 84.3305 535.084 88.4888C531.749 91.1701 530.199 95.5159 527.757 99.0295C517.533 93.7217 522.982 94.4501 511.352 97.329C512.674 106.979 514.897 112.835 509.151 122.436C504.006 131.036 497.433 138.808 490.346 145.893C478.584 157.653 465.965 168.589 452.81 178.766C444.538 185.164 438.234 183.756 428.527 184.055C430.953 174.681 434.462 165.523 435.805 155.934C436.977 147.56 432.421 139.362 430.928 131.039C430.374 127.949 432.598 124.569 431.478 121.636C427.769 111.916 423.781 101.814 416.824 94.078C411.049 87.6553 399.322 87.2768 395.318 79.6237C402.32 78.1566 409.172 75.3836 416.324 75.2224C421.304 75.1101 425.85 79.0022 430.828 78.8234C440.704 78.4688 451.104 75.0984 458.736 68.8205C461.354 72.2048 462.983 76.671 466.589 78.9735C470.219 81.2914 474.883 82.1719 479.18 81.8744C485.824 81.4142 479.984 69.3658 473.441 69.3706C470.05 69.3731 466.972 71.4046 463.738 72.4215C462.113 68.1955 457.407 60.8737 461.537 59.0176ZM610.582 51.8154C603.634 54.1921 590.035 61.4775 583.374 54.8163C589.254 53.4237 604.256 51.601 610.582 51.8154ZM753.824 52.0155C750.432 65.9411 747.728 80.3252 732.618 83.2248C741.41 56.2208 734.924 71.6585 723.015 54.0161C733.233 53.2094 743.56 52.0155 753.824 52.0155ZM593.377 58.6174C601.549 57.9326 622.829 47.3911 627.987 59.9178C623.276 60.6073 619.656 56.9727 614.983 56.8169C609.547 56.6357 604.93 59.9787 599.778 60.418C592.695 61.022 588.147 59.7404 579.973 58.8175C584.35 56.9413 588.849 58.9968 593.377 58.6174ZM384.915 57.017C382.324 61.5502 370.685 62.0748 366.759 59.1301C372.219 52.0948 377.036 56.8655 384.915 57.017ZM317.895 79.8237C316.64 78.7092 323.875 67.8877 325.097 67.0199C325.621 66.6473 340.853 58.1914 341.101 58.2173C344.574 58.579 347.043 62.1398 350.504 61.6183C354.827 60.9669 356.381 57.207 360.907 59.0176C354.426 67.267 346.575 61.9917 340.101 69.4832C335.484 74.8266 344.326 78.5806 348.504 77.6231C351.286 76.9855 353.106 74.2405 355.306 72.4215C361.263 84.9977 324.5 85.6903 317.895 79.8237ZM420.975 68.3703C419.645 71.3643 412.509 73.0962 409.822 73.6219C403.031 74.9505 394.272 76.7799 387.715 73.4218C375.089 66.9548 390.183 56.8711 398.569 58.9675C390.382 66.9633 405.364 70.7721 411.072 63.8565C408.09 60.7059 404.463 64.8668 400.119 63.4189C403.518 55.4889 425.537 58.1061 420.975 68.3703ZM370.51 65.2194C373.418 65.3983 376.127 63.6709 378.913 62.8187C373.398 72.47 372.627 62.7114 366.009 65.7196C363.167 67.0113 360.491 68.94 357.406 69.4207C358.847 56.9347 364.78 64.8667 370.51 65.2194ZM342.102 72.8217C343.264 71.0781 344.157 69.7843 345.903 68.6204C356.188 72.3447 345.723 74.284 342.102 72.8217ZM472.341 72.4215C473.925 72.503 475.529 72.5936 477.067 72.9842C489.437 76.1267 461.929 84.8176 467.539 73.0217C468.461 71.0833 469.572 72.2792 472.341 72.4215ZM611.782 92.0274C613.521 86.23 618.341 85.0554 612.182 79.8237C622.542 80.0607 620.299 91.1757 611.782 92.0274ZM389.316 83.6249C388.225 89.8345 378.707 91.3064 373.711 93.2277C377.16 84.6061 379.92 84.6139 389.316 83.6249ZM602.704 84.1C603.604 88.0004 603.379 86.0251 603.379 90.0268C600.779 87.2259 600.779 87.2259 598.178 84.4251C600.54 83.4129 599.072 83.7804 602.704 84.1ZM52.8407 112.684C45.779 105.622 61.5617 93.3566 67.0199 92.4275C70.9317 91.7617 83.4773 93.4083 85.8255 94.6281C89.384 96.4767 98.6108 109.113 93.3903 113.509C89.8218 116.514 71.5042 114.24 72.6216 108.032C73.7665 101.672 86.0435 97.9331 81.6243 106.432C88.3711 108.962 87.0494 92.2968 75.2224 98.6293C72.3628 100.16 69.3416 102.609 68.4704 105.932C65.0582 118.944 83.2844 115.088 89.2265 120.436C77.6098 122.38 75.8344 121.531 66.4073 114.847C63.5725 112.837 66.1667 109.831 63.0187 107.582C61.275 106.336 59.0503 108.156 58.4174 109.633C65.8395 115.02 56.1699 116.013 52.8407 112.684ZM538.56 96.0286C537.36 102.43 537.36 102.43 536.159 108.832C539.494 105.498 542.574 101.888 546.162 98.8294C550.988 94.7161 542.381 111.096 538.96 116.435C540.361 115.734 541.889 115.246 543.162 114.334C543.339 114.207 557.464 102.212 553.965 110.833C551.887 115.953 548.496 120.436 545.762 125.237C549.036 125.417 552.362 125.337 555.565 126.037C555.871 128.607 525.99 148.381 519.354 143.143C508.654 134.694 516.786 111.925 517.354 101.23C528.281 103.858 524.247 115.638 523.756 124.837C530.873 122.896 523.948 101.456 538.56 96.0286ZM297.651 115.109C301.117 113.38 300.055 108.595 302.69 106.032C312.794 96.2004 320.643 98.8343 331.749 104.131C337.121 106.693 342.351 107.945 344.552 114.234C346.495 119.783 334.17 130.872 329.298 127.238C326.996 125.521 325.786 122.651 323.646 120.736C321.105 118.462 317.492 118.209 316.294 114.634C314.58 109.522 336.575 103.882 330.498 116.035C334.783 115.749 335.873 109.171 332.149 106.882C324.032 101.892 309.89 106.652 312.893 117.835C313.796 121.198 319.217 121.717 320.645 125.287C312.358 131.783 301.546 120.164 293.287 118.035C289.716 117.115 286.684 129.671 282.084 125.837C286.715 119.663 291.387 118.235 297.651 115.109ZM659.996 100.03C661.337 104.386 661.532 109.043 660.146 113.384C655.779 111.704 655.191 106.367 650.393 103.831C653.114 101.872 656.65 100.354 659.996 100.03ZM377.112 112.634C380.515 103.517 394.94 109.874 400.519 109.533C405.222 109.245 408.469 105.231 413.523 105.231C414.731 105.231 416.332 104.72 417.124 105.631C420.125 109.085 421.792 113.5 424.126 117.435C405.772 128.122 411.99 139.456 414.523 156.447C409.122 156.647 409.122 156.647 403.72 156.847C404.32 154.046 404.32 154.046 404.92 151.245C398.483 157.178 394.848 161.481 385.915 159.247C388.798 164.255 387.751 161.28 388.115 168.45C389.116 168.45 389.116 168.45 390.116 168.45C390.316 166.45 390.316 166.45 390.516 164.449C393.378 168.9 391.395 167.745 396.118 168.45C396.118 170.251 396.118 170.251 396.118 172.051C405.821 171.751 405.821 171.751 415.524 171.451C411.467 174.192 406.647 175.591 402.12 177.453C418.16 182.675 419.543 173.356 421.725 160.848C425.301 162.325 423.204 161.908 428.127 161.248C427.419 166.916 427.722 184.114 416.937 183.855C411.933 183.734 412.377 182.049 408.371 183.255C402.098 185.143 400.246 187.377 394.317 184.055C388.095 180.567 384.749 173.471 380.113 168.05C379.313 170.051 379.313 170.051 378.513 172.051C370.899 168.788 372.161 155.418 371.911 149.044C379.601 145.968 387.955 146.844 396.118 146.844C395.718 149.645 395.718 149.645 395.318 152.445C413.413 146.949 400.146 130.459 388.115 125.937C383.723 124.287 379.589 128.335 375.312 128.838C375.912 123.437 375.212 117.725 377.112 112.634ZM219.278 115.622C231.922 117.598 222.929 129.301 209.462 126.238C207.068 125.693 200.882 124.699 201.26 120.836C202.857 104.512 214.715 104.803 225.817 109.583C228.607 110.784 232.815 109.532 235.07 111.633C245.634 121.477 233.377 141.181 220.466 132.84C225.244 127.919 233.403 115.835 222.666 111.233C195.301 99.5053 213.369 136.477 217.665 121.636C212.105 120.583 211.166 120.838 210.863 115.234C213.668 115.363 216.503 115.188 219.278 115.622ZM46.5639 107.282C42.8911 110.633 39.6613 115.935 34.4102 116.435C37.575 112.482 40.7475 105.799 46.5639 107.282ZM296.088 111.233C289.83 113.766 286.046 119.055 280.083 122.036C281.773 114.435 288.072 105.889 296.088 111.233ZM649.793 123.237C651.053 117.655 651.258 117.646 646.355 114.847C648.72 106.637 663.259 119.389 649.793 123.237ZM34.8104 119.235C40.7951 119.191 44.2751 110.505 49.2772 115.159C42.6935 118.723 35.715 128.151 27.9333 122.136C24.7399 119.668 21.5464 117.535 22.4067 113.234C26.2421 115.288 30.0952 119.271 34.8104 119.235ZM196.684 119.523C183.235 117.908 180.902 127.967 167.25 128.438C168.619 117.486 189.957 109.617 196.684 119.523ZM51.6154 116.835C55.4703 117.317 55.5826 117.574 55.2164 121.236C51.7653 120.853 51.6154 120.173 51.6154 116.835ZM87.276 137.653C85.7903 134.138 74.1736 133.782 78.6734 126.938C81.4724 122.68 88.6687 126.335 92.6901 123.724C96.4306 121.296 105.068 117.247 110.033 117.435C113.005 117.548 115.463 120.331 118.435 120.436C120.606 120.513 122.466 118.356 124.637 118.435C136.484 118.869 147.189 127.011 154.446 135.64C146.005 132.637 140.077 125.811 131.202 123.662C125.604 122.306 121.535 126.946 116.185 127.288C112.222 127.541 108.412 125.017 104.831 124.237C91.9572 121.433 93.0877 143.148 99.2295 148.444C107.108 155.238 112.66 145.967 120.836 151.645C105.666 156.613 93.6166 152.657 87.276 137.653ZM69.2331 137.854C65.3309 139.468 63.0786 135.719 60.2679 134.14C57.0301 132.32 54.8093 137.034 51.6154 133.84C45.9174 128.142 52.8056 120.239 62.8812 130.401C63.1958 125.165 60.3342 124.722 59.3427 120.161C70.9765 113.18 77.7217 134.341 69.2331 137.854ZM50.0149 122.036C40.2114 138.842 49.6295 135.214 59.4177 139.241C59.6643 139.343 64.1246 143.743 66.2197 143.843C70.4971 144.046 73.8256 135.666 78.0232 137.641C82.1643 139.59 79.2252 147.585 76.6228 149.244C73.1557 151.455 71.65 149.144 68.1453 147.944C64.4671 146.685 62.5013 151.535 57.9923 150.707C53.6388 149.908 51.7963 145.74 49.0146 142.98C46.9179 140.9 43.9596 141.584 41.5874 139.792C35.1685 134.942 39.7697 126.19 44.0131 122.236C48.6457 121.517 48.6457 121.517 50.0149 122.036ZM271.431 142.142C265.729 144.155 255.024 138.862 249.924 136.191C245.97 134.119 241.545 140.715 238.471 137.641C229.843 129.013 255.276 119.231 260.077 120.636C268.635 123.141 260.877 140.23 249.074 126.838C244.684 135.617 268.08 141.623 268.08 122.837C280.145 124.56 282.622 138.192 271.431 142.142ZM297.288 152.445C294.707 150.008 290.653 149.667 287.886 147.444C285.752 145.73 278.904 137.899 280.884 135.04C281.426 134.256 291.163 121.517 294.288 122.236C300.585 123.687 307.221 130.888 313.618 131.389C317.172 131.667 320.332 128.452 323.896 128.438C337.725 128.383 331.241 135.628 345.103 123.637C348.504 126.838 348.504 126.838 351.905 130.039C353.805 128.538 353.805 128.538 355.706 127.038C363.949 139.402 352.414 145.085 355.756 158.197C358.446 168.75 377.748 175.136 371.285 183.667C368.443 187.419 362.104 188.024 358.006 188.106C340.803 188.45 323.602 188.935 306.404 189.481C302.936 189.592 298.152 191.031 296.069 188.257C293.948 185.433 292.983 181.75 290.486 179.253C306.756 176.112 312.084 166.419 297.288 152.445ZM194.658 123.437C190.32 127.704 187.651 130.174 182.054 132.84C181.345 125.042 188.009 121.959 194.658 123.437ZM753.824 123.637C746.729 131.397 737.896 138.248 730.917 125.687C738.525 124.745 746.169 124.047 753.824 123.637ZM22.8068 123.637C28.4343 126.616 34.0101 126.516 34.0101 133.64C30.3336 134.308 26.5434 134.001 22.8068 134.04C22.8068 128.838 22.8068 128.838 22.8068 123.637ZM159.848 131.639C154.395 132.418 151.113 129.422 147.844 125.237C153.455 124.489 157.667 126.47 159.848 131.639ZM426.927 125.237C425.736 134.167 422.325 132.735 412.923 134.84C416.104 126.358 417.876 125.237 426.927 125.237ZM232.869 140.042C224.5 146.429 215.216 134.122 206.974 132.602C203.154 131.897 198.216 134.362 195.058 132.239C192.87 130.769 194.156 129.139 195.658 128.038C209.579 125.197 220.924 138.143 232.869 140.042ZM125.187 128.088C134.344 125.43 146.855 134.312 152.845 140.042C144.754 138.13 138.652 131.073 130.439 130.039C117.607 128.422 122.499 137.879 121.036 143.443C120.199 146.627 114.563 144.673 111.371 145.481C107.253 146.523 110.335 148.273 106.632 148.044C99.7656 147.62 92.5668 132.346 101.68 128.988C111.541 125.355 117.101 140.4 102.43 134.44C104.987 153.84 115.426 130.922 125.187 128.088ZM640.34 134.34C639.958 133.114 640.266 130.354 641.141 129.851C650.506 124.464 642.573 141.507 640.34 134.34ZM394.317 138.841C387.344 138.198 380.314 138.481 373.311 138.441C376.747 130.424 397.895 128.107 394.317 138.841ZM182.654 136.04C185.242 136.195 186.866 133.12 189.456 133.24C192.18 133.365 193.943 136.037 196.558 136.691C202.185 138.097 207.426 137.068 213.063 139.041C209.101 143.664 201.629 139.281 197.859 144.993C194.308 150.373 198.426 165.347 189.856 165.249C186.769 165.214 185.022 162.088 182.104 161.898C175.68 161.48 162.927 159.755 163.099 151.595C163.251 144.31 162.497 138.288 167.45 133.04C175.515 131.69 177.62 135.74 182.654 136.04ZM148.044 142.042C151.933 143.63 160.346 142.787 159.66 146.931C158.853 151.808 156.767 156.384 155.321 161.11C143.278 155.677 131.204 160.495 141.542 174.152C153.217 168.876 155.986 168.22 160.048 156.847C165.322 162.297 186.703 171.758 194.358 169.1C197.21 168.11 199.445 164.882 202.46 165.049C209.311 165.43 215.427 170.103 222.266 170.651C236.418 171.783 238.609 155.293 254.201 156.772C260.917 157.409 260.152 169.721 262.028 172.101C265.161 176.075 271.927 175.897 275.082 179.854C278.746 184.448 264.344 184.649 259.127 187.356C256.496 188.721 255.042 191.774 252.475 193.257C243.893 198.217 215.381 197.437 209.225 205.486C206.956 208.452 203.945 231.272 215.614 227.768C222.992 225.552 229.995 221.524 237.671 220.866C237.204 231.802 237.569 242.806 236.27 253.675C235.4 260.952 234.63 285.138 220.466 278.283C213.392 274.86 213.73 272.761 211.463 266.642C214.564 264.56 214.564 264.56 217.665 262.478C207.362 251.275 207.362 251.275 197.059 240.071C183.617 249.187 171.836 255.886 160.598 267.229C154.811 273.071 152.916 281.912 147.644 288.223C143.947 292.649 130.65 291.139 130.439 284.285C135.357 283.218 140.413 282.657 145.193 281.084C148.045 280.145 147.209 276.308 147.244 274.482C141.419 275.314 133.976 277.157 129.639 273.181C134.14 271.247 138.886 269.805 143.143 267.38C145.753 265.892 143.375 259.582 143.243 258.877C134.64 262.478 134.64 262.478 126.037 266.079C129.304 260.604 135.61 257.463 141.242 254.476C139.441 249.674 139.441 249.674 137.641 244.873C129.238 249.874 129.238 249.874 120.836 254.876C123.397 244.708 137.209 241.924 130.239 231.469C124.335 234.678 119.837 239.986 114.834 244.473C116.686 230.026 130.912 230.248 118.435 219.665C114.941 225.687 112.859 235.105 106.032 236.47C110.033 225.667 110.033 225.667 114.034 214.864C108.832 213.263 108.832 213.263 103.631 211.663C101.802 218.338 100.037 225.911 94.8282 230.469C97.0289 219.865 97.0289 219.865 99.2295 209.262C82.1456 208.874 96.1192 219.049 85.2254 227.268C85.1037 216.683 89.3734 205.713 77.6231 205.261C77.4897 211.396 77.8746 217.565 77.223 223.667C76.98 225.941 73.846 226.393 72.4215 226.867C72.0214 216.264 72.0214 216.264 71.6213 205.661C69.2833 206.639 65.3326 207.068 65.2694 210.663C65.1625 216.742 66.0363 222.8 66.4198 228.868C59.4443 227.264 58.5845 216.598 56.8169 209.662C54.6895 210.733 50.6456 211.381 51.4153 215.014C52.7305 221.222 55.0164 227.184 56.8169 233.269C46.83 231.454 49.5822 214.439 38.4114 218.865C43.4129 229.268 43.4129 229.268 48.4144 239.671C37.8432 236.893 40.1693 234.116 34.3602 227.118C31.8405 224.082 24.9659 228.963 27.1456 232.032C30.6696 236.992 34.9229 241.393 38.8115 246.073C24.6414 236.258 22.9161 229.938 22.3692 211.475C21.7668 191.141 22.3942 170.788 22.4067 150.445C29.5588 149.378 36.6793 146.416 43.863 147.244C48.8581 147.82 52.2079 153.358 57.117 154.446C60.7161 155.243 64.3408 152.822 68.0202 152.595C81.7635 151.75 78.3168 154.979 83.2248 139.642C89.5866 147.863 98.7915 161.781 112.033 158.297C122.378 155.575 132.306 151.462 142.442 148.044C136.438 146.243 129.756 146.684 123.637 148.044C123.037 141.642 123.037 141.642 122.436 135.24C134.239 133.47 136.58 137.363 148.044 142.042ZM506.351 135.44C511.223 145.712 515.962 156.049 520.555 166.45C513.15 163.364 498.939 141.504 506.351 135.44ZM35.1229 139.929C32.1093 141.2 23.0028 144.42 22.4067 139.241C26.0926 139.148 32.4802 137.163 35.1229 139.929ZM419.612 154.784C407.914 151.775 422.779 140.456 428.252 139.404C431.179 144.999 429.925 150.679 429.328 156.847C425.972 155.648 422.983 155.65 419.612 154.784ZM251.875 142.442C257.813 150.389 235.841 147.35 235.27 141.642C240.192 142.284 241.041 143.071 244.873 141.242C249.007 139.408 250.237 140.251 251.875 142.442ZM39.2117 145.243C30.6091 145.643 30.6091 145.643 22.0065 146.043C22.0065 144.643 22.0065 144.643 22.0065 143.243C27.0591 144.085 36.238 140.589 39.2117 145.243ZM271.081 148.244C274.641 148.03 276.592 143.792 280.283 143.843C284.909 143.906 283.188 149.358 285.285 151.645C285.7 152.098 286.245 152.473 286.835 152.645C297.213 155.667 294.222 154.071 299.089 163.249C300.807 166.488 302.86 166.065 302.965 169.525C303.179 176.586 292.686 173.463 289.636 172.839C285.985 172.092 283.001 178.075 277.633 177.053C273.404 176.247 258.149 165.78 266.029 162.298C270.939 169.488 283.491 170.54 281.284 158.647C279.436 148.69 262.891 156.941 259.527 144.493C264.924 142.825 265.96 148.553 271.081 148.244ZM220.065 144.043C230.773 144.541 246.522 156.846 229.668 164.049C223.378 166.737 216.291 164.46 210.037 163.023C206.33 162.172 199.929 159.547 198.609 155.546C194.283 142.433 215.593 142.318 220.466 150.845C215.493 152.63 213.431 149.327 208.662 149.094C208.909 159.464 232.542 156.52 220.065 144.043ZM362.908 146.043C359.699 152.461 363.55 158.234 366.109 164.449C360.984 162.171 354.351 147.354 362.908 146.043ZM497.348 146.844C502.015 147.233 503.247 150.809 504.925 154.996C507.563 161.577 510.01 168.233 512.552 174.852C504.534 171.058 498.549 155.253 497.348 146.844ZM249.674 152.645C254.191 152.645 263.922 141.103 262.878 158.847C258.807 157.626 258.254 155.536 254.213 153.383C247.639 149.88 249.31 163.169 240.071 150.032C244.159 148.244 245.742 152.645 249.674 152.645ZM772.23 168.05C774.589 169.29 778.987 159.686 781.833 157.247C781.833 166.249 781.833 166.249 781.833 175.252C774.262 174.918 775.736 174.493 768.229 168.85C766.178 177.931 775.693 183.095 777.831 193.257C773.63 192.557 773.63 192.557 769.429 191.857C769.229 192.391 768.713 192.9 768.829 193.458C769.602 197.18 773.79 199.221 776.218 202.148C779.694 206.336 778.861 211.823 779.032 216.865C769.82 210.829 757.585 190.844 768.229 181.654C760.489 179.418 752.24 178.207 745.222 174.252C747.706 170.576 751.127 167.626 754.224 164.449C746.704 161.302 738.896 158.691 731.818 154.646C744.654 144.075 761.366 162.341 772.23 168.05ZM278.283 161.848C278.122 165.232 265.182 163.241 269.68 157.047C271.57 154.444 278.509 157.088 278.283 161.848ZM478.242 169.4C485.811 156.278 492.386 152.495 499.199 167.5C501.836 173.309 504.739 178.53 502.349 184.605C499.469 191.927 492.849 197.24 487.145 202.66C478.104 211.251 468.473 219.199 459.137 227.468C458.834 221.873 460.549 216.338 461.737 210.863C457.509 214.369 455.459 220.052 453.735 225.267C452.547 219.34 452.547 219.34 451.359 213.413C449.765 213.357 449.765 213.357 448.171 213.301C448.313 227.843 449.043 242.391 448.596 256.926C448.48 260.705 445.379 269.273 442.682 272.068C438.884 276.004 401.769 278.457 400.119 277.282C396.138 274.449 392.326 269.377 387.465 269.88C375.891 271.079 372.48 287.345 357.806 284.685C350.474 283.356 356.462 269.274 358.707 266.679C365.727 258.563 373.138 250.771 380.863 243.322C389.474 235.019 399.052 227.759 407.671 219.465C415.404 212.025 422.283 203.739 429.878 196.158C434.439 191.606 459.336 186.459 467.939 182.654C470.44 186.956 470.44 186.956 472.941 191.257C472.541 185.655 472.541 185.655 472.14 180.054C474.541 182.054 474.541 182.054 476.942 184.055C476.903 180.382 475.977 173.328 478.242 169.4ZM144.543 170.101C139.628 172.022 137.703 163.048 142.442 161.848C153.529 159.041 154.537 166.194 144.543 170.101ZM284.085 184.455C284.728 188.168 284.727 189.35 283.384 192.707C282.706 187.211 282.51 189.964 284.085 184.455ZM380.913 184.455C390.852 190.633 396.967 193.336 408.522 194.058C402.708 199.492 396.298 204.251 390.116 209.262C385.515 196.859 385.515 196.859 380.913 184.455ZM288.486 187.256C290.801 188.758 290.758 189.416 291.287 192.057C289.261 190.9 288.486 189.592 288.486 187.256ZM275.282 188.056C280.426 188.347 279.683 191.039 279.683 195.658C276.621 194.621 276.213 190.849 275.282 188.056ZM269.68 188.856C273.873 191.143 273.619 194.331 274.082 198.859C269.774 195.931 269.941 193.81 269.68 188.856ZM751.048 191.845C753.726 182.885 761.576 191.955 761.877 198.359C762.499 211.592 762.91 224.834 763.427 238.071C761.067 234.138 759.057 234.193 754.624 234.47C754.445 221.459 747.489 203.756 751.048 191.845ZM745.072 194.908C748.574 203.081 749.187 212.955 750.223 221.666C750.292 222.241 752.593 233.11 748.223 232.069C747.124 231.807 739.042 194.101 738.82 192.057C738.155 185.947 744.198 192.87 745.072 194.908ZM262.878 190.457C268.556 191.436 266.94 195.934 268.88 200.46C263.748 199.07 262.878 195.377 262.878 190.457ZM257.677 194.458C261.234 196.66 261.278 196.612 261.278 200.46C258.21 198.474 258.254 197.925 257.677 194.458ZM375.262 198.759C377.601 205.174 379.83 211.63 382.114 218.065C376.131 215.154 369.754 203.13 371.911 196.659C374.82 196.628 374.221 195.906 375.262 198.759ZM358.457 254.526C377.122 234.452 396.088 214.382 418.525 198.459C417.761 202.661 418.293 201.846 413.123 206.461C405.055 213.665 396.084 219.844 388.266 227.318C374.996 240.001 365.186 253.532 351.305 264.879C352.826 260.652 355.305 257.916 358.457 254.526ZM372.111 210.463C382.027 230.17 372.847 221.624 364.058 233.269C359.299 239.575 356.289 244.508 348.904 247.674C345.968 226.952 339.445 216.857 359.107 203.861C368.974 202.687 370.296 206.856 372.111 210.463ZM245.473 221.466C245.378 214.598 245.34 207.728 245.273 200.86C246.873 200.86 246.873 200.86 248.474 200.86C248.474 208.316 253.285 242.311 246.961 245.948C242.859 238.876 245.587 229.641 245.473 221.466ZM253.675 201.26C259.047 204.379 257.357 202.453 259.677 206.061C256.676 206.661 256.676 206.661 253.675 207.262C253.675 204.261 253.675 204.261 253.675 201.26ZM341.101 207.862C336.29 215.08 331.632 222.399 326.897 229.668C319.147 220.86 310.997 212.345 304.09 202.86C310.485 202.49 349.895 194.671 341.101 207.862ZM535.759 212.463C516.154 210.263 516.154 210.263 496.548 208.062C501.075 200.948 533.646 206.507 535.759 212.463ZM293.287 205.661C289.188 210.839 275.892 220.313 273.281 207.262C280.015 206.139 286.461 205.661 293.287 205.661ZM212.463 220.466C212.463 213.111 213.927 210.541 220.266 207.062C254.196 201.594 221.378 217.159 212.463 220.466ZM578.172 226.467C565.765 224.025 552.787 224.652 551.764 210.463C567.376 210.463 578.172 205.81 578.172 226.467ZM275.082 276.682C269.329 276.393 270.81 265.972 269.08 260.477C265.644 249.565 248.381 224.172 257.269 213.56C263.818 205.74 272.491 216.985 278.883 218.465C268.07 233.8 277.329 239.741 288.486 254.476C273.58 257.699 291.401 277.504 275.082 276.682ZM283.884 233.269C279.952 234.472 282.898 227.569 283.884 226.717C286.947 224.073 289.02 223.028 291.387 220.366C293.606 217.869 293.624 213.007 296.888 212.263C307.222 209.91 288.38 231.894 283.884 233.269ZM741.821 234.47C733.803 231.656 720.159 219.87 732.018 214.464C742.522 213.026 741.599 232.617 741.821 234.47ZM443.632 284.922C446.301 279.114 451.277 274.432 453.335 268.38C455.936 260.73 453.746 249.999 458.724 243.347C466.139 233.439 474.181 223.312 484.744 216.865C493.143 211.738 504.256 215.889 513.003 217.165C532.146 219.956 540.591 218.344 531.658 241.197C526.19 255.186 519.375 268.659 514.553 282.884C510.657 279.599 506.657 276.358 503.35 272.481C526.31 269.655 507.271 252.519 500.949 242.472C478.481 255.435 456.223 263.715 454.135 291.687C450.313 290.033 441.893 288.706 443.632 284.922ZM768.629 216.464C774.869 219.825 779.032 221.084 779.032 228.468C772.109 226.414 769.112 223.712 768.629 216.464ZM305.291 219.665C305.755 226.623 294.014 237.01 288.486 239.671C291.648 231.371 299.054 225.694 305.291 219.665ZM321.996 247.023C323.89 255.718 327.759 264.271 330.898 272.481C322.793 271.563 318.724 263.655 312.493 259.077C310.337 257.493 288.177 253.089 294.087 245.073C298.471 239.129 303.557 233.736 308.292 228.068C322.999 229.306 319.96 237.677 321.996 247.023ZM768.629 230.469C782.852 236.507 779.832 246.253 779.832 260.878C765.818 253.648 769.4 246.149 768.629 230.469ZM344.102 261.678C334.756 258.874 325.655 241.113 333.899 232.869C343.376 242.811 343.552 251.857 344.102 261.678ZM742.221 247.674C737.223 246.424 733.301 246.471 728.217 247.274C728.217 234.413 739.054 237.311 742.221 247.674ZM540.961 245.673C538.16 246.273 538.16 246.273 535.359 246.873C535.359 241.166 538.713 240.802 540.961 245.673ZM325.697 243.672C329.868 247.748 330.807 252.687 333.699 258.277C335.952 262.63 338.306 261.592 341.289 265.104C343.021 267.143 340.228 270.371 339.301 272.881C329.894 266.514 327.3 254.361 325.697 243.672ZM21.6064 245.273C27.1861 246.668 32.52 250.732 34.8104 256.076C28.3253 254.635 21.6064 252.445 21.6064 245.273ZM763.515 246.761C764.071 251.218 764.071 251.218 764.627 255.676C761.691 254.795 759.732 253.694 757.425 251.675C761.013 248.087 759.004 249.752 763.515 246.761ZM170.851 301.89C144.193 298.391 160.17 277.805 171.051 268.28C173.159 266.434 175.389 264.729 177.653 263.078C195.145 250.324 193.147 246.927 208.062 260.077C202.239 263.285 170.605 273.285 172.451 283.284C173.89 291.078 186.634 293.499 190.857 300.489C185.144 300.596 176.706 302.658 170.851 301.89ZM247.274 257.277C244.073 256.676 244.073 256.676 240.872 256.076C242.979 251.019 246.607 252.143 247.274 257.277ZM502.662 262.941C501.651 266.284 456.922 283.058 478.842 296.138C482.417 298.271 486.617 299.747 489.346 302.89C483.277 302.757 477.192 302.964 471.14 302.49C441.959 300.206 478.553 263.921 485.544 258.677C497.367 252.66 504.726 256.115 502.662 262.941ZM544.162 260.878C543.362 257.411 543.599 259.166 543.449 255.614C549.36 253.879 551.097 258.92 544.162 260.878ZM766.628 311.643C765.891 297.928 760.817 284.197 760.626 270.681C760.556 265.715 763.42 261.319 764.227 256.476C767.929 279.415 773.109 303.489 768.229 326.497C765.898 322.096 766.895 316.616 766.628 311.643ZM617.784 257.677C624.616 260.892 636.898 295.143 620.785 299.889C619.785 300.184 618.726 300.289 617.684 300.289C606.405 300.289 595.116 300.412 583.849 299.889C572.83 299.378 568.573 295.471 558.166 295.288C563.944 270.524 617.784 300.029 617.784 257.677ZM250.875 258.477C259.028 259.496 258.716 277.938 259.677 282.084C250.603 278.315 250.875 267.006 250.875 258.477ZM738.72 289.336C736.503 282.566 724.656 261.823 738.62 260.077C737.042 264.285 737.985 262.289 735.819 266.079C738.82 267.48 738.82 267.48 741.821 268.88C742.328 265.965 742.928 265.679 745.822 265.679C745.712 269.948 745.346 274.304 746.222 278.483C742.021 277.483 742.021 277.483 737.819 276.482C741.887 281.484 746.016 286.437 750.023 291.487C751.612 293.489 751.264 293.083 751.324 295.388C746.772 293.937 746.772 293.937 742.221 292.487C743.021 297.088 743.021 297.088 743.821 301.69C736.853 299.367 740.542 294.902 738.72 289.336ZM537.76 260.878C540.161 260.878 540.161 260.878 542.561 260.878C543.412 268.112 542.585 276.314 540.361 283.284C535.367 278.198 537.76 267.297 537.76 260.878ZM21.6064 261.678C26.0077 263.878 26.0077 263.878 30.409 266.079C25.3769 268.955 21.6064 267.629 21.6064 261.678ZM326.197 278.083C332.115 282.66 340.888 291.559 326.497 292.087C326.659 270.656 299.998 275.172 290.086 263.278C305.855 258.426 314.323 268.899 326.197 278.083ZM628.987 263.278C633.388 263.278 633.388 263.278 637.79 263.278C635.701 271.237 632.326 268.843 628.987 263.278ZM774.03 325.297C772.921 305.452 773.304 285.553 773.03 265.679C780.739 268.043 779.396 275.992 779.507 283.434C779.632 291.873 779.548 300.315 779.444 308.754C779.381 313.88 781.184 324.608 775.231 326.897C774.83 326.364 774.067 325.963 774.03 325.297ZM750.223 267.68C760.071 271.29 762.439 306.298 761.427 314.093C757.192 312.279 750.963 274.711 750.223 267.68ZM261.678 269.28C265.87 271.832 265.616 273.845 266.479 278.883C261.502 276.688 261.932 274.36 261.678 269.28ZM240.071 270.48C240.071 275.67 239.598 294.418 233.269 291.887C234.078 286.806 232.627 271.45 240.071 270.48ZM225.467 287.886C227.486 300.538 205.156 276.509 204.861 275.082C204.098 271.386 225.311 286.906 225.467 287.886ZM294.888 274.882C300.07 284.382 283.211 288.094 277.282 288.486C281.656 283.018 287.986 276.776 294.888 274.882ZM21.6064 274.482C26.4248 275.805 26.808 275.244 26.808 279.683C22.5809 279.358 21.6064 278.799 21.6064 274.482ZM642.191 275.282C648.219 278.809 666.155 288.427 664.073 298.239C663.78 299.616 662.07 301.04 662.197 302.69C662.486 306.451 666.915 308.918 667.799 312.893C663.797 311.293 663.797 311.293 659.796 309.692C659.796 311.293 659.796 311.293 659.796 312.893C656.195 312.593 656.195 312.593 652.594 312.293C656.985 308.451 663.001 299.222 653.895 295.038C651.044 298.164 651.044 298.164 648.193 301.29C648.193 296.688 648.193 296.688 648.193 292.087C625.495 291.382 642.191 285.784 642.191 275.282ZM216.064 294.488C210.872 293.622 186.802 281.594 193.858 276.082C200.445 278.824 215.58 289.578 216.064 294.488ZM384.564 292.387C383.657 290.487 384.103 288.191 384.114 286.085C384.139 281.232 382.376 281.2 385.115 278.483C396.883 266.805 390.96 305.778 384.564 292.387ZM527.757 277.282C528.288 284.189 528.598 291.925 524.956 298.089C524.744 292.391 522.136 281.779 527.757 277.282ZM309.692 384.915C313.607 384.657 314.191 377.391 313.056 373.636C311.711 369.189 306.841 366.188 305.991 361.62C304.702 354.693 305.145 347.327 306.891 340.501C308.459 334.375 311.639 328.549 315.694 323.696C319.873 318.695 327.404 316.995 331.048 311.593C333.511 307.943 330.432 302.263 332.699 298.489C334.588 295.345 339.766 295.706 342.227 292.987C348.417 286.147 334.447 283.98 346.103 280.483C345.491 285.725 348.444 288.697 353.305 290.086C352.206 301.074 342.658 305.542 340.101 316.394C336.093 333.41 331.304 350.389 329.698 367.797C329.377 371.275 335.256 373.702 334.5 377.112C330.781 393.877 320.4 408.716 316.894 425.527C315.841 430.579 322.084 435.266 321.308 440.368C320.653 444.676 315.831 447.146 313.093 450.534C317.244 451.768 322.006 451.742 325.547 454.235C327.329 455.49 326.714 458.436 327.297 460.537C320.079 458.436 313.147 454.669 305.641 454.235C299.032 453.853 292.779 458.589 286.173 458.161C276.415 457.529 272.366 442.699 262.878 440.331C254.02 438.12 243.406 449.155 233.87 443.582C224.795 438.279 217.139 430.829 209.212 423.926C205.599 420.78 203.98 414.618 199.322 413.498C175.41 407.751 160.576 444.259 136.14 434.529C123.279 429.408 112.304 420.305 99.6296 414.736C95.8731 413.085 91.0741 415.001 87.426 413.123C77.6287 408.078 68.9401 401.087 60.1679 394.417C53.6487 389.461 49.1917 381.432 41.6249 378.3C38.286 376.918 34.3781 380.217 31.6844 382.626C27.2217 386.617 24.4323 392.154 20.8062 396.918C20.8062 364.708 20.8062 364.708 20.8062 332.499C23.507 335.075 23.507 335.075 26.2078 337.65C30.234 332.682 34.9631 327.053 41.2123 325.697C41.0122 327.197 41.0122 327.197 40.8121 328.698C39.8118 328.198 39.8118 328.198 38.8115 327.697C32.93 336.695 28.2569 339.035 35.2105 346.903C41.8124 339.701 41.8124 339.701 48.4144 332.499C44.8133 342.502 44.8133 342.502 41.2123 352.505C51.1367 353.905 52.3355 345.582 56.8169 337.3C55.7332 343.335 52.5064 349.366 53.5659 355.406C54.0638 358.243 58.4007 358.54 60.8181 360.107C61.8686 353.979 63.5589 347.232 68.0202 342.902C67.0199 352.905 67.0199 352.905 66.0196 362.908C69.9396 361.939 69.9396 361.939 73.8595 360.97C74.1408 352.936 74.1408 352.936 74.4221 344.903C76.8229 344.903 76.8229 344.903 79.2236 344.903C79.7542 353.208 79.7542 353.208 80.2849 361.514C83.2553 362.011 83.2553 362.011 86.2257 362.508C85.9589 356.706 85.0116 350.896 85.4254 345.103C85.4809 344.326 89.0709 340.791 90.2268 343.702C92.1953 348.66 91.2616 354.716 94.108 359.227C95.3251 361.156 98.5893 360.08 100.83 360.507C99.1733 351.154 99.1733 351.154 97.5165 341.802C99.017 341.539 99.017 341.539 100.517 341.277C103.836 348.609 103.836 348.609 107.154 355.942C109.394 354.724 109.394 354.724 111.633 353.505C108.432 344.202 108.432 344.202 105.231 334.9C119.007 336.696 107.412 348.516 124.237 344.903C118.335 337.901 118.335 337.901 112.433 330.898C133.343 341.468 138.473 340.039 120.836 319.295C129.714 321.846 129.714 321.846 138.591 324.397C139.465 318.282 131.445 313.941 126.288 310.542C131.777 309.351 137.579 311.73 142.842 313.693C143.643 309.092 143.643 309.092 144.443 304.491C138.978 303.233 133.118 301.338 129.238 297.288C135.096 297.935 142.744 299.92 146.844 295.688C152.088 302.571 160.992 305.969 166.5 312.643C169.38 316.133 167.975 322.033 170.901 325.484C173.176 328.168 177.912 327.257 180.704 329.398C188.978 335.744 193.091 343.262 195.658 353.055C199.925 369.327 193.701 375.321 194.658 389.916C233.003 388.249 271.394 387.436 309.692 384.915ZM404.07 297.664C399.1 295.132 402.011 297.069 396.518 290.386C400.119 291.437 400.119 291.437 403.72 292.487C402.931 288.145 400.381 286.231 397.918 282.684C407.413 281.605 408.648 292.291 404.07 297.664ZM188.906 283.134C190.395 284.13 191.861 285.164 193.257 286.285C195.915 288.417 198.535 290.599 201.06 292.887C210.766 301.684 177.262 292.804 182.167 282.509C183.759 279.166 186.514 281.534 188.906 283.134ZM307.341 282.784C308.108 290.092 296.353 292.747 290.887 292.487C293.663 286.934 300.945 281.53 307.341 282.784ZM507.751 298.489C497.167 294.78 474.797 289.716 482.944 284.285C492.279 283.236 504.747 292.12 507.751 298.489ZM376.512 285.285C375.805 290.035 376.429 286.889 373.711 294.488C374.912 294.488 374.912 294.488 376.112 294.488C376.112 292.687 376.112 292.687 376.112 290.887C377.912 290.887 377.912 290.887 379.713 290.887C379.09 295.869 377.051 299.142 372.111 300.489C370.916 293.02 370.331 290.012 376.512 285.285ZM21.6064 285.685C23.607 286.285 23.607 286.285 25.6076 286.885C23.1124 290.636 24.7849 289.933 21.2063 290.086C21.4064 287.886 21.4064 287.886 21.6064 285.685ZM316.894 291.287C313.493 292.087 313.493 292.087 310.092 292.887C311.461 288.779 314.166 286.512 316.894 291.287ZM416.511 293.5C452.251 280.648 449.101 322.388 453.335 342.902C436.598 345.437 419.886 348.225 403.32 351.705C403.037 343.866 403.484 343.252 410.122 339.301C406.521 322.096 406.521 322.096 402.92 304.891C409.679 302.262 408.992 296.204 416.511 293.5ZM547.363 291.287C545.453 294.787 546.84 292.998 542.561 296.088C542.026 292.608 541.964 294.342 542.761 290.887C546.056 290.633 544.529 290.437 547.363 291.287ZM677.402 290.887C685.065 292.334 684.604 296.11 684.604 303.29C681.22 303.764 682.497 302.896 680.853 306.004C676.031 304.147 677.162 295.194 677.402 290.887ZM282.484 304.691C280.045 299.812 281.01 302.946 281.684 294.888C285.848 296.553 287.028 302.094 282.484 304.691ZM277.683 296.088C276.958 302.325 278.506 304.779 272.881 305.291C273.238 301.184 272.431 296.088 277.683 296.088ZM26.808 298.089C26.808 299.889 26.808 299.889 26.808 301.69C24.0071 301.69 24.0071 301.69 21.2063 301.69C21.5064 300.089 21.5064 300.089 21.8065 298.489C24.3072 298.289 24.3072 298.289 26.808 298.089ZM322.896 300.489C320.213 303.709 322.433 305.199 317.695 306.491C318.078 301.506 317.93 294.531 322.896 300.489ZM249.974 298.689C256.941 298.501 263.912 298.555 270.881 298.489C270.881 299.357 271.058 302.625 270.318 303.365C267.654 306.029 260.074 302.447 256.276 302.49C248.433 302.58 240.662 303.999 232.869 304.891C232.248 296.695 243.913 298.853 249.974 298.689ZM295.625 302.815C291.694 302.497 288.574 302.656 288.086 298.489C293.143 298.489 314.218 294.637 314.894 304.09C308.471 303.665 302.041 303.335 295.625 302.815ZM637.39 307.291C632.988 306.491 632.988 306.491 628.587 305.691C634.227 298.923 634.683 296.463 637.39 307.291ZM564.168 300.89C565.924 305.339 565.835 308.853 560.567 309.292C561.004 304.192 560.584 303.677 564.168 300.89ZM747.822 301.29C754.245 303.891 756.032 313.316 750.023 317.094C747.681 312.075 747.503 306.718 747.822 301.29ZM352.105 307.742C356.171 300.664 368.671 299.634 370.91 308.092C375.912 305.891 375.912 305.891 380.913 303.69C379.781 340.496 383.274 361.129 339.973 360.145C338.026 351.943 348.175 314.581 352.105 307.742ZM507.451 303.015C508.201 306.754 508.201 306.754 508.951 310.492C506.751 310.692 506.751 310.692 504.55 310.892C504.34 307.326 503.162 303.577 507.451 303.015ZM510.952 302.49C530.289 303.078 530.289 303.078 549.626 303.665C549.164 308.282 531.276 306.829 526.807 307.091C521.53 307.401 516.237 307.225 510.952 307.291C510.952 304.891 510.952 304.891 510.952 302.49ZM213.664 303.69C211.493 313.46 195.345 310.763 188.056 311.293C187.949 300.473 206.933 303.797 213.664 303.69ZM387.715 304.491C387.799 314.86 387.7 325.233 387.965 335.6C388.083 340.204 393.627 360.662 384.114 362.508C382.715 352.111 382.161 309.989 387.715 304.491ZM568.969 304.491C574.904 304.624 580.841 304.717 586.775 304.891C592.165 305.049 604.58 303.175 604.58 310.892C595.272 309.858 568.969 313.599 568.969 304.491ZM393.317 304.891C396.117 310.771 401.943 348.687 394.567 349.254C393.148 334.781 393.621 319.463 393.317 304.891ZM494.947 304.891C493.389 315.028 486.106 312.301 476.942 312.093C479.124 305.002 488.448 305.391 494.947 304.891ZM179.653 306.091C185.111 306.091 184.034 314.097 184.455 317.695C179.181 317.695 180.026 309.692 179.653 306.091ZM458.586 307.204C462.639 327.698 474.773 319.655 483.144 336.2C487.647 345.102 490.273 354.007 488.945 364.033C488.03 370.945 472.758 387.375 492.059 388.103C501.418 388.456 510.789 388.111 520.155 388.115C518.142 395.698 517.887 402.642 509.752 405.921C506.365 407.286 502.045 406.315 499.098 408.472C484.582 419.093 474.861 445.493 453.735 446.933C453.935 444.732 453.935 444.732 454.135 442.532C458.136 441.531 458.136 441.531 462.137 440.531C458.052 434.864 451.247 428.341 454.385 420.475C455.365 418.021 458.793 416.516 458.774 413.873C458.705 404.295 454.574 395.083 454.135 385.515C453.967 381.859 456.257 378.498 456.986 374.912C460.057 359.794 446.994 358.354 463.686 351.735C460.011 329.413 460.011 329.413 456.336 307.091C457.461 307.148 457.461 307.148 458.586 307.204ZM472.941 316.294C470.37 313.723 469.296 311.088 471.74 307.892C475.523 309.473 475.061 314.085 472.941 316.294ZM608.181 306.891C610.582 306.891 610.582 306.891 612.982 306.891C612.771 311.336 613.488 315.294 608.181 315.294C608.181 311.093 608.181 311.093 608.181 306.891ZM615.783 306.891C616.583 306.891 619.784 306.891 620.585 306.891C620.585 308.025 620.585 312.56 620.585 313.693C619.784 313.693 616.583 313.693 615.783 313.693C615.783 312.56 615.783 308.025 615.783 306.891ZM29.6088 307.291C27.4934 310.313 24.1214 312.233 21.2063 314.494C21.2063 308.385 24.0929 308.119 29.6088 307.291ZM173.252 307.692C178.966 308.275 177.718 316.934 174.452 320.095C173.006 315.896 173.252 312.135 173.252 307.692ZM242.072 312.093C248.674 312.093 248.674 312.093 255.276 312.093C253.592 317.985 248.447 315.307 243.672 317.695C242.872 314.894 242.872 314.894 242.072 312.093ZM535.759 312.893C544.698 313.977 540.266 312.971 549.038 315.994C543.716 318.59 535.759 321.015 535.759 312.893ZM400.369 313.481C401.349 318.164 408.053 331.681 401.87 335.45C399.32 328.148 400.045 321.117 400.369 313.481ZM583.774 387.115C589.866 386.734 599.006 389.205 601.779 383.766C603.701 379.996 605.687 374.185 602.779 371.11C599.867 368.031 598.213 369.499 598.015 365.234C597.762 359.759 599.082 352.14 600.879 347.253C604.245 338.096 606.293 333.279 613.382 327.497C620.611 321.602 623.887 322.242 625.786 313.693C628.684 316.269 629.59 320.48 630.988 324.096C634.789 321.296 634.789 321.296 638.59 318.495C636.789 326.297 636.789 326.297 634.989 334.099C639.19 335.1 639.19 335.1 643.391 336.1C644.592 327.898 644.592 327.898 645.792 319.695C647.393 325.897 647.393 325.897 648.993 332.099C658.687 330.044 666.409 346.484 670.199 350.904C665.398 350.104 665.398 350.104 660.597 349.304C660.597 352.705 660.597 352.705 660.597 356.106C665.362 356.147 670.414 355.466 674.851 357.206C674.363 358.663 674.363 358.663 673.875 360.12C670.31 360.071 665.357 360.502 663.797 363.708C687.183 365.262 678.485 368.543 682.203 386.515C689.752 387.002 690.47 388.328 691.006 395.718C689.005 394.717 689.005 394.717 687.004 393.717C686.092 398.76 691.954 402.942 695.807 406.321C692.006 406.221 692.006 406.221 688.205 406.121C688.205 408.922 688.205 408.922 688.205 411.722C694.444 411.863 696.989 411.296 698.47 417.587C696.815 418.241 693.379 419.087 694.131 420.7C695.933 424.564 698.449 428.052 700.608 431.728C693.112 434.158 697.098 433.407 688.605 433.729C689.96 438.624 693.6 444.447 690.956 448.784C681.37 445.729 676.162 436.398 684.804 429.19C680.903 424.257 680.903 424.257 677.001 419.325C682.203 419.325 682.203 419.325 687.404 419.325C685.604 412.523 685.604 412.523 683.803 405.721C677.001 408.522 677.001 408.522 670.199 411.322C669.999 401.72 669.999 401.72 669.799 392.117C660.991 395.703 665.296 394.644 656.995 395.718C660.133 405.345 659.039 400.108 659.796 411.522C655.395 409.822 655.395 409.822 650.994 408.121C651.444 418.308 648.804 420.578 657.396 421.725C655.192 432.332 654.852 426.981 658.996 437.73C650.671 436.585 640.611 418.845 642.391 411.722C643.089 408.933 647.345 408.081 645.605 404.445C644.143 401.392 641.728 398.894 639.79 396.118C649.395 395.053 646.627 395.996 647.793 384.514C641.591 387.115 641.591 387.115 635.389 389.716C633.388 384.314 633.388 384.314 631.388 378.913C629.287 381.33 625.947 383.08 625.086 386.165C624.184 389.397 626.086 392.8 626.586 396.118C622.535 397.468 618.252 398.259 614.433 400.169C611.863 401.454 613.359 408.902 613.382 409.322C619.584 406.321 619.584 406.321 625.786 403.32C622.785 409.122 622.785 409.122 619.784 414.923C625.386 416.924 625.386 416.924 630.988 418.925C630.988 413.323 630.988 413.323 630.988 407.721C634.492 408.04 639.886 418.111 640.591 422.126C633.284 422.782 635.22 420.792 632.988 425.527C638.432 427.572 643.685 431.682 646.192 436.93C631.185 432.5 616.766 426.264 602.229 420.475C595.209 417.68 587.224 436.728 581.548 433.842C577.367 431.715 574.862 427.139 570.87 424.676C568.245 423.057 564.886 423.077 562.067 421.825C547.022 415.145 540.283 401.751 536.56 386.915C551.564 386.315 551.564 386.315 566.569 385.715C566.569 386.715 566.569 386.715 566.569 387.715C572.304 387.515 578.046 387.473 583.774 387.115ZM35.0104 316.544C31.4787 321.489 26.2102 324.932 21.6064 328.898C21.1301 321.277 27.0408 315.423 35.0104 316.544ZM496.298 325.397C488.383 327.439 492.957 321.41 497.548 320.095C515.215 315.037 501.192 324.134 496.298 325.397ZM575.371 320.495C573.627 324.566 559.91 323.924 564.368 318.895C569.504 317.884 572.158 319.526 575.371 320.495ZM599.778 321.296C594.377 321.496 594.377 321.496 588.975 321.696C590.819 317.64 597.815 316.714 599.778 321.296ZM255.276 320.095C255.276 321.896 255.276 321.896 255.276 323.696C251.442 323.696 247.87 323.331 244.473 325.297C244.971 318.824 249.953 320.095 255.276 320.095ZM744.622 320.495C753.9 321.114 753.683 326.88 757.025 334.9C749.22 335.059 751.15 337.174 745.172 339.201C747.198 331.664 746.95 327.87 744.622 320.495ZM536.159 320.895C541.561 321.596 541.561 321.596 546.963 322.296C548.284 328.9 537.452 327.788 536.159 320.895ZM662.197 320.895C662.197 322.696 662.197 322.696 662.197 324.497C664.998 324.497 664.998 324.497 667.799 324.497C659.463 344.502 649.022 320.895 662.197 320.895ZM208.712 325.597C203.556 326.726 196.135 330.129 193.958 323.596C200.192 322.349 205.036 319.858 208.712 325.597ZM288.886 326.097C292.86 328.879 290.075 327.43 298.089 328.098C297.062 332.845 293.143 331.905 288.886 332.099C288.886 329.098 288.886 329.098 288.886 326.097ZM586.174 326.897C591.668 328.455 593.676 327.489 594.177 332.499C589.209 332.207 587.335 331.928 586.174 326.897ZM266.079 329.698C272.881 329.698 272.881 329.698 279.683 329.698C278.025 335.087 266.692 336.443 266.079 329.698ZM538.56 331.098C542.552 332.177 546.718 330.971 548.963 334.9C543.162 335.7 543.162 335.7 537.36 336.5C537.96 333.799 537.96 333.799 538.56 331.098ZM675.401 330.498C681.176 331.076 678.877 336.262 680.352 340.814C681.094 343.103 685.849 339.395 686.304 344.002C686.662 347.616 683.803 349.598 685.354 353.155C686.878 356.65 689.06 359.88 690.193 363.521C690.738 365.272 687.032 365.888 686.604 365.909C682.258 366.124 678.624 357.192 677.201 354.505C675.094 350.525 673.067 346.503 671 342.502C676.64 341.938 675.257 334.672 675.401 330.498ZM199.259 332.899C205.061 333.099 205.061 333.099 210.863 333.299C207.366 337.295 201.345 338.635 199.259 332.899ZM560.567 334.9C564.968 335.495 570.248 334.652 571.37 339.701C565.768 339.901 565.768 339.901 560.167 340.101C560.367 337.5 560.367 337.5 560.567 334.9ZM688.205 334.9C693.405 336.539 693.006 338.271 693.006 343.302C688.404 342.36 688.835 339.102 688.205 334.9ZM504.95 340.101C501.586 340.101 498.701 340.357 495.385 340.976C491.886 332.848 504.95 334.352 504.95 340.101ZM536.159 342.902C542.411 343.527 542.411 343.527 548.663 344.152C547.913 349.531 541.591 347.634 537.36 348.904C536.76 345.903 536.76 345.903 536.159 342.902ZM581.773 344.502C585.642 344.8 589.183 345.095 590.976 348.904C586.374 348.904 586.374 348.904 581.773 348.904C581.773 346.703 581.773 346.703 581.773 344.502ZM222.466 344.903C226.662 344.903 235.318 343.084 237.671 347.703C234.09 347.819 227.122 346.833 224.467 349.704C222.889 346.549 223.549 348.152 222.466 344.903ZM515.753 345.703C519.745 345.754 525.988 344.187 527.757 348.904C522.893 349.285 521.816 349.442 518.154 352.105C516.954 348.904 516.954 348.904 515.753 345.703ZM767.928 401.219C767.155 390.973 765.928 380.762 765.228 370.51C764.933 366.199 767.747 356.875 767.428 350.504C770.595 352.142 771.84 352.001 772.305 356.694C774.664 380.497 774.471 405.47 774.63 429.328C765.143 425.939 768.394 407.383 767.928 401.219ZM756.075 351.505C754.32 356.608 752.707 361.844 747.422 364.108C747.104 356.091 747.575 352.062 756.075 351.505ZM229.468 355.106C233.554 356.255 237.023 354.589 238.071 359.307C233.964 359.307 230.201 359.041 226.467 360.907C227.968 358.006 227.968 358.006 229.468 355.106ZM260.077 354.505C260.077 356.106 260.077 356.106 260.077 357.706C255.548 357.806 252.593 357.783 248.474 358.907C248.274 356.906 248.274 356.906 248.074 354.906C255.677 354.624 251.673 354.76 260.077 354.505ZM558.166 355.706C565.295 356.306 567.693 359.189 559.767 361.708C558.966 358.707 558.966 358.707 558.166 355.706ZM777.831 359.107C779.948 363.809 778.834 369.15 778.432 374.111C776.807 368.968 777.4 364.432 777.831 359.107ZM279.083 363.358C276.95 366.165 273.19 367.249 270.08 368.91C270.38 366.109 270.38 366.109 270.681 363.308C276.012 362.466 273.212 362.528 279.083 363.358ZM517.754 364.108C522.756 365.209 522.756 365.209 527.757 366.309C524.033 371.298 518.239 370.903 517.754 364.108ZM538.16 364.108C547.801 366.144 548.819 369.382 538.16 370.11C538.16 367.109 538.16 367.109 538.16 364.108ZM558.166 364.108C561.682 365.19 565.888 365.829 568.569 368.51C565.667 370.66 561.201 370.256 557.766 370.51C557.966 367.309 557.966 367.309 558.166 364.108ZM578.972 364.108C583.173 364.909 583.173 364.909 587.375 365.709C586.037 370.539 584.524 369.701 579.372 370.11C579.172 367.109 579.172 367.109 578.972 364.108ZM755.125 398.068C755.125 391.608 758.889 393.777 757.625 387.515C755.353 376.255 749.748 378.77 750.223 364.508C756.352 365.762 760.702 367.367 761.026 374.511C757.625 372.911 757.625 372.911 754.224 371.31C753.901 379.469 760.302 383.426 762.727 391.366C763.675 394.472 763.69 397.698 763.727 400.919C763.837 410.388 763.794 419.858 763.827 429.328C754.347 425.287 755.125 406.573 755.125 398.068ZM208.862 368.51C216.015 368.684 213.656 367.122 217.002 370.91C211.7 372.526 214.412 371.854 208.862 372.911C208.862 370.71 208.862 370.71 208.862 368.51ZM711.212 373.311C721.051 377.722 721.17 378.94 715.013 389.716C713.473 386.979 712.215 384.999 712.062 381.864C712.937 381.589 712.937 381.589 713.812 381.313C712.512 377.312 712.512 377.312 711.212 373.311ZM272.481 372.911C270.894 378.201 267.692 379.313 262.478 379.313C265.501 375.283 267.372 373.263 272.481 372.911ZM283.684 377.312C280.346 377.627 278.34 379.399 274.882 379.713C276.844 375.004 280.994 370.183 283.684 377.312ZM306.091 373.711C302.89 376.512 302.89 376.512 299.689 379.313C298.841 374.648 301.654 373.341 306.091 373.711ZM535.359 374.111C530.139 378.145 532.749 377.035 527.957 378.313C529.739 374.451 531.096 373.827 535.359 374.111ZM546.162 377.712C542.161 378.913 542.161 378.913 538.16 380.113C539.342 374.202 542.626 371.819 546.162 377.712ZM568.969 373.311C568.188 377.55 564.382 380.921 559.917 379.913C560.198 374.293 564.334 374.006 568.969 373.311ZM555.765 373.711C555.381 378.705 553.327 379.16 548.563 380.113C549.079 375.473 551.113 373.711 555.765 373.711ZM579.772 374.111C576.384 378.974 576.601 379.711 571.37 380.113C573.025 374.816 574.194 373.763 579.772 374.111ZM240.071 374.912C240.405 375.245 241.739 376.579 242.072 376.912C241.205 377.579 237.737 380.246 236.87 380.913C237.404 379.913 239.538 375.912 240.071 374.912ZM249.274 374.912C247.394 381.904 249.708 380.577 244.473 381.313C244.473 377.352 245.117 375.406 249.274 374.912ZM259.277 374.912C258.303 379.62 258.652 379.774 254.476 380.913C255.019 376.026 254.769 376.114 259.277 374.912ZM511.377 375.674C509.164 378.694 509.164 378.694 506.951 381.714C503.741 378.107 508.089 375.972 511.377 375.674ZM745.422 375.612C745.858 382.421 740.798 383.438 735.019 385.915C738.036 382.772 741.259 376.836 745.422 375.612ZM503.35 375.312C502.028 379.937 500.968 380.969 496.148 381.313C497.093 377.058 499.078 375.754 503.35 375.312ZM596.978 378.513C593.977 379.313 593.977 379.313 590.976 380.113C592.569 376.608 593.892 375.097 596.978 378.513ZM699.008 376.312C699.726 380.978 699.494 385.346 697.808 389.716C699.808 389.716 699.808 389.716 701.809 389.716C700.226 409.703 686.81 388.51 699.008 376.312ZM232.469 376.512C231.294 381.123 229.897 382.342 225.267 382.914C226.032 378.541 228.019 376.512 232.469 376.512ZM214.064 378.913C212.464 382.358 213.76 379.932 208.862 385.315C208.862 381.06 209.678 379.391 214.064 378.913ZM715.263 405.221C715.263 415.062 707.123 394.071 707.41 391.717C708.267 384.688 715.263 400.779 715.263 405.221ZM749.761 400.107C744.906 400.451 742.759 397.387 741.621 393.117C746.951 393.413 750.534 394.25 749.761 400.107ZM706.11 397.868C708.961 411.597 708.961 411.597 711.812 425.327C707.277 422.681 693.413 400.831 706.11 397.868ZM719.414 397.718C721.607 399.28 722.914 398.869 725.416 398.118C724.456 401.957 722.829 402.903 719.014 403.72C719.214 400.719 719.214 400.719 719.414 397.718ZM737.819 407.721C743.317 411.553 744.775 413.808 750.223 409.722C751.424 419.525 751.424 419.525 752.624 429.328C751.424 429.528 751.424 429.528 750.223 429.728C753.024 436.93 753.024 436.93 755.825 444.132C749.623 444.132 749.623 444.132 743.421 444.132C743.421 449.534 743.421 449.534 743.421 454.935C750.023 454.935 750.023 454.935 756.625 454.935C749.297 461.401 751.227 463.154 755.425 472.541C753.254 471.973 745.192 471.763 744.421 467.752C740.373 446.666 739.65 440.938 736.219 419.325C738.22 419.325 738.22 419.325 740.22 419.325C739.02 413.523 739.02 413.523 737.819 407.721ZM712.612 411.722C718.595 413.966 723.124 421.289 714.613 424.126C713.612 417.924 713.612 417.924 712.612 411.722ZM730.617 423.726C728.121 422.062 726.425 421.325 723.415 421.325C724.14 414.801 730.386 418.48 730.617 423.726ZM381.764 454.885C382.963 451.84 381.053 448.605 382.014 445.483C382.816 442.874 385.773 442.378 386.515 439.781C386.721 439.061 384.312 419.613 390.716 421.926C391.603 422.246 392.221 423.124 392.717 423.926C394.794 427.291 393.45 432.45 394.517 436.33C395.837 441.127 399.384 442.008 401.619 445.983C403.512 449.348 400.204 453.577 399.319 457.336C409.667 454.025 412.176 457.86 414.123 468.139C397.495 460.303 393.152 453.901 375.712 460.337C375.949 456.173 380.416 458.306 381.764 454.885ZM614.783 438.13C620.53 440.646 627.885 442.63 632.588 447.333C622.675 445.637 610.149 436.546 600.979 437.73C590.996 439.02 585.128 452.033 574.971 454.935C585.173 436.798 596.987 430.34 614.783 438.13ZM668.599 433.729C668.599 436.53 668.599 436.53 668.599 439.331C675.903 439.51 676.254 438.709 677.001 445.733C674.576 444.813 656.808 436.677 668.599 433.729ZM775.456 437.093C777.111 441.231 775.908 442.312 771.83 443.332C772.965 438.789 771.881 440.936 775.456 437.093ZM446.533 442.932C448.286 451.794 457.335 482.627 452.935 491.946C448.025 502.343 429.572 515.209 419.925 503.15C423.42 498.815 430.375 496.424 434.929 494.147C418.229 490.568 420.387 467.373 415.724 452.535C425.981 449.295 436.252 446.095 446.533 442.932ZM703.409 445.733C703.409 449.534 703.409 449.534 703.409 453.335C693.748 451.062 695.201 447.329 703.409 445.733ZM721.014 448.934C726.916 452.868 727.419 455.909 727.817 462.938C721.513 460.179 722.07 455.479 721.014 448.934ZM734.619 449.134C735.851 454.435 736.041 459.927 736.619 465.338C732.416 462.336 728.074 451.588 734.619 449.134ZM328.435 495.347C329.244 486.893 330.83 478.53 332.149 470.14C334.404 455.794 333.644 456.753 346.203 457.186C353.909 457.452 361.6 456.066 369.31 456.136C365.909 473.474 365.543 491.696 359.107 508.151C357.744 511.635 351.739 509.473 348.104 510.352C335.533 513.39 324.935 517.414 312.093 515.353C317.837 509.226 325.376 507.059 333.299 506.951C332.225 504.945 328.097 498.878 328.435 495.347ZM681.003 460.937C683.064 466.386 683.003 471.075 683.003 476.942C679.185 473.481 673.6 470.738 672.35 465.739C677.667 464.666 678.841 465.261 681.003 460.937ZM686.204 460.937C691.251 464.356 693.465 465.026 699.408 465.338C695.587 470.427 692.227 475.97 687.605 480.343C684.233 476.298 686.204 465.597 686.204 460.937ZM767.428 465.338C773.342 466.722 772.596 473.206 773.43 478.542C765.585 475.322 766.732 473.697 767.428 465.338ZM667.399 469.34C672.833 471.11 674.75 479.108 677.001 483.744C672.857 482.614 667.608 481.87 663.998 479.343C667.155 475.08 667.399 474.325 667.399 469.34ZM702.559 470.39C703.246 474.775 703.229 476.518 707.811 476.942C707.493 482.536 695.058 481.795 692.606 482.143C694.374 477.929 697.574 471.194 702.559 470.39ZM404.52 473.341C400.919 475.541 400.919 475.541 397.318 477.742C399.834 478.328 416.025 479.617 418.587 486.17C420.07 489.962 421.612 494.852 419.525 498.348C414.954 506.004 400.101 509.008 401.219 517.854C402.799 530.348 402.07 535.627 416.358 536.456C424.666 536.937 433.83 538.101 441.231 534.296C450.253 529.659 455.797 520.156 462.638 512.665C472.6 501.755 457.84 496.552 461.837 484.694C493.197 486.42 493.197 486.42 524.556 488.145C526.096 498.002 532.36 506.601 537.66 515.053C512.017 536.507 502.125 549.232 501.349 581.373C260.678 580.973 260.678 580.973 20.006 580.573C20.1433 562.451 17.5252 544.097 20.4181 526.207C20.9555 522.883 26.2458 522.634 29.5088 521.805C38.7351 519.461 48.1592 517.835 57.6171 516.754C81.0921 514.071 104.644 511.984 128.226 510.522C191.747 506.582 255.339 503.873 318.895 500.549C313.775 510.923 305.08 503.706 297.714 511.515C292.568 516.969 287.011 522.442 283.884 529.257C282.926 531.347 285.039 533.955 286.685 535.559C291.729 540.474 296.452 548.14 303.49 548.363C319.302 548.865 334.535 542.051 349.704 537.56C354.909 536.019 362.053 535.295 364.308 530.358C368.795 520.538 366.576 508.885 367.709 498.148C388.115 497.748 388.115 497.748 408.522 497.348C405.608 486.857 390.295 485.325 380.513 480.543C384.371 477.605 384.371 477.605 388.228 474.666C380.169 473.803 380.169 473.803 372.111 472.941C382.657 470.597 393.806 471.952 404.52 473.341ZM545.162 474.541C539.799 485.268 534.79 483.375 537.76 495.747C527.24 487.482 535.542 479.351 545.162 474.541ZM633.588 476.142C637.589 478.25 638.062 478.295 642.191 477.342C640.667 483.846 639.081 490.341 637.19 496.748C634.955 490.044 634.411 483.13 633.588 476.142ZM627.987 478.542C629.984 482.911 630.39 487.847 631.388 492.547C627.138 488.668 622.401 485.172 618.984 480.543C622.375 480.543 625.483 481.091 627.987 478.542ZM645.792 480.143C648.97 482.526 648.985 485.497 652.994 486.945C649.844 490.459 646.107 493.399 642.591 496.548C644.192 488.345 644.192 488.345 645.792 480.143ZM664.598 483.344C668.171 484.496 671.962 485.246 675.201 487.145C672.04 491.035 667.689 493.788 663.797 496.948C664.198 490.146 664.198 490.146 664.598 483.344ZM689.555 487.195C698.003 493.229 674.399 498.296 681.403 486.745C682.653 484.683 687.414 485.665 689.555 487.195ZM630.187 498.548C623.499 498.889 611.599 496.248 606.58 492.584C615.937 485.818 622.73 490.223 630.187 498.548ZM740.62 493.347C743.678 495.751 750.556 496.074 751.824 498.948C747.014 501.257 743.154 505.18 739.02 508.551C739.82 500.949 739.82 500.949 740.62 493.347ZM735.419 495.347C735.419 501.481 735.229 507.355 733.818 513.353C728.942 509.126 726.819 504.937 724.215 498.948C730.086 500.333 731.124 499.069 735.419 495.347ZM604.98 498.548C612.662 499.31 619.613 498.72 625.786 503.35C618.659 503.859 612.972 505.993 606.18 507.351C605.58 502.95 605.58 502.95 604.98 498.548ZM756.125 502.449C757.575 506.301 757.575 506.301 759.026 510.152C752.024 510.952 752.024 510.952 745.022 511.752C747.942 508.715 751.625 502.849 756.125 502.449ZM690.205 502.549C693.617 505.301 693.915 509.929 696.782 513.34C701.178 509.961 697.053 504.945 703.409 504.15C702.338 513.544 699.488 520.05 703.009 529.357C704.328 526.888 704.328 526.888 705.647 524.419C712.559 525.822 701.806 540.932 711.412 548.963C712.212 545.362 712.212 545.362 713.012 541.761C722.319 545.145 709.535 553.633 715.413 564.968C717.548 561.655 716.734 563.6 717.413 558.966C728.333 560.109 718.365 565.62 718.214 572.57C718.136 576.135 721.466 578.427 720.514 582.023C712.99 581.586 717.893 578.152 712.412 574.971C705.703 571.078 698.637 576.745 698.208 566.969C704.81 566.569 704.81 566.569 711.412 566.168C709.598 557.824 702.779 554.488 694.207 554.165C694.207 550.764 694.207 550.764 694.207 547.363C700.408 548.363 700.408 548.363 706.61 549.363C703.518 537.436 699.902 538.632 687.004 537.36C687.204 534.559 687.204 534.559 687.404 531.758C694.006 532.558 694.006 532.558 700.608 533.359C696.726 520.914 693.569 519.435 681.403 516.554C682.803 513.553 682.803 513.553 684.204 510.552C689.005 511.952 689.005 511.952 693.806 513.353C692.006 507.951 692.006 507.951 690.205 502.549ZM641.791 503.75C641.791 509.552 641.791 509.552 641.791 515.353C628.529 510.491 624.914 503.75 641.791 503.75ZM719.014 503.75C723.815 509.352 723.815 509.352 728.617 514.953C721.014 513.553 721.014 513.553 713.412 512.152C715.949 508.738 719.014 508.339 719.014 503.75ZM624.186 507.351C619.866 512.416 616.321 518.463 610.782 522.155C605.522 511.26 614.494 507.654 624.186 507.351ZM418.124 509.352C420.325 509.352 420.325 509.352 422.526 509.352C421.494 514.253 421.417 518.779 421.125 523.756C416.564 521.931 418.251 513.419 418.124 509.352ZM444.595 510.314C444.89 514.02 446.082 518.086 442.132 519.755C441.116 513.854 438.691 510.841 444.595 510.314ZM437.03 512.102C443.746 523.06 425.768 532.298 424.526 516.154C428.481 519.738 428.218 524.663 434.704 521.78C433.99 518.508 432.013 517.671 429.328 515.753C434.378 513.095 431.81 514.311 437.03 512.102ZM360.507 525.756C354.603 525.22 355.748 518.499 356.506 513.953C362.408 513.416 360.458 522.074 360.507 525.756ZM407.321 523.356C405.163 519.366 405.108 517.085 409.522 515.153C416.858 520.098 409.788 520.154 407.321 523.356ZM348.904 515.753C350.504 515.753 350.504 515.753 352.105 515.753C352.105 522.651 352.423 518.986 350.854 526.719C345.154 525.075 348.904 520.221 348.904 515.753ZM345.303 527.357C342.902 527.357 342.902 527.357 340.501 527.357C340.501 524.316 340.157 521.216 341.302 518.354C346.329 519.652 345.303 522.688 345.303 527.357ZM726.616 519.354C722.782 523.828 718.794 525.851 713.412 528.157C713.632 521.123 714.287 523.781 713.012 519.955C719.814 519.655 719.814 519.655 726.616 519.354ZM656.995 519.755C654.529 537.335 654.108 536.548 662.997 551.364C663.875 545.902 662.927 544.962 667.799 544.962C667.226 557.188 664.363 561.468 669.799 572.57C672.515 567.714 671.114 570.695 673.4 563.368C681.586 566.642 672.03 575.501 672.6 581.773C670.872 581.698 669.688 579.747 667.999 579.372C660.435 577.694 654.493 581.894 654.195 572.57C660.396 572.57 660.396 572.57 666.598 572.57C662.091 559.741 659.853 557.98 646.992 559.767C647.417 551.276 649.879 552.067 658.596 551.364C651.602 541.411 648.24 536.966 636.189 535.359C637.935 529.54 638.2 531.026 645.392 531.358C643.591 526.557 643.591 526.557 641.791 521.755C647.193 526.557 647.193 526.557 652.594 531.358C653.157 527.26 653.247 521.504 656.995 519.755ZM743.021 520.155C741.314 523.569 741.421 526.783 741.421 530.558C732.691 527.066 732.756 519.299 743.021 520.155ZM332.099 520.555C337.319 521.425 338.423 525.539 333.712 528.42C332.357 523.251 332.896 525.873 332.099 520.555ZM314.694 522.956C323.546 526.587 311.62 535.349 306.091 534.559C309.652 531.146 313.567 530.623 314.093 525.356C312.293 525.356 312.293 525.356 310.492 525.356C310.492 526.957 310.492 526.957 310.492 528.557C305.64 524.817 309.781 520.94 314.694 522.956ZM324.897 522.555C327.297 522.555 327.297 522.555 329.698 522.555C329.416 534.235 324.897 531.974 324.897 522.555ZM750.623 538.56C750.774 541.001 747.962 542.777 747.422 545.162C747.006 547.001 750.999 551.227 751.424 551.764C752.524 549.964 752.524 549.964 753.624 548.163C758.683 549.428 754.931 563.82 755.825 569.369C758.17 564.465 758.782 559.767 764.627 559.767C762.364 566.489 757.619 571.798 759.826 578.972C764.427 575.371 764.427 575.371 769.029 571.77C767.719 576.15 767.702 579.466 763.127 581.923C757.655 584.862 757.484 578.018 754.374 576.421C751.236 574.81 747.146 575.942 744.271 573.871C741.858 572.132 742.724 570.798 742.621 567.769C747.822 568.569 747.822 568.569 753.024 569.369C751.254 558.044 739.593 564.633 737.419 553.765C742.021 554.565 742.021 554.565 746.622 555.365C747.448 544.136 733.818 550.908 733.818 541.361C738.02 542.161 738.02 542.161 742.221 542.962C741.621 539.961 741.621 539.961 741.02 536.96C745.069 537.769 743.75 536.635 745.422 539.761C746.199 537.168 750.317 533.59 750.623 538.56ZM514.953 558.966C511.466 568.694 512.399 573.588 518.954 581.373C509.438 579.87 503.297 562.254 514.953 558.966Z" fill="#000000" fill-rule="nonzero" opacity="1" stroke="none"/>
</g>
</svg>
