<?xml version="1.0" encoding="UTF-8" standalone="no"?>
<!DOCTYPE svg PUBLIC "-//W3C//DTD SVG 1.1//EN" "http://www.w3.org/Graphics/SVG/1.1/DTD/svg11.dtd">
<!-- Created with Vectornator (http://vectornator.io/) -->
<svg height="100%" stroke-miterlimit="10" style="fill-rule:nonzero;clip-rule:evenodd;stroke-linecap:round;stroke-linejoin:round;" version="1.1" viewBox="0 0 800 600" width="100%" xml:space="preserve" xmlns="http://www.w3.org/2000/svg" xmlns:xlink="http://www.w3.org/1999/xlink">
<defs/>
<clipPath id="ArtboardFrame">
<rect height="600" width="800" x="0" y="0"/>
</clipPath>
<g clip-path="url(#ArtboardFrame)" id="Layer-1">
<path d="M2.80012 4.00017C2.80012 302.213 2.80012 302.213 2.80012 600.425C401.617 600.425 401.617 600.425 800.434 600.425C799.834 300.813 799.834 300.813 799.234 1.20005C533.757 2.3155 268.278 3.1444 2.80012 4.00017ZM777.633 16.2007C778.633 31.5013 778.633 31.5013 779.633 46.802C776.266 44.6686 773.462 41.0725 769.533 40.4017C762.069 39.1274 754.399 40.9351 746.832 41.2017C752.432 34.2014 752.432 34.2014 758.032 27.2012C741.831 22.4009 741.831 22.4009 725.631 17.6007C730.431 27.6012 730.431 27.6012 735.231 37.6016C718.23 41.2017 718.23 41.2017 701.23 44.8019C704.997 51.5202 711.648 56.3003 715.53 62.9527C719.257 69.3388 720.931 76.7199 723.631 83.6035C710.73 88.1037 710.73 88.1037 697.83 92.6039C701.331 95.743 705.623 101.409 711.28 101.504C734.196 101.89 757.115 101.038 780.033 100.804C779.631 104.996 774.362 108.411 770.161 108.685C747.996 110.127 725.465 108.334 703.63 112.405C704.83 114.405 704.83 114.405 706.03 116.405C676.433 115.976 656.39 117.248 631.439 135.256C626.658 138.706 605.978 166.002 602.938 165.157C589.982 161.557 576.498 157.685 565.674 149.706C562.4 147.293 566.77 141.344 565.424 137.506C564.258 134.181 561.401 131.558 558.574 129.455C551.833 124.443 530.732 126.805 531.172 138.356C531.429 145.067 534.139 151.456 535.623 158.007C511.832 167.585 488.875 179.178 466.12 191.008C466.336 184.824 467.226 178.628 466.77 172.457C465.856 160.106 465.08 147.607 462.02 135.606C457.134 116.445 426.068 115.697 413.768 113.505C414.834 107.388 417.441 101.345 416.968 95.154C416.25 85.7734 401.354 82.955 398.167 74.1031C393.613 61.4551 396.417 47.1266 393.142 34.0889C390.231 22.5057 379.72 21.514 370.616 18.0008C506.287 17.1988 641.96 16.5997 777.633 16.2007ZM342.414 19.2008C327.243 21.8248 310.188 24.9189 299.85 38.2016C291.033 49.5302 300.401 60.7804 297.963 73.1531C295.715 84.5559 288.768 94.5398 285.212 105.604C283.764 110.109 285.468 115.578 283.024 119.63C275.319 132.405 252.989 143.245 239.61 146.006C237.11 132.006 237.11 132.006 234.61 118.005C214.876 122.005 195.514 128.924 175.407 130.006C156.038 131.048 136.281 119.336 117.505 124.205C85.4318 132.524 54.7287 145.546 22.801 154.407C22.601 86.6037 22.601 86.6037 22.4009 18.8008C182.408 19.0008 182.408 19.0008 342.414 19.2008ZM346.815 28.8012C363.987 26.1622 379.124 27.8421 381.216 47.602C379.216 47.202 379.216 47.202 377.216 46.802C378.216 49.6021 378.216 49.6021 379.216 52.4022C374.282 52.0081 355.84 50.0466 348.102 50.6396C335.97 51.5696 324.342 58.6007 312.313 55.9774C309.406 32.7227 328.756 31.5764 346.815 28.8012ZM779.633 52.4022C779.633 69.2029 779.633 69.2029 779.633 86.0036C773.159 81.2955 763.589 85.9277 755.632 86.8037C758.565 83.8702 761.537 80.9744 764.432 78.0033C778.462 63.6065 771.795 71.0461 762.832 57.6024C768.39 55.7012 773.863 53.5387 779.633 52.4022ZM753.232 54.8023C749.507 69.3616 749.068 83.6891 733.231 86.0036C740.356 64.5228 737.156 70.8358 723.231 56.0024C733.2 55.1227 743.223 54.8023 753.232 54.8023ZM390.417 76.6032C379.016 73.1031 379.016 73.1031 367.616 69.6029C369.361 75.2748 375.062 75.802 374.966 81.2034C368.837 82.7674 361.863 83.9376 357.815 89.4038C353.751 94.8919 354.163 105.407 347.115 107.655C336.03 111.19 337.023 94.3512 335.164 88.7538C334.499 86.7492 328.89 80.8054 330.214 77.8033C332.073 73.5905 337.673 72.3837 341.614 70.003C331.881 71.2009 314.473 80.7924 310.013 68.4029C323.867 64.36 390.295 48.5965 390.417 76.6032ZM330.214 134.806C321.576 150.847 297.638 127 295.012 117.405C294.42 115.238 294.592 111.412 295.162 109.642C298.793 98.384 306.291 73.5851 323.214 89.0038C327.988 93.3535 325.293 102.884 326.964 108.155C327.784 110.741 330.31 111.271 331.614 113.605C325.214 115.805 325.214 115.805 318.813 118.005C320.258 125.229 333.9 127.961 330.214 134.806ZM396.417 85.2036C396.009 104.266 401.982 131.616 377.216 132.006C369.841 132.122 366.23 133.2 362.415 127.205C369.75 124.783 372.723 122.687 373.216 114.805C367.82 114.856 363.133 116.289 358.815 113.205C374.882 98.2971 369.293 87.5622 396.417 85.2036ZM413.055 99.1542C414.486 107.081 406.349 120.01 404.217 99.8042C402.036 79.1308 411.879 92.6422 413.055 99.1542ZM333.214 120.005C335.614 119.405 335.614 119.405 338.014 118.805C364.831 117.267 342.199 131.736 333.214 120.005ZM780.033 117.605C780.033 120.805 780.033 120.805 780.033 124.005C763.232 123.805 763.232 123.805 746.432 123.605C753.227 115.45 771.392 117.722 780.033 117.605ZM732.481 121.655C728.112 127.922 718.057 126.093 711.23 125.605C713.871 117.684 726.089 118.326 732.481 121.655ZM712.03 152.406C700.149 152.615 687.791 154.395 677.179 160.282C670.513 163.979 648.814 184.28 641.127 183.208C626.92 181.225 614.577 164.599 627.277 153.056C640.796 140.769 657.997 133.966 675.229 129.005C710.496 127.292 708.583 126.057 712.03 152.406ZM739.231 130.406C747.763 130.186 756.299 130.139 764.832 130.006C760.346 135.797 728.59 139.231 724.431 131.606C729.065 129.868 734.283 130.533 739.231 130.406ZM362.765 184.658C363.944 178.813 365.283 172.992 366.916 167.257C373.59 143.803 377.148 156.908 395.767 145.906C402.397 141.988 400.415 138.167 404.617 135.206C406.312 134.011 408.583 133.798 410.655 133.706C434.798 132.624 450.946 135.265 451.219 161.207C445.661 160.873 440.718 157.454 435.668 155.107C424.137 149.746 409.22 156.66 400.117 163.807C397.85 165.587 395.647 167.513 393.854 169.77C384.926 181.006 377.085 193.086 368.016 204.209C365.858 206.854 364.145 206.593 361.528 206.721C359.553 200.233 361.513 190.867 362.765 184.658ZM351.302 144.594C341.064 148.006 331.6 139.94 344.615 135.206C352.232 132.435 362.93 140.718 351.302 144.594ZM553.223 147.606C545.548 151.018 536.483 141.14 544.223 136.206C549.807 132.646 563.122 143.207 553.223 147.606ZM763.632 137.606C763.632 144.226 727.524 144.814 724.631 139.606C737.544 138.217 750.676 138.104 763.632 137.606ZM779.633 137.606C779.833 152.606 779.833 152.606 780.033 167.607C774.926 164.21 771.954 161.519 766.132 160.507C757.847 159.066 744.786 164.489 738.631 157.257C750.505 155.608 762.61 156.774 774.433 158.007C775.725 149.939 776.575 144.74 779.633 137.606ZM186.758 173.957C187.931 176.483 187.795 179.888 187.108 182.458C182.442 199.909 179.062 209.915 165.957 222.259C161.348 226.601 155.543 229.623 151.231 234.26C140.543 245.755 141.331 254.746 123.755 256.311C95.8642 258.794 82.8218 252.03 67.8529 227.51C62.0167 217.949 54.051 201.245 59.0025 189.408C70.9707 160.797 89.686 145.231 119.005 141.406C145.793 137.911 173.737 145.93 186.758 173.957ZM764.432 150.806C744.432 151.206 744.432 151.206 724.431 151.606C727.985 145.446 760.315 141.749 764.432 150.806ZM208.459 193.358C223.897 180.764 240.187 169.247 256.211 157.407C257.868 156.182 263.822 150.975 267.211 153.406C281.894 163.94 292.505 169.135 278.962 183.808C268.235 195.429 256.754 206.354 246.285 218.209C242.947 221.99 236.968 228.203 237.51 234.51C238.256 243.198 248.19 248.317 254.011 254.811C245.065 256.444 236.155 258.293 227.172 259.711C209.641 262.478 217.938 255.121 211.959 240.873C208.465 232.546 194.897 230.134 188.008 228.61C187.089 214.831 198.723 201.301 208.459 193.358ZM722.031 159.207C710.956 173.302 696.415 165.261 705.292 162.669C708.822 161.639 712.459 160.875 715.83 159.407C720.748 158.389 719.396 158.153 722.031 159.207ZM757.532 166.957C751.142 177.252 742.266 174.834 734.431 168.807C742.004 167.43 749.878 167.368 757.532 166.957ZM317.113 176.595C327.377 184.81 337.563 193.142 347.315 201.959C350.371 204.722 343.8 208.243 340.614 205.809C329.552 197.354 309.566 184.145 301.213 173.007C302.413 171.407 302.413 171.407 303.613 169.807C311.271 172.71 314.375 174.403 317.113 176.595ZM577.224 167.607C587.494 169.229 598.486 172.161 597.225 184.008C587.926 182.458 581.333 175.824 577.224 167.607ZM565.024 174.607C570.686 179.298 576.277 184.076 581.775 188.958C584.529 191.404 593.859 198.629 593.625 203.609C592.949 218.027 590.72 230.6 592.425 245.21C587.392 244.927 582.338 244.888 577.324 244.36C568.799 243.462 560.372 241.726 551.836 240.935C537.056 239.566 527.433 247.115 529.922 227.76C531.128 218.386 532.228 208.974 534.21 199.733C536.566 188.747 541.413 176.644 550.023 169.207C560.095 170.826 559.669 170.171 565.024 174.607ZM780.033 170.007C779.833 174.807 779.833 174.807 779.633 179.608C771.941 178.994 766.095 179.097 759.232 176.207C765.909 173.363 773.029 171.823 780.033 170.007ZM766.032 216.759C764.463 241.12 767.256 266.504 759.712 289.72C757.137 297.646 715.121 297.695 708.18 296.113C694.479 292.988 673.197 287.122 665.628 273.412C663.662 269.849 662.697 265.786 661.828 261.811C658.552 246.834 651.302 218.396 656.29 201.996C661.443 185.056 692.204 174.509 708.03 173.607C704.43 177.408 704.43 177.408 700.83 181.208C710.203 178.585 719.898 176.489 729.631 176.407C717.63 185.208 717.63 185.208 705.63 194.008C732.338 186.663 743.677 182.324 767.632 194.808C765.338 201.777 766.504 209.438 766.032 216.759ZM435.318 235.71C415.568 257.383 384.777 269.772 355.615 264.811C356.47 259.987 354.442 230.325 354.915 229.81C362.105 221.977 372.827 218.219 380.854 211.246C393.368 200.376 400.862 185.879 416.618 178.608C459.221 186.327 456.872 212.058 435.318 235.71ZM516.572 209.859C515.41 215.202 517.438 236.066 510.622 238.21C503.888 240.328 496.929 241.649 490.121 243.51C487.268 244.29 479.992 249.71 477.383 247.96C475.055 246.399 475.064 242.465 475.02 240.31C474.855 232.212 474.572 224.097 475.02 216.009C475.913 199.878 503.059 186.997 514.622 182.408C541.903 171.579 518.7 200.078 516.572 209.859ZM634.077 200.758C627.328 209.301 624.258 211.389 624.026 223.609C609.939 219.767 607.36 195.728 615.026 185.408C621.11 184.766 638.483 195.182 634.077 200.758ZM326.214 227.01C320.998 229.739 314.685 224.408 308.813 223.984C300.829 223.408 292.812 224.535 284.812 224.81C287.1 229.481 289.68 234.019 291.675 238.823C293.147 242.367 284.205 241.794 280.412 241.21C275.966 240.526 271.527 239.677 267.211 238.41C264.453 237.6 244.508 229.686 251.261 222.922C263.462 210.701 276.341 199.092 287.612 186.008C297.217 186.643 344.692 217.341 326.214 227.01ZM641.627 258.011C631.498 247.881 623.355 232.02 638.827 222.009C644.224 223.228 645.9 252.598 641.627 258.011ZM621.226 255.411C621.387 261.587 609.169 252.987 607.826 252.011C603.372 248.774 604.65 244.799 605.626 240.01C608.1 227.863 621.064 249.161 621.226 255.411ZM309.613 237.21C320.966 237.69 330.001 236.722 337.414 246.06C343.651 253.916 343.665 274.207 328.901 270.024C311.505 265.095 300.833 263.506 287.162 254.361C291.642 247.06 304.249 252.656 312.813 252.811C311.88 247.08 309.613 243.165 309.613 237.21ZM183.008 240.81C188.466 242.825 192.463 247.485 195.808 252.011C198.173 255.21 202.911 261.091 202.409 265.611C201.67 272.259 197.26 277.962 194.408 284.012C190.393 280.268 181.794 266.027 180.208 266.411C171.229 268.584 160.98 278.043 158.807 267.611C146.728 273.651 153.332 263.016 158.807 258.011C156.207 258.211 156.207 258.211 153.607 258.411C150.456 244.76 172.543 236.946 183.008 240.81ZM304.313 277.162C323.802 284.313 346.662 285.317 367.016 283.612C385.245 282.085 404.133 273.024 418.618 262.211C423.025 258.921 438.765 241.885 443.669 242.56C440.339 250.798 434.8 257.994 429.618 265.211C434.222 265.388 435.75 263.1 439.281 266.111C431.45 272.262 431.45 272.262 423.618 278.412C427.218 280.412 427.218 280.412 430.818 282.412C423.218 287.412 423.218 287.412 415.618 292.412C420.373 291.76 425.385 291.155 430.018 292.412C427.556 297.299 423.033 300.925 418.818 304.413C427.124 303.257 427.124 303.257 435.431 302.1C436.903 305.687 437.248 304.88 433.118 309.563C429.353 313.833 425.911 318.705 421.018 321.614C411.949 327.003 401.095 328.852 391.917 334.052C375.615 343.287 362.791 359.871 344.615 364.415C341.74 365.134 334.945 342.853 329.214 336.414C317.829 323.623 301.356 315.347 292.412 300.813C300.013 300.813 300.013 300.813 307.613 300.813C294.659 295.557 279.698 292.506 273.612 278.812C278.212 279.812 278.212 279.812 282.812 280.812C276.595 275.288 270.15 269.44 266.411 262.011C278.55 263.36 296.063 274.134 304.313 277.162ZM22.801 245.61C28.549 301.738 40.1753 357.114 47.802 413.017C50.5195 432.936 49.6558 453.222 52.1522 473.17C56.7947 510.267 63.5194 547.073 69.2029 584.025C45.8019 583.825 45.8019 583.825 22.4009 583.625C22.601 414.618 22.601 414.618 22.801 245.61ZM476.033 309.563C475.007 309.425 473.917 309.329 473.02 308.813C451.688 296.553 456.447 271.528 477.82 263.411C486.293 260.194 489.756 261.511 499.621 261.761C479.376 269.353 488.147 293.126 503.421 302.013C508.377 304.896 515.082 302.641 519.272 305.663C523.811 308.936 531.914 313.356 535.623 317.213C515.759 314.663 495.881 312.226 476.033 309.563ZM532.023 262.511C527.46 266.485 526.144 267.547 524.222 272.812C519.46 266.101 512.584 263.129 504.821 261.211C513.899 261.23 523.643 259.02 532.023 262.511ZM587.225 264.411C576.751 270.044 576.224 274.91 576.224 286.412C568.845 276.924 558.561 267.853 548.223 261.611C561.018 258.964 574.675 261.722 587.225 264.411ZM556.424 274.412C552.145 274.839 547.42 277.298 543.423 277.412C538.44 277.554 534.507 274.005 529.222 274.412C534.659 261.986 549.131 263.472 556.424 274.412ZM502.971 296.463C499.769 294.175 496.79 291.035 494.821 287.612C480.406 262.557 518.401 260.828 520.572 277.112C511.957 280.941 514.47 293.442 516.422 300.413C511.362 300.413 507.194 299.479 502.971 296.463ZM608.226 298.413C593.264 309.178 569.784 280.694 584.825 270.811C598.885 261.573 620.667 289.461 608.226 298.413ZM630.777 281.862C641.181 293.234 632.587 311.829 620.464 317.438C598.472 327.614 564.941 319.956 542.823 317.213C545.561 316.949 550.085 314.323 552.523 314.913C569.144 318.936 585.505 316.548 580.425 294.412C607.842 318.174 630.614 293.99 606.426 271.011C615.717 272.842 624.071 274.533 630.777 281.862ZM173.607 274.012C175.244 273.249 180.897 280.852 178.308 282.962C174.393 286.151 168.92 287.875 166.295 292.187C163.056 297.505 162.984 304.23 160.557 309.963C154.962 323.178 140.029 334.851 129.218 342.94C118.54 350.928 114.459 348.318 109.805 337.214C107.422 331.53 102.053 325.19 104.454 319.514C107.65 311.961 118.711 311.391 125.63 306.988C134.938 301.065 143.515 294.061 152.606 287.812C159.51 283.067 166.014 277.549 173.607 274.012ZM543.523 282.862C546.369 282.773 548.47 279.813 550.823 279.012C556.3 277.149 564.631 281.142 568.624 284.612C575.465 290.558 582.099 307.181 570.824 312.013C563.897 314.982 560.095 311.193 553.973 308.926C545.859 305.92 543.455 318.6 528.622 307.813C519.364 301.08 513.515 284.728 525.622 279.412C532.468 276.406 537.278 283.057 543.523 282.862ZM260.411 283.612C267.804 287.024 269.16 292.957 274.612 298.813C279.735 304.315 286.394 306.641 289.612 313.613C274.119 311.002 263.283 298.689 260.411 283.612ZM82.6035 290.812C70.014 300.569 66.0028 288.896 66.0028 306.813C60.5987 301.032 54.7191 294.638 51.4022 287.412C61.3083 286.48 73.1935 287.12 82.6035 290.812ZM669.878 313.413C672.491 322.268 663.249 322.617 662.028 309.013C659.728 283.385 668.358 308.261 669.878 313.413ZM216.722 323.351C209.135 325.237 168.14 321.953 166.807 314.813C166.152 311.304 171.327 306.779 172.607 303.013C187.022 300.384 215.827 311.119 216.722 323.351ZM257.211 312.613C274.411 323.135 293.007 332.437 308.913 344.865C312.492 347.661 327.786 361.42 323.214 367.266C313.072 380.231 291.249 371.153 279.162 366.716C272.714 364.348 266.377 361.682 259.911 359.365C259.371 359.172 246.145 357.104 245.512 352.221C244.119 341.475 249.488 323.561 253.411 314.013C253.989 312.607 255.322 311.458 257.211 312.613ZM624.989 332.402C629.031 331.061 650.357 318.226 651.028 318.613C658.316 322.818 635.458 335.224 634.227 335.814C616.712 344.207 586.166 346.949 568.524 341.714C568.474 340.064 568.474 340.064 568.424 338.414C588.881 338.069 605.805 338.762 624.989 332.402ZM458.819 317.613C476.782 322.382 494.599 331.08 513.022 333.614C524.032 335.128 529.063 331.321 531.623 340.814C514.437 340.533 466.232 334.909 458.819 317.613ZM92.7539 333.464C93.9189 335.531 100.359 345.39 95.8291 347.165C78.5662 353.93 49.497 337.706 74.6032 323.214C85.0437 317.187 86.8613 323.009 92.7539 333.464ZM748.832 327.214C732.817 324.961 721.077 329.976 705.23 330.414C711.22 321.429 744.342 313.053 748.832 327.214ZM185.808 328.214C189.6 328.47 193.389 328.776 197.171 329.151C199.928 329.425 208.873 330.313 211.895 331.708C216.607 333.881 211.196 342.867 207.871 343.615C200.872 345.188 193.533 342.853 186.408 342.014C177.089 340.918 149.838 339.826 159.407 327.214C164.311 320.75 179.248 327.77 185.808 328.214ZM682.429 342.564C680.545 343.184 674.205 331.114 673.429 329.014C670.084 319.968 693.106 339.055 682.429 342.564ZM418.118 358.428C407.624 370.403 383.804 370.296 370.392 366.159C372.099 352.696 404.181 338.566 415.218 334.214C436.516 334.483 421.007 355.131 418.118 358.428ZM758.432 332.414C763.684 335.341 760.398 332.505 762.682 339.814C768.433 358.221 768.084 376.024 749.432 387.016C741.713 391.565 722.571 389.885 716.43 390.017C716.992 388.519 717.272 386.855 718.63 385.816C723.206 382.318 728.311 379.492 732.606 375.653C739.678 369.333 740.331 366.849 744.031 359.615C741.231 359.015 741.231 359.015 738.431 358.415C740.912 347.902 751 340.144 758.432 332.414ZM730.431 344.415C731.637 344.551 728.481 354.519 728.231 355.015C724.825 361.763 714.722 378.927 706.03 378.816C697.737 378.71 688.729 355.104 694.742 349.165C698.144 345.804 704.784 345.719 709.03 345.415C716.153 344.904 723.335 343.611 730.431 344.415ZM186.408 355.615C180.131 381.77 105.689 375.675 140.006 354.215C160.112 345.432 175.089 353.895 186.408 355.615ZM71.403 382.416C91.8664 384.961 112.642 389.412 133.106 386.866C155.793 384.044 174.553 376.58 195.408 367.616C202.372 364.622 209.313 361.565 216.372 358.803C218.251 358.067 218.554 358.706 220.009 359.615C214.869 364.254 215.574 364.075 206.609 368.016C178.81 380.235 145.532 393.641 114.355 391.067C99.4463 389.835 82.5455 392.369 70.003 384.216C70.4696 383.616 70.6487 382.322 71.403 382.416ZM85.6036 362.015C118.199 364.021 81.2626 386.506 71.403 361.615C69.6591 357.213 80.8772 361.724 85.6036 362.015ZM239.01 393.017C239.922 387.296 239.053 380.587 242.61 376.016C244.749 373.268 254.989 375.895 255.211 379.816C255.862 391.332 253.995 402.938 255.111 414.418C256.155 425.16 261.17 434.753 261.011 445.619C256.511 446.019 256.511 446.019 252.011 446.419C251.414 425.534 235.678 413.912 239.01 393.017ZM424.818 378.216C427.28 375.241 432.664 378.282 436.331 379.491C443.611 381.892 450.807 384.557 457.919 387.416C472.641 393.336 464.062 405.226 459.219 414.418C453.5 410.212 454.577 412.727 453.619 408.417C453.019 418.418 453.019 418.418 452.419 428.418C437.078 421.415 408.737 397.647 424.818 378.216ZM340.814 385.716C350.437 398.848 360.125 413.436 362.315 429.568C364.817 447.994 356.422 466.301 354.265 484.771C353.67 489.87 354.426 495.397 358.365 499.121C369.516 509.662 402.104 500.157 410.267 488.421C415.868 480.369 419.451 471.087 424.043 462.42C429.307 467.094 433.569 469.329 434.218 477.62C435.807 497.898 434.745 518.302 435.618 538.623C436.055 548.788 431.845 564.17 440.969 568.674C448.389 572.337 456.603 574.108 464.42 576.824C465.22 562.224 465.22 562.224 466.02 547.623C488.096 554.323 510.414 560.272 532.248 567.724C538.511 569.862 544.536 575.575 546.023 582.025C312.413 582.825 312.413 582.825 78.8033 583.625C81.6868 580.575 86.1506 578.464 87.4537 574.474C92.0076 560.531 86.1613 542.259 95.8966 531.286C109.282 516.2 131.561 512.385 149.931 504.059C151.044 503.555 153.172 504.023 153.406 505.221C155.282 514.827 152.686 536.372 158.657 538.56C166.651 541.49 175.662 540.099 184.17 539.785C206.73 538.953 228.905 535.968 250.736 530.297C257.324 528.586 246.64 514.022 252.073 509.922C269.076 497.089 292.31 495.248 310.713 484.521C323.622 476.996 317.571 457.78 318.838 447.894C321.536 426.856 326.155 406.109 329.814 385.216C333.481 385.383 338.645 382.756 340.814 385.716ZM629.352 397.554C647.183 394.108 664.163 386.278 682.229 384.416C685.902 384.038 686.186 391.695 686.217 392.904C686.568 406.613 686.482 424.897 671.178 430.793C648.818 439.408 626.318 440.759 602.638 440.994C590.475 441.114 578.31 441.069 566.149 440.819C558.352 440.658 550.306 441.215 542.823 439.019C542.823 433.553 557.483 426.264 559.224 415.218C554.123 415.418 554.123 415.418 549.023 415.618C547.579 409.842 554.611 403.876 556.824 398.417C580.976 399.532 605.613 402.143 629.352 397.554ZM499.421 395.417C501.75 404.215 486.052 412.777 485.221 392.817C484.963 386.644 497.967 389.923 499.421 395.417ZM505.621 390.817C506.346 390.385 519.833 391.853 519.222 396.879C517.96 407.264 505.109 413.912 505.221 399.017C505.242 396.28 503.27 392.216 505.621 390.817ZM533.323 395.542C534.065 399.499 533.898 404.081 536.423 407.217C529.222 411.217 529.222 411.217 522.022 415.218C521.477 407.59 524.826 397.156 533.323 395.542ZM769.033 399.617C759.52 409.65 748.083 424.776 745.032 420.818C741.382 416.084 762.68 399.773 767.432 397.617C771.389 395.822 771.311 397.214 769.033 399.617ZM693.779 432.493C707.416 421.913 695.786 411.182 716.23 408.217C745.835 410.141 703.394 440.555 693.779 432.493ZM315.851 411.13C314.956 413.184 311.57 412.461 309.413 413.067C299.514 415.852 279.273 426.193 270.786 415.193C274.883 410.214 293.124 411.135 299.813 409.817C310.177 407.62 318.096 405.976 315.851 411.13ZM402.617 409.017C407.555 423.83 357.641 418.5 374.016 414.318C377.988 413.303 382.016 412.517 386.016 411.617C400.392 409.192 400.392 409.192 402.617 409.017ZM202.209 411.417C197.679 417 184.653 424.466 181.408 426.618C173.948 431.563 167.136 438.493 158.407 440.469C154.338 433.348 156.155 437.09 153.006 429.218C167.864 422.754 185.094 408.652 202.209 411.417ZM484.22 415.818C485.188 422.103 483.56 433.757 475.62 434.418C474.609 427.945 476.335 416.944 484.22 415.818ZM141.206 420.618C136.194 423.625 130.117 424.319 124.555 426.118C107.855 431.52 91.3674 428.647 74.8032 424.418C77.4418 416.502 81.2952 420.543 91.2039 420.668C104.134 420.83 121.212 422.625 134.406 418.018C137.829 416.937 144.994 418.345 141.206 420.618ZM485.221 438.019C486.506 431.165 488.885 427.172 493.621 422.018C506.249 413.659 498.063 437.133 485.221 438.019ZM217.409 422.218C222.159 420.406 247.718 437.901 231.01 446.619C220.454 452.126 206.922 451.313 195.408 451.419C189.027 451.478 171.863 452.27 184.508 442.681C194.328 435.234 197.25 433.162 206.809 427.418C210.182 425.391 213.732 423.621 217.409 422.218ZM377.616 424.018C383.293 424.018 405.57 419.243 406.817 429.218C398.339 429.375 383.201 432.954 377.616 424.018ZM511.584 425.656C512.252 428.132 512.369 430.014 510.947 432.293C497.6 453.68 498.921 434.984 508.222 426.818C510.828 425.662 510.828 425.662 511.584 425.656ZM523.622 428.818C531.1 436.296 522.47 447.651 514.022 448.419C514.022 441.502 516.838 431.998 523.622 428.818ZM709.93 445.919C711.163 442.753 721.037 438.268 721.731 437.769C727.401 433.686 728.4 431.103 734.431 429.218C731.601 446.06 725.982 459.979 726.431 477.22C722.305 471.568 706.476 454.788 709.93 445.919ZM304.813 429.618C303.112 442.254 281.665 440.09 275.612 432.018C285.499 432.137 295.021 429.618 304.813 429.618ZM427.618 449.219C421.069 449.546 416.143 438.265 423.018 435.418C434.587 430.628 429.901 449.105 427.618 449.219ZM388.316 437.319C389.818 437.317 398.825 436.054 401.417 438.219C412.841 447.761 374.601 482.279 374.416 446.219C374.395 442.121 373.18 438.056 376.616 436.018C380.233 433.873 384.272 437.324 388.316 437.319ZM92.6539 511.822C93.6337 500.474 94.6968 489.128 96.1341 477.828C98.9386 455.78 125.603 448.348 143.206 443.419C154.425 489.895 135.171 498.663 95.279 519.359C92.9349 516.687 92.3145 515.753 92.6539 511.822ZM743.231 442.819C744.031 443.219 744.031 443.219 744.832 443.619C742.197 456.72 743.062 471.217 736.431 482.82C739.831 462.82 739.831 462.82 743.231 442.819ZM458.019 450.819C456.048 463.69 452.303 476.39 455.219 489.221C447.807 489.221 448.254 455.326 458.019 450.819ZM707.58 461.87C713.95 474.177 724.133 486.372 723.631 500.221C723.311 509.02 722.361 517.795 721.193 526.522C720.034 535.185 710.515 539.681 714.23 548.023C725.112 572.456 755.41 583.5 754.132 546.623C761.422 548.158 760.703 558.664 766.432 563.224C759.515 546.773 752.206 530.482 745.682 513.872C738.885 496.567 774.329 505.855 775.133 501.021C777.673 485.751 778.266 470.22 779.833 454.819C780.333 517.822 780.333 517.822 780.833 580.825C675.829 581.425 675.829 581.425 570.824 582.025C571.945 578.237 572.204 570.825 577.749 569.512C585.835 567.597 594.298 567.701 602.425 565.974C615.486 563.199 628.115 558.545 641.227 556.024C646.788 554.954 647.062 565.752 649.477 570.874C653.248 578.87 656.36 577.89 664.428 577.424C664.528 572.374 665.449 567.273 664.728 562.274C662.01 543.433 649.037 523.674 655.778 505.871C657.269 501.934 661.629 499.628 663.428 495.821C667.303 487.623 670.122 478.935 672.628 470.22C674.157 464.905 672.212 458.675 671.228 453.619C688.427 452.78 699.014 445.319 707.58 461.87ZM304.013 453.019C305.305 453.176 298.627 461.616 298.413 461.82C292.805 467.157 283.073 472.812 275.012 472.62C265.885 472.403 267.868 461.99 271.812 456.619C274.638 452.771 282.807 452.739 286.812 452.619C292.545 452.448 298.32 452.327 304.013 453.019ZM476.02 455.619C479.457 459.22 478.068 456.807 478.42 463.62C481.245 461.068 479.801 462.895 481.22 457.219C485.861 458.567 485.077 461.251 484.821 465.62C489.034 461.582 493.457 458.168 494.421 466.02C496.892 464.686 504.073 458.793 503.821 465.42C503.74 467.562 504.349 486.567 499.021 487.221C494.868 487.73 465.548 482.231 465.32 481.72C463.352 477.318 465.004 452.096 472.42 463.22C474.22 459.419 474.22 459.419 476.02 455.619ZM86.2036 467.32C83.3077 473.434 76.9642 482.158 70.753 484.971C69.3686 477.042 68.0758 469.07 67.8029 461.02C81.5679 466.025 67.0723 470.696 86.2036 467.32ZM205.409 465.82C211.977 464.676 218.534 459.311 225.16 461.27C224.36 465.381 217.794 466.851 214.209 467.62C200.749 470.508 178.992 473.738 167.207 464.42C179.893 463.01 192.568 468.056 205.409 465.82ZM514.022 463.22C524.319 466.124 517.222 484.824 517.222 492.821C508.616 485.756 513.123 473.111 514.022 463.22ZM605.063 467.895C613.763 468.034 622.47 467.844 631.164 467.495C638.702 467.192 647.33 460.957 653.628 467.22C624.633 472.983 593.572 476.547 564.024 473.02C555.267 471.975 538.823 472.381 538.823 466.02C560.903 466.645 582.977 467.542 605.063 467.895ZM289.212 486.021C285.09 487.18 263.274 485.562 275.362 482.17C278.714 481.23 282.131 480.535 285.487 479.608C289.087 478.613 292.362 477.01 295.613 475.22C311.445 466.5 300.102 482.958 289.212 486.021ZM249.411 472.22C254.793 475.808 257.307 495.461 249.633 495.753C247.061 487.999 248.567 480.237 249.411 472.22ZM385.866 485.321C389.911 486.376 393.839 484.358 397.854 484.408C404.499 484.49 395.24 494.566 388.366 491.721C385.98 490.733 374.484 488.405 376.416 484.421C378.298 480.539 381.367 484.147 385.866 485.321ZM464.42 495.221C473.557 499.137 484.422 497.498 494.083 501.521C488.912 506.825 464.42 503.51 464.42 495.221ZM471.52 512.872C483.379 512.992 493.62 513.527 505.621 514.022C505.171 518.147 505.171 518.147 504.721 522.272C485.171 524.747 485.171 524.747 465.62 527.222C465.74 518.073 462.607 512.781 471.52 512.872ZM564.024 518.822C550.823 517.822 550.823 517.822 537.623 516.822C538.303 510.02 563.068 511.175 564.024 518.822ZM175.607 519.222C189.055 519.485 201.009 519.466 214.209 517.622C220.091 516.8 228.42 512.09 232.01 516.822C219.512 527.757 185.68 529.616 173.207 519.222C174.007 519.222 174.808 519.206 175.607 519.222ZM623.226 516.622C629.568 517.655 638.93 541.158 625.426 535.523C620.647 533.528 615.908 531.434 611.226 529.222C604.966 526.266 598.705 523.179 593.025 519.222C593.525 518.122 593.525 518.122 594.025 517.022C606.359 516.477 614.902 515.265 623.226 516.622ZM517.422 530.222C517.522 539.323 517.522 539.323 517.622 548.423C508.012 546.4 482.222 541.092 477.22 534.423C489.638 534.423 505.931 526.775 517.422 530.222ZM583.225 533.623C597.324 538.283 613.845 539.252 625.026 549.023C612.836 558.223 595.119 555.3 580.025 557.624C580.025 549.339 583.225 541.82 583.225 533.623ZM545.223 535.623C552.583 539.068 550.058 553.073 547.693 559.524C541.258 559.126 542.191 546.1 546.423 544.023C545.356 541.176 545.223 538.656 545.223 535.623Z" fill="#000000" fill-rule="nonzero" opacity="1" stroke="none"/>
</g>
</svg>
