<?xml version="1.0" encoding="UTF-8" standalone="no"?>
<!DOCTYPE svg PUBLIC "-//W3C//DTD SVG 1.1//EN" "http://www.w3.org/Graphics/SVG/1.1/DTD/svg11.dtd">
<!-- Created with Vectornator (http://vectornator.io/) -->
<svg height="100%" stroke-miterlimit="10" style="fill-rule:nonzero;clip-rule:evenodd;stroke-linecap:round;stroke-linejoin:round;" version="1.1" viewBox="0 0 800 600" width="100%" xml:space="preserve" xmlns="http://www.w3.org/2000/svg" xmlns:xlink="http://www.w3.org/1999/xlink">
<defs/>
<g id="Layer-1">
<path d="M2.80012 594.825C400.017 594.025 400.017 594.025 797.234 593.225C797.234 298.013 797.234 298.013 797.234 2.80012C400.017 2.80012 400.017 2.80012 2.80012 2.80012C2.80012 298.813 2.80012 298.813 2.80012 594.825ZM776.833 21.2009C776.833 35.0015 776.833 35.0015 776.833 48.8021C772.981 47.0511 772.357 42.4511 768.358 41.0142C762.811 39.0219 749.705 41.6502 744.432 42.0018C747.54 37.0009 751.809 33.1804 755.232 28.4012C747.544 27.4155 740.145 24.456 732.581 22.651C754.707 21.9259 754.707 21.9259 776.833 21.2009ZM612.026 21.6009C609.31 28.0097 606.475 34.4395 604.826 41.2017C609.645 38.1351 615.423 34.6215 616.426 28.4012C617.626 28.6012 617.626 28.6012 618.826 28.8012C617.909 31.4513 617.564 34.3746 616.076 36.7516C611.829 43.5367 599.727 50.8319 604.076 57.5524C607.389 54.8476 611.584 52.0416 615.626 50.8022C614.931 54.0033 611.673 56.0543 609.351 58.365C607.674 60.0332 612.567 62.7675 612.426 64.4027C612.178 67.2704 611.381 70.0879 610.426 72.8031C606.502 83.9527 596.571 92.1128 591.225 102.804C595.122 100.487 598.883 97.7068 603.226 96.4041C602.011 107.461 602.706 107.082 597.625 119.205C595.48 124.324 594.287 118.239 590.525 123.843C584.304 133.108 583.446 148.443 572.999 152.369C566.039 154.985 522.432 158.383 520.722 142.656C528.295 143.897 531.158 147.747 539.673 148.456C542.824 141.589 541.479 145.758 542.423 135.606C536.433 135.569 530.414 133.393 525.222 130.406C528.959 126.669 536.049 132.591 541.373 128.405C545.944 124.811 545.7 114.071 541.185 110.742C538.118 113.578 530.52 120.031 526.422 116.105C529.802 112.01 537.087 111.522 539.223 106.605C540.251 104.236 538.851 101.179 540.073 98.9042C543.743 92.0694 549.753 86.6946 553.548 79.9284C556.767 74.1907 554.023 70.4171 553.323 64.7027C552.392 57.0892 562.048 58.5873 557.349 50.8147C566.757 43.8025 566.281 32.7378 565.624 22.0009C573.024 22.0009 573.024 22.0009 580.425 22.0009C576.059 30.2526 568.188 38.7026 569.774 47.902C572.926 44.4565 575.786 39.3369 580.425 38.8016C580.425 53.7892 562.756 62.6261 560.824 78.4033C563.482 76.9221 566.828 74.4926 569.574 75.8032C567.053 85.368 562.538 94.6557 561.624 104.404C571.318 103.613 576.1 81.0948 578.387 72.4406C579.306 74.8219 579.306 74.8219 580.225 77.2033C590.416 61.5009 584.803 42.1631 588.225 23.601C596.114 22.5312 604.069 21.8662 612.026 21.6009ZM634.427 21.6009C638.827 21.6009 638.827 21.6009 643.227 21.6009C640.227 29.0012 640.227 29.0012 637.227 36.4015C640.827 35.4015 640.827 35.4015 644.427 34.4015C639.027 45.2019 639.027 45.2019 633.627 56.0024C638.827 52.0022 638.827 52.0022 644.027 48.002C647.936 57.7744 642.358 54.6444 636.427 59.0025C631.944 62.2969 628.693 67.0028 624.826 71.003C631.427 70.503 631.427 70.503 638.027 70.003C636.258 77.9846 636.258 77.9846 634.489 85.9661C638.258 83.9848 638.258 83.9848 642.027 82.0035C640.041 91.4364 642.916 88.8895 635.027 91.1539C637.127 95.654 637.127 95.654 639.227 100.154C636.36 101.571 632.459 101.784 630.627 104.404C625.952 111.091 620.437 119.804 622.826 127.605C629.027 122.005 629.027 122.005 635.227 116.405C634.148 121.013 634.256 126.075 631.989 130.231C625.662 141.829 616.615 151.753 609.776 163.057C609.363 163.739 610.476 164.49 610.826 165.207C617.026 161.607 617.026 161.607 623.226 158.007C621.886 163.639 620.778 169.357 618.826 174.807C615.764 174.72 615.764 174.72 612.701 174.632C613.676 177.224 616.324 179.728 615.626 182.408C614.621 186.267 611.355 189.336 608.226 191.808C595.148 202.138 580.958 210.976 567.324 220.559C568.074 222.384 568.074 222.384 568.824 224.209C576.424 222.309 576.424 222.309 584.025 220.409C585.562 233.171 565.702 229.895 563.624 241.61C568.624 241.81 568.624 241.81 573.624 242.01C572.824 244.41 572.824 244.41 572.024 246.81C569.091 246.81 565.574 245.055 563.224 246.81C554.117 253.615 546.735 262.526 539.385 271.199C538.791 271.9 540.044 272.916 540.373 273.774C547.798 270.293 547.798 270.293 555.223 266.811C552.544 271.724 552.109 278.89 547.186 281.549C539.45 285.729 529.808 286.252 521.072 285.262C497.835 282.629 475.568 274.13 452.419 270.811C446.828 270.01 441.031 271.398 435.618 273.012C426.388 275.764 417.348 279.341 408.817 283.812C401.399 287.7 399.32 297.86 397.667 304.713C392.255 327.148 388.801 350.167 387.616 373.216C370.512 371.306 353.131 368.562 337.214 362.015C336.214 375.016 336.214 375.016 335.214 388.016C327.214 384.083 317.535 382.502 311.213 376.216C296.314 361.4 289.373 339.234 272.962 326.114C255.745 312.35 216.351 312.363 205.009 287.212C213.309 286.212 213.309 286.212 221.609 285.212C218.809 290.812 218.809 290.812 216.009 296.413C216.809 296.213 217.771 296.334 218.409 295.813C227.049 288.756 236.376 282.296 243.648 273.837C250.295 266.104 243.018 253.159 245.66 243.31C247.339 237.056 253.194 232.777 256.961 227.51C262.899 229.166 262.899 229.166 268.836 230.822C269.228 223.484 266.414 215.216 270.011 208.809C276.264 197.674 284.33 184.622 296.656 181.281C307.667 178.297 318.408 188.295 328.864 192.858C330.282 193.477 330.194 196.078 331.664 196.558C333.123 197.034 334.597 195.658 336.064 195.208C334.612 202.609 330.904 211.486 335.014 217.809C338.914 207.509 338.914 207.509 342.815 197.208C357.49 200.446 372.647 201.984 386.841 206.921C388.916 207.643 388.158 211.113 388.816 213.209C391.979 210.328 391.979 210.328 395.142 207.446C397.163 208.763 398.794 211.482 401.204 211.396C418.953 210.768 437.026 207.639 453.419 200.808C430.101 200.079 430.101 200.079 406.783 199.35C407.674 187.296 403.31 179.525 407.717 168.707C422.28 175.699 435.803 185.5 451.407 189.683C459.35 191.813 467.81 185.705 475.933 186.995C489.621 189.169 501.913 196.985 515.472 199.858C524.307 201.731 532.059 192.157 540.973 190.708C545.786 189.926 550.372 194.493 555.223 194.008C567.083 192.824 579.185 190.762 590.025 185.808C594.325 183.843 597.838 179.01 598.325 174.307C599.018 167.629 592.539 161.496 593.238 154.819C593.929 148.204 600.69 143.477 602.225 137.006C603.463 131.791 599.95 126.148 601.275 120.955C602.482 116.23 607.884 113.431 609.426 108.805C610.192 106.507 607.473 104.167 607.676 101.754C608.109 96.601 609.281 91.4323 611.288 86.6662C612.859 82.9366 617.268 80.6349 618.226 76.7032C619.239 72.5492 616.42 68.2091 616.826 63.9527C618.032 51.3004 620.712 47.5393 625.626 37.6016C628.639 40.483 628.639 40.483 631.652 43.3643C633.021 36.1804 634.427 28.9141 634.427 21.6009ZM644.827 91.9539C645.754 87.9063 649.602 92.7627 649.828 86.0036C649.882 84.3622 647.135 83.8278 646.827 82.4035C646.507 80.9215 650.606 54.4289 650.628 54.4023C652.825 51.6995 653.373 54.4272 653.628 50.6021C653.835 47.4879 650.468 47.0512 650.628 43.6018C650.784 40.2225 653.254 38.2846 653.54 34.939C653.843 31.3968 652.225 27.8909 652.365 24.3385C652.521 20.3776 660.718 21.6423 661.228 21.6009C659.859 25.9817 658.477 26.5588 659.228 31.0013C663.182 30.2359 666.386 27.2929 669.828 25.2011C670.873 33.5597 657.751 37.6016 662.428 45.2019C663.94 39.6584 669.625 37.4585 674.829 36.4015C673.205 42.2447 672.132 38.4339 669.078 42.9518C663.965 50.5163 659.147 60.9797 658.428 70.003C660.94 69.2417 664.617 64.6007 665.228 62.0026C669.263 63.732 663.323 73.9271 662.828 75.3032C659.097 85.6843 654.475 100.784 642.827 104.804C643.494 100.521 643.86 96.1797 644.827 91.9539ZM669.228 98.2042C670.065 89.4742 666.91 80.5177 668.553 71.903C671.634 55.7492 676.82 39.946 683.229 24.801C685.09 20.4033 699.729 21.6208 700.83 21.6009C694.429 40.8017 694.429 40.8017 688.029 60.0025C695.229 51.2022 695.229 51.2022 702.43 42.4018C702.081 46.4649 701.619 54.925 700.03 58.4025C695.591 68.1153 689.338 76.9232 684.829 86.6037C684.526 87.2535 685.662 87.7704 686.079 88.3537C688.654 87.4787 688.654 87.4787 691.229 86.6037C687.315 93.6773 680.114 101.459 682.429 109.205C685.773 103.802 683.399 105.237 689.229 104.404C687.057 111.464 689.338 108.999 682.129 111.555C682.929 114.188 685.849 117.04 684.529 119.455C680.337 127.123 672.912 132.514 667.103 139.043C672.478 147.272 667.155 158.965 664.428 168.407C672.656 158.335 677.789 146.074 683.829 134.556C685.875 130.653 690.385 128.152 691.729 123.955C693.128 119.59 690.766 114.706 691.629 110.205C692.961 103.259 696.029 96.7624 698.23 90.0413C702.613 92.8289 706.25 97.5841 711.38 98.4042C720.177 99.8105 729.148 97.0708 738.031 96.4041C727.46 104.184 714.054 107.611 701.23 110.405C710.901 114.363 724.484 111.695 730.831 119.205C717.43 120.605 717.43 120.605 704.03 122.005C710.017 126.806 718.397 127.555 725.881 129.255C721.829 137.521 707.973 133.743 698.83 134.806C702.715 139.176 708.948 140.825 714.468 142.756C706.649 154.182 706.649 154.182 698.83 165.607C706.33 162.607 706.33 162.607 713.83 159.607C716.268 165.127 715.851 173.268 721.143 176.167C727.67 179.743 736.055 175.189 743.469 175.845C749.109 176.344 754.511 178.353 760.032 179.608C762.232 169.407 762.232 169.407 764.432 159.207C768.433 163.007 768.433 163.007 772.433 166.807C774.333 165.107 774.333 165.107 776.233 163.407C777.333 324.114 777.333 324.114 778.433 484.821C730.553 487.386 682.062 486.358 634.977 495.421C634.314 493.315 634.314 493.315 633.652 491.208C639.04 488.914 639.04 488.914 644.427 486.621C635.444 479.208 626.066 472.248 617.476 464.382C608.45 456.117 594.295 435.675 601.225 422.418C603.04 418.947 606.558 415.569 610.451 415.143C620.101 414.085 624.461 431.051 624.926 435.556C625.751 443.528 621.357 451.843 623.524 459.558C625.428 466.337 631.041 471.727 636.377 476.32C647.158 485.599 658.949 478.116 670.428 475.22C667.299 468.762 662.347 462.901 661.04 455.844C658.147 440.219 662.767 423.435 658.028 408.267C655.079 398.829 645.377 393.067 639.052 385.466C645.684 379.792 648.626 375.03 657.978 374.916C675.19 374.705 692.49 378.922 709.58 376.866C712.748 376.485 711.318 370.36 713.68 368.216C717.593 364.663 725.639 367.42 726.681 359.865C727.258 355.681 726.428 351.264 724.931 347.315C722.419 340.69 718.779 334.496 714.83 328.614C703.913 312.349 700.119 310.416 686.429 298.413C692.397 289.542 701.093 280.748 701.43 270.061C690.326 269.596 678.75 270.69 668.428 274.812C682.998 259.873 682.998 259.873 697.567 244.935C696.721 244.294 695.971 242.519 695.029 243.01C677.547 252.137 660.995 262.944 643.977 272.912C643.661 271.878 642.359 270.661 643.027 269.811C651.082 259.572 660.495 250.477 669.228 240.81C639.871 250.247 627.811 266.851 609.326 290.675C604.576 286.42 600.989 280.297 595.075 277.912C591.417 276.436 587.419 280.236 583.475 280.249C577.61 280.27 571.841 278.758 566.024 278.012C570.1 261.743 568.035 252.034 582.737 246.398C581.679 237.244 582.775 231.382 592.025 227.81C591.35 221.584 591.35 221.584 590.675 215.359C597.125 212.312 605.051 215.315 612.026 216.809C612.159 212.276 611.02 207.521 612.426 203.209C613.628 199.523 618.236 197.632 619.476 193.958C621.934 186.676 621.976 178.791 623.226 171.207C624.426 171.207 624.426 171.207 625.626 171.207C624.482 183.622 622.187 196.7 625.876 208.609C629.527 194.675 635.713 181.168 636.827 166.807C637.225 161.671 628.436 157.684 630.202 152.844C634.485 141.102 646.925 133.96 652.828 122.943C655.801 117.393 655.061 110.551 656.178 104.354C658.103 112.98 658.103 112.98 660.028 121.605C664.827 113.393 668.191 109.026 669.228 98.2042ZM733.631 39.2017C720.03 41.8018 720.03 41.8018 706.43 44.4019C708.438 15.2868 721.721 14.2463 733.631 39.2017ZM551.223 23.001C548.827 27.5268 550.296 25.4614 546.823 29.2012C542.086 25.9681 537.097 27.5468 533.823 22.4009C539.419 21.7926 545.727 21.7228 551.223 23.001ZM424.655 100.254C423.955 96.9982 419.978 94.7343 420.018 91.4039C420.171 78.5535 422.768 65.8179 425.218 53.2023C425.758 50.4234 429.046 48.6222 429.406 45.8144C429.794 42.779 426.423 40.3278 425.968 37.3016C425.429 33.7161 425.086 29.6824 426.731 26.4511C427.797 24.3552 430.728 23.5792 433.068 23.351C444.069 22.2784 455.167 22.6695 466.22 22.601C483.383 22.4945 500.551 22.4043 517.709 22.826C529.674 23.12 528.532 34.0979 517.222 32.4014C510.755 31.4314 504.688 28.6679 498.421 26.8011C501.213 32.2259 499.229 29.3429 505.221 34.8015C500.029 38.1465 493.036 32.4826 487.221 30.4013C492.821 36.8016 492.821 36.8016 498.421 43.2018C489.078 41.5408 480.276 37.4916 471.62 33.6014C474.52 38.7016 474.52 38.7016 477.42 43.8019C470.981 43.1787 474.142 44.0884 468.02 40.8017C470.435 45.6319 475.955 48.4778 480.92 50.6021C496.528 57.2802 510.997 52.318 493.221 68.0029C505.288 67.6745 503.864 67.1624 509.922 57.9525C517.327 46.6935 523.141 50.5457 509.022 45.0019C509.197 43.5393 509.197 43.5393 509.372 42.0768C514.777 41.3701 525.04 38.0008 528.222 45.0019C524.99 47.4557 520.625 49.3939 519.222 53.2023C519.822 53.2689 520.444 53.5778 521.022 53.4023C525.776 51.9576 530.902 51.1096 535.06 48.3895C540.293 44.9667 538.715 38.0016 546.423 38.0016C545.888 42.9078 545.006 47.9728 546.023 52.8022C547.68 49.8753 549.07 44.7372 552.423 45.0019C551.357 50.9355 551.872 57.387 549.223 62.8027C547.834 65.6437 543.365 65.5765 541.223 67.9029C536.466 73.0681 532.964 79.2617 528.835 84.9411C523.028 81.2722 523.028 81.2722 517.222 77.6033C515.726 83.7243 512.216 89.4877 507.821 94.004C504.853 82.2881 526.183 76.5976 502.421 73.2031C502.137 76.6541 502.654 92.3192 496.221 90.6038C496.921 81.5034 496.921 81.5034 497.621 72.4031C493.922 72.8594 487.316 71.4162 486.771 75.1032C485.965 80.5462 487.071 86.1036 487.221 91.6039C484.284 87.9838 485.194 82.4268 483.22 78.2033C481.568 74.6657 474.449 79.7121 474.445 82.4785C474.438 87.415 475.495 92.2956 476.02 97.2041C464.478 90.1962 472.195 78.345 460.019 92.8039C464.223 94.9059 468.785 105.36 471.82 109.455C470.82 109.83 470.82 109.83 469.82 110.205C468.718 107.635 466.781 108.335 465.02 106.605C457.167 98.8894 454.902 101.849 451.019 112.205C456.413 115.462 466.107 114.554 468.42 122.005C453.664 121.814 449.135 110.006 450.419 134.406C460.684 131.076 455.294 131.417 466.62 134.056C463.977 140.347 457.217 133.833 452.719 139.706C451.884 140.796 451.885 142.503 452.319 143.806C457.786 160.208 463.295 139.54 474.945 148.694C460.45 155.164 449.473 169.479 432.368 168.657C428.378 168.465 424.429 167.584 420.568 166.557C401.044 161.366 412.895 155.6 415.168 139.406C415.969 133.691 410.957 125.167 416.818 120.405C417.618 125.205 417.618 125.205 418.418 130.006C423.733 120.851 427.006 111.176 424.655 100.254ZM366.015 23.201C370.616 23.401 370.616 23.401 375.216 23.601C373.8 33.2643 372.692 43.0365 372.816 52.8022C376.648 49.7035 378.144 44.4736 380.216 40.0017C381.116 42.4018 381.116 42.4018 382.016 44.8019C383.554 44.0581 383.554 44.0581 385.091 43.3143C385.954 45.0582 385.954 45.0582 386.816 46.802C389.466 44.5404 387.973 45.147 391.217 44.8019C390.683 50.9355 390.681 57.1386 389.616 63.2027C388.876 67.4222 386.944 71.3772 385.016 75.2032C381.633 81.9201 373.078 88.1238 374.966 95.404C375.564 97.7109 379.727 93.7564 381.179 91.8664C386.923 97.2109 377.597 108.439 378.016 116.205C387.267 108.496 388.679 102.056 390.017 90.4038C389.216 90.2038 389.216 90.2038 388.416 90.0038C390.032 83.9452 396.538 75.2917 397.417 70.128C398.083 66.2109 395.67 62.3244 395.567 58.3525C395.352 50.1161 395.821 41.8652 396.467 33.6514C397.607 19.1543 409.871 23.519 422.018 23.201C421.362 26.898 417.048 27.5508 417.018 30.6513C416.977 34.8375 419.298 33.8091 421.493 37.0016C422.615 38.6335 418.666 40.8873 418.618 41.0017C414.113 51.7759 410.203 62.8413 404.817 73.2031C408.962 73.6707 410.313 70.0461 414.418 70.403C411.86 77.6625 410.209 85.234 408.817 92.8039C411.944 89.975 413.848 86.0191 416.018 82.4035C416.061 88.897 416.726 94.9801 413.192 101.117C412.139 102.947 409.317 102.926 407.717 104.304C401.527 109.64 396.615 127.706 401.217 135.206C403.851 131.506 405.651 126.053 410.017 124.805C406.381 145.224 394.944 159.968 391.217 180.808C392.617 181.308 392.617 181.308 394.017 181.808C391.817 191.308 391.817 191.308 389.616 200.808C378.591 198.138 367.483 195.787 356.54 192.796C356.494 192.783 344.503 189.915 343.415 186.008C341.399 178.777 346.565 181.594 347.815 175.007C348.548 171.139 346.387 167.033 347.315 163.207C347.812 161.157 350.777 160.571 351.765 158.707C353.829 154.814 346.513 153.434 349.015 147.806C351.76 141.629 357.002 136.635 359.09 130.206C361.712 122.134 349.293 115.329 355.215 102.004C357.415 104.204 357.415 104.204 359.615 106.405C360.399 105.771 361.72 105.482 361.965 104.504C363.328 99.0696 363.88 93.4434 364.265 87.8537C364.921 78.3572 361.399 78.467 357.903 68.1404C356.563 64.1834 361.058 62.315 362.015 59.2025C363.061 55.8054 358.787 56.1971 358.215 53.9523C357.282 50.2911 357.986 44.0977 359.615 40.4017C362.563 41.3526 360.913 40.4212 363.215 44.8019C368.584 39.4068 367.881 30.1954 366.015 23.201ZM234.81 111.205C232.071 106.144 236.989 99.8996 237.81 94.204C239.292 83.9235 239.061 73.3702 241.41 63.2527C242.267 59.5606 246.143 57.124 247.26 53.5023C249.516 46.195 231.648 26.1771 252.411 23.801C257.71 23.1945 263.078 23.9343 268.411 24.001C267.768 36.9485 263.868 53.8362 266.011 66.8028C269.18 61.3338 269.18 61.3338 272.349 55.8649C278.216 61.9678 261.688 97.0302 268.036 107.655C270.032 103.268 270.475 95.9921 275.212 95.104C275.212 108.274 266.888 121.362 270.674 134.506C285.814 121.878 281.108 103.417 280.812 86.8037C280.71 81.1126 282.687 75.4883 282.412 69.803C282.249 66.4338 274.56 38.2248 279.512 38.6516C282.556 38.9141 281.163 49.4091 287.212 51.0022C288 39.9661 285.859 34.2178 281.612 23.601C293.412 23.601 293.412 23.601 305.213 23.601C304.563 30.2375 301.059 38.0909 304.813 43.6018C304.813 39.9932 304.463 42.4046 308.763 37.4516C308.199 53.1706 301.885 68.1844 297.213 83.2035C303.888 76.9809 300.659 78.8031 306.013 76.4032C306.013 79.78 302.28 82.204 301.563 85.5036C300.017 92.6162 308.166 84.7633 303.263 92.4539C298.487 99.9455 286.804 107.686 290.412 115.805C295.012 113.305 295.012 113.305 299.613 110.805C298.415 125.973 288.623 138.077 288.812 154.007C291.366 153.353 291.553 153.748 293.162 150.856C296.639 144.61 300.205 138.38 303.013 131.806C305.505 125.969 302.845 119.48 303.613 113.605C304.498 106.835 309.833 101.444 312.713 95.254C314.709 90.965 311.312 87.955 310.413 84.2036C309.309 79.5941 315.909 81.8382 314.563 77.2533C313.963 75.207 311.172 73.9352 311.213 71.803C311.282 68.2199 314.471 65.2524 314.863 61.6901C315.423 56.6169 314.297 51.498 314.013 46.402C316.36 51.0205 318.335 58.5456 323.514 58.7025C326.162 50.5024 326.912 42.107 322.064 34.5015C319.718 30.8218 315.208 27.9469 314.813 23.601C329.414 23.601 329.414 23.601 344.015 23.601C341.905 30.1587 339.054 36.7174 338.814 43.6018C343.121 37.5436 345.813 28.0792 353.065 26.4511C353.935 36.3695 336.331 50.2035 342.414 63.5527C345.863 56.855 347.161 46.4331 354.415 44.4019C354.107 60.7062 354.926 66.7606 352.215 81.0034C351.465 84.9454 347.071 87.3846 345.802 91.1914C343.258 98.8234 342.477 106.934 340.814 114.805C344.915 111.005 344.915 111.005 349.015 107.205C350.474 117.583 331.069 128.921 334.064 147.144C339.357 146.333 341.505 139.415 344.815 135.206C348.463 143.719 338.414 150.032 338.414 158.807C340.671 158.069 340.671 158.069 342.927 157.332C342.994 159.228 343.777 161.237 343.127 163.019C340.135 171.222 336.277 186.645 327.864 184.308C319.266 181.919 310.896 178.774 302.413 176.007C304.813 171.407 304.813 171.407 307.213 166.807C300.089 165.018 292.21 170.418 287.012 175.607C277.86 184.745 270.682 195.698 261.811 205.109C260.074 206.952 255.518 207.553 253.161 207.296C246.881 206.612 240.546 206.057 234.41 204.559C229.059 203.252 222.593 201.839 219.609 197.208C222.498 196.135 222.267 196.727 223.059 191.871C223.977 186.249 223.418 180.383 224.897 174.882C225.437 172.875 228.719 172.178 228.91 170.107C229.154 167.463 226.08 165.337 226.022 162.682C225.908 157.464 227.614 152.365 228.41 147.206C229.185 147.2 229.185 147.2 229.96 147.194C230.917 155.568 229.864 151.723 232.81 158.807C242.145 136.603 245.555 131.06 234.81 111.205ZM84.4036 24.401C83.5978 32.4958 79.6921 41.9038 84.0036 48.8021C87.0037 45.0019 87.0037 45.0019 90.0038 41.2017C92.0506 63.6648 73.7602 81.0921 74.8032 99.6042C80.4034 95.004 80.4034 95.004 86.0036 90.4038C85.6365 94.8097 82.4799 98.6877 79.5284 101.979C90.5068 119.445 60.4728 122.536 65.6028 140.006C90.3387 121.723 71.3963 150.498 69.2029 157.807C66.215 167.763 65.2028 178.208 63.2027 188.408C65.1361 187.191 67.7382 186.66 69.0029 184.758C74.3042 176.784 79.8045 168.585 82.491 159.394C84.7928 151.519 82.522 142.939 83.6035 134.806C86.1107 115.953 99.2105 118.573 91.5039 98.6542C107.71 84.763 88.845 93.8817 92.9039 83.0035C94.79 77.9487 99.3124 73.7863 99.9417 68.4279C100.55 63.2531 97.5833 58.2775 96.4041 53.2023C101.776 56.7091 104.145 63.508 107.107 69.1989C118.249 51.3734 107.704 40.6216 97.6041 24.401C116.605 24.401 116.605 24.401 135.606 24.401C132.765 32.3708 128.205 40.6198 129.355 49.0021C138.381 38.4016 138.381 38.4016 147.406 27.8012C147.497 34.4127 141.234 39.5216 138.756 45.6519C134.97 55.0198 128.858 65.6019 132.006 75.2032C137.082 66.5173 140.806 55.9387 149.206 50.4021C148.835 61.7359 148.826 73.0874 148.094 84.4036C147.018 101.023 142.515 99.6415 136.806 112.805C132.576 111.713 128.345 108.428 124.118 109.53C120.14 110.566 117.665 114.858 115.505 118.355C102.921 138.728 91.5744 161.329 88.0037 185.208C95.004 182.608 95.004 182.608 102.004 180.008C100.375 212.427 83.0862 238.587 78.4033 270.811C76.9795 280.61 75.2283 290.463 75.4032 300.363C75.7512 320.067 82.1146 340.449 76.9408 359.465C68.2227 391.508 44.5742 412.794 20.8009 433.618C20.6009 229.01 20.6009 229.01 20.4009 24.401C28.8012 24.401 28.8012 24.401 37.2016 24.401C35.5043 42.3459 30.2379 60.8658 34.4015 78.4033C38.3266 71.228 38.3266 71.228 42.2518 64.0527C44.5295 68.2955 41.9484 73.7128 41.1017 78.4533C38.0607 95.4801 35.2015 112.709 35.2015 130.006C38.0588 124.35 40.1655 116.334 46.2395 114.53C43.1206 138.968 43.1206 138.968 40.0017 163.407C47.8138 153.671 54.0894 141.82 55.8024 129.455C56.6288 123.49 52.8046 117.676 52.7147 111.655C52.5571 101.093 55.5878 90.6033 55.0648 80.0534C54.8048 74.8077 50.7732 70.2417 50.4021 65.0028C50.2502 62.8581 53.8569 61.5374 53.6023 59.4025C52.9128 53.6218 48.5486 48.1273 49.6021 42.4018C54.4836 50.3334 54.4836 50.3334 59.365 58.265C69.2537 54.7659 58.3991 32.4523 54.6023 25.4011C69.5029 24.9011 69.5029 24.9011 84.4036 24.401ZM165.207 24.001C170.807 24.201 170.807 24.201 176.407 24.401C174.535 36.5713 172.725 48.8986 173.207 61.2026C178.889 57.6901 179.024 50.4881 183.858 45.6019C184.248 49.5669 183.769 47.7074 185.208 51.2022C188.786 48.2207 189.569 49.2956 192.408 52.8022C195.022 50.3948 193.45 51.1261 197.208 50.8022C196.289 67.0384 195.819 76.3103 188.058 91.3039C183.27 100.554 176.891 105.175 176.807 116.405C181.704 114.006 178.64 115.873 184.808 109.205C189.447 118.693 179.71 128.655 179.208 138.806C172.603 134.986 165.763 131.243 160.182 125.943C157.576 123.468 161.631 109.782 161.607 105.804C161.546 95.7981 153.535 86.9609 153.807 81.0534C154.074 75.2319 159.271 72.5941 159.007 68.2029C158.518 60.0895 148.845 57.7387 156.607 44.8019C158.875 48.0395 158.875 48.0395 161.144 51.2772C168.395 46.3136 165.853 31.5324 165.207 24.001ZM206.159 80.7034C206.584 79.8853 202.774 62.6054 202.809 61.8026C203.21 52.4072 203.314 42.9587 204.659 33.6514C206.728 19.3288 229.678 24.0784 237.61 24.001C236.6 29.4141 231.46 28.5273 230.86 33.6514C230.338 38.1062 237.995 38.1986 236.273 42.3268C230.1 57.1238 222.671 71.8784 215.209 86.4037C219.07 87.8605 216.947 87.647 221.609 86.4037C221.409 85.6036 221.409 85.6036 221.209 84.8036C225.215 82.1941 223.209 82.4715 227.01 83.0035C224.253 92.2562 221.431 101.604 220.409 111.205C224.61 104.804 224.61 104.804 228.81 98.4042C229.343 99.4709 230.526 100.417 230.41 101.604C229.821 107.616 228.316 113.518 226.76 119.355C225.247 125.026 217.969 123.207 216.109 128.255C212.706 137.49 206.055 153.454 209.209 164.807C214.051 160.772 215.551 153.766 221.209 151.206C219.801 160.33 221.45 170.95 216.009 178.408C207.167 190.527 199.365 206.888 197.358 222.459C201.682 221.683 198.806 222.538 204.809 217.409C205.506 224.384 199.816 230.509 197.458 237.11C195.275 243.225 194.639 249.875 192.008 255.811C191.567 256.806 189.787 257.098 188.833 256.573C174.266 248.559 160.879 238.242 148.806 226.81C152.12 226.022 158.42 225.609 161.007 222.109C167.51 213.311 158.365 194.533 173.207 192.808C172.691 186.358 171.525 179.927 171.657 173.457C171.761 168.395 172.044 162.039 178.008 160.807C184.583 159.448 191.341 159.207 198.008 158.407C193.449 151.841 187.58 146.239 181.683 140.843C190.97 128.95 195.985 122.958 195.608 108.005C194.808 108.205 194.808 108.205 194.008 108.405C195.98 97.0683 200.907 90.8157 206.159 80.7034ZM776.833 52.4022C776.445 68.9467 776.445 68.9467 776.058 85.4911C771.883 79.5663 758.009 83.5056 752.432 84.0036C761.232 75.8032 761.232 75.8032 770.033 67.6029C766.536 64.3196 761.649 61.1076 759.632 56.4024C765.528 55.4954 770.966 53.2538 776.833 52.4022ZM704.83 53.2023C716.246 63.295 716.947 65.6739 722.431 82.4035C710.43 85.8036 710.43 85.8036 698.43 89.2038C700.29 78.0427 704.098 65.636 704.83 53.2023ZM751.232 54.0023C747.114 67.1046 746.266 80.995 731.631 84.0036C736.694 68.8154 735.67 66.2509 722.031 56.4024C731.182 55.4168 741.937 52.8404 751.232 54.0023ZM532.623 92.0039C530.594 95.9834 521.578 106.76 517.622 102.804C522.564 92.7664 531.504 85.4873 541.023 80.0034C544.495 83.1192 538.599 96.7582 532.623 92.0039ZM777.233 107.205C768.508 104.296 748.666 109.971 744.632 98.2042C754.95 95.842 776.637 92.9139 777.233 107.205ZM776.558 113.08C778.952 115.155 777.216 126.265 776.833 129.205C764.989 129.961 753.099 129.567 741.231 129.605C749.284 120.968 763.577 123.543 774.433 122.405C765.855 114.769 757.126 117.108 745.232 116.805C749.52 110.586 772.234 109.332 776.558 113.08ZM502.421 138.006C486.282 146.149 477.082 119.15 491.221 112.805C504.343 106.916 517.552 130.371 502.421 138.006ZM648.027 116.405C645.743 122.687 642.571 132.797 636.427 136.006C636.596 127.059 637.712 118.225 648.027 116.405ZM750.032 142.806C739.031 142.806 739.031 142.806 728.031 142.806C735.859 136.022 743.597 134.032 750.032 142.806ZM776.833 137.006C777.561 141.009 777.194 145.137 777.233 149.206C771.076 147.033 764.811 143.984 760.232 139.206C765.588 137.836 771.314 137.246 776.833 137.006ZM589.437 145.619C589.712 151.155 589.5 156.244 583.025 153.006C583.808 149.614 586.065 146.655 589.437 145.619ZM751.632 150.006C751.632 153.406 751.632 153.406 751.632 156.807C738.631 156.207 738.631 156.207 725.631 155.607C727.068 148.253 747.433 150.006 751.632 150.006ZM489.621 154.007C485.912 157.45 482.167 160.878 476.945 158.894C479.675 155.149 485.122 153.107 489.621 154.007ZM579.375 168.307C579.075 165.937 575.021 161.563 577.424 161.607C597.322 161.968 582.27 191.232 579.375 168.307ZM488.521 166.057C497.109 162.409 502.334 159.092 512.222 161.207C516.456 162.112 520.477 165.581 524.422 166.007C524.422 166.807 524.422 166.807 524.422 167.607C532.512 166.406 538.631 161.062 547.248 161.132C554.487 161.191 570.52 164.074 566.374 175.682C565.513 178.094 562.375 184.076 559.224 184.808C552.907 186.275 546.287 183.876 539.823 183.358C533.51 182.852 529.025 191.127 521.422 190.408C501.3 188.504 498.904 168.556 519.222 174.807C517.922 176.407 517.922 176.407 516.622 178.008C507.191 173.698 506.659 184.227 513.672 186.158C523.06 188.743 535.693 177.236 524.822 169.057C515.552 162.082 501.337 165.289 494.258 173.207C491.659 176.115 493.135 180.167 492.021 183.408C491.468 185.017 481.962 177.996 473.42 178.958C466.304 179.759 452.335 183.519 447.019 176.607C459.509 161.58 474.872 171.855 488.521 166.057ZM751.232 168.007C739.031 168.807 739.031 168.807 726.831 169.607C728.991 160.425 749.851 158.969 751.232 168.007ZM143.206 164.007C141.341 167.841 131.999 167.589 132.806 171.007C135.696 183.256 157.784 179.769 165.607 177.608C166.407 182.808 166.407 182.808 167.207 188.008C163.407 188.008 163.407 188.008 159.607 188.008C160.607 194.208 160.607 194.208 161.607 200.408C158.607 200.608 158.607 200.608 155.607 200.808C157.797 209.362 156.948 224.706 144.206 218.009C132.847 212.039 121.657 205.75 110.48 199.446C105.879 196.851 109.277 191.556 110.405 187.608C114.405 188.808 114.405 188.808 118.405 190.008C118.405 172.07 124.603 166.797 143.206 164.007ZM142.406 169.607C145.606 169.607 145.606 169.607 148.806 169.607C148.806 172.607 148.806 172.607 148.806 175.607C144.039 175.012 142.406 174.629 142.406 169.607ZM164.407 172.407C160.652 175.474 163.112 174.085 156.407 175.207C156.407 172.607 156.407 172.607 156.407 170.007C159.516 170.155 162.486 169.677 164.407 172.407ZM398.417 195.608C402.147 199.611 400.437 201.052 395.617 201.209C397.017 198.408 397.017 198.408 398.417 195.608ZM218.409 234.61C218.409 225.252 210.597 217.183 216.409 208.209C217.947 205.835 246.552 220.988 250.011 223.409C238.967 238.218 232.527 246.232 215.209 252.011C216.059 245.978 218.409 241.06 218.409 234.61ZM206.871 247.198C207.386 252.402 206.906 254.054 201.609 254.811C202.352 250.553 203.246 249.58 206.871 247.198ZM225.41 280.012C215.454 279.802 207.461 268.414 209.933 258.838C211.18 254.006 237.766 250.809 241.21 250.411C241.21 255.274 235.155 258.23 232.16 260.861C245.94 263.52 236.86 280.253 225.41 280.012ZM693.429 277.212C694.89 286.239 687.277 285.364 686.829 276.412C682.629 277.212 682.629 277.212 678.429 278.012C678.429 271.076 692.432 271.044 693.429 277.212ZM556.824 277.212C557.292 278.149 557.292 278.149 557.761 279.087C554.894 280.596 556.405 280.017 553.223 280.812C555.143 278.069 553.965 279.29 556.824 277.212ZM594.025 280.812C607.395 291.953 589.357 296.037 583.412 304.225C579.346 309.826 578.053 316.949 573.224 322.014C573.224 303.383 581.845 295.1 594.025 280.812ZM554.823 289.612C547.809 300.134 565.389 306.85 544.023 307.613C544.625 299.558 544.28 289.255 554.823 289.612ZM407.867 339.864C408.357 329.318 408.443 318.755 409.017 308.213C409.429 300.65 411.965 290.573 420.818 290.412C408.846 317.45 405.376 349.516 417.218 377.216C389.192 377.216 406.838 362.059 407.867 339.864ZM224.009 323.614C212.021 321.35 211.185 320.728 201.009 323.614C198.553 324.31 197.03 320.401 195.208 318.613C187.833 311.378 191.745 309.183 199.208 303.613C213.245 298.688 221.903 315.187 224.009 323.614ZM164.957 305.05C172.949 311.119 182.635 315.938 188.008 324.414C191.778 330.36 183.781 341.47 189.57 345.479C202.931 354.73 222.133 316.681 229.31 347.615C229.997 350.577 230.847 353.756 230.097 356.703C227.639 366.365 199.448 353.164 199.808 367.216C200.268 385.124 229.267 369.293 236.529 374.242C239.983 376.596 238.83 382.188 238.61 385.216C236.68 411.793 220.306 426.319 195.608 431.818C217.136 445.491 246.023 444.661 270.411 446.419C270.311 447.219 270.311 447.219 270.211 448.019C263.399 448.144 256.579 448.723 249.773 448.394C233.128 447.589 216.517 446.132 199.921 444.619C195.232 444.191 199.136 442.138 194.308 439.719C188.769 436.942 182.565 435.73 176.857 433.318C159.524 425.995 171.338 421.329 172.145 408.055C172.843 396.558 173.742 385.018 173.145 373.516C171.749 346.606 167.065 329.918 161.407 304.213C162.59 304.492 163.989 304.315 164.957 305.05ZM655.628 332.014C651.657 331.352 636.398 323.46 648.227 320.614C657.012 322.006 655.431 328.362 655.628 332.014ZM679.229 337.614C671.628 337.614 671.628 337.614 664.028 337.614C666.368 320.066 678.428 323.995 679.229 337.614ZM285.812 430.618C261.305 419.578 254.853 386.393 248.411 364.015C244.929 351.923 241.744 339.748 238.41 327.614C276.136 333.65 271.343 357.644 293.825 381.816C296.177 384.345 298.887 386.58 301.813 388.416C309.384 393.169 317.623 396.795 325.214 401.517C338.91 410.038 335.322 420.811 335.614 436.418C319.51 436.148 301.086 437.499 285.812 430.618ZM418.818 338.814C424.978 341.454 428.115 348.288 434.418 350.765C438.132 352.224 447.386 351.495 449.619 353.915C451.282 355.716 450.819 356.953 450.819 359.215C437.641 359.215 418.818 356.073 418.818 338.814ZM563.374 351.365C563.165 349.816 561.88 342.95 563.624 341.614C566.376 339.506 570.559 341.514 574.024 341.614C571.684 345.238 573.27 343.491 568.824 346.415C572.224 346.415 572.224 346.415 575.624 346.415C573.95 349.764 575.348 347.617 569.624 351.215C573.624 350.415 573.624 350.415 577.624 349.615C575.27 353.039 577.041 350.825 571.224 355.215C574.624 354.415 574.624 354.415 578.024 353.615C576.622 356.958 577.811 354.814 572.824 358.815C576.324 358.015 576.324 358.015 579.825 357.215C577.324 359.615 577.324 359.615 574.824 362.015C578.824 361.215 578.824 361.215 582.825 360.415C580.825 362.815 580.825 362.815 578.824 365.215C581.825 364.015 581.825 364.015 584.825 362.815C582.825 365.215 582.825 365.215 580.825 367.616C583.425 367.016 583.425 367.016 586.025 366.416C584.825 368.816 584.825 368.816 583.625 371.216C586.425 370.616 586.425 370.616 589.225 370.016C588.225 371.816 588.225 371.816 587.225 373.616C589.425 373.616 589.425 373.616 591.625 373.616C591.425 375.216 591.425 375.216 591.225 376.816C578.432 374.528 565.267 365.376 563.374 351.365ZM539.71 358.965C538.467 360.49 538.467 360.49 537.223 362.015C539.223 361.715 539.223 361.715 541.223 361.415C539.823 362.715 539.823 362.715 538.423 364.015C540.223 364.015 540.223 364.015 542.023 364.015C540.223 365.615 540.223 365.615 538.423 367.216C540.623 366.616 540.623 366.616 542.823 366.015C541.423 367.416 541.423 367.416 540.023 368.816C541.654 369.366 541.654 369.366 543.285 369.916C534.218 379.216 531.205 355.586 539.71 358.965ZM125.505 370.366C126.928 377.559 129.197 393.047 128.955 400.817C128.385 419.205 127.184 437.571 125.855 455.919C125.812 456.519 125.45 457.334 124.855 457.419C119.942 458.128 116.029 453.056 111.055 452.819C105.447 452.552 95.0033 453.683 88.4277 451.251C84.5848 449.83 82.3968 445.829 81.4534 442.069C76.4131 421.978 93.4858 417.135 103.804 400.817C108.987 392.622 113.548 384.031 119.005 376.016C119.273 375.622 124.213 363.831 125.505 370.366ZM347.615 380.016C367.385 382.25 387.132 384.726 406.817 387.616C377.216 402.217 377.216 402.217 347.615 416.818C347.615 398.417 347.615 398.417 347.615 380.016ZM350.715 439.481C348.648 438.575 345.813 433.662 348.615 431.618C369.727 416.22 394.11 405.883 417.243 393.729C414.47 405.543 414.957 408.054 408.217 418.418C398.222 433.787 394.026 456.783 377.066 463.745C355.463 472.612 330.456 459.267 307.113 459.919C294.148 460.282 281.726 465.572 268.811 466.77C210.7 472.161 152.468 476.297 94.204 479.67C69.0404 481.127 43.6465 477.054 19.0008 471.77C19.8656 468.762 19.0773 469.442 24.151 469.62C41.7092 470.235 59.2346 472.125 76.8033 472.02C112.105 471.808 147.425 470.895 182.658 468.67C195.792 467.84 208.608 464.108 221.709 462.87C239.058 461.23 256.686 462.678 273.912 460.044C286.531 458.115 298.052 451.253 310.663 449.269C322.21 447.452 334.259 446.48 345.727 448.744C350.809 449.747 353.473 455.669 357.765 458.569C364.981 463.445 371.011 452.546 374.416 448.419C366.516 445.44 358.448 442.87 350.715 439.481ZM443.019 395.417C443.519 397.117 443.519 397.117 444.019 398.817C444.719 397.417 444.719 397.417 445.419 396.017C445.719 398.017 445.719 398.017 446.019 400.017C447.019 398.017 447.019 398.017 448.019 396.017C450.31 407.474 434.007 409.099 435.618 397.017C437.819 398.917 437.819 398.917 440.019 400.817C439.619 398.217 439.619 398.217 439.219 395.617C441.869 397.07 440.573 395.911 442.019 400.017C442.519 397.717 442.519 397.717 443.019 395.417ZM467.22 395.217C472.742 396.414 474.938 397.378 475.22 403.217C471.22 403.217 471.22 403.217 467.22 403.217C467.22 399.217 467.22 399.217 467.22 395.217ZM509.622 445.819C503.007 430.491 499.719 414.651 496.421 398.417C510.214 399.629 555.565 402.186 559.974 419.093C563.689 433.34 563.965 448.719 570.174 462.07C575.523 473.57 591.004 472.898 593.975 485.171C585.969 487.211 554.526 491.068 547.223 487.621C543.309 485.773 538.631 480.484 533.423 481.02C525.193 481.869 513.097 487.258 503.734 486.146C483.53 483.745 463.445 479.878 443.119 478.97C435.525 478.631 429.32 485.452 422.08 487.771C417.34 489.289 412.172 488.737 407.217 489.221C409.91 479.22 419.042 472.214 424.968 463.72C435.929 448.009 445.674 431.453 457.019 416.018C460.567 438.089 472.942 464.433 492.421 477.22C498.993 481.534 516.091 487.297 519.084 477.52C516.753 475.77 516.753 475.77 514.422 474.02C543.487 471.575 515.628 459.738 509.622 445.819ZM72.8656 423.093C73.3135 425.087 73.2031 435.163 73.2031 437.219C62.8811 436.9 36.3379 435.528 48.402 419.618C55.1285 413.152 71.2116 415.729 72.8656 423.093ZM133.606 426.418C151.082 426.501 157.031 425.439 165.607 440.019C144.186 448.143 135.893 451.584 133.606 426.418ZM92.8539 493.471C101.271 492.751 109.362 489.311 117.805 489.021C123.622 488.821 129.196 492.373 135.006 492.021C200.837 488.029 266.406 480.379 332.214 476.02C345.719 475.126 359.298 475.605 372.816 476.27C378.538 476.552 378.027 479.261 379.616 483.62C291.238 489.521 202.54 502.404 114.155 500.771C91.4411 500.352 68.6982 501.806 46.0019 500.821C34.183 500.308 29.7984 496.346 20.4009 490.821C50.5826 493.562 62.7711 496.043 92.8539 493.471ZM596.025 498.421C601.421 498.209 614.826 492.999 614.826 503.621C599.492 502.917 584.154 502.289 568.824 501.509C566.758 501.404 550.823 502.411 550.823 497.621C565.893 497.541 580.967 499.012 596.025 498.421ZM80.1909 518.822C92.4143 516.851 104.591 514.183 116.955 513.522C148.6 511.829 180.381 513.755 212.009 511.772C285.309 507.175 358.382 497.641 431.818 496.621C466.716 496.136 501.644 495.597 536.523 496.871C540.198 497.005 543.39 499.504 546.823 500.821C483.877 501.787 429.388 500.987 368.366 505.921C352.17 507.231 336.134 510.32 319.914 511.272C305.421 512.122 290.864 510.654 276.362 511.322C210.076 514.372 143.856 518.722 77.6033 522.422C77.8831 519.891 77.1866 519.306 80.1909 518.822ZM69.803 538.023C134.647 535.114 199.181 527.014 264.011 523.822C271.296 523.463 278.319 527.842 285.6 527.397C292.887 526.953 299.324 521.632 306.613 521.222C314.953 520.753 323.064 525.077 331.414 524.822C340.245 524.553 348.628 520.594 357.415 519.672C372.819 518.055 388.328 517.145 403.817 517.222C438.834 517.395 473.805 520.649 508.822 520.422C515.163 520.381 521.082 516.552 527.422 516.422C558.931 515.773 590.457 519.214 621.952 518.092C665.847 516.528 709.246 508.252 752.832 502.821C745.56 509.479 745.851 510.819 734.581 512.822C711.565 516.911 688.523 521.272 665.228 523.222C643.63 525.031 621.866 523.119 600.213 524.072C568.829 525.453 537.583 529.845 506.171 530.222C465.355 530.713 424.581 526.103 383.766 526.672C364.391 526.942 345.283 531.407 325.951 532.735C251.347 537.859 176.783 545.515 102.004 546.023C74.0203 546.213 46.5353 538.556 18.8008 534.823C35.8015 535.889 52.7859 538.786 69.803 538.023ZM19.2008 517.222C33.6594 517.735 53.9248 515.668 68.9284 521.409C64.1362 523.59 19.2008 529.149 19.2008 517.222ZM194.858 558.024C205.17 557.235 215.082 553.165 225.41 552.623C245.367 551.576 265.389 553.971 285.362 553.273C305.965 552.553 326.403 548.775 347.015 548.373C394.613 547.445 442.242 550.521 489.833 549.286C506.541 548.852 522.94 544.375 539.623 543.373C592.732 540.183 646.146 541.062 699.03 535.223C710.921 533.91 722.362 529.725 734.231 528.222C744.277 526.95 754.459 526.668 764.582 526.922C768.333 527.017 773.028 526.524 775.593 529.262C778.546 532.416 778.26 537.565 778.583 541.873C779.345 552.028 778.75 562.24 778.833 572.424C399.017 573.824 399.017 573.824 19.2008 575.224C19.4008 564.424 19.4008 564.424 19.6008 553.623C78.7692 562.329 134.793 562.617 194.858 558.024Z" fill="#000000" fill-rule="nonzero" opacity="1" stroke="none"/>
</g>
</svg>
