<?xml version="1.0" encoding="UTF-8" standalone="no"?>
<!DOCTYPE svg PUBLIC "-//W3C//DTD SVG 1.1//EN" "http://www.w3.org/Graphics/SVG/1.1/DTD/svg11.dtd">
<!-- Created with Vectornator (http://vectornator.io/) -->
<svg height="100%" stroke-miterlimit="10" style="fill-rule:nonzero;clip-rule:evenodd;stroke-linecap:round;stroke-linejoin:round;" version="1.1" viewBox="0 0 800 600" width="100%" xml:space="preserve" xmlns="http://www.w3.org/2000/svg" xmlns:xlink="http://www.w3.org/1999/xlink">
<defs/>
<clipPath id="ArtboardFrame">
<rect height="600" width="800" x="0" y="0"/>
</clipPath>
<g clip-path="url(#ArtboardFrame)" id="Layer-1">
<path d="M1.2007 3.60211C1.2007 302.177 1.2007 302.177 1.2007 600.751C400.634 600.751 400.634 600.751 800.068 600.751C800.068 301.376 800.068 301.376 800.068 2.00117C400.634 2.80164 400.634 2.80164 1.2007 3.60211ZM665.789 17.4602C683.22 17.6712 701.136 18.1592 717.74 23.4697C723.447 25.2953 725.131 32.9046 728.826 37.622C711.616 41.024 711.616 41.024 694.406 44.426C696.311 48.3408 697.394 52.7767 700.122 56.1703C702.591 59.2425 707.561 59.893 709.565 63.287C713.356 69.7083 714.401 77.3952 716.819 84.4494C703.611 88.2516 703.611 88.2516 690.404 92.0538C697.397 97.8641 706.625 101.121 715.618 102.46C706.213 109.464 706.213 109.464 696.807 116.468C703.211 121.971 703.211 121.971 709.615 127.475C702.611 130.776 702.611 130.776 695.607 134.078C701.61 138.981 701.61 138.981 707.614 143.884C703.411 152.089 703.411 152.089 699.209 160.294C693.853 153.67 688.54 144.957 679.047 143.184C667.817 141.086 655.658 138.627 644.789 142.146C628.541 147.406 616.464 161.577 600.851 168.498C581.875 176.911 562.379 186.493 541.667 187.86C530.204 188.616 521.055 177.239 509.898 174.502C503.864 173.022 497.195 173.58 491.287 175.503C473.987 181.133 449.493 201.171 438.056 212.524C431.021 219.508 423.654 226.794 419.595 235.838C414.444 247.316 415.34 260.768 411.09 272.609C403.57 293.564 391.455 312.721 384.425 333.845C377.374 355.031 374.152 377.304 369.016 399.033C367.682 385.959 370.716 371.651 365.013 359.81C356.153 341.414 332.955 331.311 326.991 311.782C321.405 293.49 330.353 273.664 332.92 254.711C333.895 247.511 333.978 239.72 337.602 233.423C339.155 230.725 343.603 231.764 346.603 230.935C345.135 246.878 342.805 262.764 342.2 278.763C341.893 286.878 343.317 299.334 349.604 305.979C358.548 315.432 378.917 311.101 381.273 297.474C384.986 275.992 374.372 249.174 369.929 230.973C378.077 225.851 378.077 225.851 386.226 220.729C377.607 218.143 367.736 218.17 363.512 208.672C360.563 202.039 358.683 194.889 357.609 187.71C356.132 177.833 352.901 163.993 360.832 157.925C370.227 150.738 382.09 147.213 391.441 139.969C395.866 136.541 398.104 130.972 401.435 126.474C390.71 124.385 390.71 124.385 379.985 122.296C379.063 127.558 380.907 134.215 377.22 138.081C371.359 144.227 362.692 147.871 354.307 149.225C343.107 151.033 330.919 151.336 320.328 147.268C309.447 143.087 304.713 127.127 293.221 125.173C283.1 123.452 274.23 133.04 264.455 136.18C259.659 137.72 254.382 136.38 249.346 136.48C252.548 128.142 258.515 120.386 258.951 111.465C259.361 103.086 252.746 95.6805 251.747 87.3511C249.789 71.0164 254.26 53.9512 250.146 38.0222C247.963 29.5695 239.206 24.4143 233.737 17.6103C377.754 17.5603 521.782 15.7168 665.789 17.4602ZM724.824 16.8098C752.44 16.8098 752.44 16.8098 780.056 16.8098C779.556 74.0433 779.556 74.0433 779.055 131.277C776.304 128.086 775.513 123.622 774.052 119.67C769.167 126.215 764.332 132.833 758.844 138.881C760.274 131.635 762.086 124.454 763.134 117.143C764.571 107.106 758.62 106.221 752.44 100.459C765.648 100.659 765.648 100.659 778.855 100.859C771.46 84.5232 765.815 86.053 748.037 86.4505C757.042 77.3452 757.042 77.3452 766.048 68.2399C760.645 62.9368 760.645 62.9368 755.241 57.6337C761.968 55.8296 768.782 54.2053 775.253 51.6302C763.836 38.3072 757.217 39.9898 739.632 41.2241C745.636 34.22 745.636 34.22 751.639 27.2159C742.482 24.3734 728.601 25.6226 724.824 16.8098ZM140.682 18.4108C145.714 18.4128 151.505 17.2208 155.691 20.0117C123.316 25.5761 107.676 56.6968 99.6582 86.4505C76.2693 64.2245 53.1636 41.6947 30.4178 18.811C67.1726 18.6776 103.927 18.3959 140.682 18.4108ZM113.504 112.278C105.42 108.158 109.96 87.86 111.465 81.2475C123.871 26.7396 149.219 27.6803 198.116 30.818C188.488 41.6311 176.41 47.1872 169.499 61.2358C161.509 77.4766 160.468 115.479 137.28 119.67C139.345 112.916 149.369 99.431 141.283 93.6547C138.266 99.816 128.377 121.017 126.649 109.264C125.968 104.633 126.809 99.7966 125.673 95.2557C124.414 97.2964 118.51 114.829 113.504 112.278ZM171 112.841C177.59 83.9684 186.566 33.8721 224.131 30.4178C216.063 45.1133 205.151 57.3214 195.514 71.0415C184.03 87.3925 178.673 109.984 174.302 129.276C171.9 129.176 171.9 129.176 169.499 129.075C168.277 123.78 169.791 118.139 171 112.841ZM238.139 33.2194C245.081 36.2374 243.174 35.9501 243.342 44.426C237.636 41.7229 238.429 39.3115 238.139 33.2194ZM22.4131 39.2229C47.3291 63.4681 72.4867 87.5947 95.2557 113.867C85.1456 117.585 74.4072 119.91 64.9254 125.023C60.2885 127.523 57.4961 132.494 53.7814 136.23C60.6688 146.452 75.3629 154.606 74.4435 166.898C71.7201 203.308 52.9013 236.695 43.6255 272.009C41.6402 279.567 41.1532 287.47 40.7238 295.273C38.2333 340.525 35.2725 384.161 42.5749 429.001C47.8442 461.357 54.7778 493.455 62.6866 525.27C65.1409 535.142 69.3046 544.549 73.593 553.774C76.4724 559.968 85.1733 562.12 88.0139 568.332C90.0186 572.716 88.8394 577.938 89.2522 582.741C55.2323 582.741 55.2323 582.741 21.2124 582.741C21.6223 401.568 22.4131 220.396 22.4131 39.2229ZM221.479 47.5778C230.036 41.7814 239.763 46.3206 237.964 57.5837C237.098 63.0059 226.522 64.4483 222.93 68.0398C224.94 67.8694 238.587 65.0642 243.492 67.7896C248.758 70.715 245.768 81.5034 241.391 83.4488C231.253 87.9545 214.207 86.2791 203.519 82.8484C203.802 70.6889 211.179 54.5556 221.479 47.5778ZM151.038 129.726C147.321 127.382 152.959 121.585 153.39 120.621C158.686 108.753 162.508 96.2809 166.898 84.0491C169.297 77.3626 171.834 70.7145 174.752 64.2375C176.652 60.0207 181.893 46.0506 189.311 45.2264C175.08 74.0458 168.669 103.022 161.294 134.479C157.876 132.894 154.226 131.735 151.038 129.726ZM747.237 55.4324C742.525 71.7277 743.579 83.7964 726.024 85.6501C733.149 62.5743 728.957 72.36 716.019 56.8332C726.402 56.0025 736.821 55.561 747.237 55.4324ZM205.32 88.6518C226.672 91.0202 182.1 98.8759 198.516 88.2516C201.131 86.5592 201.176 88.1922 205.32 88.6518ZM192.25 106.912C195.387 100.822 200.928 101.425 206.871 99.7583C233.47 92.2986 242.276 88.4867 253.548 116.668C243.625 123.641 248.759 120.367 238.139 126.474C238.139 121.071 238.139 121.071 238.139 115.668C232.498 118.076 227.761 122.513 221.93 124.273C211.334 127.469 196.644 121.181 186.109 120.47C188.156 115.951 189.978 111.323 192.25 106.912ZM748.437 136.08C740.633 128.275 740.633 128.275 732.828 120.47C732.828 125.874 732.828 125.874 732.828 131.277C714.797 125.071 720.52 119.875 733.629 112.466C729.301 108.813 724.557 105.436 721.222 100.859C751.702 96.7025 747.068 108.071 748.437 136.08ZM100.058 124.873C93.0021 133.212 83.0564 138.293 75.6442 146.486C55.0083 126.43 84.1038 122.38 100.058 124.873ZM115.267 130.276C114.24 135.605 112.741 140.862 110.815 145.935C109.746 148.75 105.262 142.678 105.262 141.283C105.262 136.224 106.808 131.173 111.465 129.075C112.677 128.53 115.519 128.971 115.267 130.276ZM199.316 130.076C196.623 136.688 195.817 142.718 193.688 149.475C193.251 150.862 191.452 150.687 190.511 150.488C180.104 148.289 183.889 134.923 189.311 130.276C197.015 130.076 197.015 130.076 199.316 130.076ZM124.473 130.476C123.085 135.632 121.483 140.781 120.871 146.085C118.869 146.085 118.869 146.085 116.868 146.085C116.868 139.261 116.115 131.623 124.473 130.476ZM134.078 132.077C133.475 136.905 134.226 143.925 128.075 144.484C127.793 138.853 127.855 134.09 134.078 132.077ZM311.257 166.472C310.947 171.036 311.316 192.351 303.347 193.605C263.765 199.837 255.683 142.996 284.967 134.479C303.798 129.001 312.483 148.402 311.257 166.472ZM101.259 136.88C96.6312 144.313 91.8373 151.505 85.6501 157.692C82.0293 148.037 89.5914 134.287 101.259 136.88ZM733.829 160.294C731.963 153.504 725.943 148.432 723.698 141.758C722.951 139.536 730.158 134.72 731.428 139.331C732.503 143.239 732.895 147.303 733.629 151.288C738.632 148.487 738.632 148.487 743.635 145.685C737.031 166.697 737.031 166.697 730.427 187.71C741.333 174.302 741.333 174.302 752.24 160.894C758.944 174.102 758.944 174.102 765.648 187.309C772.852 181.306 772.852 181.306 780.056 175.302C780.056 255.95 780.056 255.95 780.056 336.597C775.249 322.205 771.059 307.592 765.635 293.422C762.182 284.4 750.861 294.789 748.448 297.533C739.906 307.246 728.721 331.867 712.416 327.191C719.12 319.72 725.776 312.206 732.528 304.778C734.569 302.534 733.746 302.806 736.03 303.377C733.33 295.727 727.346 286.215 718.295 284.629C712.84 283.673 706.467 285.562 701.81 282.565C698.524 280.45 698.972 275.269 697.908 271.509C691.336 248.286 711.082 230.598 714.618 208.722C717.558 190.53 715.631 181.698 721.959 164.309C723.042 161.335 728.103 166.087 730.827 167.698C731.828 165.23 734.535 162.862 733.829 160.294ZM209.723 138.081C209.912 138.4 207.393 152.266 203.633 152.333C195.714 152.473 199.178 141.336 203.919 139.482C205.773 138.757 208.707 136.37 209.723 138.081ZM153.94 174.952C152.79 169.128 151.942 163.245 150.688 157.442C149.99 154.215 143.969 141.64 149.687 140.032C155.989 154.156 164.391 164.974 167.298 180.506C161.16 180.427 155.323 181.956 153.94 174.952ZM230.935 141.283C225.91 156.29 226.605 159.293 211.324 159.293C214.892 145.494 215.785 137.626 230.935 141.283ZM780.056 140.082C780.256 154.69 780.256 154.69 780.456 169.299C769.835 165.46 765.724 156.11 759.644 146.886C766.42 144.535 773.227 142.272 780.056 140.082ZM149.287 192.112C135.629 185.808 135.222 181.071 136.68 166.297C147.143 124.32 149.287 186.679 149.287 192.112ZM189.711 160.894C181.351 161.129 170.038 161.757 167.285 151.351C178.683 145.492 180.257 151.248 189.711 160.894ZM242.492 152.089C248.216 143.87 262.096 151.316 262.804 159.593C265.349 189.373 259.296 215.489 255.349 244.543C250.529 243.193 250.39 243.552 245.544 239.59C224.153 222.102 206.108 201.468 188.51 180.305C197.914 176.302 220.827 167.055 224.131 182.907C231.135 183.307 231.135 183.307 238.139 183.707C238.407 174.803 236.861 160.174 242.492 152.089ZM685.601 171.9C695.751 189.945 679.898 214.891 669.241 228.434C661.808 237.879 653.071 244.388 641.575 247.745C640.912 221.566 644.575 191.794 619.362 176.703C628.713 150.027 671.607 147.023 685.601 171.9ZM318.586 179.505C319.886 172.322 325.353 149.847 338.398 160.094C341.081 162.201 341.671 175.812 341.887 177.654C343.537 191.67 345.031 205.704 346.603 219.728C326.677 219.728 338.422 202.418 314.984 200.117C316.185 193.246 317.345 186.368 318.586 179.505ZM168.498 162.895C183.831 167.633 186.922 173.217 170.099 177.304C169.299 170.099 169.299 170.099 168.498 162.895ZM707.614 165.297C707.113 166.297 707.113 166.297 706.613 167.298C706.313 166.597 706.313 166.597 706.013 165.897C706.813 165.597 706.813 165.597 707.614 165.297ZM347.203 171.1C356.283 179.802 355.982 196.144 354.607 207.721C345.416 206.573 347.472 178.372 347.203 171.1ZM433.854 234.137C446.06 214.173 482.123 187.942 507.697 192.563C518.78 194.565 532.041 206.29 543.017 203.669C564.416 198.559 591.39 170.342 614.009 187.56C639.849 207.229 630.857 278.616 607.755 297.374C606.976 289.899 607.392 282.2 605.416 274.948C602.794 265.323 598.767 256.06 594.097 247.245C592.504 244.237 587.086 248.933 584.792 251.447C581.11 255.483 577.774 259.889 575.036 264.617C572.848 268.395 571.147 272.515 570.133 276.762C563.975 302.552 605.238 327.218 579.439 351.055C573.304 356.724 571.048 357.084 563.93 360.211C560.551 317.201 548.068 258.24 494.289 254.599C472.564 253.128 450.522 257.062 429.451 262.553C429.617 251.376 427.906 243.864 433.854 234.137ZM697.208 209.072C698.995 205.297 700.052 199.473 702.811 196.115C701.651 211.869 696.157 237.367 680.798 246.144C685.583 232.006 690.32 223.616 697.208 209.072ZM268.757 232.736C270.901 225.032 274.384 209.023 281.965 202.531C294.549 191.754 319.674 208.393 324.29 220.479C327.257 228.249 326.2 244.616 326.191 248.745C326.119 280.114 324.49 322.984 293.972 341.6C278.436 351.076 264.481 352.373 257.863 334.17C252.499 319.414 248.237 304.278 243.792 289.219C243.126 286.962 241.532 283.387 243.542 282.165C253.552 276.084 263.581 306.855 276.074 301.201C273.594 291.016 264.496 283.705 258.151 275.361C265.178 274.392 272.295 276.699 279.388 276.699C281.643 276.699 287.181 269.354 283.766 268.557C276.14 266.778 268.29 266.156 260.552 264.955C263.287 254.215 265.786 243.413 268.757 232.736ZM176.503 221.73C190.625 228.02 215.173 256.227 199.717 270.958C194.205 252.87 186.282 237.934 176.503 221.73ZM224.331 262.954C218.99 260.706 210.622 228.209 209.322 223.731C217.002 227.369 237.697 254.465 241.741 262.553C239.615 262.751 228.264 264.609 224.331 262.954ZM111.565 291.07C112.897 276.95 127.167 226.821 145.685 225.732C130.651 254.652 120.34 278.084 115.267 310.181C107.401 307.868 110.798 299.203 111.565 291.07ZM651.181 264.154C649.594 273.037 648.525 275.726 639.974 278.763C642.925 273.569 646.399 267.793 651.181 264.154ZM662.988 268.557C663.813 269.733 663.813 269.733 664.638 270.908C660.241 275.385 656.83 280.765 650.78 282.965C653.571 276.453 656.482 271.922 662.988 268.557ZM529.91 289.369C521.487 291.054 515.763 295.482 506.896 292.771C499.856 290.618 493.344 285.835 485.984 285.667C474.281 285.399 463.074 290.957 451.664 290.17C436.267 289.107 436.648 287.049 421.046 288.969C443.597 257.301 504.406 265.435 529.91 289.369ZM183.707 273.76C191.04 275.667 195.579 284.082 198.116 290.77C203.13 303.989 223.487 344.657 212.524 358.61C211.375 327.422 187.707 304.42 183.707 273.76ZM579.939 274.961C585.109 279.115 590.385 292.568 579.939 293.371C579.939 284.166 579.939 284.166 579.939 274.961ZM756.842 303.577C761.306 325.2 764.157 335.115 748.037 352.606C740.888 348.662 734.328 342.815 728.626 336.997C737.037 325.196 746.799 314.018 756.842 303.577ZM607.155 309.581C607.333 312.897 606.911 311.534 607.955 313.783C604.753 314.784 604.753 314.784 601.552 315.785C605.045 311.484 603.181 313.555 607.155 309.581ZM114.167 430.952C108.334 409.671 102.916 388.242 98.7952 366.564C97.3603 359.015 100.976 349.088 104.849 342.963C109.49 335.623 114.826 328.723 120.37 322.038C124.107 317.533 128.166 312.55 133.678 310.582C133.144 312.383 133.096 314.407 132.077 315.985C125.511 326.154 117.743 335.506 111.065 345.602C101.606 359.902 106.925 371.201 111.265 388.027C114.957 402.338 119.813 416.332 123.472 430.652C133.669 470.561 143.918 510.475 152.689 550.722C149.401 551.955 151.658 551.301 145.685 551.522C143.328 510.073 124.801 469.748 114.167 430.952ZM614.359 318.186C614.359 325.228 607.239 328.592 601.151 328.592C602.381 322.467 608.529 319.762 614.359 318.186ZM501.093 339.548C491.554 339.603 481.999 338.848 472.476 339.398C463.328 339.927 461.485 343.707 454.666 341.099C449.473 339.113 444.583 336.347 439.307 334.596C424.412 329.651 418.255 331.512 410.64 318.186C444.993 318.319 479.365 317.477 513.7 318.586C516.497 318.677 527.807 323.589 529.997 325.228C525.617 337.16 512.581 339.483 501.093 339.548ZM341.8 349.004C332.012 346.829 323.277 341.118 313.383 339.799C322.139 322.286 334.914 336.216 341.8 349.004ZM644.777 329.793C652.381 330.993 652.381 330.993 659.986 332.194C653.536 337.723 646.875 339.585 644.777 329.793ZM639.974 345.002C632.555 345.002 608.89 349.186 620.763 336.797C628.99 331.458 637.558 338.559 639.974 345.002ZM691.554 350.355C687.643 356.5 670.241 347.899 667.19 346.603C670.223 341.484 676.425 339.188 681.799 337.397C691.956 336.291 695.867 343.578 691.554 350.355ZM396.782 345.852C401.472 350.674 407.803 354.057 411.841 359.41C413.669 361.834 412.189 366.54 411.39 368.903C400.265 401.816 409.828 403.354 379.422 418.244C384.46 394.731 387.684 368.336 396.782 345.852ZM269.12 404.749C268.836 394.73 262.301 373.496 271.181 362.421C275.003 357.654 288.552 354.43 290.62 353.757C313.933 346.172 340.818 349.528 354.007 372.818C366.019 394.031 361.309 419.854 351.555 441.208C345.961 453.455 331.812 493.954 313.383 490.487C316.185 486.384 316.185 486.384 318.986 482.282C313.984 483.483 313.984 483.483 308.981 484.683C312.983 479.28 312.983 479.28 316.985 473.877C311.782 477.279 311.782 477.279 306.579 480.681C309.581 474.878 309.581 474.878 312.583 469.074C305.979 471.476 305.979 471.476 299.375 473.877C301.776 467.673 301.776 467.673 304.178 461.47C299.175 463.471 299.175 463.471 294.172 465.472C297.174 459.669 297.174 459.669 300.175 453.865C295.569 454.946 291.259 457.075 286.968 459.068C289.285 455.621 292.643 452.382 293.171 448.262C288.068 451.264 288.068 451.264 282.965 454.266C287.168 447.662 287.168 447.662 291.37 441.058C285.567 444.46 285.567 444.46 279.764 447.862C283.566 443.259 283.566 443.259 287.368 438.656C281.831 439.558 277.126 443.253 272.159 445.861C277.562 437.055 277.562 437.055 282.965 428.25C275.961 433.653 275.961 433.653 268.957 439.057C269.011 427.621 269.443 416.18 269.12 404.749ZM429.851 349.804C445.208 351.335 460.518 353.312 475.878 354.807C486.119 355.804 494.437 353.514 505.095 355.408C486.156 371.619 445.54 371.376 429.851 349.804ZM542.317 353.407C541.992 366.07 537.065 367.38 525.507 370.617C527.978 363.205 533.975 354.495 542.317 353.407ZM762.446 359.81C765.047 360.811 765.047 360.811 767.649 361.811C764.468 368.968 767.069 376.187 758.443 379.422C760.444 369.616 760.444 369.616 762.446 359.81ZM216.964 538.877C217.881 533.528 213.945 528.42 213.125 523.056C211.527 512.61 211.248 501.994 209.723 491.537C208.194 481.059 205.233 470.808 203.969 460.294C203.226 454.109 205.132 447.675 203.719 441.608C202.115 434.721 197.13 428.996 195.102 422.222C192.406 413.221 201.645 417.012 202.142 409.663C203.224 393.688 201.371 378.534 200.117 362.612C206.639 373.37 207.948 386.562 210.723 398.833C213.043 398.416 218.681 368.697 231.035 385.575C234.635 390.494 237.105 396.148 240.14 401.435C255.676 391.208 261.236 407.695 257.951 421.396C256.807 426.167 250.552 427.871 246.519 430.664C260.052 443.267 273.974 455.466 287.118 468.474C292.93 474.225 298.304 480.433 303.327 486.885C304.246 488.065 314.056 501.357 311.382 506.096C308.759 510.744 293.619 523.46 287.968 527.058C280.829 531.604 273.739 536.389 265.955 539.715C248.075 547.356 227.923 548.627 208.522 549.921C211.336 546.24 216.182 543.445 216.964 538.877ZM650.368 376.408C651.215 376.844 655.46 370.989 656.384 370.216C657.114 376.52 656.44 373.453 658.385 379.422C664.188 376.62 664.188 376.62 669.992 373.818C670.735 382.371 672.82 378.864 679.397 373.818C682.099 377.821 682.099 377.821 684.8 381.823C687.352 379.276 689.537 376.299 692.455 374.181C694.873 372.426 697.94 379.138 700.61 378.421C704.986 377.246 713.859 370.805 718.245 377.095C721.13 381.233 723.698 385.584 726.425 389.828C723.023 389.828 723.023 389.828 719.621 389.828C719.621 393.23 719.621 393.23 719.621 396.632C712.647 396.185 704.661 399.463 698.208 398.233C676.675 394.127 655.02 389.8 633.12 388.827C615.626 388.05 598.206 400.717 589.144 382.624C593.547 383.424 593.547 383.424 597.949 384.225C596.949 380.222 596.949 380.222 595.948 376.22C600.551 376.82 600.551 376.82 605.154 377.421C605.154 374.619 605.154 374.619 605.154 371.817C607.955 371.817 607.955 371.817 610.757 371.817C610.757 373.618 610.757 373.618 610.757 375.419C619.462 372.971 621.559 371.09 625.966 379.022C627.167 375.419 627.167 375.419 628.367 371.817C632.069 374.419 632.069 374.419 635.772 377.02C644.388 367.255 638.448 370.267 650.368 376.408ZM573.535 371.817C573.535 389.608 570.431 399.77 552.723 405.437C555.751 390.728 556.842 375.699 573.535 371.817ZM541.517 377.821C542.828 381.144 542.586 380.05 542.917 385.425C544.89 417.462 542.805 414.819 511.499 411.44C515.112 396.087 527.38 384.041 541.517 377.821ZM442.659 379.822C456.667 380.022 456.667 380.022 470.675 380.222C464.281 391.59 454.412 397.621 442.659 402.635C442.659 391.229 442.659 391.229 442.659 379.822ZM493.488 384.625C490.97 391.581 482.963 392.612 476.278 393.03C487.431 387.317 481.699 390.126 493.488 384.625ZM429.851 388.627C429.851 393.992 431.114 401.447 426.574 405.387C421.049 401.453 422.754 390.401 429.851 388.627ZM504.295 393.03C499.418 399.761 490.024 401.289 482.282 402.635C484.304 393.199 496.543 393.164 504.295 393.03ZM645.277 407.213C647.541 413.606 647.04 416.766 653.582 417.044C653.582 412.841 653.582 412.841 653.582 408.639C654.968 409.214 664.503 409.665 665.339 410.29C668.441 412.609 671.109 415.46 673.994 418.044C678.446 406.864 693.549 410.574 700.81 419.045C697.608 419.045 697.608 419.045 694.406 419.045C694.606 424.248 694.606 424.248 694.806 429.451C684.431 425.487 688.399 431.638 683.199 437.456C680.592 433.077 677.884 428.54 673.994 425.249C670.343 427.611 672.477 425.7 670.392 433.053C661.323 425.798 659.993 427.543 654.382 437.055C651.139 433.655 648.756 429.502 646.378 425.449C644.377 431.452 644.377 431.452 642.375 437.456C637.965 432.764 638.25 431.852 632.77 431.852C632.97 434.654 632.97 434.654 633.17 437.456C626.563 437.014 628.178 431.56 622.539 430.164C620.291 434.846 621.463 431.749 620.363 439.857C616.284 438.109 613.521 434.155 610.557 430.852C608.918 434.266 604.328 442.214 603.153 433.854C596.903 434.919 599.28 433.213 596.749 439.857C591.766 438.221 594.368 439.419 589.144 435.855C588.344 439.057 588.344 439.057 587.543 442.258C581.87 436.045 584.725 437.409 580.539 435.855C577.515 439.824 578.804 437.23 578.338 444.26C575.737 441.258 575.737 441.258 573.135 438.256C567.732 444.56 567.732 444.56 562.329 450.864C558.06 445.34 555.998 438.414 553.123 432.053C557.726 433.553 557.726 433.553 562.329 435.054C563.129 430.051 563.129 430.051 563.93 425.048C566.331 426.149 566.331 426.149 568.732 427.25C570.462 420.132 572.129 413.575 578.538 421.446C582.637 419.674 579.954 421.159 585.142 415.043C588.044 418.545 588.044 418.545 590.945 422.047C593.447 417.344 593.447 417.344 595.948 412.641C600.551 415.643 600.551 415.643 605.154 418.645C606.154 414.642 606.154 414.642 607.155 410.64C611.024 411.457 614.848 412.529 618.762 413.091C620.974 413.41 623.106 409.218 623.564 408.639C626.966 411.24 626.966 411.24 630.368 413.842C632.03 405.347 635.679 409.038 639.974 413.842C642.986 409.187 641.239 411.414 645.277 407.213ZM767.248 414.042C761.87 414.378 756.226 415.134 751.239 412.641C754.141 406.837 763.205 411.616 767.248 414.042ZM511.499 419.445C519.704 420.246 519.704 420.246 527.909 421.046C526.108 427.45 526.108 427.45 524.306 433.854C519.178 430.007 515.46 424.397 511.499 419.445ZM474.702 441.971C482.514 457.18 507.744 468.137 519.103 474.878C515.899 479.086 519.334 485.992 514.501 488.886C490.499 503.255 451.611 484.704 437.856 464.071C424.615 444.209 433.632 427.485 455.266 423.047C473.411 425.61 469.122 431.105 474.702 441.971ZM766.048 422.247C766.048 424.848 766.048 424.848 766.048 427.45C758.693 424.151 761.165 425.976 757.843 423.247C761.945 422.747 761.945 422.747 766.048 422.247ZM390.628 423.848C389.567 429.688 384.832 432.817 379.422 434.254C382.146 429.412 384.884 425.02 390.628 423.848ZM366.214 425.048C364.813 444.376 362.992 463.679 362.012 483.032C360.468 513.496 359.053 563.169 387.426 582.34C307.18 582.54 307.18 582.54 226.933 582.741C231.867 575.729 243.877 580.113 252.347 578.788C274.699 575.292 302.864 571.89 323.464 560.065C345.232 547.57 324.246 528.093 308.58 524.306C332.45 487.512 349.933 462.751 366.214 425.048ZM484.283 425.449C494.489 428.232 497.678 436.63 498.691 446.261C491.369 442.933 483.189 434.205 484.283 425.449ZM399.834 433.854C398.922 440.233 394.732 444.83 388.627 446.661C391.182 438.998 391.801 435.679 399.834 433.854ZM416.243 440.457C415.739 452.562 406.442 458.277 395.431 459.869C400.752 452.613 405.9 445.436 412.041 438.857C416.999 437.61 416.394 436.843 416.243 440.457ZM765.648 449.863C771.916 451.534 773.02 452.322 774.853 458.668C769.755 457.278 767.577 454.686 765.648 449.863ZM706.013 459.068C714.71 462.407 752.582 474.875 717.269 478.129C717.083 480.549 718.411 482.866 718.62 485.284C718.971 489.33 710.611 486.68 706.663 487.635C703.854 488.315 704.597 493.06 704.011 495.89C697.488 489.149 693.482 485.916 692.405 496.69C686.801 493.488 686.801 493.488 681.198 490.287C680.398 494.089 680.398 494.089 679.597 497.891C672.899 490.906 670.397 490.058 667.19 499.892C660.708 492.555 659.262 494.048 653.782 501.893C651.081 499.292 651.081 499.292 648.379 496.69C644.777 500.292 644.777 500.292 641.175 503.895C639.374 501.293 639.374 501.293 637.573 498.691C635.171 502.694 635.171 502.694 632.77 506.696C630.769 503.694 630.769 503.694 628.768 500.693C625.791 502.998 623.196 505.907 619.837 507.609C617.651 508.717 616.17 504.298 614.759 502.294C611.309 505.597 607.912 510.295 603.153 510.699C603.153 508.697 603.153 508.697 603.153 506.696C595.461 507.551 599.419 514.044 591.146 514.301C591.146 511.499 591.146 511.499 591.146 508.697C584.485 509.437 581.161 526.574 577.538 515.101C572.335 520.104 572.335 520.104 567.131 525.107C566.848 524.495 565.089 518.615 562.729 517.803C558.942 516.5 554.991 515.735 551.122 514.701C553.743 511.276 555.354 504.889 559.127 503.494C557.126 500.092 557.126 500.092 555.124 496.69C559.527 497.291 559.527 497.291 563.93 497.891C563.93 492.888 563.93 492.888 563.93 487.885C567.207 488.11 567.207 488.11 570.483 488.335C571.809 485.109 571.809 485.109 573.135 481.882C576.737 484.283 576.737 484.283 580.339 486.684C580.94 482.682 580.94 482.682 581.54 478.68C585.126 480.335 587.984 483.271 590.945 485.884C593.647 481.081 593.647 481.081 596.349 476.278C598.95 481.081 598.95 481.081 601.552 485.884C603.353 480.081 603.353 480.081 605.154 474.277C609.957 478.079 609.957 478.079 614.759 481.882C616.961 476.078 616.961 476.078 619.162 470.275C622.19 472.355 622.987 476.563 624.565 479.88C630.268 476.378 630.268 476.378 635.972 472.876C637.973 475.378 637.973 475.378 639.974 477.879C641.577 470.575 639.665 473.094 644.377 469.474C650.088 474.067 647.477 470.941 650.78 479.88C653.182 474.677 653.182 474.677 655.583 469.474C660.186 473.677 660.186 473.677 664.789 477.879C667.39 473.677 667.39 473.677 669.992 469.474C672.793 472.476 672.793 472.476 675.595 475.478C677.992 469.084 681.521 473.716 685.2 477.079C685.2 474.677 685.2 474.677 685.2 472.276C691.204 475.078 691.204 475.078 697.208 477.879C698.008 472.676 698.008 472.676 698.808 467.473C702.411 469.474 702.411 469.474 706.013 471.476C706.013 465.272 706.013 465.272 706.013 459.068ZM369.416 459.669C371.445 464.403 370.617 470.472 370.617 475.478C367.815 475.478 367.815 475.478 365.013 475.478C365.59 469.905 365.065 463.624 369.416 459.669ZM409.439 569.67C397.673 571.257 389.288 572.115 382.424 561.928C376.438 553.047 376.708 541.253 374.819 530.71C373.143 521.36 368.696 511.754 370.817 502.494C372.487 495.201 381.14 491.551 385.225 485.284C387.103 482.403 385.812 477.711 388.427 475.478C392.375 472.106 398.103 471.694 403.036 470.075C419.258 464.75 421.634 469.378 435.224 480.011C429.692 490.997 417.894 496.432 412.391 507.297C407.38 517.189 408.086 520.971 407.038 531.911C421.646 532.711 421.646 532.711 436.255 533.512C434.658 548.301 426.724 567.339 409.439 569.67ZM379.422 475.278C379.856 481.363 376.714 484.048 371.017 485.084C373.642 481.802 376.185 478.016 379.422 475.278ZM552.698 544.081C563.291 546.564 569.672 557.767 578.838 563.629C583.429 566.565 588.498 568.87 593.747 570.333C617.308 576.902 642.87 575.999 667.09 572.585C689.545 569.419 708.846 553.919 726.962 540.278C732.778 535.9 737.986 530.672 742.634 525.069C748.263 518.285 752.085 510.137 757.643 503.294C764.015 495.448 770.255 502.182 778.455 505.095C778.855 502.394 778.855 502.394 779.255 499.692C779.656 540.416 779.656 540.416 780.056 581.14C592.746 581.74 592.746 581.74 405.437 582.34C417.336 576.865 428.377 569.329 438.256 560.728C455.798 578.68 465.946 571.329 485.484 559.127C486.284 560.728 486.284 560.728 487.085 562.329C504.89 556.559 516.041 546.491 529.109 533.512C530.71 543.117 530.71 543.117 532.311 552.723C539.107 549.842 545.512 542.396 552.698 544.081ZM504.495 508.897C499.278 513.629 492.475 518.555 485.566 520.472C476.039 504.464 494.041 505.484 504.495 508.897ZM509.898 519.103C507.781 527.188 502.803 532.1 495.49 535.513C498.854 527.663 500.631 520.339 509.898 519.103ZM679.197 528.709C679.197 532.511 679.197 532.511 679.197 536.313C684.6 536.514 684.6 536.514 690.003 536.714C681.084 546.759 673.431 546.381 664.789 555.124C664.588 552.323 664.588 552.323 664.388 549.521C656.307 554.166 650.064 554.886 641.675 558.526C641.425 556.425 641.425 556.425 641.175 554.324C635.772 557.126 635.772 557.126 630.368 559.927C630.368 556.926 630.368 556.926 630.368 553.924C621.413 557.851 621.413 557.851 612.458 561.778C612.208 559.852 612.208 559.852 611.958 557.926C604.153 560.328 604.153 560.328 596.349 562.729C597.149 559.327 597.149 559.327 597.949 555.925C590.183 554.923 586.374 551.948 590.745 543.518C596.949 546.119 596.949 546.119 603.153 548.721C603.153 544.919 603.153 544.919 603.153 541.116C605.354 541.116 605.354 541.116 607.555 541.116C607.555 543.117 607.555 543.117 607.555 545.119C613.548 544.905 614.03 545.39 614.759 539.515C628.099 552.829 622.771 533.751 635.972 546.319C637.397 540.619 641.368 542.064 646.378 542.717C646.378 539.515 646.378 539.515 646.378 536.313C652.01 536.777 649.482 535.824 653.982 539.115C659.049 532.248 670.377 533.238 679.197 528.709ZM516.702 529.509C516.224 537.27 511.595 539.481 504.695 541.917C508.483 537.723 512.123 532.889 516.702 529.509ZM468.274 541.316C511.142 543.723 447.921 576.068 444.86 551.322C444.481 548.257 448.135 543.448 450.864 541.517C455.9 537.95 461.845 540.955 468.274 541.316ZM250.346 556.625C267.711 554.237 285.284 549.363 300.976 541.517C296.68 556.552 246.562 560.558 233.737 561.128C234.288 554.678 246.957 557.091 250.346 556.625Z" fill="#000000" fill-rule="nonzero" opacity="1" stroke="none"/>
</g>
</svg>
