<?xml version="1.0" encoding="UTF-8" standalone="no"?>
<!DOCTYPE svg PUBLIC "-//W3C//DTD SVG 1.1//EN" "http://www.w3.org/Graphics/SVG/1.1/DTD/svg11.dtd">
<!-- Created with Vectornator (http://vectornator.io/) -->
<svg height="100%" stroke-miterlimit="10" style="fill-rule:nonzero;clip-rule:evenodd;stroke-linecap:round;stroke-linejoin:round;" version="1.1" viewBox="0 0 800 600" width="100%" xml:space="preserve" xmlns="http://www.w3.org/2000/svg" xmlns:xlink="http://www.w3.org/1999/xlink">
<defs/>
<clipPath id="ArtboardFrame">
<rect height="600" width="800" x="0" y="0"/>
</clipPath>
<g clip-path="url(#ArtboardFrame)" id="Layer-1">
<path d="M0.400258 600.787C133.82 600.787 667.497 600.787 800.916 600.787C800.916 500.723 800.916 100.465 800.916 0.400258C667.497 0.400258 133.82 0.400258 0.400258 0.400258C0.400258 100.465 0.400258 500.723 0.400258 600.787ZM778.502 20.8134C777.901 28.6184 777.901 28.6184 777.301 36.4235C772.994 36.0032 766.759 36.2319 762.541 34.2721C756.639 31.5295 757.748 25.2386 748.082 21.6139C757.842 20.3001 769.025 20.9082 778.502 20.8134ZM667.63 21.2137C663.18 28.9508 641.093 23.5832 633.658 28.5211C630.251 30.7835 628.647 39.6642 627.805 43.6659C627.111 46.9594 626.083 56.4542 628.449 58.8477C633.334 63.789 641.159 64.2241 645.423 69.7101C649.074 74.4073 646.166 77.1196 647.05 83.0026C627.404 93.2884 621.195 102.252 601.437 112.322C596.768 114.703 595.623 113.752 590.631 110.921C578.347 103.957 562.9 100.426 554.2 89.304C546.426 79.3649 549.274 64.4567 545.001 52.5839C543.775 49.1762 539.36 47.6337 537.997 44.2785C536.028 39.4345 536.229 33.9719 535.345 28.8186C530.717 31.3364 531.743 38.7279 530.242 43.7782C529.376 46.6915 525.91 48.4582 525.288 51.4331C522.69 63.8636 522.253 76.6494 520.736 89.2575C509.182 89.7286 497.456 88.623 486.076 90.6709C449.557 97.2427 420.277 119.423 391.852 141.291C369.142 126.354 352.88 116.722 325.009 115.675C308.875 115.068 292.722 116.208 276.578 116.475C280.514 112.606 282.954 105.846 288.386 104.868C298.451 103.055 308.615 108.006 318.805 108.87C324.307 109.336 332.601 109.574 337.367 105.305C341.679 101.444 345.574 97.0482 348.825 92.2594C353.823 84.896 344.804 84.972 346.623 76.1991C348.063 69.2571 357.811 65.0478 357.568 57.9623C357.16 46.0604 348.629 33.9644 337.517 29.5691C320.46 22.8216 302.388 36.532 289.787 22.4144C478.708 21.8141 478.708 21.8141 667.63 21.2137ZM717.262 21.2137C732.472 21.4138 732.472 21.4138 747.682 21.6139C739.936 38.2978 725.47 37.629 717.262 21.2137ZM58.4377 23.215C52.1336 28.459 48.3596 31.1158 47.2304 39.2253C35.8894 34.6889 29.9124 36.2637 19.6126 42.4273C20.13 16.5575 32.6227 20.2363 58.4377 23.215ZM260.168 22.8147C255.648 29.8025 253.021 38.4732 246.609 43.7782C237.036 51.6989 228.859 44.253 223.494 54.0348C216.676 66.466 221.639 73.6086 230.759 81.0962C236.297 85.6439 227.339 95.7951 231.749 100.865C239.605 109.895 250.802 113.021 257.766 120.878C224.11 129.292 216.601 139.373 188.521 156.101C187.521 156.697 186.22 155.439 185.319 154.7C174.124 145.516 172.321 139.394 159.653 136.35C143.707 132.519 123.448 139.98 109.27 143.292C112.706 139.523 115.017 134.269 119.577 131.985C131.467 126.031 146.53 127.127 157.501 119.615C160.562 117.519 162.824 114.356 164.806 111.222C166.707 108.216 168.055 104.841 169.009 101.415C172.294 89.6131 172.587 78.7386 162.705 70.4454C158.684 67.071 153.02 65.3782 150.084 61.0268C145.449 54.157 147.351 43.6781 141.691 37.6242C132.1 27.3651 116.34 31.7251 105.268 23.4151C156.89 22.3167 208.534 22.7266 260.168 22.8147ZM668.711 35.8109C670.949 31.9624 671.277 31.5205 675.758 28.5504C685.432 22.1372 704.544 24.6566 715.261 24.4157C709.346 34.6679 690.953 35.7896 679.284 38.0727C685.271 48.6077 709.257 49.632 709.257 49.632C709.257 49.632 724.115 60.5895 728.069 65.6423C717.212 66.743 706.321 67.5479 695.498 68.9444C689.118 69.7677 666.074 73.4573 662.927 64.6343C660.752 58.5356 664.415 57.6867 667.576 52.0359C661.96 51.7566 657.845 50.6177 652.266 49.9166C649.981 49.6295 648.671 40.5363 648.332 39.4815C650.233 39.2914 667.113 38.5604 668.711 35.8109ZM67.6436 55.0355C67.0808 47.1986 67.5716 29.9427 79.8514 30.8199C85.1097 31.1954 90.9106 31.9536 94.8611 36.0232C98.182 39.4442 98.855 46.9241 103.604 47.343C114.143 48.2726 125.871 41.1997 133.386 51.5332C144.672 67.052 112.818 73.0571 101.866 60.2388C93.0507 75.085 99.4039 76.983 114.124 84.4419C113.587 86.4129 106.532 101.891 114.974 101.916C126.361 101.949 134.612 100.701 143.292 93.2601C136.03 93.4498 128.46 93.0635 121.678 90.4583C135.151 76.3284 166.405 86.2517 153.299 102.466C145.676 111.897 128.855 116.328 117.488 115.149C112.403 114.622 107.308 110.621 102.441 112.185C97.4306 113.795 97.213 123.014 92.0593 124.08C90.8305 124.334 84.079 125.531 83.0535 122.279C80.9396 115.575 80.6231 108.417 78.8508 101.615C75.7264 89.625 61.6799 77.7309 51.283 90.7084C47.626 95.2732 46.7028 100.134 44.8289 105.668C49.2077 102.497 55.0337 101.376 60.4389 101.265C55.9792 141.403 6.10332 119.139 29.6691 94.661C34.348 89.8009 39.7756 85.7219 44.8289 81.2523C38.8917 75.7822 32.5428 70.7276 27.0174 64.8418C22.432 59.9573 31.2512 48.7512 37.224 49.632C48.7528 51.3321 58.2834 58.2384 69.6449 60.8392C68.9778 58.9046 67.7902 57.0766 67.6436 55.0355ZM234.739 54.5852C236.521 53.941 248.199 52.0677 252.413 48.6814C259.074 43.3272 264.545 36.8339 270.774 31.02C275.303 35.1547 277.699 43.2597 283.783 44.0284C298.499 45.8878 311.852 34.2637 326.273 39.6505C330.113 41.0851 335.103 45.902 337.517 48.7314C350.411 63.8437 321.561 68.8188 311.401 69.6449C316.808 64.5976 321.214 55.6358 328.612 55.6358C320.282 40.0875 289.826 57.7252 296.791 72.2465C304.426 88.1634 321.899 77.2667 332.214 86.856C321.239 92.5927 310.322 94.6515 298.092 91.0086C292.772 89.4239 288.3 85.0636 282.782 84.4544C279.245 84.0638 248.556 102.873 251.975 83.7665C252.901 78.5873 254.501 73.5516 255.765 68.4441C247.84 70.0474 239.632 70.0269 231.549 69.845C231.191 65.9038 229.103 56.6222 234.739 54.5852ZM717.783 43.892C717.783 43.892 748.142 44.4131 748.142 44.4131C748.142 44.4131 752.186 57.5018 755.737 55.836C757.963 54.7917 758.427 47.2838 760.29 45.6785C763.703 42.7369 775.761 46.3975 778.101 46.0297C777.792 52.5721 777.86 59.1632 776.901 65.6423C768.231 67.0406 751.205 66.782 744.079 67.2433C747.281 62.8405 747.281 62.8405 750.484 58.4377C747.859 57.8723 745.345 57.2839 742.897 56.6818C742.821 56.663 742.744 56.6442 742.668 56.6253C742.653 56.6217 742.639 56.6181 742.624 56.6145C741.901 56.4361 740.889 56.1848 739.651 55.8777C732.032 53.9879 710.444 49.6974 710.444 49.6974C710.444 49.6974 710.057 49.3808 709.482 48.9414C708.269 48.0139 706.221 46.5391 705.214 46.3388C704.106 46.1186 707.151 44.4703 707.151 44.4703C707.151 44.4703 710.858 44.2456 709.279 43.9612C706.536 43.4671 715.37 51.0205 713.303 50.5752C717.315 48.1112 717.783 43.892 717.783 43.892ZM19.6126 79.2511C24.5094 81.2098 24.46 83.7531 20.213 86.4557C19.9128 82.8534 19.9128 82.8534 19.6126 79.2511ZM677.191 68.0387C680.32 68.1569 670.114 69.2044 671.589 69.7799C680.346 73.1955 686.005 86.5512 688.459 100.402C675.685 94.5122 669.59 91.9081 677.191 68.0387ZM696.973 79.9416C696.973 79.9416 765.164 72.1824 777.329 75.8825C786.377 78.6342 783.207 86.2937 777.145 94.7262C752.329 94.6261 728.794 97.4057 703.979 97.3057C704.168 91.4569 696.973 79.9416 696.973 79.9416ZM624.402 111.172C647.873 99.4594 656.87 90.4414 683.414 92.5401C678.891 92.9513 663.62 93.3724 662.502 98.544C665.916 98.8834 671.442 97.2788 673.278 100.177C662.671 103.979 660.108 104.492 649.501 108.294C663.41 108.594 661.277 113.761 675.186 114.061C651.7 125.804 637.239 119.498 611.594 120.878C615.328 116.307 619.014 113.861 624.402 111.172ZM420.971 128.383C448.242 109.219 475.11 99.4152 507.527 97.6629C491.795 107.247 464.16 104.703 451.891 120.478C457.395 120.678 457.395 120.678 462.898 120.878C449.39 125.881 449.39 125.881 435.881 130.884C447.351 130.356 473.784 122.111 481.91 128.883C454.358 132.57 428.753 142.325 401.459 147.295C406.166 139.292 413.396 133.706 420.971 128.383ZM777.216 105.02L778.218 103.814L776.541 100.82L777.216 105.02ZM268.573 127.082C275.784 125.712 283.048 124.184 290.387 124.08C299.641 123.949 308.84 125.528 318.055 126.381C320.599 126.617 320.06 126.492 321.407 128.083C304.546 128.388 296.83 128.135 278.579 130.734C268.659 132.147 254.733 130.589 249.761 139.29C257.766 140.39 257.766 140.39 265.771 141.491C254.372 144.276 234.707 146.052 224.945 155.3C231.249 155.7 231.249 155.7 237.553 156.101C218.641 162.505 218.641 162.505 199.729 168.909C216.339 170.31 216.339 170.31 232.95 171.711C232.608 172.198 232.51 173.062 231.924 173.174C216.759 176.075 201.028 179.083 185.72 181.317C189.699 148.349 241.031 132.315 268.573 127.082ZM698.761 120.01C698.862 119.993 690.112 116.125 687.679 113.411C685.433 110.906 669.462 107.393 678.599 106.372C683.368 105.839 683.689 107.316 691.688 107.857C706.797 108.879 745.57 106.983 745.57 106.983C745.57 106.983 744.988 129.976 746.845 130.595C739.619 142.922 725.785 139.825 723.966 152.298C718.355 151.776 720.98 152.483 716.061 150.297C716.717 141.997 721.414 138.368 728.469 135.287C725.719 132.274 715.11 130.061 712.317 127.082C715.194 127.128 685.58 122.237 698.761 120.01ZM668.18 126.682C680.004 126.499 698.985 127.713 710.81 127.646C710.81 137.742 677.213 136.459 673.046 136.613C657.487 137.19 632.16 132.849 613.996 139.69C614.956 123.362 656.707 126.859 668.18 126.682ZM757.641 128.505L753.235 106.297L779.88 106.944L779.86 108.235L779.409 109.952L778.493 112.352C778.493 112.352 778.902 132.886 778.902 137.288C767.92 137.288 757.641 128.505 757.641 128.505ZM19.6126 132.886C35.1917 141.027 44.9399 137.113 61.7648 135.2C62.9171 135.069 65.8537 142.593 66.4178 143.23C73.4943 151.223 80.2449 151.706 90.4583 152.899C64.5099 172.31 41.9514 191.115 19.2124 214.138C19.4125 173.512 19.4125 173.512 19.6126 132.886ZM599.987 133.686C599.451 141.553 591.387 141.339 584.339 142.529C572.449 144.538 560.48 146.061 548.603 148.145C538.887 149.85 529.289 155.17 519.535 153.699C517.318 153.365 515.458 153.259 514.907 150.885C512.355 139.901 525.982 138.629 533.844 137.839C542.271 136.992 550.721 136.405 559.16 135.687C592.006 133.936 592.006 133.936 599.987 133.686ZM21.2137 227.747C27.5864 219.609 34.6599 212.03 41.8269 204.582C52.1304 193.875 62.7475 183.464 73.5974 173.312C89.7373 158.209 110.153 151.913 130.884 145.694C124.477 152.684 114.272 153.342 106.469 158.502C109.671 159.503 109.671 159.503 112.873 160.503C100.265 165.907 100.265 165.907 87.6565 171.31C98.2633 173.312 98.2633 173.312 108.87 175.313C92.6597 183.118 92.6597 183.118 76.4493 190.923C84.3543 191.824 84.3543 191.824 92.2594 192.724C80.3518 197.627 80.3518 197.627 68.4441 202.53C90.3582 200.729 90.3582 200.729 112.272 198.928C65.7424 219.942 65.7424 219.942 19.2124 240.955C19.2706 237.392 18.5963 231.089 21.2137 227.747ZM503.124 146.895C507.792 147.056 500.45 158.239 495.819 158.852C480.572 160.871 465.201 161.802 449.89 163.255C443.179 163.892 436.53 165.09 429.827 165.807C426.051 166.211 414.704 168.131 410.585 165.258C402.117 159.353 425.668 156.513 433.955 155.225C440.583 154.195 447.233 153.3 453.892 152.498C470.29 150.523 486.618 146.323 503.124 146.895ZM141.691 240.755C166.482 233.293 191.376 225.969 216.715 220.655C298.295 203.544 380.058 187.105 462.298 173.512C484.745 169.802 507.798 171.488 530.392 168.809C553.415 166.078 575.993 160.27 598.986 157.301C630.195 153.272 673.079 147.333 704.813 146C699.91 148.502 691.229 156.96 686.326 159.462C692.619 168.581 695.424 159.576 705.034 163.058C699.03 176.967 693.465 182.087 687.461 195.996C693.265 193.694 697.049 191.023 702.853 188.722C705.054 200.029 705.054 200.029 707.256 211.336C712.65 203.829 715.014 194.377 716.862 185.319C720.664 187.721 723.336 190.615 727.138 193.016C731.097 185.8 720.705 174.02 720.164 165.807C719.939 162.397 723.033 159.603 724.467 156.501C726.65 165.315 728.332 174.269 731.016 182.944C732.458 187.605 739.577 188.325 742.102 192.5C745.598 198.281 746.356 205.324 748.482 211.736C752.585 203.681 754.398 193.963 760.79 187.571C763.843 184.518 769.396 186.87 773.698 186.52C776.3 170.31 776.3 170.31 778.902 154.099C779.102 203.331 779.102 203.331 779.302 252.563C753.523 247.676 727.275 244.819 701.965 237.903C642.745 221.723 590.864 191.531 527.74 190.523C489.812 189.917 456.184 203.715 419.07 205.733C418.87 207.234 418.87 207.234 418.67 208.734C382.63 213.854 346.443 218.03 310.55 224.094C287.973 227.909 266.106 235.765 243.357 238.354C209.512 242.205 175.313 241.689 141.291 243.357C141.424 242.49 140.851 241.008 141.691 240.755ZM767.695 150.497C767.695 162.743 770.209 171.338 756.888 173.312C757.716 162.981 749.295 143.376 767.695 150.497ZM736.474 152.098C751.521 142.263 744.577 167.041 745.28 174.913C740.877 174.913 740.877 174.913 736.474 174.913C736.474 163.505 736.474 163.505 736.474 152.098ZM335.216 184.369C327.07 186.051 319.064 190.467 310.8 189.522C308.605 189.271 308.762 180.558 310.6 180.116C325.241 176.594 340.019 173.639 354.829 170.91C369.346 168.235 383.981 166.24 398.557 163.906C398.207 167.808 398.207 167.808 397.856 171.711C376.947 175.788 356.069 180.063 335.216 184.369ZM210.536 208.734C205.846 209.526 204.304 199.776 207.534 197.527C210.694 195.327 220.607 195.14 221.243 195.026C230.118 193.432 238.877 191.223 247.76 189.672C269.478 185.882 274.186 186.235 297.342 184.669C298.167 188.196 298.167 188.196 298.993 191.724C269.505 197.075 240.032 203.753 210.536 208.734ZM192.036 201.692C193.562 206.609 193.891 211.752 187.796 213.7C174.445 217.968 160.57 220.645 147.495 225.695C136.431 229.969 125.891 235.739 114.474 238.954C112.961 239.38 108.838 232.687 108.47 232.15C121.882 215.758 171.848 202.984 192.036 201.692ZM475.274 261.36C482.972 258.328 482.471 246.451 486.463 239.204C490.476 231.92 505.914 230.235 512.53 230.348C534.46 230.723 515.527 261.09 534.644 262.319C564.12 264.215 593.682 264.354 623.202 265.371C623.202 266.572 623.202 266.572 623.202 267.773C650.819 267.906 678.524 265.977 706.055 268.173C726.724 269.821 747.111 274.377 767.262 279.26C770.237 279.981 772.625 282.444 774.599 284.783C783.133 294.9 778.817 310.983 779.302 324.209C776.3 324.209 776.3 324.209 773.298 324.209C774.699 318.005 774.699 318.005 776.1 311.801C770.897 314.202 770.897 314.202 765.693 316.604C765.293 315.603 765.293 315.603 764.893 314.603C761.891 318.205 761.891 318.205 758.889 321.807C757.588 320.106 757.588 320.106 756.287 318.405C754.121 322.076 752.344 328.146 748.082 328.211C748.282 326.41 748.282 326.41 748.482 324.609C747.215 325.21 745.462 325.247 744.68 326.41C732.036 345.209 729.716 360.4 704.241 359.519C689.014 358.993 683.033 320.864 678.162 309.887C674.606 301.874 653.941 305.942 657.136 315.603C659.276 322.074 666.039 327.011 666.429 333.815C657.127 323.684 658.079 328.953 648.418 323.008C650.502 330.213 651.785 337.7 654.672 344.622C656.452 348.891 661.175 352.026 661.626 356.63C658.011 356.352 651.951 356.225 649.969 352.89C643.423 341.877 639.302 329.544 635.209 317.404C634.067 314.016 638.187 310.098 636.81 306.798C630.639 292.01 617.798 303.077 617.798 314.09C617.798 321.845 624.738 320.302 625.203 328.211C621.156 324.697 621.156 324.697 617.11 321.182C615.326 323.787 617.214 327.554 617.998 330.613C612.561 328.283 614.955 324.835 608.392 323.408C609.142 328.378 609.101 333.534 610.643 338.318C612.396 343.754 616.32 348.309 618.161 353.715C621.142 362.471 606.777 352.493 606.766 352.477C601.132 344.496 595.159 336.501 591.581 327.411C587.799 317.802 594.708 308.368 584.627 304.246C570.323 298.398 563.727 321.077 579.974 325.41C578.096 334.261 580.598 331.034 572.369 335.016C572.463 330.697 572.983 333.234 567.966 328.612C568.166 332.614 568.166 332.614 568.366 336.617C562.891 331.08 566.019 332.259 559.561 331.814C565.965 344.822 565.965 344.822 572.369 357.831C559.556 357.104 558.396 351.343 552.206 338.205C548.55 330.447 548.88 318.539 541.061 315.015C527.872 309.072 525.355 323.427 528.741 332.214C525.939 331.614 525.939 331.614 523.137 331.013C524.338 335.016 524.338 335.016 525.539 339.018C519.637 331.596 523.247 332.47 515.707 333.778C516.583 338.727 516.705 343.87 518.334 348.625C518.636 349.505 520.448 348.604 521.036 349.325C522.93 351.652 523.904 354.595 525.338 357.23C522.137 357.788 516.289 360.092 515.595 356.917C514.633 352.522 516.243 347.533 514.281 343.484C512.264 339.319 494.738 335.062 494.569 342.671C494.456 347.746 497.07 352.51 498.321 357.43C493.41 356.651 487.462 358.208 483.587 355.091C480.21 352.375 481.135 346.778 479.909 342.621C483.866 342.266 488.104 343.066 491.779 341.558C493.962 340.662 494.034 337.07 496.12 335.966C499.048 334.417 503.863 335.87 505.626 333.065C503.074 329.91 497.499 331.028 493.518 331.814C497.166 328.55 502.655 327.889 507.527 327.411C507.893 315.694 502.094 323.627 495.344 325.247C491.496 326.171 487.124 324.595 483.512 326.21C483.354 317.408 486.017 314.534 478.108 310.25C474.962 308.546 463.958 310.22 463.511 314.703C462.892 320.917 465.51 327.26 464.449 333.415C463.149 340.956 460.363 348.332 456.569 354.979C455.576 356.718 452.94 356.97 450.941 357.08C434.719 357.971 429.257 357.202 433.342 339.957C435.436 331.114 447.525 329.899 449.089 321.407C445.687 321.807 445.687 321.807 442.285 322.208C446.888 317.404 446.888 317.404 451.491 312.601C446.688 312.001 446.688 312.001 441.885 311.401C446.688 306.397 446.688 306.397 451.491 301.394C445.287 301.394 445.287 301.394 439.083 301.394C443.049 295.707 447.728 290.089 449.49 283.383C444.897 285.275 439.969 288.068 435.08 287.185C439.083 282.415 442.012 276.482 447.088 272.876C450.07 270.757 454.293 271.608 457.895 270.975C454.266 266.669 447.111 267.181 441.484 266.972C441.484 265.571 441.484 265.571 441.484 264.17C452.651 264.13 464.495 265.607 475.274 261.36ZM95.9618 249.01C70.948 263.734 45.2162 278.512 19.2124 291.388C19.312 286.707 16.2331 279.844 20.213 277.379C40.6752 264.704 62.4889 252.883 83.854 241.756C101.783 237.56 102.18 245.35 95.9618 249.01ZM612.845 257.116C591.933 256.396 571.02 255.483 550.154 253.914C540.802 253.21 535.145 254.319 535.145 245.758C570.901 246.659 606.673 247.082 642.414 248.46C680.989 249.947 719.54 252.066 758.076 254.351C771.026 255.119 778.909 254.256 779.302 267.372C724.045 261.287 668.403 259.028 612.845 257.116ZM125.031 254.314C240.244 251.813 355.481 250.618 470.703 248.56C469.232 257.13 461.014 255.193 452.091 254.964C430.458 254.41 408.89 251.801 387.249 251.762C371.94 251.735 356.718 254.168 341.42 254.764C263.625 257.795 187.34 258.244 109.671 255.965C114.791 255.415 119.882 254.426 125.031 254.314ZM19.6752 340.757C19.8377 333.135 20.5107 325.519 21.4638 317.955C21.7943 315.332 23.2373 300.385 28.4183 297.191C42.3652 288.595 57.2205 281.559 71.8463 274.177C81.9481 269.078 90.3512 263.607 101.615 264.12C120.323 264.972 138.976 267.169 157.702 267.372C147.774 285.513 137.387 303.409 127.92 321.795C109.041 358.459 111.595 401.287 116.075 441.084C113.39 440.217 110.837 438.328 108.02 438.483C105.562 438.617 103.927 441.885 101.465 441.885C98.1782 441.885 95.4942 438.607 92.2094 438.483C89.5023 438.38 87.276 441.255 84.567 441.247C81.4815 441.237 78.8343 438.432 75.7488 438.432C73.0576 438.432 70.8727 441.247 68.1814 441.247C65.2939 441.247 62.8762 438.425 59.9886 438.432C57.5447 438.439 55.6782 441.299 53.2343 441.284C49.9641 441.264 47.1481 438.381 43.8783 438.332C41.2746 438.293 39.1503 441.141 36.5485 441.034C33.4959 440.909 31.0656 437.467 28.0181 437.682C24.5957 437.923 21.8808 440.751 18.8121 442.285C19.0998 408.442 18.9535 374.593 19.6752 340.757ZM208.684 322.408C212.079 311.094 216.713 300.166 221.543 289.386C224.5 282.786 226.523 275.098 231.999 270.374C236.08 266.854 242.383 267.14 247.76 266.772C273.666 265 299.643 263.88 325.61 263.97C357.65 264.081 389.651 266.238 421.672 267.372C417.008 274.009 405.563 270.04 397.456 269.774C374.666 269.026 348.931 259.985 329.062 271.175C323.203 274.475 326.49 290.03 327.423 291.65C330.645 297.243 337.021 300.281 341.82 304.596C332.75 306.568 327.659 305.747 322.007 314.302C320.232 316.99 319.413 320.388 319.406 323.608C319.366 341.829 329.831 356.071 348.224 351.827C349.043 355.513 354.146 357.005 357.831 357.831C351.426 358.031 351.426 358.031 345.022 358.231C345.022 361.033 345.022 361.033 345.022 363.834C349.225 363.834 349.225 363.834 353.428 363.834C349.847 366.503 343.796 371.217 351.026 374.641C359.128 362.489 366.207 368.279 368.237 380.645C373.944 379.303 371.986 381.011 374.041 375.442C377.343 380.845 377.343 380.845 380.645 386.249C377.69 387.182 376.973 391.259 375.442 393.954C374.738 395.193 372.399 394.945 371.84 396.255C366.828 408.002 388.426 419.683 395.517 422.735C399.465 424.434 403.916 425.067 408.213 424.986C440.677 424.377 473.088 422.109 505.526 420.671C500.091 426.268 500.091 426.268 494.656 431.866C496.361 434.522 497.574 437.568 499.772 439.833C501.36 441.47 504.77 441.166 505.701 443.248C507.156 446.505 506.243 450.379 506.076 453.942C505.93 457.058 499.784 454.476 496.72 453.892C498.121 457.895 498.121 457.895 499.522 461.898C496.52 459.096 496.52 459.096 493.518 456.294C495.529 465.061 498.677 473.692 503.124 481.51C497.387 481.51 489.883 485.652 485.913 481.51C478.078 473.336 476.35 460.907 473.005 450.09C470.375 441.587 475.048 431.29 465.9 427.075C452.515 420.908 436.702 441.882 457.495 449.49C457.295 453.092 457.295 453.092 457.094 456.694C448.761 458.541 449.126 461.744 442.285 462.698C443.319 467.172 442.851 472.291 445.387 476.119C447.405 479.165 452.902 478.726 454.693 481.91C449.068 481.898 442.064 485.563 437.82 481.873C426.985 472.454 430.272 453.569 422.072 441.785C418.891 437.214 401.611 436.508 403.86 446.688C405.13 452.435 411.942 456.728 411.515 462.598C404.895 464.131 408.149 464.548 401.859 460.697C397.827 464.729 400.374 463.397 393.854 463.899C396.761 470.234 399.408 477.892 405.511 481.26C405.186 482.386 405.186 482.386 404.861 483.512C395.355 484.112 395.355 484.112 385.849 484.712C386.949 479.909 386.949 479.909 388.05 475.106C377.654 470.948 382.8 471.085 372.64 474.105C373.04 479.409 373.04 479.409 373.441 484.712C368.978 484.104 368.978 484.104 364.515 483.496C363.174 476.499 363.174 476.499 361.833 469.502C370.983 469.181 379.619 464.706 387.85 460.697C379.444 462.298 379.444 462.298 371.039 463.899C371.702 458.93 379.773 458.715 384.623 457.445C383.635 455.569 383.635 455.569 382.647 453.692C371.564 457.145 371.564 457.145 360.482 460.597C359.118 455.265 361.433 449.551 363.034 444.286C359.632 445.287 359.632 445.287 356.23 446.288C357.605 448.639 357.605 448.639 358.981 450.991C356.405 451.441 356.405 451.441 353.828 451.891C354.829 454.693 354.829 454.693 355.829 457.495C345.315 455.361 350.228 446.475 357.43 443.085C355.996 441.735 355.016 439.596 353.128 439.033C349.677 438.004 342.76 440.882 342.821 445.437C342.895 450.944 346.956 455.849 347.274 461.347C347.702 468.761 345.773 476.123 345.022 483.512C335.057 480.973 321.846 480.351 316.604 471.504C320.807 471.504 320.807 471.504 325.009 471.504C325.009 469.502 325.009 469.502 325.009 467.501C320.006 467.501 320.006 467.501 315.003 467.501C317.586 455.632 327.154 455.085 334.215 444.687C328.612 444.286 328.612 444.286 323.008 443.886C326.41 439.283 326.41 439.283 329.812 434.68C323.608 433.88 323.608 433.88 317.404 433.079C321.807 426.275 321.807 426.275 326.21 419.47C321.507 419.871 321.507 419.871 316.804 420.271C322.108 410.264 322.108 410.264 327.411 400.258C318.305 403.66 318.305 403.66 309.199 407.062C308.608 405.956 308.608 405.956 308.016 404.85C315.812 396.35 315.812 396.35 323.608 387.85C316.317 385.123 317.665 387.728 317.104 381.921C322.944 380.801 331.212 381.486 334.015 376.242C326.795 375.733 319.838 372.47 312.601 372.64C310.087 372.699 308.111 375.483 305.597 375.442C303.595 375.409 302.394 372.52 300.394 372.44C298.19 372.352 296.489 374.828 294.29 374.992C256.755 377.776 227.047 375.303 192.124 387.45C197.644 365.769 202.256 343.837 208.684 322.408ZM194.777 573.896C169.26 563.517 158.912 528.229 151.76 504.525C135.792 451.6 125.75 400.349 138.314 345.735C144.021 320.928 158.827 289.374 177.714 271.975C185.034 265.233 200.456 268.945 209.335 268.173C194.485 295.333 173.602 326.244 166.832 358.106C164.593 368.645 164.81 379.579 164.594 390.351C163.631 438.17 164.731 490.991 193.925 531.943C204.606 546.926 216.473 561.028 227.747 575.571C216.743 575.49 204.971 578.041 194.777 573.896ZM361.833 272.676C373.791 273.966 385.639 276.486 397.656 276.978C402.841 277.191 407.907 275.335 413.066 274.777C427.35 273.232 425.263 282.738 416.543 290.65C409.036 297.462 398.916 292.795 390.339 296.929C386.302 298.874 387.061 302.549 383.647 305.597C382.757 306.392 381.288 306.016 380.095 306.047C377.883 306.105 364.124 307.225 360.02 304.252C353.016 299.178 363.802 297.855 349.275 300.293C335.497 302.606 321.859 278.236 336.817 272.175C344.542 269.045 353.572 271.784 361.833 272.676ZM437.882 275.377C436.233 281.033 430.16 291.452 424.273 292.188C427.737 285.817 431.451 279.236 437.882 275.377ZM627.604 319.406C631.145 314.16 629.654 310.422 623.602 308.999C632.196 304.702 635.643 319.406 627.604 319.406ZM354.628 321.007C356.65 317.536 356.102 316.736 360.382 316.054C363.77 315.513 367.21 315.32 370.639 315.203C415.207 313.689 361.084 342.058 352.227 328.211C346.323 335.024 343.073 339.098 351.827 346.023C308.451 358.535 324.302 279.821 354.628 321.007ZM673.634 322.208C669.562 322.208 663.31 321.915 663.928 316.354C665.179 316.079 665.179 316.079 666.429 315.803C664.828 313.602 664.828 313.602 663.227 311.401C672.508 310.163 673.167 313.332 673.634 322.208ZM578.773 313.802C585.337 314.13 587.858 315.311 585.327 322.095C583.907 317.85 583.162 316.604 578.773 316.604C578.773 315.203 578.773 315.203 578.773 313.802ZM477.908 318.205C475.353 320.76 474.559 322.882 477.508 325.41C475.106 325.41 475.106 325.41 472.705 325.41C472.805 327.411 472.805 327.411 472.905 329.412C463.096 326.394 471.014 318.205 477.908 318.205ZM537.947 332.214C537.947 331.013 537.947 331.013 537.947 329.812C535.345 329.812 535.345 329.812 532.743 329.812C534.344 326.811 534.344 326.811 535.945 323.809C534.745 323.408 534.745 323.408 533.544 323.008C538.239 316.434 545.805 330.468 537.947 332.214ZM676.236 324.809C680.216 331.082 683.135 337.97 686.442 344.622C680.238 347.624 680.238 347.624 674.034 350.626C671.58 343.053 680.383 335.802 669.231 333.015C671.059 330.045 673.332 326.784 676.236 324.809ZM763.692 326.21C761.683 334.122 755.047 339.622 748.082 343.421C753.65 334.721 757.404 333.284 763.692 326.21ZM778.902 329.412C779.102 332.814 779.102 332.814 779.302 336.217C776.8 335.416 776.8 335.416 774.299 334.616C776.986 330.853 775.457 332.592 778.902 329.412ZM475.106 334.616C467.546 338.023 475.179 343.816 475.506 351.026C458.053 343.347 470.834 329.489 475.106 334.616ZM542.75 333.415C545.563 338.328 547.796 347.413 538.384 345.635C540.302 342.237 540.401 335.611 542.75 333.415ZM779.302 337.017C778.486 342.477 776.261 342.515 771.297 343.822C773.82 341.439 776.213 338.658 779.302 337.017ZM403.46 338.018C401.278 343.861 394.259 345.055 393.053 337.818C399.727 337.54 396.258 337.503 403.46 338.018ZM383.847 338.618C388.263 339.599 389.229 339.632 390.652 343.822C386.134 343.822 385.167 342.908 383.847 338.618ZM379.845 345.022C377.743 342.821 377.743 342.821 375.642 340.619C378.725 341.031 378.988 342.167 379.845 345.022ZM363.034 346.623C357.356 346.281 356.306 347.448 355.229 342.421C360.929 342.308 360.747 342.05 363.034 346.623ZM365.435 341.02C370.096 341.173 372.875 340.733 373.441 345.823C368.696 345.823 365.874 346.288 365.435 341.02ZM779.302 345.022C779.269 363.167 779.423 381.314 779.202 399.457C779.112 406.878 782.392 415.921 777.701 421.672C777.153 422.344 776.152 422.832 775.3 422.672C771.822 422.021 768.613 418.612 765.18 419.47C763.061 420 761.361 422.068 759.177 422.097C756.024 422.139 753.185 419.558 750.033 419.67C747.51 419.761 745.604 422.672 743.079 422.672C739.883 422.672 737.169 419.67 733.973 419.67C731.279 419.67 729.161 422.742 726.468 422.672C723.57 422.598 721.36 419.377 718.463 419.27C708.394 418.9 696.127 425.735 687.043 418.67C687.374 417.688 687.374 417.688 687.706 416.706C680.67 418.088 680.67 418.088 673.634 419.47C675.303 411.906 676.838 396.367 681.493 395.885C692.378 394.759 703.369 394.925 714.26 393.854C717.401 393.545 720.83 393.449 723.491 391.752C730.987 386.975 735.465 378.346 742.879 373.441C752.66 366.969 767.465 363.394 773.698 352.627C771.097 352.927 771.097 352.927 768.495 353.228C775.235 347.297 771.64 350.042 779.302 345.022ZM503.124 348.625C505.726 348.625 505.726 348.625 508.328 348.625C506.827 352.127 506.827 352.127 505.326 355.629C503.341 352.919 503.532 352.094 503.124 348.625ZM398.257 349.025C396.068 354.249 394.685 360.054 390.75 364.233C367.269 351.86 381.174 349.025 398.257 349.025ZM367.637 352.427C363.893 354.299 365.126 352.984 363.434 355.829C371.49 355.829 372.386 359.012 375.442 366.236C368.919 361.707 362.159 357.475 356.029 352.427C359.899 352.427 363.768 352.427 367.637 352.427ZM738.076 367.437C737.687 362.384 736.709 358.291 740.877 354.829C752.679 354.681 740.249 366.497 738.076 367.437ZM423.473 368.237C420.895 372.72 419.232 371.946 419.07 377.843C414.254 375.091 413.588 371.822 407.463 371.439C412.501 367.54 413.071 367.208 413.867 361.033C418.196 361.655 418.386 366.871 423.473 368.237ZM453.892 364.635C455.093 364.835 455.093 364.835 456.294 365.035C454.893 365.435 454.893 365.435 453.492 365.836C454.893 366.236 454.893 366.236 456.294 366.636C455.293 367.237 455.293 367.237 454.293 367.837C455.293 368.037 455.293 368.037 456.294 368.237C454.893 368.638 454.893 368.638 453.492 369.038C455.093 369.438 455.093 369.438 456.694 369.838C455.093 370.038 455.093 370.038 453.492 370.239C454.793 371.371 454.793 371.371 456.094 372.502C454.793 373.172 454.793 373.172 453.492 373.841C454.893 374.641 454.893 374.641 456.294 375.442C455.493 376.242 455.493 376.242 454.693 377.043C455.493 377.343 455.493 377.343 456.294 377.643C454.893 378.144 454.893 378.144 453.492 378.644C454.893 378.844 454.893 378.844 456.294 379.044C454.693 379.444 454.693 379.444 453.092 379.845C454.493 380.445 454.493 380.445 455.894 381.046C454.493 381.446 454.493 381.446 453.092 381.846C454.593 382.446 454.593 382.446 456.094 383.047C454.793 383.247 454.793 383.247 453.492 383.447C454.693 384.648 454.693 384.648 455.894 385.849C447.095 383.449 447.688 367.971 453.692 362.634C453.792 363.634 453.792 363.634 453.892 364.635ZM721.665 379.444C721.167 373.635 719.436 367.842 724.467 363.834C739.628 359.912 727.185 377.236 721.665 379.444ZM383.847 369.038C381.312 368.023 380.809 367.183 379.244 364.835C383.046 364.137 383.19 365.454 383.847 369.038ZM712.459 364.435C711.659 365.335 711.659 365.335 710.858 366.236C711.859 366.536 711.859 366.536 712.859 366.836C711.859 367.337 711.859 367.337 710.858 367.837C713.456 367.837 712.561 367.24 713.66 369.438C712.259 370.239 712.259 370.239 710.858 371.039C712.259 371.239 712.259 371.239 713.66 371.439C712.059 371.84 712.059 371.84 710.458 372.24C711.859 372.84 711.859 372.84 713.26 373.441C711.859 373.841 711.859 373.841 710.458 374.241C711.859 374.241 711.859 374.241 713.26 374.241C712.059 375.042 712.059 375.042 710.858 375.842C713.399 376.35 712.694 375.582 713.26 377.843C712.059 378.244 712.059 378.244 710.858 378.644C712.059 378.944 712.059 378.944 713.26 379.244C712.259 379.745 712.259 379.745 711.258 380.245C712.459 380.445 712.459 380.445 713.66 380.645C711.859 381.046 711.859 381.046 710.057 381.446C711.659 382.146 711.659 382.146 713.26 382.847C711.859 383.147 711.859 383.147 710.458 383.447C711.558 383.947 711.558 383.947 712.659 384.448C711.158 384.748 711.158 384.748 709.657 385.048C710.858 386.049 710.858 386.049 712.059 387.049C703.665 387.329 705.171 365.649 712.459 364.435ZM644.153 364.935C643.884 365.786 643.884 365.786 643.615 366.636C644.715 366.836 644.715 366.836 645.816 367.036C644.715 367.637 644.715 367.637 643.615 368.237C644.815 368.037 644.815 368.037 646.016 367.837C646.216 368.838 646.216 368.838 646.416 369.838C645.016 370.439 645.016 370.439 643.615 371.039C645.216 371.539 645.216 371.539 646.817 372.04C645.216 372.34 645.216 372.34 643.615 372.64C644.815 373.04 644.815 373.04 646.016 373.441C644.615 373.641 644.615 373.641 643.214 373.841C644.615 374.241 644.615 374.241 646.016 374.641C645.816 375.642 645.816 375.642 645.616 376.643C644.215 376.843 644.215 376.843 642.814 377.043C644.415 377.443 644.415 377.443 646.016 377.843C645.416 378.444 645.416 378.444 644.815 379.044C645.616 379.444 645.616 379.444 646.416 379.845C644.815 380.045 644.815 380.045 643.214 380.245C644.615 380.645 644.615 380.645 646.016 381.046C645.016 381.646 645.016 381.646 644.015 382.246C645.016 382.647 645.016 382.647 646.016 383.047C644.615 383.647 644.615 383.647 643.214 384.248C644.815 384.648 644.815 384.648 646.416 385.048C644.615 385.248 644.615 385.248 642.814 385.448C644.015 386.649 644.015 386.649 645.216 387.85C637.132 385.425 637.514 368.821 644.153 364.935ZM672.033 364.635C671.232 365.435 671.232 365.435 670.432 366.236C671.833 366.636 671.833 366.636 673.234 367.036C671.833 367.237 671.833 367.237 670.432 367.437C671.433 368.037 671.433 368.037 672.433 368.638C671.232 368.838 671.232 368.838 670.032 369.038C671.633 369.538 671.633 369.538 673.234 370.038C672.033 370.339 672.033 370.339 670.832 370.639C671.933 371.439 671.933 371.439 673.034 372.24C671.533 372.44 671.533 372.44 670.032 372.64C671.433 373.04 671.433 373.04 672.833 373.441C671.232 373.641 671.232 373.641 669.631 373.841C671.132 374.341 671.132 374.341 672.633 374.842C671.132 375.142 671.132 375.142 669.631 375.442C670.832 376.042 670.832 376.042 672.033 376.643C671.032 377.043 671.032 377.043 670.032 377.443C671.433 377.843 671.433 377.843 672.833 378.244C671.433 378.644 671.433 378.644 670.032 379.044C671.533 379.444 671.533 379.444 673.034 379.845C671.333 380.045 671.333 380.045 669.631 380.245C671.032 380.445 671.032 380.445 672.433 380.645C671.433 381.246 671.433 381.246 670.432 381.846C671.433 382.346 671.433 382.346 672.433 382.847C671.833 383.547 671.833 383.547 671.232 384.248C671.833 384.848 671.833 384.848 672.433 385.448C671.232 385.448 671.232 385.448 670.032 385.448C671.032 386.649 671.032 386.649 672.033 387.85C662.75 386.69 664.156 367.096 672.033 364.635ZM692.846 364.635C691.846 365.435 691.846 365.435 690.845 366.236C692.446 366.636 692.446 366.636 694.047 367.036C693.047 367.237 693.047 367.237 692.046 367.437C692.646 368.237 692.646 368.237 693.247 369.038C692.046 369.238 692.046 369.238 690.845 369.438C692.646 369.638 692.646 369.638 694.447 369.838C692.846 370.239 692.846 370.239 691.245 370.639C692.846 371.239 692.846 371.239 694.447 371.84C693.247 372.04 693.247 372.04 692.046 372.24C692.846 373.04 692.846 373.04 693.647 373.841C692.246 373.841 692.246 373.841 690.845 373.841C692.246 374.341 692.246 374.341 693.647 374.842C692.446 375.342 692.446 375.342 691.245 375.842C692.446 376.042 692.446 376.042 693.647 376.242C693.647 377.043 693.647 377.043 693.647 377.843C692.246 378.244 692.246 378.244 690.845 378.644C692.246 379.044 692.246 379.044 693.647 379.444C692.046 379.845 692.046 379.845 690.445 380.245C692.046 380.445 692.046 380.445 693.647 380.645C692.446 381.046 692.446 381.046 691.245 381.446C692.446 382.146 692.446 382.146 693.647 382.847C692.446 383.147 692.446 383.147 691.245 383.447C692.246 384.047 692.246 384.047 693.247 384.648C692.046 384.848 692.046 384.848 690.845 385.048C691.846 386.449 691.846 386.449 692.846 387.85C684.962 385.879 685.28 365.923 692.846 364.635ZM489.515 365.636C488.715 366.336 488.715 366.336 487.914 367.036C489.115 367.437 489.115 367.437 490.316 367.837C489.115 368.237 489.115 368.237 487.914 368.638C489.215 368.838 489.215 368.838 490.516 369.038C489.215 369.638 489.215 369.638 487.914 370.239C489.215 370.439 489.215 370.439 490.516 370.639C489.615 371.239 489.615 371.239 488.715 371.84C489.916 372.24 489.916 372.24 491.116 372.64C489.515 372.84 489.515 372.84 487.914 373.04C489.015 373.541 489.015 373.541 490.116 374.041C489.015 374.541 489.015 374.541 487.914 375.042C489.115 375.242 489.115 375.242 490.316 375.442C489.115 375.842 489.115 375.842 487.914 376.242C488.915 376.843 488.915 376.843 489.916 377.443C488.915 377.643 488.915 377.643 487.914 377.843C492.277 378.858 491.857 381.92 487.914 383.047C489.015 383.347 489.015 383.347 490.116 383.647C489.215 383.947 489.215 383.947 488.315 384.248C489.315 384.848 489.315 384.848 490.316 385.448C489.115 385.849 489.115 385.849 487.914 386.249C488.515 387.249 488.515 387.249 489.115 388.25C480.76 388.25 482.376 364.743 489.515 365.636ZM507.927 365.435C507.327 366.236 507.327 366.236 506.726 367.036C507.727 367.237 507.727 367.237 508.728 367.437C508.728 370.156 509.347 369.19 506.726 370.239C507.927 370.439 507.927 370.439 509.128 370.639C507.727 371.039 507.727 371.039 506.326 371.439C508.127 371.94 508.127 371.94 509.929 372.44C508.328 372.74 508.328 372.74 506.726 373.04C507.927 373.541 507.927 373.541 509.128 374.041C507.927 374.541 507.927 374.541 506.726 375.042C508.127 375.242 508.127 375.242 509.528 375.442C507.927 375.842 507.927 375.842 506.326 376.242C507.727 376.743 507.727 376.743 509.128 377.243C508.328 377.543 508.328 377.543 507.527 377.843C508.127 378.444 508.127 378.444 508.728 379.044C507.527 379.244 507.527 379.244 506.326 379.444C507.727 379.444 507.727 379.444 509.128 379.444C508.467 382.089 509.205 380.773 505.926 382.647C507.527 383.047 507.527 383.047 509.128 383.447C507.727 383.847 507.727 383.847 506.326 384.248C507.727 384.948 507.727 384.948 509.128 385.648C507.727 385.949 507.727 385.949 506.326 386.249C507.127 387.049 507.127 387.049 507.927 387.85C499.885 386.845 500.45 367.679 507.927 365.435ZM528.34 365.035C527.34 366.036 527.34 366.036 526.339 367.036C527.54 367.437 527.54 367.437 528.741 367.837C527.54 367.837 527.54 367.837 526.339 367.837C527.34 368.537 527.34 368.537 528.34 369.238C527.34 369.738 527.34 369.738 526.339 370.239C527.94 370.639 527.94 370.639 529.541 371.039C527.94 371.039 527.94 371.039 526.339 371.039C527.94 371.74 527.94 371.74 529.541 372.44C528.741 372.74 528.741 372.74 527.94 373.04C528.34 373.841 528.34 373.841 528.741 374.641C527.94 374.641 527.94 374.641 527.14 374.641C527.94 375.042 527.94 375.042 528.741 375.442C527.74 375.842 527.74 375.842 526.739 376.242C528.919 376.787 528.094 376.151 529.141 378.244C527.74 378.644 527.74 378.644 526.339 379.044C527.94 379.545 527.94 379.545 529.541 380.045C528.34 380.345 528.34 380.345 527.14 380.645C528.14 381.046 528.14 381.046 529.141 381.446C527.34 381.846 527.34 381.846 525.539 382.246C527.14 382.847 527.14 382.847 528.741 383.447C527.44 383.847 527.44 383.847 526.139 384.248C527.44 385.048 527.44 385.048 528.741 385.849C527.54 385.849 527.54 385.849 526.339 385.849C527.04 386.849 527.04 386.849 527.74 387.85C519.726 386.617 521.56 366.73 528.34 365.035ZM546.752 365.035C545.952 366.036 545.952 366.036 545.151 367.036C546.552 367.437 546.552 367.437 547.953 367.837C546.352 367.837 546.352 367.837 544.751 367.837C545.752 368.237 545.752 368.237 546.752 368.638C546.152 369.238 546.152 369.238 545.551 369.838C546.552 370.239 546.552 370.239 547.553 370.639C546.752 371.039 546.752 371.039 545.952 371.439C547.153 371.94 547.153 371.94 548.353 372.44C545.503 373.509 547.566 374.767 544.351 376.643C545.551 377.043 545.551 377.043 546.752 377.443C545.351 377.443 545.351 377.443 543.95 377.443C545.752 378.044 545.752 378.044 547.553 378.644C546.752 379.044 546.752 379.044 545.952 379.444C546.652 379.72 546.652 379.72 547.353 379.995C545.62 382.285 546.702 381.658 544.351 382.246C545.752 382.847 545.752 382.847 547.153 383.447C545.952 383.847 545.952 383.847 544.751 384.248C546.052 384.848 546.052 384.848 547.353 385.448C546.052 385.648 546.052 385.648 544.751 385.849C545.551 386.849 545.551 386.849 546.352 387.85C538.014 387.092 539.06 366.349 546.752 365.035ZM473.905 365.435C473.305 366.236 473.305 366.236 472.705 367.036C473.905 367.437 473.905 367.437 475.106 367.837C473.805 368.237 473.805 368.237 472.504 368.638C473.605 368.838 473.605 368.838 474.706 369.038C474.906 370.239 474.906 370.239 475.106 371.439C474.105 371.639 474.105 371.639 473.105 371.84C474.105 372.24 474.105 372.24 475.106 372.64C473.746 375.157 474.786 374.321 471.904 375.042C473.505 375.242 473.505 375.242 475.106 375.442C473.305 375.842 473.305 375.842 471.504 376.242C472.73 376.493 472.73 376.493 473.955 376.743C472.834 378.722 472.965 377.686 473.505 379.845C474.306 379.845 474.306 379.845 475.106 379.845C475.106 381.046 475.106 381.046 475.106 382.246C473.505 382.246 473.505 382.246 471.904 382.246C473.305 383.047 473.305 383.047 474.706 383.847C473.405 384.248 473.405 384.248 472.104 384.648C473.505 385.148 473.505 385.148 474.906 385.648C473.405 385.949 473.405 385.949 471.904 386.249C472.705 387.249 472.705 387.249 473.505 388.25C465.119 386.573 466.841 367.609 473.905 365.435ZM566.365 366.636C565.564 367.637 565.564 367.637 564.764 368.638C565.965 369.238 565.965 369.238 567.165 369.838C565.765 370.038 565.765 370.038 564.364 370.239C565.765 370.239 565.765 370.239 567.165 370.239C566.365 371.039 566.365 371.039 565.564 371.84C566.565 372.04 566.565 372.04 567.566 372.24C565.965 372.84 565.965 372.84 564.364 373.441C566.065 373.741 566.065 373.741 567.766 374.041C566.865 374.341 566.865 374.341 565.965 374.641C565.965 376.067 565.965 376.067 565.965 377.493C564.764 377.868 564.764 377.868 563.563 378.244C566.278 380.416 565.035 379.175 567.265 381.996C566.415 382.321 566.415 382.321 565.564 382.647C566.565 382.847 566.565 382.847 567.566 383.047C565.965 383.447 565.965 383.447 564.364 383.847C565.564 384.648 565.564 384.648 566.765 385.448C565.164 385.648 565.164 385.648 563.563 385.849C564.864 386.449 564.864 386.449 566.165 387.049C564.864 387.249 564.864 387.249 563.563 387.45C564.764 388.65 564.764 388.65 565.965 389.851C557.926 388.244 558.146 368.463 566.365 366.636ZM599.186 366.636C598.386 367.637 598.386 367.637 597.585 368.638C598.786 369.238 598.786 369.238 599.987 369.838C598.586 369.838 598.586 369.838 597.185 369.838C598.185 370.239 598.185 370.239 599.186 370.639C598.185 371.039 598.185 371.039 597.185 371.439C599.186 371.84 599.186 371.84 601.187 372.24C600.187 372.64 600.187 372.64 599.186 373.04C599.886 373.641 599.886 373.641 600.587 374.241C598.886 374.441 598.886 374.441 597.185 374.641C598.586 375.042 598.586 375.042 599.987 375.442C598.386 375.642 598.386 375.642 596.784 375.842C598.285 376.342 598.285 376.342 599.786 376.843C598.085 377.343 598.085 377.343 596.384 377.843C597.985 378.244 597.985 378.244 599.586 378.644C597.985 378.844 597.985 378.844 596.384 379.044C597.985 379.444 597.985 379.444 599.586 379.845C598.586 380.445 598.586 380.445 597.585 381.046C598.786 381.446 598.786 381.446 599.987 381.846C598.586 382.246 598.586 382.246 597.185 382.647C598.486 382.947 598.486 382.947 599.786 383.247C598.686 383.547 598.686 383.547 597.585 383.847C598.586 384.248 598.586 384.248 599.586 384.648C598.586 385.248 598.586 385.248 597.585 385.849C598.586 386.449 598.586 386.449 599.586 387.049C598.185 387.249 598.185 387.249 596.784 387.45C597.985 388.65 597.985 388.65 599.186 389.851C590.659 387.847 590.553 368.116 599.186 366.636ZM618.799 366.636C617.677 368.88 618.769 369.344 617.198 371.439C618.398 371.74 618.398 371.74 619.599 372.04C618.398 372.54 618.398 372.54 617.198 373.04C618.799 373.641 618.799 373.641 620.4 374.241C619.399 374.441 619.399 374.441 618.398 374.641C618.999 375.242 618.999 375.242 619.599 375.842C618.198 375.842 618.198 375.842 616.797 375.842C618.198 376.443 618.198 376.443 619.599 377.043C618.398 377.443 618.398 377.443 617.198 377.843C618.198 378.244 618.198 378.244 619.199 378.644C618.398 379.044 618.398 379.044 617.598 379.444C618.599 379.645 618.599 379.645 619.599 379.845C618.999 380.445 618.999 380.445 618.398 381.046C619.399 381.246 619.399 381.246 620.4 381.446C619.599 381.646 619.599 381.646 618.799 381.846C619.399 382.346 619.399 382.346 619.999 382.847C618.398 383.347 618.398 383.347 616.797 383.847C618.198 384.448 618.198 384.448 619.599 385.048C618.198 385.248 618.198 385.248 616.797 385.448C618.398 386.249 618.398 386.249 619.999 387.049C618.398 387.249 618.398 387.249 616.797 387.45C617.998 388.65 617.998 388.65 619.199 389.851C610.3 388.071 610.997 369.037 618.799 366.636ZM430.227 375.242C431.204 380.264 429.882 382.454 425.074 384.248C426.445 381.38 427.647 377.285 430.227 375.242ZM190.723 405.461C185.905 391.749 209.69 384.754 218.341 383.847C227.129 382.926 235.943 382.267 244.758 381.646C262.265 380.412 279.842 380.432 297.392 380.245C297.101 382.919 297.074 387.333 295.59 390.051C292.821 395.125 290.126 400.281 286.725 404.955C283.127 409.898 269.377 406.971 264.12 407.963C258.013 409.115 260.524 418.851 254.964 419.07C246.564 419.401 238.153 418.803 229.748 418.67C238.206 394.988 198.178 426.68 190.723 405.461ZM302.195 388.65C302.595 386.549 302.595 386.549 302.995 384.448C308.52 376.777 314.646 385.374 302.195 388.65ZM487.514 381.446C487.714 381.379 488.515 381.112 488.715 381.046C488.515 380.979 487.714 380.712 487.514 380.645C487.514 380.779 487.514 381.312 487.514 381.446ZM506.326 381.446C506.593 381.379 507.66 381.112 507.927 381.046C507.66 380.979 506.593 380.712 506.326 380.645C506.326 380.779 506.326 381.312 506.326 381.446ZM395.055 403.86C400.095 408.9 397.844 414.614 405.411 416.268C413.973 418.14 427.666 412.913 431.878 420.271C425.141 420.221 418.401 420.277 411.665 420.121C399.341 419.834 396.252 414.508 387.6 409.764C380.833 406.053 369.122 402.59 383.447 397.856C382.446 395.255 382.446 395.255 381.446 392.653C388.889 390.999 411.079 399.147 395.055 403.86ZM307.398 393.453C305.905 400.172 300.277 405.293 293.789 407.062C294.991 400.18 300.628 395.235 307.398 393.453ZM597.585 396.255C611.594 396.956 611.594 396.956 625.603 397.656C620.644 401.553 627.638 418.934 633.608 419.07C637.492 419.159 640.994 416.569 644.815 415.868C641.613 406.462 641.613 406.462 638.411 397.056C647.884 396.956 657.443 396.172 666.83 397.456C661.726 407.262 661.726 407.262 656.623 417.069C656.123 412.266 656.123 412.266 655.622 407.463C645.197 415.31 646.607 440.637 631.207 435.08C627.804 444.486 624.897 454.087 621 463.298C616.318 474.366 598.857 485.886 586.178 480.309C579.647 477.437 579.036 467.939 575.971 461.497C572.944 455.136 568.391 449.222 567.165 442.285C566.074 436.106 573.976 434.58 570.718 427.325C568.198 421.715 562.877 422.17 560.261 417.369C556.913 411.226 553.924 404.894 550.755 398.657C556.372 397.623 582.406 394.405 584.377 399.858C582.375 400.158 582.375 400.158 580.374 400.458C585.501 415.84 589.017 427.359 606.191 417.069C603.583 410.029 600.722 403.076 597.585 396.255ZM515.332 412.266C513.146 412.266 510.957 412.194 508.778 412.015C481.398 409.771 498.767 390.747 499.122 403.46C502.524 403.26 502.524 403.26 505.926 403.06C506.569 412.53 520.479 408.356 527.54 409.664C523.422 412.198 520.371 412.266 515.332 412.266ZM459.496 400.458C467.926 400.371 476.37 400.106 484.787 400.571C489.688 400.841 489.21 409.343 491.116 413.867C477.221 413.314 446.078 415.554 436.681 401.459C446.051 400.719 446.531 400.592 459.496 400.458ZM538.935 402.472C538.477 403.969 537.537 404.734 536.133 405.011C528.998 406.42 520.315 404.17 513.531 403.06C516.123 401.245 517.981 401.015 521.136 400.458C526.993 399.973 540.239 398.203 538.935 402.472ZM432.829 409.664C436.003 411.531 439.485 410.216 442.285 412.666C436.25 411.907 430.006 411.95 424.223 410.064C420.028 408.696 419.481 406.205 414.667 405.861C418.393 389.943 429.949 407.97 432.829 409.664ZM409.464 400.658C410.344 407.716 413.137 406.816 416.668 412.466C410.464 412.166 410.464 412.166 404.26 411.865C405.164 406.443 405.057 403.863 409.464 400.658ZM668.431 410.665C666.947 422.037 666.786 426.328 656.423 431.078C659.013 423.393 663.239 416.895 668.431 410.665ZM189.722 412.266C199.128 415.268 199.128 415.268 208.534 418.269C200.842 425.962 199.067 436.387 192.324 444.687C189.081 437.39 190.182 420.533 189.722 412.266ZM302.195 414.267C304.596 414.667 304.596 414.667 306.998 415.067C304.824 418.905 304.582 417.183 306.598 420.271C305.397 420.471 305.397 420.471 304.196 420.671C305.997 422.272 305.997 422.272 307.798 423.873C305.797 424.273 305.797 424.273 303.796 424.674C305.397 426.675 305.397 426.675 306.998 428.676C304.997 428.876 304.997 428.876 302.995 429.076C304.196 430.677 304.196 430.677 305.397 432.279C303.996 432.479 303.996 432.479 302.595 432.679C303.596 435.681 303.596 435.681 304.596 438.683C301.594 438.883 301.594 438.883 298.592 439.083C300.394 426.675 300.394 426.675 302.195 414.267ZM540.949 414.667C550.921 417.896 546.862 430.889 550.204 437.832C551.76 441.063 557.711 440.731 558.385 443.336C559.183 446.419 554.9 455.603 550.505 452.492C547.222 450.167 550.42 448.614 545.952 448.289C545.952 450.49 545.952 450.49 545.952 452.692C542.17 448.054 544.696 449.531 537.947 449.089C538.809 454.634 541.989 457.002 539.548 462.698C541.497 463.334 541.315 462.881 542.299 464.9C544.787 470.003 547.136 475.173 549.554 480.309C537.323 480.169 537.989 482.095 532.943 472.304C528.255 463.207 521.979 453.418 517.946 443.561C516.696 440.506 518.581 438.967 519.51 436.244C522.751 426.739 514.599 421.552 507.927 417.669C513.406 417.06 535.386 412.866 540.949 414.667ZM197.802 453.242C198.525 442.426 203.447 438.619 207.534 429.677C209.656 425.033 208.11 421.145 214.613 419.946C219.857 418.978 220.936 428.546 223.744 433.079C226.786 431.077 226.32 430.71 230.549 431.278C239.451 432.473 248.293 434.08 257.166 435.481C257.666 434.08 257.666 434.08 258.166 432.679C261.168 433.88 261.168 433.88 264.17 435.08C259.422 448.535 239.933 447.901 228.147 450.29C224.399 443.456 227.072 444.469 222.618 443.736C216.937 454.856 209.629 456.064 213.337 468.702C220.73 467.002 216.897 466.632 224.545 471.504C224.545 468.302 224.545 468.302 224.545 465.1C227.346 466.901 227.346 466.901 230.148 468.702C229.948 466.901 229.948 466.901 229.748 465.1C232.75 466.3 232.75 466.3 235.752 467.501C235.752 465.5 235.752 465.5 235.752 463.499C241.356 464.699 241.356 464.699 246.959 465.9C246.497 456.975 253.661 464.853 257.366 466.3C256.275 460.114 256.281 458.627 262.369 459.096C262.669 461.097 262.669 461.097 262.969 463.098C264.57 463.098 264.57 463.098 266.171 463.098C266.792 455.305 283.338 457.737 288.186 457.495C285.527 465.174 283.186 466.298 274.677 467.914C267.499 469.277 260.284 470.537 253.013 471.254C245.288 472.015 246.531 472.319 243.957 467.901C239.855 468.702 239.855 468.702 235.752 469.502C236.552 471.104 236.552 471.104 237.353 472.705C235.393 472.411 231.42 470.091 229.548 470.503C224.124 471.697 226.131 475.17 219.779 475.644C211.327 476.275 205.361 474.757 197.327 474.306C197.486 467.284 197.334 460.249 197.802 453.242ZM683.841 424.473C686.299 424.486 688.443 426.8 690.895 426.625C693.434 426.444 695.306 423.399 697.85 423.473C700.958 423.563 703.345 427.075 706.455 427.075C709.14 427.075 710.975 423.473 713.66 423.473C716.893 423.473 719.432 427.075 722.666 427.075C725.351 427.075 727.185 423.473 729.87 423.473C733.165 423.473 735.782 427.158 739.076 427.075C741.707 427.009 743.25 423.141 745.881 423.073C748.989 422.992 751.376 426.675 754.486 426.675C757.291 426.675 759.286 423.107 762.091 423.073C765.175 423.035 767.727 425.642 770.697 426.475C772.938 427.103 777.776 423.155 779.302 422.272C779.252 431.599 779.481 440.931 779.152 450.253C779.008 454.335 780.532 460.428 776.901 462.298C772.812 464.404 766.14 459.343 763.092 459.496C760.063 459.648 757.705 462.422 754.761 463.148C751.108 464.05 747.838 459.321 744.079 459.496C740.874 459.645 738.297 462.415 735.174 463.148C731.503 464.01 728.234 459.322 724.467 459.496C721.227 459.645 718.691 463.082 715.448 463.148C711.755 463.224 708.547 460.003 704.854 459.896C701.786 459.807 699.147 463.557 696.149 462.898C685.246 460.504 674.947 461.273 663.227 460.297C672.433 451.091 672.433 451.091 681.639 441.885C676.686 441.885 671.761 442.623 666.83 443.085C668.562 440.909 679.111 424.45 683.841 424.473ZM508.34 439.358C506.122 435.638 506.272 435.481 502.324 435.481C504.312 434.486 505.018 434.267 505.713 432.116C502.576 429.971 503.758 431.078 501.923 429.076C511.08 427.856 520.204 434.295 508.34 439.358ZM553.557 428.276C559.492 428.89 576.188 436.734 561.162 439.883C560.304 435.598 558.846 436.795 554.357 437.082C556.158 434.08 556.158 434.08 557.959 431.078C555.758 431.078 555.758 431.078 553.557 431.078C553.557 429.677 553.557 429.677 553.557 428.276ZM293.789 429.877C293.789 432.679 293.789 432.679 293.789 435.481C292.388 435.481 292.388 435.481 290.987 435.481C290.987 438.761 290.52 439.639 287.385 440.684C287.986 442.485 287.986 442.485 288.586 444.286C284.892 444.741 280.04 449.274 279.38 452.692C277.579 452.492 277.579 452.492 275.778 452.291C276.782 449.391 290.45 430.545 293.789 429.877ZM650.819 431.078C650.693 438.665 650.3 442.893 642.814 445.887C645.182 441.02 647.233 435.225 650.819 431.078ZM665.229 433.079C661.347 437.834 656.279 441.49 651.62 445.487C654.594 439.539 659.12 435.594 665.229 433.079ZM467.751 437.932C468.16 442.154 465.848 444.951 463.298 448.089C462.998 445.987 462.998 445.987 462.698 443.886C459.569 445.625 457.744 445.549 454.293 444.687C456.694 442.485 456.694 442.485 459.096 440.284C455.794 439.983 455.794 439.983 452.492 439.683C456.685 437.035 463.071 436.784 467.751 437.932ZM20.8134 443.486C23.3172 441.704 44.7628 445.901 48.6313 445.887C51.3163 445.878 53.2694 441.496 55.836 442.285C67.095 445.745 68.637 442.748 79.8514 444.937C82.735 445.499 85.3242 442.109 88.2569 442.285C91.5225 442.481 94.1926 445.596 97.4628 445.687C99.9977 445.758 101.843 441.539 104.267 442.285C108.334 443.536 112.953 445.938 116.875 444.286C118.478 452.193 122.905 460.824 119.877 468.302C118.084 472.731 110.267 465.696 108.12 466.238C105.549 466.887 103.516 469.421 100.865 469.502C97.6175 469.602 94.8462 465.235 91.7216 466.125C89.2107 466.841 87.2651 469.54 84.6545 469.502C81.5452 469.458 79.1587 465.9 76.049 465.9C73.3042 465.9 71.2336 468.592 68.6442 469.502C65.7535 470.519 62.8047 465.155 59.5884 466.125C57.1784 466.852 55.3493 469.403 52.834 469.502C49.5484 469.633 46.7254 465.216 43.5656 466.125C41.0349 466.854 39.0569 469.507 36.4235 469.502C33.4626 469.498 31.055 466.949 28.2182 466.1C25.3503 465.243 21.4956 469.532 18.8121 470.703C18.8385 466.802 16.8682 446.293 20.8134 443.486ZM409.464 444.286C417.235 444.286 417.183 447.738 416.668 454.893C415.898 452.582 415.99 453.72 416.268 451.491C413.867 451.891 413.867 451.891 411.465 452.291C412.666 449.289 412.666 449.289 413.867 446.288C411.665 446.288 411.665 446.288 409.464 446.288C409.464 445.287 409.464 445.287 409.464 444.286ZM568.166 470.103C558.836 477.044 564.364 457.061 564.364 456.094C564.364 451.863 558.312 450.095 562.763 446.888C566.928 443.886 574.6 465.316 568.166 470.103ZM515.132 448.289C518.49 456.08 525.342 465.913 515.932 471.704C513.85 465.664 517.683 454.684 511.129 453.492C513.131 450.891 513.131 450.891 515.132 448.289ZM469.853 458.145C481.867 485.279 448.894 464.119 465.1 452.892C469.025 450.172 467.1 451.927 469.853 458.145ZM657.724 455.644C650.869 462.973 650.869 462.973 644.015 470.303C645.13 463.056 648.388 454.634 657.724 455.644ZM418.67 458.295C424.061 458.295 425.666 467.646 425.974 471.654C413.41 476.794 418.67 468.166 418.67 458.295ZM350.626 460.297C354.448 460.786 357.392 459.928 357.831 463.899C355.829 463.899 355.829 463.899 353.828 463.899C354.344 469.577 358.631 470.413 358.631 477.508C350.331 472.603 349.989 469.851 350.626 460.297ZM659.337 465.375C662.688 462.656 667.724 468.118 672.033 467.901C675.2 467.742 677.668 464.356 680.839 464.299C684.532 464.232 687.739 467.588 691.433 467.551C694.839 467.518 697.646 464.038 701.052 464.099C704.619 464.163 707.49 467.873 711.058 467.901C714.209 467.927 716.626 464.315 719.776 464.249C723.374 464.173 726.472 467.566 730.07 467.501C733.303 467.443 735.843 463.899 739.076 463.899C742.81 463.899 745.949 467.462 749.683 467.501C752.705 467.533 755.067 464.165 758.088 464.099C771.397 463.81 766.215 468.693 779.702 462.698C779.452 477.041 779.655 491.398 778.952 505.726C778.842 507.971 778.468 510.355 777.271 512.258C776.122 514.084 769.796 514.024 768.795 513.881C764.084 513.206 759.582 510.847 754.824 510.942C750.74 511.023 747.151 514.396 743.066 514.394C737.936 514.392 733.2 510.905 728.069 510.929C722.989 510.953 718.34 514.497 713.26 514.532C708.26 514.566 703.65 511.134 698.65 511.129C693.968 511.125 689.698 514.506 685.016 514.506C680.026 514.506 675.422 511.088 670.432 511.129C666.125 511.165 662.331 514.732 658.024 514.732C652.619 514.732 647.619 511.129 642.214 511.129C637.714 511.129 633.704 514.668 629.205 514.732C624.025 514.805 619.172 511.32 613.996 511.53C608.977 511.733 604.389 514.465 599.586 515.932C620.292 500.059 639.076 481.812 659.337 465.375ZM20.2581 472.811C22.3771 467.893 30.7726 473.992 32.621 473.905C35.0356 473.792 36.7607 471.349 39.0251 470.503C42.0899 469.358 44.9607 473.819 48.2311 473.905C50.4015 473.963 52.1084 471.933 54.1349 471.154C57.5409 469.844 61.293 472.845 64.9418 472.905C69.4226 472.978 69.9452 469.955 74.0227 471.041C82.61 473.327 87.4791 471.344 96.8624 473.255C99.4661 473.785 101.613 470.174 104.267 470.303C107.163 470.444 109.487 472.901 112.272 473.705C114.257 474.278 120.755 469.965 122.279 469.302C126.064 479.775 128.065 490.812 130.734 501.623C124.142 505.641 124.428 500.078 116.675 500.285C113.717 500.364 111.329 503.424 108.37 503.424C105.068 503.424 102.278 500.304 98.9763 500.285C96.2115 500.269 94.0236 503.324 91.2588 503.324C87.8047 503.324 84.8055 500.367 81.3524 500.285C78.4063 500.215 75.8724 503.82 72.997 503.174C69.9128 502.482 65.8736 499.944 62.3026 500.91C59.9484 501.547 58.0746 503.903 55.6358 503.925C52.3424 503.953 49.6397 499.433 46.4549 500.272C43.6115 501.022 41.3628 503.802 38.4248 503.925C35.6451 504.041 33.2846 501.775 30.6322 500.935C26.7238 499.698 21.2776 503.85 18.8121 505.125C19.006 494.345 15.9912 482.713 20.2581 472.811ZM635.034 470.978C633.727 474.222 630.776 476.538 628.405 479.109C623.787 472.182 626.403 466.786 635.034 470.978ZM312.601 477.708C310.6 476.607 310.6 476.607 308.599 475.506C310.2 477.708 310.2 477.708 311.801 479.909C309.8 478.508 309.8 478.508 307.798 477.107C308.799 479.109 308.799 479.109 309.8 481.11C308.199 480.109 308.199 480.109 306.598 479.109C307.598 480.71 307.598 480.71 308.599 482.311C304.913 480.731 306.643 481.674 303.395 479.509C304.796 482.111 304.796 482.111 306.197 484.712C304.196 483.311 304.196 483.311 302.195 481.91C303.596 484.112 303.596 484.112 304.997 486.313C302.795 485.313 302.795 485.313 300.594 484.312C301.844 485.963 301.844 485.963 303.095 487.614C300.279 486.407 301.647 487.106 298.993 485.513C300.193 487.514 300.193 487.514 301.394 489.515C299.593 488.715 299.593 488.715 297.792 487.914C299.107 490.808 298.298 489.48 300.193 491.917C297.992 490.916 297.992 490.916 295.791 489.916C296.791 491.517 296.791 491.517 297.792 493.118C295.39 492.918 295.39 492.918 292.989 492.717C294.39 494.318 294.39 494.318 295.791 495.92C293.389 495.119 293.389 495.119 290.987 494.318C292.589 497.12 292.589 497.12 294.19 499.922C291.388 498.521 291.388 498.521 288.586 497.12C289.386 500.322 289.386 500.322 290.187 503.524C275.376 492.663 308.922 462.529 312.601 477.708ZM280.581 473.305C277.929 479.178 274.431 492.055 267.16 494.527C266.483 494.757 263.626 493.516 263.069 493.218C253.138 487.886 245.116 487.578 246.159 476.107C254.656 475.114 272.594 470.909 280.581 473.305ZM229.748 478.708C226.063 483.558 219.553 485.703 213.738 487.514C219.341 487.514 219.341 487.514 224.945 487.514C224.945 489.315 224.945 489.315 224.945 491.116C214.327 491.565 207.369 489.134 206.133 500.723C212.337 498.121 212.337 498.121 218.541 495.519C203.183 513.19 211.624 507.183 227.547 498.121C230.602 502.53 234.626 507.92 233.35 513.131C237.753 513.131 237.753 513.131 242.156 513.131C238.629 505.776 238.629 505.776 235.101 498.421C242.245 502.686 251.555 510.112 254.141 518.531C259.187 534.962 231.986 538.084 260.693 552.894C263.584 554.385 266.828 555.151 270.024 555.758C275.356 556.771 280.76 557.583 286.184 557.734C320.996 558.705 355.827 559.29 390.652 559.123C402.527 559.066 404.812 557.646 414.267 554.357C370.038 548.553 370.038 548.553 325.81 542.75C332.803 541.53 349.096 537.902 357.03 539.197C365.101 540.515 372.478 545.271 380.633 545.889C391.077 546.681 401.481 543.546 411.953 543.363C427.863 543.083 434.406 561.398 440.284 572.369C377.243 573.103 314.197 575.658 251.162 574.57C247.895 574.514 245.235 571.457 243.119 568.967C223.668 546.071 201.616 512.192 197.677 481.56C208.342 480.359 219.041 479.447 229.748 478.708ZM610.293 485.325C611.761 483.022 610.734 484.23 613.795 482.111C629.293 479.03 626.271 500.637 610.293 485.325ZM375.442 480.309C380.481 481.125 381.446 480.217 381.446 484.712C376.717 483.848 376.274 484.47 375.442 480.309ZM242.756 489.115C240.255 489.315 240.255 489.315 237.753 489.515C238.842 499.311 230.734 487.953 229.748 484.712C235.213 483.932 241.698 482.232 242.756 489.115ZM328.612 486.914C326.41 487.214 326.41 487.214 324.209 487.514C325.81 488.415 325.81 488.415 327.411 489.315C324.609 489.215 324.609 489.215 321.807 489.115C326.313 490.484 324.767 489.362 327.011 491.517C324.609 491.517 324.609 491.517 322.208 491.517C324.409 492.317 324.409 492.317 326.61 493.118C324.209 493.518 324.209 493.518 321.807 493.918C324.009 495.119 324.009 495.119 326.21 496.32C323.809 496.32 323.809 496.32 321.407 496.32C323.608 497.521 323.608 497.521 325.81 498.721C322.808 498.721 322.808 498.721 319.806 498.721C322.408 499.622 322.408 499.622 325.009 500.522C322.208 500.823 322.208 500.823 319.406 501.123C322.007 502.023 322.007 502.023 324.609 502.924C322.007 503.424 322.007 503.424 319.406 503.925C322.208 504.925 322.208 504.925 325.009 505.926C322.408 506.126 322.408 506.126 319.806 506.326C321.807 507.427 321.807 507.427 323.809 508.528C321.207 509.628 321.207 509.628 318.605 510.729C321.126 511.179 321.126 511.179 323.646 511.63C321.126 512.38 321.126 512.38 318.605 513.131C321.407 514.532 321.407 514.532 324.209 515.932C321.407 516.333 321.407 516.333 318.605 516.733C320.807 518.934 320.807 518.934 323.008 521.136C308.28 519.733 311.398 480.459 328.612 486.914ZM529.141 488.715C527.14 488.915 527.14 488.915 525.138 489.115C526.839 490.116 526.839 490.116 528.541 491.116C526.439 491.116 526.439 491.116 524.338 491.116C526.339 491.917 526.339 491.917 528.34 492.717C525.338 492.717 525.338 492.717 522.337 492.717C525.038 493.718 525.038 493.718 527.74 494.719C525.038 494.919 525.038 494.919 522.337 495.119C524.738 496.52 524.738 496.52 527.14 497.921C524.738 497.921 524.738 497.921 522.337 497.921C524.538 498.921 524.538 498.921 526.739 499.922C524.938 500.322 524.938 500.322 523.137 500.723C524.838 501.223 524.838 501.223 526.539 501.723C523.737 502.224 523.737 502.224 520.936 502.724C523.437 503.624 523.437 503.624 525.939 504.525C523.737 505.025 523.737 505.025 521.536 505.526C523.737 506.326 523.737 506.326 525.939 507.127C523.437 507.727 523.437 507.727 520.936 508.328C523.037 509.128 523.037 509.128 525.138 509.929C522.537 510.929 522.537 510.929 519.935 511.93C522.537 512.53 522.537 512.53 525.138 513.131C522.337 513.731 522.337 513.731 519.535 514.331C523.568 515.944 521.63 514.949 525.338 517.333C522.437 517.634 522.437 517.634 519.535 517.934C522.136 520.335 522.136 520.335 524.738 522.737C506.707 522.034 515.997 477.762 529.141 488.715ZM563.563 488.315C560.961 488.515 560.961 488.515 558.36 488.715C560.761 489.916 560.761 489.916 563.163 491.116C560.161 490.916 560.161 490.916 557.159 490.716C559.761 491.517 559.761 491.517 562.362 492.317C560.161 492.517 560.161 492.517 557.959 492.717C559.961 493.718 559.961 493.718 561.962 494.719C559.36 494.919 559.36 494.919 556.759 495.119C559.16 496.42 559.16 496.42 561.562 497.721C559.16 497.621 559.16 497.621 556.759 497.521C558.76 498.621 558.76 498.621 560.761 499.722C557.328 500.778 559.064 500.453 555.558 500.723C558.16 501.123 558.16 501.123 560.761 501.523C558.06 502.124 558.06 502.124 555.358 502.724C558.06 503.524 558.06 503.524 560.761 504.325C557.759 504.525 557.759 504.525 554.757 504.725C557.759 505.926 557.759 505.926 560.761 507.127C557.759 507.527 557.759 507.527 554.757 507.927C556.859 508.928 556.859 508.928 558.96 509.929C556.859 510.929 556.859 510.929 554.757 511.93C557.159 512.33 557.159 512.33 559.561 512.73C556.759 513.331 556.759 513.331 553.957 513.931C556.959 515.532 556.959 515.532 559.961 517.133C556.959 517.533 556.959 517.533 553.957 517.934C556.158 520.035 556.158 520.035 558.36 522.136C545.052 522.136 544.479 485.495 563.563 488.315ZM489.916 489.716C487.414 490.216 487.414 490.216 484.912 490.716C486.614 491.317 486.614 491.317 488.315 491.917C485.713 491.917 485.713 491.917 483.111 491.917C485.713 492.918 485.713 492.918 488.315 493.918C485.913 494.118 485.913 494.118 483.512 494.318C487.424 495.326 485.912 494.477 488.315 496.32C485.313 496.32 485.313 496.32 482.311 496.32C484.512 497.521 484.512 497.521 486.714 498.721C483.712 498.721 483.712 498.721 480.71 498.721C483.812 500.122 483.812 500.122 486.914 501.523C485.213 501.523 485.213 501.523 483.512 501.523C484.712 502.224 484.712 502.224 485.913 502.924C483.712 503.224 483.712 503.224 481.51 503.524C483.712 504.525 483.712 504.525 485.913 505.526C483.712 505.726 483.712 505.726 481.51 505.926C483.512 507.227 483.512 507.227 485.513 508.528C483.111 508.828 483.111 508.828 480.71 509.128C482.711 510.029 482.711 510.029 484.712 510.929C482.511 512.03 482.511 512.03 480.309 513.131C482.611 513.531 482.611 513.531 484.912 513.931C482.511 514.732 482.511 514.732 480.109 515.532C482.811 516.933 482.811 516.933 485.513 518.334C482.511 518.734 482.511 518.734 479.509 519.134C481.91 521.336 481.91 521.336 484.312 523.537C469.304 522.618 472.564 482.775 489.916 489.716ZM587.579 487.914C595.481 489.89 597.335 498.058 602.988 502.124C596.867 506.496 589.868 492.206 587.579 487.914ZM425.474 489.916C422.872 490.316 422.872 490.316 420.271 490.716C422.441 491.736 422.441 491.736 424.611 492.755C420.928 492.705 422.776 492.847 419.07 492.317C423.941 493.677 422.279 492.508 424.674 494.719C421.271 494.318 421.271 494.318 417.869 493.918C420.871 495.119 420.871 495.119 423.873 496.32C420.471 496.32 420.471 496.32 417.069 496.32C419.871 497.721 419.871 497.721 422.672 499.122C420.271 499.322 420.271 499.322 417.869 499.522C420.471 500.522 420.471 500.522 423.073 501.523C420.871 501.723 420.871 501.723 418.67 501.923C420.271 502.624 420.271 502.624 421.872 503.324C419.47 503.624 419.47 503.624 417.069 503.925C419.47 504.925 419.47 504.925 421.872 505.926C419.07 506.326 419.07 506.326 416.268 506.726C418.67 507.727 418.67 507.727 421.071 508.728C418.87 509.128 418.87 509.128 416.668 509.528C418.47 510.429 418.47 510.429 420.271 511.329C418.269 512.43 418.269 512.43 416.268 513.531C418.57 514.031 418.57 514.031 420.871 514.532C418.37 515.032 418.37 515.032 415.868 515.532C419.381 517.832 417.635 516.851 421.071 518.534C418.269 519.034 418.269 519.034 415.468 519.535C417.301 522.387 415.95 520.571 420.271 524.338C404.684 522.389 408.121 484.131 425.474 489.916ZM334.415 503.725C335.663 493.822 335.918 486.748 346.623 490.316C344.622 490.516 344.622 490.516 342.621 490.716C344.422 491.717 344.422 491.717 346.223 492.717C344.422 492.918 344.422 492.918 342.621 493.118C343.621 493.918 343.621 493.918 344.622 494.719C342.621 494.719 342.621 494.719 340.619 494.719C343.221 495.519 343.221 495.519 345.823 496.32C342.421 496.52 342.421 496.52 339.018 496.72C341.62 498.121 341.62 498.121 344.222 499.522C341.62 499.522 341.62 499.522 339.018 499.522C343.363 501.01 341.761 499.863 344.222 502.324C341.42 502.324 341.42 502.324 338.618 502.324C340.801 503.155 340.801 503.155 342.983 503.987C340.601 504.156 340.601 504.156 338.218 504.325C340.72 505.426 340.72 505.426 343.221 506.526C341.32 506.827 341.32 506.827 339.419 507.127C342.531 508.652 341.439 507.593 343.021 509.929C340.419 509.929 340.419 509.929 337.818 509.929C340.019 510.929 340.019 510.929 342.22 511.93C339.619 512.73 339.619 512.73 337.017 513.531C339.619 514.131 339.619 514.131 342.22 514.732C340.019 515.532 340.019 515.532 337.818 516.333C342.312 518.495 340.757 517.18 343.021 519.535C340.019 519.735 340.019 519.735 337.017 519.935C339.419 522.337 339.419 522.337 341.82 524.738C329.946 522.099 332.983 515.092 334.415 503.725ZM357.28 509.778C358.439 499.047 357.075 486.371 370.614 490.654C368.425 490.685 368.425 490.685 366.236 490.716C368.237 491.717 368.237 491.717 370.239 492.717C367.237 492.517 367.237 492.517 364.235 492.317C367.036 493.318 367.036 493.318 369.838 494.318C367.437 494.519 367.437 494.519 365.035 494.719C367.237 495.519 367.237 495.519 369.438 496.32C366.236 496.52 366.236 496.52 363.034 496.72C365.435 498.121 365.435 498.121 367.837 499.522C365.636 499.722 365.636 499.722 363.434 499.922C365.836 500.923 365.836 500.923 368.237 501.923C365.636 502.124 365.636 502.124 363.034 502.324C365.435 502.924 365.435 502.924 367.837 503.524C365.435 503.925 365.435 503.925 363.034 504.325C365.035 505.326 365.035 505.326 367.036 506.326C362.817 506.442 364.494 505.925 361.833 507.127C366.577 508.466 365.172 507.173 367.036 509.528C364.435 509.728 364.435 509.728 361.833 509.929C364.035 510.729 364.035 510.729 366.236 511.53C363.634 512.53 363.634 512.53 361.033 513.531C363.834 513.731 363.834 513.731 366.636 513.931C364.254 516.231 365.835 515.159 361.433 516.333C366.176 518.453 364.769 516.98 366.636 519.535C363.834 519.735 363.834 519.735 361.033 519.935C363.434 522.136 363.434 522.136 365.836 524.338C356.878 522.658 356.289 518.962 357.28 509.778ZM394.654 490.116C392.053 490.416 392.053 490.416 389.451 490.716C391.452 491.517 391.452 491.517 393.453 492.317C390.852 492.317 390.852 492.317 388.25 492.317C390.852 493.518 390.852 493.518 393.453 494.719C390.452 494.519 390.452 494.519 387.45 494.318C392.686 495.67 390.905 494.455 393.453 496.72C390.251 496.72 390.251 496.72 387.049 496.72C391.792 498.84 390.386 497.368 392.253 499.922C389.851 499.722 389.851 499.722 387.45 499.522C389.651 500.522 389.651 500.522 391.852 501.523C389.251 501.723 389.251 501.723 386.649 501.923C388.851 502.724 388.851 502.724 391.052 503.524C388.851 503.925 388.851 503.925 386.649 504.325C388.851 505.226 388.851 505.226 391.052 506.126C388.65 506.426 388.65 506.426 386.249 506.726C388.35 507.927 388.35 507.927 390.452 509.128C388.35 509.328 388.35 509.328 386.249 509.528C388.25 510.729 388.25 510.729 390.251 511.93C386.569 512.666 388.305 512.004 385.048 513.931C387.65 514.131 387.65 514.131 390.251 514.331C387.65 515.332 387.65 515.332 385.048 516.333C389.995 518.173 388.386 516.746 390.652 519.535C387.45 519.735 387.45 519.735 384.248 519.935C386.749 521.936 386.749 521.936 389.251 523.938C376.131 526.853 375.513 484.799 394.654 490.116ZM450.29 491.517C447.789 491.917 447.789 491.917 445.287 492.317C447.088 493.018 447.088 493.018 448.889 493.718C446.788 494.018 446.788 494.018 444.687 494.318C446.688 495.119 446.688 495.119 448.689 495.92C445.687 495.92 445.687 495.92 442.685 495.92C445.687 496.82 445.687 496.82 448.689 497.721C445.887 498.021 445.887 498.021 443.085 498.321C445.687 499.522 445.687 499.522 448.289 500.723C445.487 500.723 445.487 500.723 442.685 500.723C445.087 501.923 445.087 501.923 447.488 503.124C444.887 503.324 444.887 503.324 442.285 503.524C447.471 504.145 446.011 502.803 447.889 505.526C444.687 505.526 444.687 505.526 441.484 505.526C444.086 506.526 444.086 506.526 446.688 507.527C444.486 507.927 444.486 507.927 442.285 508.328C444.186 509.228 444.186 509.228 446.087 510.129C443.586 510.629 443.586 510.629 441.084 511.129C443.286 512.03 443.286 512.03 445.487 512.93C442.077 514.504 443.816 513.916 440.284 514.732C443.085 515.132 443.085 515.132 445.887 515.532C443.64 517.51 445.187 516.563 440.684 517.133C442.979 519.337 441.409 518.094 445.887 520.135C443.085 520.635 443.085 520.635 440.284 521.136C444.541 524.785 443.554 522.85 444.687 525.939C429.94 521.906 433.515 485.226 450.29 491.517ZM247.359 491.116C250.348 493.743 254.695 496.578 255.765 500.723C249.856 499.917 243.893 499.119 240.155 493.918C245.513 494.892 243.123 494.309 247.359 495.519C247.359 493.318 247.359 493.318 247.359 491.116ZM20.5472 507.022C22.9069 502.209 32.1886 508.782 33.8218 508.728C36.6388 508.634 38.6712 505.215 41.4892 505.163C44.9747 505.099 47.9478 508.475 51.4331 508.403C54.2262 508.345 56.2073 504.748 59.0005 504.8C62.5327 504.866 65.3167 508.537 68.8444 508.728C71.3232 508.862 73.3244 506.572 75.6487 505.701C79.4284 504.283 84.3273 508.61 87.0561 508.528C89.7399 508.447 91.7362 505.84 94.2607 504.925C97.6265 503.706 100.852 508.48 104.43 508.378C107.252 508.297 109.249 504.669 112.072 504.725C115.602 504.796 118.356 508.496 121.879 508.728C125.831 508.988 128.915 505.063 132.585 503.574C135.068 510.414 147.306 538.971 146.672 539.968C146.159 540.776 145.124 541.124 144.243 541.499C143.7 541.73 143.054 541.928 142.492 541.749C127.636 537.016 126.921 541.915 111.422 537.897C108.539 537.149 106.245 541.571 103.267 541.549C99.1086 541.517 95.3581 538.942 91.3088 537.997C88.0667 537.24 85.3795 541.881 82.0529 541.749C77.997 541.588 74.5774 538.48 70.633 537.521C67.2324 536.695 64.8664 542.346 61.6397 541.549C57.9073 540.627 54.4098 538.89 50.6827 537.947C47.3523 537.104 44.4576 541.719 41.0264 541.549C37.2281 541.361 34.0768 538.389 30.4196 537.346C26.8399 536.325 22.3732 541.79 18.8121 543.15C19.0436 531.096 15.2402 517.848 20.5472 507.022ZM278.429 516.333C275.024 523.56 266.834 520.625 264.458 527.652C260.242 540.122 266.021 542.602 272.976 551.956C259.404 550.146 246.566 542.801 258.767 530.442C266.401 522.708 250.204 523.67 269.774 512.93C277.485 510.158 280.367 512.22 278.429 516.333ZM296.991 512.33C295.791 515.132 295.791 515.132 294.59 517.934C297.992 517.934 297.992 517.934 301.394 517.934C300.119 526.544 295.201 524.898 294.59 517.934C287.032 520.737 294.083 524.125 294.59 529.141C295.032 533.52 289.629 537.177 295.928 540.648C308.599 547.63 328.589 541.251 339.819 549.154C333.532 549.087 327.242 549.144 320.957 548.954C309.393 548.603 277.277 543.157 285.784 525.939C283.583 525.739 283.583 525.739 281.381 525.539C286.085 514.793 285.338 512.943 296.991 512.33ZM622.601 519.535C627.246 519.471 631.364 515.798 636.01 515.732C641.074 515.66 645.754 519.171 650.819 519.134C655.254 519.102 659.193 515.532 663.628 515.532C668.838 515.532 673.628 519.023 678.837 519.134C683.238 519.229 687.297 516.287 691.696 516.133C696.922 515.949 702.027 518.209 707.256 518.134C711.945 518.066 716.425 515.639 721.115 515.707C725.731 515.775 730.057 518.539 734.673 518.534C738.966 518.53 742.939 515.712 747.231 515.682C752.789 515.644 758.135 518.278 763.692 518.334C764.231 518.339 777.652 514.358 779.102 513.931C779.402 541.549 779.402 541.549 779.702 569.167C682.039 568.967 682.039 568.967 584.377 568.766C585.911 566.899 589.136 565.575 588.979 563.163C588.367 553.754 584.747 544.78 582.225 535.695C580.351 528.945 579.468 530.718 572.369 528.34C579.857 522.35 588.457 519.115 597.985 516.733C598.185 517.533 598.185 517.533 598.386 518.334C606.201 516.275 614.52 519.645 622.601 519.535ZM312.601 525.939C311.401 528.741 311.401 528.741 310.2 531.542C313.802 530.542 313.802 530.542 317.404 529.541C313.152 544 299.341 529.428 312.601 525.939ZM373.441 526.339C372.64 530.142 372.64 530.142 371.84 533.944C374.041 533.944 374.041 533.944 376.242 533.944C375.242 535.745 375.242 535.745 374.241 537.546C378.744 538.847 378.744 538.847 383.247 540.148C365.012 542.635 359.128 526.339 373.441 526.339ZM268.573 527.94C281.627 529.572 273.579 534.155 280.981 540.949C284.051 543.766 288.704 543.764 290.987 547.553C275.041 546.934 268.573 543.924 268.573 527.94ZM513.931 528.34C519.191 528.119 516.787 533.896 514.131 535.345C518.394 547.254 523.779 558.732 528.741 570.367C514.331 570.568 514.331 570.568 499.922 570.768C508.646 563.823 496.849 541.074 489.265 534.895C486.296 532.476 481.777 533.284 478.308 531.542C485.411 530.849 507.602 528.607 513.931 528.34ZM527.94 528.34C536.4 528.49 544.862 528.518 553.319 528.791C554.957 528.843 562.211 529.347 563.797 530.846C567.564 534.404 562.194 534.535 562.763 537.546C564.89 548.803 569.109 559.579 571.568 570.768C560.826 570.71 550.027 571.325 539.347 570.167C542.047 567.59 545.816 566.433 549.154 564.764C547.853 562.212 546.497 559.688 545.251 557.109C540.728 547.741 538.338 531.451 527.94 531.142C527.94 529.741 527.94 529.741 527.94 528.34ZM302.045 530.617C303.058 536.19 302.732 533.347 302.995 539.147C297.18 537.451 295.281 531.957 302.045 530.617ZM424.674 535.945C403.86 535.745 403.86 535.745 383.047 535.545C383.933 528.234 419.787 530.154 424.674 535.945ZM473.105 537.947C470.703 538.347 470.703 538.347 468.302 538.747C473.274 548.94 478.617 558.991 482.711 569.567C466.901 570.367 466.901 570.367 451.091 571.168C461.595 559.263 439.61 541.981 432.679 531.943C444.286 531.535 468.666 523.837 473.105 537.947ZM118.276 575.721C101.568 575.984 84.935 578.067 68.244 578.873C55.6077 579.483 32.5902 581.942 22.2163 571.815C17.292 567.008 16.848 541.315 25.0161 542.75C28.9082 543.433 32.0803 546.89 36.0232 547.153C39.392 547.377 42.0475 542.282 45.3167 543.125C49.1799 544.121 52.4474 547.627 56.4364 547.553C59.838 547.489 62.04 542.75 65.4422 542.75C69.5065 542.75 72.6008 547.195 76.6494 547.553C78.1359 547.684 83.1706 542.697 85.8553 543.212C89.5369 543.92 92.8285 546.03 96.4621 546.952C99.8455 547.811 102.38 542.227 105.868 542.349C109.991 542.495 113.151 547.072 117.276 547.153C120.676 547.219 123.08 542.75 126.481 542.75C130.433 542.75 133.546 546.881 137.489 547.153C142.118 547.472 145.833 543.086 150.072 541.199C158.479 552.37 167.125 563.46 174.112 575.571C155.5 575.621 136.886 575.427 118.276 575.721ZM325.41 542.349C322.208 542.249 322.208 542.249 319.006 542.149C323.428 541.369 321.295 541.252 325.41 542.349Z" fill="#000000" fill-rule="nonzero" opacity="1" stroke="none"/>
</g>
</svg>
