<?xml version="1.0" encoding="UTF-8" standalone="no"?>
<!DOCTYPE svg PUBLIC "-//W3C//DTD SVG 1.1//EN" "http://www.w3.org/Graphics/SVG/1.1/DTD/svg11.dtd">
<!-- Created with Vectornator (http://vectornator.io/) -->
<svg height="100%" stroke-miterlimit="10" style="fill-rule:nonzero;clip-rule:evenodd;stroke-linecap:round;stroke-linejoin:round;" version="1.1" viewBox="0 0 800 600" width="100%" xml:space="preserve" xmlns="http://www.w3.org/2000/svg" xmlns:xlink="http://www.w3.org/1999/xlink">
<defs/>
<clipPath id="ArtboardFrame">
<rect height="600" width="800" x="0" y="0"/>
</clipPath>
<g clip-path="url(#ArtboardFrame)" id="Layer-1">
<path d="M1.60028 1.20021C1.00017 301.052 1.00017 301.052 0.400069 600.904C399.669 600.904 399.669 600.904 798.939 600.904C799.139 300.652 799.139 300.652 799.339 0.400069C533.426 0.984492 267.513 1.02743 1.60028 1.20021ZM782.936 21.6037C782.936 30.4053 782.936 30.4053 782.936 39.2068C772.892 34.6869 761.927 29.3884 753.331 22.4039C768.133 22.0038 768.133 22.0038 782.936 21.6037ZM456.879 22.804C547.634 16.8549 638.777 22.5372 729.727 22.4039C717.324 37.4065 717.324 37.4065 704.922 52.4091C716.64 49.6627 727.579 44.2025 738.528 39.2068C719.325 61.2106 719.325 61.2106 700.121 83.2144C703.537 83.0897 707.714 80.6871 710.369 82.8404C718.372 89.3317 715.138 101.487 726.843 103.592C734.963 105.052 743.439 103.079 751.58 104.418C757.433 105.381 762.749 108.419 768.333 110.419C771.834 98.117 771.834 98.117 775.334 85.8149C779.135 86.1149 779.135 86.1149 782.936 86.415C782.819 98.9472 783.526 111.514 782.585 124.012C780.969 145.476 770.243 146.071 751.73 148.026C753.255 144.584 753.959 139.991 758.432 138.924C765.954 137.13 773.701 136.457 781.336 135.223C775.963 128.293 776.17 125.66 765.633 125.672C745.775 125.694 725.959 127.505 706.122 128.422C716.562 140.86 729.803 133.811 735.728 146.025C723.812 147.488 711.717 147.313 699.721 146.825C701.772 155.46 704.271 164.001 705.872 172.73C706.711 177.299 708.152 182.114 707.023 186.62C705.966 190.833 702.885 194.45 699.689 197.392C695.17 201.554 688.174 208.217 682.918 205.036C665.437 194.453 649.7 180.251 630.509 173.23C641.111 196.134 641.111 196.134 651.713 219.038C644.136 221.8 636.247 225.663 631.309 232.04C630.605 225.764 630.424 219.407 629.197 213.212C625.958 196.859 615.066 179.841 620.27 164.003C624.134 152.246 644.527 157.776 655.289 151.664C660.16 148.897 662.233 142.814 664.965 137.924C670.532 127.96 675.067 117.454 680.118 107.219C665.715 114.753 651.562 122.785 636.91 129.823C626.891 134.635 614.664 132.675 604.255 136.574C599.926 138.195 597.946 143.781 593.665 145.525C577.299 152.195 554.827 154.625 537.293 157.227C541.961 148.559 550.033 140.986 551.296 131.223C552.708 120.3 547.628 109.473 544.844 98.8171C537.987 72.5673 515.432 47.7906 488.735 39.5069C471.87 34.2739 459.467 38.4061 442.877 41.2071C447.544 35.0727 449.188 23.3082 456.879 22.804ZM732.127 22.4039C739.728 22.4039 739.728 22.4039 747.33 22.4039C747.37 33.9775 763.211 47.6353 772.334 52.8092C773.883 53.6878 780.477 47.5332 782.936 46.408C782.936 57.0099 782.936 57.0099 782.936 67.6117C771.855 64.2875 763.156 58.1334 753.931 51.2589C755.831 49.4336 755.831 49.4336 757.731 47.6083C739.88 38.5427 745.955 35.3097 732.127 22.4039ZM392.068 23.204C384.818 31.8351 380.595 42.8217 377.165 53.5593C382.624 57.0626 389.984 55.8877 396.469 56.0097C391.835 59.477 386.729 62.3902 382.566 66.4115C378.792 70.0584 374.607 73.8627 372.865 78.8137C370.869 84.483 371.098 90.8556 371.864 96.8168C373.665 110.817 388.866 113.4 395.519 124.397C400.055 131.896 400.136 141.308 402.445 149.763C372.142 167.399 375.772 115.109 350.998 112.945C339.593 111.948 328.006 110.925 316.655 112.419C310.622 113.214 305.091 116.493 299.902 119.671C293.512 123.584 289.548 132.063 282.199 133.523C269.112 136.122 255.528 132.352 242.242 131.123C236.766 130.616 235.214 121.882 230.04 120.021C221.979 117.121 212.681 120.144 204.435 117.82C190.33 113.846 170.261 99.8317 158.027 92.016C165.775 105.402 170.704 120.878 181.269 132.173C190.293 141.82 211.603 134.745 208.856 153.661C207.626 162.134 208.761 172.451 202.835 178.631C197.986 183.688 188.864 180.079 182.032 181.632C165.105 185.478 159.572 191.936 143.625 202.435C147.657 189.701 158.935 167.178 154.827 150.626C151.493 137.195 142.76 121.478 129.622 115.62C134.257 124.255 139.985 132.386 143.525 141.525C155.842 173.32 128.326 192.136 123.621 221.638C115.339 220.705 106.941 222.071 98.6171 221.638C72.842 220.298 46.5625 215.233 21.2037 220.038C21.4037 121.621 21.4037 121.621 21.6037 23.204C145.083 21.7513 268.58 23.1341 392.068 23.204ZM420.473 32.0056C415.27 29.4042 409.797 27.1947 405.07 23.8041C414.222 22.7582 419.416 21.9771 420.473 32.0056ZM441.677 23.8041C439.594 30.7956 436.724 38.9523 430.875 43.6076C430.875 28.1859 420.288 22.0218 441.677 23.8041ZM422.073 49.6086C411.573 48.588 400.613 48.9649 390.718 45.3079C393.117 21.3187 420.419 38.0258 422.073 49.6086ZM747.68 59.4603C752.008 63.0581 756.248 66.7616 760.532 70.4122C744.129 70.6122 744.129 70.6122 727.726 70.8123C731.934 66.7872 741.884 54.6429 747.68 59.4603ZM454.879 71.6124C444.377 76.2132 444.377 76.2132 433.875 80.814C445.773 85.1173 455.717 86.7941 468.081 84.0146C462.819 90.5634 456.573 89.4063 448.078 90.4157C450.987 94.9419 461.675 99.1433 466.343 99.6173C475.942 100.592 485.638 99.884 495.286 100.017C492.201 106.187 484.435 106.867 479.283 111.219C493.462 112.286 504.241 112.838 518.09 111.219C516.189 122.257 495.185 119.372 486.184 122.621C476.664 126.058 476.045 127.401 468.481 133.223C475.279 134.356 481.69 129.282 488.235 127.122C496.288 124.464 504.092 124.425 512.689 125.022C515.65 125.227 519.599 129.795 514.889 129.823C496.669 129.927 485.551 128.325 469.681 138.424C483.286 147.227 494.005 148.268 510.088 148.026C500.126 163.168 485.097 171.218 466.881 171.83C465.96 171.861 441.991 171.448 442.877 165.366C444.17 156.49 460.752 148.404 466.881 142.825C460.68 142.825 460.68 142.825 454.479 142.825C456.879 139.824 456.879 139.824 459.28 136.824C450.278 134.023 450.278 134.023 441.277 131.223C441.477 135.023 441.477 135.023 441.677 138.824C436.676 136.224 436.676 136.224 431.675 133.623C433.355 141.542 438.809 148.342 436.826 156.627C433.126 172.082 412.613 149.409 409.471 143.425C403.364 131.793 405.038 119.497 407.271 107.219C422.802 115.781 430.547 127.379 450.478 128.022C445.493 109.703 433.318 98.5141 416.072 91.6159C429.984 73.3436 451.282 121.228 454.079 129.222C459.002 110.889 442.698 87.6679 426.074 80.4139C434.686 72.6634 443.398 69.8914 454.879 71.6124ZM741.129 80.814C753.075 79.9225 760.431 76.0073 759.734 91.6079C749.274 93.2171 738.256 92.6845 727.726 92.8161C730.282 84.0182 732.143 81.4846 741.129 80.814ZM355.412 129.873C359.999 137.803 362.95 141.437 362.463 149.626C353.261 142.625 353.261 142.625 344.06 135.624C345.625 140.32 348.379 144.543 350.861 148.826C341.059 143.425 341.059 143.425 331.257 138.024C335.258 144.425 335.258 144.425 339.259 150.826C333.854 148.326 329.248 144.36 324.456 140.824C324.644 144.199 326.048 147.4 327.057 150.626C316.87 146.447 305.887 142.781 296.651 136.624C308.006 122.431 344.887 111.679 355.412 129.873ZM294.851 519.34C299.199 477.764 307.412 435.936 304.053 394.268C303.333 385.344 303.934 374.651 297.777 368.151C289.067 358.957 273.445 359.522 263.596 351.561C258.291 347.273 258.798 338.54 254.544 333.208C248.037 325.05 242.6 331.118 241.178 321.097C232.955 263.134 232.84 206.803 232.84 148.026C250.643 149.826 250.643 149.826 268.447 151.626C264.806 165.408 255.92 177.459 252.444 191.283C251.512 194.99 254.022 198.808 255.494 202.335C258.357 209.19 261.646 215.888 265.396 222.301C269.489 229.301 280.621 228.305 288.65 229.44C293.734 230.158 299.282 231.336 304.053 229.44C317.328 224.163 327.917 211.657 342.059 209.636C344.66 218.238 344.66 218.238 347.26 226.839C323.699 230.746 282.329 233.86 284.849 265.646C290.475 260.233 295.176 253.652 301.727 249.406C309.794 244.177 319.28 241.563 328.057 237.641C319.255 244.042 309.168 248.974 301.652 256.845C294.779 264.042 290.984 273.647 285.65 282.049C290.759 279.328 296.548 277.612 300.977 273.885C309.226 266.944 314.687 256.202 324.456 251.644C317.388 267.513 304.76 281.945 303.253 299.252C302.569 307.107 317.979 309.271 318.755 317.117C321.312 342.97 312.791 368.84 312.704 394.818C312.69 399.21 315.644 403.297 318.455 406.671C326.864 416.764 338.228 424.259 346.035 434.825C350.065 440.28 349.278 448.368 353.299 453.829C359.465 462.204 371.62 465.19 381.979 466.118C383.299 472.673 386.106 478.036 381.666 484.184C372.931 496.28 342.823 494.969 344.86 510.288C346.097 519.594 346.041 530.827 356.668 534.966C361.59 536.883 367.136 536.923 372.415 536.731C382.492 536.362 392.451 534.439 402.47 533.292C396.458 544.724 392.952 559.56 378.366 563.498C368.962 566.037 358.962 565.231 349.261 566.098C355.662 555.996 355.662 555.996 362.063 545.895C349.861 554.796 349.861 554.796 337.659 563.698C343.86 550.896 343.86 550.896 350.061 538.093C341.74 541.884 335.334 549.042 328.857 555.496C328.857 544.466 333.103 533.798 336.458 523.291C332.458 527.642 327.31 531.167 324.456 536.343C321.417 541.855 320.989 548.445 319.255 554.496C313.785 543.251 314.958 529.785 314.455 517.29C308.478 529.41 309.185 543.983 309.254 557.497C296.104 545.901 292.985 537.187 294.851 519.34ZM221.438 152.026C222.202 159.844 223.201 167.664 223.289 175.518C223.443 189.325 222.097 203.118 222.164 216.925C222.333 252.108 229.145 287.543 227.439 322.606C227.077 330.067 220.488 328.137 218.938 334.458C217.999 338.287 217.842 342.277 216.949 346.117C216.201 349.334 214.492 352.166 211.212 353.486C197.057 359.185 197.13 341.001 194.834 333.158C193.768 329.519 189.074 329.196 186.976 326.825C185.453 325.103 185.38 319.662 185.632 317.655C187.658 301.544 189.657 285.421 192.283 269.397C198.653 230.538 205.093 188.036 219.638 151.426C220.19 150.037 221.191 149.492 221.438 152.026ZM327.319 160.628C317.516 176.715 295.262 170.577 280.849 167.229C285.232 150.244 315.364 154.461 327.319 160.628ZM771.334 157.227C768.055 167.882 751.58 169.667 750.38 159.728C757.339 158.699 764.33 157.876 771.334 157.227ZM736.128 160.428C734.328 172.667 720.809 168.566 717.724 159.828C726.926 160.128 726.926 160.128 736.128 160.428ZM416.472 185.232C406.093 181.772 398.107 174.413 387.267 171.23C412.19 158.524 409.419 160.985 416.472 185.232ZM596.703 168.029C598.576 174.504 598.577 181.579 597.504 188.233C592.356 220.15 585.902 251.844 580.101 283.649C575.198 280.477 571.857 275.333 567.248 271.747C565.098 270.074 556.676 267.62 554.696 263.808C547.865 250.652 553.965 229.905 542.607 219.626C529.275 207.56 513.719 198.027 500.887 185.432C533.895 181.127 564.428 175.269 596.703 168.029ZM718.125 168.029C721.245 172.513 726.948 176.931 726.126 182.332C721.725 182.382 721.725 182.382 717.324 182.432C717.724 175.23 717.724 175.23 718.125 168.029ZM751.93 168.229C755.146 172.363 757.483 177.113 760.132 181.632C748.303 181.467 748.812 179.365 751.93 168.229ZM769.333 168.829C770.382 174.075 770.228 179.492 770.534 184.832C766.133 183.832 766.133 183.832 761.732 182.832C764.137 178.156 766.349 173.181 769.333 168.829ZM421.273 171.23C427.038 173.635 432.777 176.174 438.764 177.956C436.451 182.738 430.939 185.881 426.474 188.433C423.226 182.001 421.909 178.223 421.273 171.23ZM736.528 171.63C737.699 176.316 737.689 181.222 738.128 186.032C733.727 184.832 733.727 184.832 729.326 183.632C731.587 178.804 733.161 175.558 736.528 171.63ZM295.451 180.031C307.24 181.872 318.585 180.71 330.457 180.031C330.457 210.453 287.782 195.586 272.947 187.282C270.709 186.03 273.821 180.468 274.248 179.431C283.454 176.668 289.408 179.087 295.451 180.031ZM782.936 177.231C782.936 186.632 783.112 196.036 782.936 205.436C782.858 209.564 782.616 213.695 782.173 217.8C780.869 229.898 769.721 240.829 757.156 232.165C750.613 227.654 743.113 215.313 735.528 213.037C731.832 211.928 727.392 212.189 723.726 213.237C727.659 203.915 730.13 196.896 736.128 189.233C736.656 195.461 738.267 201.559 739.728 207.636C749.718 201.875 749.667 195.866 751.53 184.832C754.657 188.424 757.75 192.222 761.732 194.834C764.476 192.395 762.71 194.108 766.533 189.233C775.167 197.613 767.845 199.526 759.332 204.035C769.533 207.236 769.533 207.236 779.735 210.436C780.516 199.63 780.379 187.842 782.936 177.231ZM609.706 178.831C616.58 192.58 616.352 208.891 618.307 224.139C622.132 253.972 627.06 283.83 627.459 313.904C627.528 319.151 623.465 323.609 621.458 328.457C613.984 346.51 621.378 347.296 600.304 348.66C592.825 349.145 594.537 350.02 591.303 346.36C602.837 337.709 615.368 330.878 620.308 316.655C624.906 303.414 612.918 290.634 604.305 282.249C600.724 278.763 594.505 284.268 589.702 285.65C599.704 232.24 599.704 232.24 609.706 178.831ZM484.284 187.232C486.868 190.512 487.616 197.399 488.885 201.235C482.294 199.437 477.736 194.146 471.482 191.633C462.082 187.857 446.82 190.433 437.276 190.433C445.029 179.579 476.473 177.318 484.284 187.232ZM167.829 227.089C167.184 227.561 166.427 228.079 165.629 228.04C152.452 227.396 141.717 225.448 150.176 210.887C159.781 194.353 178.934 190.059 196.034 186.832C191.866 212.828 194.176 241.26 181.869 264.533C169.524 257.227 179.425 242.309 184.032 234.041C180.031 234.441 180.031 234.441 176.031 234.841C179.564 229.667 181.877 222.795 184.032 216.838C178.251 219.562 172.986 223.314 167.829 227.089ZM719.325 187.633C732.903 201.211 702.789 225.415 690.97 217.688C695.723 211.694 701.842 203.97 709.273 202.335C709.498 206.186 709.498 206.186 709.723 210.036C718.172 203.575 715.677 196.86 719.325 187.633ZM650.513 196.034C659.869 199.971 676.531 206.692 680.918 216.838C656.938 219.647 657.501 218.395 650.513 196.034ZM733.427 221.488C734.959 223.135 747.438 232.134 740.128 235.241C731.969 238.709 718.493 237.966 710.523 238.441C713.852 232.101 716.758 223.533 724.526 221.638C729.488 221.083 732.735 220.744 733.427 221.488ZM709.323 222.039C708.556 225.796 706.992 228.343 704.885 231.553C693.585 225.868 700.939 223.349 709.323 222.039ZM678.68 223.664C679.178 227.974 676.122 232.984 673.517 236.241C670.813 233.414 669.519 229.511 667.716 226.039C675.08 224.198 671.423 224.983 678.68 223.664ZM21.2037 223.639C46.4243 223.639 64.3561 231.618 83.9646 247.793C92.1702 254.562 98.1502 264.087 107.219 269.647C109.797 271.227 114.299 269.933 116.02 267.446C118.591 263.733 117.354 258.512 118.02 254.044C125.705 258.912 132.687 265.125 141.074 268.647C149.341 272.118 161.604 265.988 168.429 263.646C172.383 274.232 168.583 271.745 178.831 272.447C177.164 290.117 176.848 307.967 173.83 325.456C173.131 329.509 163.505 330.452 161.628 330.857C160.891 338.511 163.325 349.049 157.027 353.461C145.651 361.432 132.484 366.527 120.721 373.915C118.593 375.251 115.778 376.958 115.62 379.466C114.372 399.249 114.379 419.23 116.62 438.926C119.466 463.935 125.068 488.585 130.823 513.089C133.286 523.578 136.477 534.022 141.224 543.694C142.441 546.173 145.385 547.838 148.106 548.303C168.756 551.834 189.626 554.266 210.537 555.546C223.905 556.365 237.4 553.057 250.706 554.584C256.843 555.288 262 559.593 267.646 562.097C255.644 559.697 255.644 559.697 243.642 557.297C251.844 563.298 251.844 563.298 260.045 569.299C238.108 571.299 216.067 572.38 194.234 575.3C190.877 575.749 188.468 579.665 185.082 579.713C130.193 580.484 75.2964 580.505 20.4035 580.901C20.8036 402.27 20.8036 402.27 21.2037 223.639ZM698.921 237.641C694.561 242.734 681.205 241.597 677.718 242.042C686.621 225.045 686.291 220.801 698.921 237.641ZM112.82 226.439C114.786 228.438 122.499 233.307 119.221 237.241C116.974 233.497 114.086 230.66 112.82 226.439ZM87.2151 226.839C95.8097 228.307 103.514 235.103 106.018 243.242C99.2967 238.761 92.2653 233.152 87.2151 226.839ZM657.914 230.84C660.378 233.886 664.609 237.693 664.815 241.967C654.848 245.788 645.743 245.063 635.71 243.642C639.081 236.058 648.46 219.154 657.914 230.84ZM75.213 228.04C86.4876 230.858 97.9308 238.912 100.817 250.844C92.8916 242.644 82.4988 236.54 75.213 228.04ZM102.818 230.04C108.79 230.703 113.444 235.584 114.42 241.442C110.154 238.18 106.528 233.883 102.818 230.04ZM138.024 235.241C136.976 245.72 135.612 250.611 139.624 260.845C131.735 257.303 126.969 237.698 138.024 235.241ZM164.429 236.041C158.437 244.029 158.889 241.838 162.828 250.844C154.065 246.512 151.484 236.041 164.429 236.041ZM356.862 236.441C379.511 252.702 401.102 258.96 428.874 262.045C405.318 272.438 370.052 257.545 356.862 236.441ZM348.861 242.642C367.751 260.223 393.181 274.032 419.673 275.248C429.932 275.718 440.908 270.92 450.478 274.648C458.599 277.81 464.313 289.925 466.781 296.751C470.582 307.264 477.512 325.987 470.482 328.457C466.616 319.609 460.381 311.987 454.879 304.053C453.247 309.437 455.415 315.331 456.479 320.856C451.078 315.255 451.078 315.255 445.677 309.654C445.477 316.055 445.477 316.055 445.277 322.456C443.147 317.846 441.617 312.456 437.676 309.254C436.876 315.655 436.876 315.655 436.076 322.056C434.483 317.876 434.206 313.295 433.675 308.854C432.175 314.255 432.175 314.255 430.675 319.655C428.847 315.978 427.431 311.619 424.074 309.254C423.473 314.154 423.473 314.154 422.873 319.055C420.3 316.825 419.877 312.908 418.873 309.654C417.93 313.069 417.361 316.793 415.272 319.655C412.872 314.054 412.872 314.054 410.471 308.453C408.371 313.854 408.371 313.854 406.27 319.255C404.77 312.954 404.77 312.954 403.27 306.653C400.87 311.954 400.87 311.954 398.469 317.255C396.269 310.254 396.269 310.254 394.068 303.253C390.468 311.254 390.468 311.254 386.867 319.255C385.067 312.454 385.067 312.454 383.266 305.653C380.817 309.15 378.502 312.871 375.265 315.655C374.065 308.253 374.065 308.253 372.865 300.852C370.064 307.053 370.064 307.053 367.264 313.254C366.264 305.453 366.264 305.453 365.263 297.652C362.626 301.035 362.361 304.848 359.662 308.053C359.462 300.052 359.462 300.052 359.262 292.051C354.862 300.252 354.862 300.252 350.461 308.453C347.884 303.452 348.819 297.277 348.861 291.651C345.86 296.251 345.86 296.251 342.859 300.852C342.259 294.451 342.259 294.451 341.659 288.05C338.002 293.226 338.002 293.226 334.345 298.402C332.161 295.372 333.315 290.984 333.258 287.25C329.457 292.051 329.457 292.051 325.656 296.851C326.457 289.45 326.457 289.45 327.257 282.049C323.656 286.85 323.656 286.85 320.056 291.651C324.314 273.551 333.969 254.342 348.861 242.642ZM490.493 341.449C497.747 338.453 489.82 324.565 489.335 323.456C481.584 305.739 472.397 288.665 464.881 270.847C460.853 261.3 468.179 250.636 475.032 244.392C482.742 237.368 496.375 254.717 498.086 260.645C499.931 267.034 499.326 273.901 500.487 280.449C500.999 283.335 501.834 286.2 503.087 288.85C506.848 296.804 508.971 306.233 515.477 312.154C521.624 317.749 531.457 317.166 538.693 321.256C545.319 325.001 552.59 335.418 555.396 342.309C557.093 346.475 549.843 351.007 548.295 351.861C535.876 358.71 519.609 360.68 510.639 371.664C503.879 379.943 504.41 392.272 503.487 402.92C502.331 416.258 500.961 429.8 502.687 443.077C506.457 472.072 513.052 500.663 519.89 529.092C522.547 540.138 539.981 539.79 550.495 544.094C547.195 548.695 547.195 548.695 543.894 553.296C542.794 548.095 542.794 548.095 541.694 542.894C537.129 545.042 536.4 551.512 534.293 556.096C532.092 549.895 532.092 549.895 529.892 543.694C526.591 551.096 526.591 551.096 523.291 558.497C516.223 547.895 509.629 536.962 502.087 526.691C494.754 516.705 491.414 516.231 480.883 510.088C490.508 522.947 500.069 536.654 504.487 552.096C490.34 542.664 490.941 527.538 474.482 521.69C481.627 532.2 488.616 543.192 492.485 555.296C484.681 551.654 481.273 543.689 473.282 539.694C476.947 546.412 483.744 553.427 482.084 560.897C476.741 560.675 466.981 563.448 466.281 558.147C464.781 546.787 462.547 535.394 462.88 523.941C463.35 507.819 479.154 497.502 481.283 481.484C482.066 475.599 483.566 469.507 482.309 463.705C480.928 457.334 473.424 452.693 473.632 446.177C473.988 435.012 481.223 425.121 483.884 414.272C490.149 388.728 478.367 369.636 468.081 346.86C475.552 345.057 483.39 344.383 490.493 341.449ZM782.936 243.242C782.936 344.06 782.936 344.06 782.936 444.877C773.884 444.506 764.787 444.749 755.781 443.764C751.646 443.313 745.348 439.189 744.307 434.943C736.172 401.766 731.582 367.737 728.076 333.758C725.084 304.747 717.14 276.447 710.523 248.043C735.214 245.212 758.298 244.144 782.936 243.242ZM702.547 258.37C696.302 262.053 682.434 260.356 676.517 260.445C676.517 249.704 678.435 249.656 687.919 247.443C699.898 245.695 710.983 253.395 702.547 258.37ZM668.441 258.895C668.979 275.29 668.256 291.706 667.766 308.103C667.32 323.019 667.199 337.942 666.916 352.861C653.162 347.38 642.437 319.91 640.324 305.778C637.793 288.854 635.587 271.874 633.91 254.844C633.834 254.07 634.34 252.955 635.11 252.844C642.648 251.758 650.366 252.455 657.914 251.444C667.871 252.008 668.29 254.283 668.441 258.895ZM700.521 264.846C698.716 268.657 695.831 271.86 693.32 275.248C688.119 271.047 688.119 271.047 682.918 266.846C693.977 265.429 688.112 266.112 700.521 264.846ZM711.523 291.05C704.066 288.449 694.953 283.773 700.922 276.448C709.901 272.892 710.597 287.318 711.523 291.05ZM674.917 274.848C680.118 277.848 680.118 277.848 685.319 280.849C682.571 284.1 680.305 288.112 676.567 290.15C675.252 279.256 675.782 284.358 674.917 274.848ZM564.098 280.749C567.043 280.591 568.298 292.609 567.648 294.701C564.78 303.944 552.403 307.903 544.094 309.454C536.727 310.828 524.399 312.272 520.64 303.853C519.026 300.237 515.45 296.411 516.69 292.651C517.354 290.636 520.503 290.741 522.541 290.15C528.235 288.501 533.911 286.758 539.694 285.45C547.774 283.622 555.825 281.191 564.098 280.749ZM699.721 294.051C694.014 295.867 688.004 296.543 682.118 297.652C687.343 290.685 692.798 289.105 699.721 294.051ZM590.452 333.62C581.563 336.781 560.293 333.281 558.697 321.256C557.437 311.762 587.689 299.884 594.103 297.452C622.93 286.521 611.784 326.037 590.452 333.62ZM704.922 300.452C697.862 311.395 691.478 315.224 681.968 302.602C689.685 301.53 697.138 300.277 704.922 300.452ZM710.523 306.453C714.434 311.982 719.457 321.317 717.324 328.057C704.555 320.464 701.243 318.589 710.523 306.453ZM676.917 308.854C689.013 316.821 694.572 320.149 678.518 330.257C677.388 323.226 677.319 315.947 676.917 308.854ZM706.923 333.258C697.121 334.858 697.121 334.858 687.319 336.458C693.976 326.806 697.679 324.363 706.923 333.258ZM334.458 327.657C368.654 341.675 402.894 348.738 440.076 347.66C416.293 354.589 349.54 351.788 334.458 327.657ZM707.123 342.059C704.437 346.464 701.296 350.93 697.521 354.461C693.933 351.883 690.431 348.502 687.919 344.86C694.328 343.029 700.471 342.602 707.123 342.059ZM706.423 362.663C700.25 358.213 715.282 349.031 717.724 346.86C723.756 351.886 722.525 366.032 722.525 374.065C717.158 370.264 711.758 366.509 706.423 362.663ZM676.517 347.66C685.855 350.506 693.709 361.346 685.519 369.864C678.193 365.469 675.895 355.746 676.517 347.66ZM248.043 366.063C225.323 369.309 234.486 368.099 231.24 352.461C246.366 349.436 244.85 351.693 248.043 366.063ZM661.715 368.864C642.383 373.492 618.647 382.293 597.391 380.466C584.83 379.386 587.054 362.046 597.904 359.662C626.259 359.275 655.694 360.391 661.715 368.864ZM575.3 361.663C574.983 366.772 574.728 371.885 574.35 376.99C573.519 388.206 556.711 392.012 558.847 379.816C559.71 374.89 558.715 366.076 563.898 362.663C572.63 361.576 570.013 361.663 575.3 361.663ZM381.666 364.863C382.023 395.012 385.713 412.577 388.267 440.676C381.878 431.447 369.89 374.023 381.666 364.863ZM170.63 372.065C178.378 370.394 186.199 369.063 194.034 367.864C218.551 364.111 215.457 365.385 219.238 390.068C191.972 389.533 166.96 387.181 140.024 382.866C145.661 375.594 164.757 373.331 170.63 372.065ZM708.123 376.865C698.521 377.465 698.521 377.465 688.919 378.066C692.945 371.088 704.668 363.335 708.123 376.865ZM280.124 371.514C271.447 380.402 260.633 387.764 262.045 370.464C270.45 368.679 275.002 369.397 280.124 371.514ZM542.494 370.064C541.049 381.223 534.494 384.468 525.691 375.265C530.274 371.211 536.586 370.064 542.494 370.064ZM673.467 383.216C676.537 401.875 688.495 446.208 658.914 450.878C658.87 439.391 646.233 379.585 673.467 383.216ZM724.676 384.817C729.402 411.446 729.402 411.446 734.127 438.076C721.501 425.45 714.839 402.097 710.523 385.267C719.228 384.396 714.514 384.63 724.676 384.817ZM695.721 385.467C694.23 396.396 693.684 408.898 690.07 419.473C683.314 407.52 678.302 386.86 695.721 385.467ZM289.2 386.017C290.094 386.706 290.642 407.75 290.65 408.371C290.861 423.084 296.072 447.711 280.849 457.079C271.158 463.043 271.422 451.243 271.097 444.427C270.28 427.275 264.15 398.334 280.649 389.668C283.393 388.226 286.745 384.125 289.2 386.017ZM539.494 429.174C539.796 437.017 540.55 444.837 540.894 452.679C540.974 454.497 541.744 457.313 540.094 458.079C537.687 459.197 530.785 457.758 529.492 457.479C511.045 453.506 516.043 421.533 516.69 407.671C516.988 401.268 517.356 394.868 517.69 388.467C527.491 390.268 527.491 390.268 537.293 392.068C537.057 402.687 539.172 420.831 539.494 429.174ZM628.147 415.377C627.592 399.337 627.869 390.455 644.462 389.568C646.094 402.477 648.917 414.913 648.037 428.249C647.506 436.318 650.738 446.887 644.712 452.278C640.35 456.181 636.084 456.873 630.509 458.079C629.722 443.845 628.641 429.624 628.147 415.377ZM129.422 452.879C128.573 436.238 128.54 407.282 128.422 390.068C133.652 392.127 141.767 392.156 145.825 396.069C152.358 402.368 151.671 431.792 152.226 440.226C152.811 449.098 152.893 457.996 153.227 466.881C144.066 464.682 130.045 465.08 129.422 452.879ZM611.906 393.068C612.106 393.668 612.419 394.242 612.506 394.868C614.471 408.939 616.391 423.017 618.057 437.126C618.749 442.985 618.897 446.062 617.507 451.478C615.917 457.675 600.964 462.062 595.441 460.58C590.611 459.284 591.117 447.34 590.902 445.277C589.902 445.877 589.902 445.877 588.902 446.477C586.701 428.92 584.836 414.127 587.302 396.869C595.61 395.846 603.619 394.198 611.906 393.068ZM241.881 425.052C240.883 406.069 241.98 398.945 259.645 394.868C259.685 399.553 259.558 414.354 260.245 421.073C262.38 441.936 271.717 465.039 245.243 470.082C244.122 455.072 242.671 440.083 241.881 425.052ZM165.291 445.14C163.958 429.019 163.682 412.642 163.228 396.469C163.646 396.55 176.497 398.234 180.631 400.469C187.077 403.955 188.403 421.568 188.883 426.774C189.627 434.854 189.884 442.972 190.233 451.078C190.534 458.076 190.633 465.081 190.833 472.082C167.618 469.28 167.371 470.294 165.291 445.14ZM551.296 397.669C556.59 395.257 562.958 397.349 568.749 397.919C570.173 398.059 571.6 398.769 572.624 399.769C573.18 400.312 572.965 401.294 572.999 402.07C573.796 419.981 575.868 438.197 575.2 456.129C574.86 465.229 557.045 461.077 553.596 454.179C552.537 452.061 552.673 450.668 552.646 448.078C552.495 433.918 551.597 419.998 551.296 405.87C551.237 403.137 548.808 398.802 551.296 397.669ZM704.522 399.669C707.696 403.854 708.765 409.28 711.023 414.022C715.357 423.122 720.26 431.942 724.626 441.026C729.109 450.354 719.418 449.529 711.523 450.278C705.983 450.803 697.717 451.662 691.72 450.278C693.068 437.131 696.514 410.463 704.522 399.669ZM223.401 400.432C224.434 400.69 225.664 404.931 225.839 405.87C229.954 427.94 232.096 449.056 232.44 471.482C216.705 476.891 209.106 472.313 205.968 457.256C202.654 441.357 200.143 415.992 198.434 401.67C203.425 401.582 218.062 399.099 223.401 400.432ZM381.666 449.978C374.658 458.237 357.084 448.464 366.264 440.676C371.008 436.652 385.592 445.352 381.666 449.978ZM673.567 459.48C674.795 476.007 677.02 496.804 657.714 499.287C658.355 480.1 652.774 463.034 673.567 459.48ZM558.897 546.695C596.184 541.573 633.276 551.657 668.566 533.443C670.223 532.587 671.848 531.097 672.317 529.292C674.877 519.438 675.302 509.134 677.467 499.187C679.761 488.652 681.485 477.834 685.682 467.902C686.594 465.743 689.69 465.231 691.995 464.806C698.885 463.536 705.918 462.905 712.924 462.88C736.267 462.797 759.598 463.947 782.936 464.481C782.736 522.491 782.736 522.491 782.536 580.501C624.108 580.901 624.108 580.901 465.681 581.301C467.112 575.888 475.886 575.7 481.484 575.612C530.713 574.839 580.072 577.881 629.184 574.4C636.539 573.878 640.526 563.939 642.711 556.897C615.128 554.651 587.371 555.612 559.697 555.696C562.698 552.696 562.698 552.696 565.698 549.695C558.097 552.496 558.097 552.496 550.495 555.296C553.296 552.429 554.926 547.24 558.897 546.695ZM648.212 467.281C641.095 489.994 658.149 506.117 628.909 508.088C628.909 498.795 624.841 458.696 648.212 467.281ZM463.88 466.081C478.278 502.728 397.12 515.138 398.469 471.282C422.415 475.182 441.584 475.371 463.88 466.081ZM286.45 467.281C288.209 478.277 288.208 492.545 284.049 503.287C282.694 506.789 276.891 505.577 273.247 506.488C272.431 490.072 270.774 486.064 276.448 472.882C275.848 472.382 275.848 472.382 275.248 471.882C278.515 469.583 282.733 468.563 286.45 467.281ZM522.491 470.082C527.562 470.256 534.573 466.879 537.693 470.882C543.904 478.849 546.095 497.287 546.095 506.488C527.516 505.55 523.385 486.18 522.491 470.082ZM616.432 473.157C619.99 480.985 620.211 499.819 613.706 507.488C604.556 518.277 593.325 510.905 591.615 499.328C590.475 491.611 589.806 483.831 588.902 476.083C598.057 474.92 607.24 473.973 616.432 473.157ZM554.496 473.682C576.407 479.658 577.961 467.748 578.5 499.487C578.563 503.153 578.5 506.821 578.5 510.489C554.688 510.202 555.575 496.341 554.496 473.682ZM262.446 475.282C261.892 495.86 267.555 508.315 247.643 515.689C245.218 491.741 238.957 483.476 262.446 475.282ZM138.824 503.687C136.799 495.585 134.423 485.306 134.423 476.883C139.429 477.955 148.779 477.825 153.027 480.883C161.111 486.705 161.742 507.704 162.428 516.49C150.018 515.656 142.123 516.884 138.824 503.687ZM169.229 482.084C197.597 484.471 195.629 490.23 198.434 519.29C167.678 517.397 171.667 513.777 169.229 482.084ZM229.865 483.334C232.828 484.362 236.446 510.45 234.041 514.689C231.421 519.305 217.263 519.844 213.161 519.694C210.996 511.624 205.108 487.898 215.837 483.884C223.941 483.004 227.584 482.542 229.865 483.334ZM403.67 510.489C394.353 521.223 371.551 506.205 384.267 497.086C392 491.54 407.042 506.603 403.67 510.489ZM381.066 518.69C375.344 523.458 343.938 519.464 362.263 509.488C374.567 504.262 378.582 513.583 381.066 518.69ZM445.477 523.291C443.334 525.357 440.165 527.116 437.076 526.891C422 525.795 416.146 525.746 415.272 510.889C422.893 510.677 429.97 510.062 437.476 508.688C454.025 507.438 451.156 517.817 445.477 523.291ZM664.915 514.489C664.915 523.588 658.943 524.926 650.913 525.691C651.214 516.549 656.475 514.687 664.915 514.489ZM280.049 516.49C280.455 526.237 280.197 534.008 269.247 535.693C270.761 526.389 270.179 518.957 280.049 516.49ZM531.692 518.09C541.403 518.867 548.778 519.09 549.695 530.092C541.282 529.597 531.692 527.801 531.692 518.09ZM640.511 519.29C637.282 527.481 635.25 528.448 626.509 529.292C626.509 520.16 631.776 519.177 640.511 519.29ZM262.446 520.89C261.203 534.023 259.311 538.932 246.043 539.694C246.043 525.286 249.043 524.576 262.446 520.89ZM616.107 523.291C614.077 537.499 595.313 539.952 592.903 524.891C600.596 523.929 608.355 523.42 616.107 523.291ZM168.429 540.894C157.971 540.709 145.165 537.393 147.276 524.553C160.741 522.384 168.429 527.617 168.429 540.894ZM580.901 532.892C575.634 533.829 570.238 533.782 564.898 534.093C565.215 522.972 581.539 520.767 580.901 532.892ZM198.634 531.092C200.408 532.471 201.015 539.618 201.085 541.644C201.216 545.453 175.811 547.226 175.23 531.892C174.949 524.475 193.67 527.231 198.634 531.092ZM233.641 528.492C236.237 530.325 233.551 534.852 233.304 538.021C232.976 542.242 228.965 544.339 225.303 545.063C217.717 546.562 213.186 545.19 212.237 537.593C212.16 536.979 211.724 533.571 212.437 532.892C214.967 530.483 219.211 531.17 222.639 530.492C226.295 529.769 230.595 526.342 233.641 528.492ZM434.425 538.243C438.748 538.519 453.719 532.787 453.779 539.744C453.81 543.447 453.866 548.37 452.066 551.971C447.394 561.315 432.141 558.779 424.024 557.697C421.437 557.352 407.187 556.287 407.271 552.496C407.344 549.141 409.441 546.13 410.871 543.094C416.763 530.591 422.518 537.483 434.425 538.243ZM300.052 558.097C293.949 556.273 281.573 547.842 276.048 551.296C279.103 554.548 284.127 556.196 284.649 560.897C276.863 558.022 269.414 554.302 261.845 550.896C286.269 544.275 284.978 535.697 300.052 558.097ZM405.12 580.951C400.484 580.245 395.885 579.317 391.268 578.5C392.768 574.7 392.768 574.7 394.268 570.899C407.762 555.153 426.007 584.129 405.12 580.951ZM455.679 570.899C447.307 580.108 437.174 580.901 425.274 580.901C428.055 567.471 444.598 564.743 455.679 570.899ZM374.065 581.301C357.362 581.101 357.362 581.101 340.659 580.901C347.902 579.197 368.638 576.1 374.065 581.301Z" fill="#000000" fill-rule="nonzero" opacity="1" stroke="none"/>
</g>
</svg>
