<?xml version="1.0" encoding="UTF-8" standalone="no"?>
<!DOCTYPE svg PUBLIC "-//W3C//DTD SVG 1.1//EN" "http://www.w3.org/Graphics/SVG/1.1/DTD/svg11.dtd">
<!-- Created with Vectornator (http://vectornator.io/) -->
<svg height="100%" stroke-miterlimit="10" style="fill-rule:nonzero;clip-rule:evenodd;stroke-linecap:round;stroke-linejoin:round;" version="1.1" viewBox="0 0 800 600" width="100%" xml:space="preserve" xmlns="http://www.w3.org/2000/svg" xmlns:xlink="http://www.w3.org/1999/xlink">
<defs/>
<clipPath id="ArtboardFrame">
<rect height="600" width="800" x="0" y="0"/>
</clipPath>
<g clip-path="url(#ArtboardFrame)" id="Layer-1">
<path d="M0.4 600.471C133.733 600.471 667.067 600.471 800.4 600.471C800.4 500.459 800.4 100.412 800.4 0.400047C667.067 0.400047 133.733 0.400047 0.4 0.400047C0.4 100.412 0.4 500.459 0.4 600.471ZM605.3 22.7027C606.76 22.6431 608.189 22.203 609.65 22.1526C636.722 21.219 601.438 44.1334 596.35 34.5916C593.602 29.4386 601.832 29.3975 604 25.603C593.934 23.617 599.131 24.4385 588.4 23.2027C594.033 23.036 599.669 22.9325 605.3 22.7027ZM753.2 22.4026C726 25.0029 726 25.0029 698.8 27.6032C709.017 41.7141 721.427 32.5369 728 44.8053C716.068 46.0838 703.948 45.9255 692 44.8053C695 58.2068 695 58.2068 698 71.6084C684.829 70.8374 680.823 71.042 670.4 62.0073C674.982 58.4592 681.813 55.9941 683.35 50.4059C674.888 48.5252 667.716 53.3795 659.65 52.2061C652.958 51.2326 639.419 42.7358 634 40.4048C644.396 34.2802 648.786 45.8224 662.362 42.3175C660.316 37.8934 655.59 35.2688 651.8 32.2038C659.459 23.7782 672.876 34.4598 682.8 35.2041C681.631 29.0663 676.695 26.9267 673.2 22.4026C699.844 21.2924 726.533 22.3317 753.2 22.4026ZM765.6 22.0026C771.8 22.0026 771.8 22.0026 778 22.0026C777.647 48.9055 769.876 44.4308 743.6 46.4055C748.909 33.663 761.295 34.9367 774 33.2039C769.8 27.6032 769.8 27.6032 765.6 22.0026ZM562.4 25.203C567.787 21.8753 564.469 23.1598 572.8 22.8027C563.089 35.3984 579.716 25.4693 584.4 35.2041C571.367 34.7541 558.336 34.2013 545.3 33.854C540.348 33.722 535.39 33.8794 530.438 33.7665C517.443 33.4703 530.137 25.7896 529.6 22.8027C538.581 22.8027 555.983 18.8759 562.4 25.203ZM632.8 22.4026C637.228 22.5292 642.992 21.7522 646.987 24.0278C643.618 27.8526 638.961 28.1124 634 29.6035C633.4 26.0031 633.4 26.0031 632.8 22.4026ZM465.2 23.4028C470.797 22.6254 491.152 34.2664 486 23.2027C490.6 23.2027 490.6 23.2027 495.2 23.2027C494.6 27.4032 494.6 27.4032 494 31.6037C485.34 33.4165 477.616 33.5 468.962 35.9792C459.632 38.6524 450.392 48.7976 442.2 40.6048C446.909 33.7209 456.537 24.6061 465.2 23.4028ZM507.862 23.6778C509.108 27.564 508.665 25.5881 509.2 29.6035C506 29.8035 506 29.8035 502.8 30.0035C503.524 26.2228 504.466 25.6818 507.862 23.6778ZM280.6 24.0028C308.131 24.0558 335.97 20.9193 363.188 25.0654C368.147 25.8209 368.529 33.5581 371.2 37.8044C367.2 41.5049 367.2 41.5049 363.2 45.2053C371.75 48.0306 371.75 48.0306 380.3 50.856C372.85 57.4318 372.85 57.4318 365.4 64.0075C359.7 60.8071 359.7 60.8071 354 57.6068C355.676 63.946 357.787 71.01 355.65 77.2091C350.337 76.959 344.427 73.9974 339.712 76.459C334.525 79.1676 332.971 86.0268 329.6 90.8107C337.8 91.5108 337.8 91.5108 346 92.2108C334.848 110.713 326.605 131.554 331 153.818C332.977 163.83 340.878 172.617 340.8 182.821C340.605 208.336 334.959 233.563 330.2 258.63C329.047 264.703 323.339 269.604 323.15 275.782C322.709 290.232 327.712 304.396 328.362 318.837C329.106 335.339 328.674 351.918 327.324 368.381C327.189 370.024 325.108 370.823 324 372.044C322.967 346.374 322.783 320.656 320.9 295.035C318.048 256.225 310.74 217.724 309.8 178.821C309.594 170.278 316.841 162.888 317.5 154.368C318.078 146.897 317.134 138.762 313.4 132.266C310.895 127.906 302.837 129.013 300.4 124.615C293.512 112.185 302.108 94.2836 287 95.2112C289.4 114.856 296.152 134.484 284.05 152.968C277.606 162.809 267.217 169.403 258.8 177.621C258.8 163.619 260.358 149.531 258.8 135.616C257.115 120.572 230.714 120.104 223.856 106.608C218.899 96.8498 223.146 84.4335 225.875 73.8337C226.746 70.4493 231.292 69.4165 234 67.2079C229.771 64.3659 223.798 63.13 221.312 58.6819C218.248 53.1981 221.157 45.8276 218.8 40.0047C217.506 36.8072 214.086 34.746 211 33.2039C196.246 25.8305 167.912 26.4514 160.75 45.0053C157.454 53.5444 158.64 63.4062 155.25 71.9085C153.053 77.4176 147.134 80.7471 144.4 86.0101C139.551 95.3433 138.567 106.584 132.7 115.314C124.554 127.435 100.813 142.29 96.85 160.869C95.7268 166.135 94.896 172.065 97 177.021C100.841 186.068 107.235 193.971 113.95 201.149C122.544 210.335 129.614 205.45 140 203.224C141.125 207.262 144.149 211.218 143.375 215.338C140.714 229.495 133.692 242.507 130 256.43C125.442 273.62 121.25 291.096 120 308.836C126 306.636 126 306.636 132 304.436C126.6 328.439 119.342 352.098 115.8 376.444C114.269 386.966 116.525 397.697 116.887 408.323C113.625 402.547 109.58 397.148 107.1 390.996C97.1325 366.266 85.6059 341.858 79.625 315.875C77.3872 306.153 79.4754 295.48 82.9625 286.134C84.1808 282.868 89.2542 283.133 92.4 281.633C88.4 280.033 88.4 280.033 84.4 278.433C85.4 272.432 85.4 272.432 86.4 266.431C79.0697 270.21 78.6788 281.204 76.8 289.234C74.6668 282.029 74.6475 271.37 67.65 268.632C68.825 281.933 68.825 281.933 70 295.235C65.5493 286.254 62.7741 274.069 53.6 270.032C54 274.832 54 274.832 54.4 279.633C52.4 279.833 52.4 279.833 50.4 280.033C50.6833 281.85 50.0181 284.118 51.25 285.484C53.4105 287.878 58.2131 287.397 59.65 290.284C64.0744 299.174 69.2336 309.074 67.8875 318.912C64.5244 343.492 52.5802 366.126 46 390.046C40.4612 410.18 35.531 430.504 31.55 451.003C30.5805 455.995 29.1067 461.62 31.2 466.255C33.2298 470.749 38.8417 472.489 42.6625 475.606C32.7313 472.231 32.7313 472.231 22.8 468.855C21.2 508.86 21.2 508.86 19.6 548.865C19.2 286.634 19.2 286.634 18.8 24.4029C106.067 24.2695 193.333 23.8349 280.6 24.0028ZM376 23.6028C384.538 23.6694 393.078 23.5843 401.612 23.8028C411.2 24.0483 414.344 29.4339 417.6 38.0045C407.845 38.1808 398.291 44.6115 389.4 44.0052C390.51 37.6597 394.934 34.2635 395.6 27.6032C384.164 29.1534 383.243 36.8838 376 23.6028ZM420.8 24.0028C420 24.8029 420 24.8029 419.2 25.603C418.3 25.103 418.3 25.103 417.4 24.6029C419.1 24.3029 419.1 24.3029 420.8 24.0028ZM426.6 36.4043C427.479 33.4751 429.017 31.5234 430.8 29.0034C440.671 22.1307 443.398 39.6043 426.6 36.4043ZM194.4 35.2041C197.586 35.5396 216.468 39.2112 206.55 45.2053C204.748 46.2944 195.839 52.3388 192.987 52.4937C184.487 52.9554 174.23 47.3359 167.6 42.805C177.978 41.8755 186.431 41.1257 197.2 42.0049C195.8 38.6045 195.8 38.6045 194.4 35.2041ZM500.4 47.4056C500.702 41.208 516.675 41.5605 516.8 46.6055C516.896 50.5063 514.286 53.9986 512.8 57.6068C517.144 56.4483 514.774 56.6733 519.937 57.3442C521.603 78.0409 499.877 58.1332 500.4 47.4056ZM533 44.0052C553.538 44.0052 549.825 75.8751 541.4 76.409C537.612 76.649 536.463 70.2942 533.487 68.4831C527.222 64.6687 528.645 66.3409 528 58.4069C531.164 58.9682 533.196 60.1818 536.4 60.0071C534.334 53.4653 532.218 50.4787 527 46.0054C528.619 43.7379 530.124 44.0052 533 44.0052ZM496.8 80.4095C495.708 83.1906 489.214 80.3266 488.05 79.7594C481.441 76.5391 458.959 59.8064 458.8 52.4062C458.675 46.6102 483.353 41.0094 488 47.2056C492.333 52.9841 485.096 64.2493 483.6 69.6082C489.127 69.283 490.725 65.5291 495.6 63.2074C496.239 67.1557 498.567 75.91 496.8 80.4095ZM569.262 98.3616C570.468 98.2161 572.382 96.1262 571.4 95.4112C569.504 94.0303 553.093 89.2207 556.4 80.8095C559.208 73.6663 564.871 67.973 568.4 61.1572C570.444 57.209 570.11 51.9914 573.05 48.6557C576.802 44.3979 599.505 43.7863 592.6 54.3939C589.985 58.4107 585.775 61.3366 583.6 65.6077C589 64.8076 589 64.8076 594.4 64.0075C594.322 72.838 590.232 76.0741 586.8 84.4099C591.4 83.0098 591.4 83.0098 596 81.6096C596.751 87.9506 590.404 93.1403 586.8 98.4116C592.5 98.5616 592.5 98.5616 598.2 98.7116C596.95 104.335 590.938 108.451 588.4 114.413C593.6 113.213 593.6 113.213 598.8 112.013C597.176 117.549 592.799 121.905 589.2 126.415C594 125.815 594 125.815 598.8 125.215C598.347 131.712 594.628 137.678 591.2 143.217C594.469 142.998 594.469 142.998 597.737 142.779C600.189 149.792 591.53 156.382 587.2 162.419C593.4 161.419 593.4 161.419 599.6 160.419C597.786 166.798 593.472 172.236 589.6 177.621C606.076 175.939 603.318 176.233 594.8 191.222C599 190.622 599 190.622 603.2 190.022C599.8 198.823 599.8 198.823 596.4 207.624C601.2 206.224 601.2 206.224 606 204.824C606.833 206.758 608.045 208.569 608.5 210.625C608.71 211.574 591.929 234.554 605.2 228.827C608.091 227.579 610.7 225.76 613.45 224.226C614.577 231.645 610.348 237.805 610.4 245.629C613.167 242.504 615.57 239.015 618.7 236.253C619.184 235.826 620.191 236.128 620.6 236.628C626.224 243.497 627.389 253.034 630.8 261.231C632.513 265.347 636.091 268.496 637.875 272.582C645.648 290.385 633.416 299.048 618.4 301.435C617.89 290.095 616.776 277.541 603.2 276.032C606.544 283.357 615.304 298.512 604.826 304.95C600.312 307.723 595.833 311.212 590.6 312.037C579.393 313.803 592.777 285.895 580.8 283.233C580.331 290.786 581.092 299.659 576.25 305.473C575.7 305.194 574.778 305.226 574.6 304.636C572.902 299.015 570.344 293.288 570.8 287.434C571.845 274.025 582.973 267.362 576.8 252.83C574.832 257.708 573.216 263.574 568.8 266.431C567.033 260.964 566.201 255.1 563.5 250.029C560.646 244.671 555.426 240.067 554.8 234.028C556.8 234.128 556.8 234.128 558.8 234.228C556.374 228.264 553.978 222.053 553.6 215.625C555.4 216.225 555.4 216.225 557.2 216.825C557.382 211.553 554.84 206.489 552.8 201.624C558.4 204.024 558.4 204.024 564 206.424C560.215 196.203 552.4 195.353 552.4 183.622C556.4 185.222 556.4 185.222 560.4 186.822C558.564 177.275 551.62 174.087 553.2 163.419C555 164.119 555 164.119 556.8 164.819C551.622 152.281 551.717 140.588 557.2 127.615C558.613 135.901 558.391 144.652 556.4 152.818C559.013 152.012 559.013 152.012 561.625 151.205C564.813 163.629 561.745 163.983 559.6 175.221C562.525 174.12 562.525 174.12 565.45 173.02C571.43 180.141 567.986 194.837 567.4 202.624C570.2 199.924 570.2 199.924 573 197.223C576.76 204.311 572.342 213.284 571.2 221.226C575.4 218.426 575.4 218.426 579.6 215.625C580.981 222.484 578.945 229.768 576.8 236.428C580.894 233.815 580.894 233.815 584.988 231.202C590.082 236.813 585.433 243.177 583.2 248.829C597.074 246.748 593.761 251.648 591.6 264.831C594.314 262.554 598.335 259.856 601.6 261.231C601.2 257.03 601.2 257.03 600.8 252.83C604.8 253.23 604.8 253.23 608.8 253.63C607.974 247.022 597.666 248.627 595.2 241.228C603.233 243.128 600.26 243.954 604.4 242.228C599.303 234.957 592.248 233.017 590 224.026C593.6 223.926 593.6 223.926 597.2 223.826C592.605 214.634 586.496 212.801 582.8 202.024C585.8 202.474 585.8 202.474 588.8 202.924C589.15 202.224 589.15 202.224 589.5 201.524C584.497 196.436 580.023 190.169 578.4 183.222C582.8 184.822 582.8 184.822 587.2 186.422C586.608 175.921 579.066 179.795 574.4 171.42C571.078 165.459 570.933 158.219 569.2 151.618C574 154.218 574 154.218 578.8 156.818C577.199 146.524 570.25 146.509 565.7 138.166C563.304 133.772 563.233 128.465 562 123.615C567.6 125.915 567.6 125.915 573.2 128.215C568.765 116.093 561.145 112.024 558.4 98.8116C562.021 98.6616 565.665 98.7956 569.262 98.3616ZM631.75 51.4811C636.995 56.2041 637.517 64.3659 640.4 70.8083C643.432 68.3946 644.542 64.1884 645.862 60.5446C647.85 61.526 647.85 61.526 649.837 62.5073C649.425 66.1578 650.389 70.2499 648.6 73.4586C645.688 78.6814 640.467 82.2263 636.4 86.6102C642.883 86.9304 639.202 87.3282 647.2 84.0099C646.424 94.717 638.948 104.107 632.4 112.613C636.526 113.387 640.784 111.635 644.8 110.413C646.293 117.13 637.91 122.454 633.275 127.54C640.439 128.26 636.536 128.618 644.8 125.215C643.866 134.085 636.301 140.997 630.8 148.017C640.547 145.976 636.028 147.746 644.4 142.817C644.281 150.418 639.718 157.389 636 164.019C640.4 162.219 640.4 162.219 644.8 160.419C646.457 168.419 638.239 175.437 634 182.421C640.6 179.621 640.6 179.621 647.2 176.821C647.539 183.264 644.067 189.443 641.2 195.223C645.6 193.423 645.6 193.423 650 191.623C653.027 198.063 647.466 205.679 645.2 212.425C650.6 208.825 650.6 208.825 656 205.224C659.05 212.206 664.765 231.123 668.4 224.426C672.293 226.546 676.37 229.357 680.8 229.227C678.705 220.485 671.898 213.537 666.4 206.424C668.206 204.105 668.206 204.105 670.013 201.786C662.315 197.498 654.864 193.204 666.4 189.222C661.4 184.422 661.4 184.422 656.4 179.621C660 178.765 660 178.765 663.6 177.908C654.462 170.029 653.773 171.515 653.6 161.219C657.6 161.619 657.6 161.619 661.6 162.019C655.52 154.692 652.4 153.464 652.4 145.217C656.4 146.617 656.4 146.617 660.4 148.017C660.4 141.472 653.146 135.174 652.4 127.215C655.8 128.815 655.8 128.815 659.2 130.415C664.225 123.714 653.019 120.335 653.25 110.3C658.625 112.357 658.625 112.357 664 114.413C662.503 108.236 652.971 96.7321 655.2 93.611C672.178 101.916 658.62 85.8333 656.7 78.0592C656.003 75.2371 657.433 72.2918 657.8 69.4082C670.755 68.3132 668.729 87.0583 669.6 94.4111C674.575 89.8106 674.575 89.8106 679.55 85.21C693.462 99.0277 696.668 87.9648 702 109.213C707.179 102.728 710.019 94.47 712 86.4102C716.8 92.2108 716.8 92.2108 721.6 98.0115C724.8 92.8109 724.8 92.8109 728 87.6103C730.5 96.5113 730.5 96.5113 733 105.412C739.481 100.686 742.163 91.818 744 84.0099C748.2 89.4105 748.2 89.4105 752.4 94.8111C756 91.0107 756 91.0107 759.6 87.2103C763.947 96.9229 759.593 96.433 750 102.412C761.2 105.812 761.2 105.812 772.4 109.213C773.154 93.3853 774.19 77.3879 778 62.0073C778.2 100.612 778.2 100.612 778.4 139.216C771.543 131.806 771.543 131.806 764.687 124.395C756.343 133.006 756.343 133.006 748 141.617C747.046 134.628 747.925 127.13 745.138 120.652C743.146 116.024 737.979 113.559 734.4 110.013C731.6 124.415 731.6 124.415 728.8 138.816C724.792 136.755 721.28 132.473 716.776 132.632C709.053 132.904 702.125 137.555 694.8 140.016C702.6 145.517 702.6 145.517 710.4 151.018C701.8 169.72 701.8 169.72 693.2 188.422C704.586 184.135 712.173 179.802 723.528 186.22C729.547 189.622 739.629 191.92 740 198.823C740.323 204.834 738.23 210.991 739.5 216.875C740.545 221.718 748.461 226.383 745.6 230.427C742.763 228.343 738.961 224.123 736 226.027C733.837 223.508 733.837 223.508 731.675 220.988C727.635 223.224 716.196 217.09 712.8 215.225C714.8 221.226 714.8 221.226 716.8 227.227C715 227.927 715 227.927 713.2 228.627C715.3 231.727 715.3 231.727 717.4 234.828C716.2 235.428 716.2 235.428 715 236.028C720.276 241.014 720.072 238.308 718.8 243.229C722 244.429 722 244.429 725.2 245.629C724.2 246.829 724.2 246.829 723.2 248.029C727.715 252.354 734.97 252.403 741.1 253.63C738.15 265.831 738.15 265.831 735.2 278.033C727.782 271.232 719.2 265.05 709.6 262.031C707.176 265.263 709.054 263.762 702.4 262.431C704.349 267.087 709.169 273.663 705.6 277.233C707.4 280.033 707.4 280.033 709.2 282.833C708.4 283.233 708.4 283.233 707.6 283.633C715.283 288.436 714.499 285.168 713.1 292.084C719.2 295.024 726.116 295.952 732.8 297.035C731.4 309.136 731.4 309.136 730 321.238C724.867 317.473 721.999 319.316 717.625 315.187C716.4 316.758 715.892 319.455 713.95 319.9C711.043 320.567 708.117 318.658 705.2 318.037C707.46 311.872 709.186 305.389 709.6 298.835C693.424 303.35 693.817 318.784 688.2 291.634C696.3 293.034 696.3 293.034 704.4 294.435C699.007 284.637 694.331 283.1 683.6 279.633C688.464 276.448 695.473 279.03 701 280.833C707.814 270.611 690.887 270.359 687.188 265.869C683.775 261.727 689.626 244.425 686.587 235.89C674.442 242.418 692.08 267.459 677.6 269.632C677.7 266.031 677.7 266.031 677.8 262.431C676.7 262.431 676.7 262.431 675.6 262.431C675.982 256.468 680.233 244.563 672.3 241.678C664.013 260.457 681.055 263.998 660.8 276.433C659.7 272.832 659.7 272.832 658.6 269.232C655.639 275.842 653.426 284.003 647.225 287.746C645.412 280.889 645.412 280.889 643.6 274.032C645.8 274.232 645.8 274.232 648 274.432C647.6 270.432 647.6 270.432 647.2 266.431C649.6 266.831 649.6 266.831 652 267.231C651.2 263.231 651.2 263.231 650.4 259.23C653 258.73 653 258.73 655.6 258.23C639.507 242.678 636.306 253.769 627.2 232.427C631.456 232.115 631.456 232.115 635.712 231.802C628.744 225.413 622.906 226.054 619.6 216.825C625.9 217.626 625.9 217.626 632.2 218.426C626.2 212.276 617.275 211.534 615.2 203.624C622.2 204.224 622.2 204.224 629.2 204.824C621.822 196.831 614.344 197.935 612 186.822C619 188.022 619 188.022 626 189.222C618.479 181.568 609.508 182.217 609.2 170.82C613.228 172.34 618.295 175.848 621.85 173.42C612.826 159.058 608.269 170.547 607.2 152.018C611.641 153.538 616.32 155.174 621 154.818C615.262 150.436 607.195 145.993 606.4 138.816C610.2 141.217 610.2 141.217 614 143.617C616.419 138.777 607.636 132.176 606.8 125.615C613.4 127.415 613.4 127.415 620 129.215C615.51 123.276 607.953 118.765 607.2 111.613C615.563 114.094 611.051 113.456 620.8 113.013C615.886 108.822 606.734 105.654 607.2 99.2117C613.1 99.6117 613.1 99.6117 619 100.012C614.329 94.5494 606 89.997 606 82.8097C610.6 83.1098 610.6 83.1098 615.2 83.4098C610.384 77.7634 605.085 71.6786 603.6 64.4076C608.6 65.0076 608.6 65.0076 613.6 65.6077C608.992 57.3963 602.167 55.7979 601.8 45.8054C609.842 46.225 625.929 46.2394 631.75 51.4811ZM434.8 47.6056C437.345 49.3875 438.901 50.6755 440 53.6063C435 54.4064 435 54.4064 430 55.2065C432.4 51.406 432.4 51.406 434.8 47.6056ZM555.2 62.8074C553.759 58.1512 553.783 52.6226 554.4 47.8056C566.33 47.0599 563.961 57.7524 555.2 62.8074ZM414.8 48.8057C414.909 52.66 417.749 60.5498 414.7 63.8075C411.148 67.6031 407.449 71.2599 403.9 75.0588C401.445 77.6873 399.258 80.8846 396 82.4097C395.837 79.3179 395.434 77.1082 397.2 74.4588C400.752 69.1296 407.667 66.5879 410.15 60.5571C411.736 56.7053 407.978 55.0958 404.85 56.5066C402.132 57.7326 399.483 59.1069 396.8 60.4071C394.969 50.0295 406.537 49.0291 414.8 48.8057ZM178.8 63.2074C173.007 61.8556 167.263 62.2647 161.6 64.0075C164.318 53.1361 175.081 52.2556 178.8 63.2074ZM762.8 55.6065C760.498 64.2999 745.238 70.0391 742.4 58.3319C748.703 56.2891 756.262 55.6065 762.8 55.6065ZM709.6 57.6068C718.8 58.2068 718.8 58.2068 728 58.8069C727.8 62.6074 727.8 62.6074 727.6 66.4078C719.325 65.3468 712.581 66.0532 709.6 57.6068ZM434.8 68.208C435.37 65.1363 439.335 63.8382 442 62.2073C452.51 55.7748 460.652 67.1478 466.837 74.8338C469.144 77.7001 472.36 81.1825 471.612 84.785C470.25 91.3549 464.671 96.2697 461.2 102.012C467 99.5117 467 99.5117 472.8 97.0114C475.513 104.474 467.349 112.043 463.2 118.814C468.7 117.214 468.7 117.214 474.2 115.614C474.602 118.856 476.783 126.443 474 130.215C470.216 135.343 465.467 139.683 461.2 144.417C468.595 146.346 464.3 146.129 474 142.817C472.634 153.304 467.684 163.37 461.6 172.02C465.837 172.445 465.837 172.445 470.075 172.87C471.172 180.012 463.674 185.948 459.2 191.623C464.2 190.822 464.2 190.822 469.2 190.022C463.9 198.623 463.9 198.623 458.6 207.224C463.1 206.624 463.1 206.624 467.6 206.024C467.152 213.365 462.878 220.058 459.2 226.427C463.375 225.276 463.375 225.276 467.55 224.126C467.101 231.009 463.212 237.353 459.6 243.229C463.8 243.029 463.8 243.029 468 242.829C463.6 252.83 463.6 252.83 459.2 262.831C463.6 261.231 463.6 261.231 468 259.631C468 267.69 463.818 275.211 461.2 282.833C464.4 280.833 464.4 280.833 467.6 278.833C467.498 287.377 461.499 294.832 457.6 302.436C462.675 301.16 462.675 301.16 467.75 299.885C463.675 310.762 463.675 310.762 459.6 321.638C464 320.438 464 320.438 468.4 319.238C471.058 326.813 465.761 335.108 463.6 342.84C467.8 341.44 467.8 341.44 472 340.04C471.769 347.543 469.788 354.996 467.2 362.043C471.5 360.242 471.5 360.242 475.8 358.442C480.769 364.832 475.593 371.967 473.2 378.444C478.2 375.644 478.2 375.644 483.2 372.844C488.5 377.744 488.5 377.744 493.8 382.645C498.98 374.357 487.454 369.546 484.4 362.643C488.6 363.543 488.6 363.543 492.8 364.443C490.647 357.264 481.067 356.845 480.4 349.241C484.6 349.641 484.6 349.641 488.8 350.041C487.558 341.343 476.187 342.212 476.8 331.639C481.9 333.639 481.9 333.639 487 335.639C488.328 329.614 474.4 322.111 474.4 309.236C477.175 309.336 477.175 309.336 479.95 309.436C477.462 304.298 474.556 298.941 474.4 293.234C476.625 293.284 476.625 293.284 478.85 293.334C476.825 285.884 476.825 285.884 474.8 278.433C477.4 279.433 477.4 279.433 480 280.433C481.295 270.071 475.225 262.226 474.8 252.03C477.2 253.43 477.2 253.43 479.6 254.83C479.195 248.348 475.653 242.441 473.2 236.428C476.6 236.128 476.6 236.128 480 235.828C476.334 231.826 473.272 226.632 472.8 221.226C477.2 223.226 477.2 223.226 481.6 225.226C478.172 219.442 474.287 213.33 473.8 206.624C479.3 208.124 479.3 208.124 484.8 209.625C480.344 202.915 471.842 195.45 476.4 186.822C482.974 194.362 479.183 192.345 486.8 194.423C484.529 186.839 475.251 179.982 477.4 173.62C481.5 175.621 481.5 175.621 485.6 177.621C482.394 171.161 478.921 164.411 478.4 157.218C483.1 159.019 483.1 159.019 487.8 160.819C483.886 152.757 479.82 144.175 479.6 135.216C483.25 135.941 483.25 135.941 486.9 136.666C490.737 128.864 480.671 120.705 480.4 111.213C483.5 113.013 483.5 113.013 486.6 114.813C490.753 103.541 479.915 99.2552 480.2 88.4104C489.5 91.2107 489.5 91.2107 498.8 94.0111C495.325 100.237 495.325 100.237 491.85 106.463C494.984 109.597 492.915 108.66 498.637 107.063C498.58 114.06 496.845 121.19 493.8 127.49C497.115 130.011 495.326 129.811 499.2 127.615C499.293 133.955 494.879 139.602 491.75 145.117C495.675 144.567 495.675 144.567 499.6 144.017C500.072 151.654 494.227 158.378 490.8 165.219C495.6 163.419 495.6 163.419 500.4 161.619C496 172.42 496 172.42 491.6 183.222C496 181.621 496 181.621 500.4 180.021C500.607 187.027 494.929 192.968 491.4 199.023C496.1 198.923 496.1 198.923 500.8 198.823C496.2 206.924 496.2 206.924 491.6 215.025C496 214.125 496 214.125 500.4 213.225C496.1 220.226 496.1 220.226 491.8 227.227C495.9 227.027 495.9 227.027 500 226.827C496.4 238.628 496.4 238.628 492.8 250.429C496.2 248.229 496.2 248.229 499.6 246.029C500.31 254.544 493.304 261.932 489.6 269.632C494.6 267.831 494.6 267.831 499.6 266.031C496 277.033 496 277.033 492.4 288.034C496.4 287.034 496.4 287.034 500.4 286.034C502.467 293.507 497.728 301.326 495.8 308.836C499.5 307.436 499.5 307.436 503.2 306.036C503.887 313.854 501.416 321.71 499.2 329.239C503.8 327.438 503.8 327.438 508.4 325.638C509.421 332.046 507.341 338.715 505.2 344.841C509.8 341.84 509.8 341.84 514.4 338.84C514.9 344.641 514.9 344.641 515.4 350.441C518.4 347.841 518.4 347.841 521.4 345.241C524.1 347.041 524.1 347.041 526.8 348.841C527.226 341.698 521.67 335.227 517.2 329.639C521.2 329.839 521.2 329.839 525.2 330.039C522.46 323.187 515.232 322.882 512.8 315.237C518.2 316.304 523.555 319.247 529 318.437C534.079 317.682 537.288 310.353 542.4 310.837C550.075 311.562 557.123 316.477 562.85 321.638C569.382 327.524 555.59 333.854 554.75 334.789C552.226 337.602 551.469 341.765 548.8 344.44C546.56 346.686 528.788 354.749 531.8 363.843C533.313 368.411 536.864 372.928 541.35 374.669C549.849 377.966 561.359 370.035 568.688 375.457C572.649 378.387 572.627 396.639 572.4 398.947C570.994 413.243 571.529 425.745 559.787 434.914C548.67 443.595 531.729 441.631 517.75 439.752C498.827 437.208 480.728 429.522 461.7 427.95C444.769 426.552 425.768 436.533 421.2 453.653C418.165 465.028 417.2 476.856 415.2 488.457C399.127 483.162 382.044 481.29 365.2 479.656C365.2 473.122 366.819 466.385 365.2 460.054C362.412 449.152 353.784 439.602 353.6 428.35C353.219 405.05 351.473 381.681 353.2 358.442C353.762 350.873 360.113 344.424 360.4 336.84C360.67 329.712 355.63 323.272 354.8 316.187C353.912 308.603 354.749 300.901 355.3 293.284C356.625 274.955 356.8 256.407 360.425 238.391C361.775 231.68 368.884 226.979 370 220.226C371.585 210.641 367.816 200.841 368.238 191.135C369.53 161.393 384.499 133.626 398.8 108.413C398.23 118.218 394.234 127.93 388.862 136.154C393.231 135.685 393.231 135.685 397.6 135.216C396.623 144.472 388.921 151.837 383 159.019C388.8 157.719 388.8 157.719 394.6 156.418C395 157.318 395 157.318 395.4 158.219C390.157 163.023 385.329 168.536 382 174.821C387.8 173.52 387.8 173.52 393.6 172.22C386.6 179.321 386.6 179.321 379.6 186.422C385.6 184.822 385.6 184.822 391.6 183.222C391.365 190.738 383.686 196.301 378 201.224C383.8 200.824 383.8 200.824 389.6 200.424C389.793 207.942 380.961 212.774 376 218.426C382 218.026 382 218.026 388 217.626C381.8 225.427 381.8 225.427 375.6 233.227C380.6 233.427 380.6 233.427 385.6 233.627C384.474 240.74 377.482 245.559 372.8 251.03C378.2 249.929 378.2 249.929 383.6 248.829C382.031 255.649 377.168 261.365 372.8 266.831C376.8 267.031 376.8 267.031 380.8 267.231C380.431 274.917 374.162 281.162 370 287.634C374.6 286.634 374.6 286.634 379.2 285.634C375.2 293.635 375.2 293.635 371.2 301.635C374.275 302.536 374.275 302.536 377.35 303.436C370.275 311.937 370.275 311.937 363.2 320.438C369.7 318.337 369.7 318.337 376.2 316.237C371.356 324.438 371.356 324.438 366.512 332.639C369.461 333.708 375.842 335.164 374.312 337.902C371.038 343.767 366.637 348.929 362.8 354.442C368.2 353.642 368.2 353.642 373.6 352.841C367.4 360.242 367.4 360.242 361.2 367.643C367 366.643 367 366.643 372.8 365.643C372.646 372.946 365.485 378.415 360.6 383.845C366.3 383.345 366.3 383.345 372 382.845C367.1 389.346 367.1 389.346 362.2 395.847C367.1 395.346 367.1 395.346 372 394.846C367.2 400.847 367.2 400.847 362.4 406.848C367.25 406.823 367.25 406.823 372.1 406.798C367.35 414.524 367.35 414.524 362.6 422.25C368 422.25 368 422.25 373.4 422.25C369.7 429.751 369.7 429.751 366 437.251C370.1 436.251 370.1 436.251 374.2 435.251C377.1 443.052 377.1 443.052 380 450.853C380.4 448.453 380.4 448.453 380.8 446.052C384.5 447.753 384.5 447.753 388.2 449.453C384.3 441.352 384.3 441.352 380.4 433.251C383.148 433.407 387.221 434.088 388.5 431.651C385.317 428.355 380 425.431 380 420.849C387.328 421.214 385.562 423.126 387.6 419.049C383.624 415.177 379.908 409.989 379.6 404.448C386.532 406.924 383.798 407.849 388.2 403.447C384.81 399.954 380.177 396.479 379.6 391.646C382.9 392.146 382.9 392.146 386.2 392.646C383.666 388.96 379.115 384.984 380.2 380.645C382.725 381.72 382.725 381.72 385.25 382.795C388.511 375.926 387.906 372.46 380 371.244C380.225 368.612 380.225 368.612 380.45 365.981C384.425 366.612 384.425 366.612 388.4 367.243C385.255 361.597 380.944 355.699 381.2 349.241C385.8 349.841 385.8 349.841 390.4 350.441C389.471 342.391 382.701 341.06 382.2 333.039C385.5 334.739 385.5 334.739 388.8 336.44C392.772 330.15 386.249 321.622 383.2 314.837C387.2 316.637 387.2 316.637 391.2 318.437C388.489 312.535 383.747 306.117 385.4 299.835C388.281 301.254 388.281 301.254 391.162 302.673C392.275 301.56 392.275 301.56 393.387 300.448C390.573 294.986 386.597 289.374 386.8 283.233C389.8 284.833 389.8 284.833 392.8 286.434C396.094 281.904 388.598 273.704 388.4 266.831C391.069 268.573 394.823 270.994 397.6 269.432C394.642 262.201 389.868 254.49 391.4 246.829C394 248.729 394 248.729 396.6 250.629C397.775 249.629 397.775 249.629 398.95 248.629C395.823 242.652 393.278 235.972 393.2 229.227C399.12 233.456 396.151 233.208 401.75 231.827C398.598 226.252 394.16 219.865 395.6 213.625C400.576 216.765 398.296 216.967 402.3 215.125C399.735 209.758 397.414 203.968 397.2 198.023C399.45 200.699 399.45 200.699 401.7 203.374C403.087 202.355 403.087 202.355 404.475 201.336C402.165 195.525 399.066 189.452 399.6 183.222C402.2 184.722 402.2 184.722 404.8 186.222C406.846 181.788 403.067 176.533 401.2 172.02C407.524 175.3 405.042 176.119 409 172.82C406.719 167.817 401.401 162.123 403.787 157.168C406.694 158.794 406.694 158.794 409.6 160.419C411.076 154.811 406.554 149.12 403.8 144.017C408.8 145.617 408.8 145.617 413.8 147.217C398.991 116.052 398.444 98.9115 424.8 76.0089C424.91 83.8612 419.714 91.0493 415.4 97.6115C420.9 96.5113 420.9 96.5113 426.4 95.4112C425.938 100.687 426.822 106.261 425.012 111.238C423.232 116.136 419.004 119.756 416 124.015C421 123.214 421 123.214 426 122.414C421 132.816 421 132.816 416 143.217C420.1 142.117 420.1 142.117 424.2 141.017C423.182 150.513 420.217 160.093 415.2 168.22C418.4 167.52 418.4 167.52 421.6 166.82C421.278 173.975 415.25 179.715 411.2 185.622C415.2 185.222 415.2 185.222 419.2 184.822C419.033 191.452 413.083 196.647 409.2 202.024C413.2 201.024 413.2 201.024 417.2 200.024C416.72 209.976 411.684 212.247 404 219.226C409 220.026 409 220.026 414 220.826C413.741 227.311 407.661 232.314 403.2 237.028C407.2 237.128 407.2 237.128 411.2 237.228C409.998 244.214 404.702 249.954 400.2 255.43C404.5 254.73 404.5 254.73 408.8 254.03C407.729 261.373 402.657 268.003 397.2 273.032C401.6 273.732 401.6 273.732 406 274.432C406 284.87 404.037 285.066 396.4 292.434C407.96 296.119 402.492 300.023 395.6 308.236C398.8 308.536 398.8 308.536 402 308.836C401.36 315.128 397.464 320.748 394 326.038C397.1 326.438 397.1 326.438 400.2 326.838C400.825 333.72 394.193 338.747 394.412 345.591C396.406 345.816 396.406 345.816 398.4 346.041C398.062 353.492 389.597 354.593 391.8 362.043C394.7 360.642 394.7 360.642 397.6 359.242C396.642 366.909 392.892 374.058 389.2 380.845C389.837 381.532 389.837 381.532 390.475 382.22C393.437 380.332 393.437 380.332 396.4 378.444C395.309 386.569 389.517 390.489 389.6 398.447C392.925 397.722 392.925 397.722 396.25 396.997C393.725 403.722 393.725 403.722 391.2 410.448C394.2 410.048 394.2 410.048 397.2 409.648C398.368 416.568 394.339 423.433 392 430.051C394.912 427.894 394.912 427.894 397.825 425.738C401.862 431.169 401.862 431.169 405.9 436.601C406.293 426.888 404.677 417.099 402.4 407.648C405.225 410.573 405.225 410.573 408.05 413.499C409.375 412.473 409.375 412.473 410.7 411.448C406.385 400.323 403.132 388.377 403.2 376.444C407 378.244 407 378.244 410.8 380.045C410.228 373.372 402.422 363.005 404.8 358.842C408.3 361.843 408.3 361.843 411.8 364.843C413.1 363.243 413.1 363.243 414.4 361.643C410.218 355.53 405.922 348.64 405.6 341.24C408.651 344.107 411.631 347.507 415.6 348.841C415.6 338.498 406.946 335.964 406.4 326.438C409.745 329.955 413.206 334.482 418 335.239C415.796 326.666 405.798 320.431 409.112 312.349C412.191 314.338 416.507 317.241 419.675 315.4C415.495 308.424 409.016 300.848 410.4 292.834C414.925 296.479 414.925 296.479 419.45 300.123C430.072 290.008 406.904 287.824 412.612 277.17C417.106 279.402 417.106 279.402 421.6 281.633C420.21 270.407 412.936 266.542 415 255.63C419.7 258.23 419.7 258.23 424.4 260.831C423.213 249.968 416.836 244.154 417.2 235.628C421.8 238.028 421.8 238.028 426.4 240.428C425.692 230.401 419.525 226.871 419.6 217.226C424 221.026 424 221.026 428.4 224.826C427.674 217.757 422.804 200.666 423.4 200.024C427.2 202.624 427.2 202.624 431 205.224C439.819 195.384 423.961 188.336 426 178.821C429.55 182.321 429.55 182.321 433.1 185.822C431.611 177.236 426.472 172.715 427.6 164.819C431 168.42 431 168.42 434.4 172.02C433.778 167.901 428.862 157.054 429.2 153.218C431.7 154.518 431.7 154.518 434.2 155.818C432.492 143.463 432.377 130.859 433.2 118.414C437.684 123.637 437.013 131.96 436.4 138.816C439 138.316 439 138.316 441.6 137.816C444.474 150.27 443.478 153.891 438 166.02C441.6 165.019 441.6 165.019 445.2 164.019C445.2 176.229 436.8 185.716 436.8 197.623C440.4 196.823 440.4 196.823 444 196.023C443.37 203.903 438.488 210.883 434.85 217.901C437.967 220.973 435.832 219.91 442 217.626C441.711 225.108 436.309 231.523 432.6 238.028C436.7 237.028 436.7 237.028 440.8 236.028C440.592 243.161 434.494 248.93 430.2 254.63C434.9 254.33 434.9 254.33 439.6 254.03C438.629 260.892 433.881 266.922 429.2 272.032C433.8 272.432 433.8 272.432 438.4 272.832C434.6 283.733 434.6 283.733 430.8 294.635C434 293.134 434 293.134 437.2 291.634C437.553 300.099 431.349 307.601 427.312 315.05C432.256 313.543 432.256 313.543 437.2 312.037C433.8 323.638 433.8 323.638 430.4 335.239C433.7 334.239 433.7 334.239 437 333.239C441.426 340.05 434.77 349.362 432.8 357.242C436.1 355.442 436.1 355.442 439.4 353.642C442.401 361.19 437.496 369.853 435.2 377.644C439.2 374.044 439.2 374.044 443.2 370.444C448.143 379.507 445.905 383.175 442 392.846C446.6 389.646 446.6 389.646 451.2 386.445C457.8 391.246 457.8 391.246 464.4 396.047C463.701 388.595 458.516 382.159 454.2 376.044C457.7 376.844 457.7 376.844 461.2 377.644C459.341 370.79 450.394 370.061 450 362.843C454.4 362.643 454.4 362.643 458.8 362.443C453.6 358.141 447.961 353.006 446.4 346.441C451.6 348.041 451.6 348.041 456.8 349.641C457.312 348.666 457.312 348.666 457.825 347.691C448.833 338.488 443.784 335.967 444.188 323.776C446.494 323.107 446.494 323.107 448.8 322.438C446.254 317.482 443.043 312.403 442.8 306.836C445.4 307.436 445.4 307.436 448 308.036C448.707 302.03 445.536 296.164 443.6 290.434C446.2 291.834 446.2 291.834 448.8 293.234C449.693 285.569 446.746 277.899 444.8 270.432C447.35 272.482 447.35 272.482 449.9 274.532C454.865 271.411 446.596 257.545 446.8 252.03C449.875 252.68 449.875 252.68 452.95 253.33C450.685 247.319 447.369 240.584 449.2 234.428C451.8 237.028 451.8 237.028 454.4 239.628C452.103 231.962 449.499 224.013 450 216.025C452.4 218.626 452.4 218.626 454.8 221.226C452.36 212.917 450.553 204.281 450.4 195.623C453.2 198.023 453.2 198.023 456 200.424C453.617 192.21 450.911 183.768 451.2 175.221C453.8 178.421 453.8 178.421 456.4 181.621C459.032 175.039 452.119 168.096 450.4 161.219C449.349 157.012 450.133 152.551 450 148.217C452.6 150.718 452.6 150.718 455.2 153.218C453.946 132.619 434.34 117.746 436.4 96.8114C441.8 100.012 441.8 100.012 447.2 103.212C444.033 91.1203 432.234 82.0287 434.8 68.208ZM208.5 63.1074C204.621 65.762 191.991 69.5235 191.2 62.4073C196.149 61.3991 204.074 60.4515 208.5 63.1074ZM385.85 63.5825C386.842 67.849 386.531 65.7062 386.8 70.0082C383.4 68.8081 383.4 68.8081 380 67.6079C381.731 64.4475 382.177 64.289 385.85 63.5825ZM744.4 67.2079C745.667 69.2748 750.733 77.5425 752 79.6094C750.333 79.676 743.667 79.9427 742 80.0094C742.4 77.8758 744 69.3415 744.4 67.2079ZM719.2 80.4095C714.4 80.6095 714.4 80.6095 709.6 80.8095C709.639 76.6071 709.361 72.3618 710 68.208C714.599 70.3982 716.473 76.1072 719.2 80.4095ZM762.4 68.008C762.4 75.4089 762.4 75.4089 762.4 82.8097C756.951 82.2648 759.688 82.7779 754.2 81.2095C755.939 76.5352 758.751 71.4358 762.4 68.008ZM180.4 69.2081C182 70.7417 188.4 76.8757 190 78.4092C187.933 78.2759 179.667 77.7425 177.6 77.6091C178.067 76.209 179.933 70.6083 180.4 69.2081ZM728.8 70.0082C729.4 77.0091 729.4 77.0091 730 84.0099C725.234 82.9507 727.558 83.6217 723.025 82.0096C723.998 77.6538 726.649 73.8803 728.8 70.0082ZM190.4 70.4083C198.885 72.1761 203.974 71.6406 213.2 70.8083C211.174 75.2418 206.676 77.1023 204.6 81.3596C200.559 89.6453 204.137 93.6029 193.2 96.4113C202.765 101.476 203.861 91.8361 209.75 87.5603C210.894 86.7298 218.943 86.0805 219.6 86.0101C219.377 91.8646 216.561 111.861 208.925 112.688C201.384 113.505 207.797 103.344 209.6 101.612C205.207 102.441 200.108 102.605 196.8 105.612C201.134 107.629 200.659 108.293 200.8 113.213C183.337 113.213 179.392 95.8845 178.8 81.6096C193.085 84.7691 199.323 90.0406 190.4 70.4083ZM508.1 82.2597C503.706 79.4029 504.417 69.3763 511.225 72.6835C510.812 76.1465 510.812 76.1465 510.4 79.6094C517.695 78.8332 513.671 79.7734 522.2 75.8089C528.657 83.5578 512.681 85.2376 508.1 82.2597ZM219.6 72.8086C219.6 77.2091 219.6 77.2091 219.6 81.6096C214.6 80.8095 214.6 80.8095 209.6 80.0094C212.454 77.0659 215.723 74.227 219.6 72.8086ZM698.75 76.1089C699.43 83.4545 693.519 86.2649 689.6 79.2093C695.326 76.4823 692.286 77.5455 698.75 76.1089ZM537.6 80.4095C531.737 82.3264 528.926 83.6009 529.8 76.609C533.478 76.8133 535.654 77.0725 537.6 80.4095ZM371.35 78.0592C375.31 77.0429 383.799 80.2094 388.4 80.4095C385.529 89.2534 383.247 98.3475 379.4 106.813C376.865 99.001 361.046 80.704 371.35 78.0592ZM548.8 86.8102C548.572 101.317 543.529 102.691 542 114.413C545.4 114.413 545.4 114.413 548.8 114.413C548.62 123.306 545.77 130.386 540.4 137.616C544 137.916 544 137.916 547.6 138.216C547.433 145.017 547.332 151.82 547.1 158.619C546.923 163.782 542.105 171.173 540.8 176.421C543.8 175.221 543.8 175.221 546.8 174.02C546.547 181.234 545.127 188.54 542.4 195.223C552.471 196.132 544.839 209.47 544 215.625C546 216.125 546 216.125 548 216.625C545.6 223.526 545.6 223.526 543.2 230.427C546 230.027 546 230.027 548.8 229.627C548.8 235.49 545.543 240.898 543.6 246.429C546.8 245.429 546.8 245.429 550 244.429C551.22 254.07 549.758 249.984 553.462 256.98C554.531 254.305 554.531 254.305 555.6 251.63C557.2 252.03 557.2 252.03 558.8 252.43C559.3 251.63 559.3 251.63 559.8 250.829C560.933 254.68 562.741 258.393 563.2 262.381C566.118 287.702 555.133 277.39 541.2 268.632C547.35 284.378 570 283.424 563.812 303.548C557.306 302.392 557.306 302.392 550.8 301.235C555.434 305.68 563.751 309.12 566 314.837C534.894 306.414 524.367 283.297 514 254.43C510.006 264.667 513.631 275.589 517.6 285.234C507.884 282.98 506.365 284.784 506 276.032C508.6 276.633 508.6 276.633 511.2 277.233C508.642 272.052 505.736 266.606 505.6 260.831C508.2 261.031 508.2 261.031 510.8 261.231C509.896 254.846 506.589 249.985 506.4 243.629C509.35 245.479 509.35 245.479 512.3 247.329C513.502 237.709 508.263 231.907 507.2 222.826C510.75 225.727 510.75 225.727 514.3 228.627C516.782 221.511 511.985 214.587 509.2 208.425C512.2 209.825 512.2 209.825 515.2 211.225C514.743 202.995 508.833 201.862 509.5 193.123C513.998 197.741 511.495 196.611 516.4 197.623C514.532 190.444 505.99 184.188 508.2 176.821C513.562 181.468 510.785 180.199 516 181.621C514.677 174.248 507.115 168.746 508.087 162.369C513.74 166.291 510.876 165.15 516.4 166.42C514.022 158.046 507.196 153.298 506.8 144.817C511.2 147.617 511.2 147.617 515.6 150.418C513.655 141.179 507.854 137.272 506.4 128.015C510.9 130.915 510.9 130.915 515.4 133.816C517.609 124.243 506.768 120.144 506.4 110.413C510.6 113.213 510.6 113.213 514.8 116.014C514.8 106.856 507.328 103.489 506 95.2112C515.2 95.2112 515.2 95.2112 524.4 95.2112C520.617 101.318 517.502 105.185 518 112.413C521.4 110.013 521.4 110.013 524.8 107.613C524.438 114.964 520.778 119.283 519.2 126.415C521.9 125.615 521.9 125.615 524.6 124.815C525.433 132.476 521.174 135.468 519.6 142.817C522.6 142.017 522.6 142.017 525.6 141.217C525.6 146.965 520.385 151.468 518.8 157.218C522.2 156.618 522.2 156.618 525.6 156.018C525.828 161.936 520.659 166.937 518.8 173.22C522.525 172.045 522.525 172.045 526.25 170.87C525.023 176.922 520.976 181.166 519.6 187.222C523 186.222 523 186.222 526.4 185.222C526.096 190.925 522.159 195.525 520.8 201.224C523.6 200.824 523.6 200.824 526.4 200.424C526.113 205.926 524.88 211.668 521.975 216.35C528.384 223.492 526.237 224.862 522.8 234.028C531.625 236.543 522.667 248.228 520.8 253.63C530.045 254.729 526.4 261.18 523.6 268.032C527.883 269.064 526.853 273.616 530.8 275.632C531.2 273.432 531.2 273.432 531.6 271.232C533.3 272.332 533.3 272.332 535 273.432C536.177 266.762 531.52 261.767 532 255.03C534.8 256.73 534.8 256.73 537.6 258.43C536.307 251.474 531.808 247.51 532.4 240.428C534.8 241.628 534.8 241.628 537.2 242.829C536.304 237.231 532.968 234.699 532.4 229.227C535.2 230.627 535.2 230.627 538 232.027C536.829 224.708 532.555 220.845 532.4 213.225C534.6 214.225 534.6 214.225 536.8 215.225C537.502 208.905 525.332 193.456 540 202.024C538.85 196.502 533.2 192.619 533.2 187.622C535.8 189.022 535.8 189.022 538.4 190.422C537.508 183.283 533.784 179.095 533.2 172.02C536 173.52 536 173.52 538.8 175.021C536.99 168.809 534.092 165.174 533.2 158.819C536.6 158.819 536.6 158.819 540 158.819C536.873 153.271 534.129 147.163 533.6 140.817C536.8 143.017 536.8 143.017 540 145.217C540.613 137.855 532.482 134.596 534 128.015C535.6 128.815 535.6 128.815 537.2 129.615C540.304 125.269 534.156 121.912 533.55 117.814C532.924 113.581 534.183 109.28 534.5 105.012C537.05 106.913 537.05 106.913 539.6 108.813C540.882 103.044 536.146 99.9126 532.6 96.0113C537.948 92.8547 543.246 89.5878 548.8 86.8102ZM154.4 93.211C161.102 95.7535 151.075 114.651 148 117.214C149.376 108.959 153.646 101.511 154.4 93.211ZM353.8 100.412C363.04 110.913 356.899 154.916 346 162.819C340.517 146.425 332.605 111.01 353.8 100.412ZM215.6 111.613C216.353 116.633 216.885 120.22 214.412 124.765C206.708 121.066 210.886 114.664 215.6 111.613ZM186 112.013C191.447 114.838 197.203 116.204 195.2 123.214C188.763 121.459 187.098 118.234 186 112.013ZM153.2 153.068C151.901 158.069 149.221 165.478 146.9 170.12C139.908 184.105 126.482 187.017 121.6 170.22C117.801 157.149 121.169 142.311 129 131.215C129.7 136.616 129.7 136.616 130.4 142.017C132.6 138.616 132.6 138.616 134.8 135.216C134.2 140.417 134.2 140.417 133.6 145.617C136.213 142.4 137.266 139.773 140.8 137.616C140 142.917 140 142.917 139.2 148.217C142.298 144.88 142.616 138.242 147.6 137.216C146.6 143.617 146.6 143.617 145.6 150.018C150 144.817 150 144.817 154.4 139.616C154.4 145.942 154.803 146.898 153.2 153.068ZM304.4 131.615C309.017 136.686 307.715 137.783 306.4 145.217C302.755 141.454 303.915 136.464 304.4 131.615ZM252 144.817C248.075 144.672 228.591 144.488 226.8 146.417C223.049 144.333 223.2 141.149 223.212 137.104C236.66 135.241 249.998 129.469 252 144.817ZM181.2 136.416C183.8 162.219 183.8 162.219 186.4 188.022C181.551 185.634 183.951 187.325 179.6 182.421C178.7 186.022 178.7 186.022 177.8 189.622C174.747 181.695 176.434 184.409 174 180.821C173.826 185.487 174.146 188.085 170.8 191.222C169.358 183.666 170.672 186.591 168 182.021C167.208 188.356 167.791 185.257 166.275 191.322C163.13 189.721 164.557 186.013 162.8 183.222C161.5 188.422 161.5 188.422 160.2 193.623C158.768 187.457 159.706 190.234 157.6 185.222C155.615 193.604 157.746 191.093 154 194.423C153.51 187.069 154.483 189.725 152.8 186.022C150.72 189.542 150.45 194.474 147.2 196.823C147 192.579 144.845 186.163 146 182.121C147.207 177.897 151.405 174.528 153.35 170.558C157.928 161.212 159.391 152.487 161.55 142.367C163.314 146.969 162.096 144.482 165.6 149.618C165.675 146.142 165.675 146.142 165.75 142.667C166.675 144.942 166.675 144.942 167.6 147.217C168.7 142.017 168.7 142.017 169.8 136.816C170.24 140.029 169.694 144.287 172.3 146.217C173.35 142.317 173.35 142.317 174.4 138.416C176.141 141.368 175.689 144.596 177.2 147.617C178.084 143.856 178.023 139.064 181.2 136.416ZM204.4 137.616C211.39 151.597 208.331 168.805 204.8 183.222C204.6 160.419 204.6 160.419 204.4 137.616ZM294 138.416C299.396 140.729 300.431 145.986 302 151.218C295.453 149.581 294.405 144.487 294 138.416ZM111.5 184.622C101.553 169.089 97.9526 153.155 116.4 141.217C113.388 163.662 110.948 183.208 136 189.822C127.93 208.27 118.086 194.905 111.5 184.622ZM312 141.517C313.656 147.196 312.218 152.794 306.4 155.218C307.266 149.808 307.308 144.841 312 141.517ZM778.4 142.417C778.4 155.018 778.4 155.018 778.4 167.62C767.244 165.059 761.52 160.366 752.8 152.418C761.261 148.733 769.515 144.94 778.4 142.417ZM218 146.417C216.161 148.256 217.225 147.605 214.838 148.417C214.219 147.617 214.219 147.617 213.6 146.817C215.8 146.617 215.8 146.617 218 146.417ZM291.887 147.73C294.638 151.658 297.165 155.21 302 156.418C290.161 171.505 284.727 150.558 291.887 147.73ZM730 151.218C731 163.619 731 163.619 732 176.021C722.4 176.021 722.4 176.021 712.8 176.021C716.591 167.175 724.437 158.868 730 151.218ZM305.2 168.42C307.002 163.271 308.514 159.304 312.4 155.418C315.498 160.995 310.292 166.51 305.2 168.42ZM228.2 156.018C234.681 173.106 222.667 173.255 244 175.821C226.397 183.366 227.49 168.56 228.2 156.018ZM248.8 208.425C244.216 202.849 253.823 202.411 255.448 200.448C258.562 196.686 257.607 191.333 259.7 187.072C263.565 179.203 278.36 165.648 286.3 161.519C290.286 166.545 291.823 165.136 299.2 165.619C295.203 187.606 278.804 207.919 267 225.427C262.521 222.247 252.281 212.658 248.8 208.425ZM748.8 167.62C755.36 174.181 766.655 181.467 761.05 190.972C757.183 189.725 757.193 185.099 754.4 182.421C751.385 184.231 750.808 185.642 748.8 188.822C742.643 181.895 745.532 175.665 748.8 167.62ZM349.6 172.42C356.714 174.199 361.328 182.495 362.4 189.222C355.948 185.996 351.011 179.478 349.6 172.42ZM778.8 174.421C778.2 183.722 778.2 183.722 777.6 193.023C773.915 192.423 770.127 192.996 766.4 193.223C768.586 187.211 773.512 178.25 778.8 174.421ZM218.4 184.422C217.024 187.112 216.832 186.822 214 186.822C214.716 183.743 215.368 184.169 218.4 184.422ZM269.987 234.615C269.799 231.495 271.902 228.609 273.488 225.914C280.242 214.431 293.616 199.169 297.6 185.222C304.101 195.625 301.981 209.401 303 221.626C308.851 291.824 315.925 362.09 319.2 432.451C315.183 431.901 311.063 431.861 307.15 430.801C298.217 428.381 289.862 423.929 280.8 422.05C279.228 421.724 273.807 439.01 268.8 444.852C268.933 426.834 268.097 408.781 269.2 390.796C270.109 375.977 274.935 361.435 274.65 346.591C274.31 328.92 272.883 311.287 272 293.635C274.8 294.835 274.8 294.835 277.6 296.035C276.566 275.431 271.231 255.207 269.987 234.615ZM348.6 186.822C353.332 189.403 356.458 193.638 357.6 198.823C352.543 196.438 349.301 192.434 348.6 186.822ZM773.6 210.025C775.903 205.271 774.158 199.118 778.8 196.023C778.8 221.626 778.8 221.626 778.8 247.229C772.225 246.368 775.014 236.684 773.8 231.827C770.987 233.937 769.266 237.274 766.487 239.428C765.298 240.35 760.338 240.291 758.8 241.028C754.294 243.19 752.687 246.23 748.8 249.229C751.007 240.446 754.213 220.6 764.8 234.028C763.539 226.181 764.981 229.979 760 222.826C765.282 219.225 770.712 215.985 773.6 210.025ZM196.8 197.223C205.852 197.571 207.2 198.513 207.2 207.624C198.085 207.624 197.136 205.963 196.8 197.223ZM223.25 208.324C215.841 208.192 217.035 203.345 216.8 197.223C228.337 197.595 241.6 194.336 241.6 208.425C235.483 208.391 229.366 208.434 223.25 208.324ZM152.5 208.375C155.607 202.625 185.867 199.475 191.6 199.223C191.184 208.458 193.659 211.063 185.6 212.875C174.146 215.45 162.667 217.909 151.2 220.426C151.295 217.205 150.74 211.63 152.5 208.375ZM363.4 205.824C368.968 209.722 367.411 217.696 361.2 220.026C362.3 212.925 362.3 212.925 363.4 205.824ZM184 223.226C183.75 225.982 184.075 230.922 182 233.227C180.659 234.717 155.47 240.695 153.65 239.728C146.009 235.668 148.886 228.475 156.2 226.827C162.82 225.335 164.941 225.188 171.8 224.226C183.1 223.226 183.1 223.226 184 223.226ZM259.2 224.426C259.138 227.699 260.507 231.567 258.6 234.228C257.417 235.878 230.736 239.088 228.4 237.628C218.451 231.409 232.102 226.081 236.6 225.427C252.625 224.551 252.625 224.551 259.2 224.426ZM724 226.427C728.139 227.117 726.382 226.343 729.4 228.427C730.3 227.627 730.3 227.627 731.2 226.827C735.214 230.143 734.573 234.504 737.6 238.828C733.502 239.375 730.763 239.696 727.2 237.428C729 237.128 729 237.128 730.8 236.828C729.248 232.835 725.529 230.504 724 226.427ZM208.2 240.828C208.7 241.628 208.7 241.628 209.2 242.429C210.8 242.028 210.8 242.028 212.4 241.628C211.817 244.25 212.463 243.024 210.1 245.091C208.162 242.426 208.752 243.865 208.2 240.828ZM200 242.829C207.879 251.051 200.277 278.439 196.4 287.434C173.929 279.943 193.016 256.65 200 242.829ZM770.4 245.229C769 248.829 769 248.829 767.6 252.43C769.2 253.23 769.2 253.23 770.8 254.03C766.305 257.177 759.992 258.317 754.8 260.231C755.365 257.313 754.399 254.518 756.7 252.355C762.392 258.226 764.802 248.028 770.4 245.229ZM251.2 245.229C257.331 249.609 257.963 256.881 255 263.231C251.912 250.876 253.142 256.884 251.2 245.229ZM181.2 246.429C184.963 252.701 183.55 261.901 178.8 267.231C179.144 261.197 178.404 252.581 181.2 246.429ZM244.4 249.629C247.891 253.332 249.953 260.983 246.05 265.031C244.71 254.306 245.241 259.442 244.4 249.629ZM157.6 250.429C162.869 254.382 159.505 265.95 155.6 269.632C156.6 260.031 156.6 260.031 157.6 250.429ZM250.75 277.383C232.748 278.179 234.756 265.536 235.2 250.429C235.504 250.854 236.029 251.189 236.112 251.705C239.54 272.836 235.701 272.426 257.6 275.032C255.495 276.699 253.534 277.26 250.75 277.383ZM167.2 252.43C172.448 255.346 168.588 267.505 165.2 271.232C165.716 264.833 166.942 258.875 167.2 252.43ZM147.6 252.83C147.131 263.375 146.528 273.919 145.6 284.433C157.2 284.033 157.2 284.033 168.8 283.633C164.626 289.772 148.425 289.634 141.6 289.634C142.409 279.16 141.28 263.101 147.6 252.83ZM775.2 255.23C775.4 256.83 775.4 256.83 775.6 258.43C777.2 257.63 777.2 257.63 778.8 256.83C779 401.447 779 401.447 779.2 546.064C776.18 538.315 774.396 529.969 774 521.661C763.911 521.402 768.191 511.39 766.163 501.696C763.176 487.426 759.103 473.4 756 459.154C755.433 456.55 770.189 447.643 771.6 438.852C770.6 438.552 770.6 438.552 769.6 438.252C771.061 432.406 770.356 428.657 771.6 422.85C770.8 422.45 770.8 422.45 770 422.05C770.8 418.649 770.8 418.649 771.6 415.249C770 415.649 770 415.649 768.4 416.049C767.6 412.849 767.6 412.849 766.8 409.648C764.406 414.299 764.406 414.299 762.012 418.949C760.706 417.699 760.706 417.699 759.4 416.449C758.1 419.249 758.1 419.249 756.8 422.05C755.4 421.45 755.4 421.45 754 420.849C752.8 424.85 752.8 424.85 751.6 428.85C750.8 428.05 750.8 428.05 750 427.25C749.1 429.45 749.1 429.45 748.2 431.651C746.72 426.071 741.718 418.086 746.2 414.449C752.207 409.574 761.086 407.038 764.4 400.047C763.6 399.647 763.6 399.647 762.8 399.247C765.76 393.623 766.16 383.986 767 376.844C765.1 376.844 765.1 376.844 763.2 376.844C761.95 371.219 761.95 371.219 760.7 365.593C757.183 366.736 757.021 372.089 756 375.644C753.8 375.044 753.8 375.044 751.6 374.444C750.136 379.283 751.771 378.163 747.2 378.444C745.625 385.121 747.25 381.84 741.2 387.646C740.4 373.444 740.4 373.444 739.6 359.242C745.331 359.405 745.331 359.405 751.062 359.567C751.375 353.383 757.291 356.95 760 346.041C759 345.841 759 345.841 758 345.641C760.926 338.295 761.513 338.42 762.4 330.439C760.6 330.839 760.6 330.839 758.8 331.239C758.405 324.12 759.443 327.375 755.8 321.438C753.696 324.633 750.96 329.744 747.2 329.039C744.245 334.162 742.522 333.219 739.6 338.84C734.643 319.129 737.787 315.747 755.2 306.436C754.4 305.736 754.4 305.736 753.6 305.036C758.756 301.135 760.505 294.8 764.4 289.034C760.495 284.933 761.421 278.06 760.8 272.432C756.433 274.832 751.685 276.641 747.7 279.633C744.521 282.02 745.339 288.851 739.45 286.984C739.524 281.221 740.551 267.167 746.2 267.031C749.83 266.944 766.997 270.219 765.2 262.431C767.8 261.931 767.8 261.931 770.4 261.431C769.4 260.131 769.4 260.131 768.4 258.83C772.77 256.372 770.505 257.578 775.2 255.23ZM168.2 390.246C160.074 390.706 153.264 383.147 145.2 382.045C140.92 381.46 122.57 392.805 122.962 379.382C123.476 361.823 130.296 347.27 134.8 329.839C136.197 324.43 137.866 303.552 143.52 301.266C145.498 300.466 147.671 300.172 149.8 300.035C163.385 299.161 177.022 299.219 190.6 298.235C206.599 297.075 207.367 274.832 208.4 262.431C219.579 272.813 204.035 308.936 197.4 318.837C190.192 329.594 181.377 339.2 174 349.841C170.956 354.232 168.8 359.176 166.2 363.843C173.3 358.942 173.3 358.942 180.4 354.042C182.906 365.141 186.008 389.237 168.2 390.246ZM330.8 270.432C331.383 276.031 331.326 282.077 330.4 287.634C324.354 283.385 325.754 275.02 330.8 270.432ZM710.8 270.032C718.221 271.844 721.295 278.191 729 278.833C729.89 282.949 729.418 280.052 729.2 287.634C725.507 285.992 718.893 285.215 716.4 282.433C718.8 281.833 718.8 281.833 721.2 281.233C718.786 278.215 710.613 272.925 710.8 270.032ZM756 284.633C758.48 288.974 750.634 291.868 754.8 296.035C749.386 297.84 745.624 302.164 740.4 304.436C740.799 299.653 742.108 295.65 744 291.234C744.2 294.235 744.2 294.235 744.4 297.235C749.81 295.071 748.38 289.708 749.987 285.346C752.649 285.618 753.684 285.792 756 284.633ZM516.1 291.834C520.006 294.348 524.074 296.603 528 299.085C548.372 311.967 509.2 320.209 509.2 298.835C512.88 300.077 516.749 301.732 520.6 301.235C517.436 295.54 513.366 292.356 508 288.834C513.211 287.486 509.571 287.634 516.1 291.834ZM233.95 384.795C226.25 395.203 213.836 381.691 213.188 373.456C212.123 359.946 211.771 346.386 211.4 332.839C211.293 328.934 209.821 315.12 213.35 309.086C221.308 295.479 249.61 293.874 262.8 291.634C266.916 317.361 270.784 340.722 266.2 366.443C264.831 374.123 264.104 382.734 255.4 385.645C252.438 386.636 242.717 386.135 239.4 386.045C243.277 378.791 244.762 373.87 243.6 365.643C240.089 373.673 238.82 378.212 233.95 384.795ZM684.4 308.436C680.568 308.373 669.189 305.917 666.6 311.787C682.572 326.609 688.821 319.048 688 340.84C685.067 338.64 682.367 336.087 679.2 334.239C671.636 329.828 663.085 335.226 669.6 343.34C674.059 348.894 684.093 348.996 687.25 355.379C689.713 360.36 686.95 366.489 686.8 372.044C682.467 369.843 678.429 366.924 673.8 365.443C661.198 361.411 665.026 374.778 669.6 381.045C673.255 386.052 680.98 387.501 683.85 392.996C686.102 397.308 684.257 402.786 683.462 407.585C683.337 408.345 682.021 408.669 681.3 408.398C673.993 405.651 666.801 401.526 659 401.247C661.133 405.248 662.055 410.189 665.4 413.249C670.178 417.619 679.192 417.025 682.4 422.65C685.104 427.392 680.8 433.451 680 438.852C676 437.051 672.29 434.364 668 433.451C663.254 432.441 654.825 436.574 659 442.252C663.534 448.42 674.884 447.177 679.55 450.703C682.755 453.125 683.043 460.958 679.45 462.754C673.411 465.774 666.617 466.955 660.2 469.055C671.948 480.186 683.97 475.481 683.6 493.658C676.635 493.366 669.738 495.84 663.2 498.259C665.467 500.325 667.207 503.192 670 504.459C675.708 507.05 682.31 507.159 688.1 509.56C694.029 512.018 690.388 521.964 685.525 523.112C681.503 524.061 677.308 524.012 673.2 524.462C676.6 528.862 676.6 528.862 680 533.263C663.173 536.757 646.267 540.05 629.2 542.064C641.917 528.662 661.823 515.875 641.2 499.659C633.737 493.79 625.021 489.677 617.387 484.032C615.13 482.362 611.605 480.637 611.687 477.831C611.972 468.115 617.245 459.104 618.4 449.453C622.692 413.59 612.855 380.039 603.2 346.041C611.544 345.519 617.096 345.97 625 340.94C629.181 338.279 632.785 334.585 635.575 330.489C645.776 315.513 620.963 316.765 614 317.637C602.354 319.096 598.652 323.725 589 330.489C589.108 323.118 593.729 316.64 601.237 314.399C619.261 309.021 637.639 304.905 655.9 300.398C658.195 299.831 657.301 309.139 658.8 311.637C671.107 294.076 677.035 283.507 684.4 308.436ZM349.2 310.837C342.991 308.767 337.89 302.378 336 296.235C343.345 297.557 348.134 304.76 349.2 310.837ZM705.6 308.036C704.744 312.744 703.395 314.749 698.4 314.437C699.808 311.319 702.361 309.039 705.6 308.036ZM333.6 308.836C339.246 310.53 342.761 315.773 344.4 321.238C339.086 319.508 335.315 313.981 333.6 308.836ZM569.6 326.438C571.176 322.236 571.312 316.65 573.6 313.037C591.916 311.683 586.521 327.74 569.6 326.438ZM686.2 318.287C681.685 320.294 677.512 318.739 674.4 315.237C678.646 312.878 684.742 312.747 686.2 318.287ZM698.2 341.64C692.608 338.991 698.304 322.191 704 319.638C704.695 325.028 704.574 335.564 710.4 337.24C707.852 338.416 701.659 343.279 698.2 341.64ZM170.8 398.047C174.512 390.559 185.278 390.077 187.6 380.045C190.396 367.965 184.186 357.041 186.85 345.291C189.026 335.692 197.678 329.206 202.8 321.238C211.547 340.324 205.814 364.827 210.2 385.445C211.6 392.024 219.389 391.02 220.7 397.672C224.72 418.066 227.098 439.996 230 460.454C224.81 460.125 219.575 459.949 214.4 460.454C213.72 454.281 212.524 447.931 209.6 442.452C209.014 448.494 209.806 446.029 208 450.053C206.2 446.653 206.2 446.653 204.4 443.252C204 446.953 204 446.953 203.6 450.653C200.6 446.753 200.6 446.753 197.6 442.852C198.6 450.053 198.6 450.053 199.6 457.254C190.116 454.845 180.912 451.293 172 447.253C172.2 452.453 172.2 452.453 172.4 457.654C170 455.254 170 455.254 167.6 452.853C167.125 456.522 167.125 456.522 166.65 460.192C165.125 457.923 165.125 457.923 163.6 455.654C163.4 460.054 163.4 460.054 163.2 464.455C159.1 462.254 159.1 462.254 155 460.054C159.657 439.239 161.325 417.157 170.8 398.047ZM727.6 336.44C722.629 335.916 718.818 335.655 714.95 332.339C717.275 331.589 717.275 331.589 719.6 330.839C712.334 325.037 714.863 327.841 711.2 323.238C719.891 323.238 726.388 326.051 727.6 336.44ZM619 324.638C617.332 334.649 607.253 334.738 599.2 334.439C602.148 326.577 611.069 322.372 619 324.638ZM583.6 340.04C577.078 339.743 571.844 340.54 565.6 342.44C569.363 335.055 578.845 330.148 583.6 340.04ZM754.8 339.64C753.993 342.421 751.803 344.276 751.45 347.191C752.325 347.616 752.325 347.616 753.2 348.041C749.34 351.2 745.499 352.797 740.8 354.442C741.8 348.641 741.8 348.641 742.8 342.84C748.392 346.755 749.012 338.749 754.8 339.64ZM715.6 339.64C714.6 341.24 714.6 341.24 713.6 342.84C716.025 343.39 716.025 343.39 718.45 343.94C718.625 345.391 718.625 345.391 718.8 346.841C723.241 345.501 728.091 343.952 732.6 345.041C733.1 360.942 733.1 360.942 733.6 376.844C725.009 372.369 728.24 375.078 723.2 369.643C721.981 371.081 721.981 371.081 720.762 372.519C718.981 371.081 718.981 371.081 717.2 369.643C716.7 370.444 716.7 370.444 716.2 371.244C713.7 370.044 713.7 370.044 711.2 368.843C711.792 372.69 714.035 378.502 710.7 380.507C712.316 384.384 714.39 389.635 712.65 392.946C716.831 396.082 714.069 394.552 721.6 396.047C720.2 398.047 720.2 398.047 718.8 400.047C725.411 399.79 730.68 396.771 737.2 396.047C739.725 406.442 739.484 417.353 739.6 428.05C734.4 424.65 734.4 424.65 729.2 421.25C728.2 422.05 728.2 422.05 727.2 422.85C725.8 421.25 725.8 421.25 724.4 419.649C721.701 422.917 723.477 422.135 718.8 421.25C718.244 422.656 718.244 422.656 717.688 424.062C713.644 423.456 713.644 423.456 709.6 422.85C709.987 429.119 713.634 437.429 718.8 439.652C718.7 441.252 718.7 441.252 718.6 442.852C726.831 444.839 735.751 444.365 744 442.452C746.2 452.253 746.2 452.253 748.4 462.054C740.8 461.454 740.8 461.454 733.2 460.854C733.2 463.254 733.2 463.254 733.2 465.655C729.8 465.455 729.8 465.455 726.4 465.255C727.4 467.655 727.4 467.655 728.4 470.055C724.95 470.68 724.95 470.68 721.5 471.305C722.35 472.281 722.35 472.281 723.2 473.256C711.267 477.696 725.218 477.937 725.6 484.057C734.821 484.618 741.058 486.716 750.8 482.657C754.8 502.159 754.8 502.159 758.8 521.661C742.958 521.989 727.106 523.163 711.4 525.262C715.01 515.812 717.6 512.823 712.6 504.459C708.055 506.732 706.036 512.244 703.2 516.461C692.455 496.864 705.332 510.758 707.8 495.858C708.53 491.449 709.297 486.503 707.4 482.457C702.893 482.867 701.091 490.463 697.2 489.458C686.733 486.752 700.258 471.989 705.462 460.054C706.575 457.502 704.797 450.84 702.412 452.278C698.192 454.823 694.365 458.397 689.6 459.654C693.407 452.556 700.255 447.382 704 440.252C706.008 436.429 705.353 425.563 701.513 427.538C697.369 429.668 693.829 432.896 689.6 434.851C689.779 419.286 708.45 414.287 704.7 398.972C701.658 399.409 694.015 404.605 692.6 402.247C689.125 396.455 729.924 353.26 696.4 373.244C696.517 354.878 710.555 356.051 712.4 339.44C714 339.54 714 339.54 715.6 339.64ZM678.85 345.441C676.794 343.747 673.982 343.471 675.4 340.84C679.648 332.958 689.311 354.057 678.85 345.441ZM580.4 350.841C580.135 348.196 579.543 346.396 578.6 343.84C584.695 339.268 587.92 346.674 580.4 350.841ZM707.4 343.34C706.719 348.793 703.017 350.658 698 350.841C699.092 346.381 702.533 343.084 707.4 343.34ZM550.2 365.243C550.209 370.132 545.036 372.309 544.8 366.843C538.625 367.461 538.512 363.93 542.4 360.042C540.4 359.642 540.4 359.642 538.4 359.242C541.706 348.162 550.188 358.817 550.2 365.243ZM586.8 353.642C583.938 361.512 571.421 364.376 567.6 355.642C574.809 356.57 579.863 355.534 586.8 353.642ZM88 360.442C94.8123 365.237 97.9375 380.631 100.65 388.296C103.485 396.306 106.083 404.398 108.8 412.448C99.4209 405.585 90.1795 372.431 88 360.442ZM596 361.843C597.986 365.815 592.672 367.279 589.6 367.643C590.728 364.259 592.348 362.451 596 361.843ZM83 444.102C81.8296 420.224 80.8583 396.335 80 372.444C79.8735 368.924 80.75 366.943 83 364.443C92.0456 384.346 92.8312 409.055 93.2 430.451C93.3411 438.635 96.0452 454.762 84 454.053C83.6667 450.736 83.1632 447.432 83 444.102ZM65.2 364.843C58.8336 387.192 52.4905 409.591 47.8 432.351C47.2503 435.018 46.8894 447.032 43.6 452.053C40.1134 433.622 49.9281 377.767 65.2 364.843ZM66.4 391.246C67.2677 387.198 68.7564 371.91 74.8 369.643C74.7167 384.529 74.4021 399.414 74.55 414.299C74.6188 421.222 74.923 428.147 75.45 435.051C76.5365 449.286 82.8648 459.383 66.4 461.654C65.5231 436.865 61.2099 415.459 66.4 391.246ZM671.2 372.444C674.972 373.01 684.789 375.858 680.6 381.445C675.906 379.978 672.896 376.967 671.2 372.444ZM703.2 374.444C702.878 379.59 699.992 381.887 695.2 382.845C697.098 377.984 698.03 375.509 703.2 374.444ZM722.6 377.244C725.98 379.779 729.697 385.887 731.2 389.646C726.343 389.556 720.758 391.002 718 386.445C719.8 386.245 719.8 386.245 721.6 386.045C718.838 382.689 716.208 380.686 715.4 376.644C719.153 378.707 720.413 380.824 722.6 377.244ZM759.6 382.045C759.6 387.271 753.273 393.174 758.6 396.447C755.696 400.457 750.856 402.955 746.4 404.848C747.7 397.747 747.7 397.747 749 390.646C749.7 392.346 749.7 392.346 750.4 394.046C750.976 390.589 751.259 387.025 752.8 383.845C754.4 384.545 754.4 384.545 756 385.245C758.347 382.193 756.976 383.029 759.6 382.045ZM160.1 394.946C155.047 405.512 133.989 400.65 130 391.246C143.352 391.246 147.662 388.975 160.1 394.946ZM598.85 395.246C598.079 400.513 588.766 397.469 592 391.846C593.94 388.472 599.502 390.79 598.85 395.246ZM255.2 392.046C250.494 396.753 242.269 397.749 236.8 393.646C242.926 393.034 249.062 392.518 255.2 392.046ZM607.55 406.148C603.192 407.012 600.816 401.226 604 399.247C610.378 395.283 611.738 405.317 607.55 406.148ZM582.4 406.848C578.504 409.771 573.775 404.413 577.4 401.247C581.216 397.915 586.733 403.598 582.4 406.848ZM257.625 402.122C250.435 406.493 243.22 408.099 236 402.847C241.194 401.062 252.274 402.07 257.625 402.122ZM161.6 402.047C160.104 415.512 137.637 412.231 132.8 403.247C143.251 403.995 151.264 403.598 161.6 402.047ZM701.2 404.448C700.226 409.32 697.431 412.048 692.4 412.048C693.022 406.971 696.682 405.954 701.2 404.448ZM678.8 413.649C674.852 412.168 671.907 411.273 669.6 407.648C674.143 407.756 678.151 408.327 678.8 413.649ZM255.6 409.648C252.011 416.229 237.701 417.477 234.4 410.048C242.061 410.508 247.76 410.73 255.6 409.648ZM129.8 410.248C136.961 412.51 146.529 414.236 153.2 417.249C147.149 420.779 123.317 418.893 129.8 410.248ZM587.05 419.799C582.212 421.821 580.968 413.934 584.2 412.649C588.442 410.961 593.003 417.313 587.05 419.799ZM334.8 413.249C342.999 414.069 349.167 422.35 351.6 429.651C343.718 427.286 337.394 421.032 334.8 413.249ZM98.6875 418.287C103.866 423.663 108.123 447.345 97.6 450.853C97.3636 442.341 93.7021 426.367 98.6875 418.287ZM259.2 419.249C255.916 428.446 240.594 427.942 235.6 420.449C245.448 421.434 249.156 420.684 259.2 419.249ZM126 419.649C134.84 423.05 142.34 424.575 151.8 424.65C146.459 434.444 129.083 428.901 126 419.649ZM578.55 427.75C574.864 432.48 569.157 426.955 572.4 423.05C575.067 419.838 581.691 423.72 578.55 427.75ZM722.8 425.25C726.373 425.697 733.917 432.792 736.4 435.651C732.162 437.912 728.795 438.952 724 439.252C725.261 436.309 724.285 437.934 727.6 434.851C722.219 432.833 719.878 433.145 717.65 428.338C721.054 427.687 719.337 427.784 722.8 428.05C722.8 426.65 722.8 426.65 722.8 425.25ZM761.575 426.388C764.159 433.104 760.303 437.442 764.225 443.265C761.164 444.883 758.651 445.652 755.2 445.652C757.135 440.578 756.373 435.857 756 430.451C757.4 430.451 757.4 430.451 758.8 430.451C759.2 428.55 759.2 428.55 759.6 426.65C760.587 426.519 760.587 426.519 761.575 426.388ZM606.2 431.801C602.623 436.57 596.437 430.99 600.4 427.05C602.928 424.536 609.089 427.949 606.2 431.801ZM332.4 428.45C336.357 429.5 337.931 429.429 340.4 432.251C335.071 431.995 334.829 432.5 332.4 428.45ZM126 428.85C134.125 432.384 140.747 432.759 149.6 433.251C144.133 440.906 128.267 437.92 126 428.85ZM257.2 428.85C252.707 436.007 244.158 434.551 237.6 431.251C242.192 429.72 251.961 429.366 257.2 428.85ZM116 429.25C114.4 441.252 114.4 441.252 112.8 453.253C108.723 443.933 109.934 437.34 116 429.25ZM284 429.651C298.217 436.045 318.537 432.735 320.6 450.253C324.9 450.353 324.9 450.353 329.2 450.453C328.998 436.431 343.641 436.532 348.025 446.177C352.214 455.395 345.633 461.776 337.2 463.955C313.903 469.973 290.911 476.901 266.8 478.456C271.576 461.885 278.042 445.823 284 429.651ZM592.9 431.451C599.56 439.444 576.957 436.666 588.8 429.851C590.365 428.95 591.742 430.061 592.9 431.451ZM691.2 443.252C693.48 437.405 691.935 439.565 695 436.251C701.737 433.415 696.609 442.651 691.2 443.252ZM59.2 436.051C61.2811 450.205 64.3521 462.762 48.4 465.255C49.0168 456.464 52.0768 442.285 59.2 436.051ZM125.2 437.251C131.161 439.594 144.265 439.741 147.8 442.752C140.354 448.13 128.959 446.024 125.2 437.251ZM255.4 439.952C250.073 443.691 240.072 444.996 236.6 438.052C241.197 438.052 253.266 438.671 255.4 439.952ZM678.4 445.652C672.112 445.428 669.928 443.69 665.6 439.052C671.792 439.182 674.914 440.32 678.4 445.652ZM483 447.253C479.565 451.502 474.319 445.002 477.8 441.652C481.401 438.186 486.136 443.373 483 447.253ZM509.2 449.703C507.337 454.947 498.479 450.81 502.2 445.852C504.242 443.131 510.891 444.943 509.2 449.703ZM124.4 445.652C132.6 448.699 138.958 450.477 147.6 450.853C141.702 459.111 126.717 454.923 124.4 445.652ZM256.4 448.053C253.139 456.205 241.149 452.969 237.6 447.053C244.115 448.081 249.82 449.492 256.4 448.053ZM551.037 455.166C548.231 459.594 541.887 453.203 545.8 449.253C549.042 445.981 553.365 451.494 551.037 455.166ZM564.2 454.353C561.702 459.578 553.947 454.126 558 449.653C560.53 446.861 566.185 450.203 564.2 454.353ZM602.95 455.104C598.921 460.197 592.852 453.968 597 450.053C599.538 447.657 605.847 451.441 602.95 455.104ZM145.2 458.454C142.383 468.668 127.74 461.534 124.8 455.654C132.475 457.7 136.833 458.712 145.2 458.454ZM493.787 462.304C489.389 465.301 484.7 460.297 487.8 456.854C491.195 453.083 498.323 459.215 493.787 462.304ZM463 464.855C458.637 467.931 455.134 461.264 458.6 458.654C462.688 455.576 467.522 461.667 463 464.855ZM556.2 463.054C552.423 463.684 551.571 462.83 552.2 459.054C556.313 458.443 556.821 459.02 556.2 463.054ZM241.6 459.254C246.534 459.681 252.27 458.526 256.3 461.404C251.109 464.346 245.247 464.117 241.6 459.254ZM701.6 459.654C700.454 465.384 696.716 467.698 691 468.055C692.008 463.016 696.731 460.183 701.6 459.654ZM547.6 467.655C543.195 472.06 538.904 464.751 542.8 461.654C546.276 458.891 551.128 464.127 547.6 467.655ZM208.4 480.456C201.584 476.48 191.091 470.692 186.8 464.255C198.248 464.255 204 470.678 208.4 480.456ZM92.4 464.455C91.149 470.21 91.8428 467.549 90.4 472.456C93.7511 470.221 98.9231 465.211 103.2 466.055C96.5138 472.474 92.112 480.7 85.6 486.857C85.6 478.161 84.6024 469.854 92.4 464.455ZM445.8 473.781C444.046 472.35 443.981 468.329 445.587 467.455C455.852 461.869 451.635 478.539 445.8 473.781ZM118.4 467.655C125.043 469.316 128.3 477.107 124.8 482.857C121.6 475.256 121.6 475.256 118.4 467.655ZM555.65 467.755C566.14 472.085 543.537 480.805 551.2 468.455C551.751 467.568 554.351 467.219 555.65 467.755ZM243.2 479.656C238.221 475.984 233.017 472.574 228.4 468.455C236.332 467.926 242.447 471.368 243.2 479.656ZM679.6 474.456C674.457 474.456 672.167 474.524 670 469.855C675.245 469.226 677.639 469.38 679.6 474.456ZM212.4 469.655C221.031 470.806 226.982 475.695 228 484.857C222.345 479.753 217.286 475.293 212.4 469.655ZM467.2 477.056C465.23 475.265 465.366 472.039 467.4 471.055C477.395 466.22 472.687 482.045 467.2 477.056ZM734 470.055C738.705 470.609 741.662 471.012 745.2 474.256C742.588 477.436 737.613 478.837 734 480.456C734.296 477.347 733.876 478.981 735.6 475.656C731 475.456 731 475.456 726.4 475.256C729.195 472.86 731.233 473.093 735.2 472.456C734.6 471.255 734.6 471.255 734 470.055ZM134.8 470.455C141.368 470.455 144.393 476.825 145.6 482.457C141.39 479.088 138.223 474.592 134.8 470.455ZM168.8 484.057C163.203 479.873 157.269 476.065 152.2 471.255C160.081 471.719 166.93 475.954 168.8 484.057ZM192 480.857C185.867 477.925 179.402 475.507 173.8 471.655C182.806 471.353 188.941 471.679 192 480.857ZM77.2 471.255C74.7289 476.198 72.295 482.117 66.8 484.057C66.2861 477.247 70.6631 472.563 77.2 471.255ZM63 474.056C59.9925 477.44 57.4252 482.169 52.8 479.856C55.3173 475.541 58.1603 474.82 63 474.056ZM320.35 474.556C320.575 477.706 320.575 477.706 320.8 480.857C316.012 481.079 305.177 483.634 301.2 479.656C306.812 477.354 314.14 474.267 320.35 474.556ZM452.95 483.857C449.402 488.702 443.555 483.493 446.8 479.456C449.249 476.409 455.787 479.983 452.95 483.857ZM467.8 486.157C465.542 491.35 457.738 487.122 461 482.257C463.119 479.097 469.833 481.48 467.8 486.157ZM488 480.857C496.453 483.458 497.72 490.534 490.4 495.658C490.12 490.346 489.692 485.933 488 480.857ZM512.15 493.858C511.483 492.235 511.723 490.217 513.2 489.658C525.568 484.972 516.048 503.345 512.15 493.858ZM594.6 497.308C590.325 499.446 587.421 492.833 590.6 490.658C595.46 487.332 599.284 494.966 594.6 497.308ZM702.75 491.008C704.836 495.329 702.276 498.392 698 498.859C698 495.612 699.453 492.031 702.75 491.008ZM213.6 506.51C234.207 504.604 254.655 501.15 275.275 499.396C300.338 497.265 325.492 496.381 350.6 494.858C366.302 493.906 384.128 497.532 398.4 504.059C381.164 501.527 350.651 495.638 331.6 497.258C324.672 497.848 318.213 501.071 311.4 502.459C283.174 508.208 253.918 506.375 225.225 508.922C209.32 510.334 193.563 513.238 177.638 514.398C149.231 516.466 120.184 520.76 92.2 515.461C79.5206 513.06 67.2667 508.793 54.8 505.459C107.712 508.742 160.642 511.405 213.6 506.51ZM444.2 501.459C440.422 505.237 435.295 498.794 438.8 495.658C441.985 492.809 448.057 497.602 444.2 501.459ZM578.9 497.108C588.469 494.441 580.947 512.046 576.2 501.909C575.541 500.502 575.98 499.235 576.788 498.121C577.246 497.489 578.148 497.318 578.9 497.108ZM600.2 498.859C613.012 489.044 658.331 516.409 620.8 532.263C616.702 533.994 608.687 535.076 605.6 535.663C606.6 537.463 606.6 537.463 607.6 539.263C604.567 539.074 592 540.93 592 534.463C599.4 534.463 599.4 534.463 606.8 534.463C605.806 528.168 599.403 520.577 592.8 521.661C593.455 515.259 594.27 503.401 600.2 498.859ZM525 497.659C535.168 497.659 518.415 513.764 521.775 498.959C522.193 497.116 523.166 497.659 525 497.659ZM685.2 504.459C680.196 504.147 675.119 504.017 672.4 499.259C676.95 498.121 684.826 498.426 685.2 504.459ZM436.4 525.262C426.855 523.83 425.264 511.29 428.2 503.459C431.336 510.472 434.878 517.751 436.4 525.262ZM523.2 510.66C529.345 510.918 535.507 511.058 541.65 510.76C562.168 509.765 561.13 504.407 566 524.862C559.371 524.161 551.137 517.199 546.1 517.161C536.957 517.092 529.234 522.902 520.2 522.861C507.926 522.806 496.477 517.261 484 517.261C493.989 495.406 500.729 509.715 523.2 510.66ZM455 511.01C451.181 513.377 448.174 507.225 450.8 504.859C455.179 500.915 459.924 507.959 455 511.01ZM588.95 515.311C584.308 517.477 581.431 511.474 584.8 508.86C589.464 505.241 593.578 513.15 588.95 515.311ZM137.262 530.512C144.665 530.021 151.556 526.114 158.95 525.512C168.728 524.716 178.52 528.488 188.3 527.712C223.371 524.931 258.338 520.943 293.4 518.061C323.441 515.592 353.488 513.005 383.6 511.66C390.081 511.371 398.828 513.196 401.6 519.061C372.637 524.221 342.919 523.377 313.6 525.812C259.896 530.271 209.269 537.775 155.9 536.713C135.071 536.299 114.211 537.43 93.4 536.463C82.8264 535.972 78.5236 531.993 70 526.862C92.2311 530.016 114.858 531.998 137.262 530.512ZM711.2 514.861C710.772 518.714 709.826 520.866 706 522.061C706.647 517.92 707.584 516.927 711.2 514.861ZM694.8 529.262C690.17 530.155 687.38 531.501 683.825 528.2C686.365 525.308 692.61 526.351 694.8 529.262ZM148.887 549.027C177.758 547.6 206.748 549.822 235.6 548.064C282.11 545.231 328.3 538.254 374.8 535.263C406.077 533.251 437.461 533.524 468.8 533.063C498.014 532.633 527.615 531.056 556.4 536.063C520.184 539.507 483.63 536.784 447.287 538.413C405.339 540.294 363.582 546.002 321.6 546.864C321.8 546.064 321.8 546.064 322 545.264C255.064 545.264 188.397 553.751 121.6 558.066C121.8 555.765 121.8 555.765 122 553.465C131.081 553.249 139.815 549.476 148.887 549.027ZM571.6 536.863C568.238 536.739 563.821 537.254 560.8 535.463C564.653 534.66 569.01 533.02 571.6 536.863ZM632.4 555.265C670.717 553.566 708.413 544.955 746.4 539.663C743.2 542.797 741.134 547.934 736.8 549.065C719.175 553.66 700.802 554.946 682.637 556.29C628.227 560.317 573.75 564.156 519.2 565.166C480.57 565.882 441.983 560.966 403.35 561.466C386.795 561.68 370.544 566.198 354.025 567.304C292.334 571.434 230.576 574.596 168.8 577.168C132.531 578.678 96.2475 573.346 60.2 569.067C61.8667 568.534 63.4542 567.346 65.2 567.467C80.8286 568.544 96.2551 572.122 111.912 572.63C120.027 572.893 127.985 570.026 136.1 569.767C142.284 569.57 148.428 571.698 154.6 571.267C196.775 568.325 238.757 563.032 280.9 559.666C288.597 559.051 296.371 558.648 304.062 559.328C307.617 559.643 310.691 562.874 314.25 562.616C320.085 562.194 325.161 557.742 331 557.378C339.101 556.874 347.094 560.469 355.2 560.066C364.134 559.622 372.628 555.784 381.525 554.865C395.29 553.444 409.162 552.946 423 553.065C462.535 553.406 502.904 559.773 541.6 551.665C541.6 552.865 541.6 552.865 541.6 554.065C571.867 554.465 602.16 556.607 632.4 555.265ZM113.874 556.291C99.8419 562.9 74.6755 559.003 61.6 552.465C77.7159 552.845 97.6753 550.552 113.874 556.291ZM657.5 572.53C670.414 572.078 683.543 573.81 696.25 571.467C715.677 567.886 733.149 562.829 753.2 562.866C763.584 562.886 778.464 562.729 779.2 574.868C710 575.268 710 575.268 640.8 575.668C642.479 574.312 655.027 572.616 657.5 572.53Z" fill="#000000" fill-rule="nonzero" opacity="1" stroke="none"/>
</g>
</svg>
