<?xml version="1.0" encoding="UTF-8" standalone="no"?>
<!DOCTYPE svg PUBLIC "-//W3C//DTD SVG 1.1//EN" "http://www.w3.org/Graphics/SVG/1.1/DTD/svg11.dtd">
<!-- Created with Vectornator (http://vectornator.io/) -->
<svg height="100%" stroke-miterlimit="10" style="fill-rule:nonzero;clip-rule:evenodd;stroke-linecap:round;stroke-linejoin:round;" version="1.1" viewBox="0 0 800 600" width="100%" xml:space="preserve" xmlns="http://www.w3.org/2000/svg" xmlns:xlink="http://www.w3.org/1999/xlink">
<defs/>
<clipPath id="ArtboardFrame">
<rect height="600" width="800" x="0" y="0"/>
</clipPath>
<g clip-path="url(#ArtboardFrame)" id="Layer-1">
<path d="M0.400017 600.425C133.739 600.425 667.095 600.425 800.434 600.425C800.434 500.421 800.434 100.404 800.434 0.400017C667.095 0.400017 133.739 0.400017 0.400017 0.400017C0.400017 100.404 0.400017 500.421 0.400017 600.425ZM383.616 20.0008C385.216 35.0015 385.216 35.0015 386.816 50.0021C369.316 46.302 369.316 46.302 351.815 42.6018C358.715 48.102 358.715 48.102 365.615 53.6023C355.815 52.0022 355.815 52.0022 346.015 50.4021C347.915 55.5609 354.057 58.048 358.815 60.8026C352.526 60.4029 345.017 58.9695 340.014 62.8027C348.915 66.5028 348.915 66.5028 357.815 70.203C342.548 80.9368 326.476 90.6095 312.013 102.404C307.088 106.421 302.784 111.525 300.088 117.28C296.492 124.955 306.821 126.518 309.313 129.905C319.183 143.322 311.778 148.598 332.814 146.006C330.881 159.057 327.717 171.984 327.014 185.158C325.847 207.032 337.931 240.19 310.395 251.793C297.712 257.137 284.273 260.472 271.211 264.811C271.183 264.094 272.374 252.403 267.811 251.511C250.969 248.215 230.264 253.15 217.209 242.01C201.454 228.566 202.964 198.899 224.71 192.508C237.16 188.849 255.025 193.477 262.411 182.808C260.011 181.408 260.011 181.408 257.611 180.008C260.078 179.274 263.369 179.789 265.011 177.808C267.64 174.636 266.759 169.535 269.099 166.145C271.522 162.633 276.631 161.474 278.812 157.807C280.25 155.388 279.344 152.17 279.074 149.369C277.392 131.926 275.554 114.485 272.962 97.1541C271.903 90.0737 267.486 81.1242 262.211 76.4032C255.009 69.9571 239.673 61.6048 229.61 60.8026C218.716 59.9342 207.497 59.7575 196.858 62.2526C187.975 64.3359 178.508 67.6067 172.257 74.2531C162.262 84.8813 160.643 101.923 150.082 111.99C145.618 116.246 137.55 111.36 131.606 113.005C128.454 113.877 125.421 116.258 124.005 119.205C121.931 123.523 121.728 128.616 121.805 133.406C122.117 152.801 135.775 147.245 150.269 145.681C150.448 149.723 152.44 154.105 150.806 157.807C148.149 163.828 143.433 169.008 138.206 173.007C116.547 189.577 89.3456 199.765 71.528 220.409C61.1563 232.426 50.7532 244.79 43.5018 258.911C33.826 277.753 28.6345 298.579 21.2009 318.413C21.6009 169.207 21.6009 169.207 22.0009 20.0008C142.536 19.1274 263.078 19.9287 383.616 20.0008ZM720.43 20.0008C712.43 20.6009 712.43 20.6009 704.43 21.2009C712.615 29.7575 723.077 24.1417 730.831 32.8014C712.03 32.8014 712.03 32.8014 693.229 32.8014C696.029 44.8019 696.029 44.8019 698.83 56.8024C700.988 55.8607 703.64 55.6425 705.305 53.9773C706.939 52.3431 705.793 48.1815 708.03 47.602C714.102 46.0293 720.564 48.1354 726.831 48.402C720.664 46.9356 712.623 46.5558 709.23 41.2017C717.307 41.2724 732.498 37.2749 730.531 51.1147C723.568 52.5022 715.983 52.0829 709.643 55.2773C706.97 56.6236 708.335 61.6162 705.992 63.4777C702.557 66.208 697.75 66.4945 693.629 68.0029C698.83 71.603 698.83 71.603 704.03 75.2032C698.43 84.0036 698.43 84.0036 692.829 92.8039C696.379 93.0706 700.796 91.2645 703.48 93.604C706.928 96.6102 706.78 102.138 708.43 106.405C712.415 101.809 714.745 95.8483 716.43 90.0038C720.23 91.0039 720.23 91.0039 724.031 92.0039C723.125 86.7057 719.532 82.0808 716.03 78.0033C720.13 74.6032 720.13 74.6032 724.231 71.203C726.131 87.2037 726.131 87.2037 728.031 103.204C737.465 102.454 746.9 100.183 756.332 100.954C761.898 101.41 766.799 104.854 772.033 106.805C775.233 84.2036 775.233 84.2036 778.433 61.6026C759.832 60.6026 759.832 60.6026 741.231 59.6025C742.656 57.9441 743.325 54.7704 745.507 54.6273C752.294 54.1822 758.924 56.8774 765.632 58.0025C761.439 51.466 750.984 52.051 743.231 51.6022C743.431 48.6021 743.431 48.6021 743.631 45.6019C750.672 49.1222 759.422 47.3783 767.232 46.402C769.433 51.2022 769.433 51.2022 771.633 56.0024C776.124 52.4279 778.499 46.606 780.433 41.2017C780.433 82.0035 780.433 82.0035 780.433 122.805C776.858 119.443 774.283 114.494 769.708 112.717C764.528 110.706 758.333 113.886 753.048 112.173C748.9 110.828 746.237 106.727 742.831 104.004C733.831 119.405 733.831 119.405 724.831 134.806C730.623 133.188 737.188 131.529 742.831 133.606C734.331 141.406 734.331 141.406 725.831 149.206C718.703 138.05 725.808 122.493 728.831 109.605C711.63 111.605 711.63 111.605 694.429 113.605C698.03 153.607 698.03 153.607 701.63 193.608C707.597 189.102 710.935 181.524 713.23 174.407C716.43 178.008 716.43 178.008 719.63 181.608C723.631 172.007 723.631 172.007 727.631 162.407C730.673 167.117 729.486 173.701 728.431 179.208C733.631 180.324 739.644 179.551 744.031 182.558C747.586 184.993 748.032 190.191 750.032 194.008C752.749 192.508 755.921 191.634 758.182 189.508C760.786 187.06 761.105 182.387 764.232 180.658C769.064 177.986 775.033 178.358 780.433 177.208C780.18 218.136 781.125 259.09 779.673 299.994C779.257 311.742 783.104 326.57 774.837 334.928C762.778 347.119 743.274 348.551 726.831 353.415C700.719 361.139 674.128 367.268 647.427 372.616C627.81 376.545 607.905 378.965 588.025 381.216C580.203 382.102 572.285 382.423 564.424 382.016C556.432 381.603 553.396 375.877 552.073 367.999C550.555 358.965 551.348 349.692 550.985 340.538C582.106 334.476 582.106 334.476 613.226 328.414C610.292 334.281 605.665 339.573 604.426 346.015C603.402 351.332 612.947 352.28 615.026 350.615C620.326 346.369 623.993 340.414 628.477 335.314C630.452 336.264 630.452 336.264 632.427 337.214C632.057 329.857 629.856 325.753 639.527 321.964C660.988 313.555 683.739 308.764 705.28 300.563C711.8 298.08 718.185 292.477 720.08 285.762C717.064 284.379 714.342 281.393 711.03 281.612C700.445 282.313 690.549 288.42 679.941 288.42C675.251 288.42 671.732 283.881 667.628 281.612C677.013 268.919 683.394 266.006 683.629 251.611C683.854 237.823 673.598 224.767 663.628 216.409C653.93 208.28 644.198 200.049 633.427 193.408C616.645 183.062 599.205 173.693 581.225 165.607C541.477 147.732 500.688 132.272 460.419 115.605C469.62 112.405 469.62 112.405 478.82 109.205C472.22 109.005 472.22 109.005 465.62 108.805C472.02 102.004 472.02 102.004 478.42 95.204C471.82 97.0041 471.82 97.0041 465.22 98.8042C469.32 94.904 469.32 94.904 473.42 91.0039C467.882 89.4854 462.144 93.4545 456.819 95.604C462.145 90.6538 462.145 90.6538 467.47 85.7036C460.745 86.4537 460.745 86.4537 454.019 87.2037C457.438 83.3723 457.438 83.3723 460.857 79.5409C457.521 77.0433 452.407 79.5932 448.419 80.8034C451.4 76.8283 451.4 76.8283 454.382 72.8531C446.6 75.2282 446.6 75.2282 438.819 77.6033C443.619 73.0031 443.619 73.0031 448.419 68.4029C443.587 65.221 436.933 70.1902 431.443 72.0155C438.552 64.2111 446.909 57.3831 452.769 48.6021C458.436 40.1101 461.336 30.0679 465.62 20.8009C439.019 36.4015 439.019 36.4015 412.417 52.0022C407.417 36.7016 407.417 36.7016 402.417 21.4009C561.424 20.7009 561.424 20.7009 720.43 20.0008ZM780.833 32.0014C762.432 32.8014 762.432 32.8014 744.031 33.6014C748.549 25.2109 762.583 27.1122 770.033 26.4011C767.432 23.401 767.432 23.401 764.832 20.4009C778.206 19.8865 780.102 18.4359 780.833 32.0014ZM765.232 43.6018C754.632 43.2018 754.632 43.2018 744.031 42.8018C747.243 37.1825 764.515 35.7072 765.232 43.6018ZM732.031 61.6026C727.631 61.6026 727.631 61.6026 723.231 61.6026C724.431 65.0028 724.431 65.0028 725.631 68.4029C719.036 66.0677 716.163 64.8766 712.03 59.4525C719.267 53.6074 728.977 53.4583 732.031 61.6026ZM762.832 67.6029C761.06 74.1276 741.572 74.4274 738.431 69.0029C742.9 66.4491 760.148 67.6382 762.832 67.6029ZM390.017 74.4031C400.224 80.5154 406.672 84.8064 418.418 82.0035C413.538 93.7147 390.017 86.6953 390.017 74.4031ZM762.032 78.0033C760.443 86.3194 743.763 83.8059 738.031 84.0036C738.231 81.7035 738.231 81.7035 738.431 79.4034C746.291 78.7199 754.134 78.0033 762.032 78.0033ZM762.032 93.604C756.74 93.5748 751.448 93.6114 746.157 93.5165C742.631 93.4532 739.533 93.6434 738.281 90.0538C745.123 89.3134 761.188 83.4788 762.032 93.604ZM368.016 92.4039C368.016 97.2041 368.016 97.2041 368.016 102.004C363.614 100.831 360.967 99.8098 358.365 95.9666C360.835 92.998 364.298 93.0923 368.016 92.4039ZM382.016 92.8039C385.605 94.5763 389.421 96.1494 392.417 98.8042C387.416 100.804 387.416 100.804 382.416 102.804C382.216 97.8041 382.216 97.8041 382.016 92.8039ZM224.159 100.854C237.82 98.0563 248.598 97.2421 257.611 109.605C243.595 104.658 233.606 102.639 218.809 103.604C220.373 99.9561 218.812 101.95 224.159 100.854ZM426.818 106.805C423.677 116.228 412.418 125.144 403.617 129.205C415.218 118.005 415.218 118.005 426.818 106.805ZM186.208 109.605C184.565 113.575 181.405 116.736 180.595 121.055C179.242 128.271 186.006 138.079 179.208 143.906C175.233 147.313 172.129 140.231 171.907 137.356C171.223 128.495 170.955 118.513 177.408 111.605C181.367 109.118 183.271 109.237 186.208 109.605ZM230.81 129.605C222.372 127.86 217.863 125.967 213.209 118.405C225.312 112.354 231.098 116.758 230.81 129.605ZM344.415 115.605C344.115 119.405 344.115 119.405 343.815 123.205C341.42 120.512 340.303 117.432 344.415 115.605ZM247.21 116.405C259.842 121.263 258.207 128.688 245.61 130.406C248.196 125.665 247.21 121.74 247.21 116.405ZM714.03 120.805C714.03 128.548 714.534 133.46 709.23 139.206C707.469 130.105 706.822 126.812 714.03 120.805ZM762.632 121.605C756.676 130.696 751.705 130.456 745.232 122.805C750.809 121.638 756.947 121.234 762.632 121.605ZM780.433 125.605C780.433 132.206 780.433 132.206 780.433 138.806C774.346 137.976 768.973 136.593 763.232 134.406C767.17 129.68 774.234 125.605 780.433 125.605ZM756.57 143.769C746.257 148.518 741.567 155.195 728.981 155.144C727.62 146.378 750.449 136.306 756.57 143.769ZM340.014 180.408C342.594 167.456 346.556 154.731 348.015 141.606C358.015 142.806 358.015 142.806 368.016 144.006C366.96 151.999 365.995 155.426 366.716 163.207C367.251 168.986 378.498 170.857 381.129 165.845C383.502 161.322 381.788 154.349 381.216 149.806C400.113 174.478 382.806 189.381 367.766 212.259C362.972 219.551 360.89 228.746 354.815 235.01C351.716 238.205 346.281 237.543 342.014 238.81C339.969 218.88 336.095 200.092 340.014 180.408ZM780.033 143.206C780.233 155.807 780.233 155.807 780.433 168.407C774.164 168.091 761.088 172.788 760.432 163.607C766.573 163.168 772.791 163.189 778.833 162.007C775.098 151.426 762.897 157.168 758.432 146.006C769.089 150.878 772.396 152.45 780.033 143.206ZM457.619 178.058C490.616 202.21 531.714 216.377 560.424 245.61C526.198 226.538 492.207 206.973 459.169 185.908C444.377 176.476 428.034 165.722 418.818 150.406C434.126 154.637 444.804 168.677 457.619 178.058ZM709.23 150.406C719.076 153.302 719.472 163.169 709.23 165.607C709.23 158.007 709.23 158.007 709.23 150.406ZM747.632 162.407C747.004 174.958 740.057 173.177 736.431 163.207C740.159 162.768 743.874 162.407 747.632 162.407ZM174.807 172.007C177.679 172.598 210.787 180.46 195.208 190.008C193.997 177.891 180.854 180.472 174.807 172.007ZM411.617 204.009C411.978 207.253 411.99 206.209 411.267 211.159C406.378 244.63 410.771 240.963 379.216 243.61C384.185 224.282 394.345 213.309 411.617 204.009ZM475.52 228.31C483.459 232.118 491.161 236.407 498.871 240.66C502.132 242.459 505.55 244.088 508.422 246.46C511.117 248.688 496.142 263.937 491.021 264.811C489.242 265.115 484.908 263.966 483.27 263.361C463.735 256.148 443.724 245.809 422.418 246.01C424.583 235.495 427.35 221.63 436.618 215.009C454.473 218.695 465.122 223.322 475.52 228.31ZM622.026 218.809C627.639 215.411 659.526 242.928 659.028 245.81C658.81 247.074 657.929 248.137 657.228 249.211C653.575 254.809 649.636 260.217 645.977 265.811C642.485 271.152 639.284 276.68 635.777 282.012C631.749 288.136 623.435 292.522 619.376 282.674C612.365 265.662 620.865 243.371 622.026 225.81C622.18 223.481 620.03 220.018 622.026 218.809ZM586.175 249.811C592.952 242.919 599.95 235.898 607.626 230.01C607.408 239.158 608.025 264.812 597.125 270.261C592.057 263.609 578.744 257.368 586.175 249.811ZM527.522 262.211C527.975 271.259 525.378 282.656 518.822 289.212C513.022 280.612 513.022 280.612 507.221 272.012C513.216 268.708 520.532 263.128 527.522 262.211ZM588.05 280.662C585.136 285.89 580.184 289.768 577.124 294.912C572.792 302.199 569.859 311.387 564.999 318.238C556.824 329.761 535.372 312.711 533.367 302.509C530.295 286.885 555.48 268.151 566.424 262.611C574.058 258.746 591.19 275.028 588.05 280.662ZM120.405 268.011C122.397 269.207 125.584 281.957 126.805 284.212C133.303 296.205 145.313 303.119 154.407 312.813C130.091 304.201 119.557 294.312 120.405 268.011ZM323.114 281.262C328.377 277.514 331.843 271.959 337.214 268.411C331.952 283.445 320.58 288.915 305.613 290.812C310.432 285.623 317.465 285.285 323.114 281.262ZM71.128 307.388C66.9652 297.537 61.3901 281.029 68.4029 271.211C73.2889 294.029 81.3872 313.509 99.8042 329.014C113.259 340.342 131.316 344.702 144.006 356.815C114.578 349.411 83.7794 337.325 71.128 307.388ZM192.333 317.401C185.992 315.193 174.102 316.364 173.737 309.659C173.515 305.577 173.96 301.476 174.407 297.413C174.444 297.082 176.067 275.995 181.708 279.137C196.975 287.641 200.627 292.433 215.409 296.413C232.938 301.132 252.747 300.271 270.411 300.813C270.782 281.74 270.739 284.333 289.612 287.612C280.945 298.821 272.508 310.211 263.611 321.239C260.021 325.688 256.687 330.513 252.171 334.018C248.43 336.921 235.767 326.332 229.41 326.214C216.699 325.978 214.651 328.907 200.808 334.414C200.121 326.45 200.958 320.405 192.333 317.401ZM652.828 286.412C657.103 289.648 661.692 292.566 665.428 296.413C658.863 300.326 650.778 302.342 643.627 304.813C648.227 295.613 648.227 295.613 652.828 286.412ZM629.227 310.013C616.71 313.578 603.586 315.889 590.825 318.413C605.295 299.941 610.675 289.401 629.227 310.013ZM590.025 302.013C588.211 309.269 587.959 317.44 579.225 317.613C584.625 309.813 584.625 309.813 590.025 302.013ZM372.891 328.876C372.285 321.328 368.215 312.464 372.416 306.163C377.445 298.62 395.139 302.283 397.217 310.813C373.348 314.05 377.367 311.255 377.216 336.414C373.052 335.926 373.206 332.807 372.891 328.876ZM577.624 307.613C577.624 314.556 575.626 317.912 568.824 318.813C570.028 315.603 574.331 307.891 577.624 307.613ZM509.622 325.214C486.805 326.4 471.111 327.757 449.319 327.364C442.837 327.247 436.361 326.853 429.893 326.401C429.386 326.366 411.05 323.029 421.005 319.801C425.364 318.388 429.766 317.096 434.218 316.013C436.681 315.414 439.193 314.975 441.719 314.763C448.738 314.174 455.786 313.997 462.82 313.613C480.141 315.766 504.814 310.79 509.622 325.214ZM355.615 345.815C330.769 344.517 353.612 316.724 363.215 328.614C360.256 332.436 347.094 332.142 351.615 339.014C353.745 342.252 359.321 342.552 362.415 345.215C358.602 345.933 359.434 346.014 355.615 345.815ZM320.814 331.214C310.982 330.377 300.478 328.801 290.512 329.964C283.944 330.73 278.375 335.137 272.012 334.614C281.87 323.347 309.375 324.282 320.814 331.214ZM390.217 343.015C390.481 342.454 391.388 342.569 392.004 342.502C404.854 341.103 417.89 340.082 430.818 339.914C447.184 339.702 463.554 339.719 479.92 339.914C494.584 340.09 516.071 338.036 528.99 348.231C530.966 349.79 533.475 353.962 533.941 356.421C538.371 379.818 544.245 387.148 521.622 388.416C521.172 382.516 520.54 376.627 520.272 370.716C519.917 362.882 521.486 353.959 518.622 353.615C510.807 352.677 502.892 352.742 495.021 352.815C473.28 353.017 451.54 353.572 429.816 354.441C423.477 354.695 415.25 356.33 409.767 359.865C394.075 369.984 408.968 394.017 388.016 395.217C387.938 383.802 384.236 355.714 390.217 343.015ZM313.551 351.415C317.805 350.406 320.099 343.773 329.014 342.064C319.133 353.757 287.521 366.798 277.212 349.615C290.392 350.813 299.649 354.713 313.551 351.415ZM374.816 352.415C375.161 363.544 374.956 374.688 374.616 385.816C374.6 386.34 374.216 386.883 373.753 387.129C372.705 387.685 371.519 386.959 371.141 385.991C368.087 378.174 369.433 361.438 373.616 353.615C373.883 353.116 374.798 351.849 374.816 352.415ZM198.208 366.065C201.877 364.307 199.956 355.731 203.684 356.153C223.012 358.34 230.168 360.413 248.536 353.602C255.587 407.111 262.874 434.452 290.012 479.62C277.997 489.32 267.811 479.212 255.111 482.82C247.329 485.031 240.346 489.979 232.36 491.271C229.448 491.742 226.7 489.402 224.209 487.821C195.401 469.524 172.685 448.463 171.807 413.217C171.675 407.906 171.724 402.582 172.07 397.279C172.518 390.395 180.986 393.558 182.108 387.716C183.494 380.498 182.514 374.562 182.008 367.216C183.622 367.181 193.954 368.104 198.208 366.065ZM772.033 357.215C771.052 362.974 769.296 369.892 765.232 374.178C752.853 366.905 760.116 358.437 772.033 357.215ZM741.631 364.015C741.631 370.309 740.582 375.005 738.031 380.816C733.762 377.187 731.038 371.863 728.031 367.216C736.675 364.985 732.145 366.066 741.631 364.015ZM715.03 376.816C714.272 379.395 714.281 379.633 712.63 382.816C704.948 397.625 697.597 378.955 704.83 377.016C712.904 376.366 710.754 376.281 715.03 376.816ZM21.2009 377.216C30.089 379.39 28.385 394.211 30.0013 403.217C39.263 454.825 33.9372 496.33 20.8009 546.023C21.0009 461.62 21.0009 461.62 21.2009 377.216ZM156.607 388.416C157.438 388.502 158.073 389.216 158.807 389.616C131.68 398.474 78.0229 388.299 52.2022 378.616C87.0037 381.883 121.837 384.829 156.607 388.416ZM752.032 379.216C753.004 377.807 764.401 387.346 764.432 390.617C764.551 402.88 746.366 396.584 749.632 385.616C750.282 383.433 750.738 381.092 752.032 379.216ZM683.229 385.216C681.429 392.417 681.429 392.417 679.629 399.617C669.925 394.324 668.894 383.855 683.229 385.216ZM730.918 390.092C732.444 395 728.519 403.156 727.231 407.217C719.942 399.782 715.911 398.424 721.431 389.616C725.498 385.02 729.691 386.143 730.918 390.092ZM740.481 441.619C764.325 432.446 771.66 407.546 780.033 386.016C779.833 481.82 779.833 481.82 779.633 577.624C753.032 577.824 753.032 577.824 726.431 578.024C751.59 568.396 765.547 555.514 769.62 527.547C771.386 515.426 775.24 494.928 767.632 483.82C753.878 463.739 728.524 458.757 706.83 453.219C718.047 449.352 729.408 445.879 740.481 441.619ZM662.428 388.016C657.708 399.292 649.018 403.44 642.577 391.417C649.251 389.942 655.626 388.551 662.428 388.016ZM700.03 411.417C694.57 417.439 686.96 402.837 693.629 395.817C701.75 387.268 705.579 405.297 700.03 411.417ZM618.826 397.217C615.112 411.217 609.888 410.936 606.426 398.817C614.286 397.694 610.152 398.237 618.826 397.217ZM376.016 409.617C368.856 414.152 351.41 405.976 363.215 399.017C367.248 396.64 386.091 403.237 376.016 409.617ZM553.223 436.868C551.659 406.666 556.274 400.044 587.887 399.417C589.599 399.383 593.958 409.452 595.025 410.817C605.27 423.915 617.694 433.821 628.827 446.019C613.14 449.047 597.025 450.76 581.975 456.119C572.376 459.537 564.96 466.564 555.624 470.42C554.823 459.236 553.803 448.066 553.223 436.868ZM638.955 411.665C638.12 415.703 633.423 427.779 628.577 424.618C627.785 424.101 621.733 420.674 621.826 418.018C622.008 412.883 627.991 408.453 629.427 403.217C631.679 395.005 640.088 406.187 638.955 411.665ZM741.631 402.017C753.609 410.928 754.155 410.486 747.232 423.618C736.74 416.623 737.399 413.737 741.631 402.017ZM391.117 428.268C390.743 422.49 387.056 407.98 397.938 410.669C406.004 412.662 403.812 443.899 408.217 444.419C444.386 448.686 481.065 443.141 517.422 441.019C518.778 440.939 521.2 439.607 521.435 437.906C522.596 429.473 523.057 420.954 524.197 412.517C525.494 402.927 530.906 403.548 539.223 403.217C538.921 413.439 541.338 426.842 536.063 437.002C530.759 447.218 514.659 450.3 505.096 452.057C468.942 458.698 430.288 455.267 393.617 455.219C392.783 446.236 391.698 437.272 391.117 428.268ZM668.028 410.817C676.949 419.738 676.844 422.264 669.228 432.418C661.416 424.418 663.821 420.916 668.028 410.817ZM716.43 434.018C710.672 428.26 707.432 422.821 712.43 415.618C726.425 419.437 723.468 426.153 716.43 434.018ZM650.628 419.218C658.663 430.105 657.209 426.068 651.628 440.819C643.929 434.724 639.923 426.354 650.628 419.218ZM687.629 423.618C692.432 423.296 698.776 427.426 699.23 432.218C699.986 440.214 681.159 442.182 685.229 429.618C685.893 427.569 685.48 423.762 687.629 423.618ZM375.216 428.018C376.845 435.422 383.067 468.42 371.616 468.42C371.616 454.915 371.977 441.205 375.216 428.018ZM173.607 445.219C178.329 450.727 181.111 461.194 183.208 466.42C175.178 460.174 173.241 455.097 173.607 445.219ZM65.0028 550.823C65.0993 545.029 68.8398 534.204 70.003 530.972C80.0419 503.082 95.7503 477.901 100.804 448.419C104.639 451.934 104.09 450.799 106.204 458.019C113.755 483.799 121.293 510.748 125.055 537.473C126.964 551.031 126.775 565.212 131.606 578.024C114.805 578.024 114.805 578.024 98.0041 578.024C99.2655 561.374 64.7071 568.56 65.0028 550.823ZM173.807 465.02C178.778 468.079 181.583 474.455 182.408 480.02C174.632 477.688 171.641 472.82 173.807 465.02ZM718.03 476.27C719.895 476.966 721.74 477.77 723.431 478.82C764.554 504.361 714.073 515.136 694.029 516.622C662.135 518.986 628.896 517.186 598.625 506.221C597.004 505.634 595.512 504.696 594.125 503.671C563.055 480.718 600.928 468.481 620.426 466.22C652.846 462.46 687.087 464.723 718.03 476.27ZM522.872 468.22C506.089 474.166 490.262 473.053 472.007 473.245C445.212 473.526 418.414 473.495 391.617 473.62C391.917 471.42 391.917 471.42 392.217 469.22C436.187 468.117 478.976 468.023 522.872 468.22ZM499.757 564.696C512.755 552.166 508.648 529.684 512.19 511.982C515.593 494.971 529.533 486.75 542.498 477.42C543.873 481.887 543.734 487.147 546.623 490.821C548.121 492.725 551.423 491.487 553.823 491.821C554.823 507.088 554.783 522.459 556.824 537.623C560.053 561.62 584.806 569.092 603.226 578.024C480.887 578.091 358.547 578.889 236.21 578.224C231.371 578.198 229.279 570.461 229.61 566.824C237.142 566.428 244.591 568.668 252.011 570.024C244.01 564.524 244.01 564.524 236.01 559.024C259.971 547.808 268.319 565.162 290.162 571.637C306.814 576.573 338.311 576.074 343.575 553.887C346.703 540.7 347.335 527.044 349.215 513.622C360.199 514.668 371.148 516.18 382.166 516.759C396.689 517.523 411.264 516.87 425.786 517.648C434.501 518.116 449.55 521.247 452.107 531.985C455.067 544.416 456.11 557.227 458.111 569.848C468.844 569.749 489.204 574.869 499.757 564.696ZM172.207 485.821C180.539 491.799 188.804 497.87 197.008 504.021C203.267 508.714 219.347 520.818 215.153 531.328C214.543 532.859 209.191 546.304 204.746 548.723C193.43 554.882 174.909 556.825 166.807 544.673C157.95 531.388 164.175 507.051 168.007 493.421C168.958 490.037 168.474 483.142 172.207 485.821ZM253.348 530.336C248.84 521.901 268.424 508.329 272.812 504.821C279.849 499.195 286.188 488.826 295.162 489.621C300.322 512.136 291.614 539.36 288.212 561.624C280.628 558.391 273.866 553.491 266.811 549.223C271.536 545.34 277.45 543.053 281.612 538.623C274.273 536.421 257.933 538.918 253.348 530.336ZM255.611 498.421C255.611 496.056 255.411 494.365 256.811 492.421C262.59 496.49 259.679 497.993 255.611 498.421ZM592.825 520.822C600.945 522.001 609.792 522.569 617.626 525.222C612.381 532.215 597.559 525.556 592.825 520.822ZM677.229 527.422C675.789 538.402 650.703 534.81 645.227 528.422C655.806 527.351 666.601 527.297 677.229 527.422ZM732.831 532.423C720.694 532.423 709.176 536.741 697.03 531.572C703.569 526.37 727.782 524.969 732.831 532.423ZM248.01 541.223C241.653 544.72 231.129 552.697 223.034 548.961C214.528 545.035 231.262 529.843 235.01 528.222C241.658 531 244.931 537.102 248.01 541.223ZM617.226 538.823C610.463 538.591 595.156 539.42 589.825 533.023C595.039 528.967 615.69 532.165 617.226 538.823ZM674.029 542.423C663.276 543.218 655.353 544.802 645.627 540.823C653.485 537.767 667.812 535.861 674.029 542.423ZM731.631 540.423C724.925 547.129 710.98 544.598 703.43 540.823C712.51 537.732 722.422 538.831 731.631 540.423ZM612.826 549.623C605.694 549.477 591.858 551.07 586.825 544.023C595.061 541.552 607.604 541.791 612.826 549.623ZM671.428 551.823C667.269 552.557 644.027 556.875 644.027 548.823C655.398 548.503 659.477 547.764 671.428 551.823ZM729.631 550.623C722.833 555.033 706.542 553.368 700.23 549.423C707.838 544.351 721.64 548.472 729.631 550.623ZM611.226 559.624C605.337 559.97 588.617 560.281 586.275 552.473C593.954 550.124 604.551 555.759 611.226 559.624ZM674.029 562.024C663.869 564.674 653.179 564.548 643.627 560.024C653.276 557.055 665.075 556.055 674.029 562.024ZM729.231 562.824C719.374 566.109 709.266 566.86 700.63 559.824C708.249 556.014 723.108 555.68 729.231 562.824ZM199.208 560.824C204.909 562.039 209.541 561.975 213.709 565.924C217.884 569.88 221.909 573.991 226.01 578.024C205.009 577.724 205.009 577.724 184.008 577.424C193.877 571.873 200.76 573.235 199.208 560.824Z" fill="#000000" fill-rule="nonzero" opacity="1" stroke="none"/>
</g>
</svg>
