<?xml version="1.0" encoding="UTF-8" standalone="no"?>
<svg height="100%" stroke-miterlimit="10" style="fill-rule:nonzero;clip-rule:evenodd;stroke-linecap:round;stroke-linejoin:round;" version="1.1" viewBox="0 0 1920 1080" width="100%" xml:space="preserve" xmlns="http://www.w3.org/2000/svg" xmlns:xlink="http://www.w3.org/1999/xlink">
<g id="Layer-1">
<g opacity="1">
<path d="M-1.65584 0L78.655 0L78.655 1080L-1.65584 1080L-1.65584 0Z" fill="#65c069" fill-rule="nonzero" opacity="1" stroke="none"/>
<path d="M77.9217 0L158.233 0L158.233 1080L77.9217 1080L77.9217 0Z" fill="#76c068" fill-rule="nonzero" opacity="1" stroke="none"/>
<path d="M157.727 0L238.038 0L238.038 1080L157.727 1080L157.727 0Z" fill="#87c067" fill-rule="nonzero" opacity="1" stroke="none"/>
<path d="M238.038 0L318.349 0L318.349 1080L238.038 1080L238.038 0Z" fill="#99c066" fill-rule="nonzero" opacity="1" stroke="none"/>
<path d="M317.337 0L397.648 0L397.648 1080L317.337 1080L317.337 0Z" fill="#aac066" fill-rule="nonzero" opacity="1" stroke="none"/>
<path d="M396.627 0L476.938 0L476.938 1080L396.627 1080L396.627 0Z" fill="#bcc065" fill-rule="nonzero" opacity="1" stroke="none"/>
<path d="M476.938 0L557.249 0L557.249 1080L476.938 1080L476.938 0Z" fill="#c0b565" fill-rule="nonzero" opacity="1" stroke="none"/>
<path d="M957.521 0L1037.83 0L1037.83 1080L957.521 1080L957.521 0Z" fill="#65c0aa" fill-rule="nonzero" opacity="1" stroke="none"/>
<path d="M557.249 0L638.599 0L638.599 1080L557.249 1080L557.249 0Z" fill="#ae9e66" fill-rule="nonzero" opacity="1" stroke="none"/>
<path d="M1037.83 0L1119.18 0L1119.18 1080L1037.83 1080L1037.83 0Z" fill="#66adae" fill-rule="nonzero" opacity="1" stroke="none"/>
<path d="M638.406 0L725.098 0L725.098 1080L638.406 1080L638.406 0Z" fill="#9c9a7c" fill-rule="nonzero" opacity="1" stroke="none"/>
<path d="M1118.99 0L1206.51 0L1206.51 1080L1118.99 1080L1118.99 0Z" fill="#669bb3" fill-rule="nonzero" opacity="1" stroke="none"/>
<path d="M718.717 0L799.028 0L799.028 1080L718.717 1080L718.717 0Z" fill="#89a692" fill-rule="nonzero" opacity="1" stroke="none"/>
<path d="M1199.3 0L1279.61 0L1279.61 1080L1199.3 1080L1199.3 0Z" fill="#6789b7" fill-rule="nonzero" opacity="1" stroke="none"/>
<path d="M798.374 0L878.685 0L878.685 1080L798.374 1080L798.374 0Z" fill="#77b3a8" fill-rule="nonzero" opacity="1" stroke="none"/>
<path d="M1278.96 0L1359.27 0L1359.27 1080L1278.96 1080L1278.96 0Z" fill="#6877bb" fill-rule="nonzero" opacity="1" stroke="none"/>
<path d="M878.033 0L958.344 0L958.344 1080L878.033 1080L878.033 0Z" fill="#65c0be" fill-rule="nonzero" opacity="1" stroke="none"/>
<path d="M1358.62 0L1438.93 0L1438.93 1080L1358.62 1080L1358.62 0Z" fill="#6965c0" fill-rule="nonzero" opacity="1" stroke="none"/>
<path d="M1438.34 0L1521.97 0L1521.97 1080L1438.34 1080L1438.34 0Z" fill="#7765c0" fill-rule="nonzero" opacity="1" stroke="none"/>
<path d="M1518.65 0L1604.95 0L1604.95 1080L1518.65 1080L1518.65 0Z" fill="#7b61ae" fill-rule="nonzero" opacity="1" stroke="none"/>
<path d="M1598.97 0L1680.71 0L1680.71 1080L1598.97 1080L1598.97 0Z" fill="#8c5d9d" fill-rule="nonzero" opacity="1" stroke="none"/>
<path d="M1679.28 1.13687e-13L1759.59 1.13687e-13L1759.59 1080L1679.28 1080L1679.28 1.13687e-13Z" fill="#9e598b" fill-rule="nonzero" opacity="1" stroke="none"/>
<path d="M1757.03 2.27374e-13L1841.34 2.27374e-13L1841.34 1080L1757.03 1080L1757.03 2.27374e-13Z" fill="#b05579" fill-rule="nonzero" opacity="1" stroke="none"/>
<path d="M1840.28 0L1920 0L1920 1080L1840.28 1080L1840.28 0Z" fill="#b95371" fill-rule="nonzero" opacity="1" stroke="none"/>
</g>
<path d="M0.0359733 879.642" fill="none" opacity="1" stroke="#eb493a" stroke-linecap="butt" stroke-linejoin="round" stroke-width="10.2933"/>
</g>
</svg>
